<svg width="63" height="64" viewBox="0 0 63 64" fill="none" xmlns="http://www.w3.org/2000/svg">
<g clip-path="url(#clip0_2532_12624)">
<mask id="mask0_2532_12624" style="mask-type:luminance" maskUnits="userSpaceOnUse" x="0" y="0" width="63" height="64">
<path d="M0 63.4805H62.8V0.0138059H0V63.4805Z" fill="white"/>
</mask>
<g mask="url(#mask0_2532_12624)">
<mask id="mask1_2532_12624" style="mask-type:luminance" maskUnits="userSpaceOnUse" x="0" y="0" width="63" height="64">
<path d="M31.3697 -0.000313599C48.6473 -0.000313599 62.7396 14.2581 62.7396 31.7398C62.7396 49.2211 48.6473 63.4805 31.3697 63.4805C14.0917 63.4805 0 49.2211 0 31.7398C0 14.2581 14.0917 -0.000313599 31.3697 -0.000313599Z" fill="white"/>
</mask>
<g mask="url(#mask1_2532_12624)">
<path fill-rule="evenodd" clip-rule="evenodd" d="M-28.418 82.7305H76.1034V-21.7914H-28.418V82.7305ZM62.7414 63.4794V-0.00139481H0.0017654V63.4794H62.7414ZM31.3715 -0.00139481C48.6491 -0.00139481 62.7414 14.257 62.7414 31.7387C62.7414 49.2201 48.6491 63.4794 31.3715 63.4794C14.0935 63.4794 0.0017654 49.2201 0.0017654 31.7387C0.0017654 14.257 14.0935 -0.00139481 31.3715 -0.00139481Z" fill="#4081CB"/>
<path fill-rule="evenodd" clip-rule="evenodd" d="M-2.28906 56.6016H49.9719V4.34007H-2.28906V56.6016Z" fill="#4081CB"/>
<path fill-rule="evenodd" clip-rule="evenodd" d="M-2.08203 56.3945H49.7706V4.54135H-2.08203V56.3945Z" fill="#4182CC"/>
<path fill-rule="evenodd" clip-rule="evenodd" d="M-1.87891 56.1914H49.5649V4.74665H-1.87891V56.1914Z" fill="#4383CC"/>
<path fill-rule="evenodd" clip-rule="evenodd" d="M-1.67578 55.9883H49.3606V4.95235H-1.67578V55.9883Z" fill="#4483CC"/>
<path fill-rule="evenodd" clip-rule="evenodd" d="M-1.47266 55.7812H49.1554V5.15361H-1.47266V55.7812Z" fill="#4584CD"/>
<path fill-rule="evenodd" clip-rule="evenodd" d="M-1.26562 55.5781H48.9537V5.35828H-1.26562V55.5781Z" fill="#4684CD"/>
<path fill-rule="evenodd" clip-rule="evenodd" d="M-1.0625 55.375H48.749V5.56358H-1.0625V55.375Z" fill="#4885CD"/>
<path fill-rule="evenodd" clip-rule="evenodd" d="M-0.859375 55.1719H48.5442V5.76874H-0.859375V55.1719Z" fill="#4986CE"/>
<path fill-rule="evenodd" clip-rule="evenodd" d="M-0.65625 54.9648H48.3385V5.97055H-0.65625V54.9648Z" fill="#4A86CE"/>
<path fill-rule="evenodd" clip-rule="evenodd" d="M-0.449219 54.7617H48.1378V6.17584H-0.449219V54.7617Z" fill="#4C87CE"/>
<path fill-rule="evenodd" clip-rule="evenodd" d="M-0.246094 54.5586H47.9316V6.3805H-0.246094V54.5586Z" fill="#4D88CF"/>
<path fill-rule="evenodd" clip-rule="evenodd" d="M-0.0429688 54.3555H47.7264V6.58515H-0.0429688V54.3555Z" fill="#4E88CF"/>
<path fill-rule="evenodd" clip-rule="evenodd" d="M0.160156 54.1484H47.5227V6.78695H0.160156V54.1484Z" fill="#5089CF"/>
<path fill-rule="evenodd" clip-rule="evenodd" d="M0.367188 53.9453H47.3209V6.99225H0.367188V53.9453Z" fill="#518AD0"/>
<path fill-rule="evenodd" clip-rule="evenodd" d="M0.570312 53.7422H47.1157V7.19638H0.570312V53.7422Z" fill="#528AD0"/>
<path fill-rule="evenodd" clip-rule="evenodd" d="M0.773438 53.5391H46.9093V7.40261H0.773438V53.5391Z" fill="#538BD0"/>
<path fill-rule="evenodd" clip-rule="evenodd" d="M0.976562 53.332H46.7057V7.60334H0.976562V53.332Z" fill="#558CD1"/>
<path fill-rule="evenodd" clip-rule="evenodd" d="M1.18359 53.1289H46.5045V7.80917H1.18359V53.1289Z" fill="#568CD1"/>
<path fill-rule="evenodd" clip-rule="evenodd" d="M1.38672 52.9258H46.2988V8.01435H1.38672V52.9258Z" fill="#578DD1"/>
<path fill-rule="evenodd" clip-rule="evenodd" d="M1.58984 52.7227H46.0929V8.21848H1.58984V52.7227Z" fill="#598ED2"/>
<path fill-rule="evenodd" clip-rule="evenodd" d="M1.79688 52.5156H45.8917V8.4208H1.79688V52.5156Z" fill="#5A8FD2"/>
<path fill-rule="evenodd" clip-rule="evenodd" d="M2 52.3125H45.6875V8.62558H2V52.3125Z" fill="#5B8FD2"/>
<path fill-rule="evenodd" clip-rule="evenodd" d="M2.20312 52.1094H45.4817V8.83129H2.20312V52.1094Z" fill="#5C90D3"/>
<path fill-rule="evenodd" clip-rule="evenodd" d="M2.40625 51.9062H45.2765V9.03541H2.40625V51.9062Z" fill="#5E91D3"/>
<path fill-rule="evenodd" clip-rule="evenodd" d="M2.61328 51.6992H45.0747V9.23668H2.61328V51.6992Z" fill="#5F91D3"/>
<path fill-rule="evenodd" clip-rule="evenodd" d="M2.81641 51.4961H44.8701V9.44197H2.81641V51.4961Z" fill="#6092D4"/>
<path fill-rule="evenodd" clip-rule="evenodd" d="M3.01953 51.293H44.6653V9.64768H3.01953V51.293Z" fill="#6293D4"/>
<path fill-rule="evenodd" clip-rule="evenodd" d="M3.22266 51.0859H44.4601V9.84894H3.22266V51.0859Z" fill="#6394D4"/>
<path fill-rule="evenodd" clip-rule="evenodd" d="M3.42969 50.8828H44.2583V10.0536H3.42969V50.8828Z" fill="#6494D5"/>
<path fill-rule="evenodd" clip-rule="evenodd" d="M3.63281 50.6797H44.0537V10.2589H3.63281V50.6797Z" fill="#6695D5"/>
<path fill-rule="evenodd" clip-rule="evenodd" d="M3.83594 50.4766H43.8474V10.4641H3.83594V50.4766Z" fill="#6796D5"/>
<path fill-rule="evenodd" clip-rule="evenodd" d="M4.03906 50.2695H43.6432V10.6659H4.03906V50.2695Z" fill="#6897D6"/>
<path fill-rule="evenodd" clip-rule="evenodd" d="M4.24609 50.0664H43.4424V10.8711H4.24609V50.0664Z" fill="#6997D6"/>
<path fill-rule="evenodd" clip-rule="evenodd" d="M4.44922 49.8633H43.2362V11.0758H4.44922V49.8633Z" fill="#6B98D7"/>
<path fill-rule="evenodd" clip-rule="evenodd" d="M4.65234 49.6602H43.0316V11.2804H4.65234V49.6602Z" fill="#6C99D7"/>
<path fill-rule="evenodd" clip-rule="evenodd" d="M4.85547 49.4531H42.8268V11.4823H4.85547V49.4531Z" fill="#6D9AD7"/>
<path fill-rule="evenodd" clip-rule="evenodd" d="M5.0625 49.25H42.625V11.6875H5.0625V49.25Z" fill="#6F9AD8"/>
<path fill-rule="evenodd" clip-rule="evenodd" d="M5.26562 49.0469H42.4203V11.8917H5.26562V49.0469Z" fill="#709BD8"/>
<path fill-rule="evenodd" clip-rule="evenodd" d="M5.46875 48.8438H42.2141V12.0979H5.46875V48.8438Z" fill="#719CD8"/>
<path fill-rule="evenodd" clip-rule="evenodd" d="M5.67188 48.6367H42.0088V12.2987H5.67188V48.6367Z" fill="#739DD9"/>
<path fill-rule="evenodd" clip-rule="evenodd" d="M5.87891 48.4336H41.8086V12.5044H5.87891V48.4336Z" fill="#749ED9"/>
<path fill-rule="evenodd" clip-rule="evenodd" d="M6.08203 48.2305H41.6034V12.7097H6.08203V48.2305Z" fill="#759ED9"/>
<path fill-rule="evenodd" clip-rule="evenodd" d="M6.28516 48.0273H41.3981V12.9139H6.28516V48.0273Z" fill="#779FDA"/>
<path fill-rule="evenodd" clip-rule="evenodd" d="M6.48828 47.8203H41.1929V13.1162H6.48828V47.8203Z" fill="#78A0DA"/>
<path fill-rule="evenodd" clip-rule="evenodd" d="M6.69531 47.6172H40.9922V13.3208H6.69531V47.6172Z" fill="#79A1DA"/>
<path fill-rule="evenodd" clip-rule="evenodd" d="M6.89844 47.4141H40.787V13.5266H6.89844V47.4141Z" fill="#7BA2DB"/>
<path fill-rule="evenodd" clip-rule="evenodd" d="M7.10156 47.207H40.5812V13.7278H7.10156V47.207Z" fill="#7CA2DB"/>
<path fill-rule="evenodd" clip-rule="evenodd" d="M7.30859 47.0039H40.3794V13.932H7.30859V47.0039Z" fill="#7DA3DC"/>
<path fill-rule="evenodd" clip-rule="evenodd" d="M7.51172 46.8008H40.1742V14.1372H7.51172V46.8008Z" fill="#7FA4DC"/>
<path fill-rule="evenodd" clip-rule="evenodd" d="M7.71484 46.5977H39.9701V14.343H7.71484V46.5977Z" fill="#80A5DC"/>
<path fill-rule="evenodd" clip-rule="evenodd" d="M7.91797 46.3906H39.7648V14.5442H7.91797V46.3906Z" fill="#82A6DD"/>
<path fill-rule="evenodd" clip-rule="evenodd" d="M8.125 46.1875H39.563V14.749H8.125V46.1875Z" fill="#83A7DD"/>
<path fill-rule="evenodd" clip-rule="evenodd" d="M8.32812 45.9844H39.3578V14.9541H8.32812V45.9844Z" fill="#84A7DD"/>
<path fill-rule="evenodd" clip-rule="evenodd" d="M8.53125 45.7812H39.1542V15.1594H8.53125V45.7812Z" fill="#86A8DE"/>
<path fill-rule="evenodd" clip-rule="evenodd" d="M8.73438 45.5742H38.9479V15.3611H8.73438V45.5742Z" fill="#87A9DE"/>
<path fill-rule="evenodd" clip-rule="evenodd" d="M8.94141 45.3711H38.7466V15.5664H8.94141V45.3711Z" fill="#88AADE"/>
<path fill-rule="evenodd" clip-rule="evenodd" d="M9.14453 45.168H38.5409V15.771H9.14453V45.168Z" fill="#8AABDF"/>
<path fill-rule="evenodd" clip-rule="evenodd" d="M9.34766 44.9648H38.3362V15.9758H9.34766V44.9648Z" fill="#8BACDF"/>
<path fill-rule="evenodd" clip-rule="evenodd" d="M9.55469 44.7578H38.1349V16.1781H9.55469V44.7578Z" fill="#8DADE0"/>
<path fill-rule="evenodd" clip-rule="evenodd" d="M9.75781 44.5547H37.9297V16.3834H9.75781V44.5547Z" fill="#8EAEE0"/>
<path fill-rule="evenodd" clip-rule="evenodd" d="M9.96094 44.3516H37.725V16.5885H9.96094V44.3516Z" fill="#8FAEE0"/>
<path fill-rule="evenodd" clip-rule="evenodd" d="M10.1641 44.1484H37.5188V16.7932H10.1641V44.1484Z" fill="#91AFE1"/>
<path fill-rule="evenodd" clip-rule="evenodd" d="M10.3672 43.9414H37.314V16.9941H10.3672V43.9414Z" fill="#92B0E1"/>
<path fill-rule="evenodd" clip-rule="evenodd" d="M10.5742 43.7383H37.1133V17.1997H10.5742V43.7383Z" fill="#93B1E1"/>
<path fill-rule="evenodd" clip-rule="evenodd" d="M10.7773 43.5352H36.9081V17.4049H10.7773V43.5352Z" fill="#95B2E2"/>
<path fill-rule="evenodd" clip-rule="evenodd" d="M10.9805 43.332H36.7029V17.6091H10.9805V43.332Z" fill="#96B3E2"/>
<path fill-rule="evenodd" clip-rule="evenodd" d="M11.1875 43.125H36.501V17.8115H11.1875V43.125Z" fill="#98B4E3"/>
<path fill-rule="evenodd" clip-rule="evenodd" d="M11.3906 42.9219H36.2969V18.0161H11.3906V42.9219Z" fill="#99B5E3"/>
<path fill-rule="evenodd" clip-rule="evenodd" d="M11.5938 42.7188H36.0912V18.2218H11.5938V42.7188Z" fill="#9AB6E3"/>
<path fill-rule="evenodd" clip-rule="evenodd" d="M11.7969 42.5117H35.886V18.4232H11.7969V42.5117Z" fill="#9CB7E4"/>
<path fill-rule="evenodd" clip-rule="evenodd" d="M12.0039 42.3086H35.6841V18.6274H12.0039V42.3086Z" fill="#9EB8E4"/>
<path fill-rule="evenodd" clip-rule="evenodd" d="M12.207 42.1055H35.4789V18.8325H12.207V42.1055Z" fill="#9FB9E5"/>
<path fill-rule="evenodd" clip-rule="evenodd" d="M12.4102 41.9023H35.2748V19.0382H12.4102V41.9023Z" fill="#A1BAE5"/>
<path fill-rule="evenodd" clip-rule="evenodd" d="M12.6133 41.6953H35.0701V19.2396H12.6133V41.6953Z" fill="#A2BBE6"/>
<path fill-rule="evenodd" clip-rule="evenodd" d="M12.8203 41.4922H34.8677V19.4443H12.8203V41.4922Z" fill="#A4BCE6"/>
<path fill-rule="evenodd" clip-rule="evenodd" d="M13.0234 41.2891H34.6625V19.6495H13.0234V41.2891Z" fill="#A6BDE6"/>
<path fill-rule="evenodd" clip-rule="evenodd" d="M13.2266 41.0859H34.4568V19.8547H13.2266V41.0859Z" fill="#A7BEE7"/>
<path fill-rule="evenodd" clip-rule="evenodd" d="M13.4297 40.8789H34.2526V20.0565H13.4297V40.8789Z" fill="#A9BFE7"/>
<path fill-rule="evenodd" clip-rule="evenodd" d="M13.6367 40.6758H34.0513V20.2616H13.6367V40.6758Z" fill="#AAC0E8"/>
<path fill-rule="evenodd" clip-rule="evenodd" d="M13.8398 40.4727H33.8456V20.4664H13.8398V40.4727Z" fill="#ACC2E8"/>
<path fill-rule="evenodd" clip-rule="evenodd" d="M14.043 40.2695H33.6408V20.6711H14.043V40.2695Z" fill="#AEC3E9"/>
<path fill-rule="evenodd" clip-rule="evenodd" d="M14.25 40.0625H33.4396V20.8729H14.25V40.0625Z" fill="#AFC4E9"/>
<path fill-rule="evenodd" clip-rule="evenodd" d="M14.4531 39.8594H33.2343V21.0787H14.4531V39.8594Z" fill="#B1C5EA"/>
<path fill-rule="evenodd" clip-rule="evenodd" d="M14.6562 39.6562H33.0292V21.2839H14.6562V39.6562Z" fill="#B3C6EA"/>
<path fill-rule="evenodd" clip-rule="evenodd" d="M14.8594 39.4531H32.8235V21.4885H14.8594V39.4531Z" fill="#B4C7EA"/>
<path fill-rule="evenodd" clip-rule="evenodd" d="M15.0625 39.2461H32.6193V21.6893H15.0625V39.2461Z" fill="#B6C8EB"/>
<path fill-rule="evenodd" clip-rule="evenodd" d="M15.2695 39.043H32.4169V21.8951H15.2695V39.043Z" fill="#B7C9EB"/>
<path fill-rule="evenodd" clip-rule="evenodd" d="M15.4727 38.8398H32.2128V22.1002H15.4727V38.8398Z" fill="#B9CBEC"/>
<path fill-rule="evenodd" clip-rule="evenodd" d="M15.6758 38.6367H32.0075V22.3045H15.6758V38.6367Z" fill="#BBCCEC"/>
<path fill-rule="evenodd" clip-rule="evenodd" d="M15.8828 38.4297H31.8063V22.5068H15.8828V38.4297Z" fill="#BCCDED"/>
<path fill-rule="evenodd" clip-rule="evenodd" d="M16.0859 38.2266H31.601V22.7115H16.0859V38.2266Z" fill="#BECEED"/>
<path fill-rule="evenodd" clip-rule="evenodd" d="M16.2891 38.0234H31.3964V22.9172H16.2891V38.0234Z" fill="#C0CFEE"/>
<path fill-rule="evenodd" clip-rule="evenodd" d="M16.4922 37.8164H31.1906V23.1185H16.4922V37.8164Z" fill="#C1D0EE"/>
<path fill-rule="evenodd" clip-rule="evenodd" d="M16.6992 37.6133H30.9894V23.3226H16.6992V37.6133Z" fill="#C3D2EE"/>
<path fill-rule="evenodd" clip-rule="evenodd" d="M16.9023 37.4102H30.7846V23.5279H16.9023V37.4102Z" fill="#C5D3EF"/>
<path fill-rule="evenodd" clip-rule="evenodd" d="M17.1055 37.207H30.5789V23.7336H17.1055V37.207Z" fill="#C6D4EF"/>
<path fill-rule="evenodd" clip-rule="evenodd" d="M17.3086 37H30.3747V23.9349H17.3086V37Z" fill="#C8D5F0"/>
<path fill-rule="evenodd" clip-rule="evenodd" d="M17.5156 36.7969H30.1724V24.1395H17.5156V36.7969Z" fill="#CAD7F0"/>
<path fill-rule="evenodd" clip-rule="evenodd" d="M17.7188 36.5938H29.9666V24.3448H17.7188V36.5938Z" fill="#CBD8F1"/>
<path fill-rule="evenodd" clip-rule="evenodd" d="M17.9219 36.3906H29.7625V24.55H17.9219V36.3906Z" fill="#CDD9F1"/>
<path fill-rule="evenodd" clip-rule="evenodd" d="M18.125 36.1836H29.5567V24.7519H18.125V36.1836Z" fill="#CFDAF2"/>
<path fill-rule="evenodd" clip-rule="evenodd" d="M18.332 35.9805H29.356V24.957H18.332V35.9805Z" fill="#D0DBF2"/>
<path fill-rule="evenodd" clip-rule="evenodd" d="M18.5352 35.7773H29.1502V25.1617H18.5352V35.7773Z" fill="#D2DDF3"/>
<path fill-rule="evenodd" clip-rule="evenodd" d="M18.7383 35.5742H28.9461V25.3664H18.7383V35.5742Z" fill="#D4DEF3"/>
<path fill-rule="evenodd" clip-rule="evenodd" d="M18.9453 35.3672H28.7437V25.5683H18.9453V35.3672Z" fill="#D6DFF4"/>
<path fill-rule="evenodd" clip-rule="evenodd" d="M19.1484 35.1641H28.539V25.7739H19.1484V35.1641Z" fill="#D7E0F4"/>
<path fill-rule="evenodd" clip-rule="evenodd" d="M19.3516 34.9609H28.3338V25.9792H19.3516V34.9609Z" fill="#D9E2F4"/>
<path fill-rule="evenodd" clip-rule="evenodd" d="M19.5547 34.7578H28.1282V26.1838H19.5547V34.7578Z" fill="#DBE3F5"/>
<path fill-rule="evenodd" clip-rule="evenodd" d="M19.7578 34.5508H27.9239V26.3846H19.7578V34.5508Z" fill="#DCE4F5"/>
<path fill-rule="evenodd" clip-rule="evenodd" d="M19.9648 34.3477H27.7216V26.5903H19.9648V34.3477Z" fill="#DEE6F6"/>
<path fill-rule="evenodd" clip-rule="evenodd" d="M20.168 34.1445H27.5174V26.7956H20.168V34.1445Z" fill="#E0E7F6"/>
<path fill-rule="evenodd" clip-rule="evenodd" d="M20.3711 33.9414H27.3123V26.9997H20.3711V33.9414Z" fill="#E1E8F7"/>
<path fill-rule="evenodd" clip-rule="evenodd" d="M20.5781 33.7344H27.1104V27.2021H20.5781V33.7344Z" fill="#E3E9F7"/>
<path fill-rule="evenodd" clip-rule="evenodd" d="M20.7812 33.5312H26.9056V27.4067H20.7812V33.5312Z" fill="#E5EBF8"/>
<path fill-rule="evenodd" clip-rule="evenodd" d="M20.9844 33.3281H26.7V27.6125H20.9844V33.3281Z" fill="#E7ECF8"/>
<path fill-rule="evenodd" clip-rule="evenodd" d="M21.1875 33.1211H26.4954V27.8138H21.1875V33.1211Z" fill="#E8EDF9"/>
<path fill-rule="evenodd" clip-rule="evenodd" d="M21.3945 32.918H26.294V28.018H21.3945V32.918Z" fill="#EAEFF9"/>
<path fill-rule="evenodd" clip-rule="evenodd" d="M21.5977 32.7148H26.0887V28.2231H21.5977V32.7148Z" fill="#ECF0FA"/>
<path fill-rule="evenodd" clip-rule="evenodd" d="M21.8008 32.5117H25.8836V28.4289H21.8008V32.5117Z" fill="#EEF1FA"/>
<path fill-rule="evenodd" clip-rule="evenodd" d="M22.0039 32.3047H25.6795V28.6303H22.0039V32.3047Z" fill="#EFF3FB"/>
<path fill-rule="evenodd" clip-rule="evenodd" d="M22.2109 32.1016H25.4771V28.8349H22.2109V32.1016Z" fill="#F1F4FB"/>
<path fill-rule="evenodd" clip-rule="evenodd" d="M22.4141 31.8984H25.2723V29.0402H22.4141V31.8984Z" fill="#F3F5FC"/>
<path fill-rule="evenodd" clip-rule="evenodd" d="M22.6172 31.6953H25.0672V29.2453H22.6172V31.6953Z" fill="#F4F7FC"/>
<path fill-rule="evenodd" clip-rule="evenodd" d="M22.8203 31.4883H24.8615V29.4471H22.8203V31.4883Z" fill="#F6F8FD"/>
<path fill-rule="evenodd" clip-rule="evenodd" d="M23.0273 31.2852H24.6612V29.6518H23.0273V31.2852Z" fill="#F8F9FD"/>
<path fill-rule="evenodd" clip-rule="evenodd" d="M23.2305 31.082H24.4549V29.8575H23.2305V31.082Z" fill="#FAFBFE"/>
<path fill-rule="evenodd" clip-rule="evenodd" d="M23.4336 30.8789H24.2508V30.0617H23.4336V30.8789Z" fill="#FBFCFE"/>
<path fill-rule="evenodd" clip-rule="evenodd" d="M23.6367 30.6719H24.0451V30.2636H23.6367V30.6719Z" fill="#FDFEFF"/>
</g>
</g>
<path fill-rule="evenodd" clip-rule="evenodd" d="M23.995 7.65754L22.2258 28.1029L6.72266 27.6482L21.9909 32.5507L24.618 59.5273L26.571 32.6783L54.8565 32.7002L26.5981 28.4326L23.995 7.65754Z" fill="white"/>
<path fill-rule="evenodd" clip-rule="evenodd" d="M39.3226 52.8799C39.3721 52.8487 39.4215 52.8268 39.4674 52.8164C39.5143 52.806 39.5586 52.8008 39.6002 52.8008C39.6471 52.8008 39.6898 52.807 39.7305 52.82C39.7706 52.8346 39.8043 52.8487 39.8346 52.8643C39.8554 52.8747 39.8737 52.8852 39.8877 52.8956C39.9039 52.906 39.9143 52.9154 39.9231 52.9206C39.9909 52.8617 40.0543 52.7966 40.1158 52.7253C40.1767 52.6534 40.233 52.5805 40.2835 52.5065C40.3685 52.3893 40.4387 52.2773 40.4961 52.168C40.5523 52.0586 40.5873 51.97 40.6002 51.9008C40.6039 51.8904 40.6065 51.8789 40.6065 51.8659C40.6065 51.8529 40.6065 51.8398 40.6065 51.8294C40.6065 51.819 40.6065 51.8096 40.6065 51.8018C40.6065 51.794 40.6039 51.7878 40.6002 51.7825C40.5914 51.7497 40.5742 51.7211 40.5455 51.694C40.5195 51.668 40.4841 51.6549 40.4414 51.6549C40.3617 51.6549 40.2643 51.7081 40.1486 51.8138C40.0315 51.9206 39.9101 52.0534 39.7835 52.2122C39.7253 52.2862 39.6663 52.3643 39.6106 52.4466C39.5534 52.5284 39.4977 52.6091 39.443 52.6888C39.4215 52.7211 39.3997 52.7523 39.3789 52.7852C39.3581 52.8164 39.3398 52.8487 39.3226 52.8799ZM38.6523 52.4659C38.6097 52.5195 38.5794 52.5508 38.5597 52.5622C38.5419 52.5727 38.5299 52.5779 38.5247 52.5779C38.5206 52.5779 38.5169 52.5779 38.5133 52.5779C38.5039 52.5727 38.4977 52.569 38.4909 52.5664C38.4841 52.5638 38.4794 52.556 38.4753 52.5456C38.4701 52.5352 38.469 52.5247 38.469 52.5143C38.469 52.5039 38.4701 52.4935 38.4753 52.4831C38.4794 52.4555 38.5247 52.3852 38.6106 52.2721C38.6966 52.1575 38.957 51.832 39.3919 51.2966C39.6835 50.9414 39.8877 50.6497 40.0049 50.4216C40.1237 50.1924 40.2226 50.0231 40.3034 49.9127C40.345 49.8539 40.3893 49.8097 40.4351 49.781C40.4819 49.7513 40.5403 49.7367 40.6133 49.7367C40.6253 49.7367 40.6377 49.7382 40.6507 49.7409C40.6627 49.7435 40.6758 49.7471 40.6887 49.7523C40.719 49.7627 40.7461 49.7799 40.7731 49.8007C40.8007 49.8215 40.8153 49.8435 40.8153 49.8643C40.8153 49.8695 40.8153 49.8737 40.8153 49.8763C40.8153 49.8789 40.8111 49.8826 40.8023 49.8878C40.4819 50.419 40.2601 50.8034 40.1377 51.0414C40.0153 51.281 39.9439 51.4242 39.9231 51.4711C39.9195 51.4831 39.9143 51.4945 39.9075 51.5075C39.9007 51.5206 39.8961 51.5325 39.8919 51.543C39.8753 51.5805 39.8539 51.6221 39.8319 51.6664C39.8086 51.7122 39.7763 51.7799 39.733 51.8695C39.7763 51.8164 39.8319 51.7513 39.9007 51.6742C39.9701 51.5977 40.0482 51.5195 40.1315 51.4398C40.1695 51.4023 40.2086 51.3669 40.2461 51.332C40.2835 51.2982 40.3215 51.2654 40.3597 51.2331C40.4742 51.1325 40.583 51.0492 40.6887 50.9815C40.7939 50.9164 40.8805 50.8825 40.9482 50.8825C40.9554 50.8825 40.9638 50.8825 40.9701 50.8825C40.9763 50.8825 40.9841 50.8825 40.9925 50.8825C41.0597 50.8982 41.121 50.9388 41.1758 51.0023C41.2305 51.0664 41.2581 51.1716 41.2581 51.32C41.2581 51.3945 41.2486 51.4701 41.2294 51.5466C41.2097 51.6237 41.1862 51.7018 41.1559 51.7825C41.0934 51.931 41.0133 52.0753 40.9163 52.2159C40.819 52.3565 40.719 52.4883 40.6133 52.6091C40.5367 52.694 40.4649 52.7721 40.3945 52.8398C40.3242 52.9102 40.2601 52.9701 40.2018 53.0232C40.2643 53.0596 40.3294 53.0857 40.3971 53.0987C40.4649 53.1117 40.5351 53.1185 40.6065 53.1185C40.7242 53.1185 40.8319 53.0924 40.9283 53.0388C41.0263 52.9857 41.1081 52.9284 41.1758 52.8643C41.2226 52.8216 41.2601 52.7799 41.293 52.7367C41.3242 52.694 41.3466 52.6628 41.3597 52.6419C41.3633 52.6367 41.3669 52.6315 41.371 52.6263C41.3763 52.6211 41.3805 52.6143 41.3841 52.6091C41.393 52.5987 41.4007 52.5883 41.4091 52.5779C41.4179 52.5674 41.4283 52.5622 41.4414 52.5622C41.445 52.5622 41.4491 52.5622 41.4534 52.5622C41.4658 52.5674 41.4763 52.5727 41.4857 52.5779C41.4934 52.5831 41.4977 52.5935 41.4977 52.6091C41.4977 52.6263 41.4882 52.6638 41.4658 52.7253C41.445 52.7862 41.3669 52.8956 41.233 53.0544C41.1273 53.182 41.0091 53.293 40.8773 53.3852C40.7477 53.4779 40.6133 53.5544 40.4742 53.6117C40.3425 53.6706 40.2149 53.7148 40.0873 53.7435C39.9606 53.7732 39.845 53.7878 39.7393 53.7878C39.6715 53.7878 39.5986 53.7758 39.5221 53.7513C39.4439 53.7279 39.3669 53.694 39.2903 53.6523C39.2486 53.6247 39.2086 53.6003 39.1706 53.5768C39.1325 53.5518 39.095 53.5221 39.0575 53.4841C38.833 54.0846 38.6799 54.5206 38.5977 54.794C38.5153 55.0664 38.4482 55.2435 38.393 55.3227C38.3753 55.3555 38.3565 55.3763 38.3362 55.3867C38.3153 55.3971 38.2919 55.4023 38.2653 55.4023C38.2201 55.4023 38.1835 55.3711 38.1591 55.307C38.1325 55.2435 38.1185 55.1716 38.1149 55.0924C38.1149 55.0872 38.1149 55.0805 38.1149 55.0716C38.1149 55.0638 38.1149 55.057 38.1149 55.0518C38.1149 55.031 38.1237 54.9685 38.143 54.8659C38.1611 54.7617 38.1819 54.6523 38.2034 54.5352C38.2034 54.5247 38.2043 54.5169 38.2054 54.5117C38.2086 54.5065 38.2097 54.4987 38.2097 54.4867C38.2305 54.3815 38.2497 54.2836 38.2695 54.1924C38.2877 54.1029 38.2991 54.044 38.3043 54.018C38.3753 53.8539 38.4597 53.694 38.5575 53.5404C38.6539 53.3867 38.7653 53.2409 38.8919 53.1029L39.6325 51.3841L38.6523 52.4659ZM36.1982 50.7549C36.1731 50.7237 36.1559 50.682 36.1471 50.6325C36.1393 50.582 36.1341 50.5143 36.1341 50.4294C36.1341 50.2487 36.2357 50.0821 36.4387 49.9283C36.6409 49.7747 36.8649 49.6471 37.1081 49.5466C37.2851 49.4726 37.4554 49.4154 37.6185 49.3747C37.7799 49.3357 37.9039 49.3149 37.9882 49.3149C38.0977 49.3149 38.181 49.3357 38.2382 49.3747C38.2939 49.4154 38.3319 49.4581 38.3486 49.5065C38.3565 49.5221 38.3617 49.5378 38.3649 49.5507C38.3658 49.5638 38.3669 49.5778 38.3669 49.5935C38.3669 49.5987 38.3658 49.6054 38.3649 49.6133C38.3617 49.6221 38.3597 49.6315 38.3554 49.6419L38.1706 50.0231C38.1663 50.0179 38.1611 50.0143 38.1549 50.0117C38.1497 50.0091 38.1445 50.0075 38.1393 50.0075C38.0674 49.9701 37.9945 49.9477 37.9179 49.9398C37.8425 49.9321 37.7513 49.9283 37.6461 49.9283C37.5575 49.9283 37.4554 49.9425 37.3398 49.9711C37.2242 50.0013 37.1039 50.0414 36.9819 50.095C36.8267 50.169 36.6767 50.2602 36.5367 50.3695C36.3945 50.4789 36.2825 50.6065 36.1982 50.7549ZM34.9319 52.6966C35.1273 52.4477 35.2991 52.2409 35.4518 52.0768C35.6029 51.9128 35.7409 51.7628 35.8633 51.6315C36.1966 51.2862 36.4231 51.0727 36.5455 50.9909C36.6679 50.9086 36.7549 50.8669 36.8043 50.8669C36.8763 50.8669 36.9258 50.8852 36.9502 50.9232C36.9763 50.9596 36.9909 50.9997 36.9945 51.0414C36.9986 51.0586 37.0013 51.0753 37.0013 51.0935C37.0013 51.1117 37.0013 51.1299 37.0013 51.1456C37.0013 51.1508 37.0013 51.1549 37.0013 51.1575C37.0013 51.1602 37.0013 51.1638 37.0013 51.169C37.0013 51.2122 36.9977 51.2497 36.9909 51.2852C36.9857 51.319 36.9763 51.3529 36.9638 51.3841C36.9543 51.3997 36.9466 51.418 36.9373 51.4362C36.9299 51.4544 36.9206 51.4737 36.9127 51.4961C36.7939 51.7654 36.6982 51.9518 36.621 52.0534C36.5455 52.1534 36.5013 52.2357 36.4882 52.2992C36.4882 52.3044 36.4882 52.3096 36.4882 52.3148C36.4882 52.3201 36.4882 52.3253 36.4882 52.3305C36.4882 52.3477 36.4934 52.3617 36.5013 52.3747C36.5101 52.3878 36.5185 52.3945 36.5273 52.3945C36.5315 52.3945 36.5335 52.3945 36.5367 52.3945C36.5377 52.3945 36.5419 52.3945 36.5455 52.3945C36.5758 52.3841 36.6263 52.3305 36.6982 52.2357C36.7695 52.1404 36.9466 51.9518 37.2294 51.6706C37.3971 51.5013 37.5507 51.3669 37.6914 51.2695C37.8294 51.1706 37.9206 51.1055 37.9622 51.0742C37.9658 51.0742 37.971 51.0726 37.9753 51.07C37.9794 51.0674 37.983 51.0638 37.9882 51.0586C38.0049 51.0466 38.0231 51.0378 38.0439 51.0299C38.0653 51.0221 38.0873 51.018 38.1081 51.018C38.1419 51.018 38.1715 51.044 38.2002 51.0935C38.2263 51.1445 38.2513 51.2018 38.2721 51.2654C38.2851 51.307 38.2955 51.3487 38.3043 51.3878C38.3127 51.4284 38.3163 51.4581 38.3163 51.4789C38.3163 51.5117 38.3086 51.5404 38.2919 51.5674C38.2747 51.5935 38.2581 51.6195 38.2409 51.6471C38.2373 51.6471 38.2319 51.6497 38.2278 51.6549C38.2242 51.6602 38.2201 51.6654 38.2149 51.6706C37.9961 51.9206 37.8477 52.1352 37.7695 52.3148C37.6914 52.4961 37.6523 52.6341 37.6523 52.7289C37.6523 52.8086 37.6679 52.8685 37.7002 52.9075C37.7319 52.9477 37.7783 52.9674 37.8425 52.9674C37.8841 52.9674 37.9482 52.9477 38.0325 52.9075C38.1158 52.8685 38.2382 52.7549 38.3986 52.57C38.4039 52.5648 38.4059 52.5612 38.4091 52.5586C38.4101 52.556 38.4143 52.5534 38.4179 52.5534C38.431 52.5378 38.4439 52.5247 38.4597 52.5143C38.4742 52.5039 38.4893 52.4987 38.5065 52.4987C38.5153 52.4987 38.5231 52.5013 38.5315 52.5065C38.5403 52.5117 38.5471 52.5195 38.5507 52.5299C38.5543 52.5404 38.5575 52.5534 38.5575 52.5664C38.5575 52.5794 38.5543 52.5909 38.5507 52.6013C38.5377 52.6654 38.4977 52.7445 38.4267 52.8398C38.3581 52.9362 38.2747 53.0336 38.1767 53.1352C38.1357 53.1768 38.0914 53.2211 38.0439 53.2654C37.9986 53.3112 37.9518 53.3555 37.9049 53.3971C37.7783 53.5039 37.6601 53.5935 37.5482 53.668C37.4362 53.7419 37.3554 53.7784 37.3043 53.7784C37.2919 53.7784 37.2799 53.7784 37.2695 53.7758C37.2591 53.7732 37.2497 53.7706 37.2409 53.7706C37.1819 53.7549 37.1289 53.7227 37.081 53.6716C37.0315 53.6211 37.0081 53.5508 37.0081 53.4607C37.0081 53.3919 37.0143 53.3044 37.0263 53.1977C37.0387 53.0924 37.083 52.944 37.1591 52.7523C37.1887 52.6784 37.2138 52.6185 37.2319 52.5742C37.2513 52.5284 37.2706 52.4883 37.2919 52.4503L37.2982 52.4346C37.3023 52.4294 37.3059 52.4258 37.3075 52.4232C37.3097 52.4206 37.3111 52.4154 37.3111 52.4102C37.345 52.3477 37.3669 52.2966 37.3773 52.2591C37.3877 52.2226 37.393 52.194 37.393 52.1716C37.393 52.156 37.3893 52.1456 37.3805 52.1404C37.3721 52.1352 37.3617 52.1289 37.3486 52.1237C37.345 52.1237 37.3398 52.1237 37.3362 52.1237C37.3153 52.1237 37.2731 52.1523 37.2097 52.2081C37.1471 52.2643 37.0794 52.3279 37.0081 52.4023C36.9986 52.4075 36.9909 52.4154 36.9857 52.4232C36.9794 52.431 36.971 52.4372 36.9638 52.4424C36.8997 52.5117 36.8414 52.5752 36.7867 52.6341C36.7319 52.6914 36.695 52.7315 36.6783 52.7523C36.4763 52.9919 36.3153 53.1872 36.195 53.3409C36.0742 53.4945 35.9658 53.5727 35.8685 53.5727C35.8606 53.5727 35.8518 53.5716 35.8434 53.569C35.8362 53.5648 35.8242 53.5596 35.8127 53.5482C35.7919 53.5325 35.7695 53.5039 35.7486 53.4607C35.7278 53.419 35.7174 53.3659 35.7174 53.3018C35.7174 53.2695 35.721 53.2357 35.7305 53.1977C35.7382 53.1612 35.7477 53.1211 35.7549 53.0794C35.7633 53.0534 35.7731 53.0258 35.7835 52.9997C35.7939 52.9727 35.8059 52.9492 35.819 52.9284C35.8362 52.8852 35.8518 52.8477 35.8658 52.8122C35.8805 52.7784 35.8919 52.7523 35.9007 52.7367C35.9893 52.556 36.0586 52.4242 36.1097 52.3398C36.1601 52.2539 36.1851 52.1846 36.1851 52.1325C36.1851 52.1263 36.1851 52.1185 36.1819 52.1081C36.1799 52.0977 36.1767 52.0872 36.1731 52.0768C36.1643 52.0612 36.1507 52.044 36.1315 52.0284C36.1117 52.0128 36.0846 52.0049 36.0471 52.0049C35.9491 52.0049 35.8414 52.0674 35.7201 52.1914C35.6002 52.3164 35.4597 52.4857 35.2991 52.6966C35.2867 52.7133 35.2773 52.7279 35.2685 52.7409C35.2591 52.7539 35.2486 52.7669 35.2373 52.7773C35.1185 52.9466 35.0247 53.1055 34.9554 53.2539C34.8857 53.4023 34.819 53.5013 34.7565 53.5482C34.7477 53.5544 34.7382 53.5596 34.7278 53.5648C34.7158 53.5701 34.7054 53.5727 34.693 53.5727C34.6799 53.5727 34.6653 53.5701 34.6486 53.5648C34.6315 53.5596 34.6117 53.5456 34.5914 53.5247C34.5534 53.4867 34.5185 53.4164 34.4873 53.3138C34.4554 53.2107 34.4398 53.0466 34.4398 52.8242C34.4398 52.6758 34.4466 52.5534 34.4622 52.4581C34.4763 52.3633 34.5013 52.2695 34.5351 52.1794C34.5638 52.1107 34.6018 52.0362 34.6486 51.957C34.695 51.8773 34.7513 51.7825 34.819 51.6706C34.8565 51.6117 34.8919 51.556 34.9231 51.5039C34.9554 51.4503 34.9882 51.4023 35.0221 51.3607C35.0846 51.2654 35.1539 51.1898 35.2278 51.1378C35.3007 51.0846 35.3877 51.0586 35.4893 51.0586C35.5273 51.0586 35.5586 51.069 35.5846 51.0898C35.6097 51.1107 35.6263 51.1378 35.6357 51.169C35.6357 51.1742 35.6367 51.181 35.6377 51.1898C35.6409 51.1977 35.6419 51.2044 35.6419 51.2096C35.6419 51.2201 35.6409 51.2315 35.6377 51.2445C35.6367 51.2575 35.6315 51.2732 35.6221 51.2888C35.6185 51.3044 35.6097 51.3216 35.5966 51.3409C35.5846 51.3591 35.5742 51.3763 35.5653 51.3919C35.5575 51.4075 35.5482 51.4216 35.5403 51.432C35.5315 51.4424 35.5231 51.4529 35.5143 51.4633C35.4977 51.4857 35.4586 51.5362 35.3971 51.6185C35.3373 51.7018 35.2721 51.793 35.2043 51.893C35.1966 51.9102 35.1873 51.9242 35.1799 51.9372C35.1715 51.9503 35.1601 51.9622 35.1486 51.9726C35.081 52.0794 35.0206 52.1784 34.9674 52.2721C34.9153 52.3643 34.8877 52.4294 34.8877 52.4659C34.8877 52.4763 34.8893 52.4935 34.8919 52.5143C34.8945 52.5352 34.8971 52.556 34.9007 52.5779C34.9059 52.5831 34.9091 52.5898 34.9111 52.5977C34.9127 52.6055 34.9143 52.6117 34.9143 52.6169C34.9179 52.6393 34.9215 52.656 34.9231 52.669C34.9258 52.682 34.9283 52.6914 34.9319 52.6966ZM32.9851 52.1794C33.0357 52.1638 33.0914 52.1378 33.1529 52.1003C33.2138 52.0638 33.2731 52.0232 33.3325 51.9805C33.4091 51.9232 33.483 51.8591 33.5543 51.7904C33.6263 51.7211 33.6887 51.6497 33.7434 51.5753C33.7903 51.5117 33.8278 51.4476 33.8581 51.3841C33.8877 51.32 33.9023 51.2628 33.9023 51.2096C33.9023 51.1456 33.8945 51.0951 33.8805 51.0586C33.8649 51.0206 33.8278 51.0023 33.7695 51.0023C33.7393 51.0023 33.7097 51.0091 33.681 51.0221C33.6507 51.0352 33.621 51.0518 33.5925 51.0742C33.5039 51.1378 33.4163 51.2357 33.3325 51.3685C33.2482 51.5013 33.1767 51.6393 33.1179 51.7825C33.0882 51.8513 33.0617 51.9206 33.0382 51.9883C33.0153 52.0586 32.9977 52.1211 32.9851 52.1794ZM32.9851 52.4737C32.9851 52.4857 32.9851 52.4971 32.9851 52.5102C32.9851 52.5232 32.9851 52.5352 32.9851 52.5456C32.9851 52.5727 32.9857 52.6029 32.9882 52.6378C32.9903 52.6716 32.9955 52.7055 33.0039 52.7367C33.0206 52.8268 33.0554 52.9102 33.1081 52.9867C33.1606 53.0648 33.2439 53.1029 33.3581 53.1029C33.3919 53.1029 33.4299 53.0961 33.4726 53.0831C33.5143 53.0701 33.5543 53.0534 33.5925 53.031C33.6263 53.0154 33.6591 52.9987 33.6898 52.9789C33.721 52.9607 33.7529 52.944 33.7825 52.9284C33.8278 52.8956 33.871 52.8659 33.9111 52.8357C33.9518 52.807 33.9805 52.7852 33.9977 52.7695C34.1486 52.6471 34.2461 52.5622 34.2877 52.5143C34.3294 52.4659 34.3596 52.4398 34.3763 52.4346C34.3804 52.4294 34.3857 52.4268 34.3893 52.4268C34.393 52.4268 34.3971 52.4268 34.4023 52.4268C34.4143 52.4268 34.4231 52.4362 34.4299 52.4544C34.4362 52.4727 34.4398 52.5039 34.4398 52.5456C34.4398 52.5674 34.4267 52.5987 34.4023 52.6419C34.3763 52.6836 34.3174 52.7669 34.2242 52.8878C34.1914 52.9362 34.1419 52.9987 34.0758 53.0753C34.0101 53.1523 33.9373 53.2331 33.8581 53.3174C33.7773 53.4023 33.6914 53.4805 33.5977 53.5518C33.5049 53.6237 33.4127 53.6836 33.3206 53.7315C33.2731 53.7575 33.2253 53.7784 33.1747 53.7914C33.1237 53.8044 33.0758 53.8112 33.0294 53.8112C32.8731 53.8112 32.733 53.7357 32.6086 53.5846C32.4841 53.4336 32.4215 53.2055 32.4215 52.9034C32.4215 52.7878 32.4341 52.6654 32.4597 52.5378C32.4851 52.4102 32.5206 52.281 32.5674 52.1482C32.6893 51.8138 32.8649 51.4987 33.0925 51.2018C33.3206 50.9034 33.5597 50.7107 33.8138 50.6195C33.8518 50.6091 33.8919 50.6002 33.9335 50.5924C33.9753 50.5846 34.0153 50.5805 34.0534 50.5805C34.1627 50.5805 34.2445 50.6055 34.2982 50.656C34.3502 50.707 34.3867 50.7628 34.4075 50.8279C34.4163 50.8539 34.4215 50.8789 34.4231 50.9034C34.4258 50.9268 34.4267 50.9492 34.4267 50.97C34.4267 51.0492 34.4075 51.1393 34.3701 51.2367C34.3319 51.3346 34.2815 51.432 34.219 51.5273C34.1081 51.7018 33.9649 51.8685 33.7877 52.0247C33.6106 52.181 33.4299 52.3018 33.2439 52.3867C33.2023 52.4075 33.1591 52.4258 33.1149 52.4388C33.0706 52.4518 33.0273 52.4633 32.9851 52.4737ZM29.0263 48.169C29.0263 48.2278 29.0382 48.281 29.0638 48.3278C29.0893 48.3763 29.1221 48.3997 29.1649 48.3997C29.1857 48.3997 29.2086 48.3955 29.231 48.3878C29.2543 48.3799 29.2747 48.3711 29.2909 48.3606C29.3419 48.3278 29.395 48.2939 29.4523 48.2575C29.5097 48.2201 29.5674 48.1821 29.6263 48.1455C29.7486 48.0611 29.8783 47.9857 30.0153 47.919C30.1523 47.8529 30.2971 47.8201 30.4486 47.8201C30.6049 47.8201 30.719 47.8711 30.7903 47.9753C30.8617 48.0778 30.8977 48.2018 30.8977 48.345C30.8977 48.3763 30.8966 48.4075 30.8945 48.4362C30.8925 48.4649 30.8873 48.4961 30.8789 48.5273C30.8753 48.5597 30.8669 48.5909 30.8565 48.6237C30.8466 48.6549 30.8346 48.6862 30.8215 48.7185C30.5049 49.6091 30.2351 50.2211 30.0091 50.5518C29.7835 50.8841 29.6706 51.1325 29.6706 51.2966V51.3122C29.6747 51.3279 29.6789 51.3424 29.6835 51.3529C29.6873 51.3633 29.6919 51.3685 29.6961 51.3685H29.7023C29.7231 51.3633 29.7877 51.2852 29.895 51.1341C30.0029 50.9815 30.3195 50.57 30.8471 49.8955C30.8977 49.8321 30.9851 49.7289 31.1101 49.5857C31.2341 49.4425 31.3701 49.2914 31.5174 49.1326C31.5471 49.1002 31.5767 49.0701 31.6059 49.0403C31.6357 49.0117 31.6653 48.9815 31.6945 48.9493C31.8633 48.7799 32.0231 48.6315 32.1753 48.5039C32.3273 48.3763 32.4387 48.3122 32.5101 48.3122C32.5653 48.3122 32.6158 48.3502 32.6627 48.4242C32.7086 48.4987 32.7466 48.5805 32.7763 48.6706C32.793 48.7237 32.8059 48.7773 32.8138 48.8294C32.8226 48.8826 32.8267 48.9258 32.8267 48.957C32.8267 49.0742 32.7815 49.2263 32.6909 49.4154C32.6002 49.6029 32.4597 49.8617 32.2701 50.1898C32.2325 50.2602 32.1575 50.3904 32.0455 50.5846C31.9341 50.7784 31.8169 50.9971 31.6945 51.2409C31.6695 51.2888 31.6445 51.3357 31.6185 51.3841C31.5934 51.432 31.5685 51.4831 31.543 51.5352C31.4206 51.7799 31.3153 52.0143 31.2263 52.2393C31.1377 52.4648 31.0934 52.6393 31.0934 52.7602C31.0934 52.9154 31.1138 53.0232 31.1543 53.0872C31.1939 53.1508 31.2373 53.1846 31.2835 53.1898C31.2877 53.1898 31.2909 53.1898 31.293 53.1898C31.295 53.1898 31.2982 53.1898 31.3029 53.1898C31.3789 53.1898 31.4591 53.1586 31.543 53.095C31.6273 53.031 31.7201 52.9492 31.821 52.8487C31.9263 52.7419 32.0029 52.6508 32.0486 52.5742C32.095 52.4971 32.1373 52.4372 32.1753 52.3945C32.1882 52.3789 32.2034 52.3669 32.2195 52.3591C32.2362 52.3513 32.2549 52.3476 32.2767 52.3476C32.2977 52.3476 32.3143 52.3513 32.3273 52.3591C32.3398 52.3669 32.3482 52.3763 32.3523 52.3867C32.3565 52.3919 32.3586 52.3956 32.3586 52.3982C32.3586 52.4008 32.3586 52.4049 32.3586 52.4102C32.3586 52.4477 32.3377 52.5065 32.2955 52.5857C32.2534 52.6654 32.1523 52.806 31.9925 53.0075C31.5706 53.5221 31.257 53.8409 31.0529 53.9659C30.8482 54.0909 30.7122 54.1534 30.6445 54.1534C30.6362 54.1534 30.6283 54.1534 30.6201 54.1534C30.6106 54.1534 30.6049 54.1508 30.6002 54.1456C30.5163 54.1299 30.4398 54.069 30.3731 53.9622C30.3054 53.8565 30.2715 53.7159 30.2715 53.5404C30.2715 53.419 30.3043 53.2081 30.3701 52.9075C30.4351 52.6081 30.6169 52.156 30.9163 51.5508C31.2835 50.8086 31.5377 50.3148 31.6789 50.0715C31.8206 49.8269 31.8909 49.6654 31.8909 49.5857C31.8909 49.5753 31.8867 49.5663 31.8783 49.5586C31.8701 49.5507 31.8611 49.5466 31.8529 49.5466C31.7851 49.5466 31.6695 49.6273 31.5043 49.7887C31.3403 49.9502 31.1653 50.1403 30.9799 50.3581C30.9543 50.3841 30.9289 50.4138 30.9043 50.445C30.8789 50.4763 30.8534 50.5065 30.8278 50.5325C30.6471 50.7445 30.4851 50.944 30.3414 51.1299C30.1982 51.3148 30.1075 51.4372 30.069 51.4961C29.6685 52.069 29.3898 52.5299 29.2341 52.8799C29.0778 53.2305 28.945 53.4268 28.8362 53.4685C28.8273 53.4685 28.8206 53.4701 28.8138 53.4727C28.8075 53.4753 28.8002 53.4763 28.7919 53.4763C28.7747 53.4763 28.7559 53.4727 28.7351 53.4648C28.7138 53.457 28.693 53.4451 28.671 53.4294C28.6591 53.4242 28.6461 53.4164 28.6335 53.4086C28.6206 53.4008 28.6106 53.3919 28.6018 53.3815C28.5685 53.3607 28.5357 53.332 28.5039 53.2982C28.4721 53.2628 28.4482 53.2305 28.431 53.1977C28.4185 53.1768 28.4091 53.1575 28.4023 53.1393C28.3961 53.1195 28.393 53.1029 28.393 53.0872C28.393 53.044 28.4039 52.9935 28.4253 52.932C28.4461 52.8711 28.4835 52.7904 28.5382 52.6888C28.9554 51.8982 29.3247 51.1497 29.645 50.4414C29.9658 49.733 30.1263 49.2097 30.1263 48.8695C30.1263 48.8111 30.1201 48.7591 30.1075 48.7149C30.0945 48.669 30.0482 48.6471 29.9679 48.6471C29.9258 48.6471 29.8721 48.6627 29.8065 48.695C29.7414 48.7263 29.6747 48.7643 29.6075 48.8059C29.5819 48.8163 29.5591 48.8294 29.5377 48.8461C29.5169 48.8617 29.4955 48.8773 29.4747 48.893C29.4029 48.9414 29.3377 48.9882 29.2783 49.0326C29.2201 49.0778 29.1815 49.1081 29.1649 49.1247C29.1149 49.1663 29.0663 49.2054 29.0221 49.2393C28.9778 49.2747 28.9351 49.3097 28.8925 49.3477C28.8715 49.3685 28.8497 49.3878 28.8263 49.4075C28.8034 49.4258 28.7815 49.445 28.7601 49.4674C28.7049 49.5143 28.6491 49.5663 28.5925 49.6221C28.5357 49.6769 28.4753 49.7393 28.4122 49.8086C28.2726 49.957 28.1726 50.043 28.1111 50.0674C28.0507 50.0909 28.007 50.1029 27.9819 50.1029H27.9758C27.971 50.1029 27.9658 50.1002 27.9601 50.095C27.9539 50.0898 27.9482 50.0846 27.9439 50.0794C27.9267 50.0518 27.9133 50.0117 27.9029 49.9554C27.8925 49.8997 27.8867 49.819 27.8867 49.7133C27.8867 49.6654 27.8909 49.6185 27.8966 49.5742C27.9029 49.5283 27.9149 49.483 27.931 49.4346C27.9909 49.2174 28.1034 49.0091 28.2701 48.8097C28.4362 48.6106 28.6149 48.4425 28.8043 48.3045C28.8425 48.2783 28.8789 48.2539 28.9153 48.233C28.9502 48.2122 28.9877 48.1914 29.0263 48.169Z" fill="white"/>
<path fill-rule="evenodd" clip-rule="evenodd" d="M46.2518 50.5326C46.2475 50.4789 46.2455 50.4294 46.2423 50.3815C46.2403 50.3331 46.2387 50.2888 46.2387 50.2461C46.2387 50.0716 46.2543 49.9232 46.283 49.8008C46.3131 49.6784 46.3464 49.5778 46.3846 49.4988C46.4142 49.4294 46.4444 49.3773 46.4731 49.3436C46.5027 49.3086 46.5199 49.2888 46.5242 49.2836C46.584 49.2253 46.6928 49.1352 46.8559 49.0128C47.0184 48.8904 47.2075 48.7644 47.4226 48.6316C47.5184 48.5726 47.6188 48.5128 47.7231 48.4518C47.8256 48.3904 47.9278 48.3346 48.0294 48.281C48.236 48.1742 48.4366 48.0873 48.6303 48.018C48.8246 47.9493 48.9955 47.9154 49.1423 47.9154C49.2403 47.9154 49.3075 47.9398 49.348 47.9909C49.3887 48.0404 49.4079 48.1273 49.4079 48.2488C49.4079 48.2758 49.407 48.3018 49.4054 48.3278C49.4027 48.3554 49.4002 48.3816 49.3964 48.4086C49.3835 48.5092 49.3559 48.6133 49.3131 48.7226C49.2715 48.8321 49.2179 48.9518 49.1554 49.0846C48.7882 49.8592 48.486 50.4242 48.2475 50.78C48.0095 51.1352 47.8403 51.4477 47.7387 51.7185C47.7298 51.7445 47.722 51.7721 47.7127 51.7982C47.7048 51.8242 47.697 51.8513 47.6882 51.8774C47.684 51.8878 47.6798 51.8997 47.6788 51.9128C47.6762 51.9268 47.6736 51.9388 47.6684 51.9492C47.6684 51.9648 47.6684 51.9805 47.6658 51.9935C47.6631 52.0065 47.6631 52.018 47.6631 52.0284C47.6631 52.044 47.6642 52.0612 47.6684 52.0768C47.6736 52.0924 47.6788 52.1055 47.6882 52.1159C47.7012 52.1326 47.7179 52.1419 47.7412 52.1445C47.7647 52.1471 47.7898 52.1482 47.8142 52.1482C47.8688 52.1482 48.0199 52.0534 48.2674 51.8617C48.5131 51.6706 48.9808 51.1247 49.6674 50.2227C49.684 50.2018 49.6996 50.1794 49.7152 50.1586C49.7298 50.1378 49.7439 50.1196 49.7559 50.1029C49.7611 50.0925 49.7663 50.0846 49.7715 50.0794C49.7778 50.0742 49.783 50.069 49.7882 50.0638C49.8679 49.9518 49.9584 49.8321 50.0606 49.7054C50.1606 49.5778 50.3022 49.4024 50.4835 49.1794C50.5007 49.1862 50.5174 49.194 50.5346 49.2045C50.5512 49.2149 50.5684 49.2278 50.5851 49.2436C50.6188 49.2758 50.6502 49.3138 50.6798 49.3592C50.7084 49.4049 50.7319 49.4502 50.7491 49.4988C50.7527 49.5144 50.757 49.531 50.7622 49.5508C50.7663 49.569 50.7684 49.5857 50.7684 49.6013C50.7684 49.6065 50.7684 49.6133 50.7684 49.6221C50.7684 49.63 50.7663 49.6368 50.7622 49.642C50.7622 49.6576 50.7579 49.6716 50.7518 49.6862C50.7455 49.6993 50.736 49.7106 50.7242 49.7212C50.5215 50.0716 50.3412 50.3919 50.183 50.6836C50.0251 50.9763 49.8803 51.2591 49.7507 51.5352C49.645 51.7576 49.545 51.9831 49.4496 52.2122C49.3548 52.4398 49.2611 52.6862 49.1684 52.9518C49.1179 53.1003 49.0668 53.2524 49.0163 53.4086C48.9652 53.5648 48.9131 53.7341 48.8584 53.9138C48.8964 53.8721 48.9366 53.8279 48.9808 53.7836C49.0251 53.7383 49.0704 53.6914 49.1179 53.6445C49.1762 53.5961 49.2371 53.544 49.3012 53.4893C49.3636 53.4336 49.4278 53.3815 49.4903 53.3331C49.5912 53.2591 49.6892 53.194 49.7846 53.1393C49.8794 53.0831 49.9652 53.0466 50.0408 53.031C50.0486 53.031 50.0575 53.03 50.0652 53.0274C50.0746 53.0247 50.0824 53.0232 50.0912 53.0232C50.0955 53.0232 50.0996 53.0232 50.1048 53.0232C50.1215 53.018 50.1371 53.0143 50.1538 53.0117C50.171 53.0091 50.1866 53.0076 50.198 53.0076C50.2116 53.0076 50.222 53.0091 50.2308 53.0117C50.2387 53.0143 50.2423 53.0206 50.2423 53.031C50.2423 53.0742 50.1866 53.1482 50.0756 53.2539C49.9636 53.3607 49.7272 53.6117 49.3636 54.0102C48.8376 54.5935 48.4975 55.0378 48.348 55.3424C48.1996 55.6482 48.0892 55.8008 48.0174 55.8008C47.9912 55.8008 47.9652 55.794 47.9382 55.78C47.9106 55.7669 47.8819 55.7445 47.8518 55.7122C47.822 55.681 47.795 55.6419 47.7674 55.5935C47.7403 55.5456 47.7127 55.4909 47.6882 55.4258C47.722 55.1664 47.8054 54.8409 47.9382 54.4518C48.0704 54.0622 48.3288 53.4685 48.7127 52.6732C48.9912 52.0898 49.157 51.7237 49.2084 51.5753C49.2622 51.4268 49.2882 51.3477 49.2882 51.3357C49.2882 51.3044 49.1866 51.419 48.9851 51.6784C48.7814 51.9388 48.5418 52.2305 48.2631 52.5534C48.196 52.6289 48.1267 52.7044 48.0575 52.781C47.9887 52.8581 47.9184 52.9336 47.8455 53.0076C47.7699 53.0872 47.6944 53.1628 47.6179 53.2341C47.5418 53.306 47.4679 53.3711 47.3975 53.4294C47.3751 53.4555 47.3532 53.4779 47.3308 53.4971C47.3075 53.5154 47.2855 53.53 47.2631 53.5404C47.2387 53.5508 47.2136 53.5596 47.1918 53.5648C47.1684 53.5701 47.1464 53.5727 47.1251 53.5727C47.045 53.5727 46.9704 53.544 46.9038 53.4893C46.836 53.4336 46.7882 53.3711 46.7579 53.3018C46.7455 53.281 46.7371 53.2602 46.7319 53.2419C46.7283 53.2237 46.7272 53.2029 46.7272 53.182C46.7272 53.044 46.7814 52.8398 46.8908 52.5701C47.0007 52.2992 47.1294 52.0154 47.2762 51.7185C47.3106 51.6602 47.3428 51.6003 47.3742 51.5388C47.407 51.4779 47.4366 51.4164 47.4668 51.3529C47.5756 51.1508 47.683 50.9596 47.7855 50.78C47.8898 50.5987 47.9772 50.4503 48.0486 50.3331C48.0772 50.2862 48.1127 50.2263 48.1527 50.155C48.1928 50.083 48.2335 50.0076 48.2762 49.9284C48.2882 49.8956 48.3022 49.866 48.3168 49.8373C48.3324 49.807 48.348 49.7773 48.3647 49.7445C48.4278 49.6185 48.4819 49.4961 48.5262 49.3789C48.5704 49.2617 48.5928 49.1716 48.5928 49.1081C48.5928 49.0873 48.5876 49.0726 48.5772 49.0649C48.5652 49.057 48.5502 49.0534 48.5294 49.0534C48.448 49.0534 48.3012 49.1185 48.086 49.2472C47.8715 49.3773 47.6464 49.5248 47.409 49.6888C47.3803 49.7054 47.3518 49.7237 47.3246 49.7445C47.297 49.7669 47.2699 49.7852 47.2455 49.8008C47.0131 49.9649 46.8038 50.1169 46.6163 50.2576C46.4288 50.3982 46.3064 50.4909 46.2518 50.5326ZM43.4512 49.5701C43.4382 49.5753 43.4262 49.5794 43.4158 49.5821C43.4054 49.5846 43.3939 49.5857 43.3803 49.5857C43.3507 49.5961 43.322 49.604 43.2918 49.6092C43.2622 49.616 43.2335 49.6212 43.2032 49.6264C43.1622 49.6368 43.1188 49.6445 43.0772 49.6497C43.0355 49.6549 42.9955 49.6576 42.9575 49.6576C42.9351 49.6576 42.9158 49.6576 42.8964 49.6576C42.8783 49.6576 42.8584 49.6576 42.836 49.6576C42.8246 49.6576 42.8142 49.6576 42.8054 49.6576C42.796 49.6576 42.7855 49.6576 42.7742 49.6576C42.7439 49.6628 42.7136 49.6654 42.6851 49.6654C42.6554 49.6654 42.6251 49.6654 42.5964 49.6654C42.4783 49.6654 42.3751 49.6524 42.2866 49.6264C42.198 49.5988 42.1554 49.543 42.1606 49.4581C42.1606 49.4477 42.1622 49.4346 42.1658 49.419C42.171 49.4024 42.1746 49.3868 42.1788 49.3712L42.3496 48.8461C42.4131 48.6445 42.6043 48.4778 42.9246 48.345C43.2455 48.2122 43.5892 48.1065 43.9564 48.0258C44.2595 47.9633 44.5486 47.9164 44.8236 47.8868C45.0964 47.8581 45.3012 47.8436 45.4366 47.8436C45.4704 47.8436 45.5027 47.8436 45.5346 47.8436C45.5652 47.8436 45.5964 47.8436 45.6251 47.8436C45.659 47.8488 45.6918 47.8513 45.7242 47.8513C45.7559 47.8513 45.7855 47.8513 45.8152 47.8513C45.8871 47.8513 45.9627 47.8502 46.0408 47.8477C46.1188 47.845 46.197 47.8436 46.2778 47.8436C46.4038 47.8382 46.5294 47.833 46.6538 47.8278C46.7778 47.8226 46.8939 47.8164 46.9975 47.8112C47.0408 47.806 47.0808 47.8018 47.1188 47.7993C47.157 47.7966 47.1928 47.7956 47.2256 47.7956C47.1762 48.3097 47.0631 48.6185 46.8887 48.7185C46.7127 48.819 46.5262 48.8696 46.3288 48.8696C46.2986 48.8696 46.2518 48.8685 46.1851 48.866C46.1199 48.8633 46.0502 48.8592 45.9742 48.854C45.9616 48.854 45.948 48.854 45.9351 48.854C45.9236 48.854 45.9106 48.854 45.8975 48.854C45.8392 48.8488 45.7855 48.845 45.736 48.8425C45.6882 48.8398 45.6518 48.8382 45.6251 48.8382C45.4819 49.0076 45.3038 49.2732 45.0892 49.6341C44.8742 49.9945 44.5575 50.6169 44.1398 51.5039C44.0043 51.7904 43.8939 52.03 43.8054 52.2237C43.7152 52.418 43.6335 52.6013 43.5575 52.7774C43.5502 52.7982 43.5408 52.8174 43.533 52.8357C43.5242 52.8555 43.5163 52.8721 43.507 52.8878C43.4903 52.9362 43.472 52.9831 43.4512 53.031C43.4288 53.0794 43.4079 53.13 43.3871 53.182C43.3064 53.3737 43.2439 53.5091 43.197 53.5883C43.1502 53.668 43.1059 53.7211 43.0642 53.7471C43.0434 53.7628 43.0215 53.7732 42.9975 53.7758C42.9756 53.7784 42.948 53.781 42.9184 53.7878C42.907 53.7878 42.8908 53.7878 42.8751 53.7878C42.8584 53.7878 42.8392 53.7904 42.8184 53.7956C42.8142 53.7956 42.8075 53.7956 42.8022 53.7956C42.796 53.7956 42.7882 53.7956 42.7803 53.7956C42.6788 53.7956 42.6032 53.7341 42.5522 53.6117C42.5018 53.4893 42.4652 53.3555 42.4444 53.2055C42.4314 53.1107 42.4246 53.0169 42.4226 52.9242C42.421 52.8305 42.4194 52.7576 42.4194 52.7055C42.4194 52.6471 42.4236 52.5857 42.4314 52.5221C42.4408 52.4581 42.4512 52.3945 42.4636 52.3305C42.4756 52.2513 42.4923 52.1742 42.5147 52.1003C42.5355 52.0258 42.5564 51.9544 42.5772 51.8852C42.6032 51.806 42.6267 51.7357 42.6502 51.6742C42.6736 51.6133 42.6918 51.5648 42.7032 51.5274C42.7084 51.5221 42.7116 51.5169 42.7136 51.5117C42.7152 51.5065 42.7168 51.5013 42.7168 51.4961C42.7507 51.4268 42.7846 51.3721 42.8184 51.332C42.8518 51.293 42.8939 51.2565 42.9444 51.2253C42.9903 51.1924 43.045 51.1612 43.1059 51.13C43.1674 51.0977 43.2412 51.0586 43.3298 51.0102C43.3351 51.0102 43.3444 51.0065 43.3584 50.9987C43.3731 50.9909 43.3898 50.9815 43.4054 50.9701C43.4106 50.9701 43.4131 50.9685 43.4158 50.9659C43.4174 50.9633 43.421 50.9622 43.4246 50.9622C43.4512 50.9466 43.472 50.9362 43.4912 50.931C43.5111 50.9258 43.5199 50.9284 43.5199 50.9388C43.5199 50.9544 43.5059 50.9935 43.4756 51.0544C43.446 51.1143 43.3975 51.2148 43.3298 51.3529C43.2412 51.5378 43.1851 51.6862 43.1622 51.7982C43.1398 51.9102 43.1283 52.0076 43.1283 52.0924C43.1283 52.2201 43.1423 52.332 43.1726 52.431C43.2012 52.5284 43.2351 52.6169 43.2726 52.6966C43.4174 52.3789 43.5522 52.0727 43.6814 51.7784C43.8106 51.4831 43.9351 51.2018 44.0575 50.931C44.1674 50.6872 44.2778 50.4492 44.3898 50.2185C44.5018 49.9882 44.6188 49.7592 44.7403 49.53C44.8002 49.4138 44.8627 49.2956 44.9278 49.1758C44.9923 49.057 45.0606 48.9388 45.1335 48.8216C45.0111 48.8269 44.8679 48.8398 44.7064 48.8581C44.5434 48.8764 44.3783 48.9024 44.21 48.9336C43.9991 48.9816 43.797 49.0404 43.6059 49.1133C43.4131 49.1836 43.2559 49.2706 43.1346 49.3712L43.4512 49.5701Z" fill="white"/>
</g>
<defs>
<clipPath id="clip0_2532_12624">
<rect width="62.7333" height="63.48" fill="white"/>
</clipPath>
</defs>
</svg>
