<svg width="1920" height="1080" viewBox="0 0 1920 1080" fill="none" xmlns="http://www.w3.org/2000/svg">
<rect width="515" height="80" transform="translate(30 300)" fill="#0E4087"/>
<text fill="white" xml:space="preserve" style="white-space: pre" font-family="Arial" font-size="19.5" letter-spacing="0em"><tspan x="274.451" y="357.76">{name}</tspan></text>
<text fill="white" xml:space="preserve" style="white-space: pre" font-family="Arial" font-size="19.5" font-weight="bold" letter-spacing="0em"><tspan x="273.899" y="335.76">{surname}</tspan></text>
<path d="M543.677 320.448L530.79 326.879L531.614 328.523L544.5 322.092L543.677 320.448Z" fill="white"/>
<path d="M537.878 311.315L526.313 321.574L527.536 322.949L539.101 312.689L537.878 311.315Z" fill="white"/>
<path d="M526.736 303.86L520.63 317.969L522.322 318.698L528.428 304.59L526.736 303.86Z" fill="white"/>
<path d="M515.422 301H513.579V316.782H515.422V301Z" fill="white"/>
<path d="M502.268 303.86L500.573 304.59L506.558 318.418L506.684 318.698L508.374 317.968L502.389 304.138L502.268 303.86Z" fill="white"/>
<path d="M489.903 312.69L501.467 322.949L502.693 321.574L491.124 311.314L489.903 312.69Z" fill="white"/>
<path d="M485.322 320.454L484.5 322.1L497.393 328.517L498.215 326.872L485.322 320.454Z" fill="white"/>
<path d="M534.987 334.64H532.187L532.176 334.941C532.162 337.25 531.689 339.533 530.786 341.659C529.882 343.785 528.566 345.71 526.912 347.325C525.548 348.712 523.889 349.776 522.058 350.438L520.751 359.477H508.007L506.89 350.51C497.304 346.841 496.94 336.786 496.833 334.804L496.824 334.64H494.014C491.945 334.647 489.964 335.473 488.504 336.937C487.044 338.401 486.226 340.383 486.227 342.448V371.803C486.229 373.672 486.904 375.478 488.13 376.892C489.355 378.305 491.049 379.231 492.902 379.5H536.102C537.954 379.231 539.648 378.305 540.873 376.891C542.098 375.478 542.773 373.672 542.774 371.803V342.448C542.776 340.383 541.958 338.401 540.498 336.937C539.038 335.473 537.056 334.647 534.987 334.64ZM508.153 361.612H520.823V363.477H508.153V361.612ZM508.153 365.186H520.823V367.049H508.153V365.186ZM516.887 374.195H511.898V372.329H516.887V374.195ZM520.858 370.623H508.188V368.757H520.858V370.623Z" fill="white"/>
<path d="M507.964 343.816L515.226 340.849L508.987 338.948L513.371 334.939L513.663 334.64H499.211V334.939C499.311 336.735 499.599 345.628 508.542 348.97L508.714 349.033L509.77 357.358H513.545V347.521L515.546 345.88L507.964 343.816Z" fill="white"/>
<path d="M516.321 334.638L516.065 334.94L512.822 338.036L521.175 340.375L513.706 343.439L519.571 345.08L515.492 348.401V357.359H518.932L520.124 348.976L520.281 348.909C523.068 347.765 525.459 345.834 527.162 343.352C528.864 340.871 529.804 337.947 529.865 334.94V334.638H516.321Z" fill="white"/>
</svg>
