<svg width="1350" height="970" viewBox="0 0 1350 970" fill="none" xmlns="http://www.w3.org/2000/svg">
<g clip-path="url(#clip0_3026_51506)">
<path d="M0 765H1350V954.001C1350 962.837 1342.84 970.001 1334 970.001H16C7.16344 970.001 0 962.837 0 954.001V765Z" fill="white"/>
<text opacity="0.75" fill="#0A3470" xml:space="preserve" style="white-space: pre" font-family="Helvetica" font-size="27.5676" letter-spacing="0em"><tspan x="245" y="823.9">Kutaisi International University</tspan></text>
<text opacity="0.75" fill="#8E1A1A" xml:space="preserve" style="white-space: pre" font-family="Helvetica" font-size="27.5676" letter-spacing="0em"><tspan x="1050.49" y="823.9">#kts34</tspan></text>
<text fill="#0A3470" xml:space="preserve" style="white-space: pre" font-family="Helvetica" font-size="40" letter-spacing="0em"><tspan x="245" y="876.392">Kutaisi IU: Gurkotas Lekvebi </tspan></text>
<text opacity="0.75" fill="#0A3470" xml:space="preserve" style="white-space: pre" font-family="Helvetica" font-size="27.5676" letter-spacing="0em"><tspan x="245" y="919.955">(Nadareishvili, Khantadze, Khomasuridze)</tspan></text>
<path d="M63.0833 905.547C62.6309 905.462 62.1653 905.477 61.7196 905.593C61.2739 905.708 60.8592 905.92 60.5048 906.214C60.1505 906.508 59.8653 906.876 59.6696 907.293C59.4739 907.71 59.3724 908.164 59.3724 908.625C59.3724 909.085 59.4739 909.54 59.6696 909.957C59.8653 910.373 60.1505 910.742 60.5048 911.035C60.8592 911.329 61.2739 911.542 61.7196 911.657C62.1653 911.772 62.6309 911.788 63.0833 911.703C63.5358 911.788 64.0016 911.773 64.4474 911.657C64.8932 911.542 65.3081 911.33 65.6625 911.036C66.017 910.742 66.3023 910.374 66.4981 909.957C66.6939 909.54 66.7954 909.085 66.7954 908.625C66.7954 908.164 66.6939 907.71 66.4981 907.293C66.3023 906.876 66.017 906.508 65.6625 906.214C65.3081 905.92 64.8932 905.708 64.4474 905.592C64.0016 905.477 63.5358 905.461 63.0833 905.547ZM63.0833 910.518C61.6898 910.518 60.5572 909.668 60.5572 908.625C60.5572 907.581 61.6898 906.729 63.0833 906.729C64.4768 906.729 65.6112 907.58 65.6112 908.625C65.6112 909.67 64.4768 910.518 63.0833 910.518Z" fill="#4C83C3"/>
<path d="M58.0356 910.945C57.9036 910.209 57.4867 909.554 56.8755 909.123C56.2642 908.692 55.5076 908.519 54.7698 908.642C54.0225 908.67 53.3164 908.992 52.8044 909.537C52.2924 910.082 52.0159 910.807 52.0347 911.554C52.1032 911.908 52.2427 912.245 52.4448 912.543C52.6469 912.842 52.9074 913.097 53.2106 913.292C53.5138 913.487 53.8533 913.619 54.2088 913.679C54.5643 913.739 54.9284 913.727 55.279 913.643C57.0173 913.468 58.1767 912.331 58.0356 910.945ZM55.17 912.576C54.2535 912.669 53.2281 912.353 53.1352 911.443C53.1831 910.999 53.3824 910.584 53.6997 910.268C54.0169 909.953 54.433 909.756 54.8781 909.71C55.3232 909.665 55.7704 909.774 56.1449 910.019C56.5193 910.264 56.7983 910.63 56.9351 911.056C57.028 911.969 56.0847 912.483 55.17 912.576Z" fill="#4C83C3"/>
<path d="M47.2341 910.95C45.6048 910.95 44.5937 911.717 44.5937 912.949C44.5937 914.182 45.6048 914.948 47.2341 914.948C48.8634 914.948 49.8728 914.184 49.8728 912.949C49.8728 911.715 48.8616 910.95 47.2341 910.95ZM47.2323 913.887C46.5017 913.887 45.6281 913.726 45.6281 912.949C45.6281 912.176 46.5017 912.013 47.2323 912.013C47.9666 912.013 48.8402 912.176 48.8402 912.949C48.8402 913.726 47.9666 913.887 47.2323 913.887Z" fill="#4C83C3"/>
<path d="M40.29 912.017C38.5588 912.017 38.373 913.12 38.373 913.597C38.373 914.074 38.5588 915.176 40.29 915.176C41.5977 915.176 42.4445 914.556 42.4445 913.597C42.4445 912.637 41.5977 912.017 40.29 912.017ZM40.29 914.227C39.3217 914.227 39.3217 913.802 39.3217 913.597C39.3217 913.391 39.3217 912.966 40.29 912.966C40.4114 912.966 41.4941 912.984 41.4941 913.597C41.4941 914.209 40.4114 914.227 40.29 914.227Z" fill="#4C83C3"/>
<path d="M85.8143 888.593C85.6342 887.436 85.1849 886.338 84.5025 885.387C83.8201 884.436 82.9238 883.658 81.8857 883.117C81.8518 883.094 81.8232 883.072 81.7911 883.049L81.7768 883.038L81.6517 882.958V884.73C81.7089 884.766 81.7964 884.827 81.8857 884.891C82.5216 885.301 83.0671 885.836 83.4889 886.464C83.9106 887.092 84.1998 887.799 84.3386 888.543C84.3333 889.461 84.1078 890.364 83.681 891.177C83.2541 891.99 82.6385 892.689 81.8857 893.214C81.8643 893.236 81.8447 893.255 81.8214 893.275L81.6517 893.425L81.5338 893.527L81.6517 893.573L81.8857 893.666L81.8875 893.668C81.9143 893.679 84.4833 894.763 83.2596 898.563C82.6051 900.375 81.3834 901.928 79.7761 902.99C78.1687 904.053 76.2615 904.568 74.3378 904.46H74.277C70.6692 904.362 67.1522 903.308 64.085 901.405L63.926 901.318L63.7992 901.448C62.1962 903.086 60.0586 904.095 57.7751 904.291C57.734 904.3 54.9274 904.505 53.1016 900.821L53.0087 900.635L52.814 900.703C52.7907 900.71 50.6827 901.409 49.5607 900.353C49.4853 900.282 49.416 900.205 49.3535 900.123H49.0427V900.119H47.9618V900.123H47.7194L47.7355 900.182L47.7658 900.26C47.7766 900.289 47.7873 900.316 47.8034 900.353C48.0392 900.918 49.0432 902.715 52.2571 902.309C52.8244 903.285 53.6255 904.104 54.5882 904.694C55.5509 905.283 56.645 905.623 57.772 905.684H57.7738C60.1437 905.643 62.4126 904.718 64.1356 903.09C67.1563 904.686 70.4753 905.637 73.8827 905.884C74.2588 905.884 74.6345 905.863 75.0082 905.822C77.0074 905.772 78.9515 905.157 80.6157 904.048C82.2799 902.939 83.5962 901.382 84.4124 899.556C84.8921 898.567 85.0784 897.461 84.9493 896.369C84.8201 895.277 84.3808 894.245 83.6835 893.395C84.3523 892.786 84.8871 892.044 85.254 891.218C85.6209 890.391 85.8114 889.497 85.8143 888.593Z" fill="#4C83C3"/>
<path d="M81.5112 884.776L81.3271 884.675C78.8673 882.429 75.7291 881.068 72.4089 880.807C71.9297 880.806 71.4514 880.849 70.9797 880.934C69.9767 881.129 69.0222 881.521 68.1714 882.087C67.3205 882.653 66.5901 883.382 66.0222 884.231L65.4898 885.132L65.3326 884.098C64.9199 881.403 63.5657 881.225 63.5389 881.221C63.4413 881.201 63.3419 881.192 63.2424 881.193C61.7685 881.193 59.8158 883.151 59.7944 883.172L59.3353 883.637L59.1691 883.008C58.1312 879.149 55.5193 879.068 55.421 879.067C53.5983 879.065 51.8419 879.751 50.5028 880.987C50.0036 881.621 49.7617 882.419 49.8253 883.223C49.8889 884.027 50.2533 884.778 50.8458 885.325L51.2156 885.713L50.7225 885.927C45.7632 888.08 46.0473 889.9 46.0526 889.93C46.2241 891.238 49.1093 892.566 50.8887 893.093L51.3961 893.246L51.0834 893.673C48.2357 897.552 49.0879 899.47 49.2916 899.813L49.3541 899.981H75.5192C77.1112 899.976 78.6362 899.34 79.7595 898.212C80.8829 897.084 81.5128 895.556 81.5112 893.964V884.776Z" fill="#4C83C3"/>
<path d="M75.5202 865.421H43.9919C42.4022 865.424 40.8784 866.057 39.755 867.182C38.6316 868.307 38.0004 869.831 38 871.421V893.983C38.0005 895.573 38.6316 897.097 39.755 898.222C40.8783 899.347 42.4021 899.981 43.9919 899.984H47.5078L47.4828 899.925C47.2718 898.936 47.2645 897.915 47.4614 896.924C47.6583 895.933 48.0552 894.992 48.6279 894.16C45.8445 893.007 44.3993 891.63 44.3314 890.069C44.2278 887.657 47.422 885.692 48.5904 885.056C48.2832 884.47 48.1013 883.827 48.0564 883.168C48.0115 882.508 48.1045 881.847 48.3296 881.225C48.9941 879.825 50.1796 878.741 51.6328 878.203C52.6847 877.688 53.8352 877.407 55.0057 877.379C55.7103 877.375 56.4089 877.509 57.062 877.774C58.4025 878.361 59.4935 879.402 60.1437 880.713C61.06 880.039 62.1512 879.646 63.2862 879.578C63.6232 879.578 63.9583 879.63 64.2795 879.732C65.1299 880.037 65.8311 880.657 66.2393 881.463C67.8688 879.991 69.9928 879.188 72.1883 879.212C75.5599 879.446 78.7904 880.656 81.4853 882.696L81.5121 882.715V871.421C81.5112 869.831 80.8798 868.307 79.7565 867.183C78.6332 866.058 77.1097 865.424 75.5202 865.421Z" fill="#4C83C3"/>
<path d="M136.016 854.484L126.101 859.441L126.734 860.708L136.65 855.751L136.016 854.484Z" fill="#FDBA12"/>
<path d="M131.554 847.444L122.655 855.352L123.596 856.411L132.496 848.503L131.554 847.444Z" fill="#FDBA12"/>
<path d="M122.981 841.698L118.282 852.573L119.584 853.135L124.283 842.26L122.981 841.698Z" fill="#FDBA12"/>
<path d="M114.275 839.493H112.856V851.657H114.275V839.493Z" fill="#FDBA12"/>
<path d="M104.153 841.698L102.849 842.26L107.454 852.919L107.551 853.135L108.851 852.572L104.246 841.912L104.153 841.698Z" fill="#FDBA12"/>
<path d="M94.6379 848.504L103.536 856.411L104.48 855.352L95.5776 847.443L94.6379 848.504Z" fill="#FDBA12"/>
<path d="M91.1127 854.489L90.4805 855.757L100.401 860.703L101.034 859.435L91.1127 854.489Z" fill="#FDBA12"/>
<path d="M129.329 865.422H127.174L127.165 865.655C127.154 867.434 126.791 869.194 126.096 870.833C125.401 872.471 124.388 873.956 123.115 875.2C122.065 876.269 120.789 877.089 119.38 877.599L118.374 884.567H108.568L107.708 877.655C100.332 874.827 100.052 867.077 99.9693 865.549L99.9622 865.422H97.8005C96.2085 865.428 94.6836 866.065 93.5604 867.193C92.4371 868.322 91.8072 869.849 91.8086 871.441V894.067C91.8099 895.508 92.3295 896.9 93.2725 897.99C94.2155 899.079 95.519 899.793 96.9448 900H130.186C131.612 899.793 132.915 899.079 133.858 897.99C134.801 896.9 135.32 895.508 135.321 894.067V871.441C135.322 869.849 134.693 868.321 133.569 867.193C132.446 866.065 130.921 865.428 129.329 865.422ZM108.68 886.212H118.429V887.65H108.68V886.212ZM108.68 888.967H118.429V890.403H108.68V888.967ZM115.401 895.911H111.562V894.473H115.401V895.911ZM118.456 893.158H108.707V891.72H118.456V893.158Z" fill="#FDBA12"/>
<path d="M108.534 872.495L114.123 870.208L109.322 868.743L112.695 865.653L112.92 865.422H101.799V865.653C101.876 867.037 102.098 873.892 108.979 876.468L109.111 876.516L109.924 882.934H112.829V875.351L114.369 874.086L108.534 872.495Z" fill="#FDBA12"/>
<path d="M114.965 865.421L114.768 865.654L112.273 868.04L118.701 869.843L112.953 872.205L117.466 873.47L114.327 876.03V882.934H116.975L117.891 876.473L118.013 876.421C120.157 875.539 121.997 874.051 123.307 872.138C124.617 870.225 125.34 867.972 125.387 865.654V865.421H114.965Z" fill="#FDBA12"/>
<path d="M183.045 865.422H171.05C176.337 869.367 179.324 873.465 179.933 877.606C180.131 879.387 179.96 881.19 179.429 882.902C178.899 884.614 178.021 886.198 176.851 887.555L176.749 887.687C172.151 893.551 162.766 897.981 158.943 899.612C158.511 899.744 158.076 899.874 157.639 900H183.045C184.633 899.995 186.154 899.36 187.275 898.235C188.396 897.109 189.024 895.585 189.023 893.997V871.425C189.024 869.837 188.396 868.313 187.275 867.187C186.154 866.062 184.633 865.427 183.045 865.422Z" fill="#B22C1B"/>
<path d="M168.352 865.634L168.076 865.421H151.597C150.008 865.427 148.487 866.062 147.366 867.188C146.246 868.313 145.617 869.837 145.619 871.426V893.995C145.617 895.583 146.245 897.108 147.366 898.234C148.487 899.36 150.008 899.995 151.597 900.001H151.684L152.367 899.774C167.7 894.702 177.535 887.015 178.03 879.712C178.535 872.36 169.396 866.3 168.352 865.634Z" fill="#B22C1B"/>
<path d="M181.341 837.296C181.505 836.351 181.588 835.393 181.59 834.433C181.646 832.277 181.142 830.143 180.126 828.241C179.109 826.338 177.616 824.733 175.793 823.581C173.213 821.939 170.227 821.046 167.169 821.002C164.111 820.957 161.101 821.763 158.474 823.33C156.568 824.577 155.021 826.301 153.989 828.332C152.957 830.363 152.475 832.629 152.591 834.904C152.597 836.022 152.689 837.138 152.866 838.242C153.699 843.632 156.602 848.485 160.957 851.769C158.671 851.149 155.684 850.852 154.39 852.95C154.232 853.15 154.117 853.38 154.052 853.626C153.987 853.873 153.974 854.13 154.013 854.381C154.052 854.633 154.143 854.874 154.279 855.089C154.416 855.304 154.595 855.489 154.807 855.631C156.47 856.825 160.513 856.509 162.955 855.112L161.279 859.015H172.527L170.278 854.515C172.998 855.653 176.153 856.68 177.858 855.64C178.204 855.425 178.488 855.123 178.684 854.766C178.88 854.408 178.981 854.006 178.976 853.598C179.027 853.164 178.962 852.725 178.786 852.325C178.611 851.924 178.331 851.578 177.977 851.322C176.69 850.653 175.199 850.493 173.799 850.872C173.997 850.71 174.187 850.547 174.376 850.381C178.135 846.951 180.595 842.33 181.341 837.296ZM155.635 854.479C155.473 854.363 155.273 854.218 155.598 853.693C156.572 852.107 159.828 852.716 162.476 853.768C161.457 854.379 160.316 854.759 159.135 854.882C157.953 855.005 156.758 854.867 155.635 854.479ZM177.161 852.48C177.319 852.598 177.441 852.759 177.511 852.943C177.582 853.127 177.599 853.328 177.561 853.522C177.572 853.698 177.536 853.875 177.459 854.034C177.382 854.193 177.265 854.33 177.12 854.431C176.477 854.824 174.831 854.901 170.665 853.143C173.206 852.296 176.089 851.724 177.161 852.48ZM168.879 852.276C168.709 852.344 168.58 852.394 168.52 852.419L168.025 852.591L167.787 852.707L167.796 852.721L166.976 853.061L168.246 853.629L170.233 857.598H163.432L165.39 853.03L164.677 852.607C161.94 851.135 159.578 849.054 157.774 846.525C155.969 843.995 154.77 841.085 154.269 838.018C154.103 836.995 154.018 835.96 154.013 834.924C153.901 832.884 154.325 830.851 155.243 829.026C156.16 827.2 157.54 825.647 159.244 824.521C161.637 823.098 164.378 822.367 167.162 822.41C169.946 822.453 172.664 823.268 175.012 824.764C176.637 825.794 177.967 827.228 178.871 828.927C179.776 830.625 180.224 832.529 180.171 834.452C180.168 835.327 180.092 836.199 179.943 837.061C179.51 840.317 178.271 843.414 176.339 846.071C174.407 848.728 171.843 850.86 168.879 852.276Z" fill="#B22C1B"/>
<path d="M170.448 865.143L170.352 865.075C170.35 865.073 170.334 865.066 170.307 865.048C169.242 864.385 168.328 863.505 167.625 862.466C166.922 861.426 166.445 860.251 166.225 859.015H164.697C164.94 861.35 166.059 863.505 167.827 865.048C167.864 865.08 167.906 865.111 167.947 865.143C168.006 865.189 168.063 865.238 168.122 865.282H170.403L170.648 865.281L170.448 865.143Z" fill="#B22C1B"/>
<text fill="#4C83C3" xml:space="preserve" style="white-space: pre" font-family="Helvetica" font-size="14.1562" letter-spacing="0em"><tspan x="46.562" y="862.062">nerc</tspan></text>
<text transform="translate(81.6484 900.039)" fill="#B22C1B" xml:space="preserve" style="white-space: pre" font-family="Helvetica" font-size="14.1562" letter-spacing="0em"><tspan x="12.1701" y="15.1593">icpc.foundation</tspan></text>
<g opacity="0.05">
<path d="M786.576 900.016L814.239 872.353L790.003 848.117L762.34 875.78L786.576 900.016Z" fill="white"/>
<path d="M786.576 900.016L814.239 872.353L790.003 848.117L762.34 875.78L786.576 900.016Z" stroke="#BF1B2C" stroke-width="3.2375" stroke-miterlimit="10" stroke-linejoin="round"/>
<path d="M772.333 913.653C771.413 908.143 773.615 900.725 778.655 893.336C780.14 891.158 781.704 889.196 783.195 887.705L790.5 880.399L801.927 868.972C803.405 867.495 805.299 865.968 807.401 864.52C814.83 859.405 822.307 857.182 827.853 858.109L830.491 858.549C830.979 859.037 831.253 859.686 831.423 860.4C832.144 863.427 830.162 868.162 826.176 872.147L786.37 911.954C781.443 916.881 775.324 918.822 772.771 916.27L772.333 913.653Z" fill="white"/>
<path d="M772.333 913.653C771.413 908.143 773.615 900.725 778.655 893.336C780.14 891.158 781.704 889.196 783.195 887.705L790.5 880.399L801.927 868.972C803.405 867.495 805.299 865.968 807.401 864.52C814.83 859.405 822.307 857.182 827.853 858.109L830.491 858.549C830.979 859.037 831.253 859.686 831.423 860.4C832.144 863.427 830.162 868.162 826.176 872.147L786.37 911.954C781.443 916.881 775.324 918.822 772.771 916.27L772.333 913.653Z" stroke="#BF1B2C" stroke-width="3.2375" stroke-miterlimit="10" stroke-linejoin="round"/>
<path d="M685.044 854.764C691.918 861.638 716.283 848.418 739.463 825.237C762.644 802.055 775.864 777.691 768.991 770.818C762.117 763.944 737.753 777.164 714.572 800.345C691.391 823.526 678.171 847.89 685.044 854.764Z" fill="white"/>
<path d="M685.044 854.764C691.918 861.638 716.283 848.418 739.463 825.237C762.644 802.055 775.864 777.691 768.991 770.818C762.117 763.944 737.753 777.164 714.572 800.345C691.391 823.526 678.171 847.89 685.044 854.764Z" stroke="#BF1B2C" stroke-width="3.2375" stroke-miterlimit="10" stroke-linejoin="round"/>
<path d="M724.012 862.472L724.013 862.473L722.559 861.02C714.648 853.109 704.352 848.022 693.262 846.545L696.343 840C708.64 813.874 729.856 792.993 756.174 781.112L760.771 779.037C762.247 790.127 767.334 800.423 775.245 808.334L776.699 809.788L789.114 822.203C792.28 822.262 795.429 823.483 797.831 825.886L799.689 829.923C803.598 838.422 803.821 848.264 799.874 856.745C798.71 859.245 797.332 861.393 795.841 862.883L777.109 881.616C775.631 883.094 773.566 884.449 771.159 885.593C762.655 889.633 752.735 889.413 744.182 885.478L740.111 883.606C737.709 881.204 736.487 878.055 736.428 874.888L724.012 862.472Z" fill="white"/>
<path d="M724.012 862.472L724.013 862.473L722.559 861.02C714.648 853.109 704.352 848.022 693.262 846.545L696.343 840C708.64 813.874 729.856 792.993 756.174 781.112L760.771 779.037C762.247 790.127 767.334 800.423 775.245 808.334L776.699 809.788L789.114 822.203C792.28 822.262 795.429 823.483 797.831 825.886L799.689 829.923C803.598 838.422 803.821 848.264 799.874 856.745C798.71 859.245 797.332 861.393 795.841 862.883L777.109 881.616C775.631 883.094 773.566 884.449 771.159 885.593C762.655 889.633 752.735 889.413 744.182 885.478L740.111 883.606C737.709 881.204 736.487 878.055 736.428 874.888L724.012 862.472Z" stroke="#BF1B2C" stroke-width="3.2375" stroke-miterlimit="10" stroke-linejoin="round"/>
<path d="M702.207 870.416C702.337 869.833 702.853 869.436 703.449 869.413C704.736 869.364 707.31 869.573 710.028 871.551C713.892 874.36 719.98 878.926 725.073 879.102C730.166 879.277 734.323 874.184 734.791 872.78C735.259 871.375 740.059 875.355 741.289 878.458C742.518 881.56 741.114 883.902 741.114 883.902C741.114 883.902 721.795 885.073 714.946 882.907C708.097 880.741 703.706 877.873 702.593 874.301C702.001 872.396 702.04 871.157 702.207 870.416Z" fill="white"/>
<path d="M702.207 870.416C702.337 869.833 702.853 869.436 703.449 869.413C704.736 869.364 707.31 869.573 710.028 871.551C713.892 874.36 719.98 878.926 725.073 879.102C730.166 879.277 734.323 874.184 734.791 872.78C735.259 871.375 740.059 875.355 741.289 878.458C742.518 881.56 741.114 883.902 741.114 883.902C741.114 883.902 721.795 885.073 714.946 882.907C708.097 880.741 703.706 877.873 702.593 874.301C702.001 872.396 702.04 871.157 702.207 870.416Z" stroke="#BF1B2C" stroke-width="3.2375" stroke-miterlimit="10" stroke-linejoin="round"/>
<path d="M784.85 787.837C784.219 787.965 783.785 788.528 783.765 789.172C783.727 790.481 783.965 793.009 785.904 795.676C788.715 799.54 793.28 805.628 793.456 810.721C793.632 815.814 788.539 819.97 787.134 820.438C785.729 820.907 789.71 825.707 792.812 826.936C795.915 828.166 798.256 826.761 798.256 826.761C798.256 826.761 799.428 807.442 797.261 800.594C795.095 793.744 792.227 789.354 788.656 788.242C786.817 787.669 785.599 787.686 784.85 787.837Z" fill="white"/>
<path d="M784.85 787.837C784.219 787.965 783.785 788.528 783.765 789.172C783.727 790.481 783.965 793.009 785.904 795.676C788.715 799.54 793.28 805.628 793.456 810.721C793.632 815.814 788.539 819.97 787.134 820.438C785.729 820.907 789.71 825.707 792.812 826.936C795.915 828.166 798.256 826.761 798.256 826.761C798.256 826.761 799.428 807.442 797.261 800.594C795.095 793.744 792.227 789.354 788.656 788.242C786.817 787.669 785.599 787.686 784.85 787.837Z" stroke="#BF1B2C" stroke-width="3.2375" stroke-miterlimit="10" stroke-linejoin="round"/>
<path d="M817.78 961.301L876.102 902.979L836.295 863.171L777.973 921.494L817.78 961.301Z" fill="white"/>
<path d="M817.78 961.301L876.102 902.979L836.295 863.171L777.973 921.494L817.78 961.301Z" stroke="#BF1B2C" stroke-width="3.2375" stroke-miterlimit="10" stroke-linejoin="round"/>
<path d="M836.937 852.113L836.299 863.171L876.107 902.978L887.34 902.516L836.937 852.113Z" fill="white"/>
<path d="M836.937 852.113L836.299 863.171L876.107 902.978L887.34 902.516L836.937 852.113Z" stroke="#BF1B2C" stroke-width="3.2375" stroke-miterlimit="10" stroke-linejoin="round"/>
<path d="M766.336 922.711L777.975 921.492L817.782 961.299L816.739 973.114L766.336 922.711Z" fill="white"/>
<path d="M766.336 922.711L777.975 921.492L817.782 961.299L816.739 973.114L766.336 922.711Z" stroke="#BF1B2C" stroke-width="3.2375" stroke-miterlimit="10" stroke-linejoin="round"/>
<path d="M887.337 902.517L876.103 902.979L817.781 961.302L816.738 973.116L887.337 902.517Z" fill="white"/>
<path d="M887.337 902.517L876.103 902.979L817.781 961.302L816.738 973.116L887.337 902.517Z" stroke="#BF1B2C" stroke-width="3.2375" stroke-miterlimit="10" stroke-linejoin="round"/>
<path d="M836.935 852.113L836.297 863.171L777.975 921.493L766.336 922.712L836.935 852.113Z" fill="white"/>
<path d="M836.935 852.113L836.297 863.171L777.975 921.493L766.336 922.712L836.935 852.113Z" stroke="#BF1B2C" stroke-width="3.2375" stroke-miterlimit="10" stroke-linejoin="round"/>
<path d="M328.353 900.016L356.016 872.353L331.78 848.117L304.117 875.78L328.353 900.016Z" fill="white"/>
<path d="M328.353 900.016L356.016 872.353L331.78 848.117L304.117 875.78L328.353 900.016Z" stroke="#1E79A8" stroke-width="3.2375" stroke-miterlimit="10" stroke-linejoin="round"/>
<path d="M314.111 913.653C313.19 908.143 315.392 900.726 320.431 893.336C321.917 891.158 323.48 889.196 324.972 887.706L332.277 880.4L343.704 868.973C345.181 867.496 347.076 865.968 349.179 864.52C356.607 859.406 364.085 857.183 369.629 858.109L372.268 858.55C372.756 859.038 373.03 859.686 373.201 860.4C373.921 863.428 371.938 868.163 367.953 872.148L328.147 911.954C323.22 916.881 317.101 918.823 314.548 916.27L314.111 913.653Z" fill="white"/>
<path d="M314.111 913.653C313.19 908.143 315.392 900.726 320.431 893.336C321.917 891.158 323.48 889.196 324.972 887.706L332.277 880.4L343.704 868.973C345.181 867.496 347.076 865.968 349.179 864.52C356.607 859.406 364.085 857.183 369.629 858.109L372.268 858.55C372.756 859.038 373.03 859.686 373.201 860.4C373.921 863.428 371.938 868.163 367.953 872.148L328.147 911.954C323.22 916.881 317.101 918.823 314.548 916.27L314.111 913.653Z" stroke="#1E79A8" stroke-width="3.2375" stroke-miterlimit="10" stroke-linejoin="round"/>
<path d="M226.818 854.764C233.691 861.638 258.055 848.418 281.237 825.237C304.418 802.055 317.638 777.691 310.764 770.818C303.89 763.944 279.526 777.164 256.345 800.345C233.164 823.526 219.944 847.89 226.818 854.764Z" fill="white"/>
<path d="M226.818 854.764C233.691 861.638 258.055 848.418 281.237 825.237C304.418 802.055 317.638 777.691 310.764 770.818C303.89 763.944 279.526 777.164 256.345 800.345C233.164 823.526 219.944 847.89 226.818 854.764Z" stroke="#1E79A8" stroke-width="3.2375" stroke-miterlimit="10" stroke-linejoin="round"/>
<path d="M265.785 862.472L265.786 862.473L264.332 861.02C256.421 853.109 246.126 848.022 235.035 846.545L238.116 840C250.413 813.874 271.629 792.993 297.947 781.112L302.544 779.037C304.02 790.127 309.107 800.423 317.018 808.334L318.472 809.788L330.887 822.203C334.054 822.262 337.202 823.483 339.605 825.886L341.462 829.923C345.372 838.422 345.595 848.264 341.647 856.745C340.484 859.245 339.105 861.393 337.614 862.883L318.882 881.616C317.404 883.094 315.34 884.449 312.933 885.593C304.429 889.633 294.509 889.413 285.955 885.478L281.885 883.606C279.482 881.204 278.261 878.055 278.201 874.888L265.785 862.472Z" fill="white"/>
<path d="M265.785 862.472L265.786 862.473L264.332 861.02C256.421 853.109 246.126 848.022 235.035 846.545L238.116 840C250.413 813.874 271.629 792.993 297.947 781.112L302.544 779.037C304.02 790.127 309.107 800.423 317.018 808.334L318.472 809.788L330.887 822.203C334.054 822.262 337.202 823.483 339.605 825.886L341.462 829.923C345.372 838.422 345.595 848.264 341.647 856.745C340.484 859.245 339.105 861.393 337.614 862.883L318.882 881.616C317.404 883.094 315.34 884.449 312.933 885.593C304.429 889.633 294.509 889.413 285.955 885.478L281.885 883.606C279.482 881.204 278.261 878.055 278.201 874.888L265.785 862.472Z" stroke="#1E79A8" stroke-width="3.2375" stroke-miterlimit="10" stroke-linejoin="round"/>
<path d="M243.978 870.416C244.109 869.833 244.624 869.436 245.221 869.413C246.507 869.364 249.081 869.573 251.8 871.551C255.663 874.36 261.752 878.926 266.844 879.102C271.938 879.277 276.094 874.184 276.562 872.78C277.031 871.375 281.831 875.355 283.061 878.458C284.29 881.56 282.885 883.902 282.885 883.902C282.885 883.902 263.566 885.073 256.717 882.907C249.868 880.741 245.477 877.873 244.365 874.301C243.772 872.396 243.812 871.157 243.978 870.416Z" fill="white"/>
<path d="M243.978 870.416C244.109 869.833 244.624 869.436 245.221 869.413C246.507 869.364 249.081 869.573 251.8 871.551C255.663 874.36 261.752 878.926 266.844 879.102C271.938 879.277 276.094 874.184 276.562 872.78C277.031 871.375 281.831 875.355 283.061 878.458C284.29 881.56 282.885 883.902 282.885 883.902C282.885 883.902 263.566 885.073 256.717 882.907C249.868 880.741 245.477 877.873 244.365 874.301C243.772 872.396 243.812 871.157 243.978 870.416Z" stroke="#1E79A8" stroke-width="3.2375" stroke-miterlimit="10" stroke-linejoin="round"/>
<path d="M326.623 787.837C325.992 787.965 325.558 788.528 325.539 789.172C325.5 790.481 325.738 793.009 327.678 795.676C330.488 799.54 335.054 805.628 335.23 810.721C335.405 815.814 330.312 819.97 328.907 820.438C327.502 820.907 331.483 825.707 334.585 826.936C337.688 828.166 340.03 826.761 340.03 826.761C340.03 826.761 341.201 807.442 339.035 800.594C336.869 793.744 334 789.354 330.429 788.242C328.59 787.669 327.372 787.686 326.623 787.837Z" fill="white"/>
<path d="M326.623 787.837C325.992 787.965 325.558 788.528 325.539 789.172C325.5 790.481 325.738 793.009 327.678 795.676C330.488 799.54 335.054 805.628 335.23 810.721C335.405 815.814 330.312 819.97 328.907 820.438C327.502 820.907 331.483 825.707 334.585 826.936C337.688 828.166 340.03 826.761 340.03 826.761C340.03 826.761 341.201 807.442 339.035 800.594C336.869 793.744 334 789.354 330.429 788.242C328.59 787.669 327.372 787.686 326.623 787.837Z" stroke="#1E79A8" stroke-width="3.2375" stroke-miterlimit="10" stroke-linejoin="round"/>
<path d="M359.559 961.301L417.881 902.979L378.074 863.171L319.752 921.494L359.559 961.301Z" fill="white"/>
<path d="M359.559 961.301L417.881 902.979L378.074 863.171L319.752 921.494L359.559 961.301Z" stroke="#1E79A8" stroke-width="3.2375" stroke-miterlimit="10" stroke-linejoin="round"/>
<path d="M378.71 852.113L378.072 863.171L417.879 902.978L429.113 902.516L378.71 852.113Z" fill="white"/>
<path d="M378.71 852.113L378.072 863.171L417.879 902.978L429.113 902.516L378.71 852.113Z" stroke="#1E79A8" stroke-width="3.2375" stroke-miterlimit="10" stroke-linejoin="round"/>
<path d="M308.111 922.711L319.75 921.492L359.557 961.299L358.514 973.114L308.111 922.711Z" fill="white"/>
<path d="M308.111 922.711L319.75 921.492L359.557 961.299L358.514 973.114L308.111 922.711Z" stroke="#1E79A8" stroke-width="3.2375" stroke-miterlimit="10" stroke-linejoin="round"/>
<path d="M429.115 902.517L417.881 902.979L359.559 961.302L358.516 973.116L429.115 902.517Z" fill="white"/>
<path d="M429.115 902.517L417.881 902.979L359.559 961.302L358.516 973.116L429.115 902.517Z" stroke="#1E79A8" stroke-width="3.2375" stroke-miterlimit="10" stroke-linejoin="round"/>
<path d="M378.71 852.113L378.072 863.171L319.75 921.493L308.111 922.712L378.71 852.113Z" fill="white"/>
<path d="M378.71 852.113L378.072 863.171L319.75 921.493L308.111 922.712L378.71 852.113Z" stroke="#1E79A8" stroke-width="3.2375" stroke-miterlimit="10" stroke-linejoin="round"/>
<path d="M1013.1 900.016L985.441 872.353L1009.68 848.117L1037.34 875.78L1013.1 900.016Z" fill="white"/>
<path d="M1013.1 900.016L985.441 872.353L1009.68 848.117L1037.34 875.78L1013.1 900.016Z" stroke="#1E79A8" stroke-width="3.2375" stroke-miterlimit="10" stroke-linejoin="round"/>
<path d="M1027.34 913.653C1028.26 908.143 1026.06 900.726 1021.02 893.336C1019.54 891.158 1017.97 889.196 1016.48 887.706L1009.18 880.4L997.749 868.973C996.272 867.496 994.377 865.968 992.275 864.52C984.846 859.406 977.368 857.183 971.824 858.109L969.185 858.55C968.697 859.038 968.423 859.686 968.252 860.4C967.532 863.428 969.515 868.163 973.5 872.148L1013.31 911.954C1018.23 916.881 1024.35 918.823 1026.91 916.27L1027.34 913.653Z" fill="white"/>
<path d="M1027.34 913.653C1028.26 908.143 1026.06 900.726 1021.02 893.336C1019.54 891.158 1017.97 889.196 1016.48 887.706L1009.18 880.4L997.749 868.973C996.272 867.496 994.377 865.968 992.275 864.52C984.846 859.406 977.368 857.183 971.824 858.109L969.185 858.55C968.697 859.038 968.423 859.686 968.252 860.4C967.532 863.428 969.515 868.163 973.5 872.148L1013.31 911.954C1018.23 916.881 1024.35 918.823 1026.91 916.27L1027.34 913.653Z" stroke="#1E79A8" stroke-width="3.2375" stroke-miterlimit="10" stroke-linejoin="round"/>
<path d="M1114.64 854.764C1107.76 861.638 1083.4 848.418 1060.22 825.237C1037.04 802.055 1023.82 777.691 1030.69 770.818C1037.56 763.944 1061.93 777.164 1085.11 800.345C1108.29 823.526 1121.51 847.89 1114.64 854.764Z" fill="white"/>
<path d="M1114.64 854.764C1107.76 861.638 1083.4 848.418 1060.22 825.237C1037.04 802.055 1023.82 777.691 1030.69 770.818C1037.56 763.944 1061.93 777.164 1085.11 800.345C1108.29 823.526 1121.51 847.89 1114.64 854.764Z" stroke="#1E79A8" stroke-width="3.2375" stroke-miterlimit="10" stroke-linejoin="round"/>
<path d="M1075.67 862.472L1075.67 862.473L1077.12 861.02C1085.04 853.109 1095.33 848.022 1106.42 846.545L1103.34 840C1091.04 813.874 1069.83 792.993 1043.51 781.112L1038.91 779.037C1037.44 790.127 1032.35 800.423 1024.44 808.334L1022.98 809.788L1010.57 822.203C1007.4 822.262 1004.25 823.483 1001.85 825.886L999.995 829.923C996.085 838.422 995.862 848.264 999.81 856.745C1000.97 859.245 1002.35 861.393 1003.84 862.883L1022.58 881.616C1024.05 883.094 1026.12 884.449 1028.52 885.593C1037.03 889.633 1046.95 889.413 1055.5 885.478L1059.57 883.606C1061.98 881.204 1063.2 878.055 1063.26 874.888L1075.67 862.472Z" fill="white"/>
<path d="M1075.67 862.472L1075.67 862.473L1077.12 861.02C1085.04 853.109 1095.33 848.022 1106.42 846.545L1103.34 840C1091.04 813.874 1069.83 792.993 1043.51 781.112L1038.91 779.037C1037.44 790.127 1032.35 800.423 1024.44 808.334L1022.98 809.788L1010.57 822.203C1007.4 822.262 1004.25 823.483 1001.85 825.886L999.995 829.923C996.085 838.422 995.862 848.264 999.81 856.745C1000.97 859.245 1002.35 861.393 1003.84 862.883L1022.58 881.616C1024.05 883.094 1026.12 884.449 1028.52 885.593C1037.03 889.633 1046.95 889.413 1055.5 885.478L1059.57 883.606C1061.98 881.204 1063.2 878.055 1063.26 874.888L1075.67 862.472Z" stroke="#1E79A8" stroke-width="3.2375" stroke-miterlimit="10" stroke-linejoin="round"/>
<path d="M1097.48 870.416C1097.34 869.833 1096.83 869.436 1096.23 869.413C1094.95 869.364 1092.37 869.573 1089.65 871.551C1085.79 874.36 1079.7 878.926 1074.61 879.102C1069.52 879.277 1065.36 874.184 1064.89 872.78C1064.42 871.375 1059.62 875.355 1058.39 878.458C1057.16 881.56 1058.57 883.902 1058.57 883.902C1058.57 883.902 1077.89 885.073 1084.74 882.907C1091.59 880.741 1095.98 877.873 1097.09 874.301C1097.68 872.396 1097.64 871.157 1097.48 870.416Z" fill="white"/>
<path d="M1097.48 870.416C1097.34 869.833 1096.83 869.436 1096.23 869.413C1094.95 869.364 1092.37 869.573 1089.65 871.551C1085.79 874.36 1079.7 878.926 1074.61 879.102C1069.52 879.277 1065.36 874.184 1064.89 872.78C1064.42 871.375 1059.62 875.355 1058.39 878.458C1057.16 881.56 1058.57 883.902 1058.57 883.902C1058.57 883.902 1077.89 885.073 1084.74 882.907C1091.59 880.741 1095.98 877.873 1097.09 874.301C1097.68 872.396 1097.64 871.157 1097.48 870.416Z" stroke="#1E79A8" stroke-width="3.2375" stroke-miterlimit="10" stroke-linejoin="round"/>
<path d="M1014.83 787.837C1015.46 787.965 1015.9 788.528 1015.92 789.172C1015.96 790.481 1015.72 793.009 1013.78 795.676C1010.97 799.54 1006.4 805.628 1006.23 810.721C1006.05 815.814 1011.14 819.97 1012.55 820.438C1013.95 820.907 1009.97 825.707 1006.87 826.936C1003.77 828.166 1001.43 826.761 1001.43 826.761C1001.43 826.761 1000.25 807.442 1002.42 800.594C1004.59 793.744 1007.46 789.354 1011.03 788.242C1012.87 787.669 1014.08 787.686 1014.83 787.837Z" fill="white"/>
<path d="M1014.83 787.837C1015.46 787.965 1015.9 788.528 1015.92 789.172C1015.96 790.481 1015.72 793.009 1013.78 795.676C1010.97 799.54 1006.4 805.628 1006.23 810.721C1006.05 815.814 1011.14 819.97 1012.55 820.438C1013.95 820.907 1009.97 825.707 1006.87 826.936C1003.77 828.166 1001.43 826.761 1001.43 826.761C1001.43 826.761 1000.25 807.442 1002.42 800.594C1004.59 793.744 1007.46 789.354 1011.03 788.242C1012.87 787.669 1014.08 787.686 1014.83 787.837Z" stroke="#1E79A8" stroke-width="3.2375" stroke-miterlimit="10" stroke-linejoin="round"/>
<path d="M981.896 961.301L923.574 902.979L963.381 863.171L1021.7 921.494L981.896 961.301Z" fill="white"/>
<path d="M981.896 961.301L923.574 902.979L963.381 863.171L1021.7 921.494L981.896 961.301Z" stroke="#1E79A8" stroke-width="3.2375" stroke-miterlimit="10" stroke-linejoin="round"/>
<path d="M962.745 852.113L963.383 863.171L923.576 902.978L912.342 902.516L962.745 852.113Z" fill="white"/>
<path d="M962.745 852.113L963.383 863.171L923.576 902.978L912.342 902.516L962.745 852.113Z" stroke="#1E79A8" stroke-width="3.2375" stroke-miterlimit="10" stroke-linejoin="round"/>
<path d="M1033.34 922.711L1021.7 921.492L981.898 961.299L982.941 973.114L1033.34 922.711Z" fill="white"/>
<path d="M1033.34 922.711L1021.7 921.492L981.898 961.299L982.941 973.114L1033.34 922.711Z" stroke="#1E79A8" stroke-width="3.2375" stroke-miterlimit="10" stroke-linejoin="round"/>
<path d="M912.339 902.517L923.572 902.979L981.894 961.302L982.938 973.116L912.339 902.517Z" fill="white"/>
<path d="M912.339 902.517L923.572 902.979L981.894 961.302L982.938 973.116L912.339 902.517Z" stroke="#1E79A8" stroke-width="3.2375" stroke-miterlimit="10" stroke-linejoin="round"/>
<path d="M962.745 852.113L963.383 863.171L1021.7 921.493L1033.34 922.712L962.745 852.113Z" fill="white"/>
<path d="M962.745 852.113L963.383 863.171L1021.7 921.493L1033.34 922.712L962.745 852.113Z" stroke="#1E79A8" stroke-width="3.2375" stroke-miterlimit="10" stroke-linejoin="round"/>
<path d="M527.211 872.353L554.874 900.016L579.11 875.78L551.447 848.117L527.211 872.353Z" fill="white"/>
<path d="M527.211 872.353L554.874 900.016L579.11 875.78L551.447 848.117L527.211 872.353Z" stroke="#F9A928" stroke-width="3.2375" stroke-miterlimit="10" stroke-linejoin="round"/>
<path d="M513.577 858.11C519.088 857.19 526.505 859.392 533.895 864.431C536.072 865.917 538.034 867.48 539.525 868.971L546.831 876.277L558.258 887.704C559.735 889.181 561.262 891.075 562.71 893.178C567.825 900.606 570.048 908.084 569.122 913.629L568.681 916.268C568.193 916.756 567.544 917.029 566.831 917.2C563.803 917.921 559.068 915.939 555.083 911.953L515.276 872.146C510.349 867.22 508.408 861.1 510.961 858.548L513.577 858.11Z" fill="white"/>
<path d="M513.577 858.11C519.088 857.19 526.505 859.392 533.895 864.431C536.072 865.917 538.034 867.48 539.525 868.971L546.831 876.277L558.258 887.704C559.735 889.181 561.262 891.075 562.71 893.178C567.825 900.606 570.048 908.084 569.122 913.629L568.681 916.268C568.193 916.756 567.544 917.029 566.831 917.2C563.803 917.921 559.068 915.939 555.083 911.953L515.276 872.146C510.349 867.22 508.408 861.1 510.961 858.548L513.577 858.11Z" stroke="#F9A928" stroke-width="3.2375" stroke-miterlimit="10" stroke-linejoin="round"/>
<path d="M572.462 770.818C565.589 777.691 578.809 802.055 601.99 825.237C625.171 848.418 649.535 861.638 656.409 854.764C663.282 847.89 650.062 823.526 626.881 800.345C603.7 777.164 579.336 763.944 572.462 770.818Z" fill="white"/>
<path d="M572.462 770.818C565.589 777.691 578.809 802.055 601.99 825.237C625.171 848.418 649.535 861.638 656.409 854.764C663.282 847.89 650.062 823.526 626.881 800.345C603.7 777.164 579.336 763.944 572.462 770.818Z" stroke="#F9A928" stroke-width="3.2375" stroke-miterlimit="10" stroke-linejoin="round"/>
<path d="M564.755 809.786L564.753 809.788L566.207 808.334C574.118 800.423 579.205 790.127 580.682 779.037L587.227 782.117C613.353 794.415 634.234 815.63 646.115 841.949L648.19 846.545C637.1 848.022 626.804 853.109 618.893 861.02L617.439 862.474L605.024 874.889C604.965 878.055 603.743 881.204 601.341 883.606L597.304 885.463C588.805 889.373 578.963 889.596 570.481 885.649C567.982 884.485 565.834 883.106 564.343 881.616L545.611 862.883C544.133 861.406 542.777 859.341 541.634 856.935C537.594 848.43 537.814 838.51 541.748 829.957L543.621 825.886C546.023 823.483 549.172 822.262 552.338 822.203L564.755 809.786Z" fill="white"/>
<path d="M564.755 809.786L564.753 809.788L566.207 808.334C574.118 800.423 579.205 790.127 580.682 779.037L587.227 782.117C613.353 794.415 634.234 815.63 646.115 841.949L648.19 846.545C637.1 848.022 626.804 853.109 618.893 861.02L617.439 862.474L605.024 874.889C604.965 878.055 603.743 881.204 601.341 883.606L597.304 885.463C588.805 889.373 578.963 889.596 570.481 885.649C567.982 884.485 565.834 883.106 564.343 881.616L545.611 862.883C544.133 861.406 542.777 859.341 541.634 856.935C537.594 848.43 537.814 838.51 541.748 829.957L543.621 825.886C546.023 823.483 549.172 822.262 552.338 822.203L564.755 809.786Z" stroke="#F9A928" stroke-width="3.2375" stroke-miterlimit="10" stroke-linejoin="round"/>
<path d="M556.814 787.983C557.397 788.114 557.793 788.629 557.816 789.226C557.866 790.512 557.656 793.086 555.68 795.805C552.87 799.668 548.304 805.757 548.128 810.849C547.952 815.942 553.045 820.099 554.45 820.567C555.855 821.036 551.874 825.836 548.772 827.065C545.669 828.294 543.328 826.89 543.328 826.89C543.328 826.89 542.157 807.571 544.323 800.722C546.489 793.873 549.358 789.482 552.928 788.37C554.834 787.777 556.073 787.817 556.814 787.983Z" fill="white"/>
<path d="M556.814 787.983C557.397 788.114 557.793 788.629 557.816 789.226C557.866 790.512 557.656 793.086 555.68 795.805C552.87 799.668 548.304 805.757 548.128 810.849C547.952 815.942 553.045 820.099 554.45 820.567C555.855 821.036 551.874 825.836 548.772 827.065C545.669 828.294 543.328 826.89 543.328 826.89C543.328 826.89 542.157 807.571 544.323 800.722C546.489 793.873 549.358 789.482 552.928 788.37C554.834 787.777 556.073 787.817 556.814 787.983Z" stroke="#F9A928" stroke-width="3.2375" stroke-miterlimit="10" stroke-linejoin="round"/>
<path d="M639.389 870.623C639.261 869.992 638.698 869.558 638.054 869.539C636.745 869.5 634.217 869.738 631.55 871.678C627.686 874.488 621.598 879.054 616.505 879.23C611.412 879.405 607.256 874.312 606.788 872.907C606.319 871.502 601.519 875.483 600.29 878.586C599.06 881.688 600.465 884.03 600.465 884.03C600.465 884.03 619.783 885.201 626.632 883.035C633.482 880.869 637.872 878 638.984 874.429C639.557 872.59 639.54 871.372 639.389 870.623Z" fill="white"/>
<path d="M639.389 870.623C639.261 869.992 638.698 869.558 638.054 869.539C636.745 869.5 634.217 869.738 631.55 871.678C627.686 874.488 621.598 879.054 616.505 879.23C611.412 879.405 607.256 874.312 606.788 872.907C606.319 871.502 601.519 875.483 600.29 878.586C599.06 881.688 600.465 884.03 600.465 884.03C600.465 884.03 619.783 885.201 626.632 883.035C633.482 880.869 637.872 878 638.984 874.429C639.557 872.59 639.54 871.372 639.389 870.623Z" stroke="#F9A928" stroke-width="3.2375" stroke-miterlimit="10" stroke-linejoin="round"/>
<path d="M465.93 903.559L524.252 961.881L564.06 922.074L505.737 863.752L465.93 903.559Z" fill="white"/>
<path d="M465.93 903.559L524.252 961.881L564.059 922.074L505.737 863.752L465.93 903.559Z" stroke="#F9A928" stroke-width="3.2375" stroke-miterlimit="10" stroke-linejoin="round"/>
<path d="M575.117 922.711L564.059 922.073L524.252 961.88L524.714 973.114L575.117 922.711Z" fill="white"/>
<path d="M575.117 922.711L564.059 922.073L524.252 961.88L524.714 973.114L575.117 922.711Z" stroke="#F9A928" stroke-width="3.2375" stroke-miterlimit="10" stroke-linejoin="round"/>
<path d="M504.518 852.113L505.737 863.752L465.93 903.559L454.115 902.516L504.518 852.113Z" fill="white"/>
<path d="M504.518 852.113L505.737 863.752L465.93 903.559L454.115 902.516L504.518 852.113Z" stroke="#F9A928" stroke-width="3.2375" stroke-miterlimit="10" stroke-linejoin="round"/>
<path d="M524.714 973.116L524.252 961.882L465.929 903.56L454.115 902.517L524.714 973.116Z" fill="white"/>
<path d="M524.714 973.116L524.252 961.882L465.929 903.56L454.115 902.517L524.714 973.116Z" stroke="#F9A928" stroke-width="3.2375" stroke-miterlimit="10" stroke-linejoin="round"/>
<path d="M575.115 922.712L564.057 922.074L505.734 863.752L504.516 852.113L575.115 922.712Z" fill="white"/>
<path d="M575.115 922.712L564.057 922.074L505.734 863.752L504.516 852.113L575.115 922.712Z" stroke="#F9A928" stroke-width="3.2375" stroke-miterlimit="10" stroke-linejoin="round"/>
<path d="M1272.47 872.353L1244.81 900.016L1220.57 875.78L1248.23 848.117L1272.47 872.353Z" fill="white"/>
<path d="M1272.47 872.353L1244.81 900.016L1220.57 875.78L1248.23 848.117L1272.47 872.353Z" stroke="#F9A928" stroke-width="3.2375" stroke-miterlimit="10" stroke-linejoin="round"/>
<path d="M1286.1 858.11C1280.59 857.19 1273.18 859.392 1265.79 864.431C1263.61 865.917 1261.65 867.48 1260.16 868.971L1252.85 876.277L1241.42 887.704C1239.95 889.181 1238.42 891.075 1236.97 893.178C1231.86 900.606 1229.63 908.084 1230.56 913.629L1231 916.268C1231.49 916.756 1232.14 917.029 1232.85 917.2C1235.88 917.921 1240.61 915.939 1244.6 911.953L1284.41 872.146C1289.33 867.22 1291.27 861.1 1288.72 858.548L1286.1 858.11Z" fill="white"/>
<path d="M1286.1 858.11C1280.59 857.19 1273.18 859.392 1265.79 864.431C1263.61 865.917 1261.65 867.48 1260.16 868.971L1252.85 876.277L1241.42 887.704C1239.95 889.181 1238.42 891.075 1236.97 893.178C1231.86 900.606 1229.63 908.084 1230.56 913.629L1231 916.268C1231.49 916.756 1232.14 917.029 1232.85 917.2C1235.88 917.921 1240.61 915.939 1244.6 911.953L1284.41 872.146C1289.33 867.22 1291.27 861.1 1288.72 858.548L1286.1 858.11Z" stroke="#F9A928" stroke-width="3.2375" stroke-miterlimit="10" stroke-linejoin="round"/>
<path d="M1227.22 770.818C1234.09 777.691 1220.87 802.055 1197.69 825.237C1174.51 848.418 1150.15 861.638 1143.27 854.764C1136.4 847.89 1149.62 823.526 1172.8 800.345C1195.98 777.164 1220.35 763.944 1227.22 770.818Z" fill="white"/>
<path d="M1227.22 770.818C1234.09 777.691 1220.87 802.055 1197.69 825.237C1174.51 848.418 1150.15 861.638 1143.27 854.764C1136.4 847.89 1149.62 823.526 1172.8 800.345C1195.98 777.164 1220.35 763.944 1227.22 770.818Z" stroke="#F9A928" stroke-width="3.2375" stroke-miterlimit="10" stroke-linejoin="round"/>
<path d="M1234.92 809.786L1234.93 809.788L1233.47 808.334C1225.56 800.423 1220.47 790.127 1219 779.037L1212.45 782.117C1186.33 794.415 1165.45 815.63 1153.56 841.949L1151.49 846.545C1162.58 848.022 1172.88 853.109 1180.79 861.02L1182.24 862.474L1194.66 874.889C1194.71 878.055 1195.94 881.204 1198.34 883.606L1202.38 885.463C1210.87 889.373 1220.72 889.596 1229.2 885.649C1231.7 884.485 1233.85 883.106 1235.34 881.616L1254.07 862.883C1255.55 861.406 1256.9 859.341 1258.05 856.935C1262.09 848.43 1261.87 838.51 1257.93 829.957L1256.06 825.886C1253.66 823.483 1250.51 822.262 1247.34 822.203L1234.92 809.786Z" fill="white"/>
<path d="M1234.92 809.786L1234.93 809.788L1233.47 808.334C1225.56 800.423 1220.47 790.127 1219 779.037L1212.45 782.117C1186.33 794.415 1165.45 815.63 1153.56 841.949L1151.49 846.545C1162.58 848.022 1172.88 853.109 1180.79 861.02L1182.24 862.474L1194.66 874.889C1194.71 878.055 1195.94 881.204 1198.34 883.606L1202.38 885.463C1210.87 889.373 1220.72 889.596 1229.2 885.649C1231.7 884.485 1233.85 883.106 1235.34 881.616L1254.07 862.883C1255.55 861.406 1256.9 859.341 1258.05 856.935C1262.09 848.43 1261.87 838.51 1257.93 829.957L1256.06 825.886C1253.66 823.483 1250.51 822.262 1247.34 822.203L1234.92 809.786Z" stroke="#F9A928" stroke-width="3.2375" stroke-miterlimit="10" stroke-linejoin="round"/>
<path d="M1242.87 787.983C1242.28 788.114 1241.89 788.629 1241.86 789.226C1241.81 790.512 1242.02 793.086 1244 795.805C1246.81 799.668 1251.38 805.757 1251.55 810.849C1251.73 815.942 1246.63 820.099 1245.23 820.567C1243.82 821.036 1247.81 825.836 1250.91 827.065C1254.01 828.294 1256.35 826.89 1256.35 826.89C1256.35 826.89 1257.52 807.571 1255.36 800.722C1253.19 793.873 1250.32 789.482 1246.75 788.37C1244.85 787.777 1243.61 787.817 1242.87 787.983Z" fill="white"/>
<path d="M1242.87 787.983C1242.28 788.114 1241.89 788.629 1241.86 789.226C1241.81 790.512 1242.02 793.086 1244 795.805C1246.81 799.668 1251.38 805.757 1251.55 810.849C1251.73 815.942 1246.63 820.099 1245.23 820.567C1243.82 821.036 1247.81 825.836 1250.91 827.065C1254.01 828.294 1256.35 826.89 1256.35 826.89C1256.35 826.89 1257.52 807.571 1255.36 800.722C1253.19 793.873 1250.32 789.482 1246.75 788.37C1244.85 787.777 1243.61 787.817 1242.87 787.983Z" stroke="#F9A928" stroke-width="3.2375" stroke-miterlimit="10" stroke-linejoin="round"/>
<path d="M1160.29 870.623C1160.42 869.992 1160.98 869.558 1161.63 869.539C1162.94 869.5 1165.46 869.738 1168.13 871.678C1171.99 874.488 1178.08 879.054 1183.17 879.23C1188.27 879.405 1192.42 874.312 1192.89 872.907C1193.36 871.502 1198.16 875.483 1199.39 878.586C1200.62 881.688 1199.21 884.03 1199.21 884.03C1199.21 884.03 1179.9 885.201 1173.05 883.035C1166.2 880.869 1161.81 878 1160.7 874.429C1160.12 872.59 1160.14 871.372 1160.29 870.623Z" fill="white"/>
<path d="M1160.29 870.623C1160.42 869.992 1160.98 869.558 1161.63 869.539C1162.94 869.5 1165.46 869.738 1168.13 871.678C1171.99 874.488 1178.08 879.054 1183.17 879.23C1188.27 879.405 1192.42 874.312 1192.89 872.907C1193.36 871.502 1198.16 875.483 1199.39 878.586C1200.62 881.688 1199.21 884.03 1199.21 884.03C1199.21 884.03 1179.9 885.201 1173.05 883.035C1166.2 880.869 1161.81 878 1160.7 874.429C1160.12 872.59 1160.14 871.372 1160.29 870.623Z" stroke="#F9A928" stroke-width="3.2375" stroke-miterlimit="10" stroke-linejoin="round"/>
<path d="M1333.75 903.559L1275.43 961.881L1235.62 922.074L1293.95 863.752L1333.75 903.559Z" fill="white"/>
<path d="M1333.75 903.559L1275.43 961.881L1235.62 922.074L1293.95 863.752L1333.75 903.559Z" stroke="#F9A928" stroke-width="3.2375" stroke-miterlimit="10" stroke-linejoin="round"/>
<path d="M1224.56 922.711L1235.62 922.073L1275.43 961.88L1274.97 973.114L1224.56 922.711Z" fill="white"/>
<path d="M1224.56 922.711L1235.62 922.073L1275.43 961.88L1274.97 973.114L1224.56 922.711Z" stroke="#F9A928" stroke-width="3.2375" stroke-miterlimit="10" stroke-linejoin="round"/>
<path d="M1295.16 852.113L1293.94 863.752L1333.75 903.559L1345.57 902.516L1295.16 852.113Z" fill="white"/>
<path d="M1295.16 852.113L1293.94 863.752L1333.75 903.559L1345.57 902.516L1295.16 852.113Z" stroke="#F9A928" stroke-width="3.2375" stroke-miterlimit="10" stroke-linejoin="round"/>
<path d="M1274.97 973.116L1275.43 961.882L1333.75 903.56L1345.57 902.517L1274.97 973.116Z" fill="white"/>
<path d="M1274.97 973.116L1275.43 961.882L1333.75 903.56L1345.57 902.517L1274.97 973.116Z" stroke="#F9A928" stroke-width="3.2375" stroke-miterlimit="10" stroke-linejoin="round"/>
<path d="M1224.57 922.712L1235.63 922.074L1293.95 863.752L1295.17 852.113L1224.57 922.712Z" fill="white"/>
<path d="M1224.57 922.712L1235.63 922.074L1293.95 863.752L1295.17 852.113L1224.57 922.712Z" stroke="#F9A928" stroke-width="3.2375" stroke-miterlimit="10" stroke-linejoin="round"/>
</g>
</g>
<defs>
<clipPath id="clip0_3026_51506">
<rect width="1350" height="970" fill="white"/>
</clipPath>
</defs>
</svg>
