<?xml version="1.0" encoding="UTF-8" standalone="no"?>
<!-- Created with Inkscape (http://www.inkscape.org/) -->

<svg
   width="40.501858mm"
   height="63.521935mm"
   viewBox="0 0 40.501857 63.521935"
   version="1.1"
   id="svg1"
   xml:space="preserve"
   xmlns="http://www.w3.org/2000/svg"
   xmlns:svg="http://www.w3.org/2000/svg"><defs
     id="defs1"><clipPath
       clipPathUnits="userSpaceOnUse"
       id="clipPath2"><path
         d="M 118.75,118.75 H 2432.8125 V 3182.8125 H 118.75 Z"
         transform="matrix(0.17101214,0,0,0.17092497,-20.307691,-217.29329)"
         clip-rule="evenodd"
         id="path2" /></clipPath><clipPath
       clipPathUnits="userSpaceOnUse"
       id="clipPath4"><path
         d="m 118.75,1271.2788 h 479.49811 v 760.5676 H 118.75 Z"
         transform="matrix(0.17101214,0,0,0.17092497,-20.307691,-217.29329)"
         clip-rule="evenodd"
         id="path4" /></clipPath><clipPath
       clipPathUnits="userSpaceOnUse"
       id="clipPath6"><path
         d="m 118.75,1271.2788 h 479.49811 v 760.5676 H 118.75 Z"
         transform="matrix(0.17101214,0,0,0.17092497,-20.307691,-217.29329)"
         clip-rule="evenodd"
         id="path6" /></clipPath><clipPath
       clipPathUnits="userSpaceOnUse"
       id="clipPath8"><path
         d="m 118.75,1271.2788 h 479.49811 v 760.5676 H 118.75 Z"
         transform="matrix(0.17101214,0,0,0.17092497,-20.307691,-217.29329)"
         clip-rule="evenodd"
         id="path8" /></clipPath><clipPath
       clipPathUnits="userSpaceOnUse"
       id="clipPath10"><path
         d="m 118.75,1271.2788 h 479.49811 v 760.5676 H 118.75 Z"
         transform="matrix(0.17101214,0,0,0.17092497,-20.307691,-217.29329)"
         clip-rule="evenodd"
         id="path10" /></clipPath><clipPath
       clipPathUnits="userSpaceOnUse"
       id="clipPath12"><path
         d="m 118.75,1271.2788 h 479.49811 v 760.5676 H 118.75 Z"
         transform="matrix(0.17101214,0,0,0.17092497,-20.307691,-217.29329)"
         clip-rule="evenodd"
         id="path12" /></clipPath><clipPath
       clipPathUnits="userSpaceOnUse"
       id="clipPath13"><path
         d="M 0,62.5 H 375 V 100 H 0 Z"
         transform="matrix(0.31999999,0,0,0.31999999,-31.999999,-29.999999)"
         clip-rule="evenodd"
         id="path13" /></clipPath><clipPath
       clipPathUnits="userSpaceOnUse"
       id="clipPath14"><path
         d="M 375,62.5 H 2550 V 100 H 375 Z"
         transform="matrix(0.31999999,0,0,0.31999999,-364.49998,-29.999999)"
         clip-rule="evenodd"
         id="path14" /></clipPath><clipPath
       clipPathUnits="userSpaceOnUse"
       id="clipPath15"><path
         d="m 0,3200 h 2378.125 v 37.5 H 0 Z"
         transform="matrix(0.31999999,0,0,0.31999999,-31.999999,-1034)"
         clip-rule="evenodd"
         id="path15" /></clipPath><clipPath
       clipPathUnits="userSpaceOnUse"
       id="clipPath16"><path
         d="M 2378.125,3200 H 2550 v 37.5 h -171.875 z"
         transform="matrix(0.31999999,0,0,0.31999999,-769.15622,-1034)"
         clip-rule="evenodd"
         id="path16" /></clipPath><clipPath
       clipPathUnits="userSpaceOnUse"
       id="clipPath17"><path
         d="M 2378.125,3200 H 2550 v 37.5 h -171.875 z"
         transform="matrix(0.31999999,0,0,0.31999999,-775.09372,-1034)"
         clip-rule="evenodd"
         id="path17" /></clipPath><clipPath
       clipPathUnits="userSpaceOnUse"
       id="clipPath18"><path
         d="M 2378.125,3200 H 2550 v 37.5 h -171.875 z"
         transform="matrix(0.31999999,0,0,0.31999999,-778.06247,-1034)"
         clip-rule="evenodd"
         id="path18" /></clipPath></defs><g
     id="layer1"
     transform="translate(-230.05418,-107.63494)" /><g
     id="g1"
     transform="matrix(0.26458333,0,0,0.26458334,-10.054171,-107.63494)"><path
       id="path3"
       d="m 52.398998,108.047 3.417,6.28 -0.43,0.92299 h -1.310002 v 1.695 l 2.314,2.584 h 2.229999 l 0.06,-0.039 4.081002,-8.892 v -0.072 l -2.319,-2.584 h -1.717 l -0.06,0.038 -1.299999,2.863 -2.937,-2.88501 h -1.939999 l -0.062,0.034 v 0.066 l -0.027,-0.011 v 10e-6 z M 12.146,117.85599 9.3599997,114.85 8.0999994,113.566 H 7.994 c -0.3262549,0.46125 -0.7612548,0.76858 -1.3049999,0.922 0.024131,-0.42246 0.1486745,-0.8129 0.3736306,-1.1713 0.224956,-0.3584 0.5224127,-0.6403 0.8923692,-0.8457 0.3383217,-0.16936 0.6966553,-0.2547 1.0749998,-0.256 0.3807221,0.0142 0.7413426,0.10666 1.0818623,0.27754 0.34052,0.17087 0.630232,0.40468 0.869138,0.70146 0.146,0.087 0.31,0.14 0.48,0.155 l 0.161001,-0.072 c 0.036,0.006 0.071,0.006 0.106,0 v 3.223 l 2.475,3.079 0.05,0.028 h 2.013 v -2.929 l 2.347,2.924 0.055,0.027 H 20.993 v -8.581 l -2.475,-3.073 h -6.784001 v 3.568 L 9.3759995,109.32 c -0.4148522,-0.48249 -0.9113217,-0.85669 -1.4894071,-1.1226 -0.5780854,-0.2659 -1.1852832,-0.39937 -1.8215928,-0.4004 -0.5773044,4.2e-4 -1.1326475,0.11107 -1.6660295,0.33194 -0.5333822,0.22088 -1.0043723,0.53523 -1.4129705,0.94306 -0.2105754,0.21 -0.3975854,0.43922 -0.5610297,0.68766 -0.1634443,0.24843 -0.2999041,0.51091 -0.4093795,0.78742 -0.1094753,0.2765 -0.1896763,0.56125 -0.2406027,0.85425 -0.050927,0.29299 -0.071513,0.5881 -0.06176,0.88534 0.00975,0.29722 0.049641,0.59035 0.1196656,0.87938 0.070024,0.28902 0.1687193,0.56791 0.2960856,0.83664 0.1273661,0.26873 0.2807388,0.52169 0.4601185,0.75888 0.1793795,0.23721 0.3810137,0.45368 0.6049025,0.64943 l 2.9540003,3.14599 c 0.2192421,0.17127 0.4527001,0.32027 0.7003741,0.44699 0.247674,0.12673 0.5050959,0.22891 0.7722654,0.30651 0.2671695,0.0776 0.5392671,0.12925 0.8162914,0.15493 0.2770242,0.0257 0.5539789,0.025 0.830862,-0.002 0.2768831,-0.0272 0.5487003,-0.0803 0.8154509,-0.15929 0.266753,-0.079 0.523626,-0.18258 0.770621,-0.31062 0.246994,-0.12805 0.479654,-0.2783 0.69798,-0.45075 0.218325,-0.17243 0.418376,-0.36396 0.600155,-0.57456 v -0.089 l -0.006,-0.023 h -1e-6 z m 10.101,-1.53299 2.52,2.567 c 0.560627,0.52267 1.223961,0.797 1.99,0.823 0.662739,9.7e-4 1.251406,-0.20737 1.766001,-0.625 0.5,-0.405 0.842001,-0.97 0.969999,-1.598 0.0283,-0.14904 0.04497,-0.29937 0.05,-0.451 l 2.23,2.518 h 1.623001 v -7.369 H 37.064 l -1.851002,4.16799 v 0.10501 l 2.725998,3.074 h 1.994999 l 0.062,-0.033 0.896999,-1.445 h 2.134998 l 1.254002,1.456 h 2.420002 l 0.061,-0.034 v 0.011 l -2.14,-4.574 c 0.147999,0.174 0.307999,0.338 0.479,0.489 l 2.949002,3.146 c 0.219234,0.17379 0.453075,0.32498 0.70153,0.45359 0.248451,0.12859 0.506916,0.23222 0.775398,0.31087 0.268479,0.0786 0.542004,0.13087 0.820572,0.15666 0.278572,0.0258 0.557034,0.0247 0.835388,-0.003 0.278355,-0.028 0.551453,-0.0824 0.819294,-0.16322 0.267842,-0.0808 0.525467,-0.1865 0.772885,-0.31707 0.247417,-0.13059 0.480041,-0.28365 0.697876,-0.4592 0.217838,-0.17553 0.416858,-0.3703 0.597057,-0.58429 v -0.089 l -2.786999,-3.006 -1.255001,-1.28399 h -0.104 c -0.319,0.44999 -0.784,0.776 -1.315998,0.92199 0.02641,-0.4224 0.152428,-0.81264 0.378067,-1.17072 0.225636,-0.35807 0.523281,-0.64016 0.892933,-0.84627 0.338635,-0.16954 0.697304,-0.25486 1.076,-0.256 0.379589,0.0153 0.739056,0.1083 1.078396,0.27911 0.339337,0.1708 0.628204,0.40409 0.866604,0.69989 0.144001,0.086 0.306,0.14 0.473999,0.15499 l 0.167,-0.072 c 0.167999,0 0.318001,-0.111 0.318001,-0.473 v -1.044 l -2.575001,-2.446 c -0.414974,-0.48232 -0.911484,-0.85643 -1.489533,-1.12232 -0.578045,-0.2659 -1.185203,-0.39946 -1.821468,-0.40068 -0.577427,5.5e-4 -1.132896,0.11126 -1.666416,0.33212 -0.53352,0.22086 -1.004715,0.53515 -1.413586,0.94288 -0.407818,0.40714 -0.722099,0.87686 -0.942848,1.40915 -0.220753,0.53231 -0.331135,1.08659 -0.33115,1.66285 v 0.166 l -4.001999,-4.24 v -0.061 l -0.062,-0.039 H 38.999 l -0.061,0.039 -1.181999,2.656 -2.637002,-2.69 H 28.987 v 1.66198 c -0.429074,-0.61071 -0.862406,-1.21837 -1.3,-1.823 v -0.05 H 26.4 l -0.084,0.19999 c -0.0641,0.21433 -0.18396,0.39078 -0.359566,0.52935 -0.175607,0.13858 -0.375086,0.21413 -0.598434,0.22665 -0.238083,-0.009 -0.46475,-0.0648 -0.680001,-0.167 -0.446256,-0.2035 -0.914588,-0.30883 -1.405,-0.316 -0.467039,0.008 -0.913223,0.10899 -1.338553,0.3021 -0.425327,0.19311 -0.794809,0.46274 -1.108448,0.8089 l -0.045,0.05 0.045,0.039 1.048001,0.989 1.080999,1.073 c -0.263935,0.10291 -0.506519,0.24285 -0.727753,0.4198 -0.221231,0.17695 -0.411047,0.38286 -0.569444,0.61773 -0.158398,0.23487 -0.27817,0.48802 -0.359316,0.75944 -0.08115,0.27141 -0.119976,0.54875 -0.116488,0.83203 -0.0047,0.43431 0.08762,0.84694 0.276856,1.23789 0.189232,0.39095 0.455614,0.71932 0.799145,0.98511 l -0.01,-0.022 -9.97e-4,2e-5 z m 6.69,-1.334 -2.458999,-2.451 c 0.419233,-0.0282 0.825901,-0.11525 1.219999,-0.261 0.597404,-0.18157 1.026737,-0.5559 1.288,-1.123 v 3.857 l -0.05,-0.022 z"
       style="fill:#9e2c09;fill-opacity:1;fill-rule:evenodd;stroke:none"
       transform="matrix(1.8712121,0,0,1.8721664,38.000007,406.8092)"
       clip-path="url(#clipPath4)" /><path
       id="path5"
       d="m 62.515999,20.82 -2.737,2.716999 v -1.723 l 2.653,-2.662 h -1.014 l -1.672001,1.666999 v -1.427999 l 0.234002,-0.24 h -1.862 v 16.663 h 1.622002 v -0.34 l 2.742,-2.706001 v -1.034001 l -2.708999,2.723999 v -1.722999 l 2.743,-2.723 V 29 l -2.743,2.712 v -1.700001 l 2.743,-2.712999 v -1.022 l -2.743,2.712 v -1.712 l 2.743,-2.718 v -1.006001 l -2.743,2.718001 v -1.723 l 2.736999,-2.716999 v -1.011999 h 0.006 l -4e-6,9.98e-4 z m 2.006996,-3.719 h 0.796997 V 16.306 L 81.123001,0.611 c 0.06893,-0.0700527 0.103394,-0.15421933 0.103386,-0.2525 8e-6,-0.0982807 -0.03445,-0.18244734 -0.103386,-0.25249999 -0.0705,-0.06878852 -0.154999,-0.10318277 -0.253502,-0.10318277 -0.0985,0 -0.182998,0.03439425 -0.253502,0.10318277 L 65.32,15.295 V 13.789 L 78.370003,0.61000001 c 0.06976,-0.0697156 0.104629,-0.15388223 0.104629,-0.25249996 0,-0.0986178 -0.03487,-0.18278443 -0.104629,-0.25250003 -0.07057,-0.06911159 -0.155228,-0.10366737 -0.254006,-0.10366737 -0.09876,0 -0.183433,0.03455578 -0.253997,0.10366737 L 65.32,12.783 V 11.004 L 75.610001,0.611 c 0.07878,-0.0675318 0.120239,-0.15313876 0.124382,-0.25682098 0.0041,-0.10368216 -0.03037,-0.1923187 -0.103531,-0.26590967 -0.07316,-0.07359097 -0.161583,-0.10862803 -0.26529,-0.1051112 -0.103706,0.0035168 -0.189559,0.0444641 -0.25756,0.12284186 L 65.32,10.004 V 8.2360001 L 72.849998,0.611 c 0.06893,-0.0700527 0.103394,-0.15421933 0.103394,-0.2525 0,-0.0982807 -0.03446,-0.18244734 -0.103394,-0.25249999 C 72.779556,0.03754049 72.695221,0.00331075 72.597,0.00331075 c -0.09823,0 -0.182564,0.03422974 -0.252998,0.10268926 L 65.32,7.2249999 V 5.4520001 L 70.097,0.634 c 0.06769,-0.0707532 0.101532,-0.15508648 0.101532,-0.25299996 0,-0.0979134 -0.03384,-0.18224679 -0.101532,-0.25300002 -0.0705,-0.06878672 -0.154999,-0.10318008 -0.253502,-0.10318008 -0.0985,0 -0.182998,0.03439336 -0.253502,0.10318008 l -4.264,4.30700038 V 2.668 l 2.012001,-2.05799999 c 0.06976,-0.0697156 0.10463,-0.15388223 0.10463,-0.25249996 0,-0.0986178 -0.03487,-0.18278443 -0.10463,-0.25250003 -0.0705,-0.06878851 -0.154998,-0.10318276 -0.253501,-0.10318276 -0.0985,0 -0.182999,0.03439425 -0.253502,0.10318276 L 65.157997,1.816 64.25,0.96599996 64.599998,0.6099999 c 0.07031,-0.0694838 0.105469,-0.15365041 0.105469,-0.2525 0,-0.0988496 -0.03516,-0.18301624 -0.105469,-0.2525 -0.06873,-0.06974927 -0.152069,-0.10462390077 -0.25,-0.10462390077 -0.09792,0 -0.181259,0.0348746308 -0.25,0.10462390077 L 63.730999,0.47699991 V 17.099998 h 0.792004 l -8e-6,0.001 z M 62.515999,1.6670001 59.772999,4.447 V 2.678 L 61.82,0.61000001 C 61.934772,0.49796429 61.961395,0.36788762 61.89986,0.21976988 61.838329,0.07165214 61.727375,-0.00127115 61.567001,9.9998713e-4 61.468174,0.00109048 61.383507,0.03575715 61.313,0.10499999 L 59.639999,1.773 l -0.909,-0.85000002 0.334,-0.33399999 c 0.114772,-0.1120357 0.141391,-0.2421124 0.07986,-0.3902302 -0.06153,-0.14811775 -0.172485,-0.22104103 -0.332859,-0.21876983 -0.09867,-1.8668e-4 -0.183334,0.03414665 -0.254001,0.103 l -0.34,0.35000001 -0.067,-0.06 V 17.028999 H 58.358 l -0.073,0.072 h 1.004002 l 0.078,-0.072 h 0.411999 v -0.423 l 2.743,-2.779 V 12.81 l -2.743,2.78 v -1.767999 l 2.743,-2.779001 v -1.017 l -2.743,2.779 v -1.767 l 2.743,-2.7799996 V 7.243 l -2.743,2.779 V 8.2480001 l 2.743,-2.7799997 V 4.447 l -2.743,2.7789998 V 5.4580002 l 2.743,-2.78 v -1.01 h -0.006 l 4e-6,-0.001 z m -5.574001,0.034 -14.231999,14.4160009 v -1.773 L 56.299999,0.611 c 0.06893,-0.0700527 0.103398,-0.15421933 0.103398,-0.2525 0,-0.0982807 -0.03447,-0.18244734 -0.103398,-0.25249999 C 56.2295,0.03721507 56.144997,0.0028226 56.046497,0.0028226 c -0.0985,0 -0.182998,0.03439247 -0.253498,0.10317741 L 42.709999,13.338 V 11.56 L 53.547001,0.611 c 0.06893,-0.0700527 0.103397,-0.15421933 0.103397,-0.2525 0,-0.0982807 -0.03447,-0.18244734 -0.103397,-0.25249999 -0.0705,-0.06878673 -0.154999,-0.10318009 -0.253498,-0.10318009 -0.0985,0 -0.183003,0.03439336 -0.253502,0.10318009 L 42.709999,10.56 V 8.7919998 l 8.083,-8.16399978 c 0.06768,-0.0707532 0.101528,-0.15508655 0.101528,-0.25299999 0,-0.0979134 -0.03384,-0.18224677 -0.101528,-0.25299999 -0.0705,-0.0687867 -0.155002,-0.10318006 -0.253502,-0.10318006 -0.09849,0 -0.182994,0.03439336 -0.253498,0.10318006 l -7.576,7.65900006 V 6.0079999 L 48.034,0.634 C 48.07584,0.5915974 48.10534,0.5418724 48.1225,0.48482499 48.13966,0.42777759 48.14248,0.37002924 48.131,0.31157997 48.11949,0.25313067 48.09498,0.20076472 48.05748,0.15448204 48.01998,0.10819934 47.97383,0.07337202 47.919033,0.05000001 47.772422,-0.01136835 47.643421,0.01463164 47.532032,0.12800002 L 42.710033,5.0019999 V 3.2290001 l 2.564999,-2.59000016 c 0.06926,-0.0701124 0.103893,-0.15444574 0.103893,-0.25299996 0,-0.0985542 -0.03463,-0.18288756 -0.103893,-0.25300002 -0.07056,-0.06911251 -0.155228,-0.10366875 -0.254002,-0.10366875 -0.09877,0 -0.183437,0.03455624 -0.253998,0.10366875 L 42.710033,2.2119999 V 2.0229998 l -0.813,-0.761 0.618,-0.62299998 c 0.06926,-0.0701124 0.103894,-0.15444577 0.103894,-0.25299999 0,-0.0985542 -0.03463,-0.18288753 -0.103894,-0.25299999 -0.0705,-0.0687867 -0.155002,-0.10318005 -0.253502,-0.10318005 -0.0985,0 -0.182998,0.03439335 -0.253498,0.10318005 L 41.377998,0.77299988 41.083,0.49499989 V 17.1 h 1.672001 L 56.980999,2.7290001 V 1.7119999 l -0.04,-0.011 z M 39.900002,2.223 37.157001,5.0019999 V 3.2290001 l 2.605,-2.62300009 c 0.06926,-0.0701124 0.103893,-0.15444577 0.10389,-0.25299999 3e-6,-0.0985542 -0.03463,-0.18288753 -0.10389,-0.253 -0.07056,-0.06911157 -0.155228,-0.10366736 -0.253998,-0.10366736 -0.09877,0 -0.183437,0.03455579 -0.254001,0.10366736 L 37.158001,2.223 V 1.9230001 l -0.751999,-0.706 0.596001,-0.6 c 0.04311,-0.0417864 0.07365,-0.09132 0.09162,-0.14860087 0.01798,-0.0572809 0.02122,-0.11538291 0.0097,-0.17430592 -0.0115,-0.0589231 -0.03635,-0.11154243 -0.07455,-0.15785812 -0.0382,-0.04631568 -0.08512,-0.08072737 -0.140782,-0.10323508 -0.14661,-0.06136944 -0.275608,-0.03536944 -0.387001,0.07800001 L 35.887991,0.72800016 35.535986,0.40000001 V 17.030001 h 0.758 l -0.072,0.072 h 1.002998 l 2.682,-2.707 v -1.017 l -2.743,2.78 v -1.78 l 2.743,-2.778 v -1.017 l -2.743,2.779 v -1.767999 l 2.743,-2.7780001 V 7.7969999 L 37.163984,10.577 V 8.8079996 l 2.743,-2.7790003 V 5.0019999 L 37.163987,7.7799997 V 6.013 l 2.743,-2.7779999 V 2.223 h -0.007 z M 34.326,2.256 19.672001,17.101 h 1.003 L 34.355003,3.2849998 V 2.2679999 l -0.028,-0.012 -10e-4,2e-7 z m -16.69,16.896 -1.856,1.878001 c -0.06926,0.07011 -0.103892,0.154445 -0.103893,0.253 10e-7,0.09856 0.03463,0.182888 0.103893,0.253 0.0705,0.06879 0.155001,0.103178 0.253501,0.103178 0.0985,0 0.182998,-0.03439 0.2535,-0.103178 L 18.639,19.152 Z m 16.723001,-14.1 -11.933,12.048 h 0.986 l 10.92,-11.0319992 V 5.052 h 0.028 z M 20.395,19.152 15.780001,23.815001 c -0.04182,0.04247 -0.07127,0.09226 -0.08835,0.149358 -0.01709,0.0571 -0.01983,0.114882 -0.0082,0.173342 0.01161,0.05846 0.03622,0.110807 0.07384,0.157045 0.03761,0.04623 0.08385,0.08099 0.138729,0.104254 0.148001,0.06111 0.278335,0.03477 0.391,-0.079 l 5.111999,-5.168 h -1.004 z m 13.937001,-11.316 -9.147,9.265 h 1.014 l 8.161,-8.2480003 V 7.836 Z M 23.15,19.152 15.78,26.599001 c -0.06926,0.07011 -0.103892,0.154447 -0.103893,0.253 10e-7,0.09855 0.03463,0.182888 0.103893,0.253 0.07056,0.06911 0.155228,0.103667 0.253999,0.103667 0.09877,0 0.183439,-0.03456 0.254001,-0.103667 L 24.159,19.152 Z m 11.205,-8.526 -6.41,6.475 h 1.002001 L 34.355,11.638 Z m -8.446,8.526 -9.625999,9.748 2.068001,-1.111 8.567001,-8.637 H 25.91 Z m 8.446,-5.741 -3.657,3.69 h 1.009001 L 34.355,14.45 v -1.04 z m -5.686001,5.740001 -6.690001,6.781 2.069,-1.072 5.63,-5.708001 h -1.010001 l 0.001,-9.99e-4 z m 5.686001,-2.955999 -0.91,0.906 h 0.897999 v -0.906 h 0.011 z m -2.927001,2.957 -3.795999,3.835001 2.068001,-1.073 2.730999,-2.778999 -1.003001,0.017 z m 2.754,0 -2.469999,2.523001 0.651998,0.361 1.990002,-2.028 v -0.856001 z m 5.719002,-2.989999 -0.924999,0.938999 h 0.924999 v -0.940001 0.001 z m -2.959999,2.989999 h -1.404999 v 4.595997 l 2.168999,1.206 2.201999,-2.223 v -0.995001 l -2.736999,2.778999 v -1.784 l 2.736999,-2.778999 v -0.799999 h -0.201 l -2.535999,2.562 v -1.773998 l 0.779999,-0.789999 h -1.008999 z m -2.586998,2.617001 -0.863999,0.868 0.653,0.360001 0.212002,-0.216 V 21.77 l -10e-4,-9.97e-4 z m 5.575001,2.752001 -1.07,1.111 0.646,0.361 0.424,-0.433001 v -1.039999 z m 3.138,3.417999 8.667999,-8.786999 h -1.008998 l -8.049,8.136 v -1.773001 l 6.299,-6.362999 h -1.002999 l -5.296001,5.346001 v -1.767 l 3.540001,-3.58 h -1.004002 l -2.529999,2.563 v -1.774004 l 0.797001,-0.789999 h -2.396999 v 7.704 l 1.956001,1.084 h 0.028 l -4e-6,10e-4 z M 53.797001,17.1 l 3.167,-3.206999 V 12.876 L 52.761002,17.122 53.798,17.1 Z m 3.195,-1.462 L 55.52,17.1 h 1.004002 l 0.439999,-0.444999 V 15.64 h 0.028 z m -3.478001,3.513001 -9.348999,9.415001 0.619999,0.344 h 0.033 l 9.677002,-9.76 h -0.980999 z m 2.758999,0 -10.329998,10.403999 0.653,0.361 10.368,-10.465 v -0.299999 z m 6.27,-3.546 -1.481998,1.495001 H 62.07 l 0.473999,-0.478 v -1.017001 z m -5.574001,5.602 -9.242001,9.36 0.647,0.360001 8.59,-8.697001 v -1.023 z m 0,2.384001 -7.803001,7.781 0.657001,0.361 7.146,-7.102001 V 23.591 Z m 0,2.735 -6.042,5.997 0.652001,0.36 5.384998,-5.346 v -1.011 z m 0,2.729 -4.279999,4.246001 0.188999,0.104999 0.463002,0.256001 3.627998,-3.601 z m 0,2.712 -2.529999,2.506001 0.652001,0.361 1.873001,-1.845002 v -1.021999 h 0.005 z m 0,2.717999 -0.769001,0.765998 0.652,0.362 0.117001,-0.117001 v -1.011001 z m 5.575001,-0.028 -1.360001,1.34 h 1.020001 l 0.34,-0.334 z M 63.719997,35.785 H 65.32 V 35.485001 L 81.675003,19.312 c 0.132866,-0.132133 0.151527,-0.278801 0.056,-0.44 v 0.278999 h -0.903 L 65.286003,34.458 V 32.723999 L 79.044006,19.152 H 78.040001 L 65.292,31.718 V 30.012001 L 76.267998,19.152 h -1.015 l -9.955001,9.837 V 27.26 l 8.194,-8.108 h -1.026001 l -7.174004,7.102002 v -1.722001 l 5.43,-5.380001 h -1.014999 l -4.415001,4.374001 v -1.723 L 67.967995,19.152 h -1.015 l -1.671997,1.667 V 19.152 H 63.681 v 16.634003 h 0.039 l -4e-6,-10e-4 z m -1.845001,2.062 -0.519001,0.511002 0.591,0.423 0.557998,-0.556 V 37.847004 H 61.874992 Z M 81.123001,17.1 81.68,16.544001 c 0.06903,-0.07118 0.103546,-0.156346 0.103546,-0.255499 0,-0.09915 -0.03451,-0.184321 -0.103546,-0.255501 -0.0705,-0.06879 -0.154991,-0.103179 -0.253486,-0.103179 -0.0985,0 -0.183014,0.03439 -0.253517,0.103179 l -1.07,1.066999 h 1.019996 z m -2.787002,0 L 81.68,13.81 c 0.111428,-0.113388 0.136856,-0.243574 0.07629,-0.390558 C 81.69572,13.272458 81.585956,13.197977 81.426998,13.196 81.326938,13.195795 81.242275,13.23179 81.173,13.304 L 77.326999,17.1 h 1.009003 -7e-6 z m -2.787003,0 6.130997,-6.041 c 0.06926,-0.07011 0.103889,-0.154446 0.103889,-0.252999 0,-0.09856 -0.03463,-0.182888 -0.103889,-0.253 -0.0705,-0.06879 -0.155007,-0.103184 -0.253502,-0.103183 -0.0985,-1e-6 -0.182999,0.03439 -0.253502,0.103183 L 74.544991,17.1 h 1.003997 z m -2.787003,0 8.913002,-8.7639996 c 0.06927,-0.070112 0.103898,-0.1544456 0.103898,-0.2529993 0,-0.098555 -0.03463,-0.182888 -0.103898,-0.2530007 -0.0705,-0.068789 -0.155006,-0.1031828 -0.253501,-0.1031833 -0.0985,5e-7 -0.182999,0.034395 -0.253502,0.1031833 L 71.779999,17.1 h 0.982002 z m -2.760002,0 L 81.675003,5.5580001 C 81.74427,5.4878874 81.7789,5.403554 81.7789,5.3049998 81.7789,5.2064458 81.74427,5.1221128 81.675003,5.052 81.603383,4.985983 81.51889,4.952975 81.421501,4.952975 c -0.09739,0 -0.181892,0.033008 -0.253502,0.099025 L 69.019997,17.1 h 0.981002 z m -2.787002,0 14.459999,-14.2889992 c 0.06927,-0.070112 0.103897,-0.1544456 0.103897,-0.253 0,-0.098554 -0.03463,-0.1828876 -0.103897,-0.253 -0.0705,-0.068787 -0.154999,-0.1031802 -0.253494,-0.1031802 -0.0985,0 -0.183007,0.034393 -0.25351,0.1031802 L 66.262001,17.101 h 0.953003 z m 13.890999,4.446001 -14.370003,14.25 h 1.019996 l 13.93602,-13.736002 c 0.04179,-0.04254 0.07119,-0.09239 0.08821,-0.149545 0.01701,-0.05715 0.01966,-0.114966 0.0079,-0.173435 -0.01172,-0.05847 -0.03644,-0.110802 -0.07415,-0.15699 -0.03772,-0.04619 -0.08405,-0.08087 -0.139007,-0.104029 -0.147362,-0.06084 -0.277367,-0.03484 -0.39,0.078 l -0.079,-0.006 -1.5e-5,-0.002 z m -16.444001,16.3 h -0.964 v 16.618 h 1.840015 L 81.703003,38.524002 c 0.06921,-0.06994 0.103805,-0.154106 0.103805,-0.252499 0,-0.09839 -0.0346,-0.18256 -0.103805,-0.252502 -0.113068,-0.113331 -0.243401,-0.139 -0.390999,-0.077 -0.04412,0.01789 -0.08312,0.04356 -0.116997,0.077 L 65.286003,53.715 V 51.974998 L 79.601006,37.848 H 78.598007 L 65.292,50.970001 V 49.23 L 76.82,37.848 H 75.809998 L 65.292999,48.223999 V 46.483997 L 74.032997,37.848 h -1.008003 l -7.732002,7.630001 V 43.733002 L 71.251991,37.848 h -1.014999 l -4.938004,4.880001 V 40.987999 L 68.47599,37.848 h -1.026001 l -2.156997,2.129001 v -1.750999 l 0.385002,-0.377999 h -1.015 l -10e-4,-0.002 z m -2.139999,2.118 -0.268002,0.266998 v 1 l 0.268002,-0.259998 z m 0,2.779998 -0.268002,0.259999 v 1.006 L 62.521988,43.75 v -1.028999 0.022 z m 0,2.744999 -1.472,1.450001 V 47.945 l 1.472,-1.450001 V 45.466 45.489 Z m 0,2.75 -1.472,1.451001 v 1.006 l 1.472,-1.450001 v -1.028999 0.023 -10e-4 z m 0,2.745999 -0.613998,0.599998 c 0.143001,0.216999 0.219001,0.470001 0.217998,0.729 v 0.066 l 0.396,-0.389 v -1.028 0.022 z M 59.911987,53.558998 59.761986,53.709 v 0.805 h 0.201 l 0.875,-0.861 h -0.078 c -0.289959,0.0041 -0.575962,-0.02758 -0.858002,-0.095 h 0.01 l 4e-6,9.99e-4 z m 2.610001,0.172001 -0.798,0.783001 h 0.798 v -0.806 0.023 z m -2.759998,3.723 0.902999,-0.889 h -0.908 v 0.889999 h 0.005 z m 2.665001,-0.889 L 59.76199,59.194 v 1.006001 l 2.759998,-2.717999 v -0.938999 l -0.095,0.022 4e-6,-3e-6 z M 81.68,35.797001 c 0.110581,-0.113697 0.135247,-0.243698 0.074,-0.39 -0.02341,-0.05517 -0.05846,-0.101539 -0.105141,-0.139106 -0.04669,-0.03757 -0.09949,-0.06188 -0.158378,-0.07293 -0.0589,-0.01106 -0.116913,-0.0075 -0.17405,0.01053 -0.05714,0.01808 -0.106613,0.04858 -0.14843,0.09151 l -0.501999,0.5 h 1.014 z m -2.787002,0 L 81.68,33.056999 c 0.09635,-0.113991 0.114708,-0.239399 0.05508,-0.376224 -0.05963,-0.13683 -0.163994,-0.208752 -0.313088,-0.215775 -0.09327,-0.0053 -0.176269,0.02138 -0.249,0.08 l -3.289002,3.251999 h 1.010002 -9.99e-4 z m -2.787003,0 5.574997,-5.49 c 0.114067,-0.112657 0.140335,-0.243008 0.0788,-0.391052 -0.06155,-0.148043 -0.172478,-0.221359 -0.332795,-0.219948 -0.09896,-2.42e-4 -0.183632,0.03442 -0.253997,0.104 l -6.075997,5.997 h 1.010002 -0.001 z m -2.787002,0 8.361,-8.242001 c 0.113029,-0.112526 0.139,-0.24245 0.0779,-0.389772 -0.0611,-0.147322 -0.171402,-0.22073 -0.330895,-0.220228 -0.09896,-2.43e-4 -0.183624,0.03442 -0.253997,0.104 l -8.862999,8.748001 h 1.009002 -7e-6 z m -2.787003,0 L 81.68,24.809999 c 0.04182,-0.04247 0.07127,-0.09226 0.08835,-0.14936 0.01708,-0.0571 0.01982,-0.114884 0.0082,-0.173342 -0.01161,-0.05846 -0.03622,-0.110809 -0.07384,-0.157045 -0.03761,-0.04624 -0.08385,-0.08099 -0.138718,-0.104252 -0.147369,-0.06084 -0.277367,-0.03484 -0.389999,0.078 L 69.527,35.797001 h 1.003998 z m 10.618012,5.002998 -13.862,13.693001 h 1.019997 L 81.685997,41.305 c 0.06986,-0.07 0.104744,-0.154457 0.104645,-0.253357 -9.9e-5,-0.0989 -0.03515,-0.183281 -0.105149,-0.253147 -0.07001,-0.06987 -0.154464,-0.104748 -0.253364,-0.104652 -0.0989,9.9e-5 -0.183273,0.03515 -0.253136,0.105156 h -0.028 z m -15.930001,15.744 h -1.516998 v 16.634002 h 1.410004 c 0.014,0.072 0.051,0.136002 0.106002,0.183999 0.07057,0.06911 0.155228,0.103668 0.253998,0.103668 0.09877,0 0.183441,-0.03455 0.254006,-0.103668 l 15.94799,-15.562001 c 0.117912,-0.110744 0.146492,-0.241073 0.08574,-0.390995 -0.06075,-0.149921 -0.171997,-0.223591 -0.33374,-0.221004 -0.09952,-2.71e-4 -0.184197,0.03506 -0.253998,0.105999 L 65.286003,72.806 V 71.138 L 80.153,56.543999 H 79.154999 L 65.292,70.115997 V 68.447998 L 77.360001,56.543999 H 76.368004 L 65.292,67.419998 v -1.709999 l 9.292,-9.165001 H 73.581001 L 65.292,64.703995 v -1.740002 l 6.504997,-6.418999 h -1.002998 l -5.485001,5.412999 v -1.740002 l 3.718002,-3.673 h -1.019996 l -2.697998,2.667999 v -1.744999 l 0.935997,-0.923 H 65.220001 Z M 62.527,59.201 59.767002,61.924 V 62.93 L 62.527,60.206001 v -1.006 z m 0,2.778 -2.759998,2.717999 v 1.005996 L 62.527,62.984997 v -1.033001 0.027 z m 0,2.745998 -2.77,2.690003 v 1.005997 l 2.758999,-2.718003 v -1.005996 l 0.011,0.028 z m 0,2.739998 -2.759998,2.723 v 1.005997 L 62.527,68.47599 v -1.039001 0.028 z m 0,2.718003 -2.754001,2.711998 V 73.362 c 0.07056,0.06911 0.155227,0.103668 0.254001,0.103668 0.09877,0 0.183438,-0.03455 0.253998,-0.103668 l 2.23,-2.224 v -0.983001 l 0.016,0.028 z m 0,2.678001 -0.033,0.034 c -0.07003,0.06863 -0.105049,0.151954 -0.105045,0.25 -4e-6,0.09805 0.03501,0.181388 0.105045,0.25 0.07364,0.06215 0.158524,0.09003 0.254662,0.08362 0.09614,-0.0064 0.176586,-0.04527 0.241337,-0.116622 l 0.200001,-0.195 h -0.668 v -0.345001 l 0.005,0.04 v -0.001 z m 19.098,-18.34 c -0.126671,-0.07932 -0.253334,-0.07932 -0.379997,0 z m -2.168999,0 2.230004,-2.189999 c 0.114601,-0.111385 0.142036,-0.241195 0.08231,-0.389427 -0.05973,-0.148228 -0.169495,-0.222752 -0.329308,-0.223572 -0.09907,-0.0012 -0.184074,0.03281 -0.254997,0.102002 l -2.748001,2.701 h 1.019996 v -4e-6 z m -2.787002,0 5.016998,-4.939999 c 0.06959,-0.07017 0.104385,-0.15467 0.104393,-0.253498 -8e-6,-0.09883 -0.03481,-0.183327 -0.104393,-0.253502 -0.07113,-0.06724 -0.155632,-0.100864 -0.25351,-0.100864 -0.09788,0 -0.182373,0.03362 -0.253494,0.100864 l -5.534996,5.420002 1.025002,0.027 z m -2.787003,0 7.804001,-7.692001 c 0.113213,-0.11269 0.139114,-0.242772 0.07771,-0.39024 -0.0614,-0.147469 -0.171974,-0.220722 -0.331711,-0.219761 -0.09857,3e-5 -0.182907,0.0347 -0.252998,0.104 l -8.322998,8.169998 1.026001,0.028 -8e-6,4e-6 z m -2.787002,0 10.590995,-10.437 c 0.04181,-0.04248 0.07126,-0.09226 0.08836,-0.149365 0.01708,-0.0571 0.01982,-0.114879 0.0082,-0.17334 -0.01162,-0.05846 -0.03623,-0.110809 -0.07385,-0.157043 -0.03761,-0.04624 -0.08385,-0.08099 -0.138718,-0.104252 -0.147835,-0.06173 -0.278168,-0.03573 -0.390999,0.078 l -11.11,10.915001 1.026001,0.028 z M 81.172997,60.022999 67.93,72.861 c -0.06768,0.07075 -0.101516,0.15509 -0.101516,0.252998 0,0.09791 0.03384,0.182244 0.101516,0.252999 0.07141,0.06941 0.156914,0.104118 0.256501,0.104118 0.09959,0 0.185089,-0.03471 0.2565,-0.104118 L 81.675003,60.580002 c 0.0693,-0.07107 0.103951,-0.156235 0.103951,-0.255497 0,-0.09926 -0.03465,-0.184433 -0.103951,-0.255505 -0.0705,-0.06878 -0.154999,-0.103176 -0.253502,-0.103176 -0.09849,0 -0.182998,0.03439 -0.253502,0.103176 l 0.005,-0.045 v -10e-4 z m 0,2.778999 L 70.653999,72.862 c -0.114067,0.112251 -0.140258,0.242218 -0.07857,0.389884 0.06169,0.147667 0.172546,0.220368 0.332565,0.218117 0.09866,1.91e-4 0.183327,-0.03414 0.253998,-0.102997 L 81.668991,63.307003 c 0.07075,-0.06842 0.107193,-0.15184 0.109337,-0.25024 0.0021,-0.0984 -0.03063,-0.183323 -0.09834,-0.254761 -0.06841,-0.07168 -0.152153,-0.108597 -0.251221,-0.110745 -0.09907,-0.0022 -0.184326,0.0311 -0.255783,0.09974 v 0.01 l 8e-6,9.99e-4 z m 0,2.744999 L 73.375,72.861 c -0.06899,0.07022 -0.103485,0.154556 -0.103485,0.252998 0,0.09844 0.03449,0.18277 0.103485,0.252999 0.07102,0.0675 0.155518,0.101242 0.253494,0.101242 0.09798,0 0.182488,-0.03374 0.25351,-0.101242 l 7.804001,-7.32 c 0.116706,-0.108772 0.146911,-0.237808 0.09063,-0.387093 -0.05628,-0.149284 -0.164154,-0.226249 -0.323631,-0.230903 -0.09924,-0.0036 -0.185242,0.02841 -0.258003,0.096 l -0.022,0.022 v -8e-6 z m 0,2.746002 -5.071999,4.563004 c -0.06702,0.05755 -0.108017,0.12986 -0.122971,0.216926 -0.01495,0.08706 -4.27e-4,0.1689 0.04356,0.245514 0.04398,0.07662 0.107345,0.130417 0.190078,0.1614 0.08273,0.03098 0.16584,0.03204 0.249337,0.0032 0.04636,-0.01541 0.08802,-0.03908 0.125,-0.071 l 5.078002,-4.573998 c 0.07003,-0.06862 0.10505,-0.151955 0.10505,-0.25 0,-0.09804 -0.03502,-0.181381 -0.10505,-0.25 -0.06896,-0.07014 -0.152633,-0.105217 -0.251007,-0.105217 -0.09837,0 -0.182029,0.03507 -0.250991,0.105217 l 0.011,-0.045 -7e-6,-8e-6 z m 0,2.729004 -2.358002,1.828003 c -0.07091,0.06239 -0.110604,0.140602 -0.119087,0.234665 -0.0085,0.09406 0.01659,0.178116 0.07519,0.252174 0.05861,0.07406 0.134659,0.117768 0.228149,0.131127 0.09349,0.01336 0.178742,-0.0073 0.255745,-0.06197 l 2.359001,-1.822998 c 0.07709,-0.06088 0.121483,-0.140091 0.133187,-0.237618 0.0117,-0.09753 -0.0127,-0.18499 -0.07319,-0.262382 -0.06069,-0.07671 -0.139519,-0.121559 -0.236465,-0.134552 -0.09695,-0.01299 -0.184792,0.0095 -0.263535,0.06755 v 0.006 h -9.99e-4 z M 56.964001,4.4959998 44.488998,17.101 h 1.002999 L 56.964001,5.513 Z m 0,2.7789998 -9.716,9.8260004 h 1.002998 l 8.713002,-8.8030006 z m 0,2.7790004 -6.962002,7.046 h 1.008999 l 5.952999,-6.019 V 10.053001 Z M 33.736,0.106 16.913,17.1 h 1.003 L 34.243,0.611 c 0.06893,-0.0700524 0.103401,-0.15421909 0.103401,-0.25250003 0,-0.0982809 -0.03447,-0.18244753 -0.103401,-0.25249996 -0.0705,-0.06878582 -0.155003,-0.10317873 -0.253502,-0.10317873 -0.0985,0 -0.182999,0.03439291 -0.253498,0.10317872 z m -2.787001,0 L 15.78,15.456 c -0.06899,0.07022 -0.10349,0.154556 -0.10349,0.253001 0,0.09844 0.0345,0.182775 0.10349,0.252999 0.0705,0.06879 0.155001,0.10318 0.253501,0.10318 0.0985,0 0.182998,-0.03439 0.2535,-0.10318 L 31.49,0.61199999 c 0.06768,-0.0707532 0.101524,-0.15508655 0.101524,-0.25300002 0,-0.0979134 -0.03384,-0.18224673 -0.101524,-0.25299996 -0.0705,-0.06878583 -0.155005,-0.10317874 -0.253502,-0.10317874 -0.0985,0 -0.182999,0.03439291 -0.253498,0.10317874 H 30.95 Z m -2.76,0 L 15.781,12.672 c -0.06867,0.07016 -0.102999,0.154327 -0.102999,0.2525 0,0.09817 0.03433,0.182337 0.102999,0.2525 0.0705,0.06879 0.155002,0.103179 0.2535,0.103179 0.0985,0 0.182999,-0.03439 0.2535,-0.103179 L 28.73,0.611 C 28.844961,0.49879441 28.871523,0.36855972 28.809685,0.22029591 28.747847,0.07203212 28.63662,-7.3318509e-4 28.476,0.00199997 28.377563,0.0023642 28.29323,0.03703086 28.223,0.10599998 h -0.034 v 2e-8 z m -2.753,0 -9.683,9.7810001 c -0.04182,0.042473 -0.07127,0.092259 -0.08835,0.1493599 -0.01709,0.0571 -0.01982,0.11488 -0.0082,0.173341 0.01161,0.05846 0.03622,0.110807 0.07384,0.157044 0.03761,0.04623 0.08385,0.08099 0.138729,0.104255 0.147695,0.06102 0.278028,0.03502 0.391,-0.078 l 9.709999,-9.78299999 c 0.06893,-0.0700524 0.103401,-0.15421909 0.103401,-0.25249996 0,-0.0982809 -0.03447,-0.1824476 -0.103401,-0.25250003 -0.07044,-0.06846128 -0.154773,-0.10269192 -0.253,-0.10269192 -0.09823,0 -0.18256,0.03423064 -0.253,0.10269192 h -0.028 V 0.106 Z m -2.788,0 -6.923001,6.9970002 c -0.06893,0.070053 -0.1034,0.1542191 -0.1034,0.2525 0,0.098281 0.03447,0.1824475 0.1034,0.2525001 0.0705,0.068786 0.155002,0.103179 0.253501,0.103179 0.0985,0 0.182998,-0.034393 0.253499,-0.103179 l 6.98,-6.99700024 c 0.06975,-0.0697158 0.104628,-0.15388247 0.104628,-0.2525 0,-0.0986175 -0.03488,-0.18278417 -0.104628,-0.25249999 -0.07056,-0.06911204 -0.155228,-0.10366804 -0.254,-0.10366804 -0.09877,0 -0.183437,0.034556 -0.253999,0.10366804 z m -2.787001,0 -4.163999,4.2069997 c -0.06929,0.071072 -0.10394,0.1562391 -0.10394,0.2554999 0,0.099261 0.03465,0.1844282 0.10394,0.2555003 0.07056,0.069111 0.155228,0.1036672 0.253999,0.1036672 0.09877,0 0.183438,-0.034556 0.254,-0.1036672 l 4.17,-4.2069998 c 0.06926,-0.0701125 0.103891,-0.15444579 0.103893,-0.25299999 -2e-6,-0.0985542 -0.03463,-0.18288754 -0.103893,-0.25299999 -0.07056,-0.06911202 -0.155229,-0.10366802 -0.254,-0.10366802 -0.09877,0 -0.183437,0.034556 -0.253999,0.10366802 l -0.007,-0.005 h 9.97e-4 z m -2.753,0 -1.41,1.422 c -0.06926,0.070112 -0.103892,0.1544456 -0.103892,0.2529999 0,0.098554 0.03463,0.1828876 0.103892,0.253 0.07044,0.068462 0.154773,0.1026933 0.253,0.1026931 0.09823,2e-7 0.18256,-0.034231 0.253001,-0.1026931 l 1.409999,-1.42299996 c 0.04287,-0.0417981 0.07323,-0.0912757 0.09107,-0.14843291 0.01784,-0.0571573 0.02101,-0.11511743 0.0095,-0.17388043 -0.01149,-0.058763 -0.03626,-0.11125885 -0.07432,-0.15748758 C 17.602215,0.08497028 17.55546,0.05057061 17.5,0.028 17.353392,-0.03336887 17.224392,-0.00736888 17.113001,0.10600001 h -0.005 z"
       style="fill:#9d9897;fill-opacity:1;fill-rule:evenodd;stroke:none"
       transform="matrix(1.8712121,0,0,1.8721664,38.000007,406.8092)"
       clip-path="url(#clipPath6)" /><path
       id="path7"
       d="m 6.6900001,47.426998 h 0.21 c -0.055044,0.120392 -0.085784,0.2467 -0.092221,0.378925 -0.00644,0.132222 0.011888,0.260918 0.054977,0.38609 0.043088,0.125171 0.1078624,0.237877 0.194323,0.338119 0.086461,0.100243 0.1884346,0.180867 0.3059211,0.241867 V 75.382004 H 4.0690005 V 48.737999 c 0.1615253,-0.08964 0.2891899,-0.214035 0.3829937,-0.37318 0.093805,-0.159146 0.1408067,-0.331086 0.1410065,-0.51582 2.995e-4,-0.147865 -0.031367,-0.288532 -0.095,-0.422001 z M 2.23,98.489998 H 25.351999 V 95.761002 H 2.23 v 2.729003 z M 57.354,80.277 V 78.816002 H 2.23 V 80.277 Z m -47.7599982,5.680001 -0.257,-2.067002 H 2.23 v 2.061997 l 7.3630004,0.005 0.001,8e-6 z M 11.354002,81.671997 H 2.23 v 1.894997 h 7.2459998 l 0.067,0.056 v 0.039 l 0.2849999,2.223 H 11.6 l -0.351,-4.285004 0.106001,0.072 z m 2.264,0 H 11.690001 L 12.041,85.957001 h 1.227001 L 13.619,81.671997 Z M 9.7160015,88.43 V 86.290001 H 2.23 V 88.43 h 7.4859996 z m 0,2.39 V 88.764 H 2.23 v 2.056 h 7.4859996 z m 0,2.222999 V 91.160004 H 2.23 v 1.884002 h 7.4859996 l 1.9e-6,-10e-4 z m 0,2.39 v -2.056 H 2.23 v 2.056 H 9.7159996 Z M 46.902,81.68 l 0.352002,4.284996 h 1.226001 l 0.351002,-4.285003 H 46.902004 Z M 57.343002,81.346001 V 80.618004 H 2.23 v 0.727997 h 55.112999 z m 0,2.556999 h -6.243004 l -0.250999,2.061996 h 6.472 v -2.068 l 0.022,0.006 3e-6,8e-6 z m -6.366001,-0.334 h 6.366001 v -1.889999 h -8.209999 l -0.358001,4.286003 h 1.734001 l 0.278999,-2.223 v -0.067 h 0.028 l 0.066,-0.061 h 0.028 l 0.067,-0.044 -4e-6,-10e-4 z m -17.799,3.680001 c 0.233002,0.217002 0.446,0.455001 0.636002,0.710998 l 2.903999,-1.967003 h 8.105 L 44.567001,83.924995 H 35.715 l -2.559002,3.335 0.022,-0.011 3e-6,8e-6 z M 32.064003,86.487 c 0.291,0.146003 0.568001,0.320999 0.825001,0.523002 l 2.590999,-3.396004 h 0.04 l 0.055,-0.028 H 44.712 l 0.066,0.061 h 0.028 v 0.04 l 0.279998,2.222001 h 1.75 L 46.483997,81.623995 H 34.003998 l -1.952,4.807999 0.011,0.055 9.99e-4,8e-6 z m -1.115,-0.389 c 0.286,0.055 0.566,0.139 0.836001,0.25 l 1.900001,-4.668 h -2.062 l -0.674,4.418 z m -1.282999,-0.055 c 0.152666,-0.0085 0.305334,-0.0085 0.458,0 h 0.49 l 0.67,-4.362999 h -2.297001 l 0.668,4.362999 h 0.011 z m -1.17,0.293999 c 0.271,-0.111 0.553,-0.195 0.842001,-0.25 L 28.663006,81.68 h -2.062 l 1.895,4.656998 z m -1.181999,0.672997 c 0.266001,-0.216004 0.552999,-0.402001 0.858999,-0.556 L 26.199005,81.673997 H 13.936 l -0.351,4.285004 h 1.728 l 0.278,-2.223 v -0.06 l 0.073,-0.062 h 8.908001 l 0.055,0.028 h 0.034 l 2.653,3.368004 4e-6,-1.5e-5 z m -0.892,0.928001 c 0.191,-0.254997 0.403999,-0.492996 0.635999,-0.711998 l -2.576,-3.334 h -8.583999 l -0.250001,2.061997 h 7.843001 l 2.926001,1.956001 z m -0.780001,1.484001 c 0.136,-0.422996 0.323,-0.828003 0.556999,-1.206001 L 23.323004,86.293 h -7.832 v 2.116997 h 7.48 l 2.632,0.977997 0.039,0.034 v 8e-6 z m -0.296,1.400002 c 0.026,-0.376 0.092,-0.749001 0.195,-1.111 l -2.619999,-0.973 h -7.389999 v 2.056 z m 0,2.222999 v -1.884994 h -9.793999 v 1.884002 h 9.793999 z m 0,2.39 v -2.056 h -9.793999 v 2.056 z m 9.555001,3.063003 H 57.349007 V 95.767999 H 34.873001 v 2.730003 h 0.028 z m 15.829998,-5.120003 v 2.057 h 6.605999 v -2.056 h -6.605 z m 0,-2.222 v 1.884003 h 6.618 v -1.884003 h -6.617001 z m 0,-2.389999 v 2.056 h 6.618 v -2.056 h -6.617001 z m 0,-2.473 v 2.14 h 6.618 v -2.14 h -6.617001 z m -5.757,2.14 v -2.14 h -8.139 l -2.832001,1.933998 c 0.233002,0.376 0.419998,0.779999 0.557999,1.199997 l 2.630001,-0.983001 h 7.755001 l 0.028,-0.011 v 8e-6 z m 0,2.389999 V 88.766 H 37.279999 L 34.66,89.743996 c 0.097,0.352996 0.160999,0.713997 0.189998,1.078003 H 44.973 l 10e-4,9.99e-4 z m 0,2.222 V 91.160005 H 34.873001 v 1.884002 H 44.973 l 10e-4,9.92e-4 z m 0,2.39 v -2.056 H 34.873001 v 2.056 H 44.973 44.974 Z M 2.1960001,98.830003 h -0.268 V 78.522004 h 0.291 c 0.062,-0.321998 0.2460001,-1.111 0.6299999,-1.111 0.038,-0.279999 0.1099999,-0.555 0.2179999,-0.817001 l 0.24,-0.211998 h 0.066 V 75.550004 H 3.6799998 V 48.855001 H 2.8159997 c -0.187009,8.65e-4 -0.367079,-0.03405 -0.5402095,-0.10476 -0.1731307,-0.0707 -0.326166,-0.171825 -0.459106,-0.303352 C 1.6837442,48.315357 1.5810014,48.16341 1.5084557,47.991043 1.4359101,47.818676 1.3990742,47.638992 1.397948,47.451988 c -0.00113,-0.187008 0.033543,-0.36713 0.1040075,-0.540359 0.070464,-0.173229 0.17137,-0.326401 0.3027164,-0.459523 0.1313463,-0.133121 0.2831527,-0.236072 0.4554189,-0.30886 0.1722663,-0.07278 0.3519028,-0.109864 0.538909,-0.111248 h 0.246 V 41.112999 H 1.8849999 v -1.945 H 0 V 37.09 L 30.988001,21 l 28.908003,16.062 2.319,1.667 0.028,0.056 v 5.819 l -0.028,0.055 -1.181999,0.939999 v 5.139999 c 0.151176,0.03133 0.292808,0.08696 0.4249,0.166882 0.132088,0.07992 0.247082,0.179565 0.344982,0.298939 0.0979,0.119377 0.173119,0.251655 0.225643,0.396835 0.05252,0.14518 0.07934,0.29496 0.08047,0.449345 -0.0012,0.177833 -0.03631,0.34869 -0.105377,0.512565 -0.06907,0.163876 -0.166821,0.308338 -0.29327,0.43338 -0.12645,0.125046 -0.271996,0.221184 -0.436634,0.288411 -0.164647,0.06723 -0.335884,0.100441 -0.513718,0.09964 -0.305553,0.0035 -0.606552,-0.03186 -0.903,-0.105999 l -0.105999,-0.033 V 79.365995 H 60.247 v 0.878998 h 0.206002 c 0.268001,0 0.346,1.040001 0.352001,1.111 h 0.083 c 0.306999,0 0.407002,0.933998 0.417999,1.112 V 102.21999 H 4.8609951 L 2.168,98.884995 l 0.028,-0.055 z M 11.477,78.488998 h 4.231 c 0.062,-0.322998 0.246001,-1.111999 0.629999,-1.111999 0.03749,-0.281723 0.110152,-0.554054 0.218001,-0.817001 l 0.24,-0.21 h 0.066 V 75.514 h 0.306999 V 51.623001 h -3.445 c 0.018,0.086 0.027,0.173 0.028,0.261002 -0.0012,0.178631 -0.03647,0.35025 -0.105836,0.514862 -0.06937,0.164615 -0.167559,0.309726 -0.294572,0.435333 -0.127013,0.125607 -0.273207,0.222176 -0.438582,0.289703 -0.165376,0.06753 -0.33738,0.100899 -0.51601,0.100102 h -0.033 c -0.294513,-0.0023 -0.584513,-0.03961 -0.869999,-0.112 h -0.111001 v 25.398999 l 0.095,-0.022 h -0.001 z m 13.480001,0 h 12.385002 c 0.062,-0.322998 0.245998,-1.111999 0.630001,-1.111999 0.037,-0.279999 0.110001,-0.555 0.217998,-0.817001 l 0.240002,-0.21 h 0.066 V 75.514 h 0.306999 V 58.937 H 24.866999 v 19.546002 l 0.09,0.006 z m 21.27,0 H 50.57 c 0.056,-0.322998 0.244999,-1.111999 0.625,-1.111999 0.041,-0.279999 0.116001,-0.554001 0.222,-0.817001 l 0.235,-0.21 h 0.094 V 75.514 h 0.306999 V 51.623001 h -3.562 c 0.0085,0.087 0.0085,0.174004 0,0.261002 0.0038,0.273975 -0.07053,0.524788 -0.22303,0.752437 -0.152496,0.227646 -0.356152,0.391835 -0.61097,0.492562 -0.166927,0.06675 -0.340259,0.09842 -0.52,0.095 -0.296539,-0.0018 -0.588539,-0.03916 -0.875999,-0.112 h -0.105999 v 25.398999 l 0.073,-0.022 h -10e-4 z m -4.420002,-31.062 h 0.212002 c -0.05505,0.120392 -0.08579,0.2467 -0.09222,0.378922 -0.0064,0.132221 0.01189,0.260917 0.05498,0.386089 0.04309,0.125172 0.107864,0.237877 0.194325,0.338123 0.08646,0.100243 0.188434,0.180867 0.305919,0.241867 V 75.382004 H 39.188007 V 48.737999 c 0.161331,-0.08977 0.288806,-0.214222 0.382427,-0.373356 0.09362,-0.159134 0.140476,-0.331016 0.140571,-0.515644 5.84e-4,-0.147774 -0.03075,-0.288441 -0.094,-0.422001 h 2.189998 z m 1.84,-0.990002 c 0.135716,2.67e-4 0.266262,0.02638 0.391636,0.07835 0.12537,0.05196 0.236111,0.125858 0.332215,0.221679 0.09611,0.09583 0.17033,0.206349 0.222663,0.33157 0.05233,0.125225 0.07883,0.255692 0.07949,0.391403 3.13e-4,0.207325 -0.05729,0.397076 -0.172794,0.569245 -0.115513,0.172172 -0.269245,0.297424 -0.461205,0.375755 -0.125515,0.0519 -0.256179,0.0779 -0.391998,0.078 h -0.724998 c -0.174927,-5.45e-4 -0.324284,-0.06261 -0.448075,-0.186211 -0.12379,-0.123592 -0.186096,-0.272857 -0.186924,-0.447788 0.0094,-0.09791 0.03813,-0.189758 0.08627,-0.275535 0.04814,-0.08577 0.111561,-0.158162 0.190262,-0.217163 0.0787,-0.059 0.165969,-0.09958 0.261798,-0.121743 0.09583,-0.02216 0.192055,-0.02402 0.28867,-0.0056 0.130367,0.02431 0.244698,0.08098 0.342999,0.169998 l 0.078,0.061 c 0.05941,0.03314 0.11972,0.03489 0.180942,0.0052 0.06122,-0.02966 0.09724,-0.07807 0.108059,-0.145229 0.0065,-0.04267 -5.42e-4,-0.083 -0.021,-0.120999 -0.180263,-0.30775 -0.44593,-0.493083 -0.797001,-0.555999 h -0.095 c -0.469105,0.02409 -0.905773,0.155758 -1.310001,0.395 h -1.577 c -0.404232,-0.239242 -0.840897,-0.37091 -1.310001,-0.395 h -0.095 c -0.350711,0.06342 -0.616378,0.248756 -0.797,0.555999 -0.03206,0.05983 -0.03257,0.119942 -0.0015,0.180317 0.03104,0.06037 0.08021,0.09493 0.14753,0.103684 0.04288,0.0058 0.08322,-0.0019 0.120998,-0.023 0.02551,-0.01893 0.04984,-0.03927 0.073,-0.061 0.214725,-0.191185 0.456344,-0.235405 0.724857,-0.13266 0.268517,0.102749 0.418896,0.296971 0.451141,0.582661 2.79e-4,0.175579 -0.06176,0.325352 -0.186107,0.44931 -0.124348,0.123959 -0.274315,0.18552 -0.449894,0.184689 h -0.695999 c -0.135716,-2.63e-4 -0.266259,-0.02638 -0.391632,-0.07834 -0.125378,-0.05197 -0.236119,-0.125862 -0.332222,-0.221687 -0.0961,-0.09583 -0.170323,-0.206348 -0.222657,-0.33157 -0.05233,-0.125217 -0.07883,-0.255683 -0.07949,-0.391399 -1.34e-4,-0.13591 0.02584,-0.266636 0.07791,-0.392181 0.05208,-0.125546 0.126255,-0.236275 0.222546,-0.332196 0.09629,-0.09591 0.207317,-0.169662 0.333061,-0.221244 0.125744,-0.05158 0.256569,-0.07704 0.392483,-0.07638 h 5.639999 l 10e-4,-0.001 z M 43.09,76.593994 h -4.537998 l -0.072,0.089 c -0.04868,0.109169 -0.08568,0.222168 -0.111,0.338997 -9.99e-4,0.110001 -0.051,0.226997 -0.068,0.316002 h 5.150001 c -0.01791,-0.226311 -0.06424,-0.44664 -0.139,-0.661003 l -0.066,-0.083 h -0.157001 l 9.99e-4,7e-6 z m -5.352001,1.861 H 43.937 C 43.909,78.182991 43.853,77.726997 43.724998,77.726997 H 37.972 c -0.1,0 -0.200001,0.445 -0.256,0.727997 z m 1.115002,-2.222999 H 42.923 v -0.555001 h -4.069999 z m 16.166,-28.831993 H 55.23 c -0.06332,0.133541 -0.09465,0.274208 -0.094,0.422 -0.0027,0.194336 0.04618,0.374703 0.146599,0.541104 0.100414,0.166401 0.237217,0.293697 0.4104,0.381897 v 26.61 H 52.399 V 48.737999 c 0.161526,-0.08964 0.289189,-0.214035 0.382992,-0.37318 0.09381,-0.159146 0.140808,-0.331086 0.141007,-0.51582 -0.0015,-0.148209 -0.03486,-0.288876 -0.1,-0.422001 h 2.173 l 0.023,-0.028 4e-6,10e-4 z m 1.84,-0.960999 c 0.206841,1.64e-4 0.396366,0.05753 0.568573,0.172096 0.172207,0.114563 0.298351,0.267197 0.378426,0.457905 0.03255,0.07782 0.05512,0.158447 0.06769,0.241867 0.01257,0.08342 0.01477,0.167114 0.0066,0.25108 -0.0082,0.08396 -0.02648,0.165661 -0.0549,0.24509 -0.02842,0.07943 -0.06611,0.154183 -0.113068,0.22427 -0.04695,0.07008 -0.101757,0.133373 -0.164402,0.189877 -0.06264,0.0565 -0.131233,0.104507 -0.205776,0.144008 -0.07454,0.0395 -0.152782,0.0693 -0.234714,0.0894 -0.08193,0.0201 -0.165074,0.0299 -0.249432,0.0294 h -0.702 c -0.17395,-0.0019 -0.322235,-0.06456 -0.444858,-0.187962 -0.12262,-0.123401 -0.184334,-0.272079 -0.185143,-0.446037 0.0095,-0.09785 0.03837,-0.189621 0.08655,-0.275314 0.04818,-0.08569 0.111606,-0.158024 0.190269,-0.216995 0.07866,-0.05897 0.165871,-0.09957 0.261639,-0.121796 0.09577,-0.02223 0.191948,-0.02419 0.28854,-0.0059 0.130367,0.02432 0.244701,0.08098 0.342998,0.169998 l 0.078,0.061 c 0.05941,0.03314 0.119721,0.03489 0.180943,0.0052 0.06122,-0.02966 0.09724,-0.07807 0.108059,-0.145225 0.0065,-0.04267 -5.49e-4,-0.083 -0.021,-0.120999 -0.181919,-0.309173 -0.449589,-0.494506 -0.803001,-0.555999 h -0.089 c -0.469105,0.02409 -0.905769,0.155758 -1.310001,0.395 h -1.605 c -0.403973,-0.240086 -0.840637,-0.371754 -1.310001,-0.395 h -0.09 c -0.350627,0.06355 -0.616294,0.248882 -0.797,0.555999 -0.0321,0.06001 -0.03251,0.120236 -0.0012,0.18068 0.03128,0.06044 0.08069,0.09488 0.148224,0.103321 0.04288,0.0058 0.08322,-0.0019 0.120998,-0.023 l 0.073,-0.061 c 0.213616,-0.192566 0.45464,-0.237228 0.723072,-0.133983 0.268429,0.103237 0.417404,0.297901 0.446926,0.583984 0.0022,0.175213 -0.05839,0.324966 -0.1819,0.449261 -0.123508,0.124294 -0.272876,0.185875 -0.448101,0.184738 h -0.696998 c -0.13567,-2.63e-4 -0.266163,-0.02638 -0.39148,-0.07837 -0.125316,-0.05197 -0.235988,-0.125885 -0.332016,-0.221725 -0.09603,-0.09584 -0.170151,-0.206364 -0.222374,-0.331581 -0.05223,-0.125218 -0.0786,-0.255657 -0.07913,-0.391327 -7.09e-4,-0.208698 0.05732,-0.399532 0.174099,-0.572502 0.116772,-0.17297 0.272072,-0.298134 0.465901,-0.3755 0.125999,-0.05 0.259998,-0.076 0.396999,-0.074 h 5.624 l 10e-4,-4e-6 z m -0.559002,30.154999 h -4.537998 l -0.078,0.089 -0.05,0.138 c -0.02443,0.06542 -0.04477,0.13208 -0.061,0.199997 0,0.112 -0.045,0.227997 -0.062,0.317001 h 5.151001 c -0.0209,-0.225791 -0.06757,-0.446121 -0.14,-0.661003 l -0.072,-0.083 H 56.3 l -4e-6,8e-6 z m -5.352001,1.861 h 6.199001 c -0.028,-0.272003 -0.09,-0.727997 -0.212001,-0.727997 h -5.741002 c -0.095,0 -0.195999,0.445 -0.250999,0.727997 z m 1.115002,-2.223 h 4.047001 v -0.555 H 52.063 Z m -14.492001,-30.145 c 0.137001,-0.045 0.279999,-0.067 0.424,-0.066 h 5.668999 c 0.143001,0 0.286998,0.022 0.423,0.066 h 6.689999 c 0.135761,-0.04462 0.275097,-0.06662 0.417999,-0.066 h 5.829998 V 41.074003 H 3.29 v 4.973999 h 5.2290001 c 0.1429996,0 0.2860002,0.023 0.4230003,0.067 H 15.916 c 0.136,-0.044 0.280001,-0.067 0.423001,-0.067 h 5.67 c 0.142999,0 0.285999,0.022 0.423,0.067 l 15.140001,-0.028 h -10e-4 z M 22.007,46.437 c 0.135715,2.63e-4 0.266258,0.02638 0.39163,0.07834 0.125374,0.05196 0.236115,0.125858 0.33222,0.221687 0.09611,0.09583 0.170326,0.206352 0.222658,0.33157 0.05233,0.125221 0.07883,0.255688 0.07949,0.391403 3.93e-4,0.207207 -0.05707,0.396885 -0.172382,0.569035 -0.115313,0.172153 -0.268853,0.297474 -0.460617,0.375965 -0.125836,0.05203 -0.256836,0.07803 -0.393,0.078 H 21.311 c -0.175123,-2.71e-4 -0.3247,-0.06222 -0.448727,-0.18586 -0.124025,-0.123634 -0.186449,-0.273014 -0.187273,-0.448139 0.0095,-0.09796 0.03838,-0.189827 0.08662,-0.275604 0.04825,-0.08577 0.111761,-0.158154 0.190539,-0.21714 0.07878,-0.05899 0.166109,-0.09956 0.261999,-0.121712 0.09589,-0.02215 0.192167,-0.024 0.288837,-0.0055 0.130369,0.02432 0.244703,0.08098 0.343001,0.169998 l 0.078,0.061 c 0.05929,0.03266 0.119381,0.0342 0.180263,0.0046 0.06088,-0.0296 0.0968,-0.0778 0.107737,-0.144603 0.0068,-0.04255 1.05e-4,-0.08289 -0.02,-0.120999 -0.180689,-0.307777 -0.446689,-0.49311 -0.798,-0.555999 h -0.094 c -0.469103,0.02409 -0.905769,0.155754 -1.309999,0.395 h -1.594 c -0.40423,-0.239246 -0.840897,-0.370911 -1.31,-0.395 h -0.095 c -0.350624,0.06355 -0.616291,0.248882 -0.797001,0.555999 -0.04756,0.08631 -0.03604,0.163845 0.03456,0.232605 0.0706,0.06876 0.148415,0.07822 0.233441,0.0284 l 0.078,-0.061 c 0.213617,-0.192573 0.454641,-0.237236 0.723076,-0.133991 0.268434,0.103245 0.417408,0.297909 0.446924,0.583992 2.77e-4,0.175384 -0.06164,0.325035 -0.185755,0.448952 -0.124113,0.123916 -0.273863,0.1856 -0.449245,0.185047 h -0.697001 c -0.135669,-2.6e-4 -0.266162,-0.02638 -0.39148,-0.07836 -0.125319,-0.05198 -0.235992,-0.125893 -0.332019,-0.221737 -0.09603,-0.09584 -0.170151,-0.20636 -0.222373,-0.331573 -0.05222,-0.125218 -0.0786,-0.255661 -0.07913,-0.391331 -1.33e-4,-0.135395 0.02565,-0.265659 0.07734,-0.390793 0.05169,-0.125141 0.125358,-0.235626 0.221002,-0.331455 0.09564,-0.09583 0.205983,-0.169716 0.331019,-0.221653 0.125035,-0.05193 0.25525,-0.07796 0.390643,-0.0781 h 5.635 l -9.99e-4,-10e-4 z M 17.219999,76.260002 H 21.261 v -0.556 h -4.039999 v 0.556 h -0.001 z m -1.114999,2.223 h 6.193 c 0,-0.272003 -0.083,-0.727997 -0.212,-0.727997 h -5.746999 c -0.100001,0 -0.200001,0.445 -0.256001,0.727997 z m 5.352001,-1.862 h -4.532 l -0.078,0.09 c -0.04882,0.109123 -0.08582,0.222122 -0.111,0.338996 0,0.110001 -0.051,0.226998 -0.068,0.316002 h 5.156 c -0.01989,-0.22657 -0.06823,-0.446907 -0.145,-0.661003 l -0.066,-0.084 h -0.156 v 7e-6 z m -1.26,-29.166 H 20.403 c -0.05504,0.120395 -0.08578,0.2467 -0.09222,0.378921 -0.0064,0.132225 0.01189,0.260922 0.05498,0.386093 0.04309,0.125172 0.107864,0.237877 0.194323,0.338116 0.08646,0.100247 0.188436,0.18087 0.305921,0.241871 V 75.410004 H 17.570005 V 48.737999 c 0.161525,-0.08964 0.28919,-0.214035 0.382995,-0.37318 0.0938,-0.159146 0.140805,-0.331086 0.141005,-0.51582 3.34e-4,-0.147873 -0.03133,-0.28854 -0.095,-0.422001 h 2.174999 l 0.022,0.028 0.001,4e-6 z M 8.5179996,46.438 c 0.059334,-0.0055 0.1186677,-0.0055 0.1780005,0 0.3269444,0.05556 0.5686111,0.229561 0.7250004,0.521999 2.68e-4,0.135998 -0.025604,0.266831 -0.077618,0.39249 -0.052014,0.12566 -0.1261749,0.236504 -0.2224826,0.332531 -0.096308,0.09603 -0.2073679,0.169861 -0.3331814,0.221508 -0.1258135,0.05164 -0.2567196,0.07713 -0.3927183,0.07647 H 7.4249999 c -0.2369924,-0.109596 -0.3576593,-0.29493 -0.362,-0.556 0.00937,-0.09792 0.038125,-0.189762 0.086266,-0.275535 0.048141,-0.08577 0.1115627,-0.158162 0.1902638,-0.217164 0.0787,-0.059 0.1659674,-0.09958 0.2617998,-0.121749 0.095832,-0.02216 0.1920557,-0.02401 0.28867,-0.0056 0.1303425,0.02437 0.2446757,0.08103 0.3430005,0.169998 l 0.078,0.06 c 0.059407,0.03314 0.1197214,0.03488 0.1809426,0.0052 0.061221,-0.02966 0.09724,-0.07806 0.108057,-0.145226 0.00623,-0.04232 -7.725e-4,-0.08231 -0.021,-0.119999 C 8.4656496,46.594929 8.3149824,46.452259 8.1270008,46.348999 8.0196705,46.287388 7.9046707,46.248386 7.782001,46.231998 h -0.095 c -0.2410001,0.003 -0.48,0.046 -0.7080002,0.127999 -0.2123494,0.06266 -0.4130163,0.151653 -0.6020002,0.266998 H 4.7770007 c -0.4044461,-0.238521 -0.8411126,-0.37019 -1.3099999,-0.395 h -0.095 c -0.3505363,0.06368 -0.616203,0.249012 -0.7969999,0.555999 -0.032098,0.06001 -0.032506,0.12024 -0.00122,0.18068 0.031284,0.06044 0.080691,0.09488 0.1482218,0.103321 0.042515,0.0055 0.082515,-0.0022 0.1199999,-0.023 0.025486,-0.01895 0.04982,-0.03928 0.073,-0.061 0.214572,-0.192772 0.4565725,-0.237652 0.7260015,-0.134643 0.269429,0.103008 0.4197619,0.297889 0.4509986,0.584644 2.799e-4,0.175503 -0.061776,0.325153 -0.1861668,0.448959 -0.1243913,0.123806 -0.2743359,0.18515 -0.4498332,0.18404 H 2.7600017 C 2.6244168,48.070732 2.494,48.044643 2.3687494,47.992729 2.2434988,47.940815 2.1328671,47.866989 2.0368545,47.771255 1.940842,47.675526 1.8666949,47.565109 1.814413,47.440014 1.762131,47.314919 1.73566,47.184578 1.735,47.048996 c 0.093815,-0.225849 0.2486665,-0.396229 0.4645556,-0.511135 0.2158893,-0.114903 0.4437039,-0.14819 0.6834443,-0.09987 h 5.6360002 l -10e-4,4e-6 z M 7.6799998,75.716003 h 0.09 v 0.555001 H 3.7289999 V 75.716003 H 7.681 Z m 0,0.877999 h 0.4200006 l 0.067,0.083 c 0.075,0.213997 0.1219997,0.435997 0.1400003,0.661003 H 3.1570006 c 0,-0.089 0.038,-0.205002 0.066,-0.316002 0.025152,-0.117195 0.062153,-0.23053 0.1110001,-0.339996 l 0.073,-0.088 h 4.2729988 v -7e-6 z m 0,1.111 h 0.8980003 c 0.1280002,0 0.184,0.456001 0.2119999,0.727997 H 2.592 C 2.648,78.150002 2.7479999,77.705002 2.848,77.705002 H 7.6810002 Z M 32.959999,74.143005 V 63.978001 h -6.181 V 74.214996 H 32.938 v -0.05 l 0.023,-0.022 -10e-4,1.5e-5 z M 3.9300001,37.073002 30.982,23.245003 56.301003,37.095001 3.9300041,37.073001 h -4e-6 z M 31.74,24.935001 8.066,36.990002 53.569,36.900002 31.74,24.958 v -0.022 -0.001 z m 4.788999,33.807 v -0.033 C 36.512707,57.870262 36.337727,57.066055 36.004055,56.296383 35.670383,55.526703 35.20303,54.849239 34.601997,54.264 34.000065,53.677853 33.309624,53.227348 32.530678,52.912479 31.751732,52.59761 30.942171,52.441784 30.101997,52.445 c -0.839555,0.0018 -1.647819,0.161731 -2.424793,0.479789 -0.776975,0.318058 -1.465378,0.770794 -2.065206,1.358212 -0.598696,0.58617 -1.064303,1.263786 -1.39682,2.032852 -0.332518,0.769062 -0.507245,1.572445 -0.52418,2.410149 v 0.038 H 22.66 c 0.01609,-0.971516 0.212585,-1.905064 0.589487,-2.80064 0.376902,-0.895577 0.907072,-1.688698 1.590513,-2.37936 0.699469,-0.692494 1.504938,-1.224503 2.416407,-1.59602 0.91147,-0.371521 1.859335,-0.55418 2.843593,-0.547981 0.987376,-0.0016 1.937453,0.185783 2.850226,0.562294 0.912777,0.376514 1.7187,0.913414 2.417774,1.610706 0.696117,0.682117 1.233204,1.472324 1.611252,2.370628 0.378048,0.898304 0.567631,1.834759 0.568748,2.809372 l -1.02,-0.05 z M 59.75,37.183998 30.982,21.216999 0.19499999,37.207001 v 1.766998 H 59.750999 v -1.790001 z"
       style="fill:#9e2c09;fill-opacity:1;fill-rule:evenodd;stroke:none"
       transform="matrix(1.8712121,0,0,1.8721664,38.000007,406.8092)"
       clip-path="url(#clipPath8)" /><path
       id="path9"
       d="m 19.215,128.177 v -0.467 l 0.372999,-0.044 c 0.318001,-0.039 0.400999,-0.278 0.400999,-0.656 v -2.896 h -1.114 v -0.555 h 0.267 c 0.255247,0.0347 0.501665,0.002 0.739254,-0.0972 0.237589,-0.0995 0.433504,-0.25248 0.587746,-0.45879 h 0.896999 v 4.024 c 0,0.378 0.095,0.617 0.407,0.655 l 0.385,0.045 v 0.467 l -2.943001,-0.017 h 4e-6 z m 18.232998,0 v -0.35 c 0,-1.06199 0.714001,-1.53399 1.427002,-1.929 1.026001,-0.555 1.505001,-0.972 1.505001,-1.58899 -4.92e-4,-0.2562 -0.09783,-0.46787 -0.292,-0.63501 -0.193767,-0.16842 -0.417766,-0.23475 -0.672001,-0.19899 -0.869999,0 -1.159999,0.428 -1.159999,0.623 0,0.194 0.111999,0.22799 0.330001,0.25 0.216999,0.022 0.557,0.161 0.557,0.444 0,0.28399 -0.340001,0.556 -0.807999,0.556 -0.641998,0 -0.897999,-0.433 -0.897999,-1.011 0,-0.867 1.115002,-1.379 2.285999,-1.379 1.059002,0 2.23,0.473 2.23,1.412 0,1.156 -1.004002,1.606 -1.729,1.829 -0.59,0.2 -1.438,0.489 -1.811001,1.033 0.33493,-0.19144 0.695263,-0.28411 1.081001,-0.278 0.218205,-0.003 0.43187,0.0267 0.640999,0.089 0.244,0.079 0.497002,0.124 0.752998,0.134 0.373002,0 0.407002,-0.334 0.407002,-0.745 h 0.713001 v 0.483 c 0,0.89 -0.495998,1.323 -1.472,1.323 -0.320782,-0.003 -0.630783,-0.0623 -0.93,-0.178 -0.311428,-0.13513 -0.636765,-0.20913 -0.976002,-0.222 -0.112766,-0.0132 -0.214813,0.0139 -0.306148,0.0814 -0.09134,0.0674 -0.147286,0.157 -0.167851,0.26865 l -0.708,-0.011 -4e-6,-2e-5 z m -4.459999,-2.779 c 0.124779,-0.002 0.244625,-0.0276 0.359535,-0.0763 0.114918,-0.0487 0.216568,-0.11705 0.304951,-0.20515 0.08838,-0.0881 0.157093,-0.18954 0.206123,-0.3043 0.04903,-0.11475 0.07483,-0.23452 0.07739,-0.3593 0,-0.555 -0.306,-0.972 -1.113999,-0.972 -0.809002,0 -1.114999,0.428 -1.114999,0.556 0,0.127 0.145,0.222 0.311998,0.239 0.167,0.016 0.518002,0.172 0.518002,0.455 0,0.284 -0.334,0.556 -0.82,0.556 -0.612,0 -0.858,-0.378 -0.858,-0.956 0,-0.86699 1.220999,-1.378 2.230002,-1.378 1.159999,0 2.391998,0.41101 2.391998,1.389 -0.02047,0.26629 -0.114838,0.50313 -0.283097,0.71053 -0.168254,0.2074 -0.380558,0.34856 -0.636901,0.42348 0.289516,0.0696 0.529186,0.2192 0.719001,0.44865 0.189816,0.22945 0.291817,0.4929 0.306,0.79034 0,0.96701 -1.025001,1.49501 -2.229999,1.49501 -1.202999,0 -2.536,-0.283 -2.536,-1.322 -0.01441,-0.11987 -0.0016,-0.23675 0.03849,-0.35064 0.04007,-0.11389 0.10326,-0.21306 0.189556,-0.29749 0.0863,-0.0844 0.186815,-0.14545 0.301553,-0.18303 0.114737,-0.0376 0.231871,-0.0479 0.351401,-0.0308 0.557999,0 0.775001,0.223 0.775001,0.456 -0.02494,0.23501 -0.145603,0.40001 -0.361999,0.495 -0.134001,0.055 -0.218001,0.139 -0.218001,0.21601 0,0.078 0.363001,0.401 0.964999,0.401 0.472999,0 1.113998,-0.184 1.113998,-0.834 0,-0.817 -0.507,-0.906 -1.002998,-0.906 v -0.5 l 0.017,0.044 -0.001,-2e-5 z M 25.48,124.05901 c 0,0.30599 0.457,0.61699 0.975999,0.79499 0.524001,-0.178 1.031001,-0.48999 1.031001,-0.779 0,-0.289 -0.524001,-0.594 -1.031001,-0.594 -0.406999,0 -0.975999,0.172 -0.975999,0.556 v 0.022 z m 2.101999,2.845 c 0,-0.32801 -0.601999,-0.611 -1.761999,-0.906 -0.59,0.101 -0.897,0.445 -0.897,0.751 0,0.583 0.674,0.83899 1.477,0.83899 0.635,0 1.181999,-0.245 1.181999,-0.68399 z m 1.181,-2.673 c -0.02369,0.27331 -0.119235,0.51862 -0.286625,0.73596 -0.167391,0.21733 -0.380183,0.37235 -0.638375,0.46504 0.317862,0.0619 0.58759,0.21093 0.809187,0.44706 0.221598,0.23614 0.353203,0.51479 0.394814,0.83593 0,1.145 -1.338,1.49501 -2.702999,1.49501 -1.037001,0 -2.548001,-0.20501 -2.548001,-1.37201 0.04243,-0.30849 0.164463,-0.58137 0.366114,-0.81865 0.201651,-0.23728 0.451281,-0.40172 0.748886,-0.49334 -0.556999,-0.339 -0.879999,-0.66101 -0.879999,-1.256 0,-0.86699 1.187,-1.362 2.452,-1.362 0.941999,0 2.269001,0.351 2.269001,1.279 l 0.017,0.044 h -0.001 z"
       style="fill:#9d9897;fill-opacity:1;fill-rule:evenodd;stroke:none"
       transform="matrix(1.8712121,0,0,1.8721664,38.000007,406.8092)"
       clip-path="url(#clipPath10)" /><path
       id="path11"
       d="m 52.588001,108.086 h 1.728001 l 2.313,4.402 0.067,0.033 0.062,-0.039 1.994999,-4.396 h 1.533001 l -4.019001,8.77 h -2.057003 v -1.467 h 1.231999 l 0.062,-0.039 0.457001,-1 v -0.062 l -3.345002,-6.202 h -0.028 4e-6 z m -44.5099981,2.434 1.1590004,-1.184 c -0.4037876,-0.44788 -0.8808145,-0.79516 -1.4310798,-1.04183 -0.5502658,-0.24666 -1.126906,-0.37172 -1.7299204,-0.37517 -1.1180001,0 -2.1900001,0.443 -2.9819999,1.231 -0.3955009,0.39326 -0.7005153,0.84731 -0.9150434,1.36215 -0.2145279,0.51483 -0.3221802,1.05111 -0.3229566,1.60885 8.971e-4,0.55801 0.1086001,1.09458 0.3231088,1.60971 0.2145087,0.51513 0.5194723,0.96956 0.9148912,1.36329 0.3958685,0.39472 0.852078,0.69896 1.368628,0.91272 0.5165496,0.21375 1.0543399,0.32085 1.6133719,0.32128 0.6028857,-0.006 1.1792025,-0.13316 1.728951,-0.38073 0.5497479,-0.24756 1.0267643,-0.59498 1.4310488,-1.04226 L 8.083003,113.716 c -0.2477092,0.29976 -0.5469293,0.53361 -0.8976597,0.70155 -0.3507305,0.16794 -0.7205105,0.25442 -1.1093402,0.25945 -0.707254,1.2e-4 -1.3115874,-0.24921 -1.8129998,-0.748 -0.2404184,-0.23961 -0.4257075,-0.51616 -0.5558669,-0.82964 -0.1301594,-0.31347 -0.1952391,-0.63992 -0.1952388,-0.97936 -3e-7,-0.33943 0.065079,-0.66588 0.1952388,-0.97936 0.1301594,-0.31348 0.3154485,-0.59003 0.5558669,-0.82963 0.500907,-0.50002 1.1052404,-0.75068 1.8129998,-0.752 0.3877134,0.006 0.756341,0.0932 1.1058831,0.26106 0.3495426,0.16787 0.6479149,0.40118 0.8951173,0.69993 z m 10.3790001,5.841 h -1.483 v -6.774 H 13.406 v 6.774 h -1.482 v -8.275 h 6.572 v 8.275 h -0.04 0.001 z m 8.177,-2.223 c -0.0061,0.7298 -0.268757,1.35113 -0.788,1.864 -0.5,0.494 -1.174,0.771 -1.876,0.771 -0.732717,-0.002 -1.358383,-0.2614 -1.877001,-0.779 -0.24826,-0.24813 -0.439573,-0.53432 -0.573938,-0.85859 -0.134365,-0.32426 -0.201548,-0.66189 -0.201548,-1.0129 0,-0.351 0.06718,-0.68864 0.201548,-1.01291 0.134365,-0.32426 0.325678,-0.61046 0.573938,-0.85859 0.185673,-0.18519 0.394184,-0.33952 0.625534,-0.46298 0.231352,-0.12348 0.475624,-0.2108 0.732821,-0.26198 0.257194,-0.0512 0.516289,-0.064 0.777281,-0.0385 0.260992,0.0255 0.512697,0.0883 0.755111,0.18829 0.242417,0.10001 0.465155,0.23298 0.668213,0.39892 0.203059,0.16594 0.377734,0.35773 0.524027,0.57537 0.146292,0.21765 0.257931,0.45181 0.334917,0.70249 0.07699,0.25068 0.116019,0.50714 0.117096,0.76937 l 0.006,0.016 v -1e-5 z m -5.702,-4.69 c 0.162001,-0.188 0.35,-0.353 0.556999,-0.489 0.516356,-0.35819 1.08869,-0.54353 1.716999,-0.556 0.468001,0.004 0.929001,0.107 1.355,0.3 0.226999,0.113 0.476,0.176 0.729999,0.183 0.685,0 0.942,-0.44999 1.115,-0.97799 h 1.07 c -0.03553,0.35742 -0.1302,0.69842 -0.284001,1.023 -0.145708,0.34969 -0.378345,0.62626 -0.697908,0.82972 -0.319563,0.20346 -0.668592,0.29722 -1.047092,0.28128 -0.581868,-0.0372 -1.139201,-0.1742 -1.672001,-0.41101 -0.124178,-0.0462 -0.252512,-0.0702 -0.385001,-0.072 -0.746999,0 -1.578001,0.845 -1.527,0.8 l -0.954,-0.895 0.023,-0.016 6e-6,-10e-6 z m 4.459,4.69 c -0.001,0.1164 -0.01611,0.23095 -0.0453,0.34364 -0.02918,0.11268 -0.07158,0.22015 -0.127199,0.32241 -0.05561,0.10225 -0.122784,0.19625 -0.201515,0.28199 -0.07873,0.0857 -0.166674,0.16066 -0.263832,0.22477 -0.09716,0.0641 -0.200631,0.11551 -0.310423,0.15418 -0.109793,0.0387 -0.222634,0.0634 -0.338524,0.0744 -0.115889,0.0109 -0.231375,0.008 -0.346457,-0.01 -0.115083,-0.0175 -0.226333,-0.0487 -0.333751,-0.0935 -0.265818,-0.1098 -0.478491,-0.28436 -0.638024,-0.52365 -0.159532,-0.23931 -0.238859,-0.50276 -0.237976,-0.79036 6.91e-4,-0.28743 0.08109,-0.55051 0.241202,-0.78923 0.160108,-0.23871 0.373003,-0.41292 0.638681,-0.52262 0.265676,-0.10971 0.539459,-0.13646 0.821348,-0.0803 0.281889,0.0562 0.524479,0.18592 0.72777,0.38913 0.267,0.266 0.417999,0.626 0.42,1.00299 l -0.006,0.016 -2e-6,1e-5 z m 4.966999,-4.446 v 6.703 h -1.260001 v -8.30899 H 34.973 v 1.50599 h -4.582001 v 0.045 l -0.033,0.055 z m 7.146,5.525 -0.411999,1.178 h -1.712002 l 3.68,-8.276 h 0.434002 l 3.819001,8.276 h -1.756001 l -0.418999,-1.178 -0.066,-0.045 h -3.502002 l -0.067,0.05 v -0.005 l 10e-4,-1e-5 z M 38.062,113.994 h 2.57 l 0.055,-0.033 v -0.062 l -1.147999,-3.206 -0.062,-0.045 h -0.284 l -0.067,0.045 -1.115001,3.206 v 0.062 l 0.056,0.033 h -0.005 4e-6 z m 11.950001,-3.44 1.16,-1.184 c -0.404595,-0.4482 -0.882458,-0.79564 -1.43359,-1.04231 -0.551132,-0.24667 -1.128601,-0.37157 -1.73241,-0.37469 -0.558259,3.8e-4 -1.095318,0.10727 -1.611176,0.32067 -0.515862,0.21342 -0.97147,0.51719 -1.366825,0.91133 -0.394795,0.39325 -0.699272,0.84708 -0.913433,1.36152 -0.214157,0.51442 -0.321678,1.05026 -0.322567,1.60749 8.73e-4,0.55767 0.108383,1.09397 0.322529,1.60888 0.214145,0.51492 0.518634,0.96929 0.913471,1.36312 0.39545,0.39419 0.851055,0.69822 1.366821,0.91211 0.515766,0.21389 1.052826,0.32152 1.61118,0.32289 0.603504,-0.007 1.180542,-0.13397 1.731105,-0.38125 0.550564,-0.24729 1.028862,-0.5942 1.434895,-1.04075 l -1.16,-1.19 c -0.247704,0.29983 -0.546909,0.5338 -0.897617,0.7019 -0.350712,0.16811 -0.720505,0.25481 -1.109383,0.2601 -0.707455,6.1e-4 -1.311455,-0.24906 -1.812,-0.749 -0.240635,-0.23939 -0.426098,-0.5158 -0.556397,-0.82922 -0.130298,-0.31342 -0.19545,-0.63985 -0.19545,-0.97929 0,-0.33943 0.06515,-0.66585 0.19545,-0.97927 0.130299,-0.31343 0.315762,-0.58983 0.556397,-0.82922 0.500789,-0.5003 1.105121,-0.7513 1.813,-0.753 0.388923,0.005 0.758762,0.0917 1.109516,0.2598 0.35075,0.16813 0.649913,0.40219 0.897483,0.7022 z"
       style="fill:#ffffff;fill-opacity:1;fill-rule:evenodd;stroke:none"
       transform="matrix(1.8712121,0,0,1.8721664,38.000007,406.8092)"
       clip-path="url(#clipPath12)" /></g></svg>
