<svg width="1488" height="984" viewBox="0 0 1488 984" fill="none" xmlns="http://www.w3.org/2000/svg">
<mask id="mask0_15_286" style="mask-type:luminance" maskUnits="userSpaceOnUse" x="0" y="836" width="1488" height="148">
<path d="M0 836H1488V968C1488 976.837 1480.84 984 1472 984H16C7.16343 984 0 976.837 0 968V836Z" fill="white"/>
</mask>
<g mask="url(#mask0_15_286)">
<path d="M0 836H1488V968C1488 976.837 1480.84 984 1472 984H16C7.16343 984 0 976.837 0 968V836Z" fill="#AEBEFF"/>
<text fill="black" xml:space="preserve" style="white-space: pre" font-family="YS Text" font-size="39.7154" font-weight="bold" letter-spacing="0em"><tspan x="190" y="885.083">Сагдуллин Марсель Рузалевич</tspan></text>
<text fill="black" xml:space="preserve" style="white-space: pre" font-family="YS Text" font-size="27.3714" font-weight="bold" letter-spacing="0em"><tspan x="190" y="928.361">10 класс</tspan></text>
<text fill="black" xml:space="preserve" style="white-space: pre" font-family="YS Text" font-size="25" font-weight="bold" letter-spacing="0em"><tspan x="190" y="966.05">Казань</tspan></text>
<mask id="mask1_15_286" style="mask-type:alpha" maskUnits="userSpaceOnUse" x="1220" y="937" width="537" height="149">
<path d="M1220.49 940.494C1219.49 939.254 1220.37 937.406 1221.97 937.406H1234.71C1235.28 937.406 1235.82 937.666 1236.19 938.112L1353.08 1082.91C1354.08 1084.15 1353.19 1086 1351.6 1086H1338.86C1338.29 1086 1337.74 1085.74 1337.38 1085.29L1220.49 940.494Z" fill="black"/>
<path d="M1257.12 940.494C1256.12 939.254 1257 937.406 1258.6 937.406H1271.34C1271.91 937.406 1272.45 937.666 1272.81 938.112L1389.7 1082.91C1390.7 1084.15 1389.82 1086 1388.23 1086H1375.49C1374.91 1086 1374.37 1085.74 1374.01 1085.29L1257.12 940.494Z" fill="black"/>
<path d="M1293.73 940.494C1292.73 939.254 1293.62 937.406 1295.21 937.406H1307.95C1308.52 937.406 1309.07 937.666 1309.43 938.112L1426.32 1082.91C1427.32 1084.15 1426.44 1086 1424.84 1086H1412.1C1411.53 1086 1410.98 1085.74 1410.62 1085.29L1293.73 940.494Z" fill="black"/>
<path d="M1330.36 940.494C1329.36 939.254 1330.24 937.406 1331.84 937.406H1344.58C1345.15 937.406 1345.69 937.666 1346.05 938.112L1462.94 1082.91C1463.94 1084.15 1463.06 1086 1461.47 1086H1448.73C1448.15 1086 1447.61 1085.74 1447.25 1085.29L1330.36 940.494Z" fill="black"/>
<path d="M1366.99 940.494C1365.99 939.254 1366.87 937.406 1368.46 937.406H1381.2C1381.78 937.406 1382.32 937.666 1382.68 938.112L1499.57 1082.91C1500.57 1084.15 1499.69 1086 1498.09 1086H1485.35C1484.78 1086 1484.24 1085.74 1483.88 1085.29L1366.99 940.494Z" fill="black"/>
<path d="M1403.61 940.494C1402.61 939.254 1403.49 937.406 1405.09 937.406H1417.83C1418.4 937.406 1418.94 937.666 1419.3 938.112L1536.19 1082.91C1537.2 1084.15 1536.31 1086 1534.72 1086H1521.98C1521.4 1086 1520.86 1085.74 1520.5 1085.29L1403.61 940.494Z" fill="black"/>
<path d="M1440.24 940.494C1439.24 939.254 1440.12 937.406 1441.72 937.406H1454.46C1455.03 937.406 1455.57 937.666 1455.93 938.112L1572.82 1082.91C1573.82 1084.15 1572.94 1086 1571.35 1086H1558.61C1558.03 1086 1557.49 1085.74 1557.13 1085.29L1440.24 940.494Z" fill="black"/>
<path d="M1476.85 940.494C1475.85 939.254 1476.74 937.406 1478.33 937.406H1491.07C1491.64 937.406 1492.19 937.666 1492.55 938.112L1609.44 1082.91C1610.44 1084.15 1609.56 1086 1607.96 1086H1595.22C1594.65 1086 1594.1 1085.74 1593.74 1085.29L1476.85 940.494Z" fill="black"/>
</mask>
<g mask="url(#mask1_15_286)">
<rect x="1216.28" y="922.737" width="277.8" height="64.5036" fill="black"/>
</g>
<path fill-rule="evenodd" clip-rule="evenodd" d="M1292.06 846C1290.16 846 1288.62 847.542 1288.62 849.445V873.557C1288.62 875.459 1290.16 877.001 1292.06 877.001H1336.84C1338.75 877.001 1340.29 875.459 1340.29 873.557V849.445C1340.29 847.542 1338.75 846 1336.84 846H1292.06ZM1323.51 857.741C1323.89 857.999 1324.33 858.168 1324.79 858.234C1325.08 858.277 1325.36 858.413 1325.58 858.622C1325.79 858.831 1325.94 859.103 1325.99 859.399C1326.12 860.088 1326.19 860.787 1326.19 861.488C1326.18 862.152 1326.11 862.814 1325.98 863.467C1325.93 863.77 1325.78 864.048 1325.56 864.262C1325.34 864.476 1325.06 864.614 1324.75 864.656C1324.28 864.712 1323.83 864.876 1323.44 865.136C1323.04 865.396 1322.72 865.744 1322.48 866.153C1322.24 866.562 1322.1 867.02 1322.07 867.492C1322.04 867.964 1322.12 868.436 1322.31 868.872C1322.42 869.156 1322.44 869.469 1322.36 869.766C1322.29 870.062 1322.12 870.327 1321.88 870.522C1320.94 871.304 1319.89 871.935 1318.75 872.391C1318.46 872.509 1318.13 872.527 1317.83 872.44C1317.52 872.354 1317.25 872.169 1317.07 871.914C1316.78 871.531 1316.41 871.22 1315.98 871.006C1315.56 870.791 1315.09 870.679 1314.61 870.679C1314.12 870.677 1313.63 870.796 1313.19 871.025C1312.76 871.254 1312.38 871.586 1312.11 871.993C1311.97 872.181 1311.8 872.334 1311.59 872.44C1311.39 872.547 1311.16 872.602 1310.93 872.603C1310.77 872.601 1310.6 872.572 1310.44 872.517C1309.2 872.061 1308.05 871.397 1307.03 870.553C1306.78 870.354 1306.61 870.078 1306.54 869.769C1306.46 869.46 1306.5 869.136 1306.63 868.848C1306.83 868.405 1306.93 867.92 1306.91 867.434C1306.88 866.947 1306.74 866.473 1306.5 866.051C1306.26 865.629 1305.92 865.271 1305.51 865.008C1305.1 864.745 1304.63 864.584 1304.14 864.538C1303.83 864.505 1303.53 864.367 1303.3 864.148C1303.07 863.929 1302.92 863.64 1302.87 863.326C1302.77 862.718 1302.72 862.104 1302.72 861.488C1302.72 860.752 1302.79 860.019 1302.94 859.298C1303 858.993 1303.15 858.716 1303.38 858.506C1303.61 858.296 1303.9 858.165 1304.21 858.132C1304.68 858.088 1305.14 857.934 1305.54 857.681C1305.95 857.428 1306.29 857.084 1306.53 856.676C1306.78 856.269 1306.93 855.809 1306.97 855.334C1307 854.858 1306.93 854.381 1306.75 853.94C1306.64 853.65 1306.62 853.332 1306.7 853.032C1306.78 852.732 1306.96 852.467 1307.2 852.274C1308.17 851.507 1309.25 850.9 1310.41 850.475C1310.69 850.369 1311.01 850.355 1311.3 850.437C1311.59 850.518 1311.85 850.69 1312.04 850.928C1312.33 851.294 1312.7 851.59 1313.11 851.794C1313.53 851.997 1313.99 852.103 1314.45 852.103C1314.92 852.103 1315.38 851.997 1315.79 851.794C1316.21 851.59 1316.58 851.294 1316.86 850.928C1317.05 850.69 1317.31 850.518 1317.61 850.437C1317.9 850.355 1318.21 850.369 1318.5 850.475C1319.75 850.935 1320.92 851.61 1321.94 852.469C1322.17 852.661 1322.34 852.92 1322.41 853.21C1322.49 853.5 1322.47 853.807 1322.37 854.088C1322.2 854.518 1322.13 854.98 1322.17 855.44C1322.21 855.9 1322.34 856.346 1322.58 856.744C1322.81 857.142 1323.13 857.483 1323.51 857.741ZM1317.7 863.661C1318.13 863.018 1318.36 862.261 1318.36 861.488C1318.36 860.451 1317.95 859.456 1317.22 858.722C1316.48 857.989 1315.49 857.577 1314.45 857.577C1313.68 857.577 1312.92 857.806 1312.28 858.236C1311.64 858.666 1311.14 859.277 1310.84 859.991C1310.54 860.706 1310.47 861.492 1310.62 862.251C1310.77 863.01 1311.14 863.706 1311.69 864.253C1312.23 864.8 1312.93 865.173 1313.69 865.324C1314.45 865.475 1315.23 865.397 1315.95 865.101C1316.66 864.805 1317.27 864.304 1317.7 863.661Z" fill="black"/>
<path fill-rule="evenodd" clip-rule="evenodd" d="M1354.07 846C1352.16 846 1350.62 847.543 1350.62 849.445V873.557C1350.62 875.46 1352.16 877.002 1354.07 877.002H1398.85C1400.75 877.002 1402.29 875.46 1402.29 873.557V849.445C1402.29 847.543 1400.75 846 1398.85 846H1354.07ZM1381.6 851.128C1383.4 851.128 1385.06 851.849 1386.27 853.159C1387.46 854.454 1388.12 856.222 1388.12 858.138C1388.12 860.111 1387.38 861.917 1385.8 863.822C1384.39 865.526 1382.36 867.255 1380.01 869.257L1380.01 869.257L1379.99 869.28C1379.19 869.959 1378.29 870.727 1377.36 871.543C1377.11 871.762 1376.79 871.882 1376.45 871.882C1376.12 871.882 1375.8 871.762 1375.55 871.543C1374.61 870.718 1373.7 869.944 1372.9 869.261L1372.9 869.258C1370.55 867.255 1368.52 865.526 1367.1 863.822C1365.53 861.917 1364.79 860.111 1364.79 858.139C1364.79 856.222 1365.45 854.454 1366.64 853.159C1367.85 851.849 1369.51 851.128 1371.31 851.128C1372.65 851.128 1373.89 851.554 1374.97 852.393C1375.52 852.817 1376.02 853.336 1376.45 853.941C1376.89 853.336 1377.39 852.817 1377.94 852.393C1379.02 851.554 1380.25 851.128 1381.6 851.128Z" fill="black"/>
<path fill-rule="evenodd" clip-rule="evenodd" d="M1416.07 846C1414.17 846 1412.63 847.543 1412.63 849.445V873.557C1412.63 875.46 1414.17 877.002 1416.07 877.002H1460.85C1462.75 877.002 1464.3 875.46 1464.3 873.557V849.445C1464.3 847.543 1462.75 846 1460.85 846H1416.07ZM1439.41 852.852V870.148C1439.41 870.835 1438.58 871.189 1438.09 870.715L1432.63 865.528C1432.48 865.39 1432.29 865.313 1432.09 865.313H1428.4C1427.97 865.313 1427.62 864.962 1427.62 864.53V858.608C1427.62 858.176 1427.97 857.826 1428.4 857.826H1432.09C1432.29 857.826 1432.49 857.746 1432.63 857.604L1438.08 852.292C1438.57 851.809 1439.41 852.16 1439.41 852.852ZM1441.29 856.89C1442.41 856.89 1443.49 857.337 1444.29 858.134C1445.09 858.93 1445.53 860.01 1445.53 861.137C1445.53 862.263 1445.09 863.343 1444.29 864.14C1443.49 864.936 1442.41 865.384 1441.29 865.384L1441.29 856.89ZM1441.29 867.589C1440.85 867.589 1440.5 867.939 1440.5 868.371C1440.5 868.803 1440.85 869.153 1441.29 869.153C1443.41 869.153 1445.45 868.309 1446.95 866.805C1448.46 865.302 1449.3 863.263 1449.3 861.137C1449.3 859.011 1448.46 856.972 1446.95 855.469C1445.45 853.966 1443.41 853.121 1441.29 853.121C1440.85 853.121 1440.5 853.472 1440.5 853.904C1440.5 854.336 1440.85 854.686 1441.29 854.686C1443 854.686 1444.64 855.365 1445.85 856.575C1447.06 857.785 1447.74 859.426 1447.74 861.137C1447.74 862.848 1447.06 864.489 1445.85 865.699C1444.64 866.909 1443 867.589 1441.29 867.589Z" fill="black"/>
<path fill-rule="evenodd" clip-rule="evenodd" d="M11.3509 928.712C11.1331 928.58 11 928.345 11 928.09L11 915.054C11 914.795 11.1376 914.556 11.3612 914.426L21.246 908.687C21.7085 908.418 21.7314 907.759 21.2886 907.459L11.3186 900.705C11.1193 900.57 11 900.345 11 900.104V889.656C11 889.4 11.1345 889.164 11.354 889.033L29.4889 878.222C29.719 878.084 30.0059 878.085 30.2353 878.224L50.5302 890.471C50.7591 890.609 51.0453 890.61 51.2752 890.473L71.9288 878.221C72.1596 878.084 72.447 878.086 72.6762 878.225L79.5442 882.406C80.0277 882.7 80.6469 882.352 80.6469 881.786V873.725C80.6469 873.325 80.9717 873 81.3724 873H106.039C106.44 873 106.764 873.325 106.764 873.725V881.787C106.764 882.353 107.384 882.701 107.867 882.406L114.735 878.226C114.964 878.086 115.252 878.085 115.483 878.222L136.136 890.474C136.366 890.61 136.652 890.609 136.881 890.471L157.176 878.224C157.405 878.086 157.692 878.085 157.922 878.222L176.057 889.033C176.277 889.164 176.411 889.401 176.411 889.656V901.099C176.411 901.352 176.279 901.587 176.062 901.719L166.557 907.483C166.09 907.766 166.092 908.445 166.56 908.726L176.059 914.425C176.278 914.556 176.411 914.792 176.411 915.047V927.559C176.411 927.811 176.281 928.044 176.067 928.176L157.909 939.39C157.674 939.535 157.377 939.534 157.143 939.388L136.859 926.727C136.626 926.581 136.33 926.58 136.096 926.723L115.406 939.396C115.175 939.538 114.883 939.538 114.651 939.397L109.294 936.141C108.811 935.847 108.192 936.195 108.192 936.761V946.275C108.192 946.675 107.867 947 107.467 947L79.961 947C79.5603 947 79.2355 946.675 79.2355 946.274V936.727C79.2355 936.169 78.6311 935.82 78.1475 936.099L72.6354 939.279C72.4066 939.411 72.1241 939.408 71.8979 939.271L51.3325 926.855C51.0976 926.713 50.8027 926.716 50.5706 926.862L30.2806 939.656C30.0486 939.803 29.7539 939.806 29.5191 939.664L11.3509 928.712Z" fill="#AEBEFF"/>
<path d="M31.3292 901.297L13.5499 890.629C13.0664 890.339 12.4512 890.688 12.4512 891.252V899.376C12.4512 899.619 12.5724 899.845 12.7742 899.98L22.964 906.773C23.1908 906.924 23.4831 906.935 23.7209 906.802L31.3104 902.552C31.7966 902.28 31.8071 901.584 31.3292 901.297Z" fill="black"/>
<path d="M156.046 901.319L173.862 890.629C174.345 890.339 174.96 890.688 174.96 891.252V900.091C174.96 900.339 174.833 900.57 174.623 900.703L164.456 907.143C164.224 907.289 163.93 907.293 163.695 907.152L156.046 902.563C155.577 902.281 155.577 901.6 156.046 901.319Z" fill="black"/>
<path d="M88.6171 891.355L70.7663 902.066C70.3051 902.342 70.2948 903.007 70.7473 903.298L78.8039 908.477C79.2868 908.788 79.9217 908.441 79.9217 907.867V900.245C79.9217 899.995 80.0497 899.763 80.2607 899.631L89.3769 893.891C89.5878 893.758 89.7158 893.526 89.7158 893.277V891.977C89.7158 891.413 89.1006 891.065 88.6171 891.355Z" fill="black"/>
<path d="M98.7948 891.355L116.646 902.066C117.107 902.342 117.117 903.007 116.665 903.298L108.608 908.477C108.125 908.788 107.49 908.441 107.49 907.867V900.245C107.49 899.995 107.362 899.763 107.151 899.631L98.035 893.891C97.824 893.758 97.696 893.526 97.696 893.277V891.977C97.696 891.413 98.3112 891.065 98.7948 891.355Z" fill="black"/>
<path d="M12.4512 926.926V917.718C12.4512 917.157 13.0603 916.808 13.5439 917.092L28.7792 926.035C29.0011 926.165 29.1374 926.403 29.1374 926.66V936.199C29.1374 936.765 28.5182 937.113 28.0347 936.819L12.7994 927.545C12.5832 927.414 12.4512 927.179 12.4512 926.926Z" fill="black"/>
<path d="M50.5315 914.493L30.9455 926.035C30.7242 926.165 30.5884 926.403 30.5884 926.66V936.181C30.5884 936.751 31.2152 937.098 31.6984 936.796L50.5209 925.032C50.7544 924.886 51.0504 924.885 51.2851 925.029L70.4734 936.811C70.9568 937.108 71.5785 936.76 71.5785 936.193V927.02C71.5785 926.764 71.4441 926.528 71.2246 926.397L51.2715 914.495C51.0437 914.359 50.76 914.358 50.5315 914.493Z" fill="black"/>
<path d="M88.6031 916.789L73.3679 926.394C73.1571 926.526 73.0293 926.758 73.0293 927.007V936.187C73.0293 936.755 73.6533 937.103 74.1367 936.804L80.3033 932.986C80.5169 932.854 80.6469 932.621 80.6469 932.369V925.553C80.6469 925.306 80.773 925.075 80.9813 924.942L89.3811 919.566C89.5895 919.433 89.7155 919.202 89.7155 918.955V917.402C89.7155 916.831 89.0862 916.484 88.6031 916.789Z" fill="black"/>
<path d="M174.96 926.926V917.718C174.96 917.157 174.351 916.808 173.868 917.092L158.632 926.035C158.411 926.165 158.274 926.403 158.274 926.66V936.199C158.274 936.765 158.893 937.113 159.377 936.819L174.612 927.545C174.828 927.414 174.96 927.179 174.96 926.926Z" fill="black"/>
<path d="M136.88 914.493L156.466 926.035C156.688 926.165 156.823 926.403 156.823 926.66V936.181C156.823 936.751 156.197 937.098 155.713 936.796L136.891 925.032C136.657 924.886 136.361 924.885 136.127 925.029L116.938 936.811C116.455 937.108 115.833 936.76 115.833 936.193V927.02C115.833 926.764 115.968 926.528 116.187 926.397L136.14 914.495C136.368 914.359 136.652 914.358 136.88 914.493Z" fill="black"/>
<path d="M98.8085 916.789L114.044 926.394C114.254 926.526 114.382 926.758 114.382 927.007V936.187C114.382 936.755 113.758 937.103 113.275 936.804L107.108 932.986C106.895 932.854 106.765 932.621 106.765 932.369V925.553C106.765 925.306 106.639 925.075 106.43 924.942L98.0305 919.566C97.8221 919.433 97.6961 919.202 97.6961 918.955V917.402C97.6961 916.831 98.3254 916.484 98.8085 916.789Z" fill="black"/>
<rect x="80.647" y="935.392" width="26.1176" height="10.1568" rx="0.725489" fill="black"/>
<path d="M38.569 912.9H21.1572C21.1572 913.868 21.1574 914.835 21.1574 915.802C21.1574 918.206 25.0551 920.155 29.8632 920.155C34.6712 920.155 38.569 918.206 38.569 915.802C38.569 914.835 38.5687 913.868 38.569 912.9Z" fill="black"/>
<path d="M21.52 912.9C21.52 911.909 22.3325 910.915 23.8694 910.147C25.3846 909.389 27.5031 908.91 29.8631 908.91C32.223 908.91 34.3416 909.389 35.8568 910.147C37.3936 910.915 38.2061 911.909 38.2061 912.9C38.2061 913.891 37.3936 914.885 35.8568 915.654C34.3416 916.411 32.223 916.89 29.8631 916.89C27.5031 916.89 25.3846 916.411 23.8694 915.654C22.3325 914.885 21.52 913.891 21.52 912.9Z" fill="#AEBEFF" stroke="black" stroke-width="0.725482"/>
<path d="M28.4834 914.313L32.8581 913.94C33.2105 913.91 33.316 913.445 33.011 913.265L28.1426 910.407C27.8791 910.252 27.5542 910.472 27.6003 910.774L28.094 914.006C28.1228 914.195 28.2931 914.329 28.4834 914.313Z" fill="black"/>
<path d="M124.176 912.9H106.765C106.765 913.868 106.765 914.835 106.765 915.802C106.765 918.206 110.663 920.155 115.471 920.155C120.279 920.155 124.176 918.206 124.176 915.802C124.176 914.835 124.176 913.868 124.176 912.9Z" fill="black"/>
<path d="M107.128 912.9C107.128 911.909 107.94 910.915 109.477 910.147C110.992 909.389 113.111 908.91 115.471 908.91C117.831 908.91 119.949 909.389 121.464 910.147C123.001 910.915 123.814 911.909 123.814 912.9C123.814 913.891 123.001 914.885 121.464 915.654C119.949 916.411 117.831 916.89 115.471 916.89C113.111 916.89 110.992 916.411 109.477 915.654C107.94 914.885 107.128 913.891 107.128 912.9Z" fill="#AEBEFF" stroke="black" stroke-width="0.725482"/>
<path d="M114.091 914.313L118.466 913.94C118.818 913.91 118.924 913.445 118.619 913.265L113.75 910.407C113.487 910.252 113.162 910.472 113.208 910.774L113.702 914.006C113.731 914.195 113.901 914.329 114.091 914.313Z" fill="black"/>
<path d="M63.9606 912.9H81.3723C81.3723 913.868 81.3721 914.835 81.3721 915.802C81.3721 918.206 77.4744 920.155 72.6664 920.155C67.8583 920.155 63.9606 918.206 63.9606 915.802C63.9606 914.835 63.9608 913.868 63.9606 912.9Z" fill="black"/>
<path d="M81.0093 912.9C81.0093 911.909 80.1968 910.915 78.6599 910.147C77.1447 909.389 75.0262 908.91 72.6662 908.91C70.3063 908.91 68.1877 909.389 66.6725 910.147C65.1357 910.915 64.3232 911.909 64.3232 912.9C64.3232 913.891 65.1357 914.885 66.6725 915.654C68.1877 916.411 70.3063 916.89 72.6662 916.89C75.0262 916.89 77.1447 916.411 78.6599 915.654C80.1968 914.885 81.0093 913.891 81.0093 912.9Z" fill="#AEBEFF" stroke="black" stroke-width="0.725482"/>
<path d="M74.0461 914.313L69.6714 913.94C69.319 913.91 69.2136 913.445 69.5186 913.265L74.387 910.407C74.6504 910.252 74.9754 910.472 74.9292 910.774L74.4355 914.006C74.4067 914.195 74.2364 914.329 74.0461 914.313Z" fill="black"/>
<path d="M149.569 912.9H166.98C166.98 913.868 166.98 914.835 166.98 915.802C166.98 918.206 163.083 920.155 158.275 920.155C153.466 920.155 149.569 918.206 149.569 915.802C149.569 914.835 149.569 913.868 149.569 912.9Z" fill="black"/>
<path d="M166.617 912.9C166.617 911.909 165.805 910.915 164.268 910.147C162.753 909.389 160.634 908.91 158.274 908.91C155.914 908.91 153.796 909.389 152.28 910.147C150.744 910.915 149.931 911.909 149.931 912.9C149.931 913.891 150.744 914.885 152.28 915.654C153.796 916.411 155.914 916.89 158.274 916.89C160.634 916.89 162.753 916.411 164.268 915.654C165.805 914.885 166.617 913.891 166.617 912.9Z" fill="#AEBEFF" stroke="black" stroke-width="0.725482"/>
<path d="M159.654 914.313L155.279 913.94C154.927 913.91 154.821 913.445 155.126 913.265L159.995 910.407C160.258 910.252 160.583 910.472 160.537 910.774L160.043 914.006C160.015 914.195 159.844 914.329 159.654 914.313Z" fill="black"/>
<path d="M21.8822 886.786H39.2939C39.2939 887.753 39.2938 888.72 39.2938 889.688C39.2938 892.092 35.3961 894.04 30.588 894.04C25.7799 894.04 21.8822 892.092 21.8822 889.688C21.8822 888.72 21.8824 887.753 21.8822 886.786Z" fill="black"/>
<path d="M38.9307 886.786C38.9307 885.795 38.1182 884.8 36.5813 884.032C35.0661 883.274 32.9475 882.795 30.5876 882.795C28.2277 882.795 26.1091 883.274 24.5939 884.032C23.057 884.8 22.2446 885.795 22.2446 886.786C22.2446 887.776 23.057 888.771 24.5939 889.539C26.1091 890.297 28.2277 890.776 30.5876 890.776C32.9475 890.776 35.0661 890.297 36.5813 889.539C38.1182 888.771 38.9307 887.776 38.9307 886.786Z" fill="#AEBEFF" stroke="black" stroke-width="0.725482"/>
<path d="M28.3898 884.535L32.7781 884.677C33.1316 884.688 33.2615 885.147 32.9664 885.342L28.2559 888.454C28.001 888.622 27.6648 888.42 27.6949 888.116L28.0171 884.862C28.0359 884.672 28.1989 884.529 28.3898 884.535Z" fill="black"/>
<path d="M107.49 886.786H124.902C124.902 887.753 124.902 888.72 124.902 889.688C124.902 892.092 121.004 894.04 116.196 894.04C111.388 894.04 107.49 892.092 107.49 889.688C107.49 888.72 107.49 887.753 107.49 886.786Z" fill="black"/>
<path d="M124.539 886.786C124.539 885.795 123.726 884.8 122.189 884.032C120.674 883.274 118.556 882.795 116.196 882.795C113.836 882.795 111.717 883.274 110.202 884.032C108.665 884.8 107.853 885.795 107.853 886.786C107.853 887.776 108.665 888.771 110.202 889.539C111.717 890.297 113.836 890.776 116.196 890.776C118.556 890.776 120.674 890.297 122.189 889.539C123.726 888.771 124.539 887.776 124.539 886.786Z" fill="#AEBEFF" stroke="black" stroke-width="0.725482"/>
<path d="M113.998 884.535L118.386 884.677C118.74 884.688 118.869 885.147 118.574 885.342L113.864 888.454C113.609 888.622 113.273 888.42 113.303 888.116L113.625 884.862C113.644 884.672 113.807 884.529 113.998 884.535Z" fill="black"/>
<path d="M82.0982 886.786H64.6865C64.6865 887.753 64.6867 888.72 64.6867 889.688C64.6867 892.092 68.5844 894.04 73.3925 894.04C78.2005 894.04 82.0982 892.092 82.0982 889.688C82.0982 888.72 82.098 887.753 82.0982 886.786Z" fill="black"/>
<path d="M65.0498 886.786C65.0498 885.795 65.8623 884.8 67.3992 884.032C68.9143 883.274 71.0329 882.795 73.3929 882.795C75.7528 882.795 77.8714 883.274 79.3865 884.032C80.9234 884.8 81.7359 885.795 81.7359 886.786C81.7359 887.776 80.9234 888.771 79.3865 889.539C77.8714 890.297 75.7528 890.776 73.3929 890.776C71.0329 890.776 68.9143 890.297 67.3992 889.539C65.8623 888.771 65.0498 887.776 65.0498 886.786Z" fill="#AEBEFF" stroke="black" stroke-width="0.725482"/>
<path d="M75.5907 884.535L71.2023 884.677C70.8488 884.688 70.719 885.147 71.0141 885.342L75.7246 888.454C75.9795 888.622 76.3156 888.42 76.2855 888.116L75.9633 884.862C75.9445 884.672 75.7816 884.529 75.5907 884.535Z" fill="black"/>
<path d="M167.705 886.786H150.293C150.293 887.753 150.294 888.72 150.294 889.688C150.294 892.092 154.191 894.04 158.999 894.04C163.807 894.04 167.705 892.092 167.705 889.688C167.705 888.72 167.705 887.753 167.705 886.786Z" fill="black"/>
<path d="M150.657 886.786C150.657 885.795 151.469 884.8 153.006 884.032C154.521 883.274 156.64 882.795 159 882.795C161.36 882.795 163.478 883.274 164.993 884.032C166.53 884.8 167.343 885.795 167.343 886.786C167.343 887.776 166.53 888.771 164.993 889.539C163.478 890.297 161.36 890.776 159 890.776C156.64 890.776 154.521 890.297 153.006 889.539C151.469 888.771 150.657 887.776 150.657 886.786Z" fill="#AEBEFF" stroke="black" stroke-width="0.725482"/>
<path d="M161.198 884.535L156.809 884.677C156.456 884.688 156.326 885.147 156.621 885.342L161.332 888.454C161.586 888.622 161.923 888.42 161.892 888.116L161.57 884.862C161.551 884.672 161.388 884.529 161.198 884.535Z" fill="black"/>
</g>
</svg>
