<?xml version="1.0" encoding="UTF-8" standalone="no"?>
<!-- Created with Inkscape (http://www.inkscape.org/) -->

<svg
   width="292.15466mm"
   height="229.97717mm"
   viewBox="0 0 292.15466 229.97717"
   version="1.1"
   id="svg1"
   xml:space="preserve"
   sodipodi:docname="mau.svg"
   inkscape:version="1.3.2 (091e20e, 2023-11-25, custom)"
   xmlns:inkscape="http://www.inkscape.org/namespaces/inkscape"
   xmlns:sodipodi="http://sodipodi.sourceforge.net/DTD/sodipodi-0.dtd"
   xmlns="http://www.w3.org/2000/svg"
   xmlns:svg="http://www.w3.org/2000/svg"><sodipodi:namedview
     id="namedview1"
     pagecolor="#ffffff"
     bordercolor="#000000"
     borderopacity="0.25"
     inkscape:showpageshadow="2"
     inkscape:pageopacity="0.0"
     inkscape:pagecheckerboard="0"
     inkscape:deskcolor="#d1d1d1"
     inkscape:document-units="mm"
     showgrid="false"
     inkscape:zoom="0.43767838"
     inkscape:cx="113.09674"
     inkscape:cy="402.12175"
     inkscape:window-width="1560"
     inkscape:window-height="970"
     inkscape:window-x="-6"
     inkscape:window-y="-6"
     inkscape:window-maximized="1"
     inkscape:current-layer="svg1" /><defs
     id="defs1"><clipPath
       clipPathUnits="userSpaceOnUse"
       id="clipPath5"><path
         d="M 0,988.906 H 1170.377 V 0 H 0 Z"
         transform="translate(-399.22381,-170.1112)"
         id="path5" /></clipPath></defs><g
     id="layer-MC0"
     transform="matrix(0.26458333,0,0,0.26458333,-28.137818,-68.49084)"><path
       id="path1"
       d="m 901.08365,377.42302 175.76395,338.62266 h 133.7067 L 973.24765,258.86302 H 828.91698 l -87.90399,169.35867 66.852,128.79066 z"
       style="fill:#008cfa;fill-opacity:1;fill-rule:evenodd;stroke:none;stroke-width:1.33333" /><path
       id="path2"
       d="M 658.45525,377.42302 834.22058,716.04301 H 967.92591 L 730.61925,258.86302 H 586.28858 l -87.90799,169.35333 66.85466,128.796 z m -143.76666,276.95999 -32.00667,61.66 H 348.97526 l 98.86266,-190.45733 z"
       style="fill:#0064be;fill-opacity:1;fill-rule:evenodd;stroke:none;stroke-width:1.33333" /><path
       id="path3"
       d="m 415.82232,377.42302 175.768,338.62266 h 133.72532 l 32.00667,-61.66667 -66.856,-128.79333 -32.016,61.68 L 487.98632,258.86302 H 343.65566 l -237.308,457.18266 h 133.7067 z"
       style="fill:#008cfa;fill-opacity:1;fill-rule:evenodd;stroke:none;stroke-width:1.33333" /><path
       id="path4"
       d="m 0,0 -0.636,118.781 -57.633,-96.69 h -28.175 l -57.31,93.489 V 0 h -58.589 v 224.116 h 52.187 L -71.396,94.769 5.447,224.116 H 57.633 L 58.273,0 Z m 253.254,43.542 h -94.77 L 140.876,0 H 76.2 l 98.933,224.116 h 62.432 L 336.821,0 H 270.866 Z M 234.688,90.283 205.869,162.005 177.054,90.283 Z M 453.359,-4.485 c -33.297,0 -59.178,9.072 -77.639,27.214 -18.465,18.144 -27.698,43.864 -27.698,77.161 v 124.226 h 63.394 V 101.811 c 0,-35.858 14.196,-53.787 42.582,-53.787 28.176,0 42.264,17.929 42.264,53.787 v 122.305 h 62.432 V 99.89 c 0,-33.297 -9.232,-59.017 -27.697,-77.161 C 512.536,4.587 486.655,-4.485 453.359,-4.485"
       style="fill:#000000;fill-opacity:1;fill-rule:nonzero;stroke:none"
       transform="matrix(1.3333333,0,0,-1.3333333,410.85165,1122.0881)"
       clip-path="url(#clipPath5)" /></g></svg>
