<?xml version="1.0" encoding="UTF-8" standalone="no"?>
<svg
   viewBox="0 0 38.173373 51.172345"
   version="1.1"
   id="svg1"
   sodipodi:docname="backend-logo.svg"
   width="38.173374"
   height="51.172344"
   inkscape:version="1.3.2 (091e20e, 2023-11-25, custom)"
   xmlns:inkscape="http://www.inkscape.org/namespaces/inkscape"
   xmlns:sodipodi="http://sodipodi.sourceforge.net/DTD/sodipodi-0.dtd"
   xmlns="http://www.w3.org/2000/svg"
   xmlns:svg="http://www.w3.org/2000/svg"
   xmlns:rdf="http://www.w3.org/1999/02/22-rdf-syntax-ns#"
   xmlns:cc="http://creativecommons.org/ns#"
   xmlns:dc="http://purl.org/dc/elements/1.1/">
  <sodipodi:namedview
     id="namedview1"
     pagecolor="#ffffff"
     bordercolor="#000000"
     borderopacity="0.25"
     inkscape:showpageshadow="2"
     inkscape:pageopacity="0.0"
     inkscape:pagecheckerboard="0"
     inkscape:deskcolor="#d1d1d1"
     showgrid="false"
     inkscape:zoom="1.1603054"
     inkscape:cx="212.44407"
     inkscape:cy="107.73026"
     inkscape:window-width="1560"
     inkscape:window-height="970"
     inkscape:window-x="-6"
     inkscape:window-y="-6"
     inkscape:window-maximized="1"
     inkscape:current-layer="svg1" />
  <defs
     id="defs1">
    <style
       id="style1">.cls-1{fill:#063;}</style>
  </defs>
  <title
     id="title1">Ресурс 7</title>
  <path
     class="cls-1"
     d="m 17.416686,46.75 c 0.599056,-0.291829 0.984943,-0.893813 1,-1.56 0.01322,-0.435851 -0.170398,-0.854512 -0.5,-1.14 -0.410683,-0.325745 -0.926641,-0.489428 -1.45,-0.46 -0.388017,-0.0081 -0.772242,0.0777 -1.12,0.25 -0.713456,0.318448 -1.161028,1.039317 -1.13,1.82 -0.0013,0.725685 0.415123,1.387338 1.07,1.7 -0.266607,0.132435 -0.518075,0.293374 -0.75,0.48 -0.358196,0.344091 -0.554323,0.823515 -0.54,1.32 -0.01695,0.378146 0.08442,0.752169 0.29,1.07 0.420275,0.599971 1.118229,0.943289 1.85,0.91 0.338956,0.01217 0.677418,-0.03521 1,-0.14 0.618128,-0.203299 1.122466,-0.656841 1.39,-1.25 0.154253,-0.349261 0.229379,-0.728307 0.22,-1.11 0.01681,-0.389378 -0.08051,-0.775185 -0.28,-1.11 -0.270229,-0.35728 -0.638511,-0.62828 -1.06,-0.78 m -1.81,-2.27 c 0.19906,-0.203655 0.475506,-0.312778 0.76,-0.3 0.315427,-0.01568 0.623223,0.1002 0.85,0.32 0.212569,0.226623 0.324388,0.529619 0.31,0.84 0.02157,0.49467 -0.227403,0.961978 -0.65,1.22 l -0.29,-0.12 -0.37,-0.18 c -0.193698,-0.08857 -0.372489,-0.206636 -0.53,-0.35 -0.213188,-0.187258 -0.336787,-0.456267 -0.34,-0.74 -0.0017,-0.256088 0.09497,-0.503057 0.27,-0.69 z m 1.63,5.71 c -0.218087,0.244107 -0.5328,0.379506 -0.86,0.37 -0.493094,0.0044 -0.946222,-0.270587 -1.17,-0.71 -0.144687,-0.259116 -0.213966,-0.553554 -0.2,-0.85 -0.0021,-0.582021 0.282031,-1.127888 0.76,-1.46 l 0.14,0.06 c 0.343699,0.129715 0.677856,0.283427 1,0.46 0.435166,0.220489 0.703953,0.672363 0.69,1.16 0.01629,0.356909 -0.109574,0.705719 -0.35,0.97 z m -5.13,0.22 c 0.33015,0.05983 0.664541,0.09326 1,0.1 l 0.07,0.05 v 0.33 l -0.06,0.06 h -1.83 -2.2199997 l -0.06,-0.05 v -0.33 l 0.06,-0.05 0.53,-0.05 c 0.1995995,-0.0058 0.3977359,-0.03607 0.5899997,-0.09 0.07229,-0.04661 0.125497,-0.117555 0.15,-0.2 0.09983,-0.661675 0.133333,-1.331667 0.1,-2 v -1.37 -1.52 -0.4 c 0,-0.18 0,-0.27 -0.11,-0.27 -0.107619,0.0279 -0.211645,0.06817 -0.31,0.12 l -1.2599997,0.59 h -0.06 c -0.024877,-0.228417 -0.061593,-0.455389 -0.11,-0.68 v 0 c 0.98,-0.28 2.0799997,-0.653333 3.2999997,-1.12 l 0.11,0.08 c 0,0.21 0,0.52 -0.06,0.94 v 1.26 2.1 c -0.03458,0.807303 -0.01119,1.616046 0.07,2.42 0.02453,0.07385 0.08473,0.130284 0.16,0.15 m 22.24,-25.67 c 0.436828,-0.993587 0.771872,-2.028873 1,-3.09 l 2.48,-0.09 c 0.395582,-2.175497 0.395582,-4.404503 0,-6.58 l -2.48,-0.05 c -0.23899,-1.104429 -0.594306,-2.180433 -1.06,-3.21 l 2,-1.44 c -1.018738,-2.09971 -2.423128,-3.9891902 -4.14,-5.57 l -2,1.44 v 0 c -0.71869,-0.6214503 -1.491803,-1.1770205 -2.31,-1.66 l 0.83,-2.31 C 26.70076,1.0962935 24.48541,0.33296436 22.186686,0 l -0.84,2.33 h -0.11 c -1.429837,-0.1415758 -2.870163,-0.1415758 -4.3,0 h -0.11 L 15.996686,0 C 13.716455,0.31609734 11.515356,1.0554495 9.5066863,2.18 L 10.336686,4.49 C 9.5070403,4.9736002 8.7237279,5.5326309 7.9966863,6.16 v 0 l -2,-1.42 c -1.5058537,1.7632383 -2.8890946,3.6276065 -4.14,5.58 l 2,1.44 c -0.4667829,1.041424 -0.8285722,2.126791 -1.08,3.24 l -2.47999998,0.06 c -0.39558176,2.175497 -0.39558176,4.404503 0,6.58 l 2.47999998,0.09 c 0.2276618,1.061252 0.5627209,2.096585 1,3.09 v 0 0.09 l -2,1.43 v 0 0 c 1.0554855,2.1247 2.4849637,4.041962 4.22,5.66 l 2,-1.44 c 0.39,0.3 0.77,0.61 1.18,0.91 l -2,3.39 v 4.84 c 8.8099997,-2.45 15.1099997,-2.45 23.9199997,0 v -4.89 l -2,-3.39 c 0.39,-0.29 0.77,-0.57 1.14,-0.88 v 0 l 2,1.44 c 1.716518,-1.581129 3.120854,-3.470538 4.14,-5.57 l -2,-1.44 v -0.09 0 m -19.06,12.21 -2.62,-5.24 -1.1,5.76 -1.34,0.19 1.51,-7.8 1.29,-0.18 3.61,7.12 z m 5.56,-6.27 h -1.22 V 37 h -1.3 v -6.18 h -1.2 V 29.4 h 3.72 z m 5,4.5 c -0.276141,0.654701 -0.708806,1.231589 -1.26,1.68 -0.345636,0.254182 -0.772995,0.371706 -1.2,0.33 -0.740876,-0.140247 -1.369457,-0.62749 -1.69,-1.31 l 0.95,-0.84 c 0.28,0.473333 0.583333,0.73 0.91,0.77 0.127744,0.02274 0.259393,-0.0022 0.37,-0.07 0.139034,-0.0987 0.266505,-0.212755 0.38,-0.34 l -1.66,-6.08 1.43,0.18 1.06,4.36 1.83,-4 1.31,0.16 z m 6.32,-14.27 c -0.676049,3.072527 -2.454929,5.790655 -5,7.64 l -5.39,-4.44 h 4.58 l -4.86,-6.25 h 3.25 l -3.78,-4.77 h 2.24 l -4.15,-5.31 -4.19,5.31 h 2.24 l -3.75,4.77 h 3.25 l -4.83,6.23 h 4.59 l -5.4,4.46 C 8.4516153,26.840655 6.6727356,24.122527 5.9966863,21.05 5.7948865,20.215089 5.6941642,19.358949 5.6966863,18.5 V 18.3 C 5.755892,11.754314 10.733364,6.302797 17.246686,5.65 c 0.468466,-0.0478 0.939103,-0.071165 1.41,-0.07 h 0.86 c 0.470897,-0.00117 0.941534,0.0222 1.41,0.07 5.511644,0.559471 10.042971,4.590901 11.24,10 0.185188,0.861252 0.282354,1.739097 0.29,2.62 v 0.2 c 0.0054,0.869008 -0.09531,1.735426 -0.3,2.58 z M 6.9966863,40.85 c 7.8497237,-2.517722 16.2902757,-2.517722 24.1399997,0 v 0 0.92 H 6.9966863 v -0.93 0 m 14.9299997,2.75 c -0.476222,-0.01232 -0.943372,0.131686 -1.33,0.41 -0.398696,0.302222 -0.692499,0.721941 -0.84,1.2 -0.219406,0.746149 -0.317325,1.522741 -0.29,2.3 -0.05028,0.92038 0.131993,1.838605 0.53,2.67 0.374195,0.650146 1.080735,1.036233 1.83,1 0.80528,0.0066 1.543391,-0.447955 1.9,-1.17 0.419823,-0.941463 0.601828,-1.971678 0.53,-3 0.08158,-0.940981 -0.12043,-1.884836 -0.58,-2.71 -0.419499,-0.515738 -1.067847,-0.789318 -1.73,-0.73 m 0.91,5.79 c -0.106667,0.786667 -0.413333,1.183333 -0.92,1.19 -0.305014,-0.0054 -0.580397,-0.183837 -0.71,-0.46 -0.101513,-0.206085 -0.175481,-0.424625 -0.22,-0.65 -0.165024,-0.900185 -0.235407,-1.815166 -0.21,-2.73 -0.03486,-0.676179 0.04977,-1.353208 0.25,-2 0.105561,-0.335706 0.418101,-0.563009 0.77,-0.56 0.393333,0 0.67,0.243333 0.83,0.73 0.242026,0.980668 0.343042,1.990826 0.3,3 0.003,0.511406 -0.0271,1.022469 -0.09,1.53 z m 5.14,-2.58 c 0.401089,-3.57e-4 0.788575,0.145395 1.09,0.41 0.3636,0.314289 0.559623,0.780308 0.53,1.26 0.0039,0.756812 -0.347856,1.47152 -0.95,1.93 -0.623438,0.52417 -1.415623,0.80481 -2.23,0.79 -0.449589,0.002 -0.893871,-0.09714 -1.3,-0.29 -0.0495,-0.528815 -0.136381,-1.05346 -0.26,-1.57 v -0.07 l 0.27,-0.08 h 0.07 c 0.197012,0.777965 0.887733,1.329724 1.69,1.35 0.374806,0.02558 0.741475,-0.117422 1,-0.39 0.262904,-0.307366 0.392463,-0.706839 0.36,-1.11 0.02424,-0.391294 -0.121559,-0.774013 -0.4,-1.05 -0.277251,-0.238629 -0.634451,-0.363649 -1,-0.35 -0.213536,0.0049 -0.425439,0.03855 -0.63,0.1 l -0.06,-0.07 c 0.08135,-0.266161 0.148117,-0.536563 0.2,-0.81 h 0.44 c 0.308269,0.0033 0.60449,-0.119556 0.82,-0.34 0.221718,-0.199755 0.351838,-0.481681 0.36,-0.78 0.0078,-0.273953 -0.105625,-0.537401 -0.31,-0.72 -0.210487,-0.189918 -0.486687,-0.290354 -0.77,-0.28 -0.374225,-0.05157 -0.749467,0.08727 -1,0.37 -0.103674,0.157818 -0.184476,0.329523 -0.24,0.51 l -0.06,0.18 h -0.07 -0.27 l -0.05,-0.07 0.19,-0.87 c 0.05267,-0.237715 0.09273,-0.478051 0.12,-0.72 0.509873,-0.361893 1.12524,-0.544745 1.75,-0.52 0.510485,-0.02597 1.013637,0.129938 1.42,0.44 0.330039,0.276574 0.514443,0.68964 0.5,1.12 -0.03739,0.737748 -0.514652,1.380678 -1.21,1.63"
     id="path1"
     sodipodi:nodetypes="cccccccccccccccccccccccccccccccccccccccccccccccccccccsccccssccccccccccccccccsccccccccccsccccccccsccccsccccccccsccccccccccccccccccccccccccccccccccccccccccccccccccccccccccccccccccsccccccccccccccccccccccccccccccccccccccccccccccccccccccccccccc" />
  <metadata
     id="metadata1">
    <rdf:RDF>
      <cc:Work
         rdf:about="">
        <dc:title>Ресурс 7</dc:title>
      </cc:Work>
    </rdf:RDF>
  </metadata>
</svg>
