<?xml version="1.0" encoding="UTF-8" standalone="no"?>
<svg
   version="1.1"
   id="polyLogo_1_"
   x="0px"
   y="0px"
   viewBox="0 0 65.400002 66.5"
   xml:space="preserve"
   sodipodi:docname="polytech-logo-en-big.svg"
   width="65.400002"
   height="66.5"
   inkscape:version="1.3.2 (091e20e, 2023-11-25, custom)"
   xmlns:inkscape="http://www.inkscape.org/namespaces/inkscape"
   xmlns:sodipodi="http://sodipodi.sourceforge.net/DTD/sodipodi-0.dtd"
   xmlns="http://www.w3.org/2000/svg"
   xmlns:svg="http://www.w3.org/2000/svg"><defs
   id="defs1" /><sodipodi:namedview
   id="namedview1"
   pagecolor="#ffffff"
   bordercolor="#000000"
   borderopacity="0.25"
   inkscape:showpageshadow="2"
   inkscape:pageopacity="0.0"
   inkscape:pagecheckerboard="0"
   inkscape:deskcolor="#d1d1d1"
   showgrid="false"
   inkscape:zoom="2.5773585"
   inkscape:cx="131.33602"
   inkscape:cy="33.367496"
   inkscape:window-width="1560"
   inkscape:window-height="970"
   inkscape:window-x="-6"
   inkscape:window-y="-6"
   inkscape:window-maximized="1"
   inkscape:current-layer="polyLogo_1_" />
<style
   type="text/css"
   id="style1">
	.st0{fill:#404041;}
	.st1{fill:#37B34A;}
</style>


<path
   id="polytechLogo"
   class="st1"
   d="m 55.7,7.6 c 1.5,0.6 4,4.4 3.4,8.5 -2.8,2.3 -6.3,3.9 -9.5,4.4 v 26.3 h 9.8 c 0,4 -0.6,7.3 -1.3,8.4 h -18 V 20.9 H 27.7 v 20.5 c 0,10.3 -5.8,15.4 -13.2,15.4 -2.1,0 -4.6,-0.3 -6.7,-0.9 -1,-1.3 -1.5,-5.3 -1.6,-10.3 4.9,2.4 11.6,3.5 12.2,-4.2 V 22.2 C 10.9,23 8.1,28.3 5.6,31.8 5.6,27.1 5.9,22.9 6.1,20 11.2,14.5 16.9,11.9 28.2,11.9 h 16.2 c 3.9,0 7.7,-1.5 11.3,-4.3 M 32.7,0 C 18.1,0 12.3,0.9 12.3,0.9 6,1.2 1.6,5.5 1,12.8 c 0,0 -1,9.5 -1,20.5 0,11 1,20.5 1,20.5 0.7,7.3 5,11.6 11.3,11.8 0,0 5.9,0.9 20.4,0.9 14.5,0 20.4,-0.9 20.4,-0.9 6.2,-0.3 10.6,-4.5 11.3,-11.8 0,0 1,-9.2 1,-20.5 0,-11 -1,-20.5 -1,-20.5 C 63.7,5.5 59.4,1.2 53.1,1 53.1,0.9 47.2,0 32.7,0" />
</svg>
