<?xml version="1.0" encoding="utf-8"?>
<!-- Generator: Adobe Illustrator 23.1.0, SVG Export Plug-In . SVG Version: 6.00 Build 0)  -->
<svg version="1.1" id="Слой_1" xmlns="http://www.w3.org/2000/svg" xmlns:xlink="http://www.w3.org/1999/xlink" x="0px" y="0px"
	 viewBox="0 0 291.63 294.34" style="enable-background:new 0 0 291.63 294.34;" xml:space="preserve">
<style type="text/css">
	.st0{fill-rule:evenodd;clip-rule:evenodd;fill:#004394;}
	.st1{fill-rule:evenodd;clip-rule:evenodd;fill:#51C6EE;}
	.st2{fill-rule:evenodd;clip-rule:evenodd;fill:#FFFFFF;}
	.st3{fill-rule:evenodd;clip-rule:evenodd;fill:#FDFEFF;}
	.st4{fill-rule:evenodd;clip-rule:evenodd;fill:#4F4F4B;}
	.st5{fill-rule:evenodd;clip-rule:evenodd;fill:#C2C1BE;}
</style>
<g>
	<path class="st0" d="M145.04,78.71c-0.23-0.01-0.46-0.04-0.69-0.09l-0.48,2.08l1.17,2.41V78.71z M146.03,78.62l0.48,2.08
		l-1.18,2.44v-4.43C145.57,78.69,145.8,78.67,146.03,78.62z M147.91,77.82l-1.18,2.45l-0.39-1.72
		C146.9,78.4,147.45,78.14,147.91,77.82z M148.68,77.18l-1.3,5.97l-0.54-2.4l1.63-3.35C148.54,77.32,148.61,77.25,148.68,77.18z
		 M141.93,77.44c-0.08-0.07-0.15-0.14-0.22-0.21l1.28,5.91l0.55-2.4L141.93,77.44z M145.38,83.83l-0.02-0.04l1.27-2.6l0.6,2.64
		H145.38z M143.15,83.83l0.6-2.64l1.27,2.6L145,83.83H143.15z M157.88,87.04c0.02,0.04,0.04,0.08,0.05,0.12
		c0.31,0.59,0.66,1.37,0.75,2.02c0.05,0.37,0,0.69-0.21,0.91h-0.59V87.04z M133.11,90.08h-0.72V86.3h0.72
		C133.11,87.55,133.11,88.82,133.11,90.08z M133.98,90.08h-0.72c0-1.26,0-2.53,0-3.78h0.72C133.98,87.55,133.98,88.82,133.98,90.08z
		 M134.86,90.08h-0.72c0-1.26,0-2.53,0-3.78h0.72C134.86,87.55,134.86,88.82,134.86,90.08z M135.74,90.08h-0.72
		c0-1.26,0-2.53,0-3.78h0.72C135.74,87.55,135.74,88.82,135.74,90.08z M136.62,90.08h-0.72c0-1.26,0-2.53,0-3.78h0.72
		C136.62,87.55,136.62,88.82,136.62,90.08z M137.5,90.08h-0.72c0-1.26,0-2.53,0-3.78h0.72C137.5,87.55,137.5,88.82,137.5,90.08z
		 M137.88,86.3v3.78h-0.23c0-1.26,0-2.53,0-3.78H137.88z M153.33,90.08h-0.73V86.3h0.73V90.08z M154.21,90.08h-0.73V86.3h0.73V90.08
		z M155.09,90.08h-0.73V86.3h0.73V90.08z M155.97,90.08h-0.73V86.3h0.73V90.08z M156.85,90.08h-0.73V86.3h0.73V90.08z M157.73,90.08
		H157V86.3h0.73V90.08z M132.23,90.08h-0.57c-0.21-0.22-0.25-0.54-0.21-0.91c0.08-0.64,0.44-1.42,0.74-2.02
		c0.01-0.02,0.02-0.04,0.03-0.06V90.08z M121.22,194.34h0.27l0.63,0.85l0.77,0.49l0.27,0.22l0.63-0.22l0.04,0.67l0.23,0.39
		l-0.18,0.19l-0.23,1.25l0.14,0.41v0.35l-0.41,0.9v0.94l-0.81,0.18l-1.25-6.14L121.22,194.34z M115.61,210.68l1.61-0.01l0.14-0.63
		l0.09-0.32l0.9-1.34l0.58-0.98l0.5-0.59l0.14-0.49l0.09,0.09l0.62,1.34l0.5,0.76l0.18,0.86l-0.49,0.85l0.08,0.47H115.61z
		 M113.21,210.68v5.39H102.4v7.9h85.71v-7.9h-9.34v-5.39H177l0.42-0.24l0.14-0.28l-0.49-0.58l-0.81-0.35v-0.04l-0.45-0.81l0.04-0.31
		l0.05-0.36l-0.32-0.36l-0.05-0.22v-0.68l-0.67-0.39v-0.32l-0.04-0.09l-0.37-0.63l-0.53-1.29l-0.05-0.77l-0.04-1.21l-0.28-0.63
		l-0.76-0.14h-0.67l-0.81-0.35l-0.89-0.23l-0.19,0.09l-0.99-0.63l-0.09-0.27l0.09-2.2l0.28-0.45l0.13-0.19v-0.3l-0.36-0.63
		l-0.36-0.76l-0.41-0.09l-0.31,0.09l-0.14-0.49l0.1-0.76l-0.23-0.23l0.09-0.9l0.23-1.52l0.26-0.14l0.36-0.41l-0.04-0.35l0.09-0.23
		l-0.14-0.27l0.14-0.18l-0.09-0.27l0.04-0.36l-0.09-0.13v-0.59l0.27-0.18v-0.22l-0.5-0.81h-0.18l-0.67,0.81l0.14,0.3l-0.11,0.73
		l-0.2-0.12l-0.6-0.35h-0.5l-0.46,0.08l-0.38,0.23l-0.12-0.07l0.08-0.24l-0.08-0.15l-0.8-0.15l-0.64,0.11v0.72l0.18,0.38l-0.06,0.26
		l-0.05,0.83l-0.25,1.41l-0.78,0.41l-0.57,0.47v-2.47h-5.21v-3.99l-1.56-1.56l-0.37-13.64c1.72-0.07,3.16-0.93,4.4-2.16
		c0.76-0.75,1.29-1.65,1.92-2.66c0.15-0.25,0.56-0.46,0.69-0.71c0.92-0.54,1.8-0.74,2.64-0.63c0.83,0.12,1.63,0.55,2.38,1.3
		c0.18-1.03,0.58-1.85,1.18-2.45c-0.67-0.52-0.99-1.34-1.16-2.29c-1.08,0.46-1.84,0.9-2.51,0.93c-1.47,0.06-2.14-0.89-2.05-0.88
		c0.52-0.34,1.4-0.67,2.13-0.66l1.28,0.01l0.18-0.31l-1.46-0.28V160l1.42-0.2l0.15-0.81l-1.5-0.02l-0.32-0.39l-0.93-0.03l-0.09-0.55
		l-0.2,0.58h-0.71c0-0.78,0.46-1.45,0.65-2.12c0.17-0.62,0.23-1.95-0.31-2.44c-0.19-0.16-0.46-0.27-0.73-0.27
		c-0.58,0-0.98,0.38-0.98,0.95c-0.02,0.36,0.19,0.6,0.5,0.79c0.1,0.06,0.16,0.18,0.3,0.19c0.43,0.09-1.61,1.84-1.65,1.84h-3.18v1.37
		h-2.37l-1.19-44.13c0.03,0.07,0.07,0.15,0.1,0.23c1.8-0.34,3.4-1.42,4.66-3.24c0.49-0.71,0.93-1.54,1.31-2.48
		c0.5-0.34,0.94-0.52,1.51-0.64c0.64-0.14,1.34-0.14,2.13,0.03c-0.5-0.87-0.34-1.47,0.13-1.93c-0.87,0.05-1.18-0.52-1.22-1.36
		c-0.57,0.39-1.17,0.72-1.79,0.91c-0.34,0.1-0.68,0.16-1.04,0.17c-0.09,0.02-0.18,0.04-0.28,0.06c0.01-0.05,0.02-0.1,0.03-0.16
		c0.06-0.14,0.11-0.29,0.16-0.43c0.18-0.29,0.34-0.57,0.52-0.86c0.08-0.12,0.16-0.23,0.25-0.34c0.12,0.01,0.23,0.02,0.36,0.03
		c0.12,0.09,0.25,0.17,0.37,0.28c0.01,0.04,0.02,0.07,0.03,0.12c0.09,0.06,0.19,0.12,0.27,0.19c0.1-0.01,0.21-0.02,0.31-0.03
		c0.07-0.1,0.15-0.19,0.22-0.27c-0.02-0.15-0.04-0.29-0.06-0.44c-0.07-0.09-0.13-0.18-0.19-0.28c-0.16-0.14-0.32-0.3-0.49-0.45
		c-0.02-0.05-0.04-0.09-0.06-0.13c-0.15-0.22-0.31-0.43-0.46-0.64c0.06-0.24,0.12-0.48,0.18-0.71c-0.03-0.01-0.06-0.01-0.09-0.03
		c-0.14,0.21-0.26,0.41-0.39,0.61c-0.07,0-0.13,0-0.19,0c-0.23,0.15-0.45,0.3-0.67,0.43c-0.1,0.14-0.19,0.27-0.28,0.4
		c-0.43,0.3-0.84,0.59-1.25,0.89c-0.12-0.1-0.23-0.19-0.35-0.27c0-0.09-0.06-0.23-0.06-0.31c0.03-1.29,0.03-2.55,0.06-3.84
		c-0.6-0.05-1.11-0.07-1.71-0.12c-0.03,0.96-0.03,1.91-0.07,2.88c0,0.14,0.04,0.32-0.06,0.43c-0.21,0.24-0.49,0.42-0.8,0.55
		c-0.45,0.2-0.91,0.35-1.4,0.45l-0.27-10c2.98-0.3,4.86-0.86,4.86-1.89c0-0.16-0.05-0.3-0.14-0.43h0.83v-2.08h-0.21
		c0.16-0.25,0.21-0.57,0.16-0.93c-0.08-0.67-0.45-1.46-0.76-2.07c-0.11-0.22-0.11-0.39-0.05-0.51c0.02-0.03,0.04-0.05,0.07-0.07
		c0.02-0.01,0.04-0.01,0.06-0.01c0.07,0.02,0.13,0.09,0.18,0.24l0.15-0.06c-0.08-0.2-0.19-0.3-0.3-0.32
		c-0.06-0.02-0.12-0.01-0.18,0.02c-0.05,0.03-0.09,0.08-0.13,0.14c0,0.01,0,0.01-0.01,0.02v-0.38h-5.41v-2.31h-4.92v-0.02l1.54-7.11
		c0.27-0.4,0.43-0.81,0.43-1.2v-2.26h1.38V72.2h-1.38v-1.04h-8.68v1.04h-1.39v1.04h1.39v2.26c0,0.41,0.18,0.85,0.48,1.27l1.53,7.04
		l-0.01,0.02h-4.95v2.31h-5.66v0.34c-0.03-0.04-0.07-0.08-0.11-0.11c-0.05-0.03-0.12-0.04-0.18-0.02c-0.11,0.02-0.22,0.13-0.28,0.32
		l0.14,0.06c0.06-0.15,0.12-0.21,0.19-0.24c0.02,0,0.04,0,0.06,0.01c0.03,0.02,0.05,0.04,0.07,0.07c0.06,0.12,0.06,0.29-0.05,0.51
		c-0.31,0.6-0.67,1.4-0.76,2.07c-0.06,0.47,0.02,0.88,0.34,1.13v1.89h1.01c-0.09,0.13-0.14,0.28-0.14,0.43
		c0,0.96,1.77,1.52,4.52,1.83l-0.28,10.09c-0.54-0.09-1.07-0.27-1.59-0.48c-0.3-0.13-0.58-0.31-0.79-0.55
		c-0.1-0.11-0.06-0.29-0.07-0.43c-0.03-0.97-0.04-1.93-0.06-2.88c-0.61,0.05-1.12,0.07-1.72,0.12c0.03,1.29,0.03,2.55,0.07,3.84
		c0,0.08-0.07,0.22-0.07,0.31c-0.11,0.09-0.23,0.18-0.34,0.27c-0.41-0.3-0.84-0.59-1.25-0.89c-0.09-0.13-0.19-0.26-0.28-0.4
		c-0.23-0.14-0.45-0.29-0.67-0.43c-0.06,0-0.13,0-0.19,0c-0.13-0.2-0.27-0.41-0.39-0.61c-0.04,0.02-0.07,0.02-0.1,0.03
		c0.06,0.23,0.13,0.47,0.19,0.71c-0.16,0.21-0.31,0.42-0.46,0.64c-0.01,0.04-0.04,0.08-0.06,0.13c-0.16,0.15-0.33,0.31-0.48,0.45
		c-0.06,0.1-0.13,0.19-0.19,0.28c-0.02,0.15-0.04,0.29-0.06,0.44c0.07,0.09,0.14,0.18,0.21,0.27c0.1,0.01,0.2,0.02,0.31,0.03
		c0.09-0.07,0.18-0.13,0.27-0.19c0.02-0.04,0.03-0.08,0.04-0.12c0.12-0.1,0.24-0.19,0.37-0.28c0.12-0.01,0.25-0.02,0.36-0.03
		c0.08,0.11,0.17,0.22,0.25,0.34c0.18,0.29,0.35,0.58,0.52,0.86c0.05,0.14,0.1,0.29,0.15,0.43c0.01,0.06,0.02,0.11,0.03,0.16
		c-0.09-0.02-0.18-0.04-0.28-0.06c-0.35-0.01-0.69-0.07-1.03-0.17c-0.62-0.19-1.21-0.52-1.79-0.91c-0.05,0.84-0.35,1.4-1.22,1.36
		c0.46,0.46,0.63,1.05,0.12,1.93c0.79-0.17,1.49-0.18,2.14-0.03c0.56,0.12,1,0.3,1.5,0.64c0.39,0.94,0.83,1.77,1.32,2.48
		c1.27,1.82,2.86,2.91,4.65,3.24c0.11-0.24,0.21-0.47,0.32-0.69l-1.16,42.88h-0.4c0,0.57,0,1.14,0,1.71h-2.7v-1.37h-3.18
		c-0.04,0-2.08-1.75-1.65-1.84c0.14-0.02,0.19-0.14,0.3-0.19c0.3-0.19,0.52-0.43,0.5-0.79c0-0.57-0.4-0.95-0.98-0.95
		c-0.27,0-0.54,0.11-0.73,0.27c-0.54,0.48-0.47,1.82-0.3,2.44c0.18,0.67,0.64,1.34,0.64,2.12h-0.71l-0.21-0.58l-0.09,0.55
		l-0.93,0.03l-0.32,0.39l-1.5,0.02l0.15,0.81l1.42,0.2v0.24l-1.46,0.28l0.18,0.31l1.28-0.01c0.73-0.01,1.61,0.32,2.13,0.66
		c0.09-0.01-0.58,0.94-2.05,0.88c-0.67-0.03-1.43-0.47-2.51-0.93c-0.16,0.95-0.48,1.76-1.15,2.29c0.61,0.6,1,1.42,1.18,2.45
		c0.75-0.75,1.55-1.19,2.38-1.3c0.84-0.11,1.72,0.1,2.64,0.63c0.14,0.25,0.54,0.46,0.69,0.71c0.63,1.01,1.17,1.91,1.93,2.66
		c1.3,1.29,2.81,2.16,4.62,2.16c0.16-0.38,0.32-0.73,0.48-1.09l-0.39,14.74l-1.56,1.56v3.99h-5.2v1.62l-0.5,0.74l-0.18-0.76
		l0.09-1.03l-0.85-0.98l-2.06-0.09l-1.08-0.09l-0.41,0.45l0.23,0.71l0.32,0.27l0.09,0.45l-0.18,0.72l0.09,0.18l0.27,0.05l0.23,0.59
		l0.32,0.49l-0.32,0.45l-0.99-0.54l-0.63-0.36l-1.03-0.54l-0.9-0.18l-0.72,0.13l-0.4,0.36v0.89l0.49,0.46l0.58,0.18l0.18,0.09
		l1.09,6.82l-1.62,0.54l-1.39,0.67l-0.27,0.58l-0.23,1.66l-0.67,1.03l-0.76,2.33l-0.54,1.09l-0.59,0.72l-1.07,0.23l-0.71-0.05v0.6
		H113.21z M144.05,78.55l-0.39,1.72l-1.18-2.42C142.95,78.16,143.48,78.41,144.05,78.55z"/>
	<rect x="97.2" y="228.86" class="st1" width="96.09" height="12.89"/>
	<path class="st0" d="M243.13,74.95v12.1c-31.6,38.4-44.33-23.38-77.46,10.77v-12.1C198.8,51.57,211.52,113.36,243.13,74.95z"/>
	<path class="st0" d="M243.13,132.03v12.1c-31.6,38.41-44.33-23.38-77.46,10.76v-12.1C198.8,108.66,211.52,170.43,243.13,132.03z"/>
	<path class="st1" d="M243.13,103.49v12.09c-31.6,38.41-44.33-23.37-77.46,10.77v-12.09C198.8,80.12,211.52,141.89,243.13,103.49z"
		/>
	<path class="st1" d="M243.13,160.57v12.09c-31.6,38.41-44.33-23.37-77.46,10.78v-12.1C198.8,137.19,211.52,198.98,243.13,160.57z"
		/>
	<path class="st1" d="M47.12,74.95c31.61,38.41,44.32-23.38,77.46,10.76v12.1c-29.38-30.28-42.73,14.88-67.41-1.3v73.52
		c24.68,16.18,38.03-28.98,67.41,1.3v12.1c-33.14-34.15-45.85,27.63-77.46-10.78V74.95z"/>
	<path class="st0" d="M26.58,225.68l-1.05,0.68l-1.29-1.92l11.8-7.69l1.28,1.93L30.71,223c-0.08,0.05-0.64,0.39-1.68,1
		c0.84-0.21,1.8-0.34,2.87-0.42l6.73-0.45l1.16-0.75l1.29,1.93l-11.81,7.68l-1.27-1.91l6.11-3.99c0.06-0.04,0.75-0.46,2.07-1.27
		c-0.84,0.2-1.8,0.33-2.88,0.41L26.58,225.68z"/>
	<polygon class="st0" points="41.95,226.01 30.87,234.68 32.09,236.2 41.55,228.79 34.12,238.76 35.18,240.07 46.71,235.27 
		37.26,242.67 38.62,244.38 49.7,235.7 47.63,233.12 37.86,237.14 44.1,228.7 	"/>
	<polygon class="st0" points="50.81,236.94 56.57,242.57 55.26,243.89 51.16,239.89 48.32,242.73 51.54,245.87 50.21,247.2 
		47,244.06 43.9,247.16 48.06,251.23 46.71,252.59 40.89,246.89 	"/>
	<polygon class="st0" points="57.75,243.79 59.46,245.36 55.5,249.61 58.57,252.41 62.53,248.14 64.26,249.71 54.68,260 
		52.96,258.43 57.22,253.85 54.16,251.05 49.91,255.64 48.18,254.07 	"/>
	<path class="st0" d="M59.71,262.47l6.19-2.6c1-0.43,1.87-0.86,2.59-1.32c-0.98,1.18-1.49,1.81-1.53,1.87l-4.47,5.74l1.84,1.4
		l8.63-11.06l-1.85-1.41l-0.84,1.09l-6.22,2.59c-1,0.41-1.84,0.86-2.58,1.32c0.78-0.92,1.19-1.41,1.26-1.49l4.84-6.2l-1.84-1.41
		l-8.63,11.07l1.85,1.4L59.71,262.47z"/>
	<polygon class="st0" points="95.76,269.22 98.98,270.48 97.84,280.87 104.29,272.55 107.37,273.77 102.16,286.77 100.12,285.97 
		104.57,274.87 97.01,284.74 95.43,284.12 96.82,271.82 92.37,282.91 90.56,282.21 	"/>
	<path class="st0" d="M107.82,287.27l4.67-4.79c0.76-0.77,1.37-1.52,1.87-2.22c-0.44,1.47-0.66,2.24-0.68,2.31l-1.84,7.01l2.25,0.59
		l3.57-13.52l-2.25-0.58l-0.34,1.31l-4.7,4.8c-0.75,0.76-1.36,1.5-1.84,2.21c0.35-1.15,0.54-1.77,0.56-1.86l2-7.58l-2.25-0.59
		l-3.57,13.52l2.25,0.58L107.82,287.27z"/>
	<polygon class="st0" points="139.95,294.07 137.8,294 142.02,280.14 144.89,280.23 148.12,294.3 145.66,294.23 143.18,282.54 	"/>
	<path class="st0" d="M75.14,268.19l4.83-4.54l-2.13,6.25L75.14,268.19z M78.07,276.37l4.42-13.79l-2.2-1.4l-11.06,9.59l1.88,1.2
		l2.65-2.49l3.48,2.2l-1.16,3.43L78.07,276.37z"/>
	<path class="st0" d="M86.54,278.2l-4.3-2.04l6.23-7.77l0.51,0.25L86.54,278.2z M88.38,265.73l-8.03,9.53l-0.73-0.35l-2.16,4.45
		l1.46,0.69l1.54-2.57l6.41,3.05l-1.06,2.8l1.46,0.69l2.15-4.45l-0.71-0.33l2.74-12.04L88.38,265.73z"/>
	<path class="st0" d="M125.02,282.48c-0.15,0.85-0.45,1.43-0.91,1.73c-0.45,0.32-1.18,0.39-2.21,0.21l-1.14-0.19l0.82-4.81l1.14,0.2
		c0.66,0.11,1.15,0.23,1.43,0.38c0.3,0.15,0.54,0.43,0.73,0.87C125.09,281.31,125.13,281.85,125.02,282.48z M127.16,280.27
		c-0.35-0.78-0.85-1.33-1.5-1.66c-0.65-0.32-1.53-0.57-2.63-0.75l-3.45-0.59l-2.36,13.78l2.3,0.39l0.93-5.38l1.19,0.2
		c1.33,0.23,2.34,0.25,3.03,0.07c0.69-0.19,1.29-0.57,1.78-1.16c0.5-0.59,0.82-1.34,0.98-2.25
		C127.59,281.94,127.5,281.05,127.16,280.27z"/>
	<path class="st0" d="M130.21,287.73l2.33-6.18l0.85,6.55L130.21,287.73z M134.34,279.5l-2.6-0.3l-5.69,13.41l2.21,0.26l1.27-3.38
		l4.1,0.47l0.48,3.57l2.36,0.28L134.34,279.5z"/>
	<path class="st0" d="M151.71,288.93l1.43-6.44l1.76,6.37L151.71,288.93z M154.63,280.21l-2.62,0.06l-3.74,14.07l2.22-0.05
		l0.79-3.53l4.13-0.1l0.97,3.48l2.37-0.05L154.63,280.21z"/>
	<path class="st0" d="M173.3,287.15l2.16-0.16c0.23,3.13-0.96,4.98-3.55,5.52c-1.68,0.36-3.06-0.01-4.17-1.1
		c-1.1-1.11-1.87-2.72-2.33-4.86c-0.49-2.3-0.43-4.16,0.17-5.57c0.61-1.43,1.73-2.31,3.37-2.65c2.54-0.54,4.35,0.7,5.46,3.71
		l-2.05,0.77c-0.67-2.02-1.67-2.89-2.99-2.62c-1.77,0.39-2.27,2.37-1.49,5.96c0.72,3.35,1.96,4.84,3.73,4.46
		c0.71-0.16,1.18-0.52,1.41-1.11C173.26,288.94,173.36,288.14,173.3,287.15z"/>
	<polygon class="st0" points="177.12,288.64 179.44,288.17 179.97,290.76 177.66,291.22 	"/>
	<polygon class="st0" points="191.96,284.42 194.16,283.55 195.14,286 192.95,286.88 	"/>
	<polygon class="st0" points="194.26,270.68 197.42,269.26 204.18,277.29 202.61,266.94 205.64,265.59 211.46,278.31 209.47,279.21 
		204.49,268.34 206.41,280.57 204.87,281.27 196.89,271.73 201.88,282.61 200.09,283.41 	"/>
	<polygon class="st0" points="215.55,259.44 217.46,258.11 221.35,263.54 220.93,255.66 222.95,254.25 222.98,260.52 231.63,265.29 
		229.56,266.74 222.94,262.9 222.95,265.76 225.63,269.5 223.72,270.85 	"/>
	<path class="st0" d="M187.72,285.21c-0.1,1.02-0.6,1.65-1.51,1.93c-0.96,0.29-1.77,0.03-2.41-0.79c-0.66-0.82-1.22-2-1.7-3.55
		c-0.49-1.58-0.68-2.89-0.6-3.91c0.09-1.03,0.59-1.68,1.52-1.96c0.94-0.29,1.73-0.03,2.38,0.76c0.65,0.81,1.23,2,1.72,3.59
		C187.62,282.88,187.82,284.19,187.72,285.21z M186.62,275.76c-1.19-0.91-2.57-1.13-4.14-0.65c-1.58,0.48-2.61,1.43-3.07,2.85
		c-0.47,1.43-0.36,3.27,0.35,5.55c0.71,2.3,1.66,3.9,2.86,4.8c1.2,0.91,2.58,1.14,4.16,0.66c1.58-0.48,2.6-1.43,3.05-2.85
		c0.46-1.42,0.35-3.27-0.37-5.55C188.76,278.28,187.8,276.67,186.62,275.76z"/>
	<path class="st0" d="M213.51,270.85l-1.9-6.33l4.65,4.72L213.51,270.85z M209.53,263.12l3.61,14.1l1.93-1.12l-1.03-3.46l3.57-2.06
		l2.55,2.58l2.05-1.19l-10.41-10.16L209.53,263.12z"/>
	<path class="st0" d="M233.8,256.76l-2.55,1.93l-2.66-6.06L233.8,256.76z M226.37,251.49l5.32,13.57l1.78-1.34l-1.46-3.31l3.28-2.48
		l2.86,2.26l1.88-1.43l-11.57-8.84L226.37,251.49z"/>
	<path class="st0" d="M237.8,250.18l-3.45-3.48l0.83-0.8c0.48-0.46,0.87-0.77,1.16-0.93c0.3-0.14,0.67-0.18,1.13-0.07
		c0.48,0.1,0.94,0.39,1.38,0.85c0.61,0.61,0.91,1.2,0.9,1.74c-0.01,0.55-0.39,1.18-1.13,1.9L237.8,250.18z M239.98,250.68
		c0.96-0.94,1.58-1.74,1.84-2.4c0.26-0.66,0.28-1.36,0.1-2.1c-0.19-0.74-0.61-1.44-1.26-2.09c-0.71-0.72-1.49-1.16-2.33-1.35
		c-0.84-0.18-1.59-0.1-2.23,0.23c-0.65,0.34-1.38,0.89-2.16,1.66l-2.51,2.42l9.88,10l1.68-1.61l-3.86-3.91L239.98,250.68z"/>
	<path class="st0" d="M251,244.77c-0.67,0.74-1.49,0.94-2.48,0.57c-0.99-0.37-2.09-1.09-3.32-2.16c-1.25-1.1-2.1-2.11-2.57-3.03
		c-0.46-0.92-0.38-1.74,0.28-2.46c0.64-0.72,1.45-0.91,2.43-0.56c0.98,0.34,2.09,1.07,3.35,2.17c1.27,1.12,2.13,2.13,2.58,3.06
		C251.72,243.27,251.63,244.07,251,244.77z M250.32,237.48c-1.81-1.59-3.46-2.46-4.95-2.63c-1.5-0.17-2.79,0.35-3.88,1.56
		c-1.1,1.23-1.47,2.57-1.13,4.02c0.34,1.46,1.42,2.97,3.21,4.56c1.82,1.6,3.47,2.47,4.97,2.64c1.5,0.16,2.81-0.37,3.9-1.59
		c1.09-1.21,1.46-2.55,1.11-4C253.2,240.6,252.13,239.07,250.32,237.48z"/>
	<path class="st0" d="M258.39,235.52l-1.18,1.46l-3.57-2.84l1.05-1.3c0.7-0.87,1.35-1.3,1.95-1.29c0.6,0.01,1.13,0.19,1.59,0.56
		C259.41,233.05,259.47,234.19,258.39,235.52z M252.21,233.03l-3.15-2.5l1.07-1.33c0.5-0.61,0.98-0.98,1.45-1.07
		c0.47-0.1,1,0.06,1.55,0.5c0.47,0.38,0.75,0.81,0.85,1.3c0.09,0.5-0.19,1.14-0.84,1.95L252.21,233.03z M259.93,230.41
		c-1.43-1.13-2.88-1.21-4.36-0.23c0.48-1.39,0.12-2.57-1.1-3.54c-0.67-0.53-1.36-0.83-2.07-0.9c-0.7-0.07-1.3,0.06-1.79,0.38
		c-0.49,0.33-1.06,0.91-1.73,1.74l-2.66,3.3l11.03,8.74l2.71-3.35c1.18-1.47,1.67-2.69,1.48-3.69
		C261.24,231.89,260.74,231.07,259.93,230.41z"/>
	<path class="st0" d="M260.88,225.61l-4.59-4.78l6.33,2.11L260.88,225.61z M267.87,224.68l1.29-1.97l-13.94-4.39l-1.41,2.18
		l9.69,10.94l1.21-1.86l-2.52-2.61l2.23-3.45L267.87,224.68z"/>
	<polygon class="st0" points="24.82,198.34 11.95,203.81 9.31,197.57 11.09,196.8 12.84,200.92 23.92,196.22 	"/>
	<path class="st0" d="M12.12,173.84l-0.27-2.13c3.12-0.39,5.01,0.69,5.69,3.21c0.45,1.64,0.14,3.03-0.9,4.18
		c-1.05,1.14-2.63,2-4.74,2.56c-2.27,0.61-4.13,0.65-5.57,0.13c-1.45-0.52-2.38-1.59-2.81-3.19c-0.67-2.48,0.48-4.35,3.44-5.6
		l0.86,2c-1.99,0.77-2.79,1.81-2.45,3.1c0.46,1.73,2.47,2.11,6.03,1.16c3.31-0.89,4.73-2.2,4.26-3.93
		c-0.19-0.69-0.57-1.14-1.17-1.34C13.9,173.77,13.11,173.72,12.12,173.84z"/>
	<path class="st0" d="M11.57,166.84l0.53,0.09c0.79,0.14,1.27,0.34,1.45,0.59c0.17,0.25,0.28,0.48,0.31,0.67l0.14,0.95l1.97-0.32
		l-0.15-0.94c-0.15-0.93-0.5-1.59-1.04-1.99c-0.55-0.4-1.51-0.71-2.88-0.94l-10.99-1.88l0.32,2.07l7.4,1.18l-6.62,3.75l0.38,2.34
		L11.57,166.84z"/>
	<path class="st0" d="M17.91,189.45c-0.82,0.64-2,1.21-3.55,1.68c-1.58,0.49-2.89,0.68-3.91,0.59c-1.03-0.09-1.68-0.59-1.97-1.51
		c-0.28-0.92-0.02-1.71,0.78-2.35c0.8-0.65,1.99-1.22,3.58-1.7c1.61-0.49,2.92-0.69,3.93-0.59c1.02,0.1,1.66,0.59,1.93,1.49
		C18.99,188,18.73,188.8,17.91,189.45z M20.52,186.49c-0.48-1.55-1.42-2.56-2.84-3.02c-1.41-0.46-3.27-0.34-5.55,0.36
		c-2.28,0.7-3.88,1.64-4.8,2.82c-0.91,1.17-1.14,2.55-0.66,4.09c0.48,1.56,1.43,2.59,2.85,3.05c1.43,0.46,3.27,0.34,5.54-0.35
		c2.3-0.71,3.9-1.65,4.81-2.84C20.78,189.43,21,188.05,20.52,186.49z"/>
	<path class="st0" d="M2.93,157.59l-0.06-0.56l9.4-2.96l0.49,4.68L2.93,157.59z M13.08,161.61l4.89-0.52l-0.17-1.6l-2.99,0.06
		l-0.73-7l2.93-0.58l-0.17-1.59l-4.9,0.51l0.08,0.78l-11.68,4l0.36,3.38l12.28,1.77L13.08,161.61z"/>
	<path class="st0" d="M8.66,143.88v3.18l-6.41-1.58L8.66,143.88z M0,146.54l13.97,4.04v-2.21l-3.5-0.86v-4.08l3.5-0.89v-2.34
		L0,143.95V146.54z"/>
	<path class="st0" d="M7.13,134.84l-0.06,1.15l-4.86-0.25l0.06-1.15c0.03-0.67,0.1-1.16,0.2-1.46c0.11-0.31,0.38-0.57,0.78-0.82
		c0.41-0.23,0.94-0.34,1.59-0.3c0.84,0.04,1.46,0.27,1.82,0.68C7.04,133.09,7.19,133.81,7.13,134.84z M8.93,136.09l0.06-1.21
		c0.07-1.33-0.02-2.33-0.29-2.99c-0.25-0.65-0.7-1.2-1.35-1.61c-0.63-0.41-1.41-0.65-2.33-0.7c-1.01-0.05-1.88,0.14-2.62,0.57
		c-0.73,0.43-1.22,0.98-1.47,1.67c-0.25,0.67-0.39,1.57-0.46,2.67l-0.18,3.46l13.95,0.73l0.13-2.31L8.93,136.09z"/>
	<path class="st0" d="M11.61,120.32l0.63-2.05c3,0.92,4.3,2.67,3.88,5.25c-0.27,1.68-1.11,2.82-2.52,3.44
		c-1.42,0.63-3.21,0.76-5.36,0.41c-2.33-0.36-4.05-1.09-5.14-2.15c-1.11-1.07-1.53-2.42-1.27-4.06c0.4-2.53,2.2-3.77,5.41-3.71
		l-0.02,2.18c-2.13-0.1-3.29,0.51-3.51,1.84c-0.28,1.77,1.4,2.93,5.04,3.52c3.38,0.54,5.21-0.08,5.49-1.85
		c0.11-0.7-0.06-1.27-0.52-1.7C13.27,120.98,12.57,120.62,11.61,120.32z"/>
	<polygon class="st0" points="3.23,114.93 5.29,106.65 7.2,107.13 6.44,110.16 18.1,113.06 17.54,115.31 5.89,112.4 5.14,115.4 	"/>
	<polygon class="st0" points="10,92.42 13.13,85.05 14.84,85.78 12.62,91.02 16.3,92.58 18.04,88.47 19.75,89.19 18,93.31 
		22.04,95.01 24.3,89.68 26.04,90.43 22.87,97.88 	"/>
	<polygon class="st0" points="14.14,83.19 26.81,89.09 27.79,87 22.14,84.36 23.88,80.63 29.53,83.27 30.51,81.17 17.84,75.25 
		16.86,77.36 22.11,79.81 20.37,83.54 15.12,81.09 	"/>
	<polygon class="st0" points="20.21,71.68 21.4,69.7 26.37,72.69 28.48,69.15 23.52,66.17 24.71,64.18 36.69,71.39 35.5,73.37 
		30.16,70.16 28.05,73.7 33.38,76.89 32.19,78.88 	"/>
	<path class="st0" d="M18.6,104.46l-0.54,1.79l-4.34-1.33l0.48-1.6c0.32-1.07,0.76-1.7,1.31-1.91c0.54-0.21,1.11-0.23,1.67-0.06
		C18.62,101.79,19.1,102.83,18.6,104.46z M12.43,103L12,104.39l-3.83-1.16l0.49-1.62c0.24-0.75,0.54-1.25,0.95-1.53
		c0.41-0.27,0.94-0.3,1.61-0.1c0.57,0.18,1,0.48,1.27,0.91C12.75,101.3,12.73,102.01,12.43,103z M18.13,99.16
		c-1.74-0.54-3.1-0.07-4.09,1.38c-0.07-1.47-0.84-2.43-2.32-2.89c-0.82-0.25-1.56-0.27-2.23-0.08c-0.68,0.2-1.19,0.53-1.51,1.01
		c-0.32,0.48-0.63,1.23-0.95,2.24l-1.23,4.05l13.36,4.08l1.25-4.11c0.55-1.77,0.55-3.09,0.01-3.95
		C19.88,100.04,19.12,99.46,18.13,99.16z"/>
	<path class="st0" d="M39.57,64.31l-1.34,1.78l-3.8-2.86l1.34-1.79c0.3-0.38,0.7-0.62,1.21-0.69c0.5-0.08,1.1,0.13,1.8,0.66
		c0.68,0.51,1.07,1.02,1.14,1.52C40.01,63.43,39.89,63.89,39.57,64.31z M42.06,62.26c-0.25-1-0.88-1.88-1.91-2.66
		c-0.77-0.58-1.54-0.94-2.32-1.07c-0.76-0.13-1.42-0.03-1.95,0.29c-0.54,0.32-1.12,0.9-1.75,1.74l-1.18,1.55l-4.32-3.26l-1.38,1.84
		L38.4,69.1l2.82-3.74C42.04,64.28,42.31,63.25,42.06,62.26z"/>
	<polygon class="st0" points="33.12,52.88 34.52,51.03 45.68,59.45 44.29,61.29 	"/>
	<path class="st0" d="M48.55,55.1l-2.12-6.31c-0.36-1.02-0.72-1.91-1.13-2.66c1.11,1.07,1.69,1.61,1.75,1.66l5.38,4.85l1.54-1.71
		l-10.38-9.35l-1.54,1.71l1,0.92l2.13,6.33c0.34,1.01,0.71,1.89,1.13,2.64c-0.86-0.83-1.32-1.28-1.39-1.34l-5.83-5.25l-1.54,1.72
		l10.38,9.35l1.55-1.72L48.55,55.1z"/>
	<path class="st0" d="M35.67,44.66l0.96-1.07c0.71,0.36,1.37,0.19,1.99-0.5c0.61-0.68,0.71-1.35,0.28-2.01L39.87,40
		c1,1.38,0.93,2.71-0.24,4C38.46,45.3,37.14,45.52,35.67,44.66z"/>
	<path class="st0" d="M58.41,41.75L49,36.59l1.84-1.49l6.56,3.85l-2.69-7l1.63-1.31l3.88,10.46c0.49,1.3,0.69,2.29,0.63,2.96
		c-0.07,0.67-0.48,1.3-1.21,1.9l-0.74,0.59l-1.25-1.54l0.73-0.61c0.16-0.12,0.29-0.32,0.43-0.6c0.14-0.28,0.07-0.8-0.2-1.55
		L58.41,41.75z"/>
	<polygon class="st0" points="57.58,29.68 66,40.84 67.84,39.45 64.1,34.48 67.39,32 71.13,36.98 72.98,35.58 64.56,24.41 
		62.71,25.8 66.2,30.44 62.91,32.91 59.43,28.29 	"/>
	<path class="st0" d="M76.81,31.96L77.46,33l-1.96,1.23l-7.4-11.85l1.94-1.23l4.16,6.66c0.05,0.08,0.38,0.63,0.97,1.68
		c-0.19-0.84-0.31-1.79-0.36-2.84l-0.3-6.68l-0.72-1.16l1.96-1.23l7.41,11.85l-1.95,1.23l-3.84-6.14c-0.04-0.07-0.45-0.76-1.21-2.09
		c0.18,0.83,0.29,1.78,0.35,2.86L76.81,31.96z"/>
	<polygon class="st0" points="91.5,10.44 99.03,7.7 99.66,9.44 94.32,11.38 95.68,15.15 99.88,13.62 100.51,15.36 96.32,16.9 
		97.82,21 103.25,19.02 103.9,20.81 96.3,23.57 	"/>
	<path class="st0" d="M121.58,11.41l2.14-0.16c0.21,3.13-0.95,4.97-3.51,5.51c-1.67,0.36-3.04-0.02-4.13-1.12
		c-1.09-1.11-1.86-2.73-2.31-4.86c-0.49-2.3-0.44-4.17,0.16-5.57c0.61-1.42,1.71-2.29,3.34-2.64c2.51-0.53,4.32,0.7,5.41,3.73
		l-2.05,0.76c-0.66-2.02-1.65-2.89-2.96-2.62c-1.75,0.38-2.24,2.36-1.47,5.96c0.71,3.35,1.94,4.84,3.7,4.47
		c0.7-0.15,1.16-0.51,1.4-1.1C121.55,13.2,121.64,12.4,121.58,11.41z"/>
	<path class="st0" d="M128.85,13.83l0.13,1.23l-2.29,0.24l-1.46-13.91l2.29-0.24l0.82,7.8c0.01,0.09,0.05,0.74,0.13,1.93
		c0.2-0.83,0.5-1.73,0.93-2.71l2.67-6.13l-0.15-1.36l2.29-0.24l1.46,13.9l-2.29,0.25l-0.75-7.21c-0.01-0.07-0.08-0.87-0.19-2.41
		c-0.21,0.83-0.52,1.74-0.95,2.73L128.85,13.83z"/>
	<polygon class="st0" points="136.13,0.44 144.64,0 144.75,1.96 141.63,2.12 142.26,14.12 139.95,14.24 139.32,2.24 136.23,2.41 	
		"/>
	<polygon class="st0" points="146.75,0.02 154.75,0.16 154.72,2 149.04,1.9 148.96,5.9 153.42,5.97 153.39,7.84 148.93,7.76 
		148.86,12.14 154.63,12.23 154.61,14.13 146.5,13.99 	"/>
	<polygon class="st0" points="156.3,0.27 164.78,1.3 164.54,3.26 161.44,2.87 159.96,14.79 157.68,14.52 159.14,2.59 156.07,2.21 	
		"/>
	<polygon class="st0" points="171.23,2.1 174.57,2.88 175.02,13.32 180.07,4.15 183.27,4.89 180.13,18.51 178.01,18.02 180.7,6.4 
		174.79,17.27 173.14,16.9 172.65,4.53 169.97,16.16 168.09,15.72 	"/>
	<path class="st0" d="M212.2,26.66l1.7,1.32c-1.94,2.47-4.04,3.05-6.31,1.75c-1.47-0.85-2.24-2.05-2.31-3.59
		c-0.07-1.55,0.44-3.27,1.53-5.16c1.18-2.04,2.47-3.39,3.86-4.03c1.39-0.65,2.8-0.57,4.24,0.27c2.22,1.29,2.74,3.42,1.53,6.39
		l-2.02-0.8c0.86-1.95,0.71-3.25-0.46-3.92c-1.55-0.9-3.24,0.25-5.09,3.44c-1.71,2.97-1.79,4.9-0.23,5.79
		c0.61,0.36,1.2,0.41,1.77,0.13C210.98,27.97,211.57,27.44,212.2,26.66z"/>
	<polygon class="st0" points="221.07,20.86 213.66,32.72 215.63,33.95 218.06,30.05 220.7,28.93 219.67,36.47 221.8,37.8 
		222.91,28.05 228.69,25.62 226.61,24.33 219.5,27.74 223.04,22.09 	"/>
	<polygon class="st0" points="231.71,45.71 233.39,47.29 241.6,38.48 244.86,41.54 246.2,40.11 241.24,35.49 	"/>
	<path class="st0" d="M88.63,25l-1.68,0.82l-1.99-4.08l1.5-0.73c1-0.5,1.77-0.6,2.29-0.34c0.53,0.25,0.92,0.65,1.19,1.17
		C90.61,23.21,90.17,24.25,88.63,25z M82.43,16.54l1.52-0.75c0.7-0.34,1.29-0.45,1.76-0.34c0.47,0.11,0.86,0.47,1.16,1.1
		c0.27,0.54,0.34,1.06,0.21,1.54c-0.13,0.49-0.66,0.95-1.58,1.4l-1.32,0.64L82.43,16.54z M88.39,18.99
		c1.04-1.05,1.21-2.27,0.53-3.66c-0.38-0.76-0.86-1.33-1.46-1.69c-0.6-0.36-1.19-0.5-1.77-0.4c-0.57,0.07-1.33,0.36-2.29,0.83
		l-3.8,1.86l6.13,12.56l3.85-1.88c1.68-0.82,2.64-1.72,2.9-2.71c0.25-0.97,0.16-1.93-0.29-2.86C91.39,19.41,90.13,18.72,88.39,18.99
		z"/>
	<path class="st0" d="M108.48,11.11c-0.25,0.49-0.88,0.87-1.87,1.18l-1.09,0.33l-1.42-4.66l1.1-0.34c0.64-0.2,1.13-0.3,1.44-0.3
		c0.32,0,0.67,0.15,1.04,0.46c0.37,0.3,0.64,0.76,0.83,1.37C108.75,9.98,108.75,10.63,108.48,11.11z M109.41,6.23
		c-0.66-0.54-1.35-0.81-2.07-0.81c-0.72,0-1.61,0.17-2.67,0.48l-3.31,1.02l4.09,13.36l2.21-0.68l-1.6-5.22l1.14-0.34
		c1.27-0.39,2.18-0.83,2.72-1.3c0.53-0.46,0.88-1.07,1.05-1.82c0.17-0.74,0.12-1.55-0.15-2.43C110.55,7.54,110.06,6.77,109.41,6.23z
		"/>
	<path class="st0" d="M191.77,14.76c-0.52,1.61-1.11,2.8-1.77,3.57c-0.66,0.77-1.44,1.02-2.33,0.72c-0.95-0.31-1.45-0.98-1.5-2.02
		c-0.05-1.04,0.16-2.33,0.66-3.88c0.51-1.58,1.1-2.75,1.76-3.54c0.66-0.79,1.44-1.04,2.36-0.74c0.92,0.3,1.41,0.96,1.48,1.99
		C192.5,11.89,192.28,13.2,191.77,14.76z M194.52,9.97c-0.44-1.43-1.43-2.39-2.97-2.9c-1.56-0.5-2.93-0.3-4.13,0.59
		c-1.2,0.9-2.16,2.48-2.9,4.74c-0.73,2.28-0.88,4.13-0.43,5.56c0.45,1.42,1.45,2.39,3,2.9c1.54,0.5,2.91,0.3,4.1-0.59
		c1.19-0.9,2.15-2.49,2.89-4.76C194.82,13.24,194.97,11.4,194.52,9.97z"/>
	<path class="st0" d="M203.64,16.72c-0.34,0.78-0.78,1.27-1.29,1.46c-0.52,0.19-1.23,0.08-2.17-0.34l-1.05-0.47l1.99-4.45l1.04,0.47
		c0.61,0.27,1.05,0.52,1.3,0.72c0.25,0.21,0.4,0.55,0.48,1.02C204,15.6,203.91,16.13,203.64,16.72z M205.22,13.13
		c-0.56-0.47-1.32-0.94-2.34-1.38l-3.16-1.41l-5.68,12.77l2.12,0.95l2.21-4.98l1.1,0.48c1.22,0.54,2.19,0.81,2.9,0.81
		c0.7-0.01,1.36-0.24,1.98-0.68c0.62-0.46,1.12-1.1,1.49-1.94c0.4-0.92,0.54-1.79,0.4-2.65C206.11,14.26,205.77,13.61,205.22,13.13z
		"/>
	<path class="st0" d="M234.29,33.95c-0.29,0.98-0.93,2.13-1.95,3.45c-1.04,1.32-2,2.24-2.89,2.74c-0.89,0.5-1.69,0.46-2.43-0.12
		c-0.79-0.61-1.03-1.41-0.73-2.41c0.3-1,0.95-2.14,1.95-3.42c1.02-1.3,1.96-2.21,2.86-2.72c0.9-0.52,1.72-0.48,2.48,0.11
		C234.33,32.16,234.57,32.95,234.29,33.95z M234.75,30.09c-1.28-1.01-2.64-1.29-4.08-0.86c-1.43,0.44-2.88,1.59-4.34,3.47
		c-1.47,1.89-2.24,3.57-2.31,5.06c-0.07,1.5,0.54,2.75,1.83,3.76c1.28,1,2.64,1.28,4.06,0.85c1.42-0.45,2.88-1.6,4.34-3.49
		c1.47-1.88,2.24-3.56,2.31-5.05C236.64,32.33,236.03,31.09,234.75,30.09z"/>
	<path class="st0" d="M249.97,48.37c-0.41,0.94-1.21,1.99-2.41,3.13c-1.22,1.18-2.29,1.95-3.24,2.32c-0.95,0.37-1.74,0.22-2.4-0.45
		c-0.69-0.71-0.82-1.55-0.38-2.49c0.43-0.95,1.24-1.98,2.4-3.11c1.2-1.15,2.26-1.91,3.21-2.3c0.96-0.39,1.77-0.24,2.44,0.45
		C250.27,46.61,250.39,47.43,249.97,48.37z M250.97,44.62c-1.14-1.18-2.44-1.65-3.92-1.42c-1.48,0.23-3.07,1.17-4.78,2.82
		c-1.73,1.67-2.73,3.24-3,4.7c-0.28,1.47,0.16,2.79,1.29,3.97c1.13,1.16,2.43,1.64,3.9,1.4c1.47-0.24,3.06-1.19,4.78-2.85
		c1.72-1.66,2.73-3.22,3-4.68C252.52,47.1,252.09,45.79,250.97,44.62z"/>
	<path class="st0" d="M250.77,64.01l6.62-0.77c1.07-0.13,2.02-0.31,2.84-0.54c-1.27,0.87-1.94,1.32-2,1.36l-5.86,4.26l1.35,1.87
		l11.31-8.22l-1.35-1.86l-1.1,0.81l-6.64,0.75c-1.06,0.12-2,0.3-2.82,0.55c1-0.66,1.53-1.03,1.61-1.08l6.34-4.61l-1.36-1.87
		l-11.31,8.22l1.36,1.87L250.77,64.01z"/>
	<polygon class="st0" points="275.34,78.91 278.73,86.17 277.05,86.95 274.64,81.79 271.02,83.47 272.91,87.52 271.21,88.31 
		269.33,84.27 265.37,86.11 267.82,91.35 266.1,92.15 262.67,84.82 	"/>
	<path class="st0" d="M269.1,99.05l0.86,2.13l12.97-5.24l-0.87-2.14l-5.8,2.35c-1.03-0.32-1.72-0.85-2.02-1.63
		c-0.21-0.49-0.19-0.94,0.06-1.31c0.25-0.38,0.81-0.75,1.7-1.1l4.62-1.87l-0.86-2.15l-4.51,1.83c-1.07,0.44-1.83,0.88-2.29,1.33
		c-0.46,0.46-0.76,1.01-0.88,1.62c-0.12,0.62-0.04,1.25,0.22,1.91c0.43,1.04,1.18,1.73,2.25,2.07L269.1,99.05z"/>
	<polygon class="st0" points="284.22,99.91 284.86,102.14 279.29,103.74 280.43,107.69 286,106.09 286.64,108.32 273.2,112.17 
		272.56,109.95 278.55,108.23 277.41,104.27 271.43,105.99 270.79,103.77 	"/>
	<polygon class="st0" points="276.24,126.66 290.09,124.72 291.03,131.43 289.1,131.7 288.48,127.27 276.57,128.94 	"/>
	<path class="st0" d="M270.03,74.86c-0.21,0.43-0.59,0.81-1.15,1.14c-0.73,0.45-1.38,0.6-1.9,0.46c-0.54-0.14-1.06-0.65-1.59-1.53
		l-0.59-0.98l4.18-2.52l0.59,0.99c0.35,0.57,0.56,1.02,0.64,1.33C270.3,74.06,270.24,74.44,270.03,74.86z M271.12,71.49l-1.79-2.96
		l-11.98,7.2l1.19,1.98l4.68-2.81l0.61,1.02c0.69,1.15,1.33,1.93,1.91,2.32c0.59,0.4,1.26,0.6,2.03,0.59
		c0.77-0.02,1.54-0.26,2.33-0.74c0.86-0.52,1.48-1.16,1.85-1.93c0.36-0.77,0.46-1.51,0.29-2.21
		C272.05,73.27,271.68,72.44,271.12,71.49z"/>
	<path class="st0" d="M276.54,119.09c-0.19-0.98,0.16-1.75,1.04-2.3c0.88-0.55,2.12-0.99,3.71-1.3c1.62-0.31,2.93-0.38,3.94-0.19
		c1.02,0.2,1.61,0.77,1.8,1.71c0.19,0.95-0.16,1.7-1.02,2.26c-0.86,0.56-2.1,1-3.73,1.31c-1.65,0.33-2.99,0.39-3.97,0.18
		C277.3,120.57,276.71,120.02,276.54,119.09z M282.74,122.98c2.35-0.45,4.03-1.21,5.06-2.3c1.03-1.07,1.4-2.41,1.09-3.99
		c-0.32-1.61-1.16-2.73-2.52-3.33c-1.37-0.61-3.22-0.69-5.55-0.24c-2.35,0.45-4.05,1.22-5.08,2.31c-1.02,1.09-1.39,2.42-1.07,4.03
		c0.31,1.59,1.14,2.7,2.51,3.3C278.54,123.36,280.39,123.43,282.74,122.98z"/>
	<path class="st0" d="M288.31,140.63c-0.94,0.41-2.24,0.66-3.9,0.72c-1.69,0.06-3.01-0.09-3.96-0.44c-0.95-0.37-1.44-1.01-1.47-1.94
		c-0.04-1,0.41-1.71,1.38-2.11c0.95-0.41,2.25-0.64,3.87-0.7c1.66-0.06,2.96,0.09,3.93,0.44c0.97,0.35,1.47,1.01,1.5,1.97
		C289.7,139.52,289.25,140.21,288.31,140.63z M289.59,134.83c-1.25-0.82-3.07-1.19-5.44-1.1c-2.4,0.08-4.2,0.58-5.37,1.49
		c-1.2,0.89-1.76,2.17-1.7,3.8c0.06,1.63,0.71,2.84,1.96,3.66c1.25,0.81,3.07,1.17,5.46,1.09c2.39-0.08,4.18-0.57,5.36-1.47
		c1.18-0.91,1.76-2.16,1.7-3.78C291.5,136.87,290.85,135.65,289.59,134.83z"/>
	<polygon class="st0" points="276.51,164.02 287.44,168.85 275.52,169.59 275.11,171.98 289.5,170.87 289.99,168.07 276.88,161.91 	
		"/>
	<polygon class="st0" points="285.64,187.44 283.01,195.55 281.14,194.95 282.11,191.97 270.68,188.26 271.39,186.06 282.82,189.77 
		283.78,186.83 	"/>
	<path class="st0" d="M280.23,154.88c0.53-1.63,1.89-2.37,4.1-2.21c2.32,0.16,3.62,1.09,3.9,2.78L280.23,154.88z M284,159.6
		c-2.31-0.16-3.62-1.09-3.9-2.77l8,0.56C287.56,159.02,286.2,159.76,284,159.6z M289.91,155.56c-0.04-1.46-0.52-2.65-1.45-3.59
		c-0.92-0.93-2.25-1.46-3.97-1.58c-1.5-0.11-2.8,0.19-3.89,0.91c-1.09,0.7-1.77,1.86-2.05,3.46l-1.73-0.12l-0.14,1.94l1.74,0.12
		c0.26,3.21,2.05,4.93,5.34,5.16c1.6,0.1,2.93-0.21,4-0.96c1.07-0.75,1.73-1.89,2-3.41l1.73,0.13l0.13-1.95L289.91,155.56z"/>
	<path class="st0" d="M285.76,180.58c-0.25,0.93-0.88,1.46-1.89,1.58c-1.03,0.13-2.33-0.02-3.94-0.45
		c-1.63-0.43-2.84-0.96-3.65-1.58c-0.8-0.63-1.09-1.38-0.84-2.29c0.25-0.96,0.9-1.5,1.93-1.62c1.04-0.11,2.34,0.05,3.9,0.47
		c1.6,0.43,2.8,0.96,3.64,1.57C285.73,178.88,286.01,179.65,285.76,180.58z M281.9,174.35c-2.32-0.63-4.18-0.68-5.57-0.15
		c-1.4,0.53-2.32,1.57-2.74,3.15c-0.42,1.57-0.16,2.92,0.8,4.07c0.97,1.13,2.6,2.02,4.91,2.64c2.32,0.61,4.16,0.67,5.56,0.14
		c1.39-0.51,2.31-1.55,2.73-3.11c0.43-1.59,0.16-2.95-0.81-4.1C285.82,175.85,284.19,174.96,281.9,174.35z"/>
	<path class="st0" d="M273.57,195.88l5.2,4.05l-6.5-1.16L273.57,195.88z M269.24,192.51l2.84,2.21l-1.66,3.73l-3.56-0.62l-0.96,2.14
		l14.29,2.26l1.06-2.37l-11.13-9.38L269.24,192.51z"/>
	<rect x="90.94" y="245.98" class="st1" width="108.62" height="12.89"/>
	<polygon class="st1" points="24.2,203.72 26.37,207.89 31.01,208.66 27.71,212.03 28.41,216.69 24.2,214.58 19.98,216.69 
		20.67,212.03 17.37,208.66 22.02,207.89 	"/>
	<polygon class="st1" points="268.65,204.02 270.82,208.2 275.46,208.98 272.16,212.34 272.86,216.99 268.65,214.89 264.43,216.99 
		265.12,212.34 261.82,208.98 266.46,208.2 	"/>
	<path class="st0" d="M140.89,72.37c0,0-0.46-2.25-2.45-5.37c-2-3.11-1.5-8.16,2.36-10.23c3.86-2.07,6.97-3.25,8.21-5.59
		c0.63-1.17,1.03-2.03,1.29-2.78c0.21-0.58-0.06-1.27,0.36-1.37c0.43-0.09,0.55,0.82,0.64,1.16c0.89,3.35,0.12,4.41-0.82,6.01
		c4.49-2.46,5.6-5.1,6.93-10.65c0.17-0.67,0.05-2.17,0.55-2.17c0.63-0.01,0.81,1.24,1.01,1.98c1.62,6.24,1.49,11.73-5.14,16.22
		c-2.88,1.95-1.27,11.7-6.24,12.59l-2.56,0.46c-2.14-6.46-0.02-12.18,2.93-13.74c0,0-3.6,1.58-4.69,4.88
		c-1.09,3.3,0.81,8.49,0.81,8.49L140.89,72.37z"/>
</g>
</svg>
