<svg width="1488" height="984" viewBox="0 0 1488 984" fill="none" xmlns="http://www.w3.org/2000/svg">
<mask id="mask0_6635_44213" style="mask-type:luminance" maskUnits="userSpaceOnUse" x="0" y="836" width="1488" height="148">
<path d="M0 836H1488V968C1488 976.837 1480.84 984 1472 984H16C7.16343 984 0 976.837 0 968V836Z" fill="white"/>
</mask>
<g mask="url(#mask0_6635_44213)">
<path d="M0 836H1488V968C1488 976.837 1480.84 984 1472 984H16C7.16343 984 0 976.837 0 968V836Z" fill="{!team.color}"/>
<image href="{!org.logo.url}" x="16" y="852" width="135" height="116" preserveAspectRatio="xMidYMid meet" />
<text fill="{!team.customFields.Ink}" xml:space="preserve" style="white-space: pre" font-family="Helvetica" font-size="30" font-weight="bold" letter-spacing="0em"><tspan x="167" y="885">{org.fullName}</tspan></text>
<text fill="{!team.customFields.Ink}" xml:space="preserve" style="white-space: pre" font-family="Helvetica" font-size="40" font-weight="bold" letter-spacing="0em"><tspan x="167" y="932">{team.customFields.funnyName}</tspan></text>
<text fill="{!team.customFields.Ink}" xml:space="preserve" style="white-space: pre" font-family="Helvetica" font-size="30" font-weight="bold" letter-spacing="0em"><tspan x="167" y="968">Workstation: {team.id}   {team.hashTag}</tspan></text>
<path d="M1146.3 955.516C1043.61 1029.2 892.287 1050.18 864 1053.6C866.416 1066.6 866.473 1210.82 986.387 1222.25C1136.28 1236.54 1304.93 1167.45 1391.29 1026.3C1460.37 913.384 1590.08 903.348 1646.3 912.446C1599.25 872.574 1478.62 797.436 1372.52 815.858C1239.9 838.885 1274.66 863.406 1146.3 955.516Z" fill="white"/>
<path d="M1374.79 992.495C1374.91 992.517 1375.04 992.539 1375.16 992.563C1378.92 993.274 1381.83 994.852 1383.22 996.798L1383.92 997.726M1374.79 992.495C1373.82 992.328 1372.89 992.233 1372.09 992.233H1360.75C1359.94 992.233 1359.01 992.324 1358.05 992.489M1374.79 992.495V988.055M1383.92 997.726L1348.93 997.725M1383.92 997.726H1387.78M1358.05 992.489C1357.95 992.506 1357.85 992.524 1357.75 992.542C1353.95 993.242 1351.02 994.832 1349.62 996.79L1348.93 997.725M1358.05 992.489V988.041M1374.79 988.055C1374.89 988.022 1374.99 987.988 1375.09 987.952C1378.89 986.601 1381.82 983.533 1383.22 979.754L1383.67 978.349M1374.79 988.055C1373.82 988.372 1372.9 988.548 1372.09 988.548H1360.75C1359.95 988.548 1359.02 988.365 1358.05 988.041M1348.93 997.725H1345.06M1387.78 997.726L1345.06 997.725M1387.78 997.726L1383.89 1000.88M1387.78 997.726V997.728M1387.78 997.726V997.724V997.728M1358.05 988.041C1357.92 988 1357.8 987.957 1357.67 987.911C1353.91 986.539 1351 983.494 1349.61 979.739L1349.09 978.35M1383.67 978.349C1383.67 978.349 1382.54 978.066 1381.97 976.755C1381.4 975.445 1381.65 972.788 1382.22 973.071C1382.26 973.09 1382.3 973.109 1382.36 973.127M1383.67 978.349C1384.48 977.627 1389.98 972.653 1391.29 970.131C1392.7 967.403 1393.17 965.206 1392.42 963.789C1392.02 963.033 1391.64 962.671 1391.36 962.497C1391.15 962.36 1390.87 962.396 1390.68 962.569C1390.28 962.944 1389.56 963.786 1389.34 965.206C1389.02 967.226 1388.56 970.45 1387.07 972.044C1385.68 973.531 1383.15 973.384 1382.36 973.127M1345.06 997.725L1348.59 1000.88M1345.06 997.725V1028.22M1349.09 978.35C1349.09 978.35 1350.23 978.067 1350.79 976.756C1351.36 975.445 1351.11 972.789 1350.54 973.072C1350.53 973.082 1350.5 973.092 1350.48 973.101M1349.09 978.35C1349.09 978.35 1342.89 972.859 1341.48 970.132C1340.06 967.404 1339.6 965.207 1340.34 963.79C1340.73 963.06 1341.1 962.697 1341.37 962.516C1341.6 962.364 1341.9 962.403 1342.1 962.592C1342.51 962.976 1343.2 963.813 1343.42 965.207C1343.74 967.227 1344.2 970.45 1345.69 972.045C1347.13 973.583 1349.78 973.373 1350.48 973.101M1348.59 1000.88V1024.97M1348.59 1000.88H1383.89M1345.06 1028.22L1348.59 1024.97M1345.06 1028.22L1345.05 1028.23H1345.06M1345.06 1028.22V1028.23M1383.89 1000.88V1024.97M1383.89 1000.88L1387.78 997.728M1387.78 997.728V1028.23M1382.36 973.127V965.811C1382.36 963.146 1382.85 960.523 1383.78 958.064M1383.78 958.064C1384.53 956.106 1385.56 954.252 1386.85 952.566L1383.93 951.518C1372.31 947.334 1359.57 947.435 1348.01 951.803L1345.99 952.566C1347.28 954.252 1348.31 956.105 1349.05 958.063M1383.78 958.064C1388.73 956.69 1391.82 954.736 1391.82 952.567C1391.82 948.407 1380.45 945.035 1366.42 945.035C1352.39 945.035 1341.02 948.407 1341.02 952.567C1341.02 954.735 1344.11 956.689 1349.05 958.063M1350.48 973.101V965.81C1350.48 963.145 1349.99 960.522 1349.05 958.063M1383.89 1024.97H1348.59M1383.89 1024.97L1387.78 1028.23M1348.59 1024.97L1345.06 1028.23M1387.78 1028.23H1345.06" stroke="#FDBA12" stroke-width="1.25562" stroke-miterlimit="10" stroke-linejoin="round"/>
<path d="M1321.8 886.509C1321.93 886.441 1322.06 886.374 1322.19 886.308C1326.13 884.322 1329.9 883.726 1332.54 884.533L1333.83 884.892M1321.8 886.509C1320.8 887.038 1319.88 887.602 1319.15 888.163L1308.77 896.11C1308.03 896.678 1307.25 897.411 1306.48 898.239M1321.8 886.509L1318.69 882.446M1333.83 884.892L1301.81 909.419M1333.83 884.892L1337.35 882.19M1306.48 898.239C1306.4 898.324 1306.32 898.411 1306.24 898.499C1303.26 901.8 1301.69 905.312 1301.78 908.083L1301.81 909.419M1306.48 898.239L1303.36 894.169M1318.69 882.446C1318.76 882.346 1318.83 882.243 1318.89 882.139C1321.42 878.242 1321.96 873.378 1320.59 868.94L1320.01 867.339M1318.69 882.446C1318.03 883.413 1317.31 884.223 1316.56 884.79L1306.19 892.737C1305.46 893.298 1304.48 893.783 1303.36 894.169M1301.81 909.419L1298.26 912.137M1337.35 882.19L1298.26 912.137M1337.35 882.19L1336.01 887.799M1337.35 882.19L1337.36 882.187V882.19M1303.36 894.169C1303.22 894.218 1303.08 894.266 1302.93 894.312C1298.53 895.693 1293.73 894.947 1289.83 892.485L1288.37 891.579M1320.01 867.339C1320.01 867.339 1318.78 867.874 1317.34 867.072C1315.9 866.27 1314.27 863.665 1314.98 863.527C1315.03 863.518 1315.09 863.501 1315.15 863.478M1320.01 867.339C1320.25 866.111 1321.79 857.705 1321.22 854.479C1320.61 850.99 1319.49 848.657 1317.81 847.882C1316.92 847.468 1316.31 847.408 1315.94 847.441C1315.65 847.467 1315.42 847.693 1315.37 847.984C1315.26 848.61 1315.2 849.882 1315.99 851.339C1317.11 853.41 1318.95 856.683 1318.71 859.184C1318.48 861.519 1316.06 863.158 1315.15 863.478M1298.26 912.137L1303.71 912.541M1298.26 912.137L1319.64 940.043M1288.37 891.579C1288.37 891.579 1289.21 890.525 1288.81 888.929C1288.41 887.332 1286.32 885.074 1286 885.731C1285.99 885.754 1285.98 885.779 1285.96 885.806M1288.37 891.579C1288.37 891.579 1278.85 890.901 1275.64 889.398C1272.43 887.896 1270.47 886.209 1270.16 884.391C1270 883.454 1270.09 882.86 1270.21 882.503C1270.31 882.203 1270.62 882.027 1270.93 882.06C1271.58 882.125 1272.8 882.406 1273.97 883.527C1275.68 885.151 1278.36 887.778 1280.84 888.193C1283.23 888.595 1285.52 886.54 1285.96 885.806M1303.71 912.541L1320.6 934.583M1303.71 912.541L1336.01 887.801M1303.71 912.541L1336.01 887.799M1319.64 940.043L1320.6 934.583M1319.64 940.043V940.046L1319.65 940.044M1319.64 940.043L1319.65 940.046V940.044M1336.01 887.799V887.801M1336.01 887.799L1337.36 882.19M1337.36 882.19L1358.74 910.096M1315.15 863.478L1310.03 856.784C1308.16 854.345 1306.77 851.603 1305.9 848.698M1305.9 848.698C1305.21 846.384 1304.85 843.968 1304.85 841.521L1301.45 842.603C1287.87 846.925 1276.29 855.947 1268.78 868.046L1267.46 870.16C1269.82 870.798 1272.06 871.773 1274.12 873.043M1305.9 848.698C1309.46 843.973 1310.92 840.018 1309.4 838.034C1306.48 834.228 1293.71 839.115 1280.88 848.949C1268.04 858.783 1260 869.84 1262.91 873.646C1264.43 875.63 1268.63 875.252 1274.12 873.043M1285.96 885.806L1280.85 879.134C1278.98 876.696 1276.7 874.638 1274.12 873.043M1352.89 909.842L1320.6 934.583M1352.89 909.842L1358.74 910.096M1352.89 909.842L1336.01 887.801M1320.6 934.583L1319.65 940.044M1358.74 910.096L1319.65 940.044" stroke="#B22C1B" stroke-width="1.25571" stroke-miterlimit="10" stroke-linejoin="round"/>
<path d="M1433.88 889.641C1434.04 889.715 1434.2 889.791 1434.36 889.868C1439.18 892.184 1442.54 895.364 1443.72 898.492L1444.33 899.997M1433.88 889.641C1432.62 889.064 1431.4 888.601 1430.32 888.313L1415.01 884.228C1413.92 883.936 1412.63 883.726 1411.27 883.6M1433.88 889.641L1435.48 883.644M1444.33 899.997L1397.07 887.388M1444.33 899.997L1449.53 901.386M1411.27 883.6C1411.13 883.587 1410.98 883.575 1410.84 883.564C1405.46 883.141 1400.93 884.231 1398.33 886.372L1397.07 887.388M1411.27 883.6L1412.87 877.593M1435.48 883.644C1435.62 883.635 1435.77 883.625 1435.92 883.613C1441.54 883.156 1446.61 880.07 1449.85 875.47L1450.97 873.736M1435.48 883.644C1434.06 883.724 1432.74 883.628 1431.65 883.336L1416.34 879.252C1415.26 878.963 1414.07 878.381 1412.87 877.593M1397.07 887.388L1391.83 885.991M1449.53 901.386L1391.83 885.991M1449.53 901.386L1443.15 904.241M1449.53 901.386L1449.54 901.389M1449.53 901.386L1449.54 901.385V901.389M1412.87 877.593C1412.72 877.493 1412.56 877.389 1412.41 877.282C1407.83 874.074 1404.99 868.912 1404.47 863.341L1404.27 861.277M1450.97 873.736C1450.97 873.736 1449.54 872.944 1449.25 870.97C1448.96 868.995 1450.25 865.496 1450.91 866.083C1450.96 866.122 1451.01 866.165 1451.08 866.21M1450.97 873.736C1452.32 873.05 1461.54 868.314 1464.22 865.379C1467.12 862.206 1468.53 859.405 1468.04 857.223C1467.77 856.059 1467.38 855.429 1467.07 855.096C1466.83 854.833 1466.44 854.782 1466.13 854.949C1465.45 855.309 1464.18 856.189 1463.36 858.026C1462.2 860.639 1460.42 864.827 1457.84 866.444C1455.42 867.953 1452.06 866.842 1451.08 866.21M1391.83 885.991L1395.48 891.523M1391.83 885.991L1395.48 891.525M1391.83 885.991L1380.84 927.185M1404.27 861.277C1404.27 861.277 1405.9 861.303 1407.14 859.737C1408.38 858.171 1409 854.493 1408.13 854.671C1408.1 854.677 1408.07 854.682 1408.03 854.687M1404.27 861.277C1404.27 861.277 1397.87 851.627 1396.94 847.432C1396.01 843.237 1396.18 840.104 1397.69 838.459C1398.48 837.611 1399.11 837.255 1399.54 837.109C1399.91 836.986 1400.3 837.147 1400.51 837.475C1400.92 838.141 1401.55 839.521 1401.35 841.483C1401.05 844.325 1400.51 848.845 1401.95 851.535C1403.33 854.13 1406.99 854.803 1408.03 854.687M1395.48 891.523L1386.8 924.06M1395.48 891.523L1443.15 904.241M1395.48 891.525L1386.8 924.062M1395.48 891.525L1443.15 904.244M1380.84 927.185L1386.8 924.06M1380.84 927.185L1380.85 927.187M1380.84 927.185V927.189L1380.85 927.187M1443.15 904.241V904.244M1449.54 901.389L1438.55 942.582M1449.54 901.389L1443.15 904.244M1451.08 866.21L1453.72 856.328C1454.68 852.729 1456.28 849.362 1458.43 846.378M1458.43 846.378C1460.14 844.001 1462.2 841.868 1464.55 840.056L1460.99 837.59C1446.8 827.749 1429.56 823.296 1412.37 825.031L1409.37 825.335C1410.5 828.076 1411.22 830.95 1411.52 833.863M1458.43 846.378C1465.61 846.304 1470.49 844.778 1471.27 841.85C1472.77 836.231 1458.62 827.579 1439.67 822.524C1420.73 817.469 1404.15 817.925 1402.65 823.544C1401.87 826.472 1405.34 830.225 1411.52 833.863M1408.03 854.687L1410.66 844.839C1411.62 841.24 1411.9 837.52 1411.52 833.863M1434.47 936.778L1386.8 924.06M1434.47 936.778L1438.55 942.582M1434.47 936.778L1386.8 924.062M1434.47 936.778L1443.15 904.244M1438.55 942.582L1380.85 927.187M1386.8 924.062L1380.85 927.187" stroke="#4C83C3" stroke-width="1.25571" stroke-miterlimit="10" stroke-linejoin="round"/>
<path d="M1240.44 972.897C1240.57 972.971 1240.7 973.046 1240.82 973.123C1244.65 975.418 1247.19 978.317 1247.92 981.003L1248.31 982.299M1240.44 972.897C1239.45 972.321 1238.47 971.843 1237.6 971.52L1225.21 966.944C1224.32 966.617 1223.28 966.343 1222.15 966.133M1240.44 972.897L1242.23 968.046M1248.31 982.299L1210.08 968.176M1248.31 982.299L1252.52 983.854M1222.15 966.133C1222.04 966.111 1221.92 966.09 1221.8 966.07C1217.37 965.303 1213.53 965.855 1211.21 967.431L1210.08 968.176M1222.15 966.133L1223.95 961.274M1242.23 968.046C1242.36 968.05 1242.48 968.053 1242.61 968.055C1247.3 968.111 1251.74 965.944 1254.8 962.38L1255.86 961.027M1242.23 968.046C1241.05 968.003 1239.97 967.821 1239.08 967.494L1226.7 962.919C1225.82 962.596 1224.88 962.021 1223.95 961.274M1210.08 968.176L1205.85 966.611M1252.52 983.854L1205.85 966.611M1252.52 983.854L1247 985.728M1252.52 983.854L1252.53 983.856L1252.52 983.857M1252.52 983.854V983.857M1223.95 961.274C1223.83 961.179 1223.71 961.081 1223.59 960.981C1220.04 957.964 1218.09 953.462 1218.09 948.8L1218.08 947.072M1255.86 961.027C1255.86 961.027 1254.73 960.26 1254.64 958.599C1254.55 956.939 1255.89 954.136 1256.4 954.674C1256.43 954.71 1256.48 954.75 1256.53 954.793M1255.86 961.027C1257.03 960.563 1265.05 957.349 1267.49 955.122C1270.14 952.714 1271.53 950.5 1271.29 948.652C1271.16 947.665 1270.89 947.113 1270.66 946.812C1270.48 946.576 1270.16 946.503 1269.89 946.617C1269.29 946.863 1268.17 947.494 1267.35 948.956C1266.19 951.033 1264.39 954.37 1262.12 955.511C1260 956.576 1257.29 955.393 1256.53 954.793M1205.85 966.611L1208.44 971.482M1205.85 966.611L1208.44 971.484M1205.85 966.611L1193.54 999.932M1218.08 947.072C1218.08 947.072 1219.43 947.22 1220.58 946.017C1221.73 944.813 1222.53 941.811 1221.79 941.891C1221.77 941.894 1221.74 941.896 1221.71 941.896M1218.08 947.072C1218.08 947.072 1213.52 938.571 1213.07 935.019C1212.63 931.466 1213.01 928.881 1214.39 927.633C1215.11 926.99 1215.66 926.744 1216.03 926.656C1216.34 926.583 1216.66 926.747 1216.8 927.035C1217.09 927.619 1217.51 928.813 1217.19 930.425C1216.72 932.76 1215.92 936.468 1216.91 938.81C1217.85 941.07 1220.84 941.913 1221.71 941.896M1208.44 971.482L1198.72 997.801M1208.44 971.482L1247 985.728M1208.44 971.484L1198.72 997.803M1208.44 971.484L1247 985.73M1193.54 999.932L1198.72 997.801M1193.54 999.932V999.934M1247 985.728V985.73M1252.52 983.857L1240.21 1017.18M1252.52 983.857L1247 985.73M1256.53 954.793L1259.49 946.799C1260.56 943.888 1262.15 941.219 1264.17 938.911M1264.17 938.911C1265.77 937.071 1267.64 935.461 1269.73 934.14L1266.97 931.819C1255.96 922.555 1242 917.524 1227.61 917.632L1225.1 917.651C1225.83 920.013 1226.2 922.452 1226.22 924.892M1264.17 938.911C1270.13 939.406 1274.29 938.518 1275.17 936.149C1276.84 931.604 1265.78 923.33 1250.45 917.668C1235.13 912.006 1221.34 911.1 1219.66 915.644C1218.79 918.013 1221.37 921.395 1226.22 924.892M1221.71 941.896L1224.65 933.931C1225.73 931.019 1226.25 927.955 1226.22 924.892M1237.28 1012.05L1198.72 997.801M1237.28 1012.05L1240.21 1017.18M1237.28 1012.05L1198.72 997.803M1237.28 1012.05L1247 985.73M1240.21 1017.18L1193.54 999.934M1198.72 997.803L1193.54 999.934" stroke="#4C83C3" stroke-width="1.25571" stroke-miterlimit="10" stroke-linejoin="round"/>
</g>
</svg>