<svg width="1488" height="984" viewBox="0 0 1488 984" fill="none" xmlns="http://www.w3.org/2000/svg">
<mask id="mask0_6729_80452" style="mask-type:luminance" maskUnits="userSpaceOnUse" x="0" y="836" width="1488" height="148">
<path d="M0 836H1488V968C1488 976.837 1480.84 984 1472 984H16C7.16343 984 0 976.837 0 968V836Z" fill="white"/>
</mask>
<g mask="url(#mask0_6729_80452)">
<path d="M0 836H1488V968C1488 976.837 1480.84 984 1472 984H16C7.16343 984 0 976.837 0 968V836Z" fill="#4C83C3"/>
<text fill="white" xml:space="preserve" style="white-space: pre" font-family="Helvetica" font-size="30" font-weight="bold" letter-spacing="0em"><tspan x="167" y="882.274">{org.fullName}</tspan></text>
<text fill="white" xml:space="preserve" style="white-space: pre" font-family="Helvetica" font-size="40" font-weight="bold" letter-spacing="0em"><tspan x="167" y="928.365">{team.fullName}</tspan></text>
<text fill="white" xml:space="preserve" style="white-space: pre" font-family="Helvetica" font-size="30" font-weight="bold" letter-spacing="0em"><tspan x="167" y="965.274">Workstation: {team.id}   {team.hashTag}</tspan></text>
<path d="M1146.3 955.516C1043.61 1029.2 892.287 1050.18 864 1053.6C866.416 1066.6 866.473 1210.82 986.387 1222.25C1136.28 1236.54 1304.93 1167.45 1391.29 1026.3C1460.37 913.384 1590.08 903.348 1646.3 912.446C1599.25 872.574 1478.62 797.436 1372.52 815.858C1239.9 838.885 1274.66 863.406 1146.3 955.516Z" fill="white"/>
<path d="M1374.79 992.495C1374.91 992.517 1375.04 992.539 1375.16 992.563C1378.92 993.274 1381.83 994.852 1383.22 996.798L1383.92 997.726M1374.79 992.495C1373.82 992.328 1372.89 992.233 1372.09 992.233H1360.75C1359.94 992.233 1359.01 992.324 1358.05 992.489M1374.79 992.495V988.055M1383.92 997.726L1348.93 997.725M1383.92 997.726H1387.78M1358.05 992.489C1357.95 992.506 1357.85 992.524 1357.75 992.542C1353.95 993.242 1351.02 994.832 1349.62 996.79L1348.93 997.725M1358.05 992.489V988.041M1374.79 988.055C1374.89 988.022 1374.99 987.988 1375.09 987.952C1378.89 986.601 1381.82 983.533 1383.22 979.754L1383.67 978.349M1374.79 988.055C1373.82 988.372 1372.9 988.548 1372.09 988.548H1360.75C1359.95 988.548 1359.02 988.365 1358.05 988.041M1348.93 997.725H1345.06M1387.78 997.726L1345.06 997.725M1387.78 997.726L1383.89 1000.88M1387.78 997.726V997.728M1387.78 997.726V997.724V997.728M1358.05 988.041C1357.92 988 1357.8 987.957 1357.67 987.911C1353.91 986.539 1351 983.494 1349.61 979.739L1349.09 978.35M1383.67 978.349C1383.67 978.349 1382.54 978.066 1381.97 976.755C1381.4 975.445 1381.65 972.788 1382.22 973.071C1382.26 973.09 1382.3 973.109 1382.36 973.127M1383.67 978.349C1384.48 977.627 1389.98 972.653 1391.29 970.131C1392.7 967.403 1393.17 965.206 1392.42 963.789C1392.02 963.033 1391.64 962.671 1391.36 962.497C1391.15 962.36 1390.87 962.396 1390.68 962.569C1390.28 962.944 1389.56 963.786 1389.34 965.206C1389.02 967.226 1388.56 970.45 1387.07 972.044C1385.68 973.531 1383.15 973.384 1382.36 973.127M1345.06 997.725L1348.59 1000.88M1345.06 997.725V1028.22M1383.89 1000.88H1348.59M1383.89 1000.88V1024.97M1383.89 1000.88L1387.78 997.728M1387.78 997.728V1028.23M1349.09 978.35C1349.09 978.35 1350.23 978.067 1350.79 976.756C1351.36 975.445 1351.11 972.789 1350.54 973.072C1350.53 973.082 1350.5 973.092 1350.48 973.101M1349.09 978.35C1349.09 978.35 1342.89 972.859 1341.48 970.132C1340.06 967.404 1339.6 965.207 1340.34 963.79C1340.73 963.06 1341.1 962.697 1341.37 962.516C1341.6 962.364 1341.9 962.403 1342.1 962.592C1342.51 962.976 1343.2 963.813 1343.42 965.207C1343.74 967.227 1344.2 970.45 1345.69 972.045C1347.13 973.583 1349.78 973.373 1350.48 973.101M1382.36 973.127V965.811C1382.36 963.146 1382.85 960.523 1383.78 958.064M1348.59 1000.88V1024.97M1345.06 1028.22L1348.59 1024.97M1345.06 1028.22L1345.05 1028.23H1345.06M1345.06 1028.22V1028.23M1350.48 973.101V965.81C1350.48 963.145 1349.99 960.522 1349.05 958.063M1348.59 1024.97H1383.89M1348.59 1024.97L1345.06 1028.23M1345.06 1028.23H1387.78M1383.89 1024.97L1387.78 1028.23M1383.78 958.064C1384.53 956.106 1385.56 954.252 1386.85 952.566L1383.93 951.518C1372.31 947.334 1359.57 947.435 1348.01 951.803L1345.99 952.566C1347.28 954.252 1348.31 956.105 1349.05 958.063M1383.78 958.064C1388.73 956.69 1391.82 954.736 1391.82 952.567C1391.82 948.407 1380.45 945.035 1366.42 945.035C1352.39 945.035 1341.02 948.407 1341.02 952.567C1341.02 954.735 1344.11 956.689 1349.05 958.063" stroke="#FDBA12" stroke-width="1.25562" stroke-miterlimit="10" stroke-linejoin="round"/>
<path d="M1321.8 886.509C1321.93 886.441 1322.06 886.374 1322.19 886.308C1326.13 884.322 1329.9 883.726 1332.54 884.533L1333.83 884.892M1321.8 886.509C1320.8 887.038 1319.88 887.602 1319.15 888.163L1308.77 896.11C1308.03 896.678 1307.25 897.411 1306.48 898.239M1321.8 886.509L1318.69 882.446M1333.83 884.892L1301.81 909.419M1333.83 884.892L1337.35 882.19M1306.48 898.239C1306.4 898.324 1306.32 898.411 1306.24 898.499C1303.26 901.8 1301.69 905.312 1301.78 908.083L1301.81 909.419M1306.48 898.239L1303.36 894.169M1318.69 882.446C1318.76 882.346 1318.83 882.243 1318.89 882.139C1321.42 878.242 1321.96 873.378 1320.59 868.94L1320.01 867.339M1318.69 882.446C1318.03 883.413 1317.31 884.223 1316.56 884.79L1306.19 892.737C1305.46 893.298 1304.48 893.783 1303.36 894.169M1301.81 909.419L1298.26 912.137M1337.35 882.19L1298.26 912.137M1337.35 882.19L1336.01 887.799M1337.35 882.19L1337.36 882.187V882.19M1303.36 894.169C1303.22 894.218 1303.08 894.266 1302.93 894.312C1298.53 895.693 1293.73 894.947 1289.83 892.485L1288.37 891.579M1320.01 867.339C1320.01 867.339 1318.78 867.874 1317.34 867.072C1315.9 866.27 1314.27 863.665 1314.98 863.527C1315.03 863.518 1315.09 863.501 1315.15 863.478M1320.01 867.339C1320.25 866.111 1321.79 857.705 1321.22 854.479C1320.61 850.99 1319.49 848.657 1317.81 847.882C1316.92 847.468 1316.31 847.408 1315.94 847.441C1315.65 847.467 1315.42 847.693 1315.37 847.984C1315.26 848.61 1315.2 849.882 1315.99 851.339C1317.11 853.41 1318.95 856.683 1318.71 859.184C1318.48 861.519 1316.06 863.158 1315.15 863.478M1298.26 912.137L1303.71 912.541M1298.26 912.137L1319.64 940.043M1336.01 887.799L1303.71 912.541M1336.01 887.799V887.801M1336.01 887.799L1337.36 882.19M1337.36 882.19L1358.74 910.096M1288.37 891.579C1288.37 891.579 1289.21 890.525 1288.81 888.929C1288.41 887.332 1286.32 885.074 1286 885.731C1285.99 885.754 1285.98 885.779 1285.96 885.806M1288.37 891.579C1288.37 891.579 1278.85 890.901 1275.64 889.398C1272.43 887.896 1270.47 886.209 1270.16 884.391C1270 883.454 1270.09 882.86 1270.21 882.503C1270.31 882.203 1270.62 882.027 1270.93 882.06C1271.58 882.125 1272.8 882.406 1273.97 883.527C1275.68 885.151 1278.36 887.778 1280.84 888.193C1283.23 888.595 1285.52 886.54 1285.96 885.806M1315.15 863.478L1310.03 856.784C1308.16 854.345 1306.77 851.603 1305.9 848.698M1303.71 912.541L1320.6 934.583M1303.71 912.541L1336.01 887.801M1319.64 940.043L1320.6 934.583M1319.64 940.043V940.046L1319.65 940.044M1319.64 940.043L1319.65 940.046V940.044M1285.96 885.806L1280.85 879.134C1278.98 876.696 1276.7 874.638 1274.12 873.043M1320.6 934.583L1352.89 909.842M1320.6 934.583L1319.65 940.044M1336.01 887.801L1352.89 909.842M1319.65 940.044L1358.74 910.096M1358.74 910.096L1352.89 909.842M1305.9 848.698C1305.21 846.384 1304.85 843.968 1304.85 841.521L1301.45 842.603C1287.87 846.925 1276.29 855.947 1268.78 868.046L1267.46 870.16C1269.82 870.798 1272.06 871.773 1274.12 873.043M1305.9 848.698C1309.46 843.973 1310.92 840.018 1309.4 838.034C1306.48 834.228 1293.71 839.115 1280.88 848.949C1268.04 858.783 1260 869.84 1262.91 873.646C1264.43 875.63 1268.63 875.252 1274.12 873.043" stroke="#B22C1B" stroke-width="1.25571" stroke-miterlimit="10" stroke-linejoin="round"/>
<path d="M1433.88 889.641C1434.04 889.715 1434.2 889.791 1434.36 889.868C1439.18 892.184 1442.54 895.364 1443.72 898.492L1444.33 899.997M1433.88 889.641C1432.62 889.064 1431.4 888.601 1430.32 888.313L1415.01 884.228C1413.92 883.936 1412.63 883.726 1411.27 883.6M1433.88 889.641L1435.48 883.644M1444.33 899.997L1397.07 887.388M1444.33 899.997L1449.53 901.386M1411.27 883.6C1411.13 883.587 1410.98 883.575 1410.84 883.564C1405.46 883.141 1400.93 884.231 1398.33 886.372L1397.07 887.388M1411.27 883.6L1412.87 877.593M1435.48 883.644C1435.62 883.635 1435.77 883.625 1435.92 883.613C1441.54 883.156 1446.61 880.07 1449.85 875.47L1450.97 873.736M1435.48 883.644C1434.06 883.724 1432.74 883.628 1431.65 883.336L1416.34 879.252C1415.26 878.963 1414.07 878.381 1412.87 877.593M1397.07 887.388L1391.83 885.991M1449.53 901.386L1391.83 885.991M1449.53 901.386L1443.15 904.241M1449.53 901.386L1449.54 901.389M1449.53 901.386L1449.54 901.385V901.389M1412.87 877.593C1412.72 877.493 1412.56 877.389 1412.41 877.282C1407.83 874.074 1404.99 868.912 1404.47 863.341L1404.27 861.277M1450.97 873.736C1450.97 873.736 1449.54 872.944 1449.25 870.97C1448.96 868.995 1450.25 865.496 1450.91 866.083C1450.96 866.122 1451.01 866.165 1451.08 866.21M1450.97 873.736C1452.32 873.05 1461.54 868.314 1464.22 865.379C1467.12 862.206 1468.53 859.405 1468.04 857.223C1467.77 856.059 1467.38 855.429 1467.07 855.096C1466.83 854.833 1466.44 854.782 1466.13 854.949C1465.45 855.309 1464.18 856.189 1463.36 858.026C1462.2 860.639 1460.42 864.827 1457.84 866.444C1455.42 867.953 1452.06 866.842 1451.08 866.21M1391.83 885.991L1395.48 891.523M1391.83 885.991L1395.48 891.525M1391.83 885.991L1380.84 927.185M1443.15 904.241L1395.48 891.523M1443.15 904.241V904.244M1449.54 901.389L1438.55 942.582M1449.54 901.389L1443.15 904.244M1404.27 861.277C1404.27 861.277 1405.9 861.303 1407.14 859.737C1408.38 858.171 1409 854.493 1408.13 854.671C1408.1 854.677 1408.07 854.682 1408.03 854.687M1404.27 861.277C1404.27 861.277 1397.87 851.627 1396.94 847.432C1396.01 843.237 1396.18 840.104 1397.69 838.459C1398.48 837.611 1399.11 837.255 1399.54 837.109C1399.91 836.986 1400.3 837.147 1400.51 837.475C1400.92 838.141 1401.55 839.521 1401.35 841.483C1401.05 844.325 1400.51 848.845 1401.95 851.535C1403.33 854.13 1406.99 854.803 1408.03 854.687M1451.08 866.21L1453.72 856.328C1454.68 852.729 1456.28 849.362 1458.43 846.378M1395.48 891.523L1386.8 924.06M1395.48 891.525L1386.8 924.062M1395.48 891.525L1443.15 904.244M1380.84 927.185L1386.8 924.06M1380.84 927.185L1380.85 927.187M1380.84 927.185V927.189L1380.85 927.187M1408.03 854.687L1410.66 844.839C1411.62 841.24 1411.9 837.52 1411.52 833.863M1386.8 924.06L1434.47 936.778M1386.8 924.062L1434.47 936.778M1386.8 924.062L1380.85 927.187M1443.15 904.244L1434.47 936.778M1380.85 927.187L1438.55 942.582M1438.55 942.582L1434.47 936.778M1458.43 846.378C1460.14 844.001 1462.2 841.868 1464.55 840.056L1460.99 837.59C1446.8 827.749 1429.56 823.296 1412.37 825.031L1409.37 825.335C1410.5 828.076 1411.22 830.95 1411.52 833.863M1458.43 846.378C1465.61 846.304 1470.49 844.778 1471.27 841.85C1472.77 836.231 1458.62 827.579 1439.67 822.524C1420.73 817.469 1404.15 817.925 1402.65 823.544C1401.87 826.472 1405.34 830.225 1411.52 833.863" stroke="#4C83C3" stroke-width="1.25571" stroke-miterlimit="10" stroke-linejoin="round"/>
<path d="M1240.44 972.897C1240.57 972.971 1240.7 973.046 1240.82 973.123C1244.65 975.418 1247.19 978.317 1247.92 981.003L1248.31 982.299M1240.44 972.897C1239.45 972.321 1238.47 971.843 1237.6 971.52L1225.21 966.944C1224.32 966.617 1223.28 966.343 1222.15 966.133M1240.44 972.897L1242.23 968.046M1248.31 982.299L1210.08 968.176M1248.31 982.299L1252.52 983.854M1222.15 966.133C1222.04 966.111 1221.92 966.09 1221.8 966.07C1217.37 965.303 1213.53 965.855 1211.21 967.431L1210.08 968.176M1222.15 966.133L1223.95 961.274M1242.23 968.046C1242.36 968.05 1242.48 968.053 1242.61 968.055C1247.3 968.111 1251.74 965.944 1254.8 962.38L1255.86 961.027M1242.23 968.046C1241.05 968.003 1239.97 967.821 1239.08 967.494L1226.7 962.919C1225.82 962.596 1224.88 962.021 1223.95 961.274M1210.08 968.176L1205.85 966.611M1252.52 983.854L1205.85 966.611M1252.52 983.854L1247 985.728M1252.52 983.854L1252.53 983.856L1252.52 983.857M1252.52 983.854V983.857M1223.95 961.274C1223.83 961.179 1223.71 961.081 1223.59 960.981C1220.04 957.964 1218.09 953.462 1218.09 948.8L1218.08 947.072M1255.86 961.027C1255.86 961.027 1254.73 960.26 1254.64 958.599C1254.55 956.939 1255.89 954.136 1256.4 954.674C1256.43 954.71 1256.48 954.75 1256.53 954.793M1255.86 961.027C1257.03 960.563 1265.05 957.349 1267.49 955.122C1270.14 952.714 1271.53 950.5 1271.29 948.652C1271.16 947.665 1270.89 947.113 1270.66 946.812C1270.48 946.576 1270.16 946.503 1269.89 946.617C1269.29 946.863 1268.17 947.494 1267.35 948.956C1266.19 951.033 1264.39 954.37 1262.12 955.511C1260 956.576 1257.29 955.393 1256.53 954.793M1205.85 966.611L1208.44 971.482M1205.85 966.611L1208.44 971.484M1205.85 966.611L1193.54 999.932M1247 985.728L1208.44 971.482M1247 985.728V985.73M1252.52 983.857L1240.21 1017.18M1252.52 983.857L1247 985.73M1218.08 947.072C1218.08 947.072 1219.43 947.22 1220.58 946.017C1221.73 944.813 1222.53 941.811 1221.79 941.891C1221.77 941.894 1221.74 941.896 1221.71 941.896M1218.08 947.072C1218.08 947.072 1213.52 938.571 1213.07 935.019C1212.63 931.466 1213.01 928.881 1214.39 927.633C1215.11 926.99 1215.66 926.744 1216.03 926.656C1216.34 926.583 1216.66 926.747 1216.8 927.035C1217.09 927.619 1217.51 928.813 1217.19 930.425C1216.72 932.76 1215.92 936.468 1216.91 938.81C1217.85 941.07 1220.84 941.913 1221.71 941.896M1256.53 954.793L1259.49 946.799C1260.56 943.888 1262.15 941.219 1264.17 938.911M1208.44 971.482L1198.72 997.801M1208.44 971.484L1198.72 997.803M1208.44 971.484L1247 985.73M1193.54 999.932L1198.72 997.801M1193.54 999.932V999.934M1221.71 941.896L1224.65 933.931C1225.73 931.019 1226.25 927.955 1226.22 924.892M1198.72 997.801L1237.28 1012.05M1198.72 997.803L1237.28 1012.05M1198.72 997.803L1193.54 999.934M1247 985.73L1237.28 1012.05M1193.54 999.934L1240.21 1017.18M1240.21 1017.18L1237.28 1012.05M1264.17 938.911C1265.77 937.071 1267.64 935.461 1269.73 934.14L1266.97 931.819C1255.96 922.555 1242 917.524 1227.61 917.632L1225.1 917.651C1225.83 920.013 1226.2 922.452 1226.22 924.892M1264.17 938.911C1270.13 939.406 1274.29 938.518 1275.17 936.149C1276.84 931.604 1265.78 923.33 1250.45 917.668C1235.13 912.006 1221.34 911.1 1219.66 915.644C1218.79 918.013 1221.37 921.395 1226.22 924.892" stroke="#4C83C3" stroke-width="1.25571" stroke-miterlimit="10" stroke-linejoin="round"/>
</g>
<path d="M23.6618 937.409C23.4922 937.409 23.3332 937.432 23.1886 937.48C23.0543 937.523 22.9391 937.582 22.8474 937.655C22.7625 937.722 22.6984 937.797 22.6504 937.886C22.6111 937.959 22.593 938.031 22.593 938.113C22.593 938.183 22.607 938.24 22.6374 938.294C22.6807 938.37 22.7399 938.436 22.8193 938.496C22.9049 938.561 23.0155 938.612 23.1489 938.65C23.4569 938.737 23.8654 938.738 24.1659 938.651C24.2969 938.613 24.4067 938.561 24.4927 938.496C24.5723 938.436 24.632 938.37 24.6746 938.294C24.7053 938.241 24.7197 938.183 24.7197 938.113C24.7197 938.032 24.7013 937.959 24.6622 937.886C24.6142 937.797 24.5502 937.722 24.4664 937.656C24.3726 937.582 24.2584 937.522 24.125 937.478C23.9864 937.432 23.8301 937.409 23.6618 937.409ZM23.6618 940.001C23.3577 940.001 23.0675 939.962 22.799 939.886C22.5104 939.805 22.2561 939.681 22.0434 939.519C21.826 939.354 21.65 939.156 21.521 938.928C21.3801 938.681 21.3086 938.407 21.3086 938.113C21.3086 937.818 21.3797 937.537 21.52 937.276C21.6514 937.033 21.8304 936.821 22.0518 936.646C22.2617 936.48 22.5114 936.349 22.7923 936.257C23.3399 936.08 23.9889 936.081 24.5281 936.258C24.8054 936.35 25.0522 936.481 25.2628 936.648C25.4829 936.822 25.6619 937.034 25.7928 937.277C25.9331 937.538 26.004 937.819 26.004 938.113C26.004 938.406 25.9325 938.68 25.7919 938.928C25.6631 939.154 25.4874 939.354 25.2693 939.519C25.0565 939.681 24.8053 939.804 24.5219 939.885C24.2564 939.962 23.9668 940.001 23.6618 940.001Z" fill="white"/>
<path d="M30.7649 935.776C30.548 935.776 30.3439 935.806 30.1578 935.867C29.9811 935.924 29.8294 936.003 29.7075 936.099C29.5915 936.191 29.5038 936.294 29.4378 936.416C29.3814 936.521 29.3537 936.631 29.3537 936.75C29.3537 936.857 29.376 936.946 29.4244 937.031C29.4845 937.137 29.5671 937.229 29.6769 937.312C29.7913 937.399 29.9385 937.468 30.1141 937.517C30.5078 937.629 31.0231 937.63 31.405 937.519L31.4061 937.519C31.578 937.469 31.724 937.399 31.8394 937.312C31.9493 937.228 32.032 937.137 32.0919 937.031C32.1399 936.946 32.1626 936.857 32.1626 936.75C32.1626 936.631 32.135 936.521 32.0781 936.416C32.0127 936.294 31.925 936.191 31.8098 936.1C31.6859 936.002 31.5354 935.923 31.3609 935.865C31.1813 935.806 30.9806 935.776 30.7649 935.776ZM30.7649 938.886C30.4113 938.886 30.0744 938.842 29.7638 938.753C29.4335 938.66 29.1425 938.52 28.8999 938.335C28.6525 938.147 28.4532 937.921 28.3074 937.665C28.1496 937.387 28.0693 937.079 28.0693 936.75C28.0693 936.419 28.1492 936.102 28.3068 935.808C28.4562 935.531 28.6597 935.29 28.9116 935.091C29.152 934.901 29.4381 934.751 29.7608 934.645C30.3921 934.44 31.1448 934.442 31.7645 934.646C32.0828 934.752 32.3655 934.901 32.6062 935.092C32.8576 935.291 33.0607 935.531 33.2093 935.807C33.3668 936.101 33.4468 936.418 33.4468 936.75C33.4468 937.078 33.3668 937.386 33.2091 937.665C33.0633 937.921 32.8641 938.146 32.6164 938.335C32.3742 938.518 32.0867 938.659 31.7621 938.752C31.4554 938.841 31.1199 938.886 30.7649 938.886Z" fill="white"/>
<path d="M38.6679 934.093C38.3944 934.093 38.1361 934.131 37.9004 934.208C37.6732 934.281 37.4776 934.383 37.3189 934.508C37.1666 934.629 37.0502 934.766 36.9627 934.928C36.8843 935.074 36.8464 935.225 36.8464 935.39C36.8464 935.539 36.8794 935.67 36.9475 935.79C37.0285 935.932 37.1385 936.055 37.285 936.166C37.4351 936.281 37.6261 936.371 37.8523 936.435C38.3456 936.575 38.9925 936.575 39.4717 936.436L39.4726 936.436C39.6942 936.372 39.8839 936.281 40.036 936.166C40.1816 936.055 40.292 935.932 40.372 935.791C40.4404 935.67 40.4738 935.539 40.4738 935.39C40.4738 935.225 40.4357 935.074 40.3572 934.928C40.2701 934.767 40.1533 934.629 40.0006 934.508C39.8418 934.382 39.6476 934.281 39.4237 934.206C39.1952 934.13 38.9403 934.093 38.6679 934.093ZM38.6679 937.825C38.2542 937.825 37.862 937.773 37.5017 937.67C37.1214 937.563 36.7867 937.401 36.5083 937.189C36.2237 936.973 35.9959 936.716 35.8305 936.424C35.6527 936.111 35.562 935.763 35.562 935.39C35.562 935.013 35.6527 934.652 35.8317 934.32C36.0016 934.004 36.2343 933.728 36.5228 933.5C36.8006 933.281 37.1303 933.108 37.5029 932.986C38.2339 932.749 39.1088 932.75 39.828 932.987C40.1948 933.109 40.5208 933.282 40.7974 933.5C41.0864 933.729 41.3188 934.005 41.4882 934.32C41.6673 934.652 41.7581 935.013 41.7581 935.39C41.7581 935.761 41.6679 936.109 41.4897 936.424C41.3243 936.715 41.0965 936.973 40.8126 937.189C40.533 937.4 40.2023 937.563 39.8283 937.67C39.4729 937.773 39.0824 937.825 38.6679 937.825Z" fill="white"/>
<path d="M43.0414 913.222C42.848 913.414 42.554 913.463 42.3087 913.344C42.0631 913.226 41.9195 912.964 41.9505 912.693C42.0354 911.951 41.8432 911.445 41.3631 911.146C40.4754 910.594 38.666 910.808 37.4115 911.614C36.9608 911.905 36.2202 912.508 36.3223 913.295C36.3678 913.647 36.1196 913.969 35.768 914.015C35.4163 914.059 35.0941 913.813 35.0484 913.461C34.733 911.022 33.4215 910.256 32.3768 910.043C30.6521 909.691 28.5943 910.619 27.6925 912.156C26.9269 913.459 27.1735 914.954 28.3865 916.366C28.5337 916.538 28.5801 916.774 28.5086 916.988C28.4373 917.202 28.2583 917.363 28.0376 917.412C23.5006 918.411 22.0776 920.546 22.2587 922.211C22.4727 924.179 25.0104 926.272 29.2917 926.272C29.4632 926.272 29.6276 926.34 29.7483 926.463C29.8688 926.584 29.9356 926.749 29.9338 926.921C29.9243 927.778 30.2064 928.451 30.5956 928.971H49.8359C52.627 928.971 54.9106 926.687 54.9106 923.896V912.476C51.8581 909.98 46.8719 909.409 43.0414 913.222Z" fill="white"/>
<path d="M20.9819 922.353C20.7555 920.272 22.1979 917.685 26.8092 916.398C25.7779 914.779 25.6868 913.038 26.585 911.508C27.7674 909.496 30.3696 908.326 32.6335 908.789C34.0567 909.078 35.1435 909.976 35.7745 911.334C36.0286 911.046 36.3441 910.777 36.7169 910.538C38.1703 909.604 40.53 909.118 42.0417 910.059C42.5686 910.387 42.9315 910.859 43.1149 911.44C46.9976 908.337 51.6618 908.737 54.9106 910.887V903.298C54.9106 900.507 52.6271 898.223 49.8359 898.223H21.1826C18.3915 898.223 16.1079 900.507 16.1079 903.298V923.9C16.1079 926.691 18.3915 928.974 21.1826 928.974H29.1007C28.8885 928.529 28.7417 928.054 28.6827 927.547C23.9734 927.347 21.252 924.836 20.9819 922.353Z" fill="white"/>
<path d="M57.2717 920.788C59.7028 917.717 58.6014 914.215 56.3262 912.018C55.8951 911.602 55.4197 911.223 54.9106 910.887L54.9105 912.479C55.0919 912.627 55.2673 912.781 55.4343 912.942C57.2344 914.68 58.4422 917.674 55.9226 920.389C55.8041 920.517 55.7424 920.687 55.7521 920.861C55.7616 921.035 55.8414 921.198 55.973 921.311C57.8753 922.958 57.9842 926.137 56.2259 928.707C53.9138 932.087 48.4661 934.123 40.1095 929.701C40.015 929.652 39.9119 929.627 39.8092 929.627C39.6716 929.627 39.5345 929.671 39.4205 929.758C37.5514 931.178 34.437 931.392 32.1768 930.256C31.7107 930.021 31.0724 929.612 30.5956 928.974H29.1006C29.5765 929.974 30.4185 930.809 31.5999 931.403C34.1377 932.679 37.6057 932.5 39.8593 931.019C43.3312 932.801 46.349 933.528 48.8942 933.528C52.88 933.528 55.7045 931.744 57.286 929.433C59.2687 926.535 59.227 922.942 57.2717 920.788Z" fill="white"/>
<path d="M79.0502 907.714C79.2576 907.803 79.4118 908 79.4398 908.224L80.1291 913.847H82.5585V907.233C82.5585 907.035 82.6507 906.848 82.8077 906.728L83.9464 905.855L80.5664 904.851C80.3113 904.776 80.1302 904.549 80.1131 904.283C80.0961 904.017 80.246 903.769 80.4896 903.661L83.706 902.235L80.8858 901.409C80.6756 901.347 80.5116 901.182 80.4523 900.97C80.3936 900.759 80.4474 900.532 80.5955 900.37L82.5585 898.223H72.5405C72.7008 902.368 75.2153 906.064 79.0502 907.714Z" fill="white"/>
<path d="M85.7289 901.503C85.9847 901.578 86.1669 901.804 86.1844 902.071C86.202 902.337 86.0516 902.586 85.8074 902.694L82.5822 904.124L85.505 904.992C85.7339 905.06 85.9056 905.251 85.949 905.486C85.9923 905.721 85.9002 905.961 85.7108 906.106L83.8302 907.547V913.847H86.4873L87.17 908.241C87.1975 908.016 87.3434 907.809 87.552 907.721C91.3956 906.073 93.9156 902.375 94.0759 898.223H84.2812L82.2217 900.475L85.7289 901.503Z" fill="white"/>
<path d="M87.1328 917.84H79.4839C79.1327 917.84 78.8484 917.555 78.8484 917.204C78.8484 916.853 79.1327 916.569 79.4839 916.569H87.1328C87.484 916.569 87.7683 916.853 87.7683 917.204C87.7683 917.555 87.484 917.84 87.1328 917.84ZM87.1328 920.298H79.4839C79.1327 920.298 78.8484 920.014 78.8484 919.663C78.8484 919.311 79.1327 919.027 79.4839 919.027H87.1328C87.484 919.027 87.7683 919.311 87.7683 919.663C87.7683 920.014 87.484 920.298 87.1328 920.298ZM87.1328 922.757H79.4839C79.1327 922.757 78.8484 922.472 78.8484 922.121C78.8484 921.769 79.1327 921.485 79.4839 921.485H87.1328C87.484 921.485 87.7683 921.769 87.7683 922.121C87.7683 922.472 87.484 922.757 87.1328 922.757ZM84.6748 925.215H81.9419C81.5912 925.215 81.3064 924.93 81.3064 924.579C81.3064 924.228 81.5912 923.943 81.9419 923.943H84.6748C85.0261 923.943 85.3109 924.228 85.3109 924.579C85.3109 924.93 85.0261 925.215 84.6748 925.215ZM97.6831 898.223H95.3481C95.1911 902.761 92.512 906.822 88.3906 908.738L87.6816 914.56C87.6421 914.879 87.3721 915.119 87.05 915.119H79.5668C79.2457 915.119 78.9746 914.879 78.9357 914.56L78.2212 908.735C74.096 906.806 71.4256 902.751 71.2692 898.223H69.0297C66.2386 898.223 63.9551 900.506 63.9551 903.297V923.9C63.9551 926.691 66.2386 928.974 69.0297 928.974H97.6831C100.474 928.974 102.758 926.691 102.758 923.9V903.297C102.758 900.506 100.474 898.223 97.6831 898.223Z" fill="white"/>
<path d="M16.8061 942.935H18.6345V953.528H16.8061V942.935ZM16.8061 942.935H18.6345V953.528H16.8061V942.935ZM17.7004 941.077C17.4817 941.077 17.278 941.05 17.0893 940.998C16.9005 940.945 16.7397 940.868 16.6075 940.769C16.4747 940.67 16.3704 940.554 16.2944 940.421C16.2181 940.289 16.1802 940.143 16.1802 939.984C16.1802 939.818 16.2197 939.662 16.2993 939.517C16.3787 939.371 16.4864 939.245 16.6223 939.139C16.758 939.033 16.9187 938.95 17.1044 938.891C17.2895 938.832 17.4884 938.801 17.7004 938.801C17.9126 938.801 18.1095 938.832 18.2917 938.891C18.474 938.95 18.6329 939.033 18.7688 939.139C18.9045 939.245 19.0122 939.371 19.0916 939.517C19.1712 939.662 19.2109 939.818 19.2109 939.984C19.2109 940.143 19.1726 940.289 19.0968 940.421C19.0203 940.554 18.9162 940.67 18.7836 940.769C18.6511 940.868 18.492 940.945 18.3065 940.998C18.1212 941.05 17.9191 941.077 17.7004 941.077Z" fill="white"/>
<path d="M29.715 946.463H27.9759C27.87 945.805 27.6282 945.257 27.2507 944.822C26.8729 944.386 26.2668 944.168 25.4321 944.168C24.2924 944.168 23.4777 944.726 22.9877 945.84C22.6694 946.563 22.5106 947.455 22.5106 948.516C22.5106 949.584 22.7356 950.483 23.1863 951.213C23.6367 951.942 24.3455 952.307 25.313 952.307C26.0548 952.307 26.6426 952.08 27.0768 951.626C27.5106 951.173 27.8103 950.551 27.9759 949.763H29.715C29.5165 951.174 29.0194 952.206 28.2247 952.858C27.4296 953.511 26.4126 953.837 25.1739 953.837C23.7825 953.837 22.6728 953.329 21.8446 952.312C21.0164 951.295 20.6025 950.025 20.6025 948.501C20.6025 946.633 21.0563 945.178 21.964 944.138C22.8715 943.098 24.0275 942.578 25.4321 942.578C26.6311 942.578 27.6067 942.87 28.3586 943.452C29.1105 944.036 29.5627 945.039 29.715 946.463Z" fill="white"/>
<path d="M38.9072 948.148C38.9072 947.3 38.7845 946.571 38.5396 945.962C38.0757 944.789 37.228 944.203 35.9956 944.203C34.7566 944.203 33.9087 944.822 33.4516 946.061C33.2064 946.723 33.0839 947.565 33.0839 948.585C33.0839 949.407 33.2064 950.106 33.4516 950.682C33.9153 951.782 34.7632 952.331 35.9956 952.331C36.8304 952.331 37.5241 951.982 38.0775 951.283C38.6307 950.584 38.9072 949.539 38.9072 948.148ZM31.3647 942.94H33.1039V944.352C33.4616 943.868 33.8524 943.493 34.2764 943.229C34.8791 942.831 35.588 942.633 36.4032 942.633C37.6088 942.633 38.6322 943.094 39.4736 944.018C40.3149 944.943 40.7357 946.263 40.7357 947.979C40.7357 950.297 40.1295 951.954 38.9173 952.947C38.1486 953.577 37.2542 953.892 36.2342 953.892C35.4323 953.892 34.76 953.716 34.2169 953.365C33.8988 953.166 33.5444 952.825 33.1534 952.341V957.777H31.3647V942.94Z" fill="white"/>
<path d="M51.2092 946.463H49.47C49.3642 945.805 49.1223 945.257 48.7448 944.822C48.367 944.386 47.761 944.168 46.9263 944.168C45.7865 944.168 44.9718 944.726 44.4818 945.84C44.1636 946.563 44.0047 947.455 44.0047 948.516C44.0047 949.584 44.2297 950.483 44.6804 951.213C45.1308 951.942 45.8397 952.307 46.8071 952.307C47.549 952.307 48.1367 952.08 48.571 951.626C49.0048 951.173 49.3045 950.551 49.47 949.763H51.2092C51.0106 951.174 50.5135 952.206 49.7188 952.858C48.9238 953.511 47.9067 953.837 46.668 953.837C45.2766 953.837 44.1669 953.329 43.3387 952.312C42.5106 951.295 42.0967 950.025 42.0967 948.501C42.0967 946.633 42.5505 945.178 43.4581 944.138C44.3657 943.098 45.5216 942.578 46.9263 942.578C48.1253 942.578 49.1008 942.87 49.8527 943.452C50.6046 944.036 51.0568 945.039 51.2092 946.463Z" fill="white"/>
<path d="M54.4589 953.581C54.2402 953.581 54.0365 953.554 53.8479 953.501C53.659 953.449 53.4982 953.372 53.366 953.273C53.2332 953.173 53.1287 953.057 53.0528 952.925C52.9766 952.792 52.9385 952.647 52.9385 952.487C52.9385 952.322 52.9782 952.166 53.0578 952.02C53.1372 951.875 53.2449 951.749 53.3808 951.643C53.5163 951.537 53.6771 951.454 53.8627 951.394C54.0479 951.335 54.2469 951.305 54.4589 951.305C54.6707 951.305 54.868 951.335 55.0502 951.394C55.2323 951.454 55.3914 951.537 55.5273 951.643C55.663 951.749 55.7705 951.875 55.8501 952.02C55.9295 952.166 55.9694 952.322 55.9694 952.487C55.9694 952.647 55.9311 952.792 55.8552 952.925C55.7788 953.057 55.6745 953.173 55.5421 953.273C55.4094 953.372 55.2505 953.449 55.065 953.501C54.8797 953.554 54.6776 953.581 54.4589 953.581Z" fill="white"/>
<path d="M59.4873 939.641C59.9043 939.031 60.7094 938.727 61.9019 938.727C62.0144 938.727 62.1302 938.73 62.2493 938.736C62.3689 938.743 62.5044 938.753 62.657 938.766V940.396C62.4715 940.383 62.3371 940.375 62.2542 940.371C62.1713 940.368 62.094 940.366 62.021 940.366C61.4777 940.366 61.1528 940.507 61.0469 940.788C60.941 941.07 60.8883 941.787 60.8883 942.94H62.657V944.351H60.868V953.533H59.0993V944.351H57.6187V942.94H59.0993V941.27C59.1256 940.528 59.2551 939.985 59.4873 939.641Z" fill="white"/>
<path d="M71.6311 948.034C71.6311 947.04 71.4714 946.232 71.1531 945.608C70.6487 944.628 69.7795 944.138 68.5453 944.138C67.4504 944.138 66.6542 944.556 66.1564 945.391C65.6592 946.225 65.4101 947.232 65.4101 948.411C65.4101 949.544 65.6592 950.488 66.1564 951.244C66.6542 951.999 67.4439 952.377 68.5255 952.377C69.7131 952.377 70.528 951.928 70.9692 951.03C71.4104 950.132 71.6311 949.133 71.6311 948.034ZM73.4991 947.984C73.4991 949.7 73.082 951.118 72.2468 952.237C71.4121 953.357 70.117 953.916 68.3614 953.916C66.8973 953.916 65.7344 953.421 64.8734 952.431C64.0123 951.441 63.5815 950.111 63.5815 948.441C63.5815 946.652 64.0354 945.228 64.9431 944.168C65.8507 943.108 67.0696 942.578 68.6001 942.578C69.9715 942.578 71.1306 943.035 72.0783 943.95C73.0255 944.863 73.4991 946.208 73.4991 947.984Z" fill="white"/>
<path d="M77.3124 942.887V949.945C77.3124 950.487 77.3986 950.931 77.5709 951.275C77.8892 951.91 78.4819 952.228 79.3495 952.228C80.5952 952.228 81.4431 951.672 81.8936 950.56C82.1389 949.965 82.2613 949.147 82.2613 948.108V942.887H84.0498V953.53H82.3607L82.3804 951.959C82.1488 952.364 81.8602 952.706 81.5161 952.983C80.8334 953.54 80.0053 953.818 79.0318 953.818C77.5144 953.818 76.481 953.311 75.9311 952.297C75.6331 951.754 75.4839 951.029 75.4839 950.121V942.887H77.3124Z" fill="white"/>
<path d="M86.7402 942.891H88.4398V944.401C88.9436 943.778 89.4776 943.331 90.0422 943.06C90.6058 942.788 91.2326 942.652 91.9229 942.652C93.4354 942.652 94.4572 943.179 94.9879 944.232C95.2793 944.809 95.4258 945.633 95.4258 946.707V953.534H93.5972V946.826C93.5972 946.177 93.5007 945.653 93.3091 945.256C92.9908 944.593 92.4146 944.262 91.5799 944.262C91.1557 944.262 90.8083 944.305 90.5362 944.391C90.0461 944.537 89.6153 944.828 89.2449 945.266C88.9463 945.617 88.7526 945.98 88.6632 946.354C88.5737 946.729 88.5293 947.263 88.5293 947.959V953.534H86.7402V942.891Z" fill="white"/>
<path d="M102.243 952.348C103.071 952.348 103.751 951.992 104.285 951.28C104.818 950.567 105.085 949.546 105.085 948.214C105.085 946.869 104.81 945.874 104.26 945.228C103.71 944.581 103.031 944.259 102.223 944.259C101.322 944.259 100.591 944.603 100.032 945.292C99.4714 945.981 99.1921 946.995 99.1921 948.333C99.1921 949.473 99.4335 950.426 99.9176 951.195C100.401 951.964 101.176 952.348 102.243 952.348ZM103.932 943.215C104.25 943.414 104.611 943.762 105.015 944.259V938.883H106.735V953.53H105.124V952.05C104.707 952.705 104.213 953.179 103.644 953.47C103.074 953.762 102.421 953.908 101.686 953.908C100.5 953.908 99.473 953.41 98.6054 952.412C97.7372 951.415 97.3037 950.089 97.3037 948.432C97.3037 946.882 97.6994 945.54 98.4913 944.403C99.2826 943.266 100.414 942.698 101.885 942.698C102.699 942.698 103.382 942.871 103.932 943.215Z" fill="white"/>
<path d="M112.555 952.368C113.184 952.368 113.793 952.222 114.383 951.931C115.377 951.447 115.874 950.655 115.874 949.556V948.115C115.656 948.253 115.374 948.37 115.03 948.462C114.685 948.555 114.347 948.621 114.016 948.661L112.932 948.8C112.284 948.887 111.796 949.022 111.472 949.208C110.922 949.519 110.647 950.016 110.647 950.698C110.647 951.215 110.836 951.623 111.214 951.92C111.591 952.219 112.039 952.368 112.555 952.368ZM114.98 947.081C115.39 947.028 115.665 946.856 115.805 946.564C115.884 946.406 115.924 946.177 115.924 945.879C115.924 945.27 115.707 944.827 115.274 944.552C114.839 944.277 114.218 944.14 113.41 944.14C112.476 944.14 111.813 944.392 111.422 944.895C111.204 945.173 111.061 945.587 110.995 946.137H109.325C109.359 944.825 109.784 943.912 110.602 943.399C111.421 942.886 112.369 942.629 113.449 942.629C114.702 942.629 115.719 942.868 116.5 943.345C117.276 943.822 117.663 944.564 117.663 945.57V951.702C117.663 951.887 117.701 952.037 117.777 952.149C117.853 952.262 118.014 952.318 118.259 952.318C118.339 952.318 118.428 952.313 118.527 952.303C118.627 952.293 118.733 952.279 118.846 952.258V953.58C118.567 953.659 118.355 953.709 118.21 953.729C118.064 953.749 117.865 953.759 117.614 953.759C116.997 953.759 116.55 953.54 116.272 953.103C116.126 952.871 116.024 952.544 115.964 952.12C115.6 952.596 115.076 953.011 114.393 953.361C113.711 953.713 112.959 953.888 112.138 953.888C111.151 953.888 110.344 953.589 109.718 952.989C109.092 952.39 108.779 951.639 108.779 950.738C108.779 949.751 109.087 948.985 109.703 948.442C110.319 947.899 111.128 947.565 112.128 947.439L114.98 947.081Z" fill="white"/>
<path d="M120.952 939.918H122.761V942.889H124.461V944.35H122.761V951.296C122.761 951.667 122.887 951.916 123.139 952.042C123.278 952.115 123.51 952.151 123.834 952.151C123.921 952.151 124.013 952.149 124.113 952.145C124.212 952.143 124.328 952.134 124.461 952.121V953.532C124.255 953.592 124.041 953.635 123.82 953.661C123.598 953.687 123.358 953.701 123.099 953.701C122.264 953.701 121.698 953.487 121.4 953.06C121.102 952.633 120.952 952.078 120.952 951.395V944.35H119.512V942.889H120.952V939.918Z" fill="white"/>
<path d="M126.249 942.935H128.077V953.528H126.249V942.935ZM126.249 942.935H128.077V953.528H126.249V942.935ZM127.143 941.077C126.925 941.077 126.721 941.05 126.532 940.998C126.344 940.945 126.183 940.868 126.05 940.769C125.918 940.67 125.814 940.554 125.737 940.421C125.661 940.289 125.623 940.143 125.623 939.984C125.623 939.818 125.663 939.662 125.742 939.517C125.822 939.371 125.929 939.245 126.065 939.139C126.201 939.033 126.362 938.95 126.547 938.891C126.732 938.832 126.931 938.801 127.143 938.801C127.356 938.801 127.553 938.832 127.734 938.891C127.917 938.95 128.076 939.033 128.212 939.139C128.347 939.245 128.455 939.371 128.534 939.517C128.614 939.662 128.654 939.818 128.654 939.984C128.654 940.143 128.616 940.289 128.539 940.421C128.463 940.554 128.359 940.67 128.227 940.769C128.094 940.868 127.935 940.945 127.75 940.998C127.564 941.05 127.362 941.077 127.143 941.077Z" fill="white"/>
<path d="M138.094 948.034C138.094 947.04 137.935 946.232 137.617 945.608C137.113 944.628 136.243 944.138 135.009 944.138C133.914 944.138 133.118 944.556 132.62 945.391C132.122 946.225 131.874 947.232 131.874 948.411C131.874 949.544 132.122 950.488 132.62 951.244C133.118 951.999 133.908 952.377 134.989 952.377C136.176 952.377 136.991 951.928 137.432 951.03C137.874 950.132 138.094 949.133 138.094 948.034ZM139.963 947.984C139.963 949.7 139.545 951.118 138.711 952.237C137.876 953.357 136.581 953.916 134.825 953.916C133.361 953.916 132.198 953.421 131.337 952.431C130.476 951.441 130.046 950.111 130.046 948.441C130.046 946.652 130.499 945.228 131.407 944.168C132.314 943.108 133.533 942.578 135.064 942.578C136.435 942.578 137.594 943.035 138.542 943.95C139.489 944.863 139.963 946.208 139.963 947.984Z" fill="white"/>
<path d="M141.987 942.891H143.687V944.401C144.191 943.778 144.725 943.331 145.289 943.06C145.853 942.788 146.48 942.652 147.17 942.652C148.682 942.652 149.704 943.179 150.235 944.232C150.527 944.809 150.673 945.633 150.673 946.707V953.534H148.844V946.826C148.844 946.177 148.748 945.653 148.556 945.256C148.238 944.593 147.662 944.262 146.827 944.262C146.403 944.262 146.055 944.305 145.783 944.391C145.293 944.537 144.863 944.828 144.492 945.266C144.193 945.617 144 945.98 143.91 946.354C143.821 946.729 143.776 947.263 143.776 947.959V953.534H141.987V942.891Z" fill="white"/>
<path d="M71.6831 893.473C71.5986 893.473 71.513 893.457 71.4307 893.423L64.5479 890.572C64.2938 890.466 64.1401 890.22 64.1401 889.961C64.1401 889.877 64.1561 889.791 64.1906 889.709C64.33 889.371 64.7164 889.212 65.0539 889.351L71.9361 892.202C72.1907 892.307 72.3444 892.553 72.3439 892.813C72.3439 892.897 72.3279 892.982 72.2934 893.065C72.1886 893.319 71.9422 893.473 71.6831 893.473Z" fill="white"/>
<path d="M74.4104 889.392C74.2419 889.392 74.0723 889.327 73.9434 889.198L68.7552 884.01C68.6262 883.881 68.562 883.713 68.562 883.543C68.562 883.374 68.6262 883.206 68.7552 883.076C69.0131 882.818 69.4318 882.818 69.6892 883.076L74.8774 888.264C75.0069 888.393 75.0711 888.562 75.0711 888.731C75.0711 888.901 75.0069 889.069 74.8774 889.198C74.749 889.327 74.5794 889.392 74.4104 889.392Z" fill="white"/>
<path d="M78.4924 886.662C78.2333 886.662 77.9875 886.509 77.8821 886.254L75.0954 879.527C75.0614 879.444 75.0449 879.359 75.0449 879.275C75.0449 879.015 75.1986 878.769 75.4532 878.664C75.7896 878.524 76.176 878.684 76.3159 879.022L79.1026 885.749C79.1366 885.831 79.1531 885.917 79.1531 886.001C79.1531 886.26 78.9994 886.506 78.7448 886.612C78.6625 886.646 78.5763 886.662 78.4924 886.662Z" fill="white"/>
<path d="M83.3067 885.708C82.9418 885.708 82.646 885.413 82.646 885.048V877.774C82.646 877.409 82.9418 877.113 83.3067 877.113C83.6717 877.113 83.9675 877.409 83.9675 877.774V885.048C83.9675 885.413 83.6717 885.708 83.3067 885.708Z" fill="white"/>
<path d="M88.1206 886.665C88.0367 886.665 87.9511 886.648 87.8682 886.614C87.6141 886.508 87.4604 886.263 87.4604 886.003C87.4604 885.919 87.4764 885.834 87.5109 885.751L90.3147 878.982C90.454 878.646 90.8404 878.485 91.1773 878.625C91.432 878.73 91.5856 878.976 91.5856 879.235C91.5856 879.319 91.5692 879.405 91.5351 879.488L88.7314 886.256C88.6261 886.511 88.3802 886.665 88.1206 886.665Z" fill="white"/>
<path d="M92.2027 889.393C92.0336 889.393 91.8646 889.329 91.7357 889.2C91.6067 889.071 91.5425 888.902 91.5425 888.733C91.5425 888.563 91.6067 888.395 91.7357 888.265L96.9836 883.018C97.2416 882.76 97.6592 882.76 97.9177 883.018C98.0466 883.147 98.1108 883.316 98.1108 883.485C98.1108 883.654 98.0466 883.823 97.9177 883.952L92.6697 889.2C92.5407 889.329 92.3717 889.393 92.2027 889.393Z" fill="white"/>
<path d="M94.9303 893.473C94.6708 893.473 94.4249 893.32 94.3195 893.065C94.2855 892.983 94.269 892.897 94.269 892.813C94.269 892.553 94.4227 892.308 94.6773 892.202L101.663 889.308C102.001 889.169 102.386 889.329 102.526 889.666C102.56 889.749 102.576 889.834 102.576 889.918C102.576 890.178 102.423 890.424 102.168 890.529L95.1828 893.423C95.0999 893.457 95.0143 893.473 94.9303 893.473Z" fill="white"/>
<path d="M145.53 898.227H133.709C134.374 898.829 135.104 899.372 135.819 899.824C135.821 899.825 135.861 899.851 135.863 899.852C140.962 903.149 143.35 906.814 142.959 910.748C142.501 915.36 138.277 920.153 130.404 924.992C127.754 926.621 125.116 927.981 123.029 928.978H145.53C148.321 928.978 150.604 926.695 150.604 923.904V903.301C150.604 900.51 148.321 898.227 145.53 898.227Z" fill="white"/>
<path d="M141.681 910.62C142.02 907.205 139.828 903.945 135.166 900.931C134.506 900.513 133.102 899.547 131.902 898.227H116.876C114.085 898.227 111.802 900.51 111.802 903.301V923.904C111.802 926.695 114.085 928.978 116.876 928.978H119.947C125.052 926.733 140.837 919.127 141.681 910.62Z" fill="white"/>
<path d="M131.991 889.194C131.985 889.196 131.981 889.201 131.976 889.203C131.904 889.23 131.841 889.268 131.785 889.316C131.778 889.322 131.771 889.327 131.764 889.333C131.704 889.389 131.655 889.455 131.619 889.531L131.619 889.532C131.618 889.533 131.618 889.535 131.617 889.536C131.598 889.578 131.58 889.62 131.571 889.666C131.563 889.7 131.564 889.734 131.563 889.769C131.563 889.776 131.561 889.783 131.561 889.79C131.56 889.874 131.573 889.956 131.604 890.033V890.035L132.8 893.092H128.186L129.382 890.035C129.383 890.031 129.383 890.027 129.384 890.023C129.411 889.952 129.423 889.877 129.423 889.8C129.423 889.784 129.421 889.769 129.42 889.753C129.417 889.723 129.419 889.694 129.413 889.664C129.404 889.626 129.388 889.591 129.373 889.555C129.37 889.547 129.371 889.539 129.367 889.532C129.366 889.529 129.363 889.527 129.362 889.524C129.327 889.453 129.281 889.39 129.224 889.336C129.215 889.328 129.206 889.321 129.196 889.313C129.141 889.267 129.079 889.229 129.011 889.203C129.005 889.201 129.001 889.196 128.995 889.194C123.652 887.338 119.236 881.026 118.941 874.825C118.795 871.733 119.763 869.002 121.742 866.927C123.886 864.678 126.991 863.439 130.504 863.439C133.995 863.439 137.1 864.678 139.244 866.927C141.223 869.002 142.191 871.733 142.045 874.825C141.75 881.026 137.334 887.338 131.991 889.194ZM137.611 890.702C137.736 890.942 137.614 891.111 137.49 891.212C137.064 891.556 135.727 891.726 133.6 890.12C136.047 889.644 137.331 890.161 137.611 890.702ZM123.494 891.215C123.37 891.116 123.249 890.946 123.373 890.706C123.575 890.314 124.304 889.934 125.618 889.934C126.12 889.934 126.707 889.989 127.383 890.12C125.258 891.726 123.922 891.56 123.494 891.215ZM143.328 874.888C143.493 871.436 142.402 868.377 140.175 866.042C137.785 863.536 134.351 862.156 130.483 862.156C126.637 862.156 123.203 863.536 120.813 866.042C118.586 868.377 117.495 871.436 117.66 874.888C117.913 880.239 121.039 885.666 125.249 888.657C123.593 888.736 122.623 889.362 122.233 890.116C121.854 890.849 122.038 891.693 122.691 892.218C123.069 892.521 123.617 892.722 124.31 892.722C125.136 892.722 126.168 892.433 127.356 891.695L126.649 893.502C126.571 893.7 126.597 893.923 126.716 894.098C126.836 894.273 127.035 894.378 127.247 894.378H129.9C130.062 895.644 130.749 896.95 131.903 898.227H133.712C132.66 897.277 131.456 895.896 131.195 894.378H133.741C133.953 894.378 134.152 894.273 134.271 894.098C134.391 893.923 134.416 893.7 134.339 893.502L133.633 891.696C134.819 892.431 135.849 892.719 136.674 892.719C137.368 892.719 137.918 892.518 138.296 892.213C138.949 891.688 139.132 890.844 138.753 890.112C138.361 889.359 137.394 888.734 135.742 888.655C139.951 885.663 143.074 880.238 143.328 874.888Z" fill="white"/>
</svg>
