<svg width="1920" height="1080" viewBox="0 0 1920 1080" fill="none" xmlns="http://www.w3.org/2000/svg">
<g clip-path="url(#clip0_3717_68562)">
<rect width="835" height="148" transform="translate(1085 836)" fill="#4C83C3"/>
<path d="M1578.3 955.516C1475.61 1029.2 1324.29 1050.18 1296 1053.6C1298.42 1066.6 1298.47 1210.82 1418.39 1222.25C1568.28 1236.54 1736.93 1167.45 1823.29 1026.3C1892.37 913.384 2022.08 903.348 2078.3 912.446C2031.25 872.574 1910.62 797.436 1804.52 815.858C1671.9 838.885 1706.66 863.406 1578.3 955.516Z" fill="white"/>
<path d="M1806.79 992.496C1806.91 992.517 1807.04 992.54 1807.17 992.563C1810.93 993.275 1813.84 994.853 1815.23 996.798L1815.92 997.726M1806.79 992.496C1805.82 992.328 1804.89 992.233 1804.09 992.233H1792.75C1791.94 992.233 1791.02 992.325 1790.05 992.489M1806.79 992.496V988.055M1815.92 997.726H1780.93M1815.92 997.726H1819.78M1790.05 992.489C1789.95 992.506 1789.85 992.524 1789.75 992.542C1785.95 993.242 1783.02 994.832 1781.62 996.79L1780.93 997.726M1790.05 992.489V988.042M1806.79 988.055C1806.89 988.022 1806.99 987.988 1807.09 987.952C1810.89 986.601 1813.82 983.533 1815.22 979.754L1815.67 978.35M1806.79 988.055C1805.82 988.372 1804.9 988.548 1804.09 988.548H1792.75C1791.95 988.548 1791.02 988.365 1790.05 988.042M1780.93 997.726L1777.06 997.725M1790.05 988.042C1789.93 988 1789.8 987.957 1789.68 987.911C1785.91 986.539 1783 983.494 1781.62 979.739L1781.09 978.351M1777.06 997.725L1780.59 1000.88M1777.06 997.725L1780.6 1000.88M1777.06 997.725V1028.22M1777.06 997.725L1819.78 997.726M1819.78 997.726L1815.89 1000.88M1819.78 997.726V997.728M1819.78 997.726V997.725V997.728M1815.67 978.35C1815.67 978.35 1814.54 978.066 1813.97 976.756C1813.41 975.445 1813.65 972.788 1814.22 973.071C1814.26 973.09 1814.31 973.109 1814.36 973.127M1815.67 978.35C1816.48 977.627 1821.98 972.653 1823.29 970.131C1824.71 967.403 1825.17 965.206 1824.42 963.79C1824.03 963.033 1823.64 962.671 1823.36 962.497C1823.15 962.36 1822.87 962.396 1822.69 962.57C1822.28 962.944 1821.57 963.786 1821.34 965.207C1821.02 967.226 1820.56 970.45 1819.07 972.044C1817.69 973.532 1815.16 973.384 1814.36 973.127M1814.36 973.127V965.811C1814.36 963.146 1814.85 960.523 1815.79 958.064M1781.09 978.351C1781.09 978.351 1782.23 978.067 1782.79 976.756C1783.36 975.446 1783.11 972.789 1782.55 973.072C1782.53 973.082 1782.5 973.092 1782.48 973.102M1781.09 978.351C1781.09 978.351 1774.89 972.86 1773.48 970.132C1772.06 967.404 1771.6 965.207 1772.34 963.791C1772.73 963.06 1773.1 962.697 1773.37 962.517C1773.6 962.364 1773.9 962.403 1774.11 962.592C1774.51 962.977 1775.21 963.814 1775.43 965.208C1775.74 967.227 1776.21 970.45 1777.69 972.045C1779.13 973.583 1781.79 973.373 1782.48 973.102M1782.48 973.102V965.811C1782.48 963.146 1781.99 960.522 1781.06 958.064M1815.89 1024.97H1780.59M1815.89 1024.97L1819.78 1028.23M1815.89 1024.97H1780.6M1815.89 1024.97V1000.88M1780.59 1024.97V1000.88M1780.59 1024.97L1777.06 1028.22M1819.78 1028.23V997.728M1819.78 1028.23H1777.06M1780.6 1024.97V1000.88M1780.6 1024.97L1777.06 1028.23M1815.89 1000.88H1780.59M1815.89 1000.88H1780.6M1815.89 1000.88L1819.78 997.728M1777.06 1028.22V1028.23M1781.06 958.064C1780.31 956.105 1779.28 954.252 1777.99 952.566L1780.01 951.803C1791.57 947.435 1804.31 947.334 1815.94 951.518L1818.85 952.566C1817.56 954.253 1816.53 956.106 1815.79 958.064M1781.06 958.064C1776.11 956.689 1773.02 954.735 1773.02 952.567C1773.02 948.407 1784.39 945.036 1798.42 945.035C1812.45 945.036 1823.82 948.408 1823.82 952.567C1823.82 954.736 1820.73 956.69 1815.79 958.064" stroke="#FDBA12" stroke-width="1.25562" stroke-miterlimit="10" stroke-linejoin="round"/>
<path d="M1576.99 1010.73C1576.87 1010.71 1576.74 1010.69 1576.61 1010.67C1572.85 1009.96 1569.94 1008.38 1568.55 1006.43L1567.86 1005.5M1576.99 1010.73C1577.96 1010.9 1578.89 1011 1579.69 1011H1591.03C1591.84 1011 1592.76 1010.91 1593.73 1010.74M1576.99 1010.73V1015.18M1567.86 1005.5H1602.85M1567.86 1005.5H1564M1593.73 1010.74C1593.83 1010.72 1593.93 1010.71 1594.03 1010.69C1597.83 1009.99 1600.76 1008.4 1602.16 1006.44L1602.85 1005.5M1593.73 1010.74V1015.19M1576.99 1015.18C1576.89 1015.21 1576.79 1015.24 1576.69 1015.28C1572.89 1016.63 1569.96 1019.7 1568.56 1023.48L1568.11 1024.88M1576.99 1015.18C1577.96 1014.86 1578.88 1014.68 1579.69 1014.68H1591.03C1591.83 1014.68 1592.76 1014.87 1593.73 1015.19M1602.85 1005.5L1606.72 1005.51M1593.73 1015.19C1593.85 1015.23 1593.98 1015.27 1594.1 1015.32C1597.87 1016.69 1600.78 1019.74 1602.16 1023.49L1602.69 1024.88M1606.72 1005.51L1603.19 1002.35M1606.72 1005.51L1603.18 1002.35M1606.72 1005.51V975.01M1606.72 1005.51L1564 1005.5M1564 1005.5L1567.89 1002.35M1564 1005.5V1005.5M1564 1005.5V1005.51V1005.5M1568.11 1024.88C1568.11 1024.88 1569.24 1025.16 1569.81 1026.47C1570.37 1027.79 1570.13 1030.44 1569.56 1030.16C1569.52 1030.14 1569.47 1030.12 1569.42 1030.1M1568.11 1024.88C1567.3 1025.6 1561.8 1030.58 1560.49 1033.1C1559.07 1035.83 1558.61 1038.02 1559.36 1039.44C1559.75 1040.2 1560.14 1040.56 1560.42 1040.73C1560.63 1040.87 1560.91 1040.83 1561.09 1040.66C1561.5 1040.29 1562.21 1039.44 1562.44 1038.02C1562.76 1036 1563.22 1032.78 1564.71 1031.19C1566.09 1029.7 1568.62 1029.85 1569.42 1030.1M1569.42 1030.1V1037.42C1569.42 1040.08 1568.93 1042.71 1567.99 1045.17M1602.69 1024.88C1602.69 1024.88 1601.55 1025.16 1600.99 1026.47C1600.42 1027.78 1600.67 1030.44 1601.23 1030.16C1601.25 1030.15 1601.28 1030.14 1601.3 1030.13M1602.69 1024.88C1602.69 1024.88 1608.89 1030.37 1610.3 1033.1C1611.72 1035.83 1612.18 1038.02 1611.44 1039.44C1611.05 1040.17 1610.68 1040.53 1610.41 1040.71C1610.18 1040.87 1609.88 1040.83 1609.67 1040.64C1609.27 1040.25 1608.57 1039.42 1608.35 1038.02C1608.04 1036 1607.57 1032.78 1606.09 1031.19C1604.65 1029.65 1601.99 1029.86 1601.3 1030.13M1601.3 1030.13V1037.42C1601.3 1040.08 1601.79 1042.71 1602.72 1045.17M1567.89 978.26H1603.19M1567.89 978.26L1564 975M1567.89 978.26H1603.18M1567.89 978.26V1002.35M1603.19 978.26V1002.35M1603.19 978.26L1606.72 975.01M1564 975V1005.5M1564 975H1606.72M1603.18 978.26V1002.35M1603.18 978.26L1606.72 975M1567.89 1002.35H1603.19M1567.89 1002.35H1603.18M1567.89 1002.35L1564 1005.5M1606.72 975.01V975M1602.72 1045.17C1603.47 1047.13 1604.5 1048.98 1605.79 1050.66L1603.77 1051.43C1592.21 1055.8 1579.47 1055.9 1567.84 1051.71L1564.93 1050.66C1566.22 1048.98 1567.25 1047.12 1567.99 1045.17M1602.72 1045.17C1607.67 1046.54 1610.76 1048.5 1610.76 1050.66C1610.76 1054.82 1599.39 1058.19 1585.36 1058.2C1571.33 1058.19 1559.96 1054.82 1559.96 1050.66C1559.96 1048.49 1563.05 1046.54 1567.99 1045.17" stroke="#FDBA12" stroke-width="1.25562" stroke-miterlimit="10" stroke-linejoin="round"/>
<path d="M1753.8 886.511C1753.93 886.444 1754.06 886.377 1754.19 886.31C1758.13 884.325 1761.9 883.728 1764.54 884.535L1765.83 884.894M1753.8 886.511C1752.8 887.04 1751.88 887.605 1751.15 888.166L1740.77 896.112C1740.03 896.68 1739.25 897.413 1738.48 898.241M1753.8 886.511L1750.69 882.448M1765.83 884.894L1733.81 909.422M1765.83 884.894L1769.35 882.193M1738.48 898.241C1738.4 898.326 1738.32 898.413 1738.24 898.501C1735.26 901.802 1733.69 905.315 1733.78 908.086L1733.81 909.422M1738.48 898.241L1735.36 894.171M1750.69 882.448C1750.76 882.348 1750.83 882.246 1750.89 882.142C1753.42 878.245 1753.96 873.38 1752.59 868.943L1752.01 867.341M1750.69 882.448C1750.03 883.415 1749.31 884.225 1748.56 884.793L1738.19 892.74C1737.46 893.301 1736.48 893.785 1735.36 894.171M1733.81 909.422L1730.26 912.139M1735.36 894.171C1735.22 894.221 1735.08 894.268 1734.93 894.314C1730.53 895.695 1725.73 894.949 1721.83 892.487L1720.37 891.582M1730.26 912.139L1735.71 912.543M1730.26 912.139L1751.64 940.046M1730.26 912.139L1769.35 882.193M1769.35 882.193L1768.01 887.803M1769.35 882.193L1769.36 882.19V882.192M1752.01 867.341C1752.01 867.341 1750.78 867.876 1749.34 867.074C1747.9 866.272 1746.27 863.667 1746.98 863.529C1747.03 863.52 1747.09 863.504 1747.15 863.481M1752.01 867.341C1752.25 866.113 1753.79 857.707 1753.22 854.481C1752.61 850.992 1751.49 848.659 1749.81 847.884C1748.92 847.471 1748.31 847.41 1747.94 847.443C1747.65 847.47 1747.42 847.696 1747.37 847.986C1747.26 848.612 1747.2 849.884 1747.99 851.341C1749.11 853.412 1750.95 856.685 1750.71 859.187C1750.48 861.521 1748.06 863.16 1747.15 863.481M1747.15 863.481L1742.03 856.786C1740.16 854.348 1738.77 851.605 1737.9 848.7M1720.37 891.582C1720.37 891.582 1721.21 890.528 1720.81 888.931C1720.41 887.334 1718.32 885.077 1718 885.733C1717.99 885.756 1717.98 885.781 1717.96 885.808M1720.37 891.582C1720.37 891.582 1710.85 890.903 1707.64 889.401C1704.43 887.898 1702.47 886.211 1702.16 884.393C1702 883.456 1702.09 882.862 1702.21 882.506C1702.31 882.205 1702.62 882.03 1702.93 882.062C1703.58 882.128 1704.8 882.408 1705.97 883.529C1707.68 885.153 1710.36 887.78 1712.84 888.196C1715.23 888.597 1717.52 886.543 1717.96 885.808M1717.96 885.808L1712.85 879.137C1710.98 876.698 1708.7 874.64 1706.12 873.046M1784.89 909.844L1752.6 934.586M1784.89 909.844L1790.74 910.099M1784.89 909.844L1768.01 887.803M1752.6 934.586L1735.71 912.543M1752.6 934.586L1751.64 940.046M1752.6 934.586L1751.65 940.046M1790.74 910.099L1769.36 882.192M1790.74 910.099L1751.65 940.046M1768.01 887.803L1735.71 912.543M1768.01 887.803L1769.36 882.192M1751.64 940.046V940.048L1751.65 940.046M1751.64 940.046L1751.65 940.048V940.046M1706.12 873.046C1704.06 871.776 1701.82 870.8 1699.46 870.162L1700.78 868.049C1708.29 855.949 1719.87 846.927 1733.45 842.606L1736.85 841.523C1736.85 843.97 1737.21 846.387 1737.9 848.7M1706.12 873.046C1700.63 875.255 1696.43 875.632 1694.91 873.649C1692 869.842 1700.04 858.785 1712.88 848.951C1725.71 839.117 1738.48 834.23 1741.4 838.036C1742.92 840.021 1741.46 843.975 1737.9 848.7" stroke="#B22C1B" stroke-width="1.25571" stroke-miterlimit="10" stroke-linejoin="round"/>
<path d="M1735.78 1031.87C1735.86 1031.83 1735.94 1031.79 1736.02 1031.75C1738.38 1030.56 1740.65 1030.2 1742.24 1030.68L1743.02 1030.9M1735.78 1031.87C1735.18 1032.19 1734.63 1032.53 1734.19 1032.86L1727.94 1037.63C1727.5 1037.97 1727.03 1038.41 1726.57 1038.91M1735.78 1031.87L1733.91 1029.43M1743.02 1030.9L1723.76 1045.62M1743.02 1030.9L1745.13 1029.28M1726.57 1038.91C1726.52 1038.96 1726.47 1039.01 1726.42 1039.06C1724.63 1041.05 1723.68 1043.15 1723.74 1044.82L1723.76 1045.62M1726.57 1038.91L1724.69 1036.47M1733.91 1029.43C1733.95 1029.37 1733.99 1029.31 1734.03 1029.25C1735.55 1026.91 1735.88 1023.99 1735.05 1021.32L1734.7 1020.36M1733.91 1029.43C1733.51 1030.01 1733.08 1030.5 1732.63 1030.84L1726.39 1035.61C1725.95 1035.94 1725.36 1036.23 1724.69 1036.47M1723.76 1045.62L1721.62 1047.25M1724.69 1036.47C1724.6 1036.5 1724.52 1036.52 1724.43 1036.55C1721.78 1037.38 1718.9 1036.93 1716.55 1035.46L1715.67 1034.91M1721.62 1047.25L1724.9 1047.49M1721.62 1047.25L1734.48 1064M1721.62 1047.25L1745.13 1029.28M1745.13 1029.28L1744.33 1032.64M1745.13 1029.28L1745.14 1029.28V1029.28M1734.7 1020.36C1734.7 1020.36 1733.96 1020.68 1733.1 1020.2C1732.23 1019.72 1731.25 1018.16 1731.68 1018.08C1731.71 1018.07 1731.74 1018.06 1731.78 1018.05M1734.7 1020.36C1734.85 1019.63 1735.77 1014.58 1735.43 1012.65C1735.06 1010.55 1734.39 1009.15 1733.38 1008.69C1732.85 1008.44 1732.48 1008.4 1732.26 1008.42C1732.08 1008.44 1731.94 1008.57 1731.91 1008.75C1731.85 1009.12 1731.81 1009.89 1732.29 1010.76C1732.96 1012 1734.07 1013.97 1733.92 1015.47C1733.78 1016.87 1732.33 1017.85 1731.78 1018.05M1731.78 1018.05L1728.7 1014.03C1727.58 1012.57 1726.74 1010.92 1726.22 1009.18M1715.67 1034.91C1715.67 1034.91 1716.18 1034.28 1715.94 1033.32C1715.7 1032.36 1714.44 1031.01 1714.25 1031.4C1714.24 1031.42 1714.23 1031.43 1714.22 1031.45M1715.67 1034.91C1715.67 1034.91 1709.95 1034.5 1708.02 1033.6C1706.08 1032.7 1704.91 1031.69 1704.72 1030.6C1704.62 1030.04 1704.68 1029.68 1704.75 1029.47C1704.81 1029.28 1705 1029.18 1705.18 1029.2C1705.57 1029.24 1706.31 1029.41 1707.01 1030.08C1708.04 1031.05 1709.65 1032.63 1711.14 1032.88C1712.58 1033.12 1713.96 1031.89 1714.22 1031.45M1714.22 1031.45L1711.15 1027.44C1710.02 1025.98 1708.65 1024.74 1707.1 1023.79M1754.48 1045.87L1735.06 1060.72M1754.48 1045.87L1758 1046.03M1754.48 1045.87L1744.33 1032.64M1735.06 1060.72L1724.9 1047.49M1735.06 1060.72L1734.48 1064M1735.06 1060.72L1734.49 1064M1758 1046.03L1745.14 1029.28M1758 1046.03L1734.49 1064M1744.33 1032.64L1724.9 1047.49M1744.33 1032.64L1745.14 1029.28M1734.48 1064V1064L1734.49 1064M1734.48 1064L1734.49 1064V1064M1707.1 1023.79C1705.86 1023.03 1704.51 1022.44 1703.09 1022.06L1703.89 1020.79C1708.41 1013.53 1715.37 1008.11 1723.54 1005.52L1725.59 1004.87C1725.59 1006.34 1725.8 1007.79 1726.22 1009.18M1707.1 1023.79C1703.8 1025.11 1701.27 1025.34 1700.36 1024.15C1698.61 1021.86 1703.44 1015.23 1711.17 1009.33C1718.88 1003.42 1726.57 1000.49 1728.32 1002.78C1729.24 1003.97 1728.36 1006.34 1726.22 1009.18" stroke="#B22C1B" stroke-width="1.25571" stroke-miterlimit="10" stroke-linejoin="round"/>
<path d="M1390.94 1077.05C1390.93 1077.14 1390.93 1077.23 1390.92 1077.32C1390.77 1079.96 1389.95 1082.11 1388.73 1083.24L1388.16 1083.8M1390.94 1077.05C1390.96 1076.37 1390.94 1075.72 1390.87 1075.18L1389.86 1067.38C1389.79 1066.83 1389.65 1066.2 1389.45 1065.55M1390.94 1077.05L1393.98 1076.65M1388.16 1083.8L1385.04 1059.76M1388.16 1083.8L1388.5 1086.45M1389.45 1065.55C1389.43 1065.48 1389.41 1065.42 1389.38 1065.35C1388.56 1062.81 1387.21 1060.93 1385.74 1060.15L1385.04 1059.76M1389.45 1065.55L1392.5 1065.15M1393.98 1076.65C1394.01 1076.72 1394.05 1076.79 1394.08 1076.85C1395.35 1079.34 1397.71 1081.08 1400.43 1081.69L1401.44 1081.87M1393.98 1076.65C1393.68 1076.02 1393.47 1075.4 1393.4 1074.84L1392.39 1067.05C1392.32 1066.5 1392.36 1065.85 1392.5 1065.15M1385.04 1059.76L1384.7 1057.1M1392.5 1065.15C1392.52 1065.06 1392.53 1064.97 1392.56 1064.88C1393.16 1062.17 1394.99 1059.9 1397.44 1058.61L1398.35 1058.12M1384.7 1057.1L1382.85 1059.82M1384.7 1057.1L1363.76 1059.86M1384.7 1057.1L1388.5 1086.45M1388.5 1086.45L1385.99 1084.07M1388.5 1086.45L1388.5 1086.45L1388.5 1086.45M1401.44 1081.87C1401.44 1081.87 1401.53 1081.07 1402.38 1080.56C1403.23 1080.05 1405.07 1079.99 1404.93 1080.4C1404.92 1080.43 1404.91 1080.46 1404.91 1080.5M1401.44 1081.87C1402 1082.37 1405.91 1085.69 1407.76 1086.36C1409.76 1087.09 1411.3 1087.21 1412.21 1086.57C1412.7 1086.23 1412.91 1085.93 1413 1085.72C1413.08 1085.56 1413.03 1085.38 1412.89 1085.26C1412.6 1085.02 1411.96 1084.61 1410.96 1084.58C1409.55 1084.54 1407.3 1084.52 1406.07 1083.64C1404.92 1082.82 1404.8 1081.07 1404.91 1080.5M1404.91 1080.5L1409.93 1079.84C1411.76 1079.6 1413.6 1079.7 1415.37 1080.12M1398.35 1058.12C1398.35 1058.12 1398.65 1058.87 1399.6 1059.14C1400.55 1059.41 1402.35 1059 1402.11 1058.64C1402.1 1058.63 1402.09 1058.61 1402.08 1058.59M1398.35 1058.12C1398.35 1058.12 1401.57 1053.36 1403.32 1052.14C1405.06 1050.92 1406.53 1050.4 1407.57 1050.79C1408.1 1050.99 1408.38 1051.21 1408.53 1051.38C1408.66 1051.52 1408.66 1051.74 1408.55 1051.89C1408.32 1052.21 1407.81 1052.76 1406.87 1053.03C1405.51 1053.44 1403.34 1054.04 1402.38 1055.21C1401.45 1056.33 1401.83 1058.14 1402.08 1058.59M1402.08 1058.59L1407.08 1057.93C1408.91 1057.69 1410.67 1057.12 1412.27 1056.26M1369.46 1086.25L1366.31 1062M1369.46 1086.25L1367.57 1089.22M1369.46 1086.25L1385.99 1084.07M1366.31 1062L1382.85 1059.82M1366.31 1062L1363.76 1059.86M1366.31 1062L1363.76 1059.87M1367.57 1089.22L1388.5 1086.45M1367.57 1089.22L1363.76 1059.87M1385.99 1084.07L1382.85 1059.82M1385.99 1084.07L1388.5 1086.45M1363.76 1059.86L1363.76 1059.86L1363.76 1059.87M1363.76 1059.86L1363.76 1059.87L1363.76 1059.87M1412.27 1056.26C1413.55 1055.56 1414.74 1054.69 1415.78 1053.65L1416.48 1054.97C1420.51 1062.52 1421.71 1071.26 1419.88 1079.63L1419.42 1081.72C1418.14 1080.99 1416.78 1080.45 1415.37 1080.12M1412.27 1056.26C1412.78 1052.73 1413.84 1050.43 1415.33 1050.24C1418.19 1049.86 1421.52 1057.37 1422.77 1067.01C1424.02 1076.64 1422.72 1084.76 1419.86 1085.14C1418.37 1085.34 1416.76 1083.39 1415.37 1080.12" stroke="#B22C1B" stroke-width="1.25571" stroke-miterlimit="10" stroke-linejoin="round"/>
<path d="M1865.88 889.641C1866.04 889.715 1866.2 889.791 1866.36 889.868C1871.18 892.184 1874.54 895.364 1875.72 898.492L1876.33 899.997M1865.88 889.641C1864.62 889.064 1863.4 888.601 1862.32 888.313L1847.01 884.228C1845.92 883.936 1844.63 883.726 1843.27 883.6M1865.88 889.641L1867.48 883.644M1876.33 899.997L1829.07 887.388M1876.33 899.997L1881.53 901.386M1843.27 883.6C1843.13 883.587 1842.98 883.575 1842.84 883.564C1837.46 883.141 1832.93 884.231 1830.33 886.372L1829.07 887.388M1843.27 883.6L1844.87 877.593M1867.48 883.644C1867.62 883.635 1867.77 883.625 1867.92 883.613C1873.54 883.156 1878.61 880.07 1881.85 875.47L1882.97 873.736M1867.48 883.644C1866.06 883.724 1864.74 883.628 1863.65 883.336L1848.34 879.252C1847.26 878.963 1846.07 878.381 1844.87 877.593M1829.07 887.388L1823.83 885.991M1844.87 877.593C1844.72 877.493 1844.56 877.389 1844.41 877.282C1839.83 874.074 1836.99 868.912 1836.47 863.341L1836.27 861.277M1823.83 885.991L1827.48 891.523M1823.83 885.991L1827.48 891.525M1823.83 885.991L1812.84 927.185M1823.83 885.991L1881.53 901.386M1881.53 901.386L1875.15 904.241M1881.53 901.386L1881.54 901.389M1881.53 901.386L1881.54 901.385V901.389M1882.97 873.736C1882.97 873.736 1881.54 872.944 1881.25 870.97C1880.96 868.995 1882.25 865.496 1882.91 866.083C1882.96 866.122 1883.01 866.165 1883.08 866.21M1882.97 873.736C1884.32 873.05 1893.54 868.314 1896.22 865.379C1899.12 862.206 1900.53 859.405 1900.04 857.223C1899.77 856.059 1899.38 855.429 1899.07 855.096C1898.83 854.833 1898.44 854.782 1898.13 854.949C1897.45 855.309 1896.18 856.189 1895.36 858.026C1894.2 860.639 1892.42 864.827 1889.84 866.444C1887.42 867.953 1884.06 866.842 1883.08 866.21M1883.08 866.21L1885.72 856.328C1886.68 852.729 1888.28 849.362 1890.43 846.378M1836.27 861.277C1836.27 861.277 1837.9 861.303 1839.14 859.737C1840.38 858.171 1841 854.493 1840.13 854.671C1840.1 854.677 1840.07 854.682 1840.03 854.687M1836.27 861.277C1836.27 861.277 1829.87 851.627 1828.94 847.432C1828.01 843.237 1828.18 840.104 1829.69 838.459C1830.48 837.611 1831.11 837.255 1831.54 837.109C1831.91 836.986 1832.3 837.147 1832.51 837.475C1832.92 838.141 1833.55 839.521 1833.35 841.483C1833.05 844.325 1832.51 848.845 1833.95 851.535C1835.33 854.13 1838.99 854.803 1840.03 854.687M1840.03 854.687L1842.66 844.839C1843.62 841.24 1843.9 837.52 1843.52 833.863M1866.47 936.778L1818.8 924.06M1866.47 936.778L1870.55 942.582M1866.47 936.778L1818.8 924.062M1866.47 936.778L1875.15 904.244M1818.8 924.06L1827.48 891.523M1818.8 924.06L1812.84 927.185M1870.55 942.582L1881.54 901.389M1870.55 942.582L1812.85 927.187M1818.8 924.062L1827.48 891.525M1818.8 924.062L1812.85 927.187M1875.15 904.244V904.241M1875.15 904.244L1827.48 891.525M1875.15 904.244L1881.54 901.389M1827.48 891.523L1875.15 904.241M1812.84 927.185L1812.85 927.187M1812.84 927.185V927.189L1812.85 927.187M1843.52 833.863C1843.22 830.95 1842.5 828.076 1841.37 825.335L1844.37 825.031C1861.56 823.296 1878.8 827.749 1892.99 837.59L1896.55 840.056C1894.2 841.868 1892.14 844.001 1890.43 846.378M1843.52 833.863C1837.34 830.225 1833.87 826.472 1834.65 823.544C1836.15 817.925 1852.73 817.469 1871.67 822.524C1890.62 827.579 1904.77 836.231 1903.27 841.85C1902.49 844.778 1897.61 846.304 1890.43 846.378" stroke="#4C83C3" stroke-width="1.25571" stroke-miterlimit="10" stroke-linejoin="round"/>
<path d="M1672.44 972.897C1672.57 972.971 1672.7 973.046 1672.82 973.123C1676.65 975.418 1679.19 978.317 1679.92 981.003L1680.31 982.299M1672.44 972.897C1671.45 972.321 1670.47 971.843 1669.6 971.52L1657.21 966.944C1656.32 966.617 1655.28 966.343 1654.15 966.133M1672.44 972.897L1674.23 968.046M1680.31 982.299L1642.08 968.176M1680.31 982.299L1684.52 983.854M1654.15 966.133C1654.04 966.111 1653.92 966.09 1653.8 966.07C1649.37 965.303 1645.53 965.855 1643.21 967.431L1642.08 968.176M1654.15 966.133L1655.95 961.274M1674.23 968.046C1674.36 968.05 1674.48 968.053 1674.61 968.055C1679.3 968.111 1683.74 965.944 1686.8 962.38L1687.86 961.027M1674.23 968.046C1673.05 968.003 1671.97 967.821 1671.08 967.494L1658.7 962.919C1657.82 962.596 1656.88 962.021 1655.95 961.274M1642.08 968.176L1637.85 966.611M1655.95 961.274C1655.83 961.179 1655.71 961.081 1655.59 960.981C1652.04 957.964 1650.09 953.462 1650.09 948.8L1650.08 947.072M1637.85 966.611L1640.44 971.482M1637.85 966.611L1640.44 971.484M1637.85 966.611L1625.54 999.932M1637.85 966.611L1684.52 983.854M1684.52 983.854L1679 985.728M1684.52 983.854L1684.53 983.856L1684.52 983.857M1684.52 983.854V983.857M1687.86 961.027C1687.86 961.027 1686.73 960.26 1686.64 958.599C1686.55 956.939 1687.89 954.136 1688.4 954.674C1688.43 954.71 1688.48 954.75 1688.53 954.793M1687.86 961.027C1689.03 960.563 1697.05 957.349 1699.49 955.122C1702.14 952.714 1703.53 950.5 1703.29 948.652C1703.16 947.665 1702.89 947.113 1702.66 946.812C1702.48 946.576 1702.16 946.503 1701.89 946.617C1701.29 946.863 1700.17 947.494 1699.35 948.956C1698.19 951.033 1696.39 954.37 1694.12 955.511C1692 956.576 1689.29 955.393 1688.53 954.793M1688.53 954.793L1691.49 946.799C1692.56 943.888 1694.15 941.219 1696.17 938.911M1650.08 947.072C1650.08 947.072 1651.43 947.22 1652.58 946.017C1653.73 944.813 1654.53 941.811 1653.79 941.891C1653.77 941.894 1653.74 941.896 1653.71 941.896M1650.08 947.072C1650.08 947.072 1645.52 938.571 1645.07 935.019C1644.63 931.466 1645.01 928.881 1646.39 927.633C1647.11 926.99 1647.66 926.744 1648.03 926.656C1648.34 926.583 1648.66 926.747 1648.8 927.035C1649.09 927.619 1649.51 928.813 1649.19 930.425C1648.72 932.76 1647.92 936.468 1648.91 938.81C1649.85 941.07 1652.84 941.913 1653.71 941.896M1653.71 941.896L1656.65 933.931C1657.73 931.019 1658.25 927.955 1658.22 924.892M1669.28 1012.05L1630.72 997.801M1669.28 1012.05L1672.21 1017.18M1669.28 1012.05L1630.72 997.803M1669.28 1012.05L1679 985.73M1630.72 997.801L1640.44 971.482M1630.72 997.801L1625.54 999.932M1672.21 1017.18L1684.52 983.857M1672.21 1017.18L1625.54 999.934M1630.72 997.803L1640.44 971.484M1630.72 997.803L1625.54 999.934M1679 985.73V985.728M1679 985.73L1640.44 971.484M1679 985.73L1684.52 983.857M1640.44 971.482L1679 985.728M1625.54 999.932V999.934M1658.22 924.892C1658.2 922.452 1657.83 920.013 1657.1 917.651L1659.61 917.632C1674 917.524 1687.96 922.555 1698.97 931.819L1701.73 934.14C1699.64 935.461 1697.77 937.071 1696.17 938.911M1658.22 924.892C1653.37 921.395 1650.79 918.013 1651.66 915.644C1653.34 911.1 1667.13 912.006 1682.45 917.668C1697.78 923.33 1708.84 931.604 1707.17 936.149C1706.29 938.518 1702.13 939.406 1696.17 938.911" stroke="#4C83C3" stroke-width="1.25571" stroke-miterlimit="10" stroke-linejoin="round"/>
<path d="M1506.48 1047.47C1506.54 1047.56 1506.61 1047.65 1506.68 1047.75C1508.75 1050.54 1511.19 1052.3 1513.33 1052.67L1514.36 1052.87M1506.48 1047.47C1505.95 1046.73 1505.51 1046.01 1505.19 1045.35L1500.69 1036.06C1500.37 1035.4 1500.08 1034.6 1499.83 1033.75M1506.48 1047.47L1502.86 1049.23M1514.36 1052.87L1500.47 1024.2M1514.36 1052.87L1515.89 1056.03M1499.83 1033.75C1499.8 1033.66 1499.78 1033.57 1499.75 1033.48C1498.82 1030.09 1498.94 1027.06 1499.98 1025.13L1500.47 1024.2M1499.83 1033.75L1496.21 1035.51M1502.86 1049.23C1502.88 1049.32 1502.89 1049.42 1502.9 1049.52C1503.31 1053.17 1501.98 1056.79 1499.46 1059.43L1498.49 1060.36M1502.86 1049.23C1502.74 1048.31 1502.51 1047.48 1502.19 1046.82L1497.7 1037.53C1497.38 1036.87 1496.86 1036.18 1496.21 1035.51M1500.47 1024.2L1498.93 1021.02M1496.21 1035.51C1496.13 1035.43 1496.04 1035.34 1495.96 1035.26C1493.35 1032.72 1489.71 1031.54 1486.11 1031.9L1484.77 1032.03M1498.93 1021.02L1502.9 1022.67M1498.93 1021.02L1502.9 1022.67M1498.93 1021.02L1523.75 1008.9M1498.93 1021.02L1515.89 1056.03M1515.89 1056.03L1516.91 1051.59M1515.89 1056.03L1515.89 1056.03M1515.89 1056.03L1515.89 1056.03L1515.89 1056.03M1498.49 1060.36C1498.49 1060.36 1497.81 1059.54 1496.52 1059.6C1495.23 1059.66 1493.17 1060.92 1493.62 1061.27C1493.65 1061.3 1493.69 1061.32 1493.72 1061.36M1498.49 1060.36C1498.22 1061.31 1496.36 1067.79 1494.83 1069.87C1493.17 1072.12 1491.57 1073.36 1490.12 1073.32C1489.35 1073.29 1488.9 1073.12 1488.65 1072.96C1488.45 1072.84 1488.37 1072.6 1488.44 1072.38C1488.58 1071.9 1488.98 1070.98 1490.05 1070.23C1491.56 1069.16 1494.01 1067.51 1494.71 1065.66C1495.37 1063.92 1494.25 1061.91 1493.72 1061.36M1493.72 1061.36L1487.77 1064.27C1485.6 1065.33 1483.66 1066.77 1482.03 1068.51M1484.77 1032.03C1484.77 1032.03 1484.99 1033.07 1484.15 1034.05C1483.31 1035.04 1481.05 1035.89 1481.05 1035.31C1481.05 1035.29 1481.05 1035.27 1481.05 1035.25M1484.77 1032.03C1484.77 1032.03 1477.84 1029.12 1475.06 1029.05C1472.28 1028.97 1470.31 1029.46 1469.45 1030.63C1469.01 1031.24 1468.86 1031.69 1468.82 1031.98C1468.79 1032.24 1468.94 1032.47 1469.18 1032.56C1469.65 1032.74 1470.61 1032.97 1471.83 1032.6C1473.6 1032.06 1476.4 1031.16 1478.29 1031.74C1480.11 1032.31 1481 1034.57 1481.05 1035.25M1481.05 1035.25L1475.12 1038.14C1472.95 1039.2 1470.62 1039.84 1468.25 1040.05M1536.51 1042.02L1522.5 1013.1M1536.51 1042.02L1540.7 1043.92M1536.51 1042.02L1522.5 1013.1M1536.51 1042.02L1516.91 1051.59M1522.5 1013.1L1502.9 1022.67M1522.5 1013.1L1523.75 1008.9M1540.7 1043.92L1515.89 1056.03M1540.7 1043.92L1523.75 1008.91M1522.5 1013.1L1502.9 1022.67M1522.5 1013.1L1523.75 1008.91M1516.91 1051.59L1516.91 1051.59M1516.91 1051.59L1502.9 1022.67M1516.91 1051.59L1515.89 1056.03M1502.9 1022.67L1516.91 1051.59M1523.75 1008.9L1523.75 1008.91M1523.75 1008.9L1523.75 1008.9L1523.75 1008.91M1468.25 1040.05C1466.36 1040.22 1464.45 1040.11 1462.56 1039.73L1462.74 1041.68C1463.78 1052.89 1468.75 1063.37 1476.77 1071.23L1478.78 1073.21C1479.64 1071.48 1480.74 1069.9 1482.03 1068.51M1468.25 1040.05C1465.17 1036.54 1462.35 1034.79 1460.59 1035.65C1457.21 1037.3 1458.98 1047.96 1464.54 1059.46C1470.11 1070.95 1477.37 1078.94 1480.75 1077.28C1482.51 1076.42 1482.88 1073.11 1482.03 1068.51" stroke="#4C83C3" stroke-width="1.25571" stroke-miterlimit="10" stroke-linejoin="round"/>
<path d="M1667.32 1086.01C1667.43 1086.06 1667.54 1086.11 1667.65 1086.17C1670.95 1087.74 1673.25 1089.9 1674.06 1092.03L1674.48 1093.05M1667.32 1086.01C1666.46 1085.62 1665.62 1085.3 1664.88 1085.11L1654.4 1082.33C1653.65 1082.13 1652.77 1081.99 1651.84 1081.91M1667.32 1086.01L1668.42 1081.94M1674.48 1093.05L1642.11 1084.48M1674.48 1093.05L1678.04 1094M1651.84 1081.91C1651.74 1081.9 1651.64 1081.89 1651.54 1081.88C1647.86 1081.59 1644.76 1082.33 1642.98 1083.79L1642.11 1084.48M1651.84 1081.91L1652.93 1077.82M1668.42 1081.94C1668.51 1081.93 1668.62 1081.92 1668.72 1081.91C1672.57 1081.6 1676.04 1079.51 1678.26 1076.38L1679.02 1075.2M1668.42 1081.94C1667.44 1081.99 1666.54 1081.92 1665.79 1081.73L1655.31 1078.95C1654.57 1078.75 1653.76 1078.36 1652.93 1077.82M1642.11 1084.48L1638.53 1083.53M1652.93 1077.82C1652.83 1077.75 1652.72 1077.68 1652.62 1077.61C1649.48 1075.43 1647.54 1071.92 1647.18 1068.13L1647.04 1066.73M1638.53 1083.53L1641.03 1087.29M1638.53 1083.53L1641.03 1087.29M1638.53 1083.53L1631 1111.53M1638.53 1083.53L1678.04 1094M1678.04 1094L1673.67 1095.94M1678.04 1094L1678.04 1094M1678.04 1094L1678.04 1094V1094M1679.02 1075.2C1679.02 1075.2 1678.04 1074.66 1677.85 1073.32C1677.65 1071.98 1678.53 1069.6 1678.98 1070C1679.02 1070.02 1679.05 1070.05 1679.1 1070.08M1679.02 1075.2C1679.95 1074.73 1686.26 1071.51 1688.1 1069.52C1690.08 1067.36 1691.05 1065.46 1690.71 1063.97C1690.53 1063.18 1690.26 1062.76 1690.05 1062.53C1689.88 1062.35 1689.62 1062.32 1689.41 1062.43C1688.94 1062.67 1688.07 1063.27 1687.51 1064.52C1686.71 1066.3 1685.5 1069.14 1683.73 1070.24C1682.07 1071.27 1679.77 1070.51 1679.1 1070.08M1679.1 1070.08L1680.91 1063.37C1681.56 1060.92 1682.66 1058.63 1684.13 1056.6M1647.04 1066.73C1647.04 1066.73 1648.16 1066.75 1649.01 1065.68C1649.86 1064.62 1650.28 1062.12 1649.69 1062.24C1649.67 1062.24 1649.65 1062.25 1649.62 1062.25M1647.04 1066.73C1647.04 1066.73 1642.66 1060.17 1642.03 1057.32C1641.39 1054.47 1641.5 1052.34 1642.54 1051.22C1643.08 1050.64 1643.51 1050.4 1643.81 1050.3C1644.06 1050.22 1644.33 1050.33 1644.47 1050.55C1644.75 1051 1645.18 1051.94 1645.04 1053.28C1644.84 1055.21 1644.47 1058.28 1645.46 1060.11C1646.4 1061.87 1648.91 1062.33 1649.62 1062.25M1649.62 1062.25L1651.42 1055.56C1652.08 1053.11 1652.27 1050.58 1652.01 1048.1M1667.73 1118.05L1635.08 1109.41M1667.73 1118.05L1670.52 1122M1667.73 1118.05L1635.08 1109.41M1667.73 1118.05L1673.67 1095.94M1635.08 1109.41L1641.03 1087.29M1635.08 1109.41L1631 1111.53M1670.52 1122L1678.04 1094M1670.52 1122L1631.01 1111.53M1635.08 1109.41L1641.03 1087.29M1635.08 1109.41L1631.01 1111.53M1673.67 1095.94V1095.94M1673.67 1095.94L1641.03 1087.29M1673.67 1095.94L1678.04 1094M1641.03 1087.29L1673.67 1095.94M1631 1111.53L1631.01 1111.53M1631 1111.53V1111.54L1631.01 1111.53M1652.01 1048.1C1651.8 1046.12 1651.31 1044.16 1650.54 1042.3L1652.59 1042.09C1664.36 1040.91 1676.17 1043.94 1685.89 1050.63L1688.32 1052.31C1686.71 1053.54 1685.3 1054.99 1684.13 1056.6M1652.01 1048.1C1647.78 1045.62 1645.4 1043.07 1645.94 1041.08C1646.96 1037.26 1658.32 1036.95 1671.29 1040.39C1684.26 1043.82 1693.95 1049.7 1692.93 1053.52C1692.39 1055.52 1689.05 1056.55 1684.13 1056.6" stroke="#4C83C3" stroke-width="1.25571" stroke-miterlimit="10" stroke-linejoin="round"/>
</g>
<defs>
<clipPath id="clip0_3717_68562">
<rect width="1920" height="1080" fill="white"/>
</clipPath>
</defs>
</svg>
