<svg width="1920" height="1080" viewBox="0 0 1920 1080" fill="none" xmlns="http://www.w3.org/2000/svg">
<g class="blink">
<path d="M1472 884H1398C1393.58 884 1390 887.582 1390 892V928C1390 932.418 1393.58 936 1398 936H1472C1476.42 936 1480 932.418 1480 928V892C1480 887.582 1476.42 884 1472 884Z" fill="url(#paint0_linear_3717_68562)"/>
<path d="M1409.92 900.588C1409.59 900.456 1409.13 900.372 1408.53 900.36H1404.29V909H1406.05V905.616H1407.91C1408.44 905.616 1408.81 905.712 1409.01 905.892C1409.2 906.072 1409.29 906.444 1409.31 906.996L1409.32 907.788C1409.32 908.04 1409.34 908.292 1409.39 908.532C1409.41 908.652 1409.45 908.808 1409.51 909H1411.49V908.784C1411.32 908.676 1411.21 908.508 1411.17 908.292C1411.13 908.148 1411.12 907.884 1411.12 907.488V906.912C1411.12 906.3 1411.03 905.856 1410.87 905.556C1410.7 905.256 1410.42 905.028 1410.03 904.872C1410.49 904.716 1410.84 904.428 1411.05 904.032C1411.25 903.636 1411.36 903.24 1411.36 902.82C1411.36 902.484 1411.31 902.184 1411.19 901.92C1411.08 901.656 1410.94 901.404 1410.75 901.188C1410.52 900.924 1410.24 900.72 1409.92 900.588ZM1408.09 904.188H1406.05V901.86H1408.14C1408.54 901.86 1408.83 901.92 1409.03 902.016C1409.37 902.196 1409.55 902.544 1409.55 903.072C1409.55 903.552 1409.37 903.876 1409.01 904.044C1408.8 904.14 1408.5 904.188 1408.09 904.188ZM1414.73 903.732V901.896H1419.29V900.36H1412.96V909H1419.5V907.452H1414.73V905.232H1418.91V903.732H1414.73ZM1426.71 903.06H1428.49C1428.39 902.232 1428.01 901.524 1427.35 900.972C1426.68 900.42 1425.79 900.144 1424.7 900.144C1423.44 900.144 1422.42 900.564 1421.65 901.404C1420.88 902.256 1420.5 903.372 1420.5 904.764C1420.5 906.156 1420.87 907.248 1421.64 908.04C1422.37 908.832 1423.31 909.228 1424.45 909.228C1425.14 909.228 1425.73 909.084 1426.21 908.784C1426.49 908.616 1426.8 908.328 1427.15 907.92L1427.33 909H1428.51V904.368H1424.93V905.808H1426.92C1426.83 906.372 1426.59 906.828 1426.21 907.176C1425.81 907.524 1425.32 907.704 1424.72 907.704C1424.1 907.704 1423.55 907.488 1423.07 907.044C1422.57 906.6 1422.33 905.844 1422.33 904.788C1422.33 903.732 1422.56 902.94 1423.01 902.412C1423.46 901.896 1424.03 901.632 1424.72 901.632C1425.08 901.632 1425.42 901.692 1425.72 901.824C1426.25 902.052 1426.58 902.472 1426.71 903.06ZM1430.1 900.36V909H1431.9V900.36H1430.1ZM1440.23 908.232C1441.11 907.404 1441.54 906.228 1441.54 904.668C1441.54 903.084 1441.11 901.896 1440.23 901.104C1439.59 900.432 1438.65 900.096 1437.41 900.096C1436.18 900.096 1435.23 900.432 1434.58 901.104C1433.71 901.896 1433.26 903.084 1433.26 904.668C1433.26 906.228 1433.71 907.404 1434.58 908.232C1435.23 908.904 1436.18 909.24 1437.41 909.24C1438.65 909.24 1439.59 908.904 1440.23 908.232ZM1439.12 906.924C1438.69 907.452 1438.12 907.716 1437.41 907.716C1436.69 907.716 1436.13 907.452 1435.7 906.924C1435.27 906.396 1435.06 905.64 1435.06 904.668C1435.06 903.696 1435.27 902.952 1435.7 902.424C1436.13 901.896 1436.69 901.632 1437.41 901.632C1438.12 901.632 1438.69 901.896 1439.12 902.424C1439.53 902.952 1439.74 903.708 1439.74 904.668C1439.74 905.64 1439.53 906.396 1439.12 906.924ZM1448.23 906.396L1444.79 900.36H1442.9V909H1444.58V902.868L1448.11 909H1449.91V900.36H1448.23V906.396ZM1459.16 909L1456.1 900.36H1454.06L1450.97 909H1452.87L1453.46 907.224H1456.65L1457.2 909H1459.16ZM1455.07 902.34L1456.15 905.736H1453.95L1455.07 902.34ZM1462.06 907.452V900.36H1460.25V909H1466.33V907.452H1462.06ZM1404.09 915.26C1403.29 916.076 1402.88 917.252 1402.88 918.752C1402.88 920.144 1403.24 921.248 1403.95 922.04C1404.66 922.844 1405.63 923.24 1406.88 923.24C1407.87 923.24 1408.7 922.952 1409.35 922.352C1409.98 921.764 1410.38 920.996 1410.55 920.06H1408.76C1408.63 920.504 1408.48 920.84 1408.3 921.056C1407.97 921.476 1407.49 921.68 1406.85 921.68C1406.24 921.68 1405.72 921.44 1405.33 920.96C1404.92 920.48 1404.73 919.748 1404.73 918.776C1404.73 917.816 1404.91 917.06 1405.29 916.532C1405.68 916.004 1406.19 915.74 1406.84 915.74C1407.49 915.74 1407.98 915.932 1408.3 916.304C1408.48 916.508 1408.64 916.82 1408.76 917.24H1410.56C1410.54 916.7 1410.33 916.16 1409.96 915.632C1409.29 914.672 1408.23 914.204 1406.78 914.204C1405.69 914.204 1404.8 914.552 1404.09 915.26ZM1413.69 914.36H1411.9V923H1413.69V919.148H1417.06V923H1418.86V914.36H1417.06V917.66H1413.69V914.36ZM1428.14 923L1425.08 914.36H1423.04L1419.96 923H1421.86L1422.44 921.224H1425.64L1426.19 923H1428.14ZM1424.05 916.34L1425.13 919.736H1422.94L1424.05 916.34ZM1437.56 923V914.36H1434.96L1433.4 921.152L1431.82 914.36H1429.21V923H1430.89V917.156C1430.89 916.988 1430.89 916.748 1430.88 916.448V915.752L1432.5 923H1434.25L1435.88 915.752V916.448C1435.87 916.748 1435.87 916.988 1435.87 917.156V923H1437.56ZM1445.11 919.256C1445.62 918.836 1445.88 918.116 1445.88 917.096C1445.88 916.172 1445.62 915.476 1445.11 915.032C1444.59 914.588 1443.9 914.36 1443.03 914.36H1439.28V923H1441.06V919.892H1442.9C1443.85 919.892 1444.59 919.688 1445.11 919.256ZM1443.74 916.148C1443.98 916.34 1444.09 916.664 1444.09 917.108C1444.09 917.564 1443.98 917.888 1443.74 918.092C1443.5 918.296 1443.18 918.404 1442.74 918.404H1441.06V915.86H1442.74C1443.18 915.86 1443.5 915.956 1443.74 916.148ZM1447.09 914.36V923H1448.89V914.36H1447.09ZM1457.22 922.232C1458.1 921.404 1458.53 920.228 1458.53 918.668C1458.53 917.084 1458.1 915.896 1457.22 915.104C1456.57 914.432 1455.64 914.096 1454.4 914.096C1453.16 914.096 1452.22 914.432 1451.57 915.104C1450.69 915.896 1450.25 917.084 1450.25 918.668C1450.25 920.228 1450.69 921.404 1451.57 922.232C1452.22 922.904 1453.16 923.24 1454.4 923.24C1455.64 923.24 1456.57 922.904 1457.22 922.232ZM1456.1 920.924C1455.67 921.452 1455.11 921.716 1454.4 921.716C1453.68 921.716 1453.12 921.452 1452.68 920.924C1452.25 920.396 1452.05 919.64 1452.05 918.668C1452.05 917.696 1452.25 916.952 1452.68 916.424C1453.12 915.896 1453.68 915.632 1454.4 915.632C1455.11 915.632 1455.67 915.896 1456.1 916.424C1456.51 916.952 1456.73 917.708 1456.73 918.668C1456.73 919.64 1456.51 920.396 1456.1 920.924ZM1465.22 920.396L1461.77 914.36H1459.89V923H1461.57V916.868L1465.1 923H1466.9V914.36H1465.22V920.396Z" fill="#464646"/>
<defs>
<linearGradient id="paint0_linear_3717_68562" x1="1482.5" y1="936" x2="1394" y2="881.5" gradientUnits="userSpaceOnUse">
<stop offset="0.102369" stop-color="#CCCCCC"/>
<stop offset="0.388571" stop-color="#E5E5E5"/>
<stop offset="0.69492" stop-color="white"/>
<stop offset="1" stop-color="#CECECE"/>
</linearGradient>
</defs>
</g>
<style>
@keyframes blink {
    0% { opacity: 0; }
    50% { opacity: 1; }
    100% { opacity: 0; }
}


.blink {
  animation: blink 2s;
  animation-timing-function: ease-in-out;
  animation-iteration-count: infinite;
}
</style>

</svg>
