<svg width="1920" height="1080" viewBox="0 0 1920 1080" fill="none" xmlns="http://www.w3.org/2000/svg">
<g class="blink">
<path fill-rule="evenodd" clip-rule="evenodd" d="M1325.1 908.256C1328.53 908.256 1331.58 909.598 1333.88 911.898C1336.17 914.199 1337.5 917.266 1337.5 920.717C1337.5 924.169 1336.17 927.236 1333.88 929.537C1331.58 931.836 1328.53 933.179 1325.1 933.179C1321.47 933.179 1318.42 931.836 1316.13 929.537C1314.03 927.236 1312.5 924.169 1312.5 920.717C1312.5 917.266 1314.03 914.199 1316.13 911.898C1318.42 909.598 1321.66 908.256 1325.1 908.256ZM1325.1 899.437C1330.82 899.437 1336.17 901.737 1339.98 905.572C1343.99 909.407 1346.28 914.775 1346.28 920.718C1346.28 926.661 1343.99 932.03 1339.98 935.865C1336.17 939.699 1330.82 942 1325.1 942C1319.18 942 1313.83 939.699 1310.02 935.865C1306.2 932.03 1303.72 926.662 1303.72 920.718C1303.72 914.775 1306.2 909.407 1310.02 905.572C1314.02 901.546 1319.37 899.437 1325.1 899.437ZM1325.1 906.721C1321.09 906.721 1317.65 908.256 1315.17 910.747C1312.69 913.433 1311.16 916.883 1311.16 920.717C1311.16 924.552 1312.69 928.003 1315.17 930.687C1317.65 933.179 1321.09 934.713 1325.1 934.713C1328.91 934.713 1332.35 933.179 1334.83 930.687C1337.31 928.003 1339.03 924.552 1339.03 920.717C1339.03 916.883 1337.31 913.433 1334.83 910.747C1332.35 908.256 1328.91 906.721 1325.1 906.721Z" fill="url(#paint0_linear_3717_68562)"/>
<path d="M1304.86 878.001L1315.74 899.83L1315.75 899.827C1317.27 899.239 1318.8 898.649 1320.71 898.256L1324.14 891.177L1317.46 878.001H1304.86Z" fill="url(#paint1_linear_3717_68562)"/>
<path d="M1332.54 878L1322.42 898.06C1323.19 897.863 1324.14 897.862 1325.1 897.862C1328.34 897.862 1331.59 898.648 1334.45 899.829L1345.33 878H1332.54Z" fill="url(#paint2_linear_3717_68562)"/>
<defs>
<linearGradient id="paint0_linear_3717_68562" x1="1303.72" y1="877.772" x2="1362.43" y2="919.003" gradientUnits="userSpaceOnUse">
<stop stop-color="#D3D3D3"/>
<stop offset="0.369792" stop-color="white"/>
<stop offset="0.625" stop-color="#D6D6D6"/>
<stop offset="0.921875" stop-color="#ADADAD"/>
</linearGradient>
<linearGradient id="paint1_linear_3717_68562" x1="1303.72" y1="877.772" x2="1362.43" y2="919.003" gradientUnits="userSpaceOnUse">
<stop stop-color="#D3D3D3"/>
<stop offset="0.369792" stop-color="white"/>
<stop offset="0.625" stop-color="#D6D6D6"/>
<stop offset="0.921875" stop-color="#ADADAD"/>
</linearGradient>
<linearGradient id="paint2_linear_3717_68562" x1="1303.72" y1="877.772" x2="1362.43" y2="919.003" gradientUnits="userSpaceOnUse">
<stop stop-color="#D3D3D3"/>
<stop offset="0.369792" stop-color="white"/>
<stop offset="0.625" stop-color="#D6D6D6"/>
<stop offset="0.921875" stop-color="#ADADAD"/>
</linearGradient>
</defs>
</g>
<style>
@keyframes blink {
    0% { opacity: 0; }
    50% { opacity: 1; }
    100% { opacity: 0; }
}


.blink {
  animation: blink 2s;
  animation-timing-function: ease-in-out;
  animation-iteration-count: infinite;
}
</style>

</svg>
