<?xml version="1.0" encoding="UTF-8" standalone="no"?>
<svg
   id="Слой_1"
   data-name="Слой 1"
   viewBox="0 0 133.14879 216.07"
   version="1.1"
   sodipodi:docname="logo_uprasheny_sokrasheny2.svg"
   width="133.14879"
   height="216.07001"
   inkscape:version="1.3.2 (091e20e, 2023-11-25, custom)"
   xmlns:inkscape="http://www.inkscape.org/namespaces/inkscape"
   xmlns:sodipodi="http://sodipodi.sourceforge.net/DTD/sodipodi-0.dtd"
   xmlns="http://www.w3.org/2000/svg"
   xmlns:svg="http://www.w3.org/2000/svg">
  <sodipodi:namedview
     id="namedview56"
     pagecolor="#ffffff"
     bordercolor="#000000"
     borderopacity="0.25"
     inkscape:showpageshadow="2"
     inkscape:pageopacity="0.0"
     inkscape:pagecheckerboard="0"
     inkscape:deskcolor="#d1d1d1"
     showgrid="false"
     inkscape:zoom="1.1654566"
     inkscape:cx="91.380494"
     inkscape:cy="175.89673"
     inkscape:window-width="1560"
     inkscape:window-height="970"
     inkscape:window-x="-6"
     inkscape:window-y="-6"
     inkscape:window-maximized="1"
     inkscape:current-layer="Слой_1" />
  <defs
     id="defs1">
    <style
       id="style1">.cls-1{fill:#034d92;}</style>
  </defs>
  <path
     class="cls-1"
     d="m 13.295957,108.87 c -2.29,-0.11 -6.1500005,2.75 -6.2700005,5 2.31,0.1 6.1700005,-2.71 6.2700005,-5 z"
     id="path29" />
  <path
     class="cls-1"
     d="m 92.685957,194.12 a 3.07,3.07 0 0 0 -1.44,0.3 l 0.33,0.74 a 2.37,2.37 0 0 1 0.9,-0.24 0.35,0.35 0 0 1 0.4,0.4 v 0.05 h -0.54 a 2.05,2.05 0 0 0 -1.05,0.29 0.9,0.9 0 0 0 -0.37,0.78 1,1 0 0 0 0.27,0.77 0.94,0.94 0 0 0 0.72,0.28 1.49,1.49 0 0 0 0.61,-0.1 1.27,1.27 0 0 0 0.47,-0.39 v 0 l 0.22,0.43 h 0.77 v -2.14 a 1.12,1.12 0 0 0 -0.34,-0.87 1.43,1.43 0 0 0 -0.95,-0.3 z m 0.2,2.12 a 0.4,0.4 0 0 1 -0.15,0.33 0.49,0.49 0 0 1 -0.35,0.13 c -0.21,0 -0.32,-0.1 -0.32,-0.3 0,-0.2 0.19,-0.39 0.56,-0.4 h 0.26 z"
     id="path30" />
  <path
     class="cls-1"
     d="m 89.715957,195.76 v 0 a 0.75,0.75 0 0 0 0.46,-0.23 0.72,0.72 0 0 0 0.17,-0.48 0.69,0.69 0 0 0 -0.35,-0.63 2.15,2.15 0 0 0 -1.07,-0.21 h -1.78 v 3.26 h 1.78 c 1,0 1.52,-0.31 1.52,-0.93 a 0.73,0.73 0 0 0 -0.19,-0.51 0.76,0.76 0 0 0 -0.54,-0.27 z m -1.44,-0.84 h 0.64 c 0.2,0 0.31,0.08 0.31,0.26 a 0.19,0.19 0 0 1 -0.09,0.16 0.41,0.41 0 0 1 -0.27,0.07 h -0.59 z m 0.61,1.78 h -0.61 v -0.58 h 0.62 a 0.61,0.61 0 0 1 0.3,0.06 0.25,0.25 0 0 1 0.1,0.22 c 0,0.2 -0.13,0.3 -0.41,0.3 z"
     id="path31" />
  <path
     class="cls-1"
     d="m 62.465957,196.41 a 0.65,0.65 0 0 0 -0.45,0.14 0.53,0.53 0 0 0 -0.16,0.41 0.55,0.55 0 0 0 0.16,0.41 0.69,0.69 0 0 0 0.45,0.14 0.66,0.66 0 0 0 0.44,-0.14 0.64,0.64 0 0 0 0,-0.82 0.64,0.64 0 0 0 -0.44,-0.14 z"
     id="path32" />
  <path
     class="cls-1"
     d="m 54.465957,193.23 h -2.8 a 9.13,9.13 0 0 1 -0.32,1.8 6.46,6.46 0 0 1 -0.62,1.48 h -0.35 v 2.25 h 1.09 v -1.31 h 2.45 v 1.31 h 1.11 v -2.24 h -0.56 z m -1.14,3.28 h -1.4 a 6.81,6.81 0 0 0 0.65,-2.34 h 0.75 z"
     id="path33" />
  <path
     class="cls-1"
     d="m 55.955957,196.41 a 0.65,0.65 0 0 0 -0.45,0.14 0.53,0.53 0 0 0 -0.16,0.41 0.52,0.52 0 0 0 0.17,0.41 0.76,0.76 0 0 0 0.88,0 0.64,0.64 0 0 0 0,-0.82 0.64,0.64 0 0 0 -0.44,-0.14 z"
     id="path34" />
  <path
     class="cls-1"
     d="m 60.785957,193.89 a 2.13,2.13 0 0 0 -0.94,-0.2 h -0.09 v -0.51 h -1.09 v 0.51 h -0.11 a 2.19,2.19 0 0 0 -0.92,0.19 1.38,1.38 0 0 0 -0.62,0.55 1.54,1.54 0 0 0 -0.22,0.83 1.62,1.62 0 0 0 0.21,0.85 1.36,1.36 0 0 0 0.61,0.55 2.27,2.27 0 0 0 1,0.19 h 0.06 v 0.65 h 1.09 v -0.65 0 a 2.27,2.27 0 0 0 1,-0.19 1.38,1.38 0 0 0 0.63,-0.56 1.6,1.6 0 0 0 0.21,-0.83 1.5,1.5 0 0 0 -0.22,-0.82 1.41,1.41 0 0 0 -0.6,-0.56 z m -2.12,2.1 h -0.06 a 0.71,0.71 0 0 1 -0.53,-0.17 0.78,0.78 0 0 1 -0.17,-0.56 0.7,0.7 0 0 1 0.18,-0.52 0.69,0.69 0 0 1 0.51,-0.18 h 0.07 z m 1.67,-0.18 a 0.73,0.73 0 0 1 -0.54,0.18 v 0 -1.43 h 0.05 a 0.7,0.7 0 0 1 0.53,0.19 0.69,0.69 0 0 1 0.18,0.51 0.73,0.73 0 0 1 -0.22,0.55 z"
     id="path35" />
  <polygon
     class="cls-1"
     points="159.14,204.42 158.01,204.42 158.01,207.68 159.14,207.68 159.14,206.43 160.03,206.43 160.03,207.68 161.15,207.68 161.15,204.42 160.03,204.42 160.03,205.6 159.14,205.6 "
     id="polygon35"
     transform="translate(-78.534043,-10.24)" />
  <path
     class="cls-1"
     d="m 81.875957,184.76 v 4.91 h 2.79 v -11.18 h -4 l -2.3,8 h -0.06 l -2.34,-8 h -4 v 11.21 h 2.69 v -4.87 c 0,-0.76 -0.05,-1.83 -0.16,-3.21 h -0.03 l 2.29,8.08 h 2.89 l 2.26,-8.06 h 0.07 c -0.06,1.22 -0.1,2 -0.1,2.29 0,0.29 0,0.6 0,0.83 z"
     id="path36" />
  <path
     class="cls-1"
     d="m 76.155957,196.17 c 0,-0.62 0,-1 0,-1 v -1 h -1 v 3.26 h 1.31 l 1.29,-2 c 0,0.42 0,0.79 0,1.1 v 0.88 h 1 v -3.26 h -1.29 z"
     id="path37" />
  <polygon
     class="cls-1"
     points="151,207.68 152.13,207.68 152.13,205.26 153.2,205.26 153.2,204.42 149.93,204.42 149.93,205.26 151,205.26 "
     id="polygon37"
     transform="translate(-78.534043,-10.24)" />
  <path
     class="cls-1"
     d="m 54.905957,174.43 a 3.2,3.2 0 0 0 1.21,-2.7 2.91,2.91 0 0 0 -1.23,-2.57 6.24,6.24 0 0 0 -3.58,-0.86 h -0.44 v -1.71 h 4.34 v -2.44 h -7.38 v 11.22 h 3.64 a 5.56,5.56 0 0 0 3.44,-0.94 z m -4,-1.4 v -2.43 h 0.39 a 2.48,2.48 0 0 1 1.36,0.29 1,1 0 0 1 0.44,0.9 1.09,1.09 0 0 1 -0.42,0.93 2.27,2.27 0 0 1 -1.36,0.31 z"
     id="path38" />
  <path
     class="cls-1"
     d="m 70.035957,195.01 a 1,1 0 0 1 0.36,0.05 l 0.38,0.14 0.33,-0.83 a 2.44,2.44 0 0 0 -1.07,-0.25 1.56,1.56 0 0 0 -1.71,1.71 1.75,1.75 0 0 0 0.41,1.24 1.65,1.65 0 0 0 1.22,0.43 1.87,1.87 0 0 0 1,-0.29 v -0.89 a 1.75,1.75 0 0 1 -0.95,0.28 c -0.39,0 -0.58,-0.26 -0.58,-0.78 a 1,1 0 0 1 0.15,-0.6 0.49,0.49 0 0 1 0.46,-0.21 z"
     id="path39" />
  <path
     class="cls-1"
     d="m 66.615957,194.41 a 9.54,9.54 0 0 0 -0.3,0.91 v 0 c 0,-0.05 0,-0.12 -0.05,-0.19 -0.05,-0.07 0,-0.14 -0.07,-0.22 l -0.09,-0.21 a 1.71,1.71 0 0 0 -0.07,-0.18 l -0.52,-1.29 h -1.22 l 1.37,3 a 0.55,0.55 0 0 1 -0.2,0.29 0.49,0.49 0 0 1 -0.3,0.09 1.9,1.9 0 0 1 -0.68,-0.11 v 0.9 a 2.75,2.75 0 0 0 0.73,0.09 2.23,2.23 0 0 0 0.79,-0.12 1.33,1.33 0 0 0 0.55,-0.38 3,3 0 0 0 0.47,-0.81 l 1.28,-3 h -1.23 z"
     id="path40" />
  <polygon
     class="cls-1"
     points="138.39,199.94 141.43,199.94 141.43,195.37 144.95,195.37 144.95,199.94 148,199.94 148,188.73 144.95,188.73 144.95,192.89 141.43,192.89 141.43,188.73 138.39,188.73 "
     id="polygon40"
     transform="translate(-78.534043,-10.24)" />
  <polygon
     class="cls-1"
     points="144,174.39 136.52,174.39 136.52,185.61 139.57,185.61 139.57,176.84 144,176.84 "
     id="polygon41"
     transform="translate(-78.534043,-10.24)" />
  <polygon
     class="cls-1"
     points="150.87,176.88 153.6,176.88 153.6,174.39 145.1,174.39 145.1,176.88 147.84,176.88 147.84,185.61 150.87,185.61 "
     id="polygon42"
     transform="translate(-78.534043,-10.24)" />
  <path
     class="cls-1"
     d="m 78.775957,172.95 a 1.4,1.4 0 0 1 -0.81,0.22 5,5 0 0 1 -1.82,-0.28 v 2.41 a 8,8 0 0 0 2,0.23 6.12,6.12 0 0 0 2.11,-0.32 3.53,3.53 0 0 0 1.46,-1 8.68,8.68 0 0 0 1.26,-2.17 l 3.4,-7.88 h -3.31 l -1.14,3.13 c -0.34,0.93 -0.6,1.74 -0.78,2.44 h -0.1 l -0.15,-0.51 c -0.06,-0.19 -0.12,-0.39 -0.2,-0.58 -0.08,-0.19 -0.14,-0.39 -0.22,-0.58 l -0.18,-0.47 -1.38,-3.43 h -3.27 l 3.66,8 a 1.56,1.56 0 0 1 -0.53,0.79 z"
     id="path42" />
  <path
     class="cls-1"
     d="m 85.735957,194.33 a 1.67,1.67 0 0 0 -0.85,-0.21 1.58,1.58 0 0 0 -1.2,0.45 1.66,1.66 0 0 0 -0.43,1.23 1.68,1.68 0 0 0 0.44,1.24 1.53,1.53 0 0 0 1.18,0.46 1.59,1.59 0 0 0 1.2,-0.45 1.71,1.71 0 0 0 0.39,-1.29 2,2 0 0 0 -0.2,-0.89 1.33,1.33 0 0 0 -0.53,-0.54 z m -0.48,2.11 a 0.38,0.38 0 0 1 -0.37,0.22 0.39,0.39 0 0 1 -0.38,-0.22 1.5,1.5 0 0 1 -0.11,-0.64 1.45,1.45 0 0 1 0.11,-0.63 0.39,0.39 0 0 1 0.37,-0.21 0.4,0.4 0 0 1 0.38,0.21 1.48,1.48 0 0 1 0.11,0.63 1.5,1.5 0 0 1 -0.11,0.64 z"
     id="path43" />
  <polygon
     class="cls-1"
     points="136.43,197.48 132.8,197.48 132.8,195.36 136.16,195.36 136.16,192.92 132.8,192.92 132.8,191.16 136.43,191.16 136.43,188.73 129.77,188.73 129.77,199.94 136.43,199.94 "
     id="polygon43"
     transform="translate(-78.534043,-10.24)" />
  <polygon
     class="cls-1"
     points="180.83,199.94 184.33,199.94 180.52,194.44 184.07,188.73 180.61,188.73 178.66,192.19 176.64,188.73 173.28,188.73 176.77,194.21 173.05,199.94 176.48,199.94 178.64,196.44 "
     id="polygon44"
     transform="translate(-78.534043,-10.24)" />
  <path
     class="cls-1"
     d="m 45.305957,195.15 -0.12,0.38 c -0.12,0.42 -0.19,0.68 -0.2,0.77 0,-0.12 -0.07,-0.34 -0.16,-0.66 -0.09,-0.32 -0.15,-0.55 -0.19,-0.7 l -0.26,-0.76 h -1.54 v 3.26 h 1 v -2.43 l 0.06,0.21 c 0.13,0.44 0.25,0.83 0.36,1.18 l 0.34,1 h 0.76 c 0.28,-0.85 0.46,-1.4 0.54,-1.67 0.08,-0.27 0.15,-0.52 0.21,-0.76 v 2.43 h 1 v -3.26 h -1.51 z"
     id="path44" />
  <path
     class="cls-1"
     d="m 48.365957,196.41 a 0.67,0.67 0 0 0 -0.45,0.14 0.53,0.53 0 0 0 -0.16,0.41 0.52,0.52 0 0 0 0.17,0.41 0.76,0.76 0 0 0 0.88,0 0.64,0.64 0 0 0 0,-0.82 0.64,0.64 0 0 0 -0.44,-0.14 z"
     id="path45" />
  <path
     class="cls-1"
     d="m 43.755957,189.86 a 5.31,5.31 0 0 0 4.06,-1.47 7.38,7.38 0 0 0 0,-8.61 6.36,6.36 0 0 0 -8.12,0 7.25,7.25 0 0 0 0,8.59 5.32,5.32 0 0 0 4.06,1.49 z m 0,-9.06 a 1.92,1.92 0 0 1 1.69,0.8 4.39,4.39 0 0 1 0.56,2.48 4.3,4.3 0 0 1 -0.55,2.46 1.94,1.94 0 0 1 -1.71,0.79 c -1.51,0 -2.26,-1.08 -2.26,-3.25 0,-2.17 0.77,-3.32 2.28,-3.32 z"
     id="path46" />
  <polygon
     class="cls-1"
     points="168.64,195.36 172,195.36 172,192.92 168.64,192.92 168.64,191.16 172.27,191.16 172.27,188.73 165.61,188.73 165.61,199.94 172.27,199.94 172.27,197.48 168.64,197.48 "
     id="polygon46"
     transform="translate(-78.534043,-10.24)" />
  <path
     class="cls-1"
     d="m 39.515957,196.17 c 0,-0.62 0,-1 0,-1 v -1 h -1 v 3.26 h 1.25 l 1.3,-2 c 0,0.42 0,0.79 0,1.1 v 0.88 h 1 v -3.26 h -1.25 z"
     id="path47" />
  <path
     class="cls-1"
     d="m 35.625957,188.83 a 2.88,2.88 0 0 0 1.14,-2.41 2.73,2.73 0 0 0 -0.47,-1.67 2.56,2.56 0 0 0 -1.51,-0.92 v -0.07 a 2.17,2.17 0 0 0 1.28,-0.86 2.67,2.67 0 0 0 0.48,-1.61 2.29,2.29 0 0 0 -1.11,-2.11 6.57,6.57 0 0 0 -3.39,-0.68 h -3.92 v 11.21 h 4.34 a 5.08,5.08 0 0 0 3.16,-0.88 z m -4.47,-8 h 0.86 c 1,0 1.42,0.32 1.42,0.95 a 0.94,0.94 0 0 1 -0.35,0.79 1.66,1.66 0 0 1 -1,0.27 h -0.92 z m 0,6.58 v -2.35 h 1 a 1.74,1.74 0 0 1 1.1,0.3 1,1 0 0 1 0.38,0.86 c 0,0.8 -0.48,1.19 -1.42,1.19 z"
     id="path48" />
  <path
     class="cls-1"
     d="m 129.06596,153.17 0.34,-1 c 4.89,-14.94 3.6,-65.59 3.56,-75.53 0,-3.31 -1.74,-7.69 -3,-10.06 -1.76,-3.32 -5.31,-7.43 -10,-9 a 11.57,11.57 0 0 0 -9.39,0.62 l -0.14,0.07 -0.15,0.07 c -1.14,0.57 -3.27,1.63 -8,6.12 l -0.82,0.78 a 29.86,29.86 0 0 1 -6.390003,5.11 c -2.13,1.06 -5.25,2 -8.05,0.56 -1.92,-1 -3.07,-3.08 -3.32,-6 v -0.15 a 8.28,8.28 0 0 1 2.11,-5.85 7,7 0 0 1 0.67,-0.66 l 0.7,-0.38 0.28,-0.11 a 16.21,16.21 0 0 1 5.37,-2.16 c 3.19,-0.6 5.75,-0.78 8.560003,0.23 l 0.43,0.66 a 1.21,1.21 0 0 0 1.66,0.43 8.22,8.22 0 0 0 2.61,-2.43 c 2,-2.94 1.41,-6.24 1.15,-7.66 a 17,17 0 0 0 -3.66,-7.1 0.19,0.19 0 0 0 -0.07,-0.08 29.89,29.89 0 0 0 -6.790003,-5.13 h -0.06 c -1.17,-0.59 -7.35,-3.5 -13.78,-2.48 l -0.51,0.08 a 14.89,14.89 0 0 1 -2.08,0.26 17.74,17.74 0 0 1 -8.13,-1.62 1.22,1.22 0 0 0 -1.18,0.12 1.2,1.2 0 0 0 -0.52,1.08 7.13,7.13 0 0 0 1.43,3.86 9.47,9.47 0 0 0 1.57,1.63 c -0.44,0.23 -0.76,0.43 -1,0.6 a 13.94,13.94 0 0 0 -1.18,0.88 l -0.16,0.14 c -0.17,0.15 -0.35,0.29 -0.54,0.44 a 1.26,1.26 0 0 0 -0.42,1.31 1.24,1.24 0 0 0 1.08,0.86 l 3.77,0.29 a 28.36,28.36 0 0 0 -4.41,2.95 12.3,12.3 0 0 0 -3.92,7 l -0.06,0.33 -0.06,-0.33 a 12.3,12.3 0 0 0 -3.92,-7 29.11,29.11 0 0 0 -4.41,-2.95 l 3.78,-0.29 a 1.21,1.21 0 0 0 1.06,-0.87 1.25,1.25 0 0 0 -0.42,-1.31 c -0.19,-0.14 -0.36,-0.28 -0.54,-0.44 l -0.16,-0.13 a 13.69,13.69 0 0 0 -1.17,-0.88 11.24,11.24 0 0 0 -1.05,-0.59 9.62,9.62 0 0 0 1.55,-1.64 7.13,7.13 0 0 0 1.43,-3.86 1.2,1.2 0 0 0 -0.52,-1.07 1.21,1.21 0 0 0 -1.18,-0.12 17.9,17.9 0 0 1 -8.09,1.56 15.49,15.49 0 0 1 -2.09,-0.26 l -0.51,-0.09 c -6.48,-1 -12.6,1.9 -13.76,2.49 a 28.68,28.68 0 0 0 -6.66,5 v 0 l -0.07,0.12 c -1,1.14 -3.25,4.12 -3.82,7.24 -0.26,1.41 -0.86,4.71 1.14,7.63 a 8.15,8.15 0 0 0 2.62,2.43 1.22,1.22 0 0 0 1.66,-0.43 c 0.19,-0.32 0.41,-0.64 0.63,-0.95 2,-0.7 4.69,-0.69 8.33,0 a 15,15 0 0 1 5.4,2.15 c 0.38,0.24 0.7,0.42 1,0.56 a 8.42,8.42 0 0 1 0.67,0.66 8.29,8.29 0 0 1 2,5.88 v 0.09 c -0.25,2.89 -1.41,5 -3.33,6 -2.79,1.47 -5.91,0.5 -8,-0.56 a 30.1,30.1 0 0 1 -6.39,-5.11 l -0.81,-0.78 c -4.77,-4.49 -6.9,-5.55 -8,-6.13 l -0.14,-0.06 -0.13,-0.07 a 11.59,11.59 0 0 0 -9.4,-0.62 c -4.6900005,1.59 -7.9300005,5.88 -10.0000005,9 -2.37999996,3.63 -2.99999996,10.15 -2.99999996,10.84 -0.29,11.58 -1.21,60.2 3.55999996,74.78 l 0.41,1.36 a 21.36,21.36 0 0 0 -1.33,5 c -5.59,31.29 33.6900005,57.36 63.8100005,57.57 30.31,0 69.910003,-24.78 63.810003,-58.83 a 17.6,17.6 0 0 0 -1.46,-4.07 z M 97.065957,52.66 a 26,26 0 0 0 -4.71,0.51 19.26,19.26 0 0 0 -6.14,2.46 h -0.09 l -0.44,0.25 a 3.28,3.28 0 0 1 -1.22,-1.47 2.73,2.73 0 0 1 0.41,-2.7 3.6,3.6 0 0 1 2,-1 5.49,5.49 0 0 1 1.37,-0.12 c 1.13,0 2.57,0.12 3.18,0.17 0.61,0.05 1,0.08 1.16,0.07 a 12.85,12.85 0 0 1 4.32,1.18 q 0.66,0.33 1.23,0.69 c -0.41,-0.03 -0.74,-0.04 -1.08,-0.04 z m 5.000003,-10.94 v 0 a 14,14 0 0 1 2.77,5.55 c 0.22,1.21 0.68,3.72 -0.75,5.82 a 5.37,5.37 0 0 1 -0.92,1 12.56,12.56 0 0 0 -1.51,-1.73 14.7,14.7 0 0 0 -3.720003,-2.57 14.88,14.88 0 0 0 -2.75,-1 11.54,11.54 0 0 0 0.92,-1.47 c 0.09,-0.18 0.21,-0.41 0.32,-0.64 a 12.12,12.12 0 0 1 1.75,-2.88 6.51,6.51 0 0 1 3.700003,-2.1 z m -5.000003,-0.39 h 0.16 l -0.11,0.09 z m -65.6,11.06 a 12.52,12.52 0 0 0 -1.5,1.73 5,5 0 0 1 -0.91,-1 c -1.46,-2.11 -1,-4.62 -0.75,-5.83 a 14.39,14.39 0 0 1 2.91,-5.63 h 0.07 a 6.37,6.37 0 0 1 3.66,2.2 11.87,11.87 0 0 1 1.76,2.9 c 0.07,0.13 0.12,0.26 0.18,0.37 l 0.14,0.28 a 11.11,11.11 0 0 0 0.92,1.46 14,14 0 0 0 -2.75,1 14.76,14.76 0 0 0 -3.73,2.52 z m 4.43,-11.05 h 0.16 c 0,0.05 0,0.09 0,0.13 a 0.52,0.52 0 0 1 -0.16,-0.13 z m 12.79,13.07 a 3.18,3.18 0 0 1 -1.22,1.52 5.38,5.38 0 0 1 -0.51,-0.31 17.6,17.6 0 0 0 -6.15,-2.44 27.67,27.67 0 0 0 -5.37,-0.62 h -0.17 c 0.31,-0.19 0.66,-0.38 1,-0.57 a 12.87,12.87 0 0 1 4.29,-1.18 c 0.25,0 0.62,0 1.18,-0.07 h 0.08 a 19.81,19.81 0 0 1 4.48,0 3.53,3.53 0 0 1 2,1 2.72,2.72 0 0 1 0.39,2.67 z M 2.5459565,76.86 c 0,-0.31 0.85,-6.59 2.74,-9.16 0.68,-0.93 3.47,-6.12 8.6300005,-7.87 a 9,9 0 0 1 7.5,0.49 h 0.1 l 0.2,0.1 c 1,0.51 3,1.46 7.47,5.72 l 0.76,0.71 c 2.45,2.33 4.56,4.33 7,5.57 2.64,1.32 6.56,2.49 10.26,0.54 2.66,-1.4 4.3,-4.2 4.63,-7.93 v 0 a 10.87,10.87 0 0 0 -2.5,-7.48 v 0 a 6,6 0 0 0 1.6,-2.26 5.18,5.18 0 0 0 -0.79,-5.1 5.65,5.65 0 0 0 -3.21,-1.82 18.82,18.82 0 0 0 -5.42,0 h -0.63 v 0 a 6.14,6.14 0 0 1 -1.72,-2.15 c -0.06,-0.1 -0.11,-0.22 -0.18,-0.35 l -0.11,-0.22 c -0.19,-0.43 -0.43,-0.9 -0.71,-1.41 a 2.07,2.07 0 0 0 1.78,-2 2,2 0 0 0 -0.62,-1.46 v 0 a 5.27,5.27 0 0 1 2.58,0.24 5,5 0 0 1 1.74,1 1.21,1.21 0 0 0 1.72,-0.08 1.27,1.27 0 0 0 0.31,-0.71 1.33,1.33 0 0 0 -0.47,-1.08 7.81,7.81 0 0 0 -2.46,-1.48 9.23,9.23 0 0 0 -5.11,-0.13 l -0.75,0.15 c -0.86,0.16 -1.89,0.35 -3.07,0.46 0,0 0,0 0,0 a 26.94,26.94 0 0 1 3.76,-2.5 c 1,-0.53 6.58,-3.14 12.27,-2.24 h 0.24 0.24 a 19.08,19.08 0 0 0 2.37,0.29 19.53,19.53 0 0 0 6.87,-0.89 c -0.1,0.16 -0.21,0.32 -0.32,0.48 a 6.44,6.44 0 0 1 -2.66,2.16 1.21,1.21 0 0 0 -0.75,1.13 1.23,1.23 0 0 0 0.76,1.11 c 0.38,0.15 1.08,0.46 1.72,0.77 l -4.94,0.39 a 1.21,1.21 0 0 0 -0.3,2.36 31.44,31.44 0 0 1 7.81,4.43 9.83,9.83 0 0 1 3.19,5.7 55.77,55.77 0 0 1 0.62,5.64 1.73,1.73 0 0 0 1.77,1.68 h 0.06 a 1.75,1.75 0 0 0 1.82,-1.62 49.79,49.79 0 0 1 0.63,-5.64 9.8,9.8 0 0 1 3.19,-5.7 31,31 0 0 1 7.8,-4.43 1.21,1.21 0 0 0 -0.3,-2.36 l -5,-0.39 c 0.45,-0.22 1,-0.47 1.6,-0.75 h 0.1 a 1.21,1.21 0 0 0 0.73,-1.36 1.19,1.19 0 0 0 -0.72,-0.88 6.44,6.44 0 0 1 -2.62,-2.14 c -0.12,-0.16 -0.22,-0.32 -0.32,-0.48 a 19.53,19.53 0 0 0 6.87,0.89 18.2,18.2 0 0 0 2.35,-0.29 h 0.28 0.22 c 5.92,-0.93 11.63,1.92 12.27,2.25 a 26.48,26.48 0 0 1 3.85,2.55 c 0,0 0,0 0,0 -1.14,-0.12 -2.18,-0.33 -3,-0.49 l -0.37,-0.07 -0.61,-0.11 a 9.09,9.09 0 0 0 -5.07,0.13 7.81,7.81 0 0 0 -2.52,1.55 1.24,1.24 0 0 0 -0.09,1.72 1.21,1.21 0 0 0 1.72,0.08 5,5 0 0 1 1.74,-1 5.09,5.09 0 0 1 2.56,-0.24 v 0 a 2,2 0 0 0 -0.62,1.46 2.07,2.07 0 0 0 1.79,2.05 v 0 c -0.28,0.5 -0.5,1 -0.71,1.4 a 5,5 0 0 1 -0.29,0.57 6,6 0 0 1 -1.71,2.15 v 0 h -0.63 a 19.05,19.05 0 0 0 -5.45,0 5.57,5.57 0 0 0 -3.18,1.82 5.22,5.22 0 0 0 -0.8,5.1 6.07,6.07 0 0 0 1.6,2.26 v 0 a 10.7,10.7 0 0 0 -2.49,7.47 v 0.08 c 0.32,3.7 2,6.5 4.62,7.9 3.7,2 7.62,0.78 10.27,-0.54 2.47,-1.24 4.580003,-3.24 7.000003,-5.57 l 0.76,-0.71 c 4.53,-4.26 6.45,-5.21 7.48,-5.72 l 0.2,-0.1 h 0.1 a 9,9 0 0 1 7.49,-0.49 c 5.22,1.77 8.11,6.86 8.63,7.87 a 24.17,24.17 0 0 1 2.74,9.52 c 0.18,10.63 1.14,57.67 -3.11,73.08 v 0 a 18.73,18.73 0 0 0 -6.22,-5.62 v 0 c 0.26,-2.4 0.49,-5 0.68,-7.7 l 0.34,0.15 4.18,-6.58 v 0 c -0.28,-0.34 -0.94,-1.08 -1.25,-1.4 l -2.59,-2.86 v 0 c 0.07,-1.94 0.13,-3.88 0.18,-5.84 v 0 a 10.47,10.47 0 0 0 3.88,-3.18 v 0 c 2,-2.82 2.06,-5.54 1,-8.74 a 16.29,16.29 0 0 0 -0.95,-1.78 v 0 a 10,10 0 0 0 -3.76,-3.13 v 0 c 0,-8 -0.07,-18.52 -0.12,-23 a 8.08,8.08 0 0 0 -2.55,-6 c 0,0 0,0 0,0 0,0.53 0.31,14.92 0.3,28.33 0,0 0,0 0,0 a 10.63,10.63 0 0 0 -4.33,0.27 9.1,9.1 0 0 0 -5.78,5.34 c 0,0 0,0 0,0 0,-9.15 -0.18,-18.51 -0.15,-23.14 a 7.27,7.27 0 0 0 -2.53,-5.85 v 0 c 0,0.57 0.45,19.52 0.26,36.23 0,0 0,0 0,0 q -3,-1.61 -8.590003,-4.45 v 0 q -0.58,0.57 -1.2,1.26 v 0 c 0,-7 -0.09,-17.18 -0.12,-21.53 a 10.88,10.88 0 0 0 -2.56,-7.31 c 0,0 0,0 0,0 0,0.68 0.37,16.85 0.3,31.63 v 0 c -0.55,0.66 -1.1,1.33 -1.65,2 v 0 c 0.5,0.64 1.05,1.26 1.62,1.87 v 0 c -0.05,4.65 -0.14,9.45 -0.31,14.16 a 9.8,9.8 0 0 0 -3.45,-1.27 26,26 0 0 1 -2.81,-1.18 c -2.24,-1.09 -5,-4.35 -5.36,-7 v 0 c 3.48,-1.43 3.79,-4.91 3.89,-6 a 1.15,1.15 0 0 0 0,-0.19 v -41.36 0 c -2.91,0 -2.57,0 -5.52,0 h -31.16 -5.45 v 41.35 c 0,0 -0.22,5.07 3.82,6 v 0 c -1.18,3.29 -4.25,7.82 -8.08,8.43 h -0.09 a 8.47,8.47 0 0 0 -3.47,0.24 v 0 c -0.69,-21.14 0,-48.18 0,-48.81 0,0 0,0 0,0 -0.17,0.14 -2.3,1.86 -2.55,6.79 -0.18,3.77 -0.56,20.88 0.14,41.65 v 0 a 142.82,142.82 0 0 1 -10,-11.93 v 0 c -0.33,-18.21 0.19,-40.15 0.2,-40.71 0,0 0,0 0,0 -0.19,0.11 -2.4,1.51 -2.62,6.23 -0.12,2.4 -0.28,14.11 -0.05,30.43 0,0 0,0 0,0 a 1.44,1.44 0 0 0 -0.83,-0.32 c -0.73,-0.07 -2.67,-3.34 -3.27,-4.38 -1.35,-1.86 0.29,-3.77 -1.93,-5.19 a 4.71,4.71 0 0 0 -3,-0.66 c -0.37,0 -0.76,0.08 -1.1,0.12 -0.06,-14.56 0.28,-30.62 0.3,-31.18 v 0 c -0.21,0.16 -2.72,2.17 -2.59,8.31 0.1,5 0.11,16 0.16,23.57 v 0 a 15.49,15.49 0 0 0 -5.5300005,4.72 7.53,7.53 0 0 0 -1,2.34 c -0.79,2.43 0.61,4 3.24,4.55 1.15,0.25 2.51,2.26 3.5300005,4 v 0 c 0.19,7.86 0.53,15.59 1.18,22 v 0 a 16.42,16.42 0 0 0 -6.2400005,6.1 v 0 c -4.4,-15.5 -3.46,-63.5 -3.22,-73.4 z m 13.5600005,87.81 c 3.85,11.62 26.8,8.85 35.84,-10.34 l 29.08,0.13 c 4.12,6.42 2.39,4.58 7.87,10.37 8.12,8.58 28.430003,10 28.570003,-3.58 a 10.16,10.16 0 0 0 -0.23,-2.57 c 0.43,-1 1.84,-3.38 2.2,-4.33 6.16,6 4.28,16.38 0.33,23.07 a 65.81,65.81 0 0 1 -14.56,16.09 c -20.640003,15.71 -47.310003,17.72 -69.890003,5.12 -11.85,-6.64 -26.1200005,-20.62 -25.4800005,-35.67 0.4700005,-11.19 13.1700005,-16.41 14.7200005,-8.94 a 0.57,0.57 0 0 1 -0.62,0.68 c -2.85,-0.27 -4.83,-0.52 -7,2 -1.67,1.99 -1.62,5.6 -0.83,7.97 z M 119.84596,145.76 c -0.47,2.2 -2.14,9.64 -3.38,11.26 a 17,17 0 0 1 -1,-3.26 0.41,0.41 0 0 0 -0.74,-0.15 26.89,26.89 0 0 1 -2.07,2.73 c -2.89,3.84 -8.41,7.33 -14.060003,5.11 -5.23,-2.06 -10.35,-8.85 -11.81,-14.27 9.57,-4.14 11.63,-9.65 18.170003,-18.36 0.6,0.77 0.88,1.07 1.31,1.54 l 2.07,0.79 c -0.41,1.72 -11.410003,14.67 -10.890003,19.16 a 4.54,4.54 0 0 0 1.23,3.19 c 3.260003,3.72 10.570003,1.35 13.730003,-1.5 a 0.56,0.56 0 0 0 -0.28,-1 9,9 0 0 1 -2.91,-1 72.5,72.5 0 0 1 10.19,-4.72 0.38,0.38 0 0 1 0.44,0.48 z m -88.290003,1.71 c 4,-1.47 4.44,-1.58 7.33,-4.56 3,0.1 4.69,1.63 6.38,3.87 0,5 -2.33,8.32 -6.14,11.78 z m 6.14,12.29 a 12.18,12.18 0 0 1 -8.61,3.58 c 4.59,-2 5.25,-5.81 5.47,-8.26 z m -24.16,-52.79 c 6.65,-1.24 0.07,8.31 -5.9400005,9.4 -6.48,1.17 -0.13,-8.25 5.9400005,-9.4 z m 3.4,4.7 4.12,5.58 c -0.76,2.45 -4.93,5.79 -7.67,5.94 l -4.4800005,-5.51 c 4.0900005,-1.11 5.4700005,-3.2 8.0300005,-6.01 z m -2.78,31.55 c -0.54,-5.16 -0.9,-11.15 -1.13,-17.37 l 0.44,0.15 a 113.92,113.92 0 0 1 10.09,13.46 c 0.07,1.08 0.14,2.13 0.21,3.14 -0.72,-0.18 -1.42,-0.32 -1.87,-0.4 a 19.69,19.69 0 0 0 -7.74,1.02 z m 0.87,-18.13 a 13.06,13.06 0 0 0 7.54,-5.79 c 4.14,5.39 8.05,10.44 12.45,15.49 -0.91,3 -0.77,4.38 1.09,6.95 a 10.82,10.82 0 0 1 -6.12,3.36 c -3.52,-4.53 -10.91,-15.19 -14.96,-20.01 z m 23.72,16.22 a 3.87,3.87 0 0 1 -1.5,-6.65 c 2.53,-2.21 5.71,0 5.72,3.4 -1.12,0 -1.66,0.33 -2.18,-0.4 -0.34,-0.48 -1,-0.63 -1.85,-0.08 -1.32,0.9 -0.47,2.55 -0.19,3.73 z m 2.68,-0.33 0.08,-1.88 h 4.3 a 3.93,3.93 0 0 0 2.89,2.68 v -2.7 h 6.29 a 5.72,5.72 0 0 1 -0.88,3 c 2.16,0.06 3.31,-1.84 3.72,-3 h 16.23 c 0.77,1.78 1.4,2.74 3.7,3.09 l -0.93,-3.08 h 6.64 l -0.33,2.71 c 1.52,-0.31 2.14,-1.23 2.65,-2.73 l 5.16,0.06 c 0,3 -1.71,3.39 -3,4.22 -1.78,1.15 -4.42,0.66 -6.55,0.66 h -28.66 c -5.78,0 -6.74,0.62 -11.27,-3.03 z m 44.8,-62.28 v 38.86 c -0.17,5.41 -2.9,6.54 -12.72,6.13 a 21.16,21.16 0 0 0 -3,0.12 11.16,11.16 0 0 0 -4,1.75 c -0.4,-0.18 -2.95,-2 -5.26,-2.09 -1.91,-0.05 -4.57,0.26 -6.56,0.27 -3.71,0 -7.25,-1.14 -7.72,-5 0,0.07 0,-0.68 -0.06,-1.08 V 78.09 c 0,0 0,-0.06 0,-0.08 h 39.28 c 0.08,0.14 0.02,0.38 0.04,0.69 z m -2.83,59.06 h -2.62 c -1.21,-6.67 8.16,-6.45 6.67,0 l -1.66,0.06 c -0.14,-0.83 -0.14,-1.79 -1.26,-1.81 -0.9,-0.04 -1.23,0.61 -1.13,1.75 z m -2.2,-12.39 c -7.95,2.74 -4.19,5.73 -8.22,7 a 11.67,11.67 0 0 1 -1.57,0.26 l -0.85,-7.45 c 2.56,-0.79 6.34,0.35 12.1,-0.79 -0.19,0.67 -0.12,0.58 -1.46,1.01 z m -2.33,12.39 h -2.05 c -0.12,-1.59 -0.51,-1.75 -1.27,-1.76 -1.3,0 -1.54,1.5 -1.57,1.75 -0.2,0 -0.7,0 -1.77,0 -1.13,-6.93 7.92,-6.45 6.66,0.01 z m -9.79,0 h -5.1 l 0.88,-11.83 a 10.89,10.89 0 0 1 1.68,0.65 8.09,8.09 0 0 1 1.89,-0.73 z m -12.38,-9.6 c -1.84,-2.26 -4.31,-1.85 -6,-3.15 0.13,-0.07 -0.28,-0.68 -0.2,-0.67 a 10,10 0 0 1 1.22,0.33 c 3.13,0.92 8.17,-0.78 11,0.54 l -1.25,7.76 c -3.65,-0.33 -4,-3.87 -4.77,-4.84 z m 3,9.67 h -1.78 c -0.17,-1.12 -0.27,-1.83 -1.58,-1.79 -1.31,0.04 -1.16,1 -1.36,1.87 h -2 c -1.04,-6.66 7.49,-7.15 6.68,-0.15 z m -8.6,-0.08 a 7.5,7.5 0 0 1 -2.22,0 c 0,-0.89 0.07,-1.71 -1.28,-1.72 -1.35,-0.01 -1.55,1.13 -1.73,1.82 h -1.44 c -1.62,-6.09 7.76,-6.97 6.63,-0.09 z m 59.250003,-21.88 a 9.81,9.81 0 0 0 1.11,2 l -1.12,-0.61 c -0.03,-0.5 -0.03,-0.96 -0.03,-1.42 z m 13.12,-9.51 c 5.92,4.11 2.28,14.34 -4.76,13.31 a 41.17,41.17 0 0 0 2.47,-4.72 3.47,3.47 0 0 0 -1.6,-3.65 3.29,3.29 0 0 0 -4.36,0.27 c -0.91,0.68 -1.05,1.54 -3.07,3.83 -3.5,-4.48 3.98,-14.64 11.32,-9.04 z m -4.45,16.79 -1.95,-1.52 a 18.22,18.22 0 0 0 3.17,-0.28 l -0.09,2.87 z m -2.66,-2.89 a 31.74,31.74 0 0 1 -3.89,-2.5 c 1.05,-1.7 3.83,-7.34 6.29,-5.44 2.56,1.56 -1.03,6.36 -2.41,7.94 z m 1.17,4.24 7.16,6 a 47.79,47.79 0 0 1 -3,4.89 c 0,0 -11.31,-4.95 -14.55,-6.43 -1.48,-1.43 -10.420003,-10.29 -11.270003,-11.39 a 27.78,27.78 0 0 1 3.86,-4.5 c 0,0 13.240003,7.19 17.790003,11.43 z m -0.33,18.71 a 18.52,18.52 0 0 0 -7.92,0.19 c 0.27,-3.43 0.49,-7.27 0.66,-11.49 2.11,0.87 6.69,2.82 9.63,4.07 -0.19,2.71 -0.4,5.28 -0.66,7.66 a 10.69,10.69 0 0 0 -1.72,-0.43 z m -17.510003,8.8 c -1.05,-3 1.180003,-6.15 2.000003,-7.6 0.59,-1 3.32,-5.4 5.65,-8.93 -0.16,3.23 -0.36,6.21 -0.59,8.92 -2.49,1.36 -4.93,3.65 -7.070003,7.61 z m 16.480003,-7.16 -11,5.31 5.23,1.95 c -3.51,1.69 -6.46,2.61 -9.3,1.31 0.37,-2.9 6.11,-11.83 15.06,-8.57 z M 97.745957,134.38 c 0.15,-4.24 0.24,-8.48 0.29,-12.58 1.92,1.88 3.940003,3.71 5.660003,5.6 a 34,34 0 0 1 -3.64,5.46 9.59,9.59 0 0 1 -2.290003,2.27 z m -4.56,6.77 c 1.19,-2.51 -0.11,-5.3 -2.33,-3.08 l -2,-0.07 c 0.12,-3.39 3.25,-5.58 5.78,-3.3 3.29,2.96 0,4.47 -1.46,6.45 z m -26.65,73.25 c -28.2,0 -61.6600005,-23.3 -62.4000005,-48.63 -0.33,-11.61 4.12,-21.49 16.4600005,-21.47 14,1.08 15.85,20.41 3,17.38 a 0.6,0.6 0 0 0 -0.58,1 c 3.66,4.18 17.31,4.31 25.33,-14.69 h 36.53 l 1.15,2.28 v 0 c 7.2,15.94 21.110003,15.26 24.740003,11.76 a 0.41,0.41 0 0 0 -0.45,-0.68 4.86,4.86 0 0 1 -0.79,0.29 12.63,12.63 0 0 1 -1.83,0.37 c 3,-1.08 5.5,-3.81 6.83,-5.54 1.68,2.33 2,3.58 1.18,6.65 -1.91,7.47 -10.69,7.17 -16.710003,5.28 a 26.25,26.25 0 0 1 -13.93,-10.8 c -0.78,-1.21 -2.44,-4.32 -3.14,-5.13 h -30.7 c -1.19,1.63 -2.27,4 -3.61,5.89 a 26.09,26.09 0 0 1 -17,10.94 c -14.25,2.35 -14.89,-9.65 -11.6,-12.31 1.7,-1.37 3.91,-1.25 5.93,-0.82 a 1.14,1.14 0 0 0 1.38,-1.09 c 0.31,-10.05 -13.6,-7.6 -17.1500005,2.42 -3.16,8.89 0.56,18.43 6.0000005,25.49 a 65,65 0 0 0 42.72,25 c 17.9,2.6 37.6,-3 51.000003,-15.38 6,-5.54 11.75,-11.45 14.62,-19.27 2.32,-6.33 2.71,-14.89 -1.91,-19.91 -1,-1 -1.18,-1.17 -1.51,-1.52 0.28,-1.26 0.94,-3.66 1.17,-5 v 0 c 0,0 7.43,3.54 8.06,14.23 -0.07,36.31 -38.370003,53.26 -62.800003,53.26 z"
     id="path49" />
  <path
     class="cls-1"
     d="m 55.155957,113.6 a 0.32,0.32 0 0 1 -0.43,0 0.28,0.28 0 0 1 0,-0.41 l 0.19,-0.19 a 1.42,1.42 0 0 0 -1.69,0.19 1.26,1.26 0 0 0 0,1.84 1.39,1.39 0 0 0 1.93,0 1.26,1.26 0 0 0 0.2,-1.61 z"
     id="path50" />
  <path
     class="cls-1"
     d="m 78.155957,112.99 0.08,0.07 a 0.34,0.34 0 0 1 0,0.49 0.38,0.38 0 0 1 -0.51,0 l -0.07,-0.07 a 1.27,1.27 0 0 0 0.22,1.57 1.41,1.41 0 0 0 1.93,0 1.26,1.26 0 0 0 0,-1.85 1.41,1.41 0 0 0 -1.65,-0.21 z"
     id="path51" />
  <path
     class="cls-1"
     d="m 67.715957,84.37 a 0.12,0.12 0 0 1 0.08,0 0.12,0.12 0 0 0 -0.08,0 z"
     id="path52" />
  <path
     class="cls-1"
     d="m 84.585957,79.5 h -36.38 c 0,22.37 -0.14,33 -0.14,34 0,4.67 0,8.37 3.68,8.75 a 17.32,17.32 0 0 0 2.36,0.14 c 1.12,0 2.24,-0.07 3.32,-0.15 1.08,-0.08 2.11,-0.15 3.13,-0.15 a 9.32,9.32 0 0 1 5.81,1.67 5.79,5.79 0 0 1 3.46,-1.49 h 1.33 c 0.64,0 1.46,0 2.41,0.09 1.21,0.06 2.59,0.12 3.94,0.12 2.84,0 4.8,-0.38 5.84,-1.15 2.17,-2.06 1.52,-3.82 1.52,-6.6 0,-4.41 -0.28,-23.71 -0.28,-35.23 z m -16.37,3.44 c 0.26,-0.26 0.49,-0.19 0.67,0.11 a 0.3,0.3 0 0 1 0.22,0.12 c 0.07,0.11 -0.11,0.2 -0.1,0.31 0.01,0.11 0.46,0.07 0.19,0.29 0.11,-0.21 -0.36,0 -0.33,-0.25 -0.05,0.22 0.27,0.38 -0.07,0.49 0.12,-0.22 -0.17,-0.38 -0.07,-0.51 0.1,-0.13 0.05,-0.45 -0.26,-0.5 0.1,0.41 0.06,0.76 -0.49,0.71 0.76,-0.1 0.1,-0.59 0.24,-0.77 z m -1.88,-0.88 h 0.12 v -0.11 h 0.12 v 0.11 h 0.12 v 0.11 h -0.12 v 0.11 h -0.11 v -0.11 h -0.12 z m -2.67,1.47 c 0.47,0 0.12,-0.13 0.15,-0.36 0.31,-0.19 0.53,-0.62 0.89,-0.23 0.15,0.18 -0.52,0.67 0.25,0.77 -0.55,0 -0.59,-0.3 -0.5,-0.71 -0.31,0.05 -0.5,0.22 -0.26,0.5 0.24,0.28 -0.18,0.29 -0.06,0.51 -0.34,-0.11 0,-0.27 -0.07,-0.49 0,0.29 -0.44,0 -0.34,0.25 a 0.16,0.16 0 0 1 -0.06,-0.24 z m 16.59,32 a 2,2 0 0 1 -1.41,0.6 2.34,2.34 0 0 1 -2,-1.21 1.75,1.75 0 0 1 0.05,-1.78 l -0.16,-0.15 a 9.4,9.4 0 0 0 -1.64,2.42 0.29,0.29 0 0 1 -0.16,0.15 h -0.1 -0.11 l -0.65,-0.29 a 0.26,0.26 0 0 1 -0.14,-0.35 10.27,10.27 0 0 1 1.14,-1.94 l -0.41,-0.31 a 0.25,0.25 0 0 1 -0.05,-0.37 c 0.15,-0.19 0.32,-0.38 0.5,-0.57 l -8,-7.7 c 0.34,3.28 0.21,5.39 -0.1,6.23 h 0.05 a 0.29,0.29 0 0 1 0.28,0.21 0.28,0.28 0 0 1 -0.13,0.29 1.89,1.89 0 0 0 0,0.61 1.93,1.93 0 0 1 -0.06,1.13 0.77,0.77 0 0 1 0.13,0.48 0.74,0.74 0 0 1 -0.26,0.54 c 0,0.11 0.06,0.22 0.1,0.34 a 4.64,4.64 0 0 1 0.27,1.87 1.35,1.35 0 0 1 -0.24,0.6 0.7,0.7 0 0 1 0.11,0.71 1,1 0 0 1 -1.56,0 0.71,0.71 0 0 1 0.12,-0.72 c -0.5,-0.67 -0.21,-1.69 0,-2.44 0,-0.13 0.07,-0.25 0.1,-0.36 a 0.74,0.74 0 0 1 -0.26,-0.54 0.77,0.77 0 0 1 0.13,-0.48 1.93,1.93 0 0 1 -0.06,-1.13 1.89,1.89 0 0 0 0,-0.61 0.28,0.28 0 0 1 -0.13,-0.29 0.29,0.29 0 0 1 0.28,-0.21 v 0 c -0.32,-0.85 -0.46,-3 -0.1,-6.33 v 0 l -0.06,0.07 v 0 c -0.59,0.55 -1.49,1.44 -2.37,2.32 -4.71,4.66 -6.33,6.15 -6.91,6.32 l -0.42,0.4 a 1.76,1.76 0 0 1 0.09,1.8 2.3,2.3 0 0 1 -2,1.23 2,2 0 0 1 -1.41,-0.6 1.79,1.79 0 0 1 -0.48,-2.08 2.26,2.26 0 0 1 2,-1.37 2,2 0 0 1 1,0.28 c 0.09,-0.1 0.23,-0.23 0.42,-0.41 0.16,-0.51 1.39,-1.78 6.75,-6.74 1.25,-1.16 2.54,-2.35 2.95,-2.78 l -10.3,-9.85 c -0.29,0.46 -0.75,1.82 0.24,4 0,0 0,0 0,-0.07 a 0.29,0.29 0 0 1 0.26,-0.21 v 0 a 0.28,0.28 0 0 1 0.27,0.19 2.42,2.42 0 0 0 0.85,1.44 l 0.28,0.25 a 0.25,0.25 0 0 1 0,0.32 0.26,0.26 0 0 1 -0.24,0.13 h -0.07 l -0.67,-0.17 c -0.54,-0.13 -1.1,-0.26 -1.57,-0.42 a 0.28,0.28 0 0 1 -0.18,-0.23 0.26,0.26 0 0 1 0.15,-0.26 l 0.09,-0.05 a 5.91,5.91 0 0 1 -1.38,-5.3 3.69,3.69 0 0 0 -0.19,-2.33 0.26,0.26 0 0 1 0,-0.33 0.32,0.32 0 0 1 0.2,-0.08 0.33,0.33 0 0 1 0.14,0 2.44,2.44 0 0 0 1.23,0.27 c 0.37,0 0.78,-0.05 1.21,-0.09 a 15.47,15.47 0 0 1 1.58,-0.11 6,6 0 0 1 4,1.43 l 0.05,-0.09 a 0.27,0.27 0 0 1 0.24,-0.14 v 0 a 0.3,0.3 0 0 1 0.24,0.18 c 0.16,0.44 0.3,1 0.44,1.5 0.06,0.22 0.11,0.44 0.17,0.64 a 0.27,0.27 0 0 1 -0.13,0.3 0.32,0.32 0 0 1 -0.14,0 0.26,0.26 0 0 1 -0.19,-0.07 3.25,3.25 0 0 1 -0.26,-0.27 2.62,2.62 0 0 0 -1.51,-0.82 0.27,0.27 0 0 1 -0.2,-0.26 0.28,0.28 0 0 1 0.22,-0.25 h 0.07 a 6.76,6.76 0 0 0 -2.57,-0.58 3.38,3.38 0 0 0 -1.6,0.35 l 9.39,9 a 0.84,0.84 0 0 1 0.18,-0.43 1.76,1.76 0 0 1 -0.2,-1.28 2,2 0 0 0 0,-0.49 0.26,0.26 0 0 1 -0.05,-0.28 0.26,0.26 0 0 1 0.21,-0.16 3.66,3.66 0 0 1 -0.17,-2.64 4.89,4.89 0 0 0 -0.17,-3.21 0.25,0.25 0 0 1 0,-0.25 0.23,0.23 0 0 1 0.07,-0.06 h 1.13 c -0.6,0 -0.8,-1.22 -0.44,-1.67 -0.18,0 -0.26,-0.22 -0.34,-0.2 -0.3,0.25 -0.52,-0.13 -0.45,-0.28 -0.11,0.11 0,0.29 -0.2,0.31 0.23,-0.1 -0.42,-0.37 0.13,-0.58 -0.13,0 -0.31,-0.26 0,-0.34 -0.24,0.49 0.71,-0.21 0.94,-0.29 -0.14,0 -0.17,0 -0.27,0.07 0.62,-0.48 -0.16,-1.09 -0.31,-0.45 0,0.18 0.44,0.06 0.21,0.17 a 0.43,0.43 0 0 1 -0.19,0.06 c 0.34,0.47 -0.8,0.15 -1.14,0.59 0.11,0.21 0,0.47 -0.09,0.18 -0.11,0 -0.29,-0.09 -0.31,-0.21 -0.02,-0.12 -0.17,-0.35 0,-0.42 0,0 0,0 0,0 0,0 -0.13,-0.31 -0.21,-0.31 l 0.16,-0.07 c -0.05,0.06 0.18,0.26 0.12,0.34 -0.06,0.08 0,0 0,0 0.14,-0.27 0.19,0.09 0.38,0.14 0.19,0.05 0.73,-0.08 0.61,-0.39 0,0 0,0.07 -0.12,0.12 -0.12,0.05 0,-0.1 0,-0.13 0,-0.03 -0.13,0.15 -0.2,0.16 0.08,-0.08 0.11,-0.21 0,-0.25 -0.11,-0.04 -0.27,0.16 -0.31,0 0.29,0 0,-0.31 0.17,-0.49 0.41,-0.44 0.23,0 0.6,-0.31 0,0 0.14,-0.55 -0.12,-0.69 0,-0.21 -0.09,0.18 -0.26,0.05 0.17,0.64 -0.54,0.71 -0.29,0 0,0 0,0 -0.07,0 -0.09,0.77 -0.55,0.68 -0.42,0.18 -0.3,0.53 -0.7,0.19 -0.13,-0.45 -0.19,0.19 -0.36,0.57 -0.69,0.51 0.13,0.37 0.62,0.82 0.55,1.19 -0.4,-0.27 -0.48,-1.09 -0.77,-1.47 0,0 0,0 0,0 0,0 0,0 0,0 0,0 -0.07,0 -0.17,0 -0.1,0 0.06,-0.13 0.07,0 0.01,0.13 0.07,-0.17 0,-0.09 -0.07,0.08 -0.25,-0.1 -0.25,-0.23 -0.15,-0.06 0.11,0 0.16,0 0.05,0 -0.06,0.09 0.06,0 0.12,-0.09 -0.07,-0.11 -0.1,-0.09 -0.03,0.02 -0.09,0 0,0 -0.16,-0.09 0.25,-0.26 0.35,-0.28 -0.75,0 -0.48,-0.42 0.11,-0.37 -1,-0.09 -0.74,-0.4 -0.18,-0.36 -0.46,-0.19 -0.85,-0.55 0,-0.38 -0.65,-0.38 -0.36,-0.59 0.07,-0.41 a 0.58,0.58 0 0 1 -0.34,-0.76 c 0.28,0.26 0.63,0.52 0.9,0.76 -0.34,-0.44 -1,-0.71 -0.57,-1.41 a 12,12 0 0 0 0.73,1.16 0.37,0.37 0 0 1 0.09,-0.16 5,5 0 0 0 0.29,0.5 0.22,0.22 0 0 1 0.05,-0.11 c 0.37,0.57 0.87,0.6 0.54,1 -0.33,0.4 0.35,0.48 0.52,0.26 -0.14,-0.06 -0.23,-0.24 -0.1,-0.35 0,0.23 0.5,0 0.49,-0.08 a 0.21,0.21 0 0 1 -0.33,-0.13 c 0.62,0.17 0.29,-0.61 0,-0.81 -0.16,0 -0.46,-0.09 -0.49,0.17 -0.17,-0.06 0,-0.27 0.21,-0.27 -0.27,0 -0.77,0.41 -0.8,0 0.14,0.28 0.55,-0.09 0.75,0 a 0.4,0.4 0 0 0 -0.5,0 0.26,0.26 0 0 1 0.24,-0.43 c 0,-0.1 0.13,-0.14 0.21,-0.14 h -0.07 c 0,-0.2 -0.24,-0.5 0.11,-0.55 h 0.06 v 0 c 0,0 0,0 0,0 v 0 c -0.26,-0.17 0.29,-0.17 0,0 v 0 0 c 0,0 0,0 0,0 h 0.35 c 0.28,0 0.25,0.34 0.1,0.49 v 0 a 2.08,2.08 0 0 0 0.61,-0.32 h -0.06 v -0.1 c -0.25,-0.24 -0.3,-0.74 0.14,-0.77 v 0 h 0.1 c 0,0.1 0.09,0.1 0.07,0 h 0.04 c -0.42,-0.27 0.44,-0.27 0,0 h 0.06 c 0,0 0,0.08 0.06,0.08 V 82.4 h 0.09 v 0 c 0.56,0.07 0.23,0.56 0.16,0.87 h -0.07 a 2.08,2.08 0 0 0 0.61,0.32 v 0 c -0.16,-0.15 -0.18,-0.47 0.1,-0.49 h 0.06 c 0,0 0,0 0.05,0 v 0 0 c -0.26,-0.17 0.29,-0.17 0,0 v 0 c 0,0 0,0 0,0 v 0 h 0.07 c 0.35,0 0.15,0.35 0.1,0.55 h -0.09 c 0,0 0.11,0 0.14,0 0.03,0 0.09,0.06 0.07,0.12 a 0.26,0.26 0 0 1 0.27,0.42 0.42,0.42 0 0 0 -0.51,0 v 0 c 0.21,-0.08 0.62,0.29 0.76,0 0,0.46 -0.53,0 -0.8,0 0.18,0 0.38,0.21 0.21,0.27 a 0.23,0.23 0 0 0 -0.19,-0.2 c -0.47,-0.16 -1,1 -0.28,0.84 a 0.21,0.21 0 0 1 -0.32,0.13 c 0.08,0.17 0.47,0.27 0.48,0.08 0.13,0.12 0,0.29 -0.11,0.35 0.18,0.22 0.8,0.07 0.51,-0.26 -0.29,-0.33 0.17,-0.45 0.54,-1 a 0.16,0.16 0 0 1 0.05,0.11 5.09,5.09 0 0 0 0.3,-0.5 0.35,0.35 0 0 1 0.08,0.16 9.09,9.09 0 0 0 0.73,-1.16 c 0.42,0.7 -0.23,1 -0.56,1.41 0.27,-0.24 0.61,-0.5 0.89,-0.76 0.17,0.65 -0.32,0.69 -0.66,1 1,-0.61 0.9,-0.13 0.38,0.2 0.55,-0.14 0.58,0.18 0,0.38 0.58,0 0.84,0.27 -0.17,0.36 0.6,0 0.87,0.4 0.11,0.37 0.58,0.14 0.35,0.44 -0.14,0.3 0.59,0.28 0.13,0.52 -0.22,0.26 0.52,0.49 0,0.5 -0.31,0.17 0.24,0.45 -0.07,0.76 -0.4,0 -0.2,-0.32 0.3,0.47 0,0.58 -0.3,0.11 -0.31,-0.34 -0.38,-0.59 0,0 0,0 -0.07,0 0.25,0.66 -0.47,0.59 -0.3,0 -0.17,0.13 -0.25,-0.26 -0.26,-0.05 -0.23,0.16 -0.1,0.65 -0.1,0.69 0.37,0.28 0.19,-0.13 0.6,0.31 0.14,0.18 -0.12,0.48 0.17,0.49 -0.06,0.18 -0.24,0.09 -0.31,0 a 0.17,0.17 0 0 0 0,0.26 c -0.06,0 -0.15,-0.11 -0.19,-0.16 -0.04,-0.05 0,0.09 0,0.13 a 0.2,0.2 0 0 1 -0.12,-0.1 c 0,0.32 0.55,0.5 0.84,0.38 0,-0.3 0,-0.72 0.47,-0.79 v 0 -0.14 h -0.16 v 0.05 h 0.16 v -0.14 h 0.15 v 0.14 h 0.16 v 0.13 h -0.16 v 0.14 0 c 0.88,0.26 0.29,1.13 -0.37,1.16 -0.38,-0.36 -1.74,-0.09 -1.34,-0.72 -0.06,0.12 -0.22,0.09 -0.3,0 -0.08,-0.09 0.21,0 0.21,-0.17 -0.16,-0.66 -0.92,0 -0.31,0.45 -0.1,-0.09 -0.14,0 -0.29,-0.08 0.22,0.09 1.18,0.79 0.95,0.3 0.33,0.08 0.15,0.35 0,0.34 0.54,0.21 -0.11,0.48 0.12,0.58 -0.17,0 -0.08,-0.2 -0.19,-0.31 a 0.29,0.29 0 0 1 -0.5,0.26 0.31,0.31 0 0 1 -0.3,0.22 c 0.37,0.45 0.17,1.68 -0.43,1.67 h 1.2 c 0,0 0.05,0 0.07,0.06 a 0.31,0.31 0 0 1 0,0.25 5,5 0 0 0 -0.18,3.21 3.56,3.56 0 0 1 -0.17,2.64 0.27,0.27 0 0 1 0.22,0.16 0.26,0.26 0 0 1 0,0.28 2,2 0 0 0 0,0.49 1.76,1.76 0 0 1 -0.2,1.28 0.87,0.87 0 0 1 0.18,0.46 l 1.78,-1.8 c 2.09,-1.91 6.77,-5.68 6.89,-6.74 a 3.36,3.36 0 0 0 -2.23,1 0.2,0.2 0 0 0 0,0.25 0.27,0.27 0 0 1 0,0.36 l -1.48,1.13 a 0.28,0.28 0 0 1 -0.18,0.06 0.28,0.28 0 0 1 -0.15,0 0.26,0.26 0 0 1 -0.11,-0.3 l 0.61,-1.95 a 0.27,0.27 0 0 1 0.26,-0.19 v 0 a 0.28,0.28 0 0 1 0.23,0.14 5.09,5.09 0 0 0 0.76,-0.53 7.6,7.6 0 0 1 1.17,-0.77 h -0.27 a 3.21,3.21 0 0 0 -2.18,0.73 0.09,0.09 0 0 0 0,0.11 0.24,0.24 0 0 1 0,0.23 0.25,0.25 0 0 1 -0.16,0.17 3.91,3.91 0 0 0 -1.61,1 0.29,0.29 0 0 1 -0.22,0.1 0.2,0.2 0 0 1 -0.11,0 0.25,0.25 0 0 1 -0.16,-0.28 5.62,5.62 0 0 1 0.72,-1.67 l 0.24,-0.44 a 0.27,0.27 0 0 1 0.23,-0.15 v 0 a 0.31,0.31 0 0 1 0.25,0.13 0.16,0.16 0 0 0 0,0.07 4.52,4.52 0 0 1 3,-1.31 2.82,2.82 0 0 1 2.81,2.36 3.27,3.27 0 0 1 2.55,2.29 2.64,2.64 0 0 1 -1.34,2.68 v 0 a 0.24,0.24 0 0 1 0.13,0.26 0.27,0.27 0 0 1 -0.19,0.22 l -2,0.58 h -0.08 a 0.27,0.27 0 0 1 -0.23,-0.12 0.24,0.24 0 0 1 0,-0.31 l 1.13,-1.34 v 0 -0.06 a 0.32,0.32 0 0 1 0.22,-0.1 0.27,0.27 0 0 1 0.17,0.06 0.24,0.24 0 0 0 0.14,0.06 c 0.08,0 0.27,-0.16 0.42,-0.6 a 2.69,2.69 0 0 0 0.16,-0.83 6.32,6.32 0 0 1 -0.7,0.78 5.14,5.14 0 0 0 -0.49,0.55 0.06,0.06 0 0 1 0,0.09 5.31,5.31 0 0 1 -2,0.79 h -0.24 v 0 a 0.29,0.29 0 0 1 -0.26,-0.16 0.27,0.27 0 0 1 0.09,-0.32 c 0.48,-0.34 1,-0.79 1.12,-1.19 a 0.29,0.29 0 0 1 0.14,-0.17 0.23,0.23 0 0 1 0.14,0 h 0.08 a 0.45,0.45 0 0 0 0.16,0 c 0.49,0 1,-0.66 1,-1.17 a 2.49,2.49 0 0 0 -0.07,-0.9 4.3,4.3 0 0 0 -1,0.53 c -0.62,0.59 -7.71,7.31 -9,8.53 l 8.67,8.28 c 0.2,-0.17 0.4,-0.32 0.6,-0.47 a 0.27,0.27 0 0 1 0.17,-0.06 0.29,0.29 0 0 1 0.22,0.11 l 0.32,0.39 a 10.7,10.7 0 0 1 2,-1.09 0.2,0.2 0 0 1 0.11,0 0.26,0.26 0 0 1 0.25,0.15 l 0.3,0.62 a 0.26,0.26 0 0 1 0,0.21 0.25,0.25 0 0 1 -0.15,0.15 10,10 0 0 0 -2.53,1.57 l 0.16,0.15 a 2,2 0 0 1 1,-0.26 2.25,2.25 0 0 1 2,1.37 1.81,1.81 0 0 1 -0.39,2.01 z"
     id="path53" />
  <path
     class="cls-1"
     d="m 65.155957,84.35 a 0.12,0.12 0 0 1 0.08,0 0.13,0.13 0 0 0 -0.08,0 z"
     id="path54" />
  <polygon
     class="cls-1"
     points="142.26,64.21 "
     id="polygon54"
     transform="translate(-78.534043,-10.24)" />
  <path
     class="cls-1"
     d="m 83.265957,8.18 c -2,-3.73 -6.7,-6 -12.51,-6 a 1.24,1.24 0 0 0 -1.17,0.88 c -0.88,3 -1.65,6.13 -2.27,9.19 -0.26,1.3 -0.51,2.48 -0.74,3.56 -0.2,-0.95 -0.41,-1.95 -0.63,-3 l -0.11,-0.54 c -0.61,-3 -1.38,-6.12 -2.27,-9.18 a 1.22,1.22 0 0 0 -1.17,-0.89 c -5.8,0 -10.48,2.23 -12.52,6 a 12,12 0 0 0 -0.73,8.67 20.25,20.25 0 0 0 4.14,6.89 v 0.07 l 0.1,0.05 a 5.74,5.74 0 0 1 0.93,1.2 1.18,1.18 0 0 1 0.14,0.55 14.55,14.55 0 0 1 0,2 1.17,1.17 0 0 0 0.3,0.92 1.21,1.21 0 0 0 0.9,0.41 l 10.39,0.15 h 0.81 l 10.61,-0.19 a 1.18,1.18 0 0 0 0.88,-0.4 1.2,1.2 0 0 0 0.31,-0.95 11.51,11.51 0 0 1 0,-2 1.31,1.31 0 0 1 0.15,-0.55 6,6 0 0 1 1,-1.27 20.08,20.08 0 0 0 4.17,-6.94 11.71,11.71 0 0 0 -0.71,-8.63 z m -17.7,16.5 a 2.08,2.08 0 0 0 1,0.26 2,2 0 0 0 1,-0.26 55.34,55.34 0 0 1 12.6,-5.41 19.46,19.46 0 0 1 -2.09,2.8 v 0 a 7.72,7.72 0 0 0 -1.37,1.83 3.66,3.66 0 0 0 -0.44,1.51 c 0,0.42 0,0.77 -0.05,1.06 l -9.31,0.14 -9.93,-0.14 q 0,-0.48 -0.06,-1.05 a 3.57,3.57 0 0 0 -0.42,-1.53 8.26,8.26 0 0 0 -1.37,-1.8 19.85,19.85 0 0 1 -2.14,-2.85 c 4.31,1.11 8.96,3.52 12.58,5.44 z m 16.1,-8.54 -0.12,0.36 c -4.8,0.81 -9.67,3.1 -13.93,5.39 a 1.3,1.3 0 0 0 0.14,-0.32 c 0.63,-2.43 1.23,-5.3 2,-8.8 0.53,-2.66 1.2,-5.38 2,-8.1 4.46,0.22 8,1.95 9.46,4.67 a 9.56,9.56 0 0 1 0.45,6.8 z m -20.2,-11.47 c 0.75,2.68 1.41,5.4 2,8.1 0.71,3.5 1.31,6.33 1.94,8.79 a 1.28,1.28 0 0 0 0.14,0.34 c -4.16,-2.21 -9.27,-4.62 -13.93,-5.4 a 1.59,1.59 0 0 1 -0.07,-0.2 v -0.15 a 9.68,9.68 0 0 1 0.53,-6.81 c 1.39,-2.72 4.95,-4.45 9.39,-4.67 z"
     id="path55" />
  <path
     class="cls-1"
     d="m 66.635957,5.29 h -0.12 a 1.19,1.19 0 0 0 -0.74,0.3 1.22,1.22 0 0 0 -0.31,0.75 47.1,47.1 0 0 0 1.08,7.32 c 0,0 0,0 0,0 a 47.86,47.86 0 0 0 1.07,-7.32 1.28,1.28 0 0 0 -0.31,-0.75 1.17,1.17 0 0 0 -0.67,-0.3 z"
     id="path56" />
  <polygon
     class="cls-1"
     points="145.73,13.15 147.41,13.62 147.41,11.45 145.73,11.91 146.2,10.24 144.03,10.24 144.49,11.91 142.81,11.45 142.81,13.62 144.49,13.15 144.03,14.83 146.2,14.83 "
     id="polygon56"
     transform="translate(-78.534043,-10.24)" />
</svg>
