<?xml version="1.0" encoding="UTF-8"?>
<svg fill="none" version="1.1" viewBox="0 0 1350 970" xmlns="http://www.w3.org/2000/svg">
<g clip-path="url(#a)">
<path d="m0 765h1350v155c0 27.614-22.39 50-50 50h-1250c-27.614 0-50-22.386-50-50v-155z" fill="#154326"/>
<path d="m114.14 938.64c-20.11 0.362-36.042 2.423-45.84-13.724-4.2937-8.322-3.2362-17.29-10.298-14.483 2.3904-2.563 4.423-3.303 6.7122-1.82-3.7537-8.651-6.582-21.926 3.3159-32.565-4.3491 12.552 1.0785 9.415 4.1872 22.447 0.0512-11.087-10.737-14.753 5.4396-36.473-6.3848 10.375 1.0795 10.461-1.4697 26.452 5.1554-13.746-6.509-24.4 12.19-38.731-3.5134 6.663-1.9303 17.811-4.4354 25.905 6.486-15.92-2.369-22.669 18.083-38.024-6.9468 9.459-1.33 12.844-7.6576 23.618 10.892-12.99 0.0604-22.86 20.197-33.889-9.424 10.447-2.75 14.133-8.524 22.312 9.457-8.089-1.915-20.013 22.966-33.352-8.204 7.531-5.578 11.901-9.83 19.151 7.092-12.402 17.127-18.243 11.529-26.108 3.166 2.104 6.161 7.935 2.642 12.898 6.621-2.382 17.95-24.345 6.675-25.01 0.171-4e-3 1.97 0.459 2.321 1.505 0.365 1.089 0.355 2.146 0.284 2.274-0.425 0.77-1.065 1.445-1.831 1.609-3.079 0.662-4.187-1.992-3.131-4.239 0.366-0.779 1.116-1.517 1.914-1.962 0.529-0.295 1.075-0.422 1.554-0.428 4.242-0.05 6.099 4.214 6.058 9.134-0.067 7.953-6.519 19.66-16.758 25.824 8.417-3.92 12.584-9.135 15.364-15.13-1.79 21.189-25.203 19.819-34.66 34.396 9.13-11.029 30.585-14 31.686-24.086 0.832 12.366-12.724 21.117-22.475 24.086-9.604 3.303-17.508 7.296-24.317 14.838l-3.1316 3.468c8.4244-7.098 14.216-12.313 25.492-15.01 7.932-1.897 12.917-3.466 16.878-10.51-0.583 3.169-0.703 6.184-2.395 8.948-10.552 17.244-38.502 10.213-51.213 36.034 4.1644-5.041 6.9062-9.109 12.291-12.865 9.0518-6.31 22.395-6.467 30.78-12.749-4.076 11.566-15.956 17.881-27.271 21.416-9.7874 3.36-14.814 3.561-17.831 16.182 6.4004-18.086 19.522-8.009 29.184-19.04-8.584 22.72-27.918 7.939-28.026 33.616 3.1458-20.573 15.685-13.83 19.929-21.148 1.229 9.811-5.3782 14.118-11.79 17.652-10.304 8.347-3.7188 18.463 2.7575 20.705-1.436-4.011-2.3588-8.157 0.3971-11.829 3.181-4.233 9.0356-4.758 13.859-4.564 5.436 0.219 9.665 1.034 15.008-1.555 4.39-2.128 6.515-5.048 7.457-10.271 1.465-8.117-7.301-13.295-10.958-8.613 2.179 0.407 3.451 5.505-0.552 5.78-2.404 0.166-3.72-1.951-3.132-4.239 1.065-4.143 5.836-5.352 8.474-5.01 3.161 0.41 6.667 1.896 8.29 5.01 2.507 4.811 2.139 9.848-0.553 14.452-4.107 7.026-14.076 7.516-21.969 6.166-24.593-4.204-16.665 21.498 6.133 21.549z" clip-rule="evenodd" fill="#fff" fill-rule="evenodd"/>
<text x="700.80145" y="-34" fill="#ffffff" font-family="Helvetica" font-size="37.333px" letter-spacing="0em" style="white-space:pre" xml:space="preserve"><tspan x="673.35248" y="851.45795" font-family="Helvetica" font-size="37.333px" font-weight="bold" text-align="center" text-anchor="middle">Universidad Nacional de Córdoba - FaMAF</tspan></text>
<text x="109.55563" y="-14.000114" fill="#ffffff" font-family="Helvetica" font-size="20px" font-weight="bold" letter-spacing="0em" style="white-space:pre" xml:space="preserve"><tspan x="476.89978" y="938.18433">FAMAF - UNC #1 | #FAMAF_-_UNC | Latin America</tspan></text>
<path d="m1253.9 871.74c-1.37-1.412-6.6-7.232-6.7-13.24-0.11 6.008-5.34 11.828-6.71 13.24-0.1 0.1-0.02 0.263 0.12 0.263l6.59-7e-3 6.59 7e-3c0.14 0 0.21-0.163 0.11-0.263z" fill="#fff"/>
<path d="m1253.6 799.65-6.43-7.523c-0.15-0.172-0.39-0.172-0.53 0l-6.44 7.523c-0.24 0.276-0.07 0.748 0.26 0.748h3.19c0.21 0 0.38 0.196 0.38 0.438v7.705c0 0.243 0.16 0.439 0.37 0.439h5c0.21 0 0.38-0.196 0.38-0.439v-7.705c0-0.242 0.16-0.438 0.37-0.438h3.19c0.33 0 0.5-0.472 0.26-0.748z" fill="#fff"/>
<path d="m1246.7 833.12v-5.01c0-0.164-0.07-0.32-0.18-0.435l-2.54-2.626c-0.09-0.086-0.23-0.025-0.23 0.097v5.076c0 0.168 0.07 0.328 0.18 0.444 0.52 0.508 1.98 1.952 2.54 2.55 0.08 0.087 0.23 0.027 0.23-0.096z" fill="#fff"/>
<path d="m1247.1 833.12v-5.01c0-0.164 0.06-0.32 0.17-0.435l2.55-2.626c0.08-0.086 0.22-0.025 0.22 0.097v5.076c0 0.168-0.06 0.328-0.18 0.444-0.51 0.508-1.97 1.952-2.54 2.55-0.08 0.087-0.22 0.027-0.22-0.096z" fill="#fff"/>
<path d="m1247.1 833.85v5.01c0 0.164 0.06 0.32 0.17 0.436l2.55 2.625c0.08 0.086 0.22 0.025 0.22-0.097v-5.076c0-0.168-0.06-0.328-0.18-0.444-0.51-0.508-1.97-1.952-2.54-2.549-0.08-0.088-0.22-0.027-0.22 0.095z" fill="#fff"/>
<path d="m1246.7 833.85v5.01c0 0.164-0.07 0.32-0.18 0.436l-2.54 2.625c-0.09 0.086-0.23 0.025-0.23-0.097v-5.076c0-0.168 0.07-0.328 0.18-0.444 0.52-0.508 1.98-1.952 2.54-2.549 0.08-0.088 0.23-0.027 0.23 0.095z" fill="#fff"/>
<path d="m1248 833.31h4.5c0.14 0 0.28-0.056 0.39-0.157l2.35-2.284c0.08-0.074 0.03-0.202-0.08-0.202h-4.56c-0.15 0-0.29 0.059-0.4 0.164-0.45 0.462-1.75 1.77-2.29 2.276-0.08 0.074-0.02 0.203 0.09 0.203z" fill="#fff"/>
<path d="m1248 833.65h4.5c0.14 0 0.28 0.057 0.39 0.157l2.35 2.284c0.08 0.074 0.03 0.202-0.08 0.202h-4.56c-0.15 0-0.29-0.059-0.4-0.164-0.45-0.462-1.75-1.77-2.29-2.276-0.08-0.074-0.02-0.203 0.09-0.203z" fill="#fff"/>
<path d="m1245.8 833.31h-4.5c-0.14 0-0.28-0.056-0.39-0.157l-2.35-2.284c-0.08-0.074-0.03-0.202 0.08-0.202h4.56c0.15 0 0.29 0.059 0.4 0.164 0.46 0.462 1.75 1.77 2.29 2.276 0.08 0.074 0.02 0.203-0.09 0.203z" fill="#fff"/>
<path d="m1245.8 833.65h-4.5c-0.14 0-0.28 0.057-0.39 0.157l-2.35 2.284c-0.08 0.074-0.03 0.202 0.08 0.202h4.56c0.15 0 0.29-0.059 0.4-0.164 0.46-0.462 1.75-1.77 2.29-2.276 0.08-0.074 0.02-0.203-0.09-0.203z" fill="#fff"/>
<path d="m1246.1 820.01v-7.499h-0.27l-0.97 3.544h-1.86v-0.178l1.24-4.34h3.81v8.473h2.56v1.86h-7.43v-1.86h2.92z" fill="#fff"/>
<path d="m1245.8 849.96c0-0.357 0.13-0.668 0.39-0.931 0.27-0.262 0.58-0.395 0.93-0.395 0.36 0 0.67 0.133 0.94 0.395 0.26 0.263 0.39 0.574 0.39 0.931 0 0.358-0.13 0.669-0.39 0.931-0.27 0.264-0.58 0.394-0.94 0.394-0.35 0-0.66-0.13-0.93-0.394-0.26-0.262-0.39-0.573-0.39-0.931zm1.32 3.851c0.38 0 0.7-0.06 0.95-0.181s0.46-0.292 0.62-0.513 0.27-0.484 0.33-0.79c0.06-0.304 0.09-0.641 0.09-1.009v-2.716c0-0.346-0.03-0.673-0.11-0.977-0.07-0.306-0.19-0.569-0.34-0.79-0.16-0.221-0.37-0.397-0.62-0.528-0.25-0.133-0.56-0.198-0.92-0.198-0.35 0-0.66 0.065-0.91 0.198-0.25 0.131-0.46 0.307-0.62 0.528-0.15 0.221-0.27 0.484-0.34 0.79-0.08 0.304-0.11 0.631-0.11 0.977v2.716c0 0.368 0.03 0.705 0.09 1.009 0.06 0.306 0.17 0.569 0.33 0.79s0.36 0.392 0.62 0.513c0.25 0.121 0.57 0.181 0.94 0.181zm-4.07-5.082c0-1.43 0.36-2.542 1.08-3.33 0.72-0.789 1.72-1.185 2.99-1.185 1.28 0 2.27 0.396 3 1.185 0.72 0.788 1.08 1.9 1.08 3.33v2.463c0 1.473-0.36 2.593-1.08 3.361-0.73 0.768-1.72 1.153-3 1.153-1.27 0-2.27-0.385-2.99-1.153s-1.08-1.888-1.08-3.361v-2.463z" fill="#fff"/>
<path d="m1204 814.73-9.87-0.77c-0.22-0.017-0.39 0.151-0.37 0.375l0.77 9.872c0.03 0.362 0.48 0.577 0.71 0.341l2.26-2.253c0.14-0.146 0.4-0.126 0.57 0.046l5.45 5.448c0.17 0.171 0.43 0.191 0.58 0.045l3.53-3.537c0.15-0.146 0.13-0.403-0.04-0.575l-5.45-5.448c-0.17-0.171-0.19-0.429-0.05-0.575l2.26-2.253c0.23-0.236 0.02-0.688-0.35-0.716z" fill="#fff"/>
<path d="m1222.8 843.27-3.54-3.543c-0.12-0.115-0.27-0.182-0.43-0.185l-3.66-0.057c-0.12-2e-3 -0.18 0.142-0.09 0.228l3.59 3.59c0.12 0.118 0.28 0.185 0.44 0.184 0.73-4e-3 2.78-0.014 3.6 0.01 0.12 4e-3 0.18-0.141 0.09-0.227z" fill="#fff"/>
<path d="m1223.1 843-3.54-3.542c-0.12-0.116-0.18-0.271-0.19-0.431l-0.05-3.656c0-0.12 0.14-0.178 0.23-0.092l3.58 3.59c0.12 0.118 0.19 0.278 0.19 0.443-0.01 0.723-0.01 2.775 0.01 3.596 0 0.12-0.14 0.179-0.23 0.092z" fill="#fff"/>
<path d="m1223.6 843.51 3.54 3.543c0.11 0.116 0.27 0.182 0.43 0.185l3.66 0.056c0.12 2e-3 0.17-0.142 0.09-0.227l-3.59-3.59c-0.12-0.119-0.28-0.185-0.44-0.184-0.73 4e-3 -2.78 0.014-3.6-0.011-0.12-3e-3 -0.18 0.142-0.09 0.228z" fill="#fff"/>
<path d="m1223.3 843.78 3.54 3.543c0.12 0.116 0.18 0.271 0.18 0.431l0.06 3.656c0 0.12-0.14 0.177-0.23 0.091l-3.59-3.589c-0.11-0.119-0.18-0.278-0.18-0.444 0-0.723 0.01-2.775-0.01-3.596 0-0.12 0.14-0.178 0.23-0.092z" fill="#fff"/>
<path d="m1223.9 842.48 3.18-3.18c0.1-0.104 0.16-0.243 0.16-0.387l0.05-3.282c0.01-0.107-0.12-0.159-0.2-0.082l-3.22 3.222c-0.11 0.107-0.17 0.25-0.17 0.398 0.01 0.649 0.01 2.491-0.01 3.227 0 0.109 0.13 0.162 0.21 0.084z" fill="#fff"/>
<path d="m1224.1 842.73 3.18-3.18c0.1-0.104 0.24-0.163 0.39-0.165l3.28-0.051c0.11-2e-3 0.16 0.127 0.08 0.204l-3.22 3.222c-0.11 0.106-0.25 0.166-0.4 0.165-0.65-4e-3 -2.49-0.012-3.23 0.01-0.11 3e-3 -0.16-0.127-0.08-0.205z" fill="#fff"/>
<path d="m1222.3 844.05-3.18 3.181c-0.1 0.103-0.24 0.163-0.39 0.165l-3.28 0.051c-0.11 2e-3 -0.16-0.128-0.08-0.205l3.22-3.221c0.11-0.107 0.25-0.166 0.4-0.166 0.65 4e-3 2.49 0.013 3.23-9e-3 0.1-3e-3 0.16 0.127 0.08 0.204z" fill="#fff"/>
<path d="m1222.5 844.29-3.18 3.18c-0.1 0.104-0.16 0.243-0.16 0.387l-0.05 3.281c-0.01 0.108 0.12 0.159 0.2 0.082l3.22-3.222c0.11-0.106 0.17-0.25 0.17-0.398-0.01-0.649-0.01-2.49 0.01-3.227 0-0.108-0.13-0.161-0.21-0.083z" fill="#fff"/>
<path d="m1213.2 834.39-5.31-5.303-0.18 0.188 1.81 3.195-1.31 1.314-0.13-0.125-2.19-3.946 2.69-2.693 5.99 5.992 1.82-1.816 1.32 1.315-5.26 5.261-1.32-1.315 2.07-2.067z" fill="#fff"/>
<path d="m1234.1 855.84c-0.25-0.253-0.38-0.566-0.38-0.938 0-0.371 0.13-0.685 0.38-0.937 0.25-0.254 0.57-0.379 0.94-0.38 0.37 0 0.68 0.128 0.93 0.38 0.26 0.253 0.39 0.566 0.38 0.937 0 0.372-0.12 0.684-0.38 0.938-0.25 0.252-0.56 0.38-0.93 0.38s-0.69-0.127-0.94-0.38zm3.66 1.786c0.27-0.269 0.45-0.534 0.54-0.798s0.12-0.531 0.08-0.798c-0.05-0.269-0.16-0.533-0.33-0.793s-0.39-0.52-0.65-0.781l-1.92-1.919c-0.24-0.246-0.5-0.451-0.77-0.614-0.26-0.164-0.53-0.269-0.8-0.313-0.27-0.045-0.54-0.024-0.81 0.062-0.27 0.085-0.53 0.254-0.79 0.508-0.25 0.252-0.42 0.515-0.5 0.787-0.09 0.271-0.11 0.54-0.07 0.808 0.05 0.268 0.15 0.536 0.32 0.804 0.16 0.268 0.37 0.524 0.61 0.769l1.92 1.921c0.26 0.26 0.52 0.477 0.78 0.646 0.26 0.172 0.53 0.28 0.8 0.324 0.26 0.046 0.53 0.022 0.79-0.072 0.27-0.093 0.53-0.274 0.8-0.541zm-6.47-0.715c-1.01-1.011-1.55-2.051-1.59-3.119-0.05-1.067 0.37-2.052 1.27-2.952 0.9-0.901 1.89-1.325 2.96-1.278 1.06 0.047 2.1 0.579 3.12 1.591l1.74 1.741c1.04 1.042 1.58 2.088 1.61 3.141s-0.4 2.03-1.3 2.93-1.88 1.333-2.93 1.3-2.1-0.571-3.14-1.612l-1.74-1.742z" fill="#fff"/>
<path d="m1179.6 860.43-7.52 6.435c-0.17 0.147-0.17 0.384 0 0.53l7.52 6.436c0.28 0.237 0.75 0.069 0.75-0.265v-3.186c0-0.206 0.2-0.374 0.44-0.374h7.7c0.25 0 0.44-0.168 0.44-0.375v-5.001c0-0.207-0.19-0.375-0.44-0.375h-7.7c-0.24 0-0.44-0.168-0.44-0.375v-3.186c0-0.334-0.47-0.501-0.75-0.264z" fill="#fff"/>
<path d="m1213.1 867.32h-5.01c-0.16 0-0.32 0.063-0.43 0.175l-2.63 2.545c-0.09 0.083-0.02 0.225 0.1 0.225h5.07c0.17 0 0.33-0.065 0.45-0.183 0.51-0.515 1.95-1.972 2.55-2.535 0.08-0.083 0.02-0.227-0.1-0.227z" fill="#fff"/>
<path d="m1213.1 866.93h-5.01c-0.16 0-0.32-0.064-0.43-0.175l-2.63-2.545c-0.09-0.083-0.02-0.226 0.1-0.226h5.07c0.17 0 0.33 0.066 0.45 0.184 0.51 0.514 1.95 1.971 2.55 2.535 0.08 0.083 0.02 0.227-0.1 0.227z" fill="#fff"/>
<path d="m1213.8 866.93h5.01c0.16 0 0.32-0.064 0.43-0.175l2.63-2.545c0.09-0.083 0.02-0.226-0.1-0.226h-5.07c-0.17 0-0.33 0.066-0.45 0.184-0.51 0.514-1.95 1.971-2.55 2.535-0.09 0.083-0.02 0.227 0.1 0.227z" fill="#fff"/>
<path d="m1213.8 867.32h5.01c0.16 0 0.32 0.063 0.43 0.175l2.63 2.545c0.09 0.083 0.02 0.225-0.1 0.225h-5.07c-0.17 0-0.33-0.065-0.45-0.183-0.51-0.515-1.95-1.972-2.55-2.535-0.09-0.083-0.02-0.227 0.1-0.227z" fill="#fff"/>
<path d="m1213.3 866.02v-4.497c0-0.147-0.06-0.287-0.16-0.391l-2.28-2.356c-0.08-0.077-0.21-0.023-0.21 0.086v4.557c0 0.151 0.06 0.294 0.17 0.398 0.46 0.456 1.77 1.752 2.27 2.289 0.08 0.078 0.21 0.024 0.21-0.086z" fill="#fff"/>
<path d="m1213.6 866.02v-4.497c0-0.147 0.06-0.287 0.16-0.391l2.28-2.356c0.07-0.077 0.2-0.023 0.2 0.086v4.557c0 0.151-0.06 0.294-0.16 0.398-0.46 0.456-1.77 1.752-2.28 2.289-0.07 0.078-0.2 0.024-0.2-0.086z" fill="#fff"/>
<path d="m1213.3 868.24v4.497c0 0.147-0.06 0.287-0.16 0.39l-2.28 2.357c-0.08 0.077-0.21 0.022-0.21-0.087v-4.556c0-0.151 0.06-0.294 0.17-0.398 0.46-0.457 1.77-1.753 2.27-2.289 0.08-0.079 0.21-0.024 0.21 0.086z" fill="#fff"/>
<path d="m1213.6 868.24v4.497c0 0.147 0.06 0.287 0.16 0.39l2.28 2.357c0.07 0.077 0.2 0.022 0.2-0.087v-4.556c0-0.151-0.06-0.294-0.16-0.398-0.46-0.457-1.77-1.753-2.28-2.289-0.07-0.079-0.2-0.024-0.2 0.086z" fill="#fff"/>
<path d="m1200 867.87h-7.5v0.265l3.55 0.974v1.86h-0.18l-4.34-1.239v-3.808h8.47v-2.569h1.86v7.439h-1.86v-2.922z" fill="#fff"/>
<path d="m1230 868.25c-0.35 0-0.66-0.13-0.93-0.394-0.26-0.263-0.39-0.574-0.39-0.931 0-0.359 0.13-0.668 0.39-0.931 0.27-0.263 0.58-0.395 0.93-0.395 0.36 0 0.67 0.132 0.94 0.395 0.26 0.263 0.39 0.572 0.39 0.931 0 0.357-0.13 0.668-0.39 0.931-0.27 0.264-0.58 0.394-0.94 0.394zm3.86-1.325c0-0.379-0.06-0.695-0.19-0.947-0.12-0.253-0.29-0.458-0.51-0.617-0.22-0.158-0.48-0.268-0.79-0.331-0.3-0.062-0.64-0.094-1.01-0.094h-2.71c-0.35 0-0.68 0.037-0.98 0.111-0.31 0.073-0.57 0.189-0.79 0.347s-0.4 0.363-0.53 0.615c-0.13 0.253-0.2 0.557-0.2 0.916 0 0.357 0.07 0.662 0.2 0.915 0.13 0.252 0.31 0.458 0.53 0.616s0.48 0.274 0.79 0.347c0.3 0.074 0.63 0.11 0.98 0.11h2.71c0.37 0 0.71-0.03 1.01-0.095 0.31-0.063 0.57-0.173 0.79-0.331 0.22-0.157 0.39-0.362 0.51-0.615 0.13-0.252 0.19-0.568 0.19-0.947zm-5.09 4.072c-1.43 0-2.54-0.36-3.33-1.082-0.79-0.721-1.18-1.717-1.18-2.99s0.39-2.27 1.18-2.991 1.9-1.081 3.33-1.081h2.47c1.47 0 2.59 0.36 3.36 1.081s1.15 1.718 1.15 2.991-0.38 2.269-1.15 2.99c-0.77 0.722-1.89 1.082-3.36 1.082h-2.47z" fill="#fff"/>
<path d="m1194.7 909.98-0.77 9.871c-0.02 0.225 0.15 0.393 0.38 0.375l9.87-0.769c0.36-0.028 0.58-0.48 0.34-0.716l-2.25-2.253c-0.15-0.147-0.13-0.403 0.04-0.574l5.45-5.449c0.17-0.172 0.19-0.429 0.05-0.576l-3.54-3.535c-0.15-0.147-0.4-0.127-0.58 0.044l-5.44 5.449c-0.18 0.171-0.43 0.191-0.58 0.044l-2.25-2.252c-0.24-0.236-0.69-0.021-0.72 0.341z" fill="#fff"/>
<path d="m1223.3 891.18-3.55 3.543c-0.11 0.115-0.18 0.271-0.18 0.431l-0.06 3.656c0 0.12 0.14 0.177 0.23 0.091l3.59-3.589c0.12-0.119 0.18-0.278 0.18-0.443 0-0.724-0.01-2.776 0.01-3.597 0.01-0.12-0.14-0.179-0.22-0.092z" fill="#fff"/>
<path d="m1223 890.91-3.55 3.542c-0.11 0.116-0.27 0.182-0.43 0.185l-3.65 0.057c-0.12 2e-3 -0.18-0.142-0.1-0.228l3.59-3.59c0.12-0.118 0.28-0.185 0.45-0.184 0.72 5e-3 2.77 0.014 3.59-0.01 0.12-3e-3 0.18 0.141 0.1 0.228z" fill="#fff"/>
<path d="m1223.5 890.4 3.54-3.543c0.12-0.115 0.18-0.27 0.19-0.431l0.05-3.656c0.01-0.12-0.14-0.177-0.22-0.091l-3.59 3.59c-0.12 0.118-0.19 0.277-0.19 0.443 0.01 0.724 0.02 2.775-0.01 3.596 0 0.12 0.14 0.179 0.23 0.092z" fill="#fff"/>
<path d="m1223.8 890.66 3.54-3.543c0.12-0.116 0.27-0.182 0.43-0.184l3.66-0.057c0.12-2e-3 0.18 0.141 0.09 0.227l-3.59 3.59c-0.12 0.118-0.28 0.185-0.44 0.185-0.72-5e-3 -2.78-0.014-3.6 0.01-0.12 3e-3 -0.18-0.141-0.09-0.228z" fill="#fff"/>
<path d="m1222.5 890.13-3.18-3.18c-0.1-0.104-0.24-0.163-0.38-0.166l-3.29-0.05c-0.1-2e-3 -0.15 0.127-0.08 0.204l3.22 3.222c0.11 0.106 0.25 0.166 0.4 0.165 0.65-3e-3 2.49-0.012 3.23 9e-3 0.11 3e-3 0.16-0.126 0.08-0.204z" fill="#fff"/>
<path d="m1222.7 889.89-3.19-3.179c-0.1-0.104-0.16-0.244-0.16-0.387l-0.05-3.282c0-0.107 0.13-0.159 0.2-0.082l3.22 3.222c0.11 0.106 0.17 0.25 0.17 0.398 0 0.649-0.01 2.491 0.01 3.228 0 0.107-0.13 0.16-0.2 0.082z" fill="#fff"/>
<path d="m1224 891.7 3.18 3.18c0.1 0.103 0.16 0.243 0.17 0.387l0.05 3.281c0 0.107-0.13 0.159-0.21 0.082l-3.22-3.222c-0.11-0.107-0.17-0.25-0.16-0.398 0-0.649 0.01-2.491-0.01-3.227-0.01-0.109 0.12-0.161 0.2-0.083z" fill="#fff"/>
<path d="m1224.3 891.46 3.18 3.18c0.11 0.105 0.25 0.163 0.39 0.166l3.28 0.051c0.11 1e-3 0.16-0.128 0.08-0.205l-3.22-3.221c-0.1-0.107-0.25-0.166-0.4-0.165-0.65 3e-3 -2.49 0.012-3.22-0.01-0.11-3e-3 -0.16 0.127-0.09 0.204z" fill="#fff"/>
<path d="m1214.4 900.84-5.3 5.303 0.19 0.187 3.19-1.816 1.32 1.314-0.13 0.126-3.95 2.193-2.69-2.693 5.99-5.991-1.81-1.817 1.31-1.314 5.26 5.26-1.31 1.315-2.07-2.067z" fill="#fff"/>
<path d="m1235.8 879.93c-0.25 0.253-0.57 0.38-0.94 0.38-0.37-1e-3 -0.68-0.127-0.94-0.38-0.25-0.253-0.37-0.566-0.38-0.937 0-0.373 0.13-0.685 0.38-0.938 0.26-0.253 0.57-0.38 0.94-0.379 0.37 0 0.69 0.126 0.94 0.379s0.38 0.565 0.38 0.938c0 0.371-0.13 0.684-0.38 0.937zm1.78-3.66c-0.26-0.268-0.53-0.449-0.79-0.542-0.27-0.093-0.53-0.117-0.8-0.073s-0.53 0.152-0.79 0.324c-0.26 0.171-0.52 0.387-0.78 0.648l-1.92 1.919c-0.25 0.246-0.45 0.502-0.62 0.77-0.16 0.268-0.27 0.536-0.31 0.804s-0.02 0.538 0.06 0.809c0.09 0.272 0.26 0.534 0.51 0.787 0.25 0.252 0.51 0.422 0.79 0.508 0.27 0.085 0.54 0.106 0.8 0.062 0.27-0.046 0.54-0.15 0.81-0.315 0.27-0.162 0.52-0.367 0.77-0.612l1.92-1.92c0.26-0.261 0.48-0.521 0.64-0.782 0.18-0.26 0.28-0.524 0.33-0.793 0.04-0.266 0.02-0.532-0.07-0.797-0.1-0.263-0.28-0.53-0.55-0.797zm-0.71 6.472c-1.01 1.012-2.05 1.543-3.12 1.59-1.07 0.049-2.05-0.376-2.95-1.276-0.9-0.901-1.33-1.885-1.28-2.954 0.05-1.067 0.58-2.106 1.59-3.118l1.74-1.741c1.05-1.042 2.09-1.58 3.14-1.614 1.06-0.032 2.03 0.401 2.93 1.301s1.34 1.876 1.3 2.929c-0.03 1.054-0.57 2.1-1.61 3.141l-1.74 1.742z" fill="#fff"/>
<path d="m1240.4 934.35 6.43 7.524c0.15 0.171 0.39 0.171 0.54 0l6.43-7.524c0.24-0.276 0.07-0.748-0.26-0.748h-3.19c-0.21 0-0.37-0.196-0.37-0.438v-7.705c0-0.243-0.17-0.438-0.38-0.438h-5c-0.21 0-0.37 0.195-0.37 0.438v7.705c0 0.242-0.17 0.438-0.38 0.438h-3.19c-0.33 0-0.5 0.472-0.26 0.748z" fill="#fff"/>
<path d="m1247.3 900.88v5.011c0 0.163 0.07 0.32 0.18 0.434l2.54 2.626c0.09 0.086 0.23 0.025 0.23-0.096v-5.077c0-0.167-0.07-0.328-0.18-0.444-0.52-0.508-1.98-1.951-2.54-2.55-0.08-0.088-0.23-0.027-0.23 0.096z" fill="#fff"/>
<path d="m1246.9 900.88v5.011c0 0.163-0.06 0.32-0.17 0.434l-2.55 2.626c-0.08 0.086-0.22 0.025-0.22-0.096v-5.077c0-0.167 0.06-0.328 0.18-0.444 0.51-0.508 1.97-1.951 2.54-2.55 0.08-0.088 0.22-0.027 0.22 0.096z" fill="#fff"/>
<path d="m1246.9 900.15v-5.01c0-0.164-0.06-0.32-0.17-0.436l-2.55-2.625c-0.08-0.086-0.22-0.025-0.22 0.097v5.076c0 0.168 0.06 0.327 0.18 0.443 0.51 0.509 1.97 1.953 2.54 2.55 0.08 0.088 0.22 0.027 0.22-0.095z" fill="#fff"/>
<path d="m1247.3 900.15v-5.01c0-0.164 0.07-0.32 0.18-0.436l2.54-2.625c0.09-0.086 0.23-0.025 0.23 0.097v5.076c0 0.168-0.07 0.327-0.18 0.443-0.52 0.509-1.98 1.953-2.54 2.55-0.08 0.088-0.23 0.027-0.23-0.095z" fill="#fff"/>
<path d="m1246 900.69h-4.5c-0.14 0-0.28 0.057-0.39 0.158l-2.35 2.284c-0.08 0.075-0.03 0.202 0.08 0.202h4.56c0.15 0 0.29-0.059 0.4-0.164 0.45-0.462 1.75-1.77 2.29-2.275 0.08-0.074 0.02-0.205-0.09-0.205z" fill="#fff"/>
<path d="m1246 900.35h-4.5c-0.14 0-0.28-0.057-0.39-0.157l-2.35-2.284c-0.08-0.075-0.03-0.202 0.08-0.202h4.56c0.15 0 0.29 0.059 0.4 0.164 0.45 0.462 1.75 1.77 2.29 2.276 0.08 0.074 0.02 0.203-0.09 0.203z" fill="#fff"/>
<path d="m1248.2 900.69h4.5c0.14 0 0.28 0.057 0.39 0.158l2.35 2.284c0.08 0.075 0.03 0.202-0.08 0.202h-4.56c-0.15 0-0.29-0.059-0.4-0.164-0.46-0.462-1.75-1.77-2.29-2.275-0.08-0.074-0.02-0.205 0.09-0.205z" fill="#fff"/>
<path d="m1248.2 900.35h4.5c0.14 0 0.28-0.057 0.39-0.157l2.35-2.284c0.08-0.075 0.03-0.202-0.08-0.202h-4.56c-0.15 0-0.29 0.059-0.4 0.164-0.46 0.462-1.75 1.77-2.29 2.276-0.08 0.074-0.02 0.203 0.09 0.203z" fill="#fff"/>
<path d="m1247.9 913.99v7.499h0.27l0.97-3.543h1.86v0.177l-1.24 4.34h-3.81v-8.473h-2.56v-1.86h7.44v1.86h-2.93z" fill="#fff"/>
<path d="m1248.2 884.04c0 0.356-0.13 0.668-0.39 0.932-0.27 0.262-0.58 0.393-0.93 0.393-0.36 0-0.67-0.131-0.94-0.393-0.26-0.264-0.39-0.576-0.39-0.932 0-0.359 0.13-0.669 0.39-0.931 0.27-0.263 0.58-0.394 0.94-0.394 0.35 0 0.66 0.131 0.93 0.394 0.26 0.262 0.39 0.572 0.39 0.931zm-1.32-3.851c-0.38 0-0.7 0.06-0.95 0.181-0.25 0.12-0.46 0.291-0.62 0.512s-0.27 0.484-0.33 0.791c-0.06 0.304-0.09 0.64-0.09 1.009v2.716c0 0.346 0.03 0.672 0.11 0.977 0.07 0.305 0.19 0.569 0.34 0.79 0.16 0.221 0.37 0.397 0.62 0.528 0.25 0.132 0.56 0.198 0.92 0.198 0.35 0 0.66-0.066 0.91-0.198 0.25-0.131 0.46-0.307 0.62-0.528 0.15-0.221 0.27-0.485 0.34-0.79 0.08-0.305 0.11-0.631 0.11-0.977v-2.716c0-0.369-0.03-0.705-0.09-1.009-0.06-0.307-0.17-0.57-0.33-0.791s-0.36-0.392-0.62-0.512c-0.25-0.121-0.57-0.181-0.94-0.181zm4.07 5.081c0 1.431-0.36 2.542-1.08 3.331-0.72 0.788-1.72 1.184-2.99 1.184-1.28 0-2.27-0.396-3-1.184-0.72-0.789-1.08-1.9-1.08-3.331v-2.462c0-1.473 0.36-2.594 1.08-3.362 0.73-0.768 1.72-1.152 3-1.152 1.27 0 2.27 0.384 2.99 1.152s1.08 1.889 1.08 3.362v2.462z" fill="#fff"/>
<path d="m1290 919.27 9.87 0.77c0.22 0.017 0.39-0.151 0.37-0.376l-0.77-9.87c-0.03-0.362-0.48-0.578-0.71-0.342l-2.26 2.253c-0.14 0.145-0.4 0.126-0.57-0.045l-5.45-5.449c-0.17-0.171-0.43-0.191-0.57-0.045l-3.54 3.536c-0.15 0.147-0.13 0.405 0.04 0.575l5.45 5.449c0.17 0.171 0.19 0.429 0.05 0.575l-2.26 2.253c-0.23 0.236-0.02 0.688 0.35 0.716z" fill="#fff"/>
<path d="m1271.2 890.74 3.54 3.544c0.12 0.115 0.27 0.181 0.43 0.184l3.66 0.057c0.12 1e-3 0.18-0.143 0.09-0.228l-3.59-3.589c-0.12-0.119-0.28-0.186-0.44-0.185-0.73 4e-3 -2.78 0.014-3.6-0.01-0.12-4e-3 -0.18 0.141-0.09 0.227z" fill="#fff"/>
<path d="m1270.9 891.01 3.54 3.543c0.12 0.116 0.18 0.271 0.19 0.431l0.05 3.656c0.01 0.119-0.14 0.177-0.22 0.091l-3.59-3.59c-0.12-0.118-0.19-0.278-0.19-0.443 0.01-0.723 0.02-2.774-0.01-3.596 0-0.12 0.14-0.178 0.23-0.092z" fill="#fff"/>
<path d="m1270.4 890.49-3.54-3.543c-0.11-0.116-0.27-0.182-0.43-0.184l-3.66-0.057c-0.12-2e-3 -0.17 0.142-0.09 0.228l3.59 3.589c0.12 0.119 0.28 0.185 0.45 0.184 0.72-4e-3 2.77-0.013 3.59 0.011 0.12 4e-3 0.18-0.142 0.09-0.228z" fill="#fff"/>
<path d="m1270.7 890.22-3.55-3.544c-0.11-0.114-0.18-0.27-0.18-0.43l-0.06-3.656c0-0.119 0.14-0.177 0.23-0.091l3.59 3.589c0.12 0.119 0.18 0.279 0.18 0.444 0 0.723-0.01 2.774 0.01 3.596 0.01 0.12-0.14 0.179-0.22 0.092z" fill="#fff"/>
<path d="m1270.1 891.52-3.18 3.18c-0.1 0.104-0.16 0.243-0.16 0.388l-0.05 3.28c-0.01 0.108 0.12 0.16 0.2 0.083l3.22-3.222c0.11-0.107 0.17-0.25 0.17-0.398-0.01-0.649-0.01-2.491 0.01-3.227 0-0.109-0.13-0.161-0.21-0.084z" fill="#fff"/>
<path d="m1269.9 891.28-3.18 3.18c-0.1 0.103-0.24 0.163-0.39 0.165l-3.28 0.052c-0.1 1e-3 -0.16-0.128-0.08-0.205l3.22-3.222c0.11-0.106 0.25-0.166 0.4-0.165 0.65 4e-3 2.49 0.013 3.23-9e-3 0.11-3e-3 0.16 0.126 0.08 0.204z" fill="#fff"/>
<path d="m1271.7 889.95 3.18-3.18c0.1-0.104 0.24-0.163 0.39-0.166l3.28-0.051c0.11-2e-3 0.16 0.127 0.08 0.204l-3.22 3.223c-0.11 0.106-0.25 0.166-0.4 0.165-0.65-4e-3 -2.49-0.013-3.23 9e-3 -0.1 3e-3 -0.16-0.127-0.08-0.204z" fill="#fff"/>
<path d="m1271.5 889.71 3.18-3.18c0.1-0.103 0.16-0.242 0.16-0.387l0.05-3.281c0.01-0.107-0.12-0.159-0.2-0.082l-3.22 3.222c-0.11 0.106-0.17 0.249-0.17 0.398 0.01 0.649 0.02 2.49-0.01 3.227 0 0.108 0.13 0.161 0.21 0.083z" fill="#fff"/>
<path d="m1280.8 899.61 5.31 5.304 0.18-0.188-1.81-3.195 1.31-1.314 0.13 0.125 2.19 3.945-2.69 2.693-5.99-5.992-1.82 1.816-1.32-1.314 5.26-5.26 1.32 1.314-2.07 2.066z" fill="#fff"/>
<path d="m1259.9 878.16c0.25 0.253 0.38 0.566 0.38 0.938 0 0.371-0.13 0.684-0.38 0.937-0.25 0.254-0.56 0.378-0.94 0.38-0.37 0-0.68-0.128-0.93-0.38-0.26-0.253-0.38-0.566-0.38-0.937 0-0.372 0.12-0.684 0.38-0.938 0.25-0.252 0.56-0.379 0.93-0.379 0.38-1e-3 0.69 0.125 0.94 0.379zm-3.66-1.785c-0.27 0.267-0.45 0.533-0.54 0.797-0.09 0.265-0.12 0.531-0.07 0.798 0.04 0.269 0.15 0.533 0.32 0.793s0.39 0.52 0.65 0.78l1.92 1.92c0.24 0.246 0.5 0.451 0.77 0.613 0.26 0.165 0.53 0.27 0.8 0.314 0.27 0.045 0.54 0.024 0.81-0.062 0.27-0.085 0.53-0.254 0.79-0.507 0.25-0.253 0.42-0.516 0.51-0.788 0.08-0.271 0.1-0.54 0.06-0.808-0.05-0.268-0.15-0.536-0.32-0.804-0.16-0.268-0.36-0.524-0.61-0.769l-1.92-1.92c-0.26-0.261-0.52-0.477-0.78-0.647-0.26-0.172-0.53-0.279-0.79-0.324-0.27-0.046-0.54-0.022-0.8 0.072-0.26 0.093-0.53 0.273-0.8 0.542zm6.47 0.714c1.01 1.011 1.55 2.051 1.59 3.119 0.05 1.068-0.37 2.052-1.27 2.953-0.9 0.9-1.89 1.325-2.96 1.277-1.06-0.048-2.1-0.579-3.12-1.592l-1.74-1.74c-1.04-1.042-1.58-2.088-1.61-3.141-0.03-1.054 0.4-2.03 1.3-2.93s1.88-1.334 2.93-1.3c1.05 0.033 2.1 0.571 3.14 1.612l1.74 1.742z" fill="#fff"/>
<path d="m1314.4 873.57 7.52-6.436c0.17-0.147 0.17-0.384 0-0.531l-7.52-6.436c-0.28-0.236-0.75-0.069-0.75 0.265v3.186c0 0.207-0.2 0.375-0.44 0.375h-7.7c-0.25 0-0.44 0.168-0.44 0.375v5c0 0.208 0.19 0.376 0.44 0.376h7.7c0.24 0 0.44 0.167 0.44 0.375v3.185c0 0.334 0.47 0.501 0.75 0.266z" fill="#fff"/>
<path d="m1280.9 866.69h5.01c0.16 0 0.32-0.063 0.44-0.175l2.62-2.545c0.09-0.083 0.03-0.225-0.1-0.225h-5.07c-0.17 0-0.33 0.065-0.45 0.183-0.5 0.515-1.95 1.972-2.55 2.535-0.08 0.083-0.02 0.227 0.1 0.227z" fill="#fff"/>
<path d="m1280.9 867.07h5.01c0.16 0 0.32 0.063 0.44 0.174l2.62 2.546c0.09 0.083 0.03 0.225-0.1 0.225h-5.07c-0.17 0-0.33-0.065-0.45-0.183-0.5-0.515-1.95-1.972-2.55-2.535-0.08-0.083-0.02-0.227 0.1-0.227z" fill="#fff"/>
<path d="m1280.2 867.07h-5.01c-0.16 0-0.32 0.063-0.43 0.174l-2.63 2.546c-0.08 0.083-0.02 0.225 0.1 0.225h5.07c0.17 0 0.33-0.065 0.45-0.183 0.51-0.515 1.95-1.972 2.55-2.535 0.09-0.083 0.02-0.227-0.1-0.227z" fill="#fff"/>
<path d="m1280.2 866.69h-5.01c-0.16 0-0.32-0.063-0.43-0.175l-2.63-2.545c-0.08-0.083-0.02-0.225 0.1-0.225h5.07c0.17 0 0.33 0.065 0.45 0.183 0.51 0.515 1.95 1.972 2.55 2.535 0.09 0.083 0.02 0.227-0.1 0.227z" fill="#fff"/>
<path d="m1280.7 867.98v4.497c0 0.147 0.06 0.288 0.16 0.391l2.28 2.356c0.08 0.078 0.21 0.023 0.21-0.086v-4.557c0-0.151-0.06-0.294-0.17-0.398-0.46-0.456-1.77-1.752-2.27-2.289-0.08-0.078-0.21-0.024-0.21 0.086z" fill="#fff"/>
<path d="m1280.4 867.98v4.497c0 0.147-0.06 0.288-0.16 0.391l-2.28 2.356c-0.07 0.078-0.2 0.023-0.2-0.086v-4.557c0-0.151 0.06-0.294 0.16-0.398 0.46-0.456 1.77-1.752 2.28-2.289 0.07-0.078 0.2-0.024 0.2 0.086z" fill="#fff"/>
<path d="m1280.7 865.76v-4.497c0-0.147 0.06-0.288 0.16-0.391l2.28-2.357c0.08-0.077 0.21-0.022 0.21 0.087v4.556c0 0.151-0.06 0.295-0.17 0.399-0.46 0.456-1.77 1.752-2.27 2.288-0.08 0.079-0.21 0.024-0.21-0.085z" fill="#fff"/>
<path d="m1280.4 865.76v-4.497c0-0.147-0.06-0.288-0.16-0.391l-2.28-2.357c-0.07-0.077-0.2-0.022-0.2 0.087v4.556c0 0.151 0.06 0.295 0.16 0.399 0.46 0.456 1.77 1.752 2.28 2.288 0.07 0.079 0.2 0.024 0.2-0.085z" fill="#fff"/>
<path d="m1294 866.13h7.5v-0.266l-3.54-0.974v-1.859h0.17l4.34 1.239v3.809h-8.47v2.568h-1.86v-7.439h1.86v2.922z" fill="#fff"/>
<path d="m1264 865.75c0.35 0 0.66 0.13 0.93 0.394 0.26 0.263 0.39 0.574 0.39 0.931 0 0.359-0.13 0.668-0.39 0.931-0.27 0.263-0.58 0.395-0.93 0.395-0.36 0-0.67-0.132-0.94-0.395-0.26-0.263-0.39-0.572-0.39-0.931 0-0.357 0.13-0.668 0.39-0.931 0.27-0.264 0.58-0.394 0.94-0.394zm-3.85 1.325c0 0.379 0.06 0.695 0.18 0.947 0.12 0.253 0.29 0.458 0.51 0.616 0.22 0.159 0.48 0.269 0.79 0.332 0.3 0.063 0.64 0.094 1.01 0.094h2.71c0.35 0 0.68-0.037 0.98-0.111 0.31-0.073 0.57-0.189 0.79-0.346 0.22-0.158 0.4-0.364 0.53-0.616 0.13-0.253 0.2-0.557 0.2-0.916 0-0.357-0.07-0.662-0.2-0.915-0.13-0.252-0.31-0.458-0.53-0.616s-0.48-0.274-0.79-0.347c-0.3-0.075-0.63-0.11-0.98-0.11h-2.71c-0.37 0-0.71 0.03-1.01 0.095-0.31 0.063-0.57 0.173-0.79 0.331-0.22 0.157-0.39 0.362-0.51 0.615-0.12 0.252-0.18 0.568-0.18 0.947zm5.08-4.071c1.43 0 2.54 0.359 3.33 1.081 0.79 0.721 1.18 1.717 1.18 2.99s-0.39 2.27-1.18 2.992c-0.79 0.72-1.9 1.08-3.33 1.08h-2.47c-1.47 0-2.59-0.36-3.36-1.08-0.77-0.722-1.15-1.719-1.15-2.992s0.38-2.269 1.15-2.99c0.77-0.722 1.89-1.081 3.36-1.081h2.47z" fill="#fff"/>
<path d="m1299.3 824.03 0.77-9.872c0.02-0.224-0.15-0.392-0.38-0.374l-9.87 0.769c-0.36 0.028-0.58 0.481-0.34 0.716l2.25 2.253c0.15 0.146 0.13 0.404-0.04 0.575l-5.45 5.449c-0.17 0.171-0.19 0.428-0.04 0.575l3.53 3.535c0.15 0.147 0.41 0.127 0.58-0.044l5.45-5.449c0.17-0.171 0.42-0.191 0.57-0.044l2.25 2.252c0.24 0.236 0.69 0.021 0.72-0.341z" fill="#fff"/>
<path d="m1270.7 842.82 3.55-3.542c0.11-0.116 0.18-0.271 0.18-0.432l0.06-3.656c0-0.119-0.14-0.177-0.23-0.091l-3.59 3.59c-0.12 0.118-0.18 0.278-0.18 0.443 0 0.724 0.01 2.775-0.01 3.596-0.01 0.12 0.14 0.179 0.22 0.092z" fill="#fff"/>
<path d="m1271 843.09 3.54-3.544c0.11-0.114 0.27-0.181 0.43-0.184l3.65-0.057c0.12-2e-3 0.18 0.142 0.1 0.229l-3.59 3.589c-0.12 0.118-0.28 0.185-0.45 0.184-0.72-4e-3 -2.77-0.014-3.59 0.01-0.12 4e-3 -0.18-0.141-0.09-0.227z" fill="#fff"/>
<path d="m1270.5 843.61-3.54 3.543c-0.12 0.116-0.18 0.271-0.19 0.431l-0.05 3.656c-0.01 0.12 0.14 0.178 0.22 0.092l3.59-3.59c0.12-0.119 0.19-0.278 0.19-0.444-0.01-0.723-0.02-2.774 0.01-3.595 0-0.121-0.14-0.179-0.23-0.093z" fill="#fff"/>
<path d="m1270.2 843.34-3.54 3.543c-0.12 0.115-0.27 0.182-0.43 0.184l-3.66 0.057c-0.12 2e-3 -0.18-0.142-0.09-0.228l3.59-3.59c0.12-0.118 0.28-0.185 0.44-0.184 0.73 5e-3 2.78 0.014 3.6-0.01 0.12-3e-3 0.18 0.141 0.09 0.228z" fill="#fff"/>
<path d="m1271.5 843.87 3.18 3.18c0.1 0.104 0.24 0.163 0.38 0.166l3.29 0.051c0.1 1e-3 0.16-0.128 0.08-0.205l-3.22-3.222c-0.11-0.106-0.25-0.166-0.4-0.165-0.65 4e-3 -2.49 0.012-3.23-9e-3 -0.11-3e-3 -0.16 0.127-0.08 0.204z" fill="#fff"/>
<path d="m1271.3 844.11 3.18 3.18c0.1 0.103 0.16 0.242 0.16 0.387l0.05 3.281c0 0.107-0.13 0.159-0.2 0.082l-3.22-3.222c-0.11-0.106-0.17-0.25-0.17-0.398 0-0.649 0.01-2.49-0.01-3.228 0-0.108 0.13-0.16 0.21-0.082z" fill="#fff"/>
<path d="m1270 842.3-3.18-3.18c-0.1-0.103-0.16-0.242-0.16-0.387l-0.06-3.281c0-0.107 0.13-0.159 0.21-0.082l3.22 3.222c0.11 0.106 0.17 0.25 0.17 0.398-0.01 0.649-0.02 2.49 0 3.227 0.01 0.109-0.12 0.161-0.2 0.083z" fill="#fff"/>
<path d="m1269.7 842.54-3.18-3.18c-0.11-0.104-0.25-0.163-0.39-0.165l-3.28-0.052c-0.11-1e-3 -0.16 0.128-0.08 0.205l3.22 3.222c0.11 0.106 0.25 0.166 0.4 0.165 0.65-4e-3 2.49-0.012 3.22 9e-3 0.11 3e-3 0.17-0.127 0.09-0.204z" fill="#fff"/>
<path d="m1279.6 833.16 5.3-5.303-0.19-0.188-3.19 1.817-1.32-1.315 0.13-0.125 3.95-2.193 2.69 2.693-5.99 5.992 1.81 1.816-1.31 1.315-5.26-5.261 1.31-1.315 2.07 2.067z" fill="#fff"/>
<path d="m1258.2 854.07c0.25-0.253 0.57-0.38 0.94-0.38 0.37 1e-3 0.68 0.127 0.94 0.38 0.25 0.253 0.38 0.566 0.38 0.937 0 0.372-0.13 0.685-0.38 0.938-0.26 0.253-0.57 0.38-0.94 0.379-0.37 0-0.69-0.126-0.94-0.379s-0.38-0.566-0.38-0.938c0-0.371 0.13-0.684 0.38-0.937zm-1.78 3.66c0.26 0.269 0.53 0.449 0.79 0.541 0.27 0.094 0.53 0.118 0.8 0.074s0.53-0.153 0.79-0.324 0.52-0.387 0.78-0.648l1.93-1.92c0.24-0.245 0.45-0.501 0.61-0.769s0.27-0.536 0.31-0.804c0.05-0.268 0.03-0.538-0.06-0.808-0.09-0.273-0.25-0.534-0.51-0.788-0.25-0.252-0.51-0.423-0.79-0.507-0.27-0.086-0.54-0.107-0.8-0.062-0.27 0.045-0.54 0.149-0.81 0.313-0.27 0.162-0.52 0.368-0.77 0.613l-1.92 1.92c-0.26 0.261-0.47 0.521-0.64 0.781-0.18 0.261-0.28 0.525-0.33 0.793-0.04 0.267-0.02 0.533 0.08 0.798 0.09 0.263 0.27 0.53 0.54 0.797zm0.71-6.472c1.01-1.012 2.05-1.543 3.12-1.591 1.07-0.047 2.05 0.377 2.95 1.277 0.9 0.901 1.33 1.885 1.28 2.953-0.05 1.067-0.58 2.108-1.59 3.119l-1.74 1.741c-1.04 1.042-2.09 1.58-3.14 1.613-1.06 0.033-2.03-0.4-2.93-1.3s-1.34-1.876-1.3-2.929c0.03-1.054 0.57-2.1 1.61-3.142l1.74-1.741z" fill="#fff"/>
</g>
<defs>
<clipPath id="a">
<rect width="1350" height="970" fill="#fff"/>
</clipPath>
</defs>
</svg>
