<svg width="1920" height="1080" viewBox="0 0 1920 1080" fill="none" xmlns="http://www.w3.org/2000/svg">
<path fill-rule="evenodd" clip-rule="evenodd" d="M1920 0H0V1080H1920V0ZM16 32C16 23.1634 23.1634 16 32 16H1488C1496.84 16 1504 23.1634 1504 32V984C1504 992.837 1496.84 1000 1488 1000H32C23.1634 1000 16 992.837 16 984V32ZM1520 32C1520 23.1634 1527.16 16 1536 16H1888C1896.84 16 1904 23.1634 1904 32V216C1904 224.837 1896.84 232 1888 232H1536C1527.16 232 1520 224.837 1520 216V32Z" fill="#1F1F1F"/>
</svg>
