<svg width="1920" height="1080" viewBox="0 0 1920 1080" fill="none" xmlns="http://www.w3.org/2000/svg">
<rect x="1520" y="16" width="384" height="216" rx="10" fill="white"/>
<g clip-path="url(#clip0_5557_14754)">
<path d="M1576.76 146.669C1576.38 146.597 1575.98 146.61 1575.61 146.708C1575.23 146.805 1574.88 146.985 1574.58 147.234C1574.28 147.484 1574.03 147.796 1573.87 148.149C1573.7 148.502 1573.62 148.888 1573.62 149.278C1573.62 149.668 1573.7 150.054 1573.87 150.407C1574.03 150.76 1574.28 151.072 1574.58 151.321C1574.88 151.571 1575.23 151.75 1575.61 151.848C1575.98 151.946 1576.38 151.959 1576.76 151.887C1577.15 151.96 1577.54 151.946 1577.92 151.849C1578.3 151.751 1578.65 151.571 1578.95 151.322C1579.25 151.073 1579.49 150.76 1579.66 150.407C1579.82 150.054 1579.91 149.668 1579.91 149.278C1579.91 148.888 1579.82 148.502 1579.66 148.149C1579.49 147.796 1579.25 147.483 1578.95 147.234C1578.65 146.985 1578.3 146.805 1577.92 146.707C1577.54 146.61 1577.15 146.596 1576.76 146.669ZM1576.76 150.883C1575.58 150.883 1574.62 150.162 1574.62 149.278C1574.62 148.394 1575.58 147.671 1576.76 147.671C1577.94 147.671 1578.9 148.392 1578.9 149.278C1578.9 150.164 1577.94 150.883 1576.76 150.883Z" fill="#4C83C3"/>
<path d="M1572.48 151.245C1572.37 150.621 1572.02 150.066 1571.5 149.7C1570.98 149.335 1570.34 149.189 1569.71 149.293C1569.08 149.316 1568.48 149.589 1568.05 150.051C1567.61 150.513 1567.38 151.127 1567.4 151.761C1567.45 152.061 1567.57 152.347 1567.74 152.6C1567.92 152.853 1568.14 153.069 1568.39 153.234C1568.65 153.399 1568.94 153.511 1569.24 153.562C1569.54 153.613 1569.85 153.603 1570.15 153.532C1571.62 153.383 1572.6 152.42 1572.48 151.245ZM1570.05 152.627C1569.28 152.706 1568.41 152.438 1568.33 151.667C1568.37 151.29 1568.54 150.939 1568.81 150.671C1569.08 150.404 1569.43 150.237 1569.81 150.198C1570.18 150.16 1570.56 150.252 1570.88 150.46C1571.2 150.667 1571.43 150.978 1571.55 151.339C1571.63 152.113 1570.83 152.549 1570.05 152.627Z" fill="#4C83C3"/>
<path d="M1563.33 151.249C1561.95 151.249 1561.09 151.899 1561.09 152.944C1561.09 153.989 1561.95 154.638 1563.33 154.638C1564.71 154.638 1565.56 153.99 1565.56 152.944C1565.56 151.897 1564.71 151.249 1563.33 151.249ZM1563.33 153.739C1562.71 153.739 1561.97 153.603 1561.97 152.944C1561.97 152.288 1562.71 152.15 1563.33 152.15C1563.95 152.15 1564.69 152.288 1564.69 152.944C1564.69 153.603 1563.95 153.739 1563.33 153.739Z" fill="#4C83C3"/>
<path d="M1596.03 132.297C1595.88 131.317 1595.5 130.386 1594.92 129.579C1594.34 128.773 1593.58 128.114 1592.7 127.655C1592.67 127.636 1592.65 127.618 1592.62 127.598L1592.61 127.589L1592.5 127.521V129.023C1592.55 129.053 1592.62 129.105 1592.7 129.159C1593.24 129.507 1593.7 129.96 1594.06 130.492C1594.42 131.025 1594.66 131.624 1594.78 132.255C1594.78 133.033 1594.58 133.799 1594.22 134.488C1593.86 135.177 1593.34 135.769 1592.7 136.215C1592.68 136.233 1592.67 136.25 1592.65 136.266L1592.5 136.394L1592.4 136.48L1592.5 136.519L1592.7 136.598L1592.7 136.599C1592.72 136.609 1594.9 137.528 1593.87 140.749C1593.31 142.285 1592.27 143.601 1590.91 144.502C1589.55 145.402 1587.93 145.839 1586.3 145.748H1586.25C1583.19 145.664 1580.21 144.771 1577.61 143.158L1577.48 143.084L1577.37 143.195C1576.01 144.583 1574.2 145.438 1572.26 145.604C1572.23 145.612 1569.85 145.786 1568.3 142.663L1568.22 142.506L1568.06 142.563C1568.04 142.569 1566.25 143.161 1565.3 142.266C1565.24 142.206 1565.18 142.141 1565.12 142.071H1564.86V142.068H1563.94V142.071H1563.74L1563.75 142.121L1563.78 142.188C1563.79 142.212 1563.8 142.235 1563.81 142.266C1564.01 142.745 1564.86 144.268 1567.58 143.925C1568.07 144.752 1568.74 145.446 1569.56 145.946C1570.38 146.445 1571.3 146.733 1572.26 146.785H1572.26C1574.27 146.75 1576.19 145.966 1577.65 144.586C1580.21 145.939 1583.03 146.746 1585.92 146.955C1586.24 146.955 1586.55 146.937 1586.87 146.902C1588.57 146.859 1590.21 146.338 1591.62 145.398C1593.03 144.458 1594.15 143.138 1594.84 141.591C1595.25 140.752 1595.41 139.815 1595.3 138.889C1595.19 137.963 1594.82 137.088 1594.22 136.368C1594.79 135.852 1595.24 135.223 1595.56 134.522C1595.87 133.822 1596.03 133.064 1596.03 132.297Z" fill="#4C83C3"/>
<path d="M1557.25 152.5C1555.78 152.5 1555.5 153.346 1555.5 153.75C1555.5 154.154 1555.78 155 1557.25 155C1558.36 155 1559 154.563 1559 153.75C1559 152.937 1558.36 152.5 1557.25 152.5ZM1557.25 154.196C1556.43 154.196 1556.3 153.924 1556.3 153.75C1556.3 153.576 1556.43 153.304 1557.25 153.304C1557.35 153.304 1558.25 153.304 1558.25 153.75C1558.25 154.196 1557.35 154.196 1557.25 154.196Z" fill="#4C83C3"/>
<path d="M1592.38 129.062L1592.23 128.976C1590.14 127.072 1587.48 125.919 1584.67 125.697C1584.26 125.697 1583.86 125.733 1583.46 125.805C1582.61 125.97 1581.8 126.303 1581.08 126.782C1580.35 127.262 1579.74 127.88 1579.25 128.6L1578.8 129.363L1578.67 128.487C1578.32 126.203 1577.17 126.051 1577.15 126.048C1577.07 126.032 1576.98 126.023 1576.9 126.024C1575.65 126.024 1573.99 127.684 1573.97 127.702L1573.59 128.096L1573.44 127.563C1572.56 124.292 1570.35 124.224 1570.27 124.222C1568.72 124.22 1567.23 124.802 1566.1 125.85C1565.68 126.387 1565.47 127.064 1565.52 127.745C1565.58 128.427 1565.89 129.063 1566.39 129.527L1566.7 129.856L1566.28 130.037C1562.08 131.862 1562.32 133.405 1562.33 133.431C1562.47 134.54 1564.92 135.665 1566.43 136.111L1566.86 136.242L1566.59 136.604C1564.18 139.891 1564.9 141.518 1565.07 141.809L1565.12 141.951H1587.3C1588.65 141.947 1589.95 141.407 1590.9 140.451C1591.85 139.495 1592.39 138.2 1592.38 136.85V129.062Z" fill="#4C83C3"/>
<path d="M1587.31 112.655H1560.58C1559.23 112.657 1557.94 113.194 1556.99 114.147C1556.04 115.101 1555.5 116.393 1555.5 117.741V136.866C1555.5 138.214 1556.04 139.506 1556.99 140.46C1557.94 141.414 1559.23 141.951 1560.58 141.953H1563.56L1563.54 141.903C1563.36 141.065 1563.35 140.2 1563.52 139.359C1563.69 138.519 1564.02 137.722 1564.51 137.016C1562.15 136.039 1560.92 134.872 1560.87 133.548C1560.78 131.504 1563.49 129.838 1564.48 129.299C1564.22 128.803 1564.06 128.258 1564.02 127.699C1563.99 127.14 1564.07 126.579 1564.26 126.052C1564.82 124.865 1565.82 123.946 1567.06 123.49C1567.95 123.054 1568.92 122.816 1569.92 122.791C1570.51 122.788 1571.1 122.902 1571.66 123.126C1572.79 123.624 1573.72 124.506 1574.27 125.617C1575.05 125.047 1575.97 124.713 1576.93 124.656C1577.22 124.655 1577.5 124.699 1577.78 124.786C1578.5 125.045 1579.09 125.57 1579.44 126.253C1580.82 125.006 1582.62 124.325 1584.48 124.345C1587.34 124.543 1590.08 125.569 1592.36 127.298L1592.38 127.315V117.741C1592.38 116.393 1591.85 115.101 1590.9 114.148C1589.94 113.195 1588.65 112.658 1587.31 112.655Z" fill="#4C83C3"/>
<path d="M1638.25 103.384L1629.85 107.585L1630.39 108.66L1638.79 104.458L1638.25 103.384Z" fill="#FDBA12"/>
<path d="M1634.47 97.4158L1626.93 104.119L1627.73 105.017L1635.27 98.314L1634.47 97.4158Z" fill="#FDBA12"/>
<path d="M1627.2 92.5451L1623.22 101.764L1624.32 102.24L1628.31 93.0219L1627.2 92.5451Z" fill="#FDBA12"/>
<path d="M1619.82 90.6763H1618.62V100.988H1619.82V90.6763Z" fill="#FDBA12"/>
<path d="M1611.24 92.5449L1610.14 93.022L1614.04 102.057L1614.12 102.24L1615.23 101.763L1611.32 92.7267L1611.24 92.5449Z" fill="#FDBA12"/>
<path d="M1603.18 98.3147L1610.72 105.017L1611.52 104.119L1603.97 97.4151L1603.18 98.3147Z" fill="#FDBA12"/>
<path d="M1600.19 103.388L1599.65 104.462L1608.06 108.656L1608.6 107.581L1600.19 103.388Z" fill="#FDBA12"/>
<path d="M1632.59 112.656H1630.76L1630.75 112.853C1630.74 114.362 1630.43 115.854 1629.85 117.242C1629.26 118.631 1628.4 119.89 1627.32 120.945C1626.43 121.851 1625.35 122.546 1624.15 122.978L1623.3 128.884H1614.99L1614.26 123.025C1608.01 120.628 1607.77 114.059 1607.7 112.764L1607.69 112.656H1605.86C1604.51 112.661 1603.22 113.201 1602.27 114.157C1601.31 115.114 1600.78 116.409 1600.78 117.758V136.938C1600.78 138.159 1601.22 139.34 1602.02 140.263C1602.82 141.186 1603.93 141.791 1605.13 141.967H1633.31C1634.52 141.791 1635.63 141.186 1636.43 140.263C1637.22 139.339 1637.66 138.159 1637.67 136.938V117.758C1637.67 116.409 1637.13 115.113 1636.18 114.157C1635.23 113.201 1633.94 112.661 1632.59 112.656ZM1615.08 130.279H1623.35V131.498H1615.08V130.279ZM1615.08 132.614H1623.35V133.832H1615.08V132.614ZM1620.78 138.501H1617.53V137.282H1620.78V138.501ZM1623.37 136.167H1615.11V134.948H1623.37V136.167Z" fill="#FDBA12"/>
<path d="M1614.96 118.652L1619.7 116.713L1615.63 115.471L1618.49 112.851L1618.68 112.656H1609.25V112.851C1609.31 114.025 1609.5 119.836 1615.34 122.019L1615.45 122.06L1616.14 127.5H1618.6V121.073L1619.91 120.001L1614.96 118.652Z" fill="#FDBA12"/>
<path d="M1620.41 112.655L1620.24 112.852L1618.13 114.875L1623.58 116.403L1618.71 118.405L1622.53 119.478L1619.87 121.648V127.501H1622.11L1622.89 122.023L1622.99 121.979C1624.81 121.232 1626.37 119.97 1627.48 118.349C1628.59 116.727 1629.21 114.817 1629.25 112.852V112.655H1620.41Z" fill="#FDBA12"/>
<path d="M1677.93 112.656H1667.77C1672.25 116 1674.78 119.474 1675.3 122.984C1675.46 124.494 1675.32 126.022 1674.87 127.473C1674.42 128.924 1673.68 130.267 1672.68 131.418L1672.6 131.53C1668.7 136.5 1660.74 140.256 1657.5 141.638C1657.14 141.75 1656.77 141.86 1656.4 141.967H1677.93C1679.28 141.963 1680.57 141.424 1681.52 140.471C1682.47 139.517 1683 138.225 1683 136.879V117.744C1683 116.398 1682.47 115.106 1681.52 114.152C1680.57 113.198 1679.28 112.66 1677.93 112.656Z" fill="#B22C1B"/>
<path d="M1665.27 112.868L1665.04 112.688H1651.07C1649.72 112.692 1648.43 113.231 1647.48 114.185C1646.53 115.139 1646 116.431 1646 117.777V136.909C1646 138.255 1646.53 139.548 1647.48 140.502C1648.43 141.457 1649.72 141.995 1651.07 142H1651.14L1651.72 141.808C1664.72 137.508 1673.26 130.96 1673.68 124.769C1674.11 118.537 1666.15 113.433 1665.27 112.868Z" fill="#B22C1B"/>
<path d="M1676.49 88.8142C1676.63 88.0124 1676.7 87.2004 1676.7 86.3867C1676.75 84.5591 1676.32 82.7504 1675.46 81.1379C1674.6 79.5253 1673.33 78.1643 1671.79 77.1883C1669.6 75.7963 1667.07 75.0392 1664.48 75.0015C1661.88 74.9638 1659.33 75.6469 1657.11 76.9748C1655.49 78.0318 1654.18 79.494 1653.3 81.2155C1652.43 82.9371 1652.02 84.8579 1652.12 86.7865C1652.12 87.734 1652.2 88.6798 1652.35 89.6154C1653.06 94.1849 1655.52 98.2988 1659.21 101.082C1657.27 100.557 1654.74 100.305 1653.64 102.083C1653.51 102.253 1653.41 102.448 1653.36 102.657C1653.3 102.866 1653.29 103.083 1653.32 103.297C1653.36 103.51 1653.43 103.715 1653.55 103.897C1653.67 104.079 1653.82 104.236 1654 104.356C1655.41 105.368 1658.83 105.1 1660.9 103.916L1659.48 107.225H1669.02L1667.11 103.41C1669.42 104.375 1672.09 105.245 1673.54 104.364C1673.83 104.181 1674.07 103.926 1674.24 103.623C1674.4 103.319 1674.49 102.979 1674.49 102.633C1674.53 102.265 1674.47 101.892 1674.32 101.553C1674.18 101.214 1673.94 100.921 1673.64 100.704C1672.55 100.137 1671.28 100 1670.1 100.322C1670.26 100.184 1670.43 100.046 1670.59 99.9056C1673.77 96.9986 1675.86 93.0809 1676.49 88.8142ZM1654.7 103.38C1654.56 103.281 1654.39 103.159 1654.67 102.713C1655.49 101.369 1658.25 101.885 1660.5 102.777C1659.63 103.295 1658.67 103.617 1657.67 103.721C1656.66 103.825 1655.65 103.709 1654.7 103.38ZM1672.95 101.685C1673.08 101.785 1673.18 101.921 1673.24 102.078C1673.3 102.234 1673.32 102.404 1673.29 102.568C1673.29 102.718 1673.26 102.867 1673.2 103.002C1673.13 103.137 1673.03 103.253 1672.91 103.339C1672.37 103.672 1670.97 103.737 1667.44 102.247C1669.59 101.529 1672.04 101.044 1672.95 101.685ZM1665.93 101.512C1665.78 101.57 1665.67 101.612 1665.62 101.634L1665.2 101.779L1665 101.877L1665.01 101.889L1664.31 102.177L1665.39 102.659L1667.07 106.024H1661.31L1662.97 102.151L1662.36 101.793C1660.04 100.545 1658.04 98.781 1656.51 96.6368C1654.98 94.4926 1653.97 92.0255 1653.54 89.4261C1653.4 88.5587 1653.33 87.6817 1653.32 86.8031C1653.23 85.0741 1653.59 83.3502 1654.37 81.8031C1655.14 80.256 1656.31 78.9396 1657.76 77.9849C1659.79 76.7785 1662.11 76.159 1664.47 76.1953C1666.83 76.2317 1669.13 76.9225 1671.12 78.1908C1672.5 79.0639 1673.63 80.2798 1674.4 81.7194C1675.16 83.159 1675.54 84.7729 1675.5 86.4033C1675.5 87.1445 1675.43 87.8841 1675.3 88.6143C1674.94 91.3747 1673.89 93.9998 1672.25 96.252C1670.61 98.5041 1668.44 100.312 1665.93 101.512Z" fill="#B22C1B"/>
<path d="M1667.26 112.419L1667.17 112.362C1667.17 112.36 1667.16 112.354 1667.14 112.339C1666.23 111.777 1665.46 111.031 1664.86 110.15C1664.27 109.269 1663.86 108.272 1663.68 107.225H1662.38C1662.59 109.204 1663.54 111.031 1665.03 112.339C1665.07 112.366 1665.1 112.392 1665.14 112.419C1665.19 112.459 1665.23 112.5 1665.28 112.537H1667.22L1667.43 112.536L1667.26 112.419Z" fill="#B22C1B"/>
<path d="M1658.32 86.0483L1658.98 85.6689C1659.27 85.498 1659.48 85.3522 1659.6 85.2314C1659.79 85.0423 1659.88 84.8258 1659.88 84.582C1659.88 84.2972 1659.79 84.0716 1659.62 83.9053C1659.45 83.7367 1659.22 83.6523 1658.94 83.6523C1658.52 83.6523 1658.23 83.8118 1658.06 84.1309C1657.98 84.3018 1657.93 84.5387 1657.92 84.8418H1657.3C1657.3 84.4157 1657.38 84.0682 1657.53 83.7993C1657.8 83.3254 1658.27 83.0884 1658.94 83.0884C1659.5 83.0884 1659.91 83.2399 1660.17 83.543C1660.43 83.846 1660.56 84.1833 1660.56 84.5547C1660.56 84.9466 1660.42 85.2816 1660.15 85.5596C1659.99 85.7214 1659.7 85.9173 1659.29 86.1475L1658.82 86.4072C1658.6 86.5303 1658.42 86.6476 1658.29 86.7593C1658.07 86.9575 1657.92 87.1774 1657.86 87.4189H1660.54V88H1657.18C1657.2 87.5785 1657.29 87.2116 1657.44 86.8994C1657.59 86.5872 1657.88 86.3035 1658.32 86.0483ZM1664.12 83.8882C1664.34 84.2915 1664.45 84.8441 1664.45 85.5459C1664.45 86.2113 1664.35 86.7616 1664.15 87.1968C1663.86 87.8211 1663.4 88.1333 1662.74 88.1333C1662.16 88.1333 1661.72 87.8781 1661.43 87.3677C1661.19 86.9416 1661.07 86.3696 1661.07 85.6519C1661.07 85.0959 1661.14 84.6185 1661.29 84.2197C1661.56 83.4769 1662.04 83.1055 1662.75 83.1055C1663.38 83.1055 1663.84 83.3664 1664.12 83.8882ZM1663.79 85.5698C1663.79 85.0138 1663.72 84.557 1663.58 84.1992C1663.44 83.8392 1663.18 83.6592 1662.78 83.6592C1662.42 83.6592 1662.16 83.8301 1661.99 84.1719C1661.82 84.5114 1661.74 85.0127 1661.74 85.6758C1661.74 86.1748 1661.79 86.5758 1661.9 86.8789C1662.06 87.3415 1662.34 87.5728 1662.74 87.5728C1663.06 87.5728 1663.31 87.4315 1663.5 87.1489C1663.69 86.8664 1663.79 86.34 1663.79 85.5698ZM1666.12 86.0483L1666.77 85.6689C1667.07 85.498 1667.27 85.3522 1667.39 85.2314C1667.58 85.0423 1667.67 84.8258 1667.67 84.582C1667.67 84.2972 1667.59 84.0716 1667.42 83.9053C1667.25 83.7367 1667.02 83.6523 1666.73 83.6523C1666.31 83.6523 1666.02 83.8118 1665.86 84.1309C1665.77 84.3018 1665.72 84.5387 1665.71 84.8418H1665.09C1665.1 84.4157 1665.17 84.0682 1665.32 83.7993C1665.59 83.3254 1666.06 83.0884 1666.74 83.0884C1667.3 83.0884 1667.71 83.2399 1667.96 83.543C1668.22 83.846 1668.35 84.1833 1668.35 84.5547C1668.35 84.9466 1668.21 85.2816 1667.94 85.5596C1667.78 85.7214 1667.49 85.9173 1667.08 86.1475L1666.61 86.4072C1666.39 86.5303 1666.21 86.6476 1666.09 86.7593C1665.86 86.9575 1665.72 87.1774 1665.66 87.4189H1668.33V88H1664.97C1664.99 87.5785 1665.08 87.2116 1665.23 86.8994C1665.38 86.5872 1665.68 86.3035 1666.12 86.0483ZM1668.81 86.4961H1669.46C1669.48 86.8128 1669.54 87.043 1669.63 87.1865C1669.79 87.444 1670.08 87.5728 1670.5 87.5728C1670.82 87.5728 1671.08 87.4862 1671.28 87.313C1671.47 87.1398 1671.57 86.9165 1671.57 86.6431C1671.57 86.3058 1671.47 86.07 1671.26 85.9355C1671.06 85.8011 1670.77 85.7339 1670.4 85.7339C1670.36 85.7339 1670.32 85.735 1670.28 85.7373C1670.24 85.7373 1670.19 85.7384 1670.15 85.7407V85.1973C1670.21 85.2041 1670.27 85.2087 1670.31 85.2109C1670.35 85.2132 1670.4 85.2144 1670.45 85.2144C1670.68 85.2144 1670.87 85.1779 1671.02 85.105C1671.28 84.9774 1671.41 84.7495 1671.41 84.4214C1671.41 84.1776 1671.32 83.9896 1671.15 83.8574C1670.98 83.7253 1670.77 83.6592 1670.54 83.6592C1670.13 83.6592 1669.85 83.7959 1669.69 84.0693C1669.61 84.2197 1669.56 84.4339 1669.55 84.7119H1668.94C1668.94 84.3473 1669.01 84.0374 1669.16 83.7822C1669.41 83.3265 1669.85 83.0986 1670.48 83.0986C1670.98 83.0986 1671.36 83.2103 1671.64 83.4336C1671.91 83.6546 1672.05 83.9759 1672.05 84.3975C1672.05 84.6982 1671.97 84.9421 1671.8 85.1289C1671.7 85.2451 1671.57 85.3363 1671.42 85.4023C1671.67 85.473 1671.87 85.6097 1672.02 85.8125C1672.16 86.013 1672.24 86.2591 1672.24 86.5508C1672.24 87.0179 1672.08 87.3984 1671.77 87.6924C1671.47 87.9863 1671.03 88.1333 1670.46 88.1333C1669.89 88.1333 1669.47 87.9749 1669.2 87.6582C1668.94 87.3392 1668.81 86.9518 1668.81 86.4961ZM1658.32 93.0483L1658.98 92.6689C1659.27 92.498 1659.48 92.3522 1659.6 92.2314C1659.79 92.0423 1659.88 91.8258 1659.88 91.582C1659.88 91.2972 1659.79 91.0716 1659.62 90.9053C1659.45 90.7367 1659.22 90.6523 1658.94 90.6523C1658.52 90.6523 1658.23 90.8118 1658.06 91.1309C1657.98 91.3018 1657.93 91.5387 1657.92 91.8418H1657.3C1657.3 91.4157 1657.38 91.0682 1657.53 90.7993C1657.8 90.3254 1658.27 90.0884 1658.94 90.0884C1659.5 90.0884 1659.91 90.2399 1660.17 90.543C1660.43 90.846 1660.56 91.1833 1660.56 91.5547C1660.56 91.9466 1660.42 92.2816 1660.15 92.5596C1659.99 92.7214 1659.7 92.9173 1659.29 93.1475L1658.82 93.4072C1658.6 93.5303 1658.42 93.6476 1658.29 93.7593C1658.07 93.9575 1657.92 94.1774 1657.86 94.4189H1660.54V95H1657.18C1657.2 94.5785 1657.29 94.2116 1657.44 93.8994C1657.59 93.5872 1657.88 93.3035 1658.32 93.0483ZM1664.12 90.8882C1664.34 91.2915 1664.45 91.8441 1664.45 92.5459C1664.45 93.2113 1664.35 93.7616 1664.15 94.1968C1663.86 94.8211 1663.4 95.1333 1662.74 95.1333C1662.16 95.1333 1661.72 94.8781 1661.43 94.3677C1661.19 93.9416 1661.07 93.3696 1661.07 92.6519C1661.07 92.0959 1661.14 91.6185 1661.29 91.2197C1661.56 90.4769 1662.04 90.1055 1662.75 90.1055C1663.38 90.1055 1663.84 90.3664 1664.12 90.8882ZM1663.79 92.5698C1663.79 92.0138 1663.72 91.557 1663.58 91.1992C1663.44 90.8392 1663.18 90.6592 1662.78 90.6592C1662.42 90.6592 1662.16 90.8301 1661.99 91.1719C1661.82 91.5114 1661.74 92.0127 1661.74 92.6758C1661.74 93.1748 1661.79 93.5758 1661.9 93.8789C1662.06 94.3415 1662.34 94.5728 1662.74 94.5728C1663.06 94.5728 1663.31 94.4315 1663.5 94.1489C1663.69 93.8664 1663.79 93.34 1663.79 92.5698ZM1666.12 93.0483L1666.77 92.6689C1667.07 92.498 1667.27 92.3522 1667.39 92.2314C1667.58 92.0423 1667.67 91.8258 1667.67 91.582C1667.67 91.2972 1667.59 91.0716 1667.42 90.9053C1667.25 90.7367 1667.02 90.6523 1666.73 90.6523C1666.31 90.6523 1666.02 90.8118 1665.86 91.1309C1665.77 91.3018 1665.72 91.5387 1665.71 91.8418H1665.09C1665.1 91.4157 1665.17 91.0682 1665.32 90.7993C1665.59 90.3254 1666.06 90.0884 1666.74 90.0884C1667.3 90.0884 1667.71 90.2399 1667.96 90.543C1668.22 90.846 1668.35 91.1833 1668.35 91.5547C1668.35 91.9466 1668.21 92.2816 1667.94 92.5596C1667.78 92.7214 1667.49 92.9173 1667.08 93.1475L1666.61 93.4072C1666.39 93.5303 1666.21 93.6476 1666.09 93.7593C1665.86 93.9575 1665.72 94.1774 1665.66 94.4189H1668.33V95H1664.97C1664.99 94.5785 1665.08 94.2116 1665.23 93.8994C1665.38 93.5872 1665.68 93.3035 1666.12 93.0483ZM1670.96 93.2671V91.0488L1669.39 93.2671H1670.96ZM1670.97 95V93.8037H1668.82V93.2021L1671.07 90.0918H1671.59V93.2671H1672.31V93.8037H1671.59V95H1670.97Z" fill="#B22C1B"/>
<path d="M1561.19 104.709C1561.4 105.025 1561.54 105.395 1561.61 105.816C1561.67 106.105 1561.71 106.566 1561.71 107.199H1557.11C1557.12 107.836 1557.28 108.348 1557.56 108.734C1557.84 109.117 1558.27 109.309 1558.86 109.309C1559.41 109.309 1559.85 109.127 1560.18 108.764C1560.37 108.553 1560.5 108.309 1560.58 108.031H1561.62C1561.59 108.262 1561.5 108.52 1561.34 108.805C1561.19 109.086 1561.02 109.316 1560.83 109.496C1560.51 109.809 1560.11 110.02 1559.64 110.129C1559.38 110.191 1559.1 110.223 1558.78 110.223C1557.99 110.223 1557.33 109.939 1556.79 109.373C1556.25 108.803 1555.97 108.006 1555.97 106.982C1555.97 105.975 1556.25 105.156 1556.79 104.527C1557.34 103.898 1558.06 103.584 1558.94 103.584C1559.38 103.584 1559.82 103.689 1560.23 103.9C1560.65 104.107 1560.97 104.377 1561.19 104.709ZM1560.62 106.361C1560.58 105.904 1560.48 105.539 1560.32 105.266C1560.03 104.758 1559.55 104.504 1558.88 104.504C1558.39 104.504 1557.98 104.68 1557.66 105.031C1557.33 105.379 1557.15 105.822 1557.13 106.361H1560.62ZM1564.06 103.725V107.891C1564.06 108.211 1564.11 108.473 1564.21 108.676C1564.4 109.051 1564.75 109.238 1565.26 109.238C1566 109.238 1566.5 108.91 1566.76 108.254C1566.91 107.902 1566.98 107.42 1566.98 106.807V103.725H1568.03V110H1567.04L1567.05 109.074C1566.91 109.312 1566.74 109.514 1566.54 109.678C1566.14 110.006 1565.65 110.17 1565.07 110.17C1564.18 110.17 1563.57 109.871 1563.25 109.273C1563.07 108.953 1562.98 108.525 1562.98 107.99V103.725H1564.06ZM1569.71 103.725H1570.72V104.809C1570.8 104.598 1571 104.342 1571.32 104.041C1571.64 103.736 1572.01 103.584 1572.43 103.584C1572.45 103.584 1572.48 103.586 1572.53 103.59C1572.57 103.594 1572.65 103.602 1572.77 103.613V104.727C1572.71 104.715 1572.65 104.707 1572.59 104.703C1572.54 104.699 1572.48 104.697 1572.42 104.697C1571.89 104.697 1571.48 104.869 1571.2 105.213C1570.91 105.553 1570.77 105.945 1570.77 106.391V110H1569.71V103.725ZM1578 106.76C1578 106.174 1577.91 105.697 1577.72 105.33C1577.42 104.752 1576.91 104.463 1576.18 104.463C1575.54 104.463 1575.07 104.709 1574.78 105.201C1574.48 105.693 1574.34 106.287 1574.34 106.982C1574.34 107.65 1574.48 108.207 1574.78 108.652C1575.07 109.098 1575.54 109.32 1576.17 109.32C1576.87 109.32 1577.35 109.057 1577.61 108.529C1577.87 107.998 1578 107.408 1578 106.76ZM1579.1 106.73C1579.1 107.742 1578.86 108.578 1578.36 109.238C1577.87 109.898 1577.11 110.229 1576.07 110.229C1575.21 110.229 1574.52 109.938 1574.02 109.355C1573.51 108.77 1573.25 107.984 1573.25 107C1573.25 105.945 1573.52 105.105 1574.06 104.48C1574.59 103.855 1575.31 103.543 1576.21 103.543C1577.02 103.543 1577.71 103.812 1578.26 104.352C1578.82 104.891 1579.1 105.684 1579.1 106.73ZM1584.73 106.824C1584.73 106.324 1584.65 105.895 1584.51 105.535C1584.24 104.844 1583.74 104.498 1583.01 104.498C1582.28 104.498 1581.78 104.863 1581.51 105.594C1581.37 105.984 1581.29 106.48 1581.29 107.082C1581.29 107.566 1581.37 107.979 1581.51 108.318C1581.78 108.967 1582.28 109.291 1583.01 109.291C1583.5 109.291 1583.91 109.086 1584.23 108.676C1584.56 108.262 1584.73 107.645 1584.73 106.824ZM1580.28 103.754H1581.3V104.586C1581.52 104.301 1581.75 104.08 1582 103.924C1582.35 103.689 1582.77 103.572 1583.25 103.572C1583.96 103.572 1584.56 103.846 1585.06 104.393C1585.56 104.936 1585.8 105.713 1585.8 106.725C1585.8 108.092 1585.45 109.068 1584.73 109.654C1584.28 110.025 1583.75 110.211 1583.15 110.211C1582.68 110.211 1582.28 110.107 1581.96 109.9C1581.77 109.783 1581.56 109.582 1581.33 109.297V112.502H1580.28V103.754ZM1591.9 104.709C1592.12 105.025 1592.26 105.395 1592.33 105.816C1592.39 106.105 1592.42 106.566 1592.42 107.199H1587.82C1587.84 107.836 1587.99 108.348 1588.27 108.734C1588.55 109.117 1588.99 109.309 1589.58 109.309C1590.13 109.309 1590.57 109.127 1590.9 108.764C1591.08 108.553 1591.22 108.309 1591.29 108.031H1592.33C1592.3 108.262 1592.21 108.52 1592.06 108.805C1591.9 109.086 1591.73 109.316 1591.54 109.496C1591.22 109.809 1590.82 110.02 1590.35 110.129C1590.1 110.191 1589.81 110.223 1589.49 110.223C1588.71 110.223 1588.05 109.939 1587.5 109.373C1586.96 108.803 1586.69 108.006 1586.69 106.982C1586.69 105.975 1586.96 105.156 1587.51 104.527C1588.06 103.898 1588.77 103.584 1589.65 103.584C1590.1 103.584 1590.53 103.689 1590.95 103.9C1591.37 104.107 1591.69 104.377 1591.9 104.709ZM1591.34 106.361C1591.29 105.904 1591.19 105.539 1591.04 105.266C1590.75 104.758 1590.27 104.504 1589.59 104.504C1589.11 104.504 1588.7 104.68 1588.37 105.031C1588.04 105.379 1587.87 105.822 1587.85 106.361H1591.34Z" fill="#4C83C3"/>
<path d="M1556.72 156.11H1558.42V166H1556.72V156.11ZM1557.56 154.375C1557.36 154.375 1557.16 154.351 1556.98 154.301C1556.81 154.252 1556.66 154.181 1556.54 154.088C1556.42 153.995 1556.32 153.887 1556.24 153.763C1556.17 153.639 1556.14 153.503 1556.14 153.355C1556.14 153.2 1556.18 153.055 1556.25 152.919C1556.33 152.783 1556.42 152.665 1556.55 152.566C1556.68 152.467 1556.83 152.39 1557 152.334C1557.18 152.279 1557.36 152.251 1557.56 152.251C1557.76 152.251 1557.94 152.279 1558.11 152.334C1558.28 152.39 1558.43 152.467 1558.55 152.566C1558.68 152.665 1558.78 152.783 1558.86 152.919C1558.93 153.055 1558.97 153.2 1558.97 153.355C1558.97 153.503 1558.93 153.639 1558.86 153.763C1558.79 153.887 1558.69 153.995 1558.57 154.088C1558.45 154.181 1558.3 154.252 1558.13 154.301C1557.95 154.351 1557.76 154.375 1557.56 154.375ZM1556.72 156.11H1558.42V166H1556.72V156.11ZM1568.79 159.404H1567.16C1567.06 158.792 1566.84 158.284 1566.48 157.882C1566.13 157.474 1565.57 157.27 1564.79 157.27C1563.72 157.27 1562.96 157.79 1562.5 158.829C1562.21 159.503 1562.06 160.335 1562.06 161.324C1562.06 162.32 1562.27 163.158 1562.69 163.838C1563.11 164.519 1563.77 164.859 1564.68 164.859C1565.37 164.859 1565.92 164.649 1566.32 164.228C1566.73 163.801 1567.01 163.22 1567.16 162.484H1568.79C1568.6 163.801 1568.14 164.766 1567.39 165.378C1566.65 165.985 1565.7 166.288 1564.55 166.288C1563.25 166.288 1562.21 165.814 1561.44 164.868C1560.66 163.916 1560.28 162.728 1560.28 161.306C1560.28 159.562 1560.7 158.204 1561.55 157.233C1562.4 156.262 1563.48 155.776 1564.79 155.776C1565.91 155.776 1566.82 156.049 1567.51 156.593C1568.22 157.137 1568.64 158.074 1568.79 159.404ZM1577.37 160.972C1577.37 160.18 1577.25 159.5 1577.02 158.931C1576.59 157.836 1575.8 157.289 1574.65 157.289C1573.49 157.289 1572.7 157.867 1572.27 159.023C1572.04 159.642 1571.93 160.427 1571.93 161.38C1571.93 162.147 1572.04 162.799 1572.27 163.337C1572.71 164.364 1573.5 164.877 1574.65 164.877C1575.43 164.877 1576.07 164.553 1576.59 163.903C1577.11 163.248 1577.37 162.271 1577.37 160.972ZM1570.33 156.11H1571.95V157.428C1572.28 156.976 1572.65 156.627 1573.04 156.379C1573.61 156.008 1574.27 155.823 1575.03 155.823C1576.15 155.823 1577.11 156.256 1577.9 157.122C1578.68 157.981 1579.07 159.212 1579.07 160.814C1579.07 162.979 1578.51 164.525 1577.38 165.453C1576.66 166.04 1575.82 166.334 1574.87 166.334C1574.12 166.334 1573.49 166.17 1572.99 165.842C1572.69 165.657 1572.36 165.338 1572 164.887V169.961H1570.33V156.11ZM1588.86 159.404H1587.24C1587.14 158.792 1586.91 158.284 1586.56 157.882C1586.21 157.474 1585.64 157.27 1584.86 157.27C1583.8 157.27 1583.04 157.79 1582.58 158.829C1582.28 159.503 1582.14 160.335 1582.14 161.324C1582.14 162.32 1582.35 163.158 1582.77 163.838C1583.19 164.519 1583.85 164.859 1584.75 164.859C1585.44 164.859 1585.99 164.649 1586.39 164.228C1586.8 163.801 1587.08 163.22 1587.24 162.484H1588.86C1588.68 163.801 1588.21 164.766 1587.47 165.378C1586.73 165.985 1585.78 166.288 1584.62 166.288C1583.32 166.288 1582.29 165.814 1581.51 164.868C1580.74 163.916 1580.35 162.728 1580.35 161.306C1580.35 159.562 1580.78 158.204 1581.62 157.233C1582.47 156.262 1583.55 155.776 1584.86 155.776C1585.98 155.776 1586.89 156.049 1587.59 156.593C1588.3 157.137 1588.72 158.074 1588.86 159.404Z" fill="#4C83C3"/>
<path d="M1604.73 154.032C1604.89 154.269 1604.99 154.546 1605.04 154.862C1605.09 155.079 1605.11 155.425 1605.11 155.899H1601.66C1601.68 156.377 1601.79 156.761 1602 157.051C1602.21 157.338 1602.54 157.481 1602.98 157.481C1603.4 157.481 1603.73 157.345 1603.97 157.073C1604.11 156.915 1604.21 156.731 1604.27 156.523H1605.05C1605.03 156.696 1604.96 156.89 1604.84 157.104C1604.73 157.314 1604.6 157.487 1604.46 157.622C1604.21 157.856 1603.92 158.015 1603.56 158.097C1603.37 158.144 1603.16 158.167 1602.92 158.167C1602.33 158.167 1601.83 157.955 1601.43 157.53C1601.02 157.102 1600.82 156.504 1600.82 155.737C1600.82 154.981 1601.02 154.367 1601.43 153.896C1601.84 153.424 1602.38 153.188 1603.04 153.188C1603.37 153.188 1603.7 153.267 1604.01 153.425C1604.32 153.581 1604.56 153.783 1604.73 154.032ZM1604.3 155.271C1604.27 154.928 1604.19 154.654 1604.08 154.449C1603.86 154.068 1603.5 153.878 1602.99 153.878C1602.63 153.878 1602.32 154.01 1602.08 154.273C1601.83 154.534 1601.7 154.867 1601.69 155.271H1604.3ZM1606.88 153.293V156.418C1606.88 156.658 1606.92 156.854 1607 157.007C1607.14 157.288 1607.4 157.429 1607.78 157.429C1608.33 157.429 1608.71 157.183 1608.91 156.69C1609.02 156.427 1609.07 156.065 1609.07 155.605V153.293H1609.86V158H1609.11L1609.12 157.306C1609.02 157.484 1608.89 157.635 1608.74 157.758C1608.44 158.004 1608.07 158.127 1607.64 158.127C1606.97 158.127 1606.51 157.903 1606.27 157.455C1606.14 157.215 1606.07 156.894 1606.07 156.493V153.293H1606.88ZM1611.12 153.293H1611.87V154.106C1611.93 153.948 1612.09 153.756 1612.33 153.531C1612.57 153.302 1612.84 153.188 1613.16 153.188C1613.17 153.188 1613.2 153.189 1613.23 153.192C1613.27 153.195 1613.33 153.201 1613.41 153.21V154.045C1613.36 154.036 1613.32 154.03 1613.28 154.027C1613.24 154.024 1613.2 154.023 1613.15 154.023C1612.75 154.023 1612.45 154.152 1612.23 154.41C1612.02 154.665 1611.91 154.959 1611.91 155.293V158H1611.12V153.293ZM1617.34 155.57C1617.34 155.13 1617.27 154.773 1617.12 154.498C1616.9 154.064 1616.52 153.847 1615.97 153.847C1615.49 153.847 1615.14 154.032 1614.92 154.401C1614.7 154.77 1614.59 155.215 1614.59 155.737C1614.59 156.238 1614.7 156.655 1614.92 156.989C1615.14 157.323 1615.49 157.49 1615.96 157.49C1616.49 157.49 1616.85 157.292 1617.04 156.897C1617.24 156.499 1617.34 156.056 1617.34 155.57ZM1618.16 155.548C1618.16 156.307 1617.98 156.934 1617.61 157.429C1617.24 157.924 1616.67 158.171 1615.89 158.171C1615.24 158.171 1614.73 157.953 1614.35 157.517C1613.97 157.077 1613.78 156.488 1613.78 155.75C1613.78 154.959 1613.98 154.329 1614.38 153.86C1614.78 153.392 1615.32 153.157 1616 153.157C1616.6 153.157 1617.11 153.359 1617.53 153.764C1617.95 154.168 1618.16 154.763 1618.16 155.548ZM1622.38 155.618C1622.38 155.243 1622.33 154.921 1622.22 154.651C1622.01 154.133 1621.64 153.874 1621.09 153.874C1620.54 153.874 1620.17 154.147 1619.97 154.695C1619.86 154.988 1619.81 155.36 1619.81 155.812C1619.81 156.175 1619.86 156.484 1619.97 156.739C1620.17 157.225 1620.55 157.468 1621.09 157.468C1621.46 157.468 1621.77 157.314 1622.01 157.007C1622.26 156.696 1622.38 156.233 1622.38 155.618ZM1619.04 153.315H1619.81V153.939C1619.97 153.726 1620.15 153.56 1620.33 153.443C1620.6 153.267 1620.91 153.179 1621.27 153.179C1621.81 153.179 1622.26 153.384 1622.63 153.794C1623 154.202 1623.19 154.785 1623.19 155.543C1623.19 156.569 1622.92 157.301 1622.38 157.741C1622.04 158.019 1621.65 158.158 1621.2 158.158C1620.84 158.158 1620.55 158.081 1620.31 157.925C1620.17 157.837 1620.01 157.687 1619.84 157.473V159.876H1619.04V153.315ZM1627.76 154.032C1627.92 154.269 1628.03 154.546 1628.08 154.862C1628.13 155.079 1628.15 155.425 1628.15 155.899H1624.7C1624.72 156.377 1624.83 156.761 1625.04 157.051C1625.25 157.338 1625.58 157.481 1626.02 157.481C1626.43 157.481 1626.76 157.345 1627.01 157.073C1627.15 156.915 1627.25 156.731 1627.31 156.523H1628.08C1628.06 156.696 1628 156.89 1627.88 157.104C1627.76 157.314 1627.63 157.487 1627.49 157.622C1627.25 157.856 1626.95 158.015 1626.6 158.097C1626.41 158.144 1626.19 158.167 1625.95 158.167C1625.37 158.167 1624.87 157.955 1624.46 157.53C1624.06 157.102 1623.85 156.504 1623.85 155.737C1623.85 154.981 1624.06 154.367 1624.47 153.896C1624.88 153.424 1625.41 153.188 1626.08 153.188C1626.41 153.188 1626.73 153.267 1627.05 153.425C1627.36 153.581 1627.6 153.783 1627.76 154.032ZM1627.34 155.271C1627.31 154.928 1627.23 154.654 1627.11 154.449C1626.9 154.068 1626.53 153.878 1626.03 153.878C1625.66 153.878 1625.36 154.01 1625.11 154.273C1624.87 154.534 1624.74 154.867 1624.72 155.271H1627.34ZM1630.58 157.486C1630.85 157.486 1631.12 157.421 1631.38 157.292C1631.82 157.079 1632.04 156.729 1632.04 156.242V155.605C1631.95 155.667 1631.82 155.718 1631.67 155.759C1631.52 155.8 1631.37 155.829 1631.22 155.847L1630.74 155.908C1630.46 155.946 1630.24 156.006 1630.1 156.088C1629.85 156.226 1629.73 156.446 1629.73 156.748C1629.73 156.976 1629.82 157.156 1629.98 157.288C1630.15 157.42 1630.35 157.486 1630.58 157.486ZM1631.65 155.148C1631.83 155.125 1631.95 155.048 1632.01 154.919C1632.05 154.849 1632.07 154.748 1632.07 154.616C1632.07 154.347 1631.97 154.152 1631.78 154.032C1631.59 153.909 1631.31 153.847 1630.95 153.847C1630.54 153.847 1630.25 153.958 1630.08 154.181C1629.98 154.304 1629.92 154.487 1629.89 154.73H1629.15C1629.16 154.15 1629.35 153.748 1629.71 153.522C1630.07 153.293 1630.49 153.179 1630.97 153.179C1631.53 153.179 1631.98 153.285 1632.32 153.496C1632.66 153.707 1632.83 154.035 1632.83 154.48V157.191C1632.83 157.273 1632.85 157.339 1632.88 157.389C1632.92 157.439 1632.99 157.464 1633.1 157.464C1633.13 157.464 1633.17 157.462 1633.22 157.459C1633.26 157.454 1633.31 157.446 1633.36 157.438V158.022C1633.23 158.057 1633.14 158.079 1633.08 158.088C1633.01 158.097 1632.92 158.101 1632.81 158.101C1632.54 158.101 1632.34 158.004 1632.22 157.811C1632.16 157.708 1632.11 157.563 1632.08 157.376C1631.92 157.587 1631.69 157.77 1631.39 157.925C1631.09 158.081 1630.75 158.158 1630.39 158.158C1629.96 158.158 1629.6 158.026 1629.32 157.763C1629.04 157.496 1628.91 157.164 1628.91 156.765C1628.91 156.329 1629.04 155.99 1629.31 155.75C1629.59 155.51 1629.94 155.362 1630.39 155.306L1631.65 155.148ZM1634.14 153.293H1634.89V153.961C1635.11 153.686 1635.35 153.488 1635.59 153.368C1635.84 153.248 1636.12 153.188 1636.43 153.188C1637.09 153.188 1637.54 153.421 1637.78 153.887C1637.91 154.142 1637.97 154.506 1637.97 154.981V158H1637.17V155.034C1637.17 154.747 1637.13 154.515 1637.04 154.339C1636.9 154.046 1636.65 153.9 1636.28 153.9C1636.09 153.9 1635.93 153.919 1635.81 153.957C1635.6 154.021 1635.41 154.15 1635.24 154.344C1635.11 154.499 1635.02 154.66 1634.98 154.827C1634.95 154.991 1634.93 155.227 1634.93 155.535V158H1634.14V153.293ZM1604.79 163.875H1604.02C1603.97 163.585 1603.87 163.345 1603.7 163.155C1603.53 162.961 1603.26 162.865 1602.9 162.865C1602.39 162.865 1602.03 163.111 1601.81 163.603C1601.67 163.922 1601.6 164.316 1601.6 164.785C1601.6 165.257 1601.7 165.654 1601.9 165.976C1602.1 166.298 1602.41 166.459 1602.84 166.459C1603.17 166.459 1603.43 166.36 1603.62 166.161C1603.81 165.958 1603.95 165.683 1604.02 165.334H1604.79C1604.7 165.958 1604.48 166.416 1604.13 166.706C1603.78 166.993 1603.33 167.136 1602.78 167.136C1602.17 167.136 1601.67 166.912 1601.31 166.464C1600.94 166.013 1600.76 165.45 1600.76 164.776C1600.76 163.95 1600.96 163.307 1601.36 162.847C1601.76 162.387 1602.27 162.157 1602.9 162.157C1603.43 162.157 1603.86 162.286 1604.19 162.544C1604.52 162.802 1604.72 163.246 1604.79 163.875ZM1605.58 160.522H1606.37V162.931C1606.56 162.693 1606.73 162.526 1606.88 162.43C1607.13 162.263 1607.45 162.179 1607.83 162.179C1608.51 162.179 1608.98 162.418 1609.22 162.896C1609.35 163.156 1609.42 163.518 1609.42 163.981V167H1608.6V164.034C1608.6 163.688 1608.56 163.435 1608.47 163.273C1608.33 163.016 1608.06 162.887 1607.66 162.887C1607.33 162.887 1607.04 163 1606.77 163.225C1606.5 163.451 1606.37 163.877 1606.37 164.504V167H1605.58V160.522ZM1612.04 166.486C1612.32 166.486 1612.59 166.421 1612.85 166.292C1613.29 166.079 1613.51 165.729 1613.51 165.242V164.605C1613.41 164.667 1613.29 164.718 1613.13 164.759C1612.98 164.8 1612.83 164.829 1612.69 164.847L1612.21 164.908C1611.92 164.946 1611.7 165.006 1611.56 165.088C1611.32 165.226 1611.2 165.446 1611.2 165.748C1611.2 165.976 1611.28 166.156 1611.45 166.288C1611.61 166.42 1611.81 166.486 1612.04 166.486ZM1613.11 164.148C1613.29 164.125 1613.42 164.048 1613.48 163.919C1613.51 163.849 1613.53 163.748 1613.53 163.616C1613.53 163.347 1613.43 163.152 1613.24 163.032C1613.05 162.909 1612.78 162.847 1612.42 162.847C1612 162.847 1611.71 162.958 1611.54 163.181C1611.44 163.304 1611.38 163.487 1611.35 163.73H1610.61C1610.63 163.15 1610.81 162.748 1611.17 162.522C1611.54 162.293 1611.96 162.179 1612.44 162.179C1612.99 162.179 1613.44 162.285 1613.78 162.496C1614.13 162.707 1614.3 163.035 1614.3 163.48V166.191C1614.3 166.273 1614.31 166.339 1614.35 166.389C1614.38 166.439 1614.45 166.464 1614.56 166.464C1614.6 166.464 1614.64 166.462 1614.68 166.459C1614.73 166.454 1614.77 166.446 1614.82 166.438V167.022C1614.7 167.057 1614.6 167.079 1614.54 167.088C1614.48 167.097 1614.39 167.101 1614.28 167.101C1614 167.101 1613.81 167.004 1613.68 166.811C1613.62 166.708 1613.57 166.563 1613.55 166.376C1613.39 166.587 1613.15 166.77 1612.85 166.925C1612.55 167.081 1612.22 167.158 1611.86 167.158C1611.42 167.158 1611.06 167.026 1610.78 166.763C1610.51 166.496 1610.37 166.164 1610.37 165.765C1610.37 165.329 1610.51 164.99 1610.78 164.75C1611.05 164.51 1611.41 164.362 1611.85 164.306L1613.11 164.148ZM1615.6 162.293H1616.38V162.961C1616.57 162.73 1616.74 162.562 1616.89 162.456C1617.15 162.277 1617.45 162.188 1617.78 162.188C1618.15 162.188 1618.46 162.28 1618.68 162.465C1618.81 162.57 1618.93 162.726 1619.04 162.931C1619.21 162.679 1619.42 162.493 1619.66 162.373C1619.89 162.25 1620.16 162.188 1620.46 162.188C1621.09 162.188 1621.52 162.417 1621.75 162.874C1621.87 163.12 1621.93 163.451 1621.93 163.867V167H1621.11V163.73C1621.11 163.417 1621.03 163.202 1620.87 163.084C1620.72 162.967 1620.53 162.909 1620.3 162.909C1619.99 162.909 1619.72 163.013 1619.5 163.221C1619.27 163.429 1619.16 163.776 1619.16 164.262V167H1618.36V163.928C1618.36 163.609 1618.32 163.376 1618.25 163.229C1618.12 163.01 1617.9 162.9 1617.57 162.9C1617.27 162.9 1617 163.016 1616.76 163.247C1616.51 163.479 1616.39 163.897 1616.39 164.504V167H1615.6V162.293ZM1626.37 164.618C1626.37 164.243 1626.32 163.921 1626.21 163.651C1626 163.133 1625.63 162.874 1625.08 162.874C1624.54 162.874 1624.16 163.147 1623.96 163.695C1623.85 163.988 1623.8 164.36 1623.8 164.812C1623.8 165.175 1623.85 165.484 1623.96 165.739C1624.16 166.225 1624.54 166.468 1625.08 166.468C1625.45 166.468 1625.76 166.314 1626 166.007C1626.25 165.696 1626.37 165.233 1626.37 164.618ZM1623.04 162.315H1623.8V162.939C1623.96 162.726 1624.14 162.56 1624.32 162.443C1624.59 162.267 1624.9 162.179 1625.26 162.179C1625.8 162.179 1626.25 162.384 1626.62 162.794C1626.99 163.202 1627.18 163.785 1627.18 164.543C1627.18 165.569 1626.91 166.301 1626.38 166.741C1626.04 167.019 1625.64 167.158 1625.19 167.158C1624.83 167.158 1624.54 167.081 1624.3 166.925C1624.16 166.837 1624 166.687 1623.83 166.473V168.876H1623.04V162.315ZM1628.11 162.315H1628.91V167H1628.11V162.315ZM1628.5 161.494C1628.41 161.494 1628.31 161.482 1628.23 161.458C1628.15 161.435 1628.08 161.401 1628.02 161.357C1627.96 161.313 1627.91 161.262 1627.88 161.204C1627.85 161.145 1627.83 161.081 1627.83 161.01C1627.83 160.937 1627.85 160.868 1627.88 160.804C1627.92 160.739 1627.96 160.684 1628.02 160.637C1628.08 160.59 1628.16 160.553 1628.24 160.527C1628.32 160.5 1628.41 160.487 1628.5 160.487C1628.6 160.487 1628.68 160.5 1628.76 160.527C1628.84 160.553 1628.91 160.59 1628.97 160.637C1629.03 160.684 1629.08 160.739 1629.12 160.804C1629.15 160.868 1629.17 160.937 1629.17 161.01C1629.17 161.081 1629.15 161.145 1629.12 161.204C1629.08 161.262 1629.04 161.313 1628.98 161.357C1628.92 161.401 1628.85 161.435 1628.77 161.458C1628.69 161.482 1628.6 161.494 1628.5 161.494ZM1628.11 162.315H1628.91V167H1628.11V162.315ZM1633.35 164.57C1633.35 164.13 1633.28 163.773 1633.14 163.498C1632.92 163.064 1632.53 162.847 1631.99 162.847C1631.5 162.847 1631.15 163.032 1630.93 163.401C1630.71 163.77 1630.6 164.215 1630.6 164.737C1630.6 165.238 1630.71 165.655 1630.93 165.989C1631.15 166.323 1631.5 166.49 1631.98 166.49C1632.5 166.49 1632.86 166.292 1633.05 165.897C1633.25 165.499 1633.35 165.056 1633.35 164.57ZM1634.18 164.548C1634.18 165.307 1633.99 165.934 1633.62 166.429C1633.25 166.924 1632.68 167.171 1631.9 167.171C1631.26 167.171 1630.74 166.953 1630.36 166.517C1629.98 166.077 1629.79 165.488 1629.79 164.75C1629.79 163.959 1629.99 163.329 1630.39 162.86C1630.79 162.392 1631.33 162.157 1632.01 162.157C1632.62 162.157 1633.13 162.359 1633.55 162.764C1633.97 163.168 1634.18 163.763 1634.18 164.548ZM1635.12 162.293H1635.87V162.961C1636.09 162.686 1636.33 162.488 1636.58 162.368C1636.83 162.248 1637.1 162.188 1637.41 162.188C1638.08 162.188 1638.53 162.421 1638.76 162.887C1638.89 163.142 1638.96 163.506 1638.96 163.981V167H1638.15V164.034C1638.15 163.747 1638.11 163.515 1638.02 163.339C1637.88 163.046 1637.63 162.9 1637.26 162.9C1637.07 162.9 1636.92 162.919 1636.8 162.957C1636.58 163.021 1636.39 163.15 1636.23 163.344C1636.1 163.499 1636.01 163.66 1635.97 163.827C1635.93 163.991 1635.91 164.227 1635.91 164.535V167H1635.12V162.293ZM1640.6 165.523C1640.62 165.787 1640.69 165.989 1640.8 166.13C1641 166.385 1641.34 166.512 1641.83 166.512C1642.13 166.512 1642.39 166.449 1642.61 166.323C1642.83 166.194 1642.94 165.997 1642.94 165.73C1642.94 165.528 1642.85 165.374 1642.67 165.269C1642.56 165.204 1642.33 165.129 1642 165.044L1641.37 164.886C1640.97 164.787 1640.67 164.675 1640.48 164.552C1640.14 164.338 1639.97 164.042 1639.97 163.665C1639.97 163.219 1640.13 162.859 1640.45 162.583C1640.77 162.308 1641.21 162.17 1641.75 162.17C1642.46 162.17 1642.97 162.378 1643.28 162.794C1643.48 163.058 1643.57 163.342 1643.57 163.647H1642.82C1642.8 163.468 1642.74 163.306 1642.63 163.159C1642.45 162.951 1642.13 162.847 1641.69 162.847C1641.39 162.847 1641.16 162.904 1641 163.019C1640.85 163.133 1640.78 163.284 1640.78 163.471C1640.78 163.676 1640.88 163.84 1641.08 163.963C1641.2 164.037 1641.37 164.101 1641.6 164.157L1642.12 164.284C1642.69 164.422 1643.07 164.555 1643.26 164.684C1643.57 164.886 1643.72 165.204 1643.72 165.638C1643.72 166.057 1643.56 166.418 1643.25 166.723C1642.93 167.028 1642.45 167.18 1641.8 167.18C1641.1 167.18 1640.6 167.022 1640.31 166.706C1640.02 166.386 1639.86 165.992 1639.84 165.523H1640.6ZM1644.63 160.522H1645.42V162.931C1645.61 162.693 1645.78 162.526 1645.93 162.43C1646.18 162.263 1646.5 162.179 1646.88 162.179C1647.56 162.179 1648.03 162.418 1648.27 162.896C1648.4 163.156 1648.47 163.518 1648.47 163.981V167H1647.65V164.034C1647.65 163.688 1647.61 163.435 1647.52 163.273C1647.38 163.016 1647.11 162.887 1646.71 162.887C1646.38 162.887 1646.09 163 1645.82 163.225C1645.55 163.451 1645.42 163.877 1645.42 164.504V167H1644.63V160.522ZM1649.64 162.315H1650.44V167H1649.64V162.315ZM1650.04 161.494C1649.94 161.494 1649.85 161.482 1649.76 161.458C1649.68 161.435 1649.61 161.401 1649.55 161.357C1649.49 161.313 1649.45 161.262 1649.41 161.204C1649.38 161.145 1649.36 161.081 1649.36 161.01C1649.36 160.937 1649.38 160.868 1649.42 160.804C1649.45 160.739 1649.5 160.684 1649.56 160.637C1649.62 160.59 1649.69 160.553 1649.77 160.527C1649.85 160.5 1649.94 160.487 1650.04 160.487C1650.13 160.487 1650.22 160.5 1650.29 160.527C1650.38 160.553 1650.45 160.59 1650.51 160.637C1650.57 160.684 1650.62 160.739 1650.65 160.804C1650.69 160.868 1650.7 160.937 1650.7 161.01C1650.7 161.081 1650.69 161.145 1650.65 161.204C1650.62 161.262 1650.57 161.313 1650.51 161.357C1650.46 161.401 1650.39 161.435 1650.3 161.458C1650.22 161.482 1650.13 161.494 1650.04 161.494ZM1649.64 162.315H1650.44V167H1649.64V162.315ZM1654.92 164.618C1654.92 164.243 1654.86 163.921 1654.75 163.651C1654.55 163.133 1654.17 162.874 1653.63 162.874C1653.08 162.874 1652.71 163.147 1652.5 163.695C1652.4 163.988 1652.34 164.36 1652.34 164.812C1652.34 165.175 1652.4 165.484 1652.5 165.739C1652.71 166.225 1653.08 166.468 1653.63 166.468C1654 166.468 1654.31 166.314 1654.55 166.007C1654.79 165.696 1654.92 165.233 1654.92 164.618ZM1651.58 162.315H1652.35V162.939C1652.51 162.726 1652.68 162.56 1652.87 162.443C1653.14 162.267 1653.45 162.179 1653.81 162.179C1654.34 162.179 1654.8 162.384 1655.17 162.794C1655.54 163.202 1655.73 163.785 1655.73 164.543C1655.73 165.569 1655.46 166.301 1654.92 166.741C1654.58 167.019 1654.19 167.158 1653.74 167.158C1653.38 167.158 1653.08 167.081 1652.84 166.925C1652.7 166.837 1652.55 166.687 1652.37 166.473V168.876H1651.58V162.315Z" fill="#B22C1B"/>
</g>
<path d="M1736.39 90.8179H1749.46V93.0151H1738.76V98.4595H1748.66V100.535H1738.76V106.614H1749.65V108.75H1736.39V90.8179ZM1754.74 95.6763V104.355C1754.74 105.023 1754.84 105.568 1755.05 105.991C1755.44 106.772 1756.17 107.163 1757.24 107.163C1758.77 107.163 1759.81 106.479 1760.36 105.112C1760.66 104.38 1760.81 103.375 1760.81 102.097V95.6763H1763.01V108.75H1760.94L1760.96 106.821C1760.68 107.318 1760.32 107.737 1759.9 108.079C1759.06 108.762 1758.04 109.104 1756.85 109.104C1754.98 109.104 1753.71 108.481 1753.04 107.236C1752.67 106.569 1752.49 105.678 1752.49 104.563V95.6763H1754.74ZM1766.52 95.6763H1768.6V97.9346C1768.77 97.4951 1769.19 96.9621 1769.86 96.3354C1770.53 95.7007 1771.3 95.3833 1772.17 95.3833C1772.21 95.3833 1772.28 95.3874 1772.37 95.3955C1772.47 95.4036 1772.64 95.4199 1772.88 95.4443V97.7637C1772.74 97.7393 1772.62 97.723 1772.51 97.7148C1772.4 97.7067 1772.28 97.7026 1772.15 97.7026C1771.05 97.7026 1770.2 98.0607 1769.6 98.7769C1769.01 99.4849 1768.71 100.303 1768.71 101.23V108.75H1766.52V95.6763ZM1783.78 102C1783.78 100.779 1783.58 99.786 1783.19 99.021C1782.57 97.8166 1781.51 97.2144 1779.99 97.2144C1778.65 97.2144 1777.67 97.7271 1777.06 98.7524C1776.45 99.7778 1776.15 101.015 1776.15 102.463C1776.15 103.855 1776.45 105.015 1777.06 105.942C1777.67 106.87 1778.64 107.334 1779.97 107.334C1781.42 107.334 1782.42 106.785 1782.96 105.686C1783.5 104.579 1783.78 103.35 1783.78 102ZM1786.07 101.938C1786.07 104.046 1785.56 105.788 1784.53 107.163C1783.51 108.538 1781.92 109.226 1779.76 109.226C1777.96 109.226 1776.53 108.62 1775.48 107.407C1774.42 106.187 1773.89 104.551 1773.89 102.5C1773.89 100.303 1774.45 98.5531 1775.56 97.251C1776.68 95.9489 1778.17 95.2979 1780.05 95.2979C1781.74 95.2979 1783.16 95.8594 1784.33 96.9824C1785.49 98.1055 1786.07 99.7575 1786.07 101.938ZM1797.79 102.134C1797.79 101.092 1797.64 100.197 1797.34 99.4482C1796.77 98.0078 1795.73 97.2876 1794.21 97.2876C1792.69 97.2876 1791.65 98.0485 1791.09 99.5703C1790.79 100.384 1790.64 101.418 1790.64 102.671C1790.64 103.68 1790.79 104.539 1791.09 105.247C1791.66 106.597 1792.7 107.273 1794.21 107.273C1795.24 107.273 1796.09 106.846 1796.76 105.991C1797.45 105.129 1797.79 103.843 1797.79 102.134ZM1788.52 95.7373H1790.66V97.4707C1791.1 96.8766 1791.58 96.4168 1792.1 96.0913C1792.84 95.603 1793.71 95.3589 1794.71 95.3589C1796.19 95.3589 1797.45 95.9285 1798.49 97.0679C1799.52 98.1991 1800.04 99.8185 1800.04 101.926C1800.04 104.775 1799.29 106.809 1797.8 108.03C1796.86 108.803 1795.76 109.189 1794.51 109.189C1793.52 109.189 1792.7 108.974 1792.03 108.542C1791.64 108.298 1791.2 107.879 1790.72 107.285V113.962H1788.52V95.7373ZM1812.74 97.7271C1813.18 98.3862 1813.48 99.1553 1813.62 100.034C1813.75 100.636 1813.82 101.597 1813.82 102.915H1804.23C1804.28 104.242 1804.59 105.308 1805.17 106.113C1805.76 106.911 1806.67 107.31 1807.9 107.31C1809.04 107.31 1809.96 106.931 1810.64 106.174C1811.03 105.735 1811.31 105.226 1811.47 104.648H1813.63C1813.58 105.129 1813.39 105.666 1813.06 106.26C1812.74 106.846 1812.39 107.326 1811.99 107.7C1811.32 108.351 1810.49 108.791 1809.51 109.019C1808.98 109.149 1808.38 109.214 1807.71 109.214C1806.09 109.214 1804.71 108.624 1803.58 107.444C1802.44 106.256 1801.88 104.596 1801.88 102.463C1801.88 100.364 1802.45 98.6589 1803.59 97.3486C1804.73 96.0384 1806.22 95.3833 1808.06 95.3833C1808.98 95.3833 1809.88 95.603 1810.75 96.0425C1811.62 96.4738 1812.29 97.0353 1812.74 97.7271ZM1811.56 101.169C1811.47 100.217 1811.26 99.4564 1810.94 98.8867C1810.33 97.8288 1809.33 97.2998 1807.92 97.2998C1806.91 97.2998 1806.07 97.666 1805.38 98.3984C1804.7 99.1227 1804.34 100.046 1804.3 101.169H1811.56ZM1820.56 107.322C1821.33 107.322 1822.08 107.143 1822.8 106.785C1824.02 106.191 1824.63 105.218 1824.63 103.867V102.097C1824.36 102.268 1824.02 102.41 1823.6 102.524C1823.17 102.638 1822.76 102.72 1822.35 102.769L1821.02 102.939C1820.22 103.045 1819.62 103.212 1819.23 103.44C1818.55 103.822 1818.21 104.433 1818.21 105.271C1818.21 105.906 1818.44 106.406 1818.91 106.772C1819.37 107.139 1819.92 107.322 1820.56 107.322ZM1823.53 100.828C1824.04 100.763 1824.38 100.551 1824.55 100.193C1824.65 99.9976 1824.69 99.7168 1824.69 99.3506C1824.69 98.6019 1824.43 98.0607 1823.89 97.7271C1823.36 97.3853 1822.6 97.2144 1821.61 97.2144C1820.46 97.2144 1819.64 97.5236 1819.16 98.1421C1818.9 98.4839 1818.72 98.9925 1818.64 99.668H1816.59C1816.63 98.0566 1817.15 96.9377 1818.15 96.311C1819.16 95.6763 1820.33 95.3589 1821.65 95.3589C1823.19 95.3589 1824.44 95.6519 1825.4 96.2378C1826.35 96.8237 1826.83 97.7352 1826.83 98.9722V106.504C1826.83 106.732 1826.87 106.915 1826.96 107.053C1827.06 107.192 1827.26 107.261 1827.56 107.261C1827.66 107.261 1827.77 107.257 1827.89 107.249C1828.01 107.232 1828.14 107.212 1828.28 107.188V108.811C1827.94 108.909 1827.68 108.97 1827.5 108.994C1827.32 109.019 1827.08 109.031 1826.77 109.031C1826.01 109.031 1825.46 108.762 1825.12 108.225C1824.94 107.94 1824.82 107.537 1824.74 107.017C1824.3 107.603 1823.65 108.111 1822.81 108.542C1821.98 108.974 1821.05 109.189 1820.04 109.189C1818.83 109.189 1817.84 108.823 1817.06 108.091C1816.3 107.35 1815.92 106.427 1815.92 105.32C1815.92 104.107 1816.3 103.167 1817.05 102.5C1817.81 101.833 1818.8 101.422 1820.03 101.267L1823.53 100.828ZM1830.44 95.6763H1832.53V97.5317C1833.15 96.7668 1833.8 96.2174 1834.5 95.8838C1835.19 95.5501 1835.96 95.3833 1836.8 95.3833C1838.66 95.3833 1839.91 96.0303 1840.56 97.3242C1840.92 98.0322 1841.1 99.0454 1841.1 100.364V108.75H1838.87V100.51C1838.87 99.7127 1838.75 99.0698 1838.51 98.5815C1838.12 97.7677 1837.41 97.3608 1836.39 97.3608C1835.87 97.3608 1835.44 97.4137 1835.11 97.5195C1834.5 97.6986 1833.98 98.0566 1833.52 98.5938C1833.15 99.0251 1832.91 99.4727 1832.8 99.9365C1832.69 100.392 1832.64 101.047 1832.64 101.902V108.75H1830.44V95.6763ZM1725.37 123.201H1723C1722.73 122.046 1722.19 121.13 1721.39 120.455C1720.59 119.779 1719.47 119.441 1718.02 119.441C1716.25 119.441 1714.82 120.064 1713.73 121.309C1712.65 122.546 1712.11 124.446 1712.11 127.01C1712.11 129.109 1712.6 130.814 1713.57 132.125C1714.56 133.427 1716.02 134.078 1717.97 134.078C1719.76 134.078 1721.12 133.39 1722.06 132.015C1722.55 131.29 1722.92 130.338 1723.17 129.158H1725.54C1725.32 131.046 1724.62 132.629 1723.44 133.907C1722.01 135.445 1720.09 136.214 1717.67 136.214C1715.59 136.214 1713.84 135.583 1712.43 134.322C1710.56 132.653 1709.63 130.078 1709.63 126.595C1709.63 123.95 1710.33 121.781 1711.73 120.088C1713.24 118.249 1715.33 117.33 1717.99 117.33C1720.26 117.33 1722.02 117.928 1723.28 119.124C1724.53 120.32 1725.23 121.679 1725.37 123.201ZM1728.21 117.757H1730.41V124.446C1730.93 123.787 1731.4 123.323 1731.81 123.055C1732.52 122.591 1733.4 122.359 1734.46 122.359C1736.36 122.359 1737.64 123.022 1738.32 124.349C1738.68 125.073 1738.87 126.078 1738.87 127.364V135.75H1736.61V127.51C1736.61 126.55 1736.49 125.846 1736.24 125.398C1735.84 124.682 1735.09 124.324 1734 124.324C1733.08 124.324 1732.26 124.638 1731.52 125.264C1730.78 125.891 1730.41 127.075 1730.41 128.816V135.75H1728.21V117.757ZM1746.15 134.322C1746.93 134.322 1747.68 134.143 1748.4 133.785C1749.62 133.191 1750.23 132.218 1750.23 130.867V129.097C1749.96 129.268 1749.62 129.41 1749.19 129.524C1748.77 129.638 1748.36 129.72 1747.95 129.769L1746.62 129.939C1745.82 130.045 1745.22 130.212 1744.82 130.44C1744.15 130.822 1743.81 131.433 1743.81 132.271C1743.81 132.906 1744.04 133.406 1744.51 133.772C1744.97 134.139 1745.52 134.322 1746.15 134.322ZM1749.13 127.828C1749.64 127.763 1749.97 127.551 1750.15 127.193C1750.24 126.998 1750.29 126.717 1750.29 126.351C1750.29 125.602 1750.02 125.061 1749.49 124.727C1748.96 124.385 1748.2 124.214 1747.2 124.214C1746.06 124.214 1745.24 124.524 1744.76 125.142C1744.49 125.484 1744.32 125.993 1744.24 126.668H1742.19C1742.23 125.057 1742.75 123.938 1743.75 123.311C1744.76 122.676 1745.93 122.359 1747.25 122.359C1748.79 122.359 1750.04 122.652 1751 123.238C1751.95 123.824 1752.43 124.735 1752.43 125.972V133.504C1752.43 133.732 1752.47 133.915 1752.56 134.053C1752.66 134.192 1752.86 134.261 1753.16 134.261C1753.26 134.261 1753.37 134.257 1753.49 134.249C1753.61 134.232 1753.74 134.212 1753.88 134.188V135.811C1753.54 135.909 1753.28 135.97 1753.1 135.994C1752.92 136.019 1752.68 136.031 1752.37 136.031C1751.61 136.031 1751.06 135.762 1750.72 135.225C1750.54 134.94 1750.41 134.537 1750.34 134.017C1749.89 134.603 1749.25 135.111 1748.41 135.542C1747.57 135.974 1746.65 136.189 1745.64 136.189C1744.43 136.189 1743.44 135.823 1742.66 135.091C1741.9 134.35 1741.52 133.427 1741.52 132.32C1741.52 131.107 1741.89 130.167 1742.65 129.5C1743.41 128.833 1744.4 128.422 1745.63 128.267L1749.13 127.828ZM1756.04 122.676H1758.21V124.532C1758.74 123.889 1759.21 123.421 1759.63 123.128C1760.35 122.632 1761.18 122.383 1762.1 122.383C1763.14 122.383 1763.98 122.64 1764.61 123.152C1764.97 123.445 1765.29 123.877 1765.59 124.446C1766.08 123.746 1766.65 123.23 1767.31 122.896C1767.97 122.554 1768.71 122.383 1769.53 122.383C1771.29 122.383 1772.48 123.018 1773.12 124.288C1773.46 124.971 1773.63 125.891 1773.63 127.046V135.75H1771.35V126.668C1771.35 125.797 1771.13 125.199 1770.69 124.874C1770.26 124.548 1769.73 124.385 1769.1 124.385C1768.24 124.385 1767.5 124.674 1766.87 125.252C1766.25 125.83 1765.94 126.794 1765.94 128.145V135.75H1763.71V127.217C1763.71 126.33 1763.6 125.683 1763.39 125.276C1763.06 124.666 1762.43 124.361 1761.52 124.361C1760.69 124.361 1759.94 124.682 1759.25 125.325C1758.58 125.968 1758.24 127.132 1758.24 128.816V135.75H1756.04V122.676ZM1785.96 129.134C1785.96 128.092 1785.81 127.197 1785.51 126.448C1784.94 125.008 1783.9 124.288 1782.38 124.288C1780.86 124.288 1779.82 125.049 1779.26 126.57C1778.96 127.384 1778.81 128.418 1778.81 129.671C1778.81 130.68 1778.96 131.539 1779.26 132.247C1779.83 133.597 1780.87 134.273 1782.38 134.273C1783.41 134.273 1784.26 133.846 1784.94 132.991C1785.62 132.129 1785.96 130.843 1785.96 129.134ZM1776.7 122.737H1778.83V124.471C1779.27 123.877 1779.75 123.417 1780.27 123.091C1781.01 122.603 1781.88 122.359 1782.88 122.359C1784.37 122.359 1785.62 122.929 1786.66 124.068C1787.69 125.199 1788.21 126.819 1788.21 128.926C1788.21 131.775 1787.46 133.809 1785.97 135.03C1785.03 135.803 1783.93 136.189 1782.68 136.189C1781.69 136.189 1780.87 135.974 1780.2 135.542C1779.81 135.298 1779.37 134.879 1778.89 134.285V140.962H1776.7V122.737ZM1790.78 122.737H1793.02V135.75H1790.78V122.737ZM1791.88 120.455C1791.61 120.455 1791.36 120.422 1791.12 120.357C1790.9 120.292 1790.7 120.198 1790.54 120.076C1790.38 119.954 1790.25 119.812 1790.15 119.649C1790.06 119.486 1790.01 119.307 1790.01 119.112C1790.01 118.908 1790.06 118.717 1790.16 118.538C1790.26 118.359 1790.39 118.204 1790.55 118.074C1790.72 117.944 1790.92 117.842 1791.15 117.769C1791.38 117.696 1791.62 117.659 1791.88 117.659C1792.14 117.659 1792.38 117.696 1792.6 117.769C1792.83 117.842 1793.02 117.944 1793.19 118.074C1793.36 118.204 1793.49 118.359 1793.59 118.538C1793.69 118.717 1793.74 118.908 1793.74 119.112C1793.74 119.307 1793.69 119.486 1793.59 119.649C1793.5 119.812 1793.37 119.954 1793.21 120.076C1793.05 120.198 1792.85 120.292 1792.63 120.357C1792.4 120.422 1792.15 120.455 1791.88 120.455ZM1790.78 122.737H1793.02V135.75H1790.78V122.737ZM1805.35 129C1805.35 127.779 1805.15 126.786 1804.76 126.021C1804.14 124.817 1803.08 124.214 1801.56 124.214C1800.22 124.214 1799.24 124.727 1798.63 125.752C1798.02 126.778 1797.72 128.015 1797.72 129.463C1797.72 130.855 1798.02 132.015 1798.63 132.942C1799.24 133.87 1800.21 134.334 1801.54 134.334C1802.99 134.334 1803.99 133.785 1804.53 132.686C1805.07 131.579 1805.35 130.35 1805.35 129ZM1807.64 128.938C1807.64 131.046 1807.13 132.788 1806.1 134.163C1805.08 135.538 1803.49 136.226 1801.33 136.226C1799.53 136.226 1798.1 135.62 1797.04 134.407C1795.99 133.187 1795.46 131.551 1795.46 129.5C1795.46 127.303 1796.02 125.553 1797.13 124.251C1798.25 122.949 1799.74 122.298 1801.62 122.298C1803.31 122.298 1804.73 122.859 1805.9 123.982C1807.06 125.105 1807.64 126.757 1807.64 128.938ZM1810.27 122.676H1812.35V124.532C1812.97 123.767 1813.63 123.217 1814.32 122.884C1815.01 122.55 1815.78 122.383 1816.62 122.383C1818.48 122.383 1819.73 123.03 1820.38 124.324C1820.74 125.032 1820.92 126.045 1820.92 127.364V135.75H1818.69V127.51C1818.69 126.713 1818.57 126.07 1818.33 125.582C1817.94 124.768 1817.24 124.361 1816.21 124.361C1815.69 124.361 1815.26 124.414 1814.93 124.52C1814.33 124.699 1813.8 125.057 1813.34 125.594C1812.98 126.025 1812.74 126.473 1812.62 126.937C1812.52 127.392 1812.46 128.047 1812.46 128.902V135.75H1810.27V122.676ZM1825.49 131.648C1825.55 132.381 1825.74 132.942 1826.04 133.333C1826.59 134.041 1827.55 134.395 1828.92 134.395C1829.73 134.395 1830.45 134.22 1831.07 133.87C1831.68 133.512 1831.99 132.963 1831.99 132.222C1831.99 131.661 1831.75 131.233 1831.25 130.94C1830.93 130.761 1830.31 130.554 1829.37 130.318L1827.62 129.878C1826.51 129.602 1825.69 129.292 1825.16 128.951C1824.21 128.357 1823.74 127.535 1823.74 126.485C1823.74 125.248 1824.19 124.247 1825.07 123.482C1825.97 122.717 1827.17 122.334 1828.67 122.334C1830.64 122.334 1832.06 122.912 1832.93 124.068C1833.48 124.8 1833.74 125.59 1833.73 126.436H1831.65C1831.61 125.94 1831.44 125.488 1831.13 125.081C1830.62 124.503 1829.75 124.214 1828.5 124.214C1827.67 124.214 1827.04 124.373 1826.61 124.69C1826.19 125.008 1825.98 125.427 1825.98 125.948C1825.98 126.517 1826.26 126.973 1826.82 127.315C1827.14 127.518 1827.62 127.697 1828.26 127.852L1829.71 128.206C1831.29 128.589 1832.35 128.959 1832.88 129.317C1833.74 129.878 1834.17 130.761 1834.17 131.966C1834.17 133.13 1833.72 134.135 1832.84 134.981C1831.96 135.827 1830.61 136.25 1828.81 136.25C1826.86 136.25 1825.48 135.811 1824.67 134.932C1823.86 134.045 1823.43 132.951 1823.38 131.648H1825.49ZM1836.68 117.757H1838.88V124.446C1839.4 123.787 1839.87 123.323 1840.28 123.055C1840.99 122.591 1841.87 122.359 1842.93 122.359C1844.83 122.359 1846.11 123.022 1846.79 124.349C1847.15 125.073 1847.34 126.078 1847.34 127.364V135.75H1845.08V127.51C1845.08 126.55 1844.96 125.846 1844.71 125.398C1844.31 124.682 1843.57 124.324 1842.47 124.324C1841.56 124.324 1840.73 124.638 1839.99 125.264C1839.25 125.891 1838.88 127.075 1838.88 128.816V135.75H1836.68V117.757ZM1850.6 122.737H1852.83V135.75H1850.6V122.737ZM1851.7 120.455C1851.43 120.455 1851.17 120.422 1850.94 120.357C1850.71 120.292 1850.52 120.198 1850.35 120.076C1850.19 119.954 1850.06 119.812 1849.96 119.649C1849.87 119.486 1849.83 119.307 1849.83 119.112C1849.83 118.908 1849.88 118.717 1849.97 118.538C1850.07 118.359 1850.2 118.204 1850.37 118.074C1850.54 117.944 1850.74 117.842 1850.96 117.769C1851.19 117.696 1851.44 117.659 1851.7 117.659C1851.96 117.659 1852.2 117.696 1852.42 117.769C1852.64 117.842 1852.84 117.944 1853 118.074C1853.17 118.204 1853.31 118.359 1853.4 118.538C1853.5 118.717 1853.55 118.908 1853.55 119.112C1853.55 119.307 1853.5 119.486 1853.4 119.649C1853.32 119.812 1853.19 119.954 1853.03 120.076C1852.86 120.198 1852.67 120.292 1852.44 120.357C1852.21 120.422 1851.96 120.455 1851.7 120.455ZM1850.6 122.737H1852.83V135.75H1850.6V122.737ZM1865.26 129.134C1865.26 128.092 1865.11 127.197 1864.81 126.448C1864.24 125.008 1863.19 124.288 1861.68 124.288C1860.16 124.288 1859.12 125.049 1858.56 126.57C1858.26 127.384 1858.1 128.418 1858.1 129.671C1858.1 130.68 1858.26 131.539 1858.56 132.247C1859.13 133.597 1860.17 134.273 1861.68 134.273C1862.71 134.273 1863.56 133.846 1864.23 132.991C1864.92 132.129 1865.26 130.843 1865.26 129.134ZM1855.99 122.737H1858.13V124.471C1858.57 123.877 1859.05 123.417 1859.57 123.091C1860.31 122.603 1861.18 122.359 1862.18 122.359C1863.66 122.359 1864.92 122.929 1865.95 124.068C1866.99 125.199 1867.5 126.819 1867.5 128.926C1867.5 131.775 1866.76 133.809 1865.27 135.03C1864.33 135.803 1863.23 136.189 1861.97 136.189C1860.99 136.189 1860.16 135.974 1859.5 135.542C1859.11 135.298 1858.67 134.879 1858.19 134.285V140.962H1855.99V122.737Z" fill="black"/>
<path d="M1741.63 150.975C1741.92 151.41 1742.11 151.917 1742.21 152.498C1742.29 152.895 1742.34 153.529 1742.34 154.399H1736.01C1736.04 155.274 1736.24 155.978 1736.63 156.51C1737.02 157.036 1737.62 157.299 1738.43 157.299C1739.19 157.299 1739.79 157.05 1740.24 156.55C1740.5 156.26 1740.68 155.924 1740.79 155.543H1742.21C1742.18 155.86 1742.05 156.214 1741.84 156.606C1741.63 156.993 1741.39 157.31 1741.13 157.557C1740.69 157.987 1740.14 158.277 1739.49 158.427C1739.14 158.513 1738.75 158.556 1738.31 158.556C1737.23 158.556 1736.32 158.167 1735.58 157.388C1734.83 156.604 1734.46 155.508 1734.46 154.101C1734.46 152.715 1734.83 151.59 1735.58 150.725C1736.34 149.86 1737.32 149.428 1738.53 149.428C1739.15 149.428 1739.74 149.573 1740.31 149.863C1740.89 150.148 1741.33 150.518 1741.63 150.975ZM1740.84 153.247C1740.79 152.618 1740.65 152.116 1740.43 151.74C1740.04 151.042 1739.37 150.693 1738.44 150.693C1737.78 150.693 1737.22 150.935 1736.77 151.418C1736.32 151.896 1736.08 152.506 1736.05 153.247H1740.84ZM1745.57 149.621V155.35C1745.57 155.79 1745.64 156.15 1745.78 156.429C1746.04 156.945 1746.52 157.203 1747.23 157.203C1748.24 157.203 1748.92 156.751 1749.29 155.849C1749.49 155.366 1749.59 154.702 1749.59 153.859V149.621H1751.04V158.25H1749.67L1749.68 156.977C1749.5 157.305 1749.26 157.581 1748.98 157.807C1748.43 158.258 1747.76 158.484 1746.97 158.484C1745.74 158.484 1744.9 158.073 1744.45 157.251C1744.21 156.811 1744.09 156.222 1744.09 155.487V149.621H1745.57ZM1760.11 152.522H1758.7C1758.61 151.99 1758.42 151.55 1758.11 151.2C1757.8 150.846 1757.31 150.669 1756.64 150.669C1755.71 150.669 1755.05 151.12 1754.65 152.022C1754.4 152.608 1754.27 153.33 1754.27 154.189C1754.27 155.054 1754.45 155.782 1754.82 156.373C1755.18 156.964 1755.76 157.259 1756.54 157.259C1757.14 157.259 1757.62 157.076 1757.97 156.711C1758.32 156.341 1758.56 155.836 1758.7 155.197H1760.11C1759.95 156.341 1759.54 157.178 1758.9 157.71C1758.26 158.237 1757.43 158.5 1756.43 158.5C1755.3 158.5 1754.4 158.089 1753.73 157.267C1753.06 156.44 1752.72 155.409 1752.72 154.173C1752.72 152.659 1753.09 151.48 1753.82 150.636C1754.56 149.793 1755.5 149.372 1756.64 149.372C1757.61 149.372 1758.4 149.608 1759 150.081C1759.62 150.553 1759.98 151.367 1760.11 152.522ZM1762.74 158.29C1762.57 158.29 1762.4 158.269 1762.24 158.226C1762.09 158.183 1761.96 158.121 1761.86 158.041C1761.75 157.96 1761.66 157.866 1761.6 157.759C1761.54 157.651 1761.51 157.533 1761.51 157.404C1761.51 157.27 1761.54 157.144 1761.61 157.025C1761.67 156.907 1761.76 156.805 1761.86 156.719C1761.98 156.633 1762.11 156.566 1762.26 156.518C1762.41 156.469 1762.57 156.445 1762.74 156.445C1762.91 156.445 1763.07 156.469 1763.22 156.518C1763.37 156.566 1763.5 156.633 1763.6 156.719C1763.72 156.805 1763.81 156.907 1763.87 157.025C1763.94 157.144 1763.97 157.27 1763.97 157.404C1763.97 157.533 1763.94 157.651 1763.87 157.759C1763.81 157.866 1763.73 157.96 1763.62 158.041C1763.51 158.121 1763.38 158.183 1763.23 158.226C1763.08 158.269 1762.92 158.29 1762.74 158.29ZM1766.15 149.662H1767.63V158.25H1766.15V149.662ZM1766.88 148.155C1766.7 148.155 1766.53 148.134 1766.38 148.091C1766.23 148.048 1766.1 147.986 1765.99 147.905C1765.88 147.825 1765.8 147.731 1765.73 147.623C1765.67 147.516 1765.64 147.398 1765.64 147.269C1765.64 147.135 1765.68 147.008 1765.74 146.89C1765.8 146.772 1765.89 146.67 1766 146.584C1766.11 146.498 1766.24 146.431 1766.39 146.383C1766.54 146.334 1766.7 146.31 1766.88 146.31C1767.05 146.31 1767.21 146.334 1767.35 146.383C1767.5 146.431 1767.63 146.498 1767.74 146.584C1767.85 146.67 1767.94 146.772 1768 146.89C1768.07 147.008 1768.1 147.135 1768.1 147.269C1768.1 147.398 1768.07 147.516 1768 147.623C1767.94 147.731 1767.86 147.825 1767.75 147.905C1767.65 147.986 1767.52 148.048 1767.37 148.091C1767.22 148.134 1767.05 148.155 1766.88 148.155ZM1766.15 149.662H1767.63V158.25H1766.15V149.662ZM1776.62 152.522H1775.21C1775.13 151.99 1774.93 151.55 1774.63 151.2C1774.32 150.846 1773.83 150.669 1773.15 150.669C1772.23 150.669 1771.57 151.12 1771.17 152.022C1770.91 152.608 1770.78 153.33 1770.78 154.189C1770.78 155.054 1770.97 155.782 1771.33 156.373C1771.7 156.964 1772.27 157.259 1773.06 157.259C1773.66 157.259 1774.13 157.076 1774.48 156.711C1774.84 156.341 1775.08 155.836 1775.21 155.197H1776.62C1776.46 156.341 1776.06 157.178 1775.42 157.71C1774.77 158.237 1773.95 158.5 1772.94 158.5C1771.81 158.5 1770.92 158.089 1770.24 157.267C1769.57 156.44 1769.24 155.409 1769.24 154.173C1769.24 152.659 1769.6 151.48 1770.34 150.636C1771.08 149.793 1772.01 149.372 1773.15 149.372C1774.12 149.372 1774.91 149.608 1775.52 150.081C1776.13 150.553 1776.5 151.367 1776.62 152.522ZM1784.08 153.883C1784.08 153.196 1783.98 152.605 1783.78 152.111C1783.4 151.16 1782.72 150.685 1781.72 150.685C1780.71 150.685 1780.02 151.187 1779.65 152.191C1779.46 152.729 1779.36 153.411 1779.36 154.238C1779.36 154.904 1779.46 155.47 1779.65 155.938C1780.03 156.829 1780.72 157.275 1781.72 157.275C1782.39 157.275 1782.95 156.993 1783.4 156.429C1783.85 155.86 1784.08 155.011 1784.08 153.883ZM1777.96 149.662H1779.37V150.806C1779.66 150.414 1779.98 150.11 1780.32 149.895C1780.81 149.573 1781.39 149.412 1782.05 149.412C1783.02 149.412 1783.85 149.788 1784.54 150.54C1785.22 151.286 1785.56 152.355 1785.56 153.746C1785.56 155.626 1785.07 156.969 1784.08 157.775C1783.46 158.285 1782.74 158.54 1781.91 158.54C1781.26 158.54 1780.71 158.398 1780.27 158.113C1780.02 157.952 1779.73 157.675 1779.41 157.283V161.69H1777.96V149.662ZM1794.06 152.522H1792.65C1792.56 151.99 1792.37 151.55 1792.06 151.2C1791.75 150.846 1791.26 150.669 1790.59 150.669C1789.66 150.669 1789 151.12 1788.6 152.022C1788.35 152.608 1788.22 153.33 1788.22 154.189C1788.22 155.054 1788.4 155.782 1788.77 156.373C1789.13 156.964 1789.71 157.259 1790.49 157.259C1791.09 157.259 1791.57 157.076 1791.92 156.711C1792.27 156.341 1792.51 155.836 1792.65 155.197H1794.06C1793.9 156.341 1793.5 157.178 1792.85 157.71C1792.21 158.237 1791.38 158.5 1790.38 158.5C1789.25 158.5 1788.35 158.089 1787.68 157.267C1787.01 156.44 1786.67 155.409 1786.67 154.173C1786.67 152.659 1787.04 151.48 1787.77 150.636C1788.51 149.793 1789.45 149.372 1790.59 149.372C1791.56 149.372 1792.35 149.608 1792.96 150.081C1793.57 150.553 1793.94 151.367 1794.06 152.522ZM1796.69 158.29C1796.52 158.29 1796.35 158.269 1796.19 158.226C1796.04 158.183 1795.91 158.121 1795.81 158.041C1795.7 157.96 1795.61 157.866 1795.55 157.759C1795.49 157.651 1795.46 157.533 1795.46 157.404C1795.46 157.27 1795.49 157.144 1795.56 157.025C1795.62 156.907 1795.71 156.805 1795.82 156.719C1795.93 156.633 1796.06 156.566 1796.21 156.518C1796.36 156.469 1796.52 156.445 1796.69 156.445C1796.87 156.445 1797.02 156.469 1797.17 156.518C1797.32 156.566 1797.45 156.633 1797.56 156.719C1797.67 156.805 1797.76 156.907 1797.82 157.025C1797.89 157.144 1797.92 157.27 1797.92 157.404C1797.92 157.533 1797.89 157.651 1797.82 157.759C1797.76 157.866 1797.68 157.96 1797.57 158.041C1797.46 158.121 1797.34 158.183 1797.19 158.226C1797.03 158.269 1796.87 158.29 1796.69 158.29ZM1804.92 149.968C1805.19 150.156 1805.47 150.43 1805.76 150.79V149.702H1807.09V157.549C1807.09 158.645 1806.93 159.51 1806.61 160.143C1806.01 161.314 1804.87 161.9 1803.2 161.9C1802.27 161.9 1801.49 161.69 1800.86 161.271C1800.23 160.858 1799.87 160.208 1799.8 159.322H1801.27C1801.34 159.708 1801.48 160.006 1801.69 160.216C1802.02 160.538 1802.53 160.699 1803.24 160.699C1804.35 160.699 1805.08 160.307 1805.42 159.523C1805.62 159.061 1805.72 158.237 1805.7 157.05C1805.41 157.49 1805.06 157.818 1804.65 158.032C1804.25 158.247 1803.71 158.355 1803.03 158.355C1802.1 158.355 1801.28 158.024 1800.58 157.364C1799.88 156.698 1799.53 155.599 1799.53 154.069C1799.53 152.624 1799.88 151.496 1800.58 150.685C1801.29 149.874 1802.15 149.468 1803.15 149.468C1803.82 149.468 1804.41 149.635 1804.92 149.968ZM1803.41 150.749C1802.39 150.749 1801.69 151.227 1801.32 152.183C1801.12 152.694 1801.02 153.362 1801.02 154.189C1801.02 155.162 1801.22 155.903 1801.61 156.413C1802.01 156.918 1802.54 157.17 1803.2 157.17C1804.25 157.17 1804.98 156.7 1805.4 155.76C1805.64 155.229 1805.76 154.608 1805.76 153.899C1805.76 152.831 1805.54 152.038 1805.1 151.523C1804.66 151.007 1804.09 150.749 1803.41 150.749ZM1809.33 146.415H1810.78V158.25H1809.33V146.415ZM1818.9 153.795C1818.9 152.989 1818.77 152.334 1818.51 151.829C1818.1 151.034 1817.4 150.636 1816.4 150.636C1815.51 150.636 1814.87 150.975 1814.47 151.652C1814.06 152.328 1813.86 153.145 1813.86 154.101C1813.86 155.019 1814.06 155.785 1814.47 156.397C1814.87 157.009 1815.51 157.315 1816.38 157.315C1817.35 157.315 1818 156.953 1818.36 156.228C1818.72 155.497 1818.9 154.686 1818.9 153.795ZM1820.41 153.754C1820.41 155.146 1820.07 156.295 1819.4 157.203C1818.72 158.11 1817.67 158.564 1816.25 158.564C1815.06 158.564 1814.12 158.164 1813.42 157.364C1812.72 156.558 1812.37 155.479 1812.37 154.125C1812.37 152.675 1812.74 151.52 1813.48 150.661C1814.21 149.801 1815.2 149.372 1816.44 149.372C1817.55 149.372 1818.49 149.742 1819.26 150.483C1820.03 151.225 1820.41 152.315 1820.41 153.754ZM1822.03 146.375H1823.44V150.669C1823.76 150.255 1824.14 149.941 1824.58 149.726C1825.02 149.506 1825.5 149.396 1826.01 149.396C1827.09 149.396 1827.96 149.766 1828.62 150.508C1829.29 151.243 1829.63 152.331 1829.63 153.771C1829.63 155.135 1829.3 156.268 1828.64 157.17C1827.98 158.073 1827.06 158.524 1825.89 158.524C1825.24 158.524 1824.68 158.365 1824.23 158.049C1823.96 157.861 1823.68 157.56 1823.37 157.146V158.25H1822.03V146.375ZM1828.15 153.843C1828.15 152.935 1827.95 152.183 1827.56 151.587C1827.17 150.991 1826.6 150.693 1825.84 150.693C1825.18 150.693 1824.6 150.937 1824.1 151.426C1823.61 151.915 1823.36 152.72 1823.36 153.843C1823.36 154.654 1823.46 155.312 1823.67 155.817C1824.05 156.768 1824.76 157.243 1825.8 157.243C1826.59 157.243 1827.17 156.931 1827.56 156.308C1827.95 155.685 1828.15 154.864 1828.15 153.843ZM1833.99 157.307C1834.5 157.307 1834.99 157.189 1835.47 156.953C1836.28 156.561 1836.68 155.919 1836.68 155.027V153.859C1836.5 153.972 1836.27 154.066 1835.99 154.141C1835.71 154.216 1835.44 154.27 1835.17 154.302L1834.29 154.415C1833.77 154.485 1833.37 154.595 1833.11 154.745C1832.66 154.998 1832.44 155.401 1832.44 155.954C1832.44 156.373 1832.59 156.703 1832.9 156.945C1833.21 157.187 1833.57 157.307 1833.99 157.307ZM1835.95 153.021C1836.29 152.978 1836.51 152.839 1836.62 152.602C1836.69 152.473 1836.72 152.288 1836.72 152.046C1836.72 151.552 1836.54 151.195 1836.19 150.975C1835.84 150.749 1835.34 150.636 1834.68 150.636C1833.92 150.636 1833.39 150.841 1833.07 151.249C1832.89 151.474 1832.78 151.81 1832.72 152.256H1831.37C1831.4 151.192 1831.74 150.454 1832.4 150.04C1833.07 149.621 1833.84 149.412 1834.71 149.412C1835.73 149.412 1836.55 149.605 1837.19 149.992C1837.81 150.379 1838.13 150.98 1838.13 151.797V156.768C1838.13 156.918 1838.16 157.039 1838.22 157.13C1838.28 157.221 1838.41 157.267 1838.61 157.267C1838.68 157.267 1838.75 157.264 1838.83 157.259C1838.91 157.248 1839 157.235 1839.09 157.219V158.29C1838.86 158.355 1838.69 158.395 1838.57 158.411C1838.45 158.427 1838.29 158.435 1838.09 158.435C1837.59 158.435 1837.23 158.258 1837 157.904C1836.88 157.716 1836.8 157.45 1836.75 157.106C1836.46 157.493 1836.03 157.828 1835.48 158.113C1834.93 158.398 1834.32 158.54 1833.65 158.54C1832.85 158.54 1832.19 158.298 1831.68 157.815C1831.18 157.326 1830.93 156.717 1830.93 155.986C1830.93 155.186 1831.18 154.565 1831.68 154.125C1832.18 153.685 1832.83 153.413 1833.64 153.311L1835.95 153.021ZM1840.55 146.415H1842V158.25H1840.55V146.415Z" fill="black"/>
<path d="M1733.88 159.902H1843.12V160.715H1733.88V159.902Z" fill="black"/>
<defs>
<clipPath id="clip0_5557_14754">
<rect width="128" height="98" fill="white" transform="translate(1555.5 75)"/>
</clipPath>
</defs>
</svg>
