<svg width="106" height="110" viewBox="0 0 106 110" fill="none" xmlns="http://www.w3.org/2000/svg">
<path d="M18.3962 95.1503C18.7012 94.8473 18.8822 94.4113 18.8822 93.9493C18.8822 92.8703 16.6422 90.9283 16.6422 90.9283C16.4462 90.7443 16.2602 90.5483 16.0672 90.3613L13.9462 92.4833C13.6412 92.7853 13.2422 93.1823 13.2422 93.6453C13.2422 93.6963 13.2642 93.7453 13.2722 93.7963C13.3672 93.8603 16.9222 96.2853 18.3962 95.1503Z" fill="#002F5E"/>
<path d="M89.917 90.374C99.823 80.802 106 67.441 106 52.661C106 23.629 82.226 0.008 53 0C23.774 0.008 0 23.629 0 52.661C0 67.435 6.172 80.79 16.071 90.361C16.264 90.548 16.45 90.744 16.646 90.928C16.646 90.928 18.886 92.87 18.886 93.949C18.886 94.411 18.704 94.847 18.4 95.15L18.8254 94.7224L25.163 88.352C25.467 88.049 25.656 87.631 25.656 87.169C25.656 86.635 25.404 86.16 25.012 85.853C15.603 77.911 9.417 65.888 9.417 52.661C9.417 28.749 28.929 9.363 53 9.355C77.071 9.363 96.583 28.749 96.583 52.661C96.583 65.888 90.397 77.911 80.988 85.853C80.596 86.16 80.344 86.635 80.344 87.169C80.344 87.631 80.532 88.049 80.837 88.352L87.384 94.9333L87.509 95.059C87.249 94.762 87.083 94.372 87.083 93.949C87.083 92.87 89.323 90.928 89.323 90.928C89.519 90.744 89.704 90.548 89.898 90.361" fill="#447FC1"/>
<path d="M87.5719 95.1591C87.5047 95.0924 87.4436 95.0191 87.389 94.9406C87.3873 94.9382 87.3856 94.9357 87.384 94.9333C87.194 94.6567 87.0859 94.3152 87.0859 93.9581C87.0859 92.8791 89.3259 90.9371 89.3259 90.9371C89.5219 90.7531 89.7069 90.5571 89.9009 90.3701L92.0219 92.4911C92.3269 92.7931 92.7259 93.1911 92.7259 93.6531C92.7259 93.7051 92.7039 93.7531 92.6959 93.8041C92.6019 93.8691 89.0459 96.2931 87.5719 95.1591Z" fill="#002F5E"/>
<path d="M23.1794 90.3711L18.8254 94.7224L18.3974 95.1501C16.9224 96.2851 13.3684 93.8591 13.2734 93.7951C13.3494 94.2701 13.7434 94.7041 14.0984 94.9811C24.3484 104.241 38.0844 109.996 52.9974 110C67.9104 109.996 81.6464 104.241 91.8954 94.9811C92.2494 94.7051 92.6444 94.2701 92.7204 93.7951C92.6264 93.8591 89.0714 96.2851 87.5974 95.1501L87.389 94.9406L82.8424 90.3711C74.6244 96.8021 64.2624 100.646 53.0124 100.646C41.7614 100.646 31.3974 96.8031 23.1794 90.3711Z" fill="#0072BC"/>
<path d="M25.163 88.352L18.8254 94.7224L23.1794 90.3711C31.3974 96.8031 41.7614 100.646 53.0124 100.646C64.2624 100.646 74.6244 96.8021 82.8424 90.3711L87.389 94.9406C87.3873 94.9382 87.3856 94.9357 87.384 94.9333L80.837 88.352C80.532 88.049 80.344 87.631 80.344 87.169C80.344 86.635 80.596 86.16 80.988 85.853C90.397 77.911 96.583 65.888 96.583 52.661C96.583 28.749 77.071 9.363 53 9.355C28.929 9.363 9.417 28.749 9.417 52.661C9.417 65.888 15.603 77.911 25.012 85.853C25.404 86.16 25.656 86.635 25.656 87.169C25.656 87.631 25.467 88.049 25.163 88.352Z" fill="white"/>
<path d="M47.0214 74.9365H44.0234V76.1105H47.0214V74.9365Z" fill="#9B6704"/>
<path d="M62.0553 74.9365H59.0703V76.1105H62.0553V74.9365Z" fill="#9B6704"/>
<path d="M54.8037 74.9365H51.2188V76.1105H54.8037V74.9365Z" fill="#9B6704"/>
<path d="M38.5001 33.407H40.3571V32.207H38.5001L9.56013 42.669L9.20312 43.999L38.5001 33.407Z" fill="#9B6704"/>
<path d="M40.3572 36.6196V34.2256H38.5002L9.30925 44.7736L8.78125 47.3586L38.5002 36.6196H40.3572Z" fill="#9B6704"/>
<path d="M67.5445 33.407L96.8415 43.999L96.4835 42.669L67.5445 32.207H65.6875V33.407H67.5445Z" fill="#9B6704"/>
<path d="M97.2635 47.3586L96.7355 44.7736L67.5445 34.2256H65.6875V36.6196H67.5445L97.2635 47.3586Z" fill="#9B6704"/>
<path d="M65.0942 29.1392V28.3602C65.0942 26.2102 60.0122 24.4592 53.6322 24.3562V21.6292C53.9332 21.5152 54.2692 21.4072 54.4502 21.4072C55.2072 21.4072 56.5682 22.3202 57.3242 22.3592C57.7022 22.3782 58.7612 21.8832 58.7612 21.8832V18.0772C58.7612 18.0772 57.7032 18.5532 57.3242 18.5532C56.5672 18.5532 55.2062 17.6402 54.4502 17.6012C54.0722 17.5812 53.0132 18.0772 53.0132 18.0772V24.3482C46.3712 24.3532 40.9922 26.1482 40.9922 28.3622V29.1422C43.0832 27.1242 47.6312 25.7522 53.0432 25.7522C58.4552 25.7522 63.0032 27.1222 65.0942 29.1392Z" fill="#9B6704"/>
<path d="M65.0942 35.4707V30.4497C63.7232 28.2667 58.7672 26.5947 53.0432 26.5947C47.3182 26.5947 42.3612 28.2677 40.9922 30.4507V35.4707C43.0832 33.8037 47.6312 32.6707 53.0432 32.6707C58.4552 32.6707 63.0032 33.8037 65.0942 35.4707Z" fill="#9B6704"/>
<path d="M62.0553 34.8191C61.1963 34.5151 60.2023 34.2481 59.0703 34.0371V37.2091L62.0553 37.8031V34.8191Z" fill="#9B6704"/>
<path d="M47.0214 73.1221H44.0234V74.3421H47.0214V73.1221Z" fill="#9B6704"/>
<path d="M62.0553 73.1221H59.0703V74.3421H62.0553V73.1221Z" fill="#9B6704"/>
<path d="M47.018 39.1508V38.0928L44 38.7068V48.1768L47.018 47.5628V44.0128L44.854 44.4558V39.5938L47.018 39.1508Z" fill="#9B6704"/>
<path d="M47.018 49.308V48.249L44 48.861V58.332L47.018 57.721V54.17L44.853 54.613V49.751L47.018 49.308Z" fill="#9B6704"/>
<path d="M62.0763 38.7067L59.0703 38.0957V39.1537L61.2233 39.5937V44.4557L59.0703 44.0157V47.5657L62.0763 48.1767V38.7067Z" fill="#9B6704"/>
<path d="M62.0763 48.861L59.0703 48.252V49.311L61.2233 49.751V54.613L59.0703 54.172V57.724L62.0763 58.332V48.861Z" fill="#9B6704"/>
<path d="M54.8027 37.5752H51.2188V47.0452H54.8047L54.8027 37.5752ZM54.2928 43.4952H51.7287V38.6332H54.2928V43.4952Z" fill="#9B6704"/>
<path d="M54.8057 47.7314H51.2188V57.2034H54.8047L54.8057 47.7314ZM54.2948 53.6524H51.7287V48.7904H54.2948V53.6524Z" fill="#9B6704"/>
<path d="M54.8037 33.5676C54.2287 33.5406 53.6507 33.5156 53.0417 33.5156C52.4117 33.5156 51.8127 33.5406 51.2188 33.5696V36.9236H54.8037V33.5676Z" fill="#9B6704"/>
<path d="M54.8037 73.1221H51.2188V74.3421H54.8037V73.1221Z" fill="#9B6704"/>
<path d="M47.0214 34.0361C45.8844 34.2481 44.8854 34.5161 44.0234 34.8221V37.7891L47.0214 37.1921V34.0361Z" fill="#9B6704"/>
<path d="M95.8627 50.5528V48.1578L91.6617 46.6398V73.1138H89.2517V67.5218L91.0427 67.6548V65.2858L89.2517 65.1338V62.4398L91.0427 62.7538V60.3588L89.2517 60.0458V55.3818L91.0427 55.8588V53.4648L89.2517 52.9878V48.1628L91.0427 48.8098V46.4158L86.8407 44.8968V73.1128H84.4307V67.0918L86.2217 67.2478V64.8528L84.4307 64.6968V61.6138L86.2217 61.9278V59.5328L84.4307 59.2198V54.0948L86.2217 54.5728V52.1778L84.4307 51.6998V46.4178L86.2217 47.0648V44.6708L82.0207 43.1528V73.1108H79.6107V66.6708L81.4017 66.8258V64.4318L79.6107 64.2758V60.7678L81.4017 61.0808V58.6868L79.6107 58.3738V52.8078L81.4017 53.2858V50.8908L79.6107 50.4138V44.6798L81.4017 45.3268V42.9328L77.2007 41.4148V73.1148H74.7897V66.2548L76.5817 66.4108V64.0168L74.7897 63.8608V59.9268L76.5817 60.2408V57.8468L74.7897 57.5328V51.5268L76.5817 52.0038V49.6098L74.7897 49.1318V42.9368L76.5817 43.5838V41.1898L72.3797 39.6708V73.1128H69.9697V65.8348L71.7617 65.9908V63.5958L69.9697 63.4398V59.0808L71.7617 59.3948V56.9998L69.9697 56.6868V50.2388L71.7617 50.7168V48.3228L69.9697 47.8448V41.1928L71.7617 41.8398V39.4458L67.5767 37.9338L67.5597 76.6308H66.9237V37.9048H65.6857V76.6308H65.0687L65.0967 36.6108C64.6537 36.0528 63.8067 35.5188 62.6647 35.0508V77.8228H62.0577V76.6998H59.0727V77.8238H58.4567V33.9388C57.5157 33.7868 56.5157 33.6618 55.4257 33.5928V77.8308H54.8087V76.6998H51.2237V77.8238H50.6067V33.5988C49.5427 33.6688 48.5627 33.7898 47.6407 33.9388V77.8238H47.0237V76.6998H44.0257V77.8238H43.4087V35.0598C42.2767 35.5268 41.4357 36.0578 40.9957 36.6128V76.6998H40.9777V76.6308H40.3587V37.9048H39.1207V76.6308H38.4827L38.4667 37.9358L34.2817 39.4478V41.8418L36.0727 41.1948V47.8468L34.2817 48.3248V50.7188L36.0727 50.2408V56.6888L34.2817 57.0018V59.3968L36.0727 59.0828V63.4418L34.2817 63.5978V65.9928L36.0727 65.8368V73.1148H33.6627V39.6718L29.4607 41.1908V43.5848L31.2527 42.9378V49.1328L29.4607 49.6108V52.0048L31.2527 51.5278V57.5338L29.4607 57.8478V60.2418L31.2527 59.9278V63.8618L29.4607 64.0178V66.4118L31.2527 66.2558V73.1158H28.8417V41.4158L24.6407 42.9338V45.3278L26.4317 44.6808V50.4188L24.6407 50.8958V53.2908L26.4317 52.8128V58.3788L24.6407 58.6918V61.0858L26.4317 60.7728V64.2808L24.6407 64.4368V66.8308L26.4317 66.6758V73.1158H24.0217V43.1568L19.8207 44.6748V47.0688L21.6117 46.4218V51.7038L19.8207 52.1818V54.5768L21.6117 54.0988V59.2238L19.8207 59.5368V61.9318L21.6117 61.6178V64.7008L19.8207 64.8568V67.2518L21.6117 67.0958V73.1168H19.2017V44.8978L14.9997 46.4168V48.8108L16.7907 48.1638V52.9888L14.9997 53.4658V55.8598L16.7907 55.3828V60.0468L14.9997 60.3588V62.7538L16.7907 62.4398V65.1348L14.9997 65.2868V67.6558L16.7907 67.5228V73.1148H14.3807V46.6408L10.1797 48.1588V50.5538L11.9707 49.9068V54.2748L10.1797 54.7528V57.1478L11.9707 56.6698V60.8928L10.1797 61.2058V63.5998L11.9707 63.2858V65.5458L10.2597 65.6918C10.4367 66.1748 10.7047 67.1948 11.0207 67.9518L11.0347 67.9678L12.1637 67.8718V70.2658L11.9707 70.2808V70.5878L14.2137 74.3538V75.3488H14.5197L15.4817 76.6358H16.7517V77.8358H16.1417L16.7907 79.0698V79.0998H89.2527V79.0648L89.9017 77.8308H89.2917V76.6308H90.5617L91.5237 75.3438H91.8297V74.3498L94.0727 70.5838V70.2768L93.8807 70.2618V67.8678L95.0097 67.9638L95.0237 67.9478C95.3387 67.1908 95.6067 66.1708 95.7847 65.6878L94.0737 65.5418V63.2818L95.8647 63.5958V61.2018L94.0737 60.8888V56.6658L95.8647 57.1438V54.7488L94.0737 54.2708V49.9028L95.8627 50.5528ZM21.6107 77.8308H19.2007V76.6308H21.6107V77.8308ZM26.4317 77.8308H24.0217V76.6308H26.4317V77.8308ZM31.2517 77.8308H28.8407V76.6308H31.2517V77.8308ZM36.0727 77.8308H33.6627V76.6308H36.0727V77.8308ZM72.3797 77.8308H69.9697V76.6308H72.3797V77.8308ZM77.2007 77.8308H74.7897V76.6308H77.2007V77.8308ZM82.0207 77.8308H79.6107V76.6308H82.0207V77.8308ZM86.8407 77.8308H84.4307V76.6308H86.8407V77.8308Z" fill="#9B6704"/>
<path d="M18.3962 95.1503C18.7012 94.8473 18.8822 94.4113 18.8822 93.9493C18.8822 92.8703 16.6422 90.9283 16.6422 90.9283C16.4462 90.7443 16.2602 90.5483 16.0672 90.3613L13.9462 92.4833C13.6412 92.7853 13.2422 93.1823 13.2422 93.6453C13.2422 93.6963 13.2642 93.7453 13.2722 93.7963C13.3672 93.8603 16.9222 96.2853 18.3962 95.1503Z" fill="#002F5E"/>
<path d="M89.917 90.374C99.823 80.802 106 67.441 106 52.661C106 23.629 82.226 0.008 53 0C23.774 0.008 0 23.629 0 52.661C0 67.435 6.172 80.79 16.071 90.361C16.264 90.548 16.45 90.744 16.646 90.928C16.646 90.928 18.886 92.87 18.886 93.949C18.886 94.411 18.704 94.847 18.4 95.15L18.8254 94.7224L25.163 88.352C25.467 88.049 25.656 87.631 25.656 87.169C25.656 86.635 25.404 86.16 25.012 85.853C15.603 77.911 9.417 65.888 9.417 52.661C9.417 28.749 28.929 9.363 53 9.355C77.071 9.363 96.583 28.749 96.583 52.661C96.583 65.888 90.397 77.911 80.988 85.853C80.596 86.16 80.344 86.635 80.344 87.169C80.344 87.631 80.532 88.049 80.837 88.352L87.384 94.9333L87.509 95.059C87.249 94.762 87.083 94.372 87.083 93.949C87.083 92.87 89.323 90.928 89.323 90.928C89.519 90.744 89.704 90.548 89.898 90.361" fill="#447FC1"/>
<path d="M87.5719 95.1591C87.5047 95.0924 87.4436 95.0191 87.389 94.9406C87.3873 94.9382 87.3856 94.9357 87.384 94.9333C87.194 94.6567 87.0859 94.3152 87.0859 93.9581C87.0859 92.8791 89.3259 90.9371 89.3259 90.9371C89.5219 90.7531 89.7069 90.5571 89.9009 90.3701L92.0219 92.4911C92.3269 92.7931 92.7259 93.1911 92.7259 93.6531C92.7259 93.7051 92.7039 93.7531 92.6959 93.8041C92.6019 93.8691 89.0459 96.2931 87.5719 95.1591Z" fill="#002F5E"/>
<path d="M23.1794 90.3711L18.8254 94.7224L18.3974 95.1501C16.9224 96.2851 13.3684 93.8591 13.2734 93.7951C13.3494 94.2701 13.7434 94.7041 14.0984 94.9811C24.3484 104.241 38.0844 109.996 52.9974 110C67.9104 109.996 81.6464 104.241 91.8954 94.9811C92.2494 94.7051 92.6444 94.2701 92.7204 93.7951C92.6264 93.8591 89.0714 96.2851 87.5974 95.1501L87.389 94.9406L82.8424 90.3711C74.6244 96.8021 64.2624 100.646 53.0124 100.646C41.7614 100.646 31.3974 96.8031 23.1794 90.3711Z" fill="#0072BC"/>
<path d="M36.8397 92.9146C35.4637 92.9146 34.9688 92.0286 34.9688 90.1596V87.6486C34.9688 85.7796 35.4637 84.8936 36.8397 84.8936C38.0547 84.8936 38.7108 85.7056 38.7108 87.2646V87.6486H37.5387V87.0406C37.5387 86.2606 37.3457 85.8756 36.8397 85.8756C36.3337 85.8756 36.1408 86.2596 36.1408 87.0406V90.7676C36.1408 91.5476 36.3337 91.9326 36.8397 91.9326C37.3457 91.9326 37.5387 91.5476 37.5387 90.7676V90.0296H38.7108V90.5216C38.7118 92.0916 38.0657 92.9146 36.8397 92.9146Z" fill="#6B4500"/>
<path d="M39.9375 85.042H43.5075V92.765H42.3565V86.089H41.0875V92.765H39.9375V85.042Z" fill="#6B4500"/>
<path d="M45.7271 87.937C45.8991 87.532 46.2431 87.265 46.8351 87.265C48.0501 87.265 48.2001 88.216 48.2001 89.199V90.844C48.2001 91.976 47.8781 92.873 46.5661 92.873C45.2971 92.873 44.9531 92.008 44.9531 90.833V89.188C44.9531 88.739 44.9631 88.034 45.0281 87.521C45.1251 86.805 45.3181 86.015 45.9641 85.608C46.6311 85.192 47.5231 85.202 48.0931 85.043V86.079C47.6091 86.271 46.8991 86.325 46.5231 86.474C45.8131 86.762 45.7381 87.244 45.7061 87.937H45.7271ZM47.1251 91.173V88.844C47.1251 88.396 46.8671 88.16 46.5771 88.16C46.2541 88.16 46.0291 88.373 46.0291 88.844V91.183C46.0291 91.749 46.2221 91.974 46.5671 91.974C46.8891 91.975 47.1251 91.771 47.1251 91.173Z" fill="#6B4500"/>
<path d="M49.6406 85.042H52.8986V86.109H50.7906V92.764H49.6406V85.042Z" fill="#6B4500"/>
<path d="M53.7526 91.771C53.8596 91.804 53.9566 91.846 54.1826 91.846C54.5156 91.846 54.7316 91.75 54.8926 91.45C54.9466 91.354 55.0426 91.076 55.0636 90.938L53.5156 85.042H54.7086L55.6236 88.962L56.2146 85.042H57.3646L56.2146 90.286C56.0316 91.099 55.9026 91.792 55.6336 92.252C55.4286 92.605 55.0956 92.914 54.3106 92.914C54.1056 92.914 53.8916 92.85 53.7516 92.808L53.7526 91.771Z" fill="#6B4500"/>
<path d="M58.2422 85.042H61.8122V92.765H60.6622V86.089H59.3932V92.765H58.2422V85.042Z" fill="#6B4500"/>
<path d="M63.8921 86.025H62.8281V85.042H66.1081V86.025H65.0441V92.765H63.8931L63.8921 86.025Z" fill="#6B4500"/>
<path d="M70.0884 92.765H67.2284V94.495H66.1094V91.718H66.6154C66.7984 91.376 66.9484 90.991 67.0784 90.478C67.2394 89.838 67.3364 89.239 67.3794 88.246C67.4214 87.189 67.4434 85.907 67.4544 85.042H70.5834V91.718H71.2064V94.495H70.0874L70.0884 92.765ZM69.4214 91.718V86.089H68.4854C68.4634 87.831 68.4534 88.738 68.2804 89.753C68.1304 90.618 68.0114 90.971 67.7654 91.718H69.4214Z" fill="#6B4500"/>
<path d="M18.8024 83.1147C19.3124 83.6737 19.1304 84.2037 18.3604 84.8957L17.3264 85.8247C16.5564 86.5167 16.0084 86.6437 15.4984 86.0847C15.0484 85.5907 15.1404 85.0237 15.7824 84.4467L15.9414 84.3037L16.3754 84.7797L16.1254 85.0057C15.8044 85.2947 15.7174 85.5147 15.9044 85.7207C16.0924 85.9257 16.3214 85.8627 16.6424 85.5737L18.1784 84.1937C18.4994 83.9047 18.5864 83.6837 18.3984 83.4787C18.2114 83.2727 17.9814 83.3367 17.6604 83.6257L17.3564 83.8987L16.9224 83.4217L17.1244 83.2397C17.7714 82.6597 18.3494 82.6167 18.8024 83.1147Z" fill="white"/>
<path d="M13.9799 84.2245L13.4609 83.5855L16.3909 80.3965L16.7979 80.8965L16.1899 81.5215L16.5889 82.0125L17.3279 81.5495L17.7199 82.0325L13.9799 84.2245ZM15.7839 81.9235L13.9909 83.6635L14.0089 83.6865L16.1089 82.3215L15.7839 81.9235Z" fill="white"/>
<path d="M12.5356 82.3844L12.1666 81.8714L13.6146 80.8444L13.2076 80.2784L11.7596 81.3044L11.3906 80.7914L14.8816 78.3174L15.2496 78.8304L13.6806 79.9434L14.0866 80.5084L15.6556 79.3964L16.0246 79.9094L12.5356 82.3844Z" fill="white"/>
<path d="M11.9066 78.3179L11.8336 78.2029C11.6916 77.9779 11.5276 78.0379 11.1266 78.2599C10.8356 78.4199 10.6666 78.5179 10.5336 78.5729C10.2156 78.7009 9.95462 78.6549 9.78162 78.3799C9.75362 78.3349 9.64863 78.1579 9.64062 78.0999L10.1336 77.7929C10.1416 77.8159 10.1546 77.8359 10.1636 77.8509C10.2396 77.9709 10.3606 78.0069 10.5326 77.9139C10.7436 77.8039 10.8206 77.7479 11.1176 77.5989C11.4056 77.4559 11.5936 77.4219 11.7696 77.6109L11.7846 77.6019C11.7186 77.4419 11.6736 77.2819 11.8996 77.0509C12.0576 76.8899 12.3206 76.7189 12.5786 76.5389C12.8306 76.3609 12.8536 76.2639 12.7716 76.1339C12.7556 76.1089 12.7406 76.0839 12.7196 76.0619L13.2126 75.7559C13.2706 75.7819 13.3876 75.9449 13.4286 76.0099C13.6046 76.2889 13.5216 76.5919 13.2856 76.7939C13.1306 76.9249 12.9386 77.0649 12.7556 77.1859C12.3386 77.4579 12.1516 77.6169 12.3216 77.8869L12.4006 78.0119L14.0256 77.0019L14.3656 77.5419L10.7276 79.8029L10.3876 79.2629L11.9066 78.3179Z" fill="white"/>
<path d="M9.49969 76.7231L9.78369 77.2351L9.30569 77.4981L8.42969 75.9221L8.90769 75.6601L9.19269 76.1711L12.4727 74.3701L12.7807 74.9221L9.49969 76.7231Z" fill="white"/>
<path d="M10.3008 74.3861L9.75781 73.3081L10.2158 73.0811L10.7578 74.1581L10.3008 74.3861Z" fill="white"/>
<path d="M5.61719 35.754L6.25319 34.082L6.80919 34.29L6.39819 35.372L9.85919 36.67L9.63519 37.261L5.61719 35.754Z" fill="white"/>
<path d="M6.8761 32.4454C7.1821 31.7604 7.7451 31.7064 8.6951 32.1254L9.9691 32.6874C10.9181 33.1064 11.2581 33.5524 10.9491 34.2424C10.6411 34.9324 10.0801 34.9814 9.13109 34.5624L7.8561 34.0004C6.9071 33.5814 6.5681 33.1354 6.8761 32.4454ZM9.7031 34.1114C10.0991 34.2864 10.3371 34.2754 10.4511 34.0214C10.5641 33.7684 10.4121 33.5854 10.0161 33.4114L8.12309 32.5764C7.72709 32.4024 7.4881 32.4124 7.3751 32.6664C7.2621 32.9204 7.41409 33.1024 7.81009 33.2774L9.7031 34.1114Z" fill="white"/>
<path d="M12.2147 31.6451C11.8637 32.3151 11.2997 32.3301 10.3777 31.8531L9.13973 31.2131C8.21773 30.7361 7.90673 30.2691 8.25773 29.5991C8.56773 29.0081 9.13473 28.8951 9.90473 29.2931L10.0937 29.3911L9.79573 29.9621L9.49473 29.8061C9.10973 29.6081 8.87073 29.6031 8.74273 29.8501C8.61373 30.0961 8.75473 30.2881 9.13873 30.4871L10.9777 31.4371C11.3627 31.6361 11.6017 31.6401 11.7307 31.3941C11.8597 31.1481 11.7187 30.9561 11.3347 30.7571L10.9707 30.5691L11.2697 29.9991L11.5127 30.1241C12.2867 30.5241 12.5277 31.0481 12.2147 31.6451Z" fill="white"/>
<path d="M12.3904 29.9896C12.4354 29.9476 12.4834 29.9146 12.5474 29.8076C12.6414 29.6506 12.6554 29.5216 12.5584 29.3616C12.5274 29.3096 12.4224 29.1856 12.3614 29.1366L9.10938 28.2056L9.44537 27.6426L11.5754 28.3166L9.86937 26.9336L10.1934 26.3906L12.3744 28.4096C12.7104 28.7246 13.0064 28.9816 13.1494 29.2376C13.2604 29.4326 13.3144 29.6776 13.0934 30.0476C13.0354 30.1436 12.9444 30.2276 12.8844 30.2806L12.3904 29.9896Z" fill="white"/>
<path d="M15.1154 26.7193L14.2334 28.0233L15.0334 28.5563L14.6884 29.0663L13.4054 28.2103L13.5614 27.9803C13.4594 27.7923 13.3284 27.6053 13.1314 27.3883C12.8844 27.1173 12.6384 26.8883 12.1924 26.5623C11.7174 26.2163 11.1314 25.8123 10.7344 25.5413L11.6984 24.1143L14.7834 26.1713L14.9754 25.8873L16.2594 26.7433L15.9144 27.2533L15.1154 26.7193ZM14.4254 26.7003L11.8244 24.9653L11.5354 25.3923C12.3334 25.9383 12.7494 26.2233 13.1654 26.6143C13.5184 26.9493 13.6444 27.1123 13.9144 27.4553L14.4254 26.7003Z" fill="white"/>
<path d="M7.26075 73.588L6.46875 71.795L10.3997 70.083L10.6547 70.661L7.25675 72.14L7.53775 72.778L10.9358 71.298L11.1908 71.876L7.26075 73.588Z" fill="white"/>
<path d="M6.03531 70.7L5.44531 69.118L5.98531 68.919L6.35531 69.909L7.46731 69.5L7.17831 68.725L7.72931 68.522L8.01831 69.296L9.29831 68.825L8.89431 67.742L9.43431 67.543L10.0593 69.219L6.03531 70.7Z" fill="white"/>
<path d="M5.55888 67.7238L5.73487 68.2808L5.21387 68.4428L4.67188 66.7268L5.19287 66.5648L5.36888 67.1218L8.94187 66.0088L9.13187 66.6108L5.55888 67.7238Z" fill="white"/>
<path d="M4.43481 65.9074L4.00781 64.2754L4.56581 64.1314L4.83281 65.1524L5.98181 64.8574L5.77381 64.0574L6.34181 63.9114L6.55081 64.7104L7.87281 64.3694L7.58081 63.2514L8.13781 63.1074L8.58981 64.8364L4.43481 65.9074Z" fill="white"/>
<path d="M3.80586 63.3666L3.65086 62.5986C3.46186 61.6616 3.65786 61.2866 4.60686 61.0966C5.49086 60.9206 5.91886 61.1776 6.08186 61.9876L6.13686 62.2586L7.88786 61.9086L8.01286 62.5276L3.80586 63.3666ZM5.55486 62.1646C5.46186 61.7026 5.23986 61.6266 4.70486 61.7326C4.25086 61.8226 4.08886 62.0056 4.16986 62.4106L4.21686 62.6416L5.59586 62.3666L5.55486 62.1646Z" fill="white"/>
<path d="M3.254 60.4269L3 58.5709L3.553 58.4959L3.721 59.7279L4.879 59.5709L4.834 59.2379C4.752 58.6429 5.078 58.0879 5.982 57.9649C6.905 57.8399 7.287 58.2709 7.38 58.9469L7.504 59.8519L3.254 60.4269ZM6.866 59.3039L6.828 59.0299C6.791 58.7609 6.611 58.5349 6.082 58.6069C5.512 58.6849 5.355 58.9379 5.393 59.2169L5.432 59.4969L6.866 59.3039Z" fill="white"/>
<path d="M6.62719 57.3791C6.64019 57.3191 6.65919 57.2641 6.64919 57.1411C6.63419 56.9591 6.57119 56.8461 6.39919 56.7701C6.34319 56.7451 6.18619 56.7051 6.10719 56.6991L2.91219 57.8061L2.85919 57.1541L4.98919 56.4821L2.79319 56.3331L2.74219 55.7041L5.69619 56.1001C6.15419 56.1631 6.54419 56.2041 6.81019 56.3301C7.01519 56.4251 7.20119 56.5941 7.23519 57.0221C7.24419 57.1351 7.21819 57.2541 7.20119 57.3331L6.62719 57.3791Z" fill="white"/>
<path d="M2.6945 54.9361L2.6735 54.1521C2.6485 53.1961 2.9065 52.8591 3.8755 52.8341C4.7775 52.8111 5.1545 53.1381 5.1765 53.9631L5.1835 54.2401L6.9705 54.1941L6.9875 54.8241L2.6945 54.9361ZM4.6255 54.0481C4.6125 53.5761 4.4085 53.4631 3.8615 53.4781C3.3985 53.4901 3.2065 53.6421 3.2175 54.0551L3.2235 54.2911L4.6305 54.2541L4.6255 54.0481Z" fill="white"/>
<path d="M2.64844 51.9813L2.69944 50.1943L3.29344 50.2113L3.26044 51.3673L6.95944 51.4713L6.94144 52.1023L2.64844 51.9813Z" fill="white"/>
<path d="M7.18962 48.8209C7.12662 49.5729 6.61362 49.8019 5.57862 49.7179L4.18862 49.6039C3.15362 49.5189 2.68562 49.2079 2.74762 48.4569C2.80362 47.7929 3.28262 47.4719 4.14562 47.5429L4.35862 47.5599L4.30662 48.1999L3.96962 48.1729C3.53762 48.1379 3.31662 48.2259 3.29362 48.5019C3.27062 48.7789 3.47462 48.9019 3.90662 48.9369L5.96962 49.1059C6.40162 49.1419 6.62362 49.0529 6.64662 48.7769C6.66962 48.5009 6.46562 48.3779 6.03362 48.3419L5.62562 48.3089L5.67862 47.6679L5.95062 47.6899C6.81962 47.7619 7.24562 48.1509 7.18962 48.8209Z" fill="white"/>
<path d="M4.89825 46.0781L4.91725 45.9431C4.95625 45.6801 4.79025 45.6211 4.34125 45.5331C4.01425 45.4681 3.82125 45.4351 3.68425 45.3911C3.35725 45.2851 3.18925 45.0811 3.23525 44.7611C3.24225 44.7081 3.27825 44.5041 3.30925 44.4551L3.88525 44.5381C3.87525 44.5601 3.87225 44.5841 3.87025 44.6011C3.84925 44.7411 3.91825 44.8461 4.11125 44.8851C4.34325 44.9361 4.43825 44.9441 4.76325 45.0201C5.07625 45.0951 5.24225 45.1901 5.25325 45.4481L5.27125 45.4501C5.32525 45.2851 5.39525 45.1341 5.71725 45.1031C5.94225 45.0821 6.25525 45.1211 6.56925 45.1471C6.87725 45.1731 6.95825 45.1141 6.98025 44.9621C6.98425 44.9331 6.98825 44.9031 6.98725 44.8731L7.56325 44.9561C7.59125 45.0141 7.57425 45.2141 7.56325 45.2891C7.51525 45.6161 7.25625 45.7941 6.94325 45.7961C6.73925 45.7971 6.50125 45.7811 6.28325 45.7551C5.78725 45.6961 5.54125 45.6971 5.49525 46.0121L5.47425 46.1601L7.37225 46.4321L7.28125 47.0621L3.03125 46.4541L3.12225 45.8241L4.89825 46.0781Z" fill="white"/>
<path d="M3.49219 43.5032L3.62219 42.8792L5.78019 43.3232L6.19019 43.4252L5.92819 43.2812L4.01019 42.1522L3.78319 42.1052L3.91019 41.4932L8.11719 42.3572L7.99019 42.9702L5.80219 42.5202L5.39319 42.4122L5.66419 42.5642L7.57719 43.6922L7.82719 43.7442L7.69719 44.3692L3.49219 43.5032Z" fill="white"/>
<path d="M3.67056 38.2061C4.13956 38.3341 4.35656 38.6391 4.19856 39.2071C4.03956 39.7751 3.69656 39.9261 3.22656 39.7971L3.37256 39.2741C3.60156 39.3371 3.78856 39.3091 3.84356 39.1091C3.89956 38.9101 3.75356 38.7911 3.52456 38.7281L3.67056 38.2061ZM4.20856 40.3001L4.37956 39.6861L6.50256 40.2701L6.90356 40.3991L6.65256 40.2381L4.81556 38.9851L4.59156 38.9241L4.75956 38.3211L8.89756 39.4601L8.72956 40.0631L6.57756 39.4711L6.17756 39.3361L6.43856 39.5061L8.27156 40.7571L8.51756 40.8251L8.34656 41.4391L4.20856 40.3001Z" fill="white"/>
<path d="M12.6875 22.7789L13.1875 22.1279L17.0005 24.1919L16.6075 24.7029L15.8535 24.2649L15.4685 24.7669L16.0965 25.3689L15.7185 25.8619L12.6875 22.7789ZM15.3645 23.9699L13.2375 22.6549L13.2195 22.6779L15.0515 24.3769L15.3645 23.9699Z" fill="white"/>
<path d="M14.1484 20.9387L14.6624 20.3437C15.2874 19.6177 15.7074 19.5397 16.4414 20.1657C17.1264 20.7487 17.1854 21.2417 16.6444 21.8687L16.4634 22.0797L17.8194 23.2347L17.4064 23.7127L14.1484 20.9387ZM16.1794 21.5657C16.4884 21.2077 16.4124 20.9877 15.9974 20.6347C15.6464 20.3347 15.4004 20.3207 15.1304 20.6337L14.9764 20.8137L16.0444 21.7227L16.1794 21.5657Z" fill="white"/>
<path d="M19.9438 21.0321C19.4158 21.5741 18.8718 21.4291 18.1248 20.7121L17.1218 19.7501C16.3748 19.0331 16.2098 18.4981 16.7378 17.9551C17.2038 17.4761 17.7798 17.5291 18.4038 18.1271L18.5578 18.2741L18.1078 18.7361L17.8648 18.5031C17.5528 18.2041 17.3248 18.1331 17.1308 18.3321C16.9368 18.5311 17.0168 18.7551 17.3278 19.0541L18.8178 20.4841C19.1298 20.7831 19.3578 20.8551 19.5508 20.6551C19.7438 20.4551 19.6648 20.2321 19.3538 19.9321L19.0598 19.6501L19.5098 19.1881L19.7058 19.3761C20.3328 19.9791 20.4138 20.5481 19.9438 21.0321Z" fill="white"/>
<path d="M18.7874 16.8188L18.3564 17.2157L17.9844 16.8188L19.3114 15.5938L19.6834 15.9908L19.2524 16.3888L21.8024 19.1157L21.3364 19.5448L18.7874 16.8188Z" fill="white"/>
<path d="M19.9609 15.0301L20.5709 14.5241C21.2549 13.9581 21.6679 13.9441 22.2199 14.6001C22.5429 14.9851 22.6429 15.2781 22.4889 15.5821C22.8409 15.4671 23.1559 15.6211 23.5049 16.0371C24.0679 16.7061 24.0219 17.2121 23.3439 17.7761L22.7109 18.3011L19.9609 15.0301ZM21.7429 15.8721C22.0609 15.6071 22.0429 15.3921 21.7459 15.0391C21.4569 14.6951 21.2539 14.6571 20.9489 14.9101L20.7939 15.0381L21.5969 15.9931L21.7429 15.8721ZM23.0179 17.3331C23.3509 17.0581 23.3209 16.8201 22.9789 16.4131C22.6709 16.0471 22.4559 16.0111 22.1319 16.2791L21.9589 16.4231L22.8449 17.4771L23.0179 17.3331Z" fill="white"/>
<path d="M22.3516 13.0968L23.7156 12.0908L24.0586 12.5498L23.2056 13.1798L23.9136 14.1268L24.5806 13.6338L24.9316 14.1028L24.2646 14.5948L25.0786 15.6838L26.0136 14.9948L26.3566 15.4538L24.9116 16.5198L22.3516 13.0968Z" fill="white"/>
<path d="M24.5 11.5515L25.03 11.2055L26.007 12.6835L26.592 12.3015L25.616 10.8235L26.147 10.4775L28.5 14.0395L27.969 14.3855L26.911 12.7845L26.326 13.1655L27.384 14.7675L26.854 15.1135L24.5 11.5515Z" fill="white"/>
<path d="M27.1641 9.85763L27.7161 9.54562L28.5961 11.0846L29.2051 10.7406L28.3251 9.20263L28.8771 8.89062L30.9981 12.5986L30.4451 12.9106L29.4921 11.2436L28.8831 11.5876L29.8361 13.2546L29.2831 13.5666L27.1641 9.85763Z" fill="white"/>
<path d="M29.9531 8.30622L30.5271 8.03522L31.2521 9.54822L31.5421 9.41122C32.1591 9.11922 32.6951 9.30422 33.1051 10.1622C33.4931 10.9722 33.2301 11.4822 32.6671 11.7482L31.7981 12.1582L29.9531 8.30622ZM32.1321 11.3862L32.3731 11.2722C32.5561 11.1862 32.7851 11.0052 32.5041 10.4192C32.2261 9.83822 31.9421 9.83522 31.7331 9.93422L31.4911 10.0482L32.1321 11.3862ZM33.8311 11.1982L31.9861 7.34522L32.5601 7.07422L34.4051 10.9272L33.8311 11.1982Z" fill="white"/>
<path d="M35.0802 4.9248C35.2562 5.3758 35.1402 5.7298 34.5872 5.9438C34.0342 6.1568 33.7083 5.9728 33.5312 5.5228L34.0403 5.3268C34.1263 5.5468 34.2603 5.6778 34.4543 5.6028C34.6483 5.5278 34.6573 5.3418 34.5723 5.1218L35.0802 4.9248ZM33.7113 6.6028L34.3092 6.3728L35.1053 8.4118L35.2413 8.8078L35.2213 8.5118L35.1353 6.3008L35.0513 6.0868L35.6373 5.8608L37.1883 9.8348L36.6023 10.0608L35.7952 7.9948L35.6653 7.5968L35.6842 7.9048L35.7682 10.1108L35.8603 10.3468L35.2633 10.5768L33.7113 6.6028Z" fill="white"/>
<path d="M39.0292 8.64446C39.0912 8.64446 39.1492 8.65246 39.2692 8.61946C39.4462 8.56846 39.5462 8.48446 39.5852 8.30146C39.5992 8.24246 39.6072 8.07946 39.5972 8.00346L37.8672 5.10746L38.5012 4.92546L39.5902 6.86846L39.3012 4.69646L39.9122 4.52246L40.1092 7.48146C40.1372 7.94046 40.1752 8.32946 40.1042 8.61446C40.0502 8.83246 39.9202 9.04746 39.5032 9.16646C39.3952 9.19746 39.2702 9.19646 39.1902 9.19546L39.0292 8.64446Z" fill="white"/>
<path d="M40.6875 4.32753L41.3075 4.18753L41.7005 5.91453L42.3845 5.76153L41.9905 4.03453L42.6105 3.89453L43.5585 8.05553L42.9385 8.19553L42.5125 6.32453L41.8285 6.47853L42.2545 8.34853L41.6345 8.48853L40.6875 4.32753Z" fill="white"/>
<path d="M43.7891 3.66487L44.4231 3.56287L44.7731 5.72487L44.8221 6.14187L44.8651 5.84787L45.2461 3.66587L45.2091 3.43787L45.8311 3.33887L46.5121 7.55087L45.8901 7.65087L45.5361 5.45987L45.4931 5.04287L45.4461 5.34887L45.0641 7.52587L45.1041 7.77587L44.4701 7.87687L43.7891 3.66487Z" fill="white"/>
<path d="M47.0156 3.19281L47.8076 3.11781C48.6946 3.03481 49.0436 3.25581 49.1246 4.10781C49.1726 4.60781 49.0876 4.90581 48.7876 5.06981C49.1436 5.17381 49.3156 5.47681 49.3676 6.01681C49.4506 6.88581 49.1236 7.27881 48.2426 7.36181L47.4206 7.43981L47.0156 3.19281ZM48.0066 4.88981C48.4206 4.84981 48.5276 4.66281 48.4846 4.20381C48.4416 3.75781 48.2966 3.61081 47.9006 3.64881L47.6996 3.66781L47.8176 4.90681L48.0066 4.88981ZM48.2256 6.81281C48.6576 6.77181 48.7686 6.56081 48.7186 6.03181C48.6736 5.55581 48.5156 5.40581 48.0956 5.44481L47.8706 5.46581L48.0006 6.83481L48.2256 6.81281Z" fill="white"/>
<path d="M50.0859 2.94L51.7839 2.875L51.8049 3.448L50.7419 3.488L50.7869 4.668L51.6179 4.636L51.6429 5.22L50.8119 5.252L50.8639 6.608L52.0279 6.564L52.0499 7.136L50.2509 7.204L50.0859 2.94Z" fill="white"/>
<path d="M52.7399 2.86914L53.5299 2.88114C54.4919 2.89614 54.8199 3.16714 54.8039 4.12814C54.7899 5.02514 54.4459 5.38514 53.6139 5.37214L53.3359 5.36814L53.3069 7.14314L52.6719 7.13314L52.7399 2.86914ZM53.5509 4.82214C54.0259 4.83014 54.1479 4.63114 54.1569 4.08814C54.1639 3.62814 54.0189 3.43114 53.6029 3.42414L53.3659 3.42014L53.3439 4.81914L53.5509 4.82214Z" fill="white"/>
<path d="M56.3661 7.36131C55.6071 7.30431 55.3731 6.79531 55.4521 5.76431L55.5581 4.38131C55.6381 3.35131 55.9471 2.88331 56.7061 2.94131C57.3761 2.99231 57.7021 3.46631 57.6371 4.32631L57.6201 4.53831L56.9741 4.48831L57 4.15331C57.033 3.72331 56.9431 3.50331 56.6641 3.48231C56.3861 3.46131 56.263 3.66531 56.229 4.09431L56.0711 6.14831C56.0381 6.57831 56.1281 6.79831 56.4071 6.81931C56.6851 6.84031 56.8081 6.63631 56.8421 6.20731L56.8731 5.80131L57.5191 5.85031L57.4981 6.12131C57.4321 6.98731 57.0421 7.41331 56.3661 7.36131Z" fill="white"/>
<path d="M58.712 3.21289L59.347 3.29989L59.046 5.46589L58.97 5.87789L59.097 5.60989L60.102 3.63589L60.133 3.40789L60.756 3.49389L60.17 7.71489L59.547 7.62989L59.852 5.43489L59.933 5.02389L59.799 5.30289L58.795 7.26989L58.76 7.52089L58.125 7.43489L58.712 3.21289Z" fill="white"/>
<path d="M62.0902 4.28074L61.5132 4.16874L61.6182 3.63574L63.3962 3.98174L63.2912 4.51474L62.7142 4.40174L61.9912 8.05574L61.3672 7.93474L62.0902 4.28074Z" fill="white"/>
<path d="M64.2225 4.17578L65.8685 4.58178L65.7305 5.13678L64.6995 4.88278L64.4135 6.02678L65.2195 6.22578L65.0785 6.79178L64.2715 6.59278L63.9425 7.90878L65.0705 8.18678L64.9315 8.74178L63.1875 8.31078L64.2225 4.17578Z" fill="white"/>
<path d="M66.9738 5.46634L66.4118 5.29634L66.5708 4.77734L68.3018 5.30134L68.1428 5.82034L67.5798 5.65034L66.4898 9.20734L65.8828 9.02334L66.9738 5.46634Z" fill="white"/>
<path d="M70.5816 6.09375L72.4096 6.82475L70.8066 10.7808L70.2176 10.5448L71.6026 7.12575L70.9526 6.86575L69.5666 10.2858L68.9766 10.0498L70.5816 6.09375Z" fill="white"/>
<path d="M73.4924 7.29688L74.2064 7.63287C75.0754 8.04387 75.2614 8.42487 74.8454 9.29387C74.4584 10.1039 73.9944 10.2899 73.2424 9.93488L72.9914 9.81588L72.2224 11.4199L71.6484 11.1489L73.4924 7.29688ZM73.4154 9.40987C73.8444 9.61287 74.0394 9.48187 74.2724 8.99187C74.4714 8.57587 74.4224 8.33687 74.0454 8.15987L73.8314 8.05787L73.2274 9.32088L73.4154 9.40987Z" fill="white"/>
<path d="M77.0771 9.00467C77.7371 9.36667 77.7441 9.92967 77.2411 10.8337L76.5661 12.0467C76.0631 12.9507 75.5861 13.2477 74.9201 12.8817C74.2551 12.5167 74.2541 11.9567 74.7571 11.0527L75.4321 9.83967C75.9341 8.93667 76.4121 8.63967 77.0771 9.00467ZM75.1591 11.6597C74.9491 12.0367 74.9391 12.2737 75.1831 12.4077C75.4271 12.5427 75.6251 12.4077 75.8341 12.0307L76.8371 10.2287C77.0461 9.85267 77.0561 9.61467 76.8121 9.48067C76.5681 9.34667 76.3711 9.48067 76.1611 9.85767L75.1591 11.6597Z" fill="white"/>
<path d="M78.9542 10.1641L79.6422 10.6071L78.7272 12.7251C78.6252 12.9691 78.4612 13.2851 78.2442 13.6721C78.4962 13.3291 78.7202 13.0511 78.9142 12.8521L80.5242 11.1751L81.1872 11.6021L78.8512 15.1811L78.4022 14.8911C78.5972 14.5811 78.7912 14.2851 78.9752 14.0021C79.5662 13.0961 80.1082 12.3201 80.6052 11.6771L77.8532 14.5381L77.5892 14.3681L79.1452 10.7371C78.5502 11.7251 77.8542 12.8241 77.0662 14.0311L76.6172 13.7421L78.9542 10.1641Z" fill="white"/>
<path d="M82.2216 12.3252L82.7256 12.7102L81.6966 14.0392L81.9516 14.2332C82.4926 14.6482 82.5706 15.2052 81.9866 15.9592C81.4356 16.6702 80.8596 16.6682 80.3646 16.2912L79.6016 15.7072L82.2216 12.3252ZM80.4466 15.6522L80.6576 15.8152C80.8176 15.9372 81.0836 16.0582 81.4826 15.5442C81.8786 15.0342 81.7516 14.7812 81.5676 14.6412L81.3556 14.4792L80.4466 15.6522ZM81.3866 17.0712L84.0066 13.6892L84.5106 14.0742L81.8906 17.4562L81.3866 17.0712Z" fill="white"/>
<path d="M85.4977 14.8984L85.9697 15.3294L83.4587 18.0464L83.9228 18.4694L86.4337 15.7524L86.9057 16.1844L84.3958 18.9004L84.8597 19.3234L87.3708 16.6074L87.8438 17.0384L84.9388 20.1804L82.5938 18.0414L85.4977 14.8984Z" fill="white"/>
<path d="M89.2161 19.3021L88.8231 18.8841C88.3501 19.3151 87.8821 19.7241 87.4491 20.0941C86.9651 20.5031 86.7311 20.6881 86.5511 20.7901C86.2261 20.9711 85.7731 21.0681 85.4531 20.7281C85.3431 20.6121 85.3481 20.6071 85.3281 20.5691L85.7531 20.1751C85.7691 20.2001 85.7771 20.2171 85.7941 20.2351C85.9191 20.3681 86.0651 20.3861 86.2931 20.2561C86.4341 20.1731 86.6631 19.9931 87.3381 19.4231C87.7961 19.0291 88.3911 18.4941 88.8591 18.0771L90.0791 19.3741L86.9421 22.2851L86.5041 21.8201L89.2161 19.3021Z" fill="white"/>
<path d="M90.8557 20.25L91.9427 21.547L91.5007 21.913L90.8197 21.101L89.9067 21.857L90.4387 22.492L89.9867 22.867L89.4537 22.231L88.4037 23.1L89.1497 23.989L88.7067 24.355L87.5547 22.98L90.8557 20.25Z" fill="white"/>
<path d="M92.5193 22.291L92.8963 22.797L91.4653 23.848L91.8823 24.408L93.3123 23.356L93.6893 23.863L90.2423 26.397L89.8653 25.89L91.4143 24.751L90.9973 24.192L89.4483 25.332L89.0703 24.825L92.5193 22.291Z" fill="white"/>
<path d="M94.3764 24.834L94.7224 25.363L93.2274 26.326L93.6084 26.91L95.1034 25.947L95.4494 26.477L91.8464 28.797L91.5004 28.267L93.1204 27.225L92.7394 26.641L91.1194 27.683L90.7734 27.154L94.3764 24.834Z" fill="white"/>
<path d="M96.0951 27.5195L96.4001 28.0735L94.9211 28.8775L95.0741 29.1565C95.4021 29.7515 95.2461 30.2935 94.4081 30.7495C93.6161 31.1795 93.0891 30.9485 92.7891 30.4045L92.3281 29.5665L96.0951 27.5195ZM93.1231 29.8535L93.2511 30.0855C93.3481 30.2615 93.5421 30.4795 94.1151 30.1675C94.6831 29.8595 94.6701 29.5765 94.5591 29.3755L94.4311 29.1425L93.1231 29.8535ZM93.4081 31.5265L97.1751 29.4805L97.4801 30.0345L93.7131 32.0805L93.4081 31.5265Z" fill="white"/>
<path d="M96.3008 32.2863L97.8887 30.8633L98.1468 31.4143L96.8627 32.4233L98.4657 32.0943L98.7277 32.6563L96.6017 32.9413L94.8517 34.4973L94.5997 33.9563L96.0687 32.7963L94.2287 33.1633L93.9688 32.6073L96.3008 32.2863Z" fill="white"/>
<path d="M99.2103 35.3005L99.0053 34.7525L99.5173 34.5645L100.146 36.2515L99.6333 36.4395L99.4293 35.8925L95.9163 37.1845L95.6953 36.5925L99.2103 35.3005Z" fill="white"/>
<path d="M100.413 37.0645L100.921 38.6725L100.372 38.8435L100.054 37.8365L98.9223 38.1895L99.1713 38.9775L98.6103 39.1525L98.3613 38.3655L97.0593 38.7705L97.4073 39.8735L96.8583 40.0445L96.3203 38.3395L100.413 37.0645Z" fill="white"/>
<path d="M99.3129 40.5103L101.138 39.4033L101.289 39.9923L99.8399 40.7483L101.475 40.7183L101.629 41.3193L99.4859 41.2103L97.4779 42.4183L97.3299 41.8403L98.9899 40.9703L97.1139 40.9943L96.9609 40.3993L99.3129 40.5103Z" fill="white"/>
<path d="M101.823 42.1797L101.945 42.7997L100.195 43.1367L100.329 43.8207L102.078 43.4827L102.2 44.1027L97.9844 44.9157L97.8634 44.2957L99.7584 43.9307L99.6254 43.2467L97.7294 43.6127L97.6094 42.9927L101.823 42.1797Z" fill="white"/>
<path d="M102.592 46.2153C102.689 46.9583 102.236 47.2963 101.205 47.4283L99.8213 47.6063C98.7913 47.7383 98.2673 47.5323 98.1693 46.7833C98.0713 46.0343 98.5253 45.7023 99.5553 45.5703L100.939 45.3913C101.97 45.2603 102.494 45.4663 102.592 46.2153ZM99.3023 46.2513C98.8723 46.3063 98.6743 46.4393 98.7103 46.7143C98.7463 46.9893 98.9713 47.0673 99.4013 47.0123L101.457 46.7473C101.887 46.6923 102.086 46.5593 102.05 46.2853C102.014 46.0103 101.788 45.9323 101.358 45.9873L99.3023 46.2513Z" fill="white"/>
<path d="M102.259 49.7197L102.22 49.1477C101.58 49.1847 100.957 49.2087 100.386 49.2217C99.7496 49.2337 99.4516 49.2307 99.2466 49.1967C98.8796 49.1327 98.4676 48.9237 98.4356 48.4587C98.4246 48.2997 98.4306 48.2987 98.4396 48.2577L99.0206 48.2188C99.0166 48.2487 99.0126 48.2667 99.0136 48.2897C99.0256 48.4727 99.1276 48.5777 99.3866 48.6197C99.5496 48.6447 99.8406 48.6487 100.727 48.6317C101.333 48.6157 102.133 48.5737 102.763 48.5447L102.881 50.3158L98.5976 50.5987L98.5556 49.9637L102.259 49.7197Z" fill="white"/>
<path d="M103.013 52.4257C103.025 53.1747 102.537 53.4597 101.498 53.4767L100.103 53.4987C99.0639 53.5147 98.5669 53.2517 98.5549 52.4967C98.5419 51.7417 99.0319 51.4627 100.07 51.4467L101.466 51.4247C102.504 51.4067 103.001 51.6707 103.013 52.4257ZM99.7419 52.0947C99.3079 52.1017 99.0959 52.2107 99.1009 52.4887C99.1049 52.7657 99.3219 52.8677 99.7549 52.8607L101.827 52.8277C102.26 52.8207 102.473 52.7117 102.468 52.4337C102.464 52.1567 102.248 52.0537 101.815 52.0607L99.7419 52.0947Z" fill="white"/>
<path d="M102.895 54.6302L102.801 56.4132L102.208 56.3822L102.269 55.2292L98.5781 55.0372L98.6111 54.4072L102.895 54.6302Z" fill="white"/>
<path d="M102.729 57.2522L102.658 57.8852L100.469 57.6432L100.052 57.5802L100.325 57.6992L102.34 58.6462L102.57 58.6722L102.5 59.2932L98.2344 58.8222L98.3034 58.2002L100.522 58.4452L100.939 58.5152L100.654 58.3892L98.6444 57.4432L98.3914 57.4152L98.4624 56.7832L102.729 57.2522Z" fill="white"/>
<path d="M102.322 60.4834L102.209 61.1104L100.041 60.7234L99.6304 60.6324L99.8954 60.7694L101.841 61.8474L102.068 61.8884L101.958 62.5034L97.7344 61.7504L97.8464 61.1354L100.042 61.5284L100.453 61.6254L100.178 61.4794L98.2384 60.4034L97.9874 60.3584L98.1014 59.7324L102.322 60.4834ZM103.051 62.5194C102.572 62.4344 102.327 62.1504 102.433 61.5704C102.537 60.9894 102.867 60.8084 103.345 60.8944L103.249 61.4284C103.016 61.3864 102.832 61.4324 102.796 61.6354C102.759 61.8384 102.915 61.9444 103.149 61.9854L103.051 62.5194Z" fill="white"/>
<path d="M101.354 65.1804L101.18 65.7944L99.0563 65.2004L98.6553 65.0704L98.9053 65.2324L100.74 66.4934L100.963 66.5554L100.793 67.1584L96.6562 66.0024L96.8272 65.3994L98.9782 66.0004L99.3783 66.1374L99.1182 65.9664L97.2883 64.7074L97.0413 64.6384L97.2152 64.0244L101.354 65.1804Z" fill="white"/>
<path d="M95.2616 69.8712L95.8356 68.4092L94.9396 68.0612L95.1636 67.4902L96.6016 68.0482L96.4996 68.3062C96.6406 68.4692 96.8086 68.6222 97.0486 68.7912C97.3486 69.0022 97.6386 69.1712 98.1446 69.3932C98.6836 69.6272 99.3426 69.8952 99.7896 70.0752L99.1616 71.6742L95.7036 70.3342L95.5786 70.6532L94.1406 70.0952L94.3646 69.5232L95.2616 69.8712ZM95.9376 69.7402L98.8526 70.8702L99.0406 70.3912C98.1426 70.0302 97.6746 69.8432 97.1846 69.5512C96.7666 69.3002 96.6076 69.1692 96.2696 68.8932L95.9376 69.7402Z" fill="white"/>
<path d="M98.6604 72.8324L98.3884 73.4094L96.3944 72.4814L96.0204 72.2884L96.2404 72.4884L97.8424 74.0264L98.0524 74.1244L97.7854 74.6904L93.8984 72.8834L94.1654 72.3174L96.1864 73.2574L96.5594 73.4564L96.3304 73.2464L94.7344 71.7094L94.5034 71.6024L94.7754 71.0254L98.6604 72.8324Z" fill="white"/>
<path d="M94.2473 74.6637C93.8533 74.4697 93.6143 74.4137 93.4563 74.6977C93.2893 75.0037 93.4773 75.1997 93.8733 75.4157C94.3633 75.6817 94.5643 75.7707 94.8443 75.2637L94.9613 75.0527L95.4503 75.3187L95.3333 75.5307C95.1573 75.8507 95.1263 76.0167 95.7433 76.3577C96.0673 76.5337 96.2843 76.5307 96.4183 76.2877C96.5663 76.0187 96.4543 75.8907 96.0533 75.6737L96.3663 75.1037C96.9243 75.4067 97.2533 75.9017 96.8883 76.5637C96.5773 77.1277 96.1693 77.3157 95.4453 76.9227C94.8203 76.5827 94.7073 76.3077 94.8083 75.9647L94.7973 75.9597C94.4433 76.3927 94.0473 76.2517 93.5743 75.9937C92.7923 75.5697 92.6333 75.0587 93.0013 74.3907C93.3793 73.7027 94.0263 73.8067 94.5593 74.0947L94.2473 74.6637Z" fill="white"/>
<path d="M95.5746 78.6738L95.1366 79.3688L91.1406 77.6648L91.4836 77.1188L92.2756 77.4848L92.6126 76.9488L91.9296 76.4078L92.2606 75.8818L95.5746 78.6738ZM92.7926 77.7348L95.0366 78.8468L95.0526 78.8228L93.0676 77.2988L92.7926 77.7348Z" fill="white"/>
<path d="M94.2966 80.6447L93.9256 81.1637L92.1296 79.8977L91.7966 79.6417L91.9776 79.8777L93.2766 81.6757L93.4656 81.8087L93.1016 82.3177L89.6016 79.8517L89.9656 79.3427L91.7846 80.6257L92.1156 80.8857L91.9276 80.6387L90.6336 78.8447L90.4256 78.6977L90.7966 78.1787L94.2966 80.6447ZM94.0856 82.7927C93.6896 82.5137 93.5886 82.1537 93.9326 81.6727C94.2756 81.1927 94.6506 81.1667 95.0476 81.4467L94.7306 81.8897C94.5366 81.7527 94.3526 81.7167 94.2316 81.8847C94.1116 82.0527 94.2076 82.2137 94.4006 82.3507L94.0856 82.7927Z" fill="white"/>
<path d="M92.3681 83.2856L91.9671 83.7756L90.5831 82.6606L90.1411 83.2016L91.5251 84.3176L91.1251 84.8076L87.7891 82.1186L88.1901 81.6286L89.6891 82.8376L90.1311 82.2966L88.6311 81.0886L89.0321 80.5986L92.3681 83.2856Z" fill="white"/>
<path d="M90.0959 85.961L89.5389 86.567L85.9219 84.173L86.3589 83.7L87.0709 84.202L87.4999 83.736L86.9279 83.081L87.3479 82.623L90.0959 85.961ZM87.5329 84.541L89.5359 86.038L89.5559 86.017L87.8819 84.163L87.5329 84.541Z" fill="white"/>
<path d="M25.0353 95.0446L24.5473 94.7186L24.8523 94.2686L26.3533 95.2716L26.0493 95.7216L25.5623 95.3956L23.4713 98.4796L22.9453 98.1266L25.0353 95.0446Z" fill="white"/>
<path d="M26.8684 95.5957L27.5444 96.0007C28.3674 96.4957 28.5144 96.8927 28.0144 97.7167C27.5474 98.4837 27.0674 98.6227 26.3554 98.1957L26.1164 98.0527L25.1924 99.5727L24.6484 99.2467L26.8684 95.5957ZM26.5794 97.6897C26.9864 97.9337 27.1924 97.8227 27.4744 97.3587C27.7144 96.9637 27.6884 96.7217 27.3334 96.5077L27.1294 96.3857L26.4014 97.5837L26.5794 97.6897Z" fill="white"/>
<path d="M29.4464 97.0918L30.1734 97.4808L28.7214 101.547L28.1514 101.243L28.4674 100.434L27.9074 100.136L27.4084 100.846L26.8594 100.553L29.4464 97.0918ZM28.6854 99.9078L29.6574 97.6138L29.6314 97.5998L28.2304 99.6648L28.6854 99.9078Z" fill="white"/>
<path d="M31.2808 102.753L29.8478 102.094L29.4438 102.961L28.8828 102.702L29.5308 101.311L29.7838 101.428C29.9548 101.298 30.1198 101.141 30.3048 100.913C30.5348 100.629 30.7228 100.351 30.9768 99.8644C31.2458 99.3444 31.5548 98.7064 31.7618 98.2754L33.3298 98.9974L31.7718 102.341L32.0848 102.485L31.4358 103.877L30.8758 103.62L31.2808 102.753ZM31.1908 102.075L32.5038 99.2554L32.0358 99.0394C31.6188 99.9074 31.4018 100.359 31.0788 100.828C30.8018 101.227 30.6608 101.377 30.3608 101.694L31.1908 102.075Z" fill="white"/>
<path d="M34.2162 99.377L34.8132 99.608L34.0132 101.645L33.8442 102.029L34.0302 101.797L35.4702 100.11L35.5542 99.896L36.1402 100.123L34.5802 104.092L33.9942 103.864L34.8052 101.8L34.9802 101.42L34.7842 101.66L33.3462 103.343L33.2533 103.578L32.6562 103.348L34.2162 99.377Z" fill="white"/>
<path d="M37.0123 100.428L37.6223 100.623L36.4843 104.13L37.1393 104.339L38.2783 100.832L38.8883 101.028L37.7493 104.535L38.0773 104.64L37.6033 106.098L37.0163 105.91L37.3113 105.001L35.6953 104.483L37.0123 100.428Z" fill="white"/>
<path d="M39.8034 101.296L40.4244 101.455L39.8764 103.573L39.7544 103.974L39.9114 103.721L41.1374 101.875L41.1944 101.652L41.8034 101.807L40.7354 105.935L40.1264 105.779L40.6814 103.633L40.8094 103.234L40.6434 103.496L39.4194 105.338L39.3554 105.584L38.7344 105.425L39.8034 101.296Z" fill="white"/>
<path d="M42.6862 102.004L43.3152 102.125L42.8952 104.273L42.7972 104.681L42.9392 104.42L44.0522 102.502L44.0962 102.276L44.7142 102.396L43.8952 106.581L43.2772 106.462L43.7032 104.285L43.8072 103.878L43.6572 104.149L42.5452 106.061L42.4962 106.31L41.8672 106.187L42.6862 102.004Z" fill="white"/>
<path d="M47.0173 102.734L47.6563 102.8L47.4273 104.978L47.3643 105.393L47.4823 105.121L48.4233 103.112L48.4473 102.883L49.0733 102.948L48.6263 107.193L47.9993 107.127L48.2323 104.919L48.3003 104.505L48.1753 104.788L47.2353 106.791L47.2083 107.043L46.5703 106.978L47.0173 102.734Z" fill="white"/>
<path d="M52.2774 107.451C51.5174 107.436 51.2554 106.942 51.2744 105.91L51.3014 104.524C51.3214 103.493 51.6034 103.009 52.3634 103.024C53.0334 103.037 53.3864 103.491 53.3704 104.353L53.3664 104.565L52.7194 104.553L52.7264 104.216C52.7344 103.786 52.6314 103.571 52.3524 103.566C52.0734 103.561 51.9624 103.772 51.9544 104.202L51.9144 106.258C51.9064 106.69 52.0084 106.904 52.2884 106.908C52.5674 106.913 52.6784 106.703 52.6864 106.273L52.6944 105.866L53.3414 105.878L53.3364 106.15C53.3184 107.016 52.9544 107.464 52.2774 107.451Z" fill="white"/>
<path d="M54.3999 103.64L53.8129 103.657L53.7969 103.114L55.6079 103.061L55.6249 103.605L55.0359 103.622L55.1459 107.344L54.5099 107.362L54.3999 103.64Z" fill="white"/>
<path d="M56.4887 103.003L57.3117 102.942L58.2897 107.148L57.6437 107.196L57.4727 106.345L56.8387 106.391L56.8027 107.258L56.1797 107.304L56.4887 103.003ZM57.3707 105.784L56.9487 103.33L56.9187 103.332L56.8557 105.822L57.3707 105.784Z" fill="white"/>
<path d="M58.5625 102.836L60.4345 102.598L60.5065 103.148L59.2645 103.306L59.4135 104.458L59.7485 104.415C60.3485 104.339 60.9055 104.665 61.0215 105.567C61.1405 106.484 60.7045 106.861 60.0215 106.949L59.1095 107.065L58.5625 102.836ZM59.6685 106.435L59.9455 106.4C60.2155 106.364 60.4445 106.188 60.3765 105.661C60.3035 105.093 60.0485 104.936 59.7665 104.972L59.4845 105.009L59.6685 106.435Z" fill="white"/>
<path d="M61.3906 102.45L62.0216 102.332L62.4266 104.485L62.4866 104.9L62.5216 104.606L62.8466 102.413L62.8046 102.187L63.4236 102.072L64.2136 106.266L63.5946 106.382L63.1846 104.201L63.1306 103.784L63.0916 104.092L62.7656 106.277L62.8116 106.527L62.1806 106.644L61.3906 102.45Z" fill="white"/>
<path d="M65.7706 102.109L65.2116 102.25C65.3626 102.869 65.4976 103.474 65.6136 104.029C65.7386 104.649 65.7876 104.94 65.7916 105.146C65.7936 105.517 65.6606 105.959 65.2056 106.071C65.0496 106.111 65.0486 106.105 65.0046 106.103L64.8626 105.541C64.8926 105.541 64.9116 105.542 64.9346 105.535C65.1126 105.491 65.1996 105.373 65.1936 105.112C65.1896 104.948 65.1416 104.662 64.9666 103.8C64.8416 103.209 64.6576 102.435 64.5156 101.825L66.2506 101.392L67.2966 105.529L66.6736 105.684L65.7706 102.109Z" fill="white"/>
<path d="M67.1406 101.151L67.7466 100.963L68.2496 102.562L68.5776 102.459C69.2286 102.257 69.7326 102.515 70.0176 103.42C70.2866 104.276 69.9546 104.743 69.3596 104.928L68.4196 105.219L67.1406 101.151ZM68.8596 104.503L69.1376 104.417C69.3296 104.357 69.5816 104.211 69.3876 103.591C69.1956 102.978 68.9136 102.935 68.6926 103.004L68.4156 103.09L68.8596 104.503Z" fill="white"/>
<path d="M69.8516 100.272L70.4466 100.049L71.0766 101.706L71.7326 101.459L71.1036 99.8031L71.6976 99.5791L73.2166 103.572L72.6216 103.796L71.9396 102.002L71.2846 102.248L71.9656 104.042L71.3716 104.266L69.8516 100.272Z" fill="white"/>
<path d="M73.396 98.7643C74.085 98.4583 74.541 98.7933 74.964 99.7373L75.533 101.004C75.957 101.948 75.908 102.506 75.213 102.814C74.518 103.122 74.068 102.785 73.644 101.841L73.075 100.575C72.652 99.6313 72.701 99.0723 73.396 98.7643ZM74.375 101.887C74.552 102.28 74.736 102.431 74.992 102.318C75.247 102.205 75.257 101.967 75.081 101.573L74.235 99.6913C74.058 99.2973 73.874 99.1473 73.619 99.2603C73.363 99.3733 73.353 99.6103 73.53 100.004L74.375 101.887Z" fill="white"/>
<path d="M78.0146 101.471C77.3386 101.818 76.8686 101.508 76.3926 100.59L75.7516 99.3566C75.2736 98.4396 75.2906 97.8786 75.9656 97.5316C76.5626 97.2256 77.0926 97.4596 77.4896 98.2246L77.5886 98.4126L77.0136 98.7086L76.8576 98.4096C76.6586 98.0276 76.4656 97.8866 76.2166 98.0136C75.9686 98.1416 75.9716 98.3786 76.1716 98.7616L77.1236 100.593C77.3226 100.976 77.5156 101.116 77.7636 100.989C78.0116 100.862 78.0086 100.624 77.8086 100.241L77.6206 99.8786L78.1966 99.5836L78.3206 99.8246C78.7236 100.596 78.6156 101.162 78.0146 101.471Z" fill="white"/>
<path d="M78.0633 97.1161L77.5553 97.4091L77.2812 96.9401L78.8463 96.0361L79.1203 96.5051L78.6123 96.7981L80.4943 100.016L79.9453 100.332L78.0633 97.1161Z" fill="white"/>
<path d="M79.375 95.7103L79.907 95.3643L80.83 96.7683L81.118 96.5813C81.69 96.2113 82.246 96.3223 82.769 97.1183C83.262 97.8693 83.07 98.4093 82.548 98.7483L81.722 99.2833L79.375 95.7103ZM81.949 98.4733L82.195 98.3153C82.363 98.2063 82.567 97.9973 82.209 97.4533C81.855 96.9143 81.573 96.9483 81.379 97.0753L81.136 97.2323L81.949 98.4733Z" fill="white"/>
</svg>
