<svg width="700" height="160" viewBox="0 0 700 160" fill="none" xmlns="http://www.w3.org/2000/svg">
<rect width="700" height="160" fill="#0E4087"/>
<text fill="white" xml:space="preserve" style="white-space: pre" font-family="Arial" font-size="39" letter-spacing="0em"><tspan x="283.845" y="116.021">%s</tspan></text>
<text fill="white" xml:space="preserve" style="white-space: pre" font-family="Arial" font-size="39" font-weight="bold" letter-spacing="0em"><tspan x="277.37" y="71.0205">%s&#x2028;</tspan></text>
<path d="M697.353 38.8964L671.581 51.7585L673.228 55.0469L699 42.1848L697.353 38.8964Z" fill="white"/>
<path d="M685.756 20.6294L662.625 41.1485L665.072 43.8978L688.203 23.3786L685.756 20.6294Z" fill="white"/>
<path d="M663.473 5.72034L651.26 33.9376L654.643 35.3969L666.856 7.17962L663.473 5.72034Z" fill="white"/>
<path d="M640.845 0H637.158V31.5631H640.845V0Z" fill="white"/>
<path d="M614.536 5.7198L611.146 7.17998L623.117 34.8354L623.368 35.3963L626.748 33.9361L614.778 6.27606L614.536 5.7198Z" fill="white"/>
<path d="M589.806 23.3808L612.934 43.8975L615.386 41.1487L592.248 20.6273L589.806 23.3808Z" fill="white"/>
<path d="M580.643 38.909L579 42.1991L604.786 55.034L606.429 51.7439L580.643 38.909Z" fill="white"/>
<path d="M679.974 67.2799H674.375L674.351 67.8825C674.323 72.5004 673.378 77.067 671.572 81.3182C669.765 85.5694 667.132 89.4209 663.825 92.65C661.096 95.4242 657.778 97.5516 654.116 98.8754L651.501 116.954H626.014L623.781 99.0191C604.608 91.6811 603.879 71.5723 603.666 67.609L603.647 67.2799H598.029C593.891 67.2946 589.928 68.9469 587.008 71.8745C584.089 74.802 582.451 78.7659 582.455 82.8969V141.605C582.458 145.344 583.809 148.957 586.26 151.783C588.711 154.61 592.099 156.461 595.805 157H682.203C685.908 156.461 689.296 154.609 691.746 151.783C694.196 148.956 695.546 145.344 695.548 141.605V82.8969C695.553 78.7657 693.915 74.8014 690.996 71.8736C688.076 68.9459 684.113 67.2938 679.974 67.2799ZM626.307 121.223H651.645V124.955H626.307V121.223ZM626.307 128.371H651.645V132.098H626.307V128.371ZM643.775 146.389H633.796V142.658H643.775V146.389ZM651.715 139.246H626.376V135.514H651.715V139.246Z" fill="white"/>
<path d="M625.927 85.6311L640.452 79.6977L627.975 75.8966L636.742 67.8771L637.327 67.2792H608.422V67.8771C608.622 71.4697 609.197 89.2561 627.083 95.9404L627.427 96.0656L629.54 112.716H637.09V93.0423L641.092 89.7604L625.927 85.6311Z" fill="white"/>
<path d="M642.641 67.277L642.13 67.8796L635.644 74.0726L652.35 78.7498L637.413 84.878L649.142 88.1599L640.984 94.8026V112.719H647.865L650.247 95.9522L650.563 95.8178C656.136 93.5302 660.919 89.6678 664.324 84.7047C667.729 79.7416 669.608 73.8939 669.73 67.8796V67.277H642.641Z" fill="white"/>
</svg>
