<svg width="1920" height="1080" viewBox="0 0 1920 1080" fill="none" xmlns="http://www.w3.org/2000/svg">
<rect width="700" height="160" transform="translate(0 754)" fill="#0E4087"/>
<text fill="white" xml:space="preserve" style="white-space: pre" font-family="Arial" font-size="39" letter-spacing="0em"><tspan x="322.902" y="870.021">%s</tspan></text>
<text fill="white" xml:space="preserve" style="white-space: pre" font-family="Arial" font-size="39" font-weight="bold" letter-spacing="0em"><tspan x="321.797" y="825.021">%s</tspan></text>
<path d="M697.353 794.896L671.581 807.758L673.228 811.047L699 798.185L697.353 794.896Z" fill="white"/>
<path d="M685.756 776.629L662.625 797.149L665.072 799.898L688.203 779.379L685.756 776.629Z" fill="white"/>
<path d="M663.473 761.72L651.26 789.938L654.643 791.397L666.856 763.18L663.473 761.72Z" fill="white"/>
<path d="M640.845 756H637.158V787.563H640.845V756Z" fill="white"/>
<path d="M614.536 761.72L611.146 763.18L623.117 790.835L623.368 791.396L626.748 789.936L614.778 762.276L614.536 761.72Z" fill="white"/>
<path d="M589.806 779.381L612.934 799.898L615.386 797.149L592.248 776.627L589.806 779.381Z" fill="white"/>
<path d="M580.643 794.909L579 798.199L604.786 811.034L606.429 807.744L580.643 794.909Z" fill="white"/>
<path d="M679.974 823.28H674.375L674.351 823.882C674.323 828.5 673.378 833.067 671.572 837.318C669.765 841.569 667.132 845.421 663.825 848.65C661.096 851.424 657.778 853.552 654.116 854.875L651.501 872.954H626.014L623.781 855.019C604.608 847.681 603.879 827.572 603.666 823.609L603.647 823.28H598.029C593.891 823.295 589.928 824.947 587.008 827.874C584.089 830.802 582.451 834.766 582.455 838.897V897.605C582.458 901.344 583.809 904.957 586.26 907.783C588.711 910.61 592.099 912.461 595.805 913H682.203C685.909 912.461 689.296 910.609 691.746 907.783C694.196 904.956 695.546 901.344 695.548 897.605V838.897C695.553 834.766 693.915 830.801 690.996 827.874C688.076 824.946 684.113 823.294 679.974 823.28ZM626.307 877.223H651.645V880.955H626.307V877.223ZM626.307 884.371H651.645V888.098H626.307V884.371ZM643.775 902.389H633.796V898.658H643.775V902.389ZM651.715 895.246H626.376V891.514H651.715V895.246Z" fill="white"/>
<path d="M625.927 841.631L640.452 835.698L627.975 831.897L636.742 823.877L637.327 823.279H608.422V823.877C608.622 827.47 609.197 845.256 627.083 851.94L627.427 852.066L629.54 868.716H637.09V849.042L641.092 845.76L625.927 841.631Z" fill="white"/>
<path d="M642.641 823.277L642.13 823.88L635.644 830.073L652.35 834.75L637.413 840.878L649.142 844.16L640.984 850.803V868.719H647.865L650.247 851.952L650.563 851.818C656.136 849.53 660.919 845.668 664.324 840.705C667.729 835.742 669.608 829.894 669.73 823.88V823.277H642.641Z" fill="white"/>
</svg>
