<svg width="1488" height="984" viewBox="0 0 1488 984" fill="none" xmlns="http://www.w3.org/2000/svg">
<g clip-path="url(#clip0_5165_73185)">
<path d="M0 836H1488V968C1488 976.837 1480.84 984 1472 984H16C7.16343 984 0 976.837 0 968V836Z" fill="#4C83C3"/>
<path d="M50.4247 934.528C50.0202 934.451 49.604 934.466 49.2055 934.569C48.8071 934.672 48.4362 934.861 48.1195 935.124C47.8027 935.387 47.5477 935.716 47.3727 936.089C47.1977 936.461 47.107 936.868 47.107 937.28C47.107 937.691 47.1977 938.098 47.3727 938.47C47.5477 938.843 47.8027 939.172 48.1195 939.435C48.4362 939.698 48.8071 939.887 49.2055 939.99C49.604 940.094 50.0202 940.108 50.4247 940.031C50.8293 940.108 51.2457 940.094 51.6442 939.991C52.0428 939.888 52.4137 939.698 52.7306 939.435C53.0475 939.172 53.3026 938.843 53.4776 938.47C53.6527 938.098 53.7435 937.691 53.7435 937.28C53.7435 936.868 53.6527 936.461 53.4776 936.089C53.3026 935.716 53.0475 935.387 52.7306 935.124C52.4137 934.861 52.0428 934.671 51.6442 934.568C51.2457 934.465 50.8293 934.451 50.4247 934.528ZM50.4247 938.973C49.1789 938.973 48.1663 938.212 48.1663 937.28C48.1663 936.347 49.1789 935.585 50.4247 935.585C51.6705 935.585 52.6848 936.345 52.6848 937.28C52.6848 938.214 51.6705 938.973 50.4247 938.973Z" fill="white"/>
<path d="M45.9118 939.354C45.7938 938.696 45.4212 938.11 44.8746 937.725C44.3281 937.34 43.6518 937.185 42.9921 937.295C42.324 937.32 41.6927 937.607 41.235 938.095C40.7772 938.582 40.53 939.23 40.5468 939.899C40.608 940.215 40.7327 940.516 40.9134 940.783C41.0941 941.05 41.327 941.277 41.5981 941.452C41.8691 941.626 42.1728 941.744 42.4906 941.798C42.8084 941.852 43.1339 941.841 43.4473 941.766C45.0014 941.609 46.038 940.593 45.9118 939.354ZM43.3499 940.812C42.5305 940.895 41.6137 940.612 41.5307 939.799C41.5735 939.402 41.7517 939.031 42.0354 938.749C42.319 938.467 42.691 938.291 43.0889 938.25C43.4869 938.209 43.8867 938.307 44.2215 938.526C44.5563 938.745 44.8057 939.072 44.9279 939.453C45.011 940.269 44.1677 940.729 43.3499 940.812Z" fill="white"/>
<path d="M36.2549 939.359C34.7983 939.359 33.8942 940.044 33.8942 941.146C33.8942 942.248 34.7983 942.933 36.2549 942.933C37.7116 942.933 38.614 942.249 38.614 941.146C38.614 940.042 37.71 939.359 36.2549 939.359ZM36.2533 941.984C35.6001 941.984 34.819 941.841 34.819 941.146C34.819 940.454 35.6001 940.309 36.2533 940.309C36.9098 940.309 37.6908 940.454 37.6908 941.146C37.6908 941.841 36.9098 941.984 36.2533 941.984Z" fill="white"/>
<path d="M70.7471 919.37C70.5861 918.336 70.1844 917.354 69.5743 916.504C68.9642 915.653 68.1629 914.958 67.2348 914.475C67.2045 914.454 67.1789 914.435 67.1502 914.414L67.1374 914.404L67.0256 914.332V915.917C67.0767 915.949 67.155 916.003 67.2348 916.061C67.8033 916.427 68.291 916.905 68.6681 917.467C69.0452 918.028 69.3037 918.66 69.4278 919.325C69.4231 920.146 69.2214 920.954 68.8398 921.681C68.4582 922.407 67.9078 923.032 67.2348 923.502C67.2157 923.521 67.1981 923.539 67.1773 923.556L67.0256 923.69L66.9202 923.781L67.0256 923.823L67.2348 923.906L67.2364 923.908C67.2604 923.917 69.5572 924.887 68.4631 928.284C67.8779 929.904 66.7857 931.292 65.3487 932.242C63.9117 933.192 62.2065 933.653 60.4866 933.556H60.4323C57.2068 933.468 54.0625 932.526 51.3203 930.825L51.1781 930.747L51.0647 930.863C49.6316 932.328 47.7205 933.23 45.679 933.405C45.6422 933.413 43.133 933.596 41.5007 930.303L41.4176 930.137L41.2435 930.197C41.2227 930.204 39.338 930.828 38.335 929.884C38.2676 929.821 38.2056 929.752 38.1497 929.678H37.8718V929.675H36.9055V929.678H36.6888L36.7031 929.731L36.7303 929.801C36.7399 929.827 36.7495 929.851 36.7638 929.884C36.9747 930.389 37.8723 931.996 40.7457 931.633C41.2529 932.506 41.9691 933.238 42.8298 933.765C43.6905 934.292 44.6686 934.596 45.6762 934.65H45.6778C47.7966 934.614 49.8251 933.787 51.3655 932.331C54.0661 933.758 57.0335 934.609 60.0798 934.829C60.416 934.829 60.752 934.811 61.0861 934.773C62.8734 934.729 64.6115 934.179 66.0994 933.188C67.5872 932.196 68.7641 930.804 69.4938 929.172C69.9227 928.287 70.0892 927.299 69.9737 926.322C69.8583 925.346 69.4656 924.423 68.8421 923.663C69.44 923.119 69.9182 922.456 70.2462 921.717C70.5743 920.978 70.7445 920.179 70.7471 919.37Z" fill="white"/>
<path d="M29.8457 940.678C28.298 940.678 28 941.57 28 941.996C28 942.423 28.298 943.314 29.8457 943.314C31.0149 943.314 31.6914 942.854 31.6914 941.996C31.6914 941.138 31.0149 940.678 29.8457 940.678ZM29.8457 942.466C28.98 942.466 28.8481 942.18 28.8481 941.996C28.8481 941.812 28.98 941.526 29.8457 941.526C29.9543 941.526 30.9004 941.526 30.9004 941.996C30.9004 942.466 29.9543 942.466 29.8457 942.466Z" fill="white"/>
<path d="M66.9007 915.958L66.7362 915.867C64.537 913.86 61.7313 912.643 58.7629 912.409C58.3345 912.409 57.9069 912.447 57.4852 912.522C56.5884 912.697 55.7351 913.048 54.9744 913.554C54.2137 914.06 53.5607 914.711 53.0529 915.471L52.577 916.276L52.4364 915.351C52.0674 912.942 50.8568 912.783 50.8328 912.78C50.7456 912.762 50.6567 912.753 50.5677 912.754C49.25 912.754 47.5042 914.505 47.4851 914.524L47.0746 914.939L46.926 914.377C45.9981 910.927 43.663 910.855 43.5751 910.853C41.9455 910.852 40.3752 911.465 39.178 912.57C38.7317 913.137 38.5154 913.85 38.5723 914.569C38.6291 915.288 38.9549 915.959 39.4847 916.448L39.8153 916.795L39.3745 916.987C34.9406 918.911 35.1946 920.539 35.1994 920.566C35.3527 921.735 37.9322 922.922 39.523 923.393L39.9766 923.53L39.6971 923.912C37.1511 927.38 37.913 929.095 38.0951 929.402L38.151 929.552H61.5437C62.9669 929.547 64.3303 928.978 65.3347 927.97C66.339 926.961 66.9022 925.596 66.9007 924.172V915.958Z" fill="white"/>
<path d="M61.5445 898.654H33.357C31.9357 898.656 30.5734 899.222 29.569 900.228C28.5647 901.233 28.0004 902.596 28 904.018V924.189C28.0004 925.61 28.5647 926.973 29.569 927.979C30.5733 928.985 31.9357 929.551 33.357 929.554H36.5003L36.478 929.501C36.2893 928.618 36.2828 927.705 36.4588 926.819C36.6349 925.932 36.9897 925.091 37.5018 924.347C35.0133 923.317 33.7212 922.085 33.6605 920.689C33.5679 918.533 36.4237 916.776 37.4682 916.208C37.1936 915.684 37.031 915.11 36.9908 914.52C36.9507 913.93 37.0339 913.339 37.235 912.783C37.8292 911.532 38.889 910.562 40.1883 910.081C41.1287 909.621 42.1573 909.37 43.2038 909.344C43.8337 909.341 44.4583 909.461 45.0422 909.697C46.2406 910.222 47.216 911.153 47.7974 912.325C48.6165 911.723 49.5922 911.371 50.6068 911.311C50.9082 911.31 51.2077 911.357 51.4949 911.448C52.2552 911.721 52.8821 912.275 53.247 912.996C54.7039 911.68 56.6029 910.962 58.5657 910.983C61.58 911.192 64.4682 912.274 66.8776 914.098L66.9015 914.115V904.018C66.9007 902.597 66.3362 901.234 65.332 900.228C64.3277 899.223 62.9656 898.656 61.5445 898.654Z" fill="white"/>
<path d="M115.28 888.875L106.415 893.307L106.981 894.44L115.846 890.008L115.28 888.875Z" fill="white"/>
<path d="M111.29 882.581L103.334 889.651L104.176 890.598L112.132 883.528L111.29 882.581Z" fill="white"/>
<path d="M103.626 877.444L99.4248 887.167L100.589 887.669L104.789 877.947L103.626 877.444Z" fill="white"/>
<path d="M95.8421 875.473H94.5739V886.348H95.8421V875.473Z" fill="white"/>
<path d="M86.7925 877.444L85.6265 877.947L89.7441 887.476L89.8304 887.669L90.9931 887.166L86.8755 877.636L86.7925 877.444Z" fill="white"/>
<path d="M78.2858 883.529L86.2415 890.598L87.0848 889.651L79.1259 882.58L78.2858 883.529Z" fill="white"/>
<path d="M75.1341 888.88L74.5689 890.013L83.4386 894.436L84.0039 893.302L75.1341 888.88Z" fill="white"/>
<path d="M109.302 898.655H107.376L107.368 898.863C107.358 900.454 107.033 902.027 106.411 903.492C105.79 904.957 104.884 906.284 103.747 907.397C102.808 908.352 101.667 909.085 100.407 909.542L99.5077 915.771H90.7407L89.9724 909.591C83.3776 907.063 83.1268 900.134 83.0533 898.768L83.0469 898.655H81.1143C79.691 898.66 78.3277 899.229 77.3235 900.238C76.3192 901.247 75.756 902.613 75.7573 904.036V924.265C75.7584 925.553 76.223 926.798 77.0661 927.771C77.9092 928.745 79.0746 929.383 80.3493 929.569H110.068C111.343 929.383 112.508 928.745 113.351 927.771C114.194 926.797 114.658 925.553 114.659 924.265V904.036C114.66 902.613 114.097 901.247 113.093 900.238C112.089 899.229 110.725 898.66 109.302 898.655ZM90.8413 917.242H99.5572V918.527H90.8413V917.242ZM90.8413 919.705H99.5572V920.989H90.8413V919.705ZM96.85 925.913H93.4176V924.627H96.85V925.913ZM99.5812 923.452H90.8653V922.166H99.5812V923.452Z" fill="white"/>
<path d="M90.7108 904.978L95.7068 902.934L91.4152 901.624L94.4307 898.861L94.6319 898.655H84.6893V898.861C84.758 900.099 84.9561 906.227 91.1085 908.53L91.2267 908.573L91.9534 914.311H94.5505V907.532L95.9273 906.401L90.7108 904.978Z" fill="white"/>
<path d="M96.46 898.654L96.2843 898.862L94.053 900.996L99.7998 902.607L94.6616 904.719L98.6961 905.849L95.8898 908.138V914.311H98.2569L99.0762 908.534L99.1848 908.488C101.102 907.7 102.747 906.369 103.918 904.659C105.09 902.949 105.736 900.934 105.778 898.862V898.654H96.46Z" fill="white"/>
<path d="M157.129 898.655H146.406C151.132 902.181 153.802 905.845 154.347 909.548C154.524 911.14 154.371 912.752 153.897 914.282C153.423 915.813 152.638 917.229 151.592 918.442L151.501 918.561C147.39 923.803 138.999 927.764 135.581 929.222C135.195 929.34 134.806 929.456 134.415 929.569H157.129C158.549 929.564 159.909 928.997 160.911 927.99C161.913 926.984 162.475 925.622 162.474 924.202V904.021C162.475 902.601 161.913 901.239 160.911 900.233C159.909 899.227 158.549 898.659 157.129 898.655Z" fill="white"/>
<path d="M143.774 898.878L143.526 898.688H128.793C127.373 898.693 126.013 899.261 125.011 900.267C124.009 901.274 123.448 902.636 123.449 904.056V924.234C123.447 925.654 124.009 927.017 125.011 928.024C126.013 929.03 127.373 929.599 128.793 929.604H128.872L129.482 929.401C143.191 924.866 152.203 917.959 152.646 911.43C153.098 904.858 144.706 899.474 143.774 898.878Z" fill="white"/>
<path d="M155.607 873.509C155.753 872.664 155.827 871.807 155.829 870.949C155.879 869.021 155.428 867.114 154.52 865.413C153.611 863.712 152.276 862.277 150.646 861.247C148.339 859.779 145.67 858.981 142.936 858.941C140.202 858.901 137.511 859.622 135.163 861.022C133.458 862.137 132.075 863.679 131.153 865.495C130.23 867.311 129.799 869.336 129.903 871.37C129.908 872.37 129.99 873.367 130.149 874.354C130.894 879.174 133.489 883.512 137.383 886.448C135.338 885.894 132.668 885.629 131.511 887.504C131.37 887.682 131.267 887.888 131.209 888.109C131.151 888.329 131.139 888.559 131.174 888.784C131.209 889.009 131.29 889.224 131.412 889.417C131.534 889.609 131.695 889.774 131.883 889.901C133.37 890.968 136.985 890.686 139.168 889.436L137.67 892.926H147.726L145.715 888.903C148.148 889.92 150.968 890.839 152.492 889.909C152.802 889.716 153.056 889.447 153.231 889.127C153.406 888.808 153.496 888.448 153.492 888.084C153.538 887.696 153.479 887.303 153.322 886.945C153.165 886.587 152.916 886.278 152.599 886.049C151.449 885.451 150.115 885.307 148.863 885.646C149.041 885.501 149.21 885.356 149.379 885.207C152.74 882.141 154.94 878.009 155.607 873.509ZM132.625 888.871C132.479 888.767 132.3 888.638 132.591 888.168C133.462 886.75 136.373 887.295 138.74 888.235C137.829 888.782 136.81 889.122 135.753 889.231C134.696 889.341 133.629 889.218 132.625 888.871ZM151.869 887.084C152.011 887.19 152.119 887.333 152.183 887.498C152.246 887.663 152.261 887.842 152.227 888.015C152.236 888.173 152.205 888.331 152.136 888.473C152.067 888.615 151.962 888.737 151.833 888.828C151.258 889.179 149.787 889.248 146.062 887.676C148.333 886.919 150.911 886.408 151.869 887.084ZM144.465 886.902C144.313 886.962 144.198 887.007 144.144 887.03L143.701 887.183L143.489 887.287L143.497 887.299L142.764 887.603L143.899 888.111L145.675 891.66H139.595L141.345 887.576L140.708 887.197C138.261 885.881 136.15 884.021 134.536 881.76C132.923 879.498 131.851 876.896 131.403 874.154C131.255 873.24 131.178 872.315 131.174 871.388C131.074 869.564 131.453 867.746 132.273 866.115C133.094 864.483 134.327 863.095 135.851 862.088C137.99 860.815 140.441 860.162 142.93 860.2C145.419 860.238 147.849 860.967 149.948 862.305C151.401 863.226 152.59 864.508 153.398 866.026C154.207 867.545 154.607 869.247 154.561 870.966C154.558 871.748 154.49 872.528 154.356 873.298C153.969 876.21 152.862 878.978 151.134 881.354C149.407 883.729 147.115 885.636 144.465 886.902Z" fill="white"/>
<path d="M145.868 898.405L145.782 898.344C145.78 898.343 145.766 898.336 145.742 898.32C144.789 897.727 143.972 896.941 143.344 896.011C142.715 895.082 142.288 894.031 142.092 892.927H140.726C140.944 895.014 141.943 896.941 143.524 898.32C143.558 898.349 143.595 898.376 143.631 898.405C143.684 898.447 143.735 898.49 143.788 898.53H145.827L146.046 898.528L145.868 898.405Z" fill="white"/>
<text transform="translate(28 858.939)" fill="white" xml:space="preserve" style="white-space: pre" font-family="Helvetica" font-size="12.6562" letter-spacing="0em"><tspan x="7.45903" y="37.096">nerc</tspan></text>
<text fill="white" xml:space="preserve" style="white-space: pre" font-family="Helvetica" font-size="20.0391" letter-spacing="0em"><tspan x="28" y="955.257">icpc.foundation</tspan></text>
<text fill="white" xml:space="preserve" style="white-space: pre" font-family="Helvetica" font-size="27.3714" letter-spacing="0em"><tspan x="192.787" y="873.785">New Uzbekistan University</tspan></text>
<text fill="white" xml:space="preserve" style="white-space: pre" font-family="Helvetica" font-size="39.7154" letter-spacing="0em"><tspan x="192.787" y="920.735">NewUU: B-Force</tspan></text>
<text fill="white" xml:space="preserve" style="white-space: pre" font-family="Helvetica" font-size="25" letter-spacing="0em"><tspan x="192.787" y="954.642">(Rustamov, Musurmonov, Olimov)</tspan></text>
<path d="M1146.3 955.516C1043.61 1029.2 892.287 1050.18 864 1053.6C866.416 1066.6 866.473 1210.82 986.387 1222.25C1136.28 1236.54 1304.93 1167.45 1391.29 1026.3C1460.37 913.384 1590.08 903.348 1646.3 912.446C1599.25 872.574 1478.62 797.436 1372.52 815.858C1239.9 838.885 1274.66 863.406 1146.3 955.516Z" fill="white"/>
<path d="M1374.79 992.495C1374.91 992.517 1375.04 992.539 1375.16 992.563C1378.92 993.274 1381.83 994.852 1383.22 996.798L1383.92 997.726M1374.79 992.495C1373.82 992.328 1372.89 992.233 1372.09 992.233L1360.75 992.233C1359.94 992.233 1359.01 992.324 1358.05 992.489M1374.79 992.495L1374.79 988.055M1358.05 992.489C1357.95 992.506 1357.85 992.524 1357.75 992.542C1353.95 993.242 1351.02 994.832 1349.62 996.79L1348.93 997.725M1358.05 992.489L1358.05 988.041M1348.93 997.725L1383.92 997.726M1348.93 997.725L1345.06 997.725M1383.92 997.726L1387.78 997.726M1383.67 978.349C1383.67 978.349 1382.54 978.066 1381.97 976.755C1381.4 975.445 1381.65 972.788 1382.22 973.071C1382.26 973.09 1382.3 973.109 1382.36 973.127M1383.67 978.349C1384.48 977.627 1389.98 972.653 1391.29 970.131C1392.7 967.403 1393.17 965.206 1392.42 963.789C1392.02 963.033 1391.64 962.671 1391.36 962.497C1391.15 962.36 1390.87 962.396 1390.68 962.569C1390.28 962.944 1389.56 963.786 1389.34 965.206C1389.02 967.226 1388.56 970.45 1387.07 972.044C1385.68 973.531 1383.15 973.384 1382.36 973.127M1383.67 978.349L1383.22 979.754C1381.82 983.533 1378.89 986.601 1375.09 987.952C1374.99 987.988 1374.89 988.022 1374.79 988.055M1349.09 978.35C1349.09 978.35 1350.23 978.067 1350.79 976.756C1351.36 975.445 1351.11 972.789 1350.54 973.072C1350.53 973.082 1350.5 973.092 1350.48 973.101M1349.09 978.35C1349.09 978.35 1342.89 972.859 1341.48 970.132C1340.06 967.404 1339.6 965.207 1340.34 963.79C1340.73 963.06 1341.1 962.697 1341.37 962.516C1341.6 962.364 1341.9 962.403 1342.1 962.592C1342.51 962.976 1343.2 963.813 1343.42 965.207C1343.74 967.227 1344.2 970.45 1345.69 972.045C1347.13 973.583 1349.78 973.373 1350.48 973.101M1349.09 978.35L1349.61 979.739C1351 983.494 1353.91 986.539 1357.67 987.911C1357.8 987.957 1357.92 988 1358.05 988.041M1383.89 1024.97L1348.59 1024.97M1383.89 1024.97L1387.78 1028.23M1383.89 1024.97L1348.59 1024.97M1383.89 1024.97L1383.89 1000.88M1348.59 1024.97L1348.59 1000.88M1348.59 1024.97L1345.06 1028.22M1348.59 1000.88L1383.89 1000.88M1348.59 1000.88L1345.06 997.725M1383.89 1000.88L1383.89 1000.88M1383.89 1000.88L1387.78 997.726M1345.06 997.725L1348.59 1000.88M1345.06 997.725L1345.06 1028.22M1345.06 997.725L1387.78 997.726M1348.59 1000.88L1348.59 1024.97M1348.59 1000.88L1383.89 1000.88M1348.59 1024.97L1345.06 1028.23M1387.78 1028.23L1387.78 997.728M1387.78 1028.23L1345.06 1028.23M1349.05 958.063C1348.31 956.105 1347.28 954.252 1345.99 952.566L1348.01 951.803C1359.57 947.435 1372.31 947.334 1383.93 951.518L1386.85 952.566C1385.56 954.252 1384.53 956.106 1383.78 958.064M1349.05 958.063C1349.99 960.522 1350.48 963.145 1350.48 965.81L1350.48 973.101M1349.05 958.063C1344.11 956.689 1341.02 954.735 1341.02 952.567C1341.02 948.407 1352.39 945.035 1366.42 945.035C1380.45 945.035 1391.82 948.407 1391.82 952.567C1391.82 954.736 1388.73 956.69 1383.78 958.064M1383.78 958.064C1382.85 960.523 1382.36 963.146 1382.36 965.811L1382.36 973.127M1358.05 988.041C1359.02 988.365 1359.95 988.548 1360.75 988.548L1372.09 988.548C1372.9 988.548 1373.82 988.372 1374.79 988.055M1383.89 1000.88H1383.89L1387.78 997.728M1387.78 997.728L1387.78 997.726H1387.78M1387.78 997.728L1387.78 997.724L1387.78 997.726M1345.06 1028.23H1345.05L1345.06 1028.22M1345.06 1028.23L1345.06 1028.23L1345.06 1028.22" stroke="#FDBA12" stroke-width="1.25562" stroke-miterlimit="10" stroke-linejoin="round"/>
<path d="M1321.8 886.511C1321.93 886.443 1322.06 886.376 1322.19 886.31C1326.13 884.324 1329.9 883.728 1332.54 884.535L1333.83 884.894M1321.8 886.511C1320.8 887.04 1319.88 887.604 1319.15 888.165L1308.77 896.112C1308.03 896.68 1307.25 897.413 1306.48 898.241M1321.8 886.511L1318.69 882.448M1306.48 898.241C1306.4 898.326 1306.32 898.413 1306.24 898.501C1303.26 901.802 1301.69 905.314 1301.78 908.085L1301.81 909.421M1306.48 898.241L1303.36 894.171M1301.81 909.421L1333.83 884.894M1301.81 909.421L1298.26 912.139M1333.83 884.894L1337.35 882.192M1320.01 867.341C1320.01 867.341 1318.78 867.876 1317.34 867.074C1315.9 866.272 1314.27 863.667 1314.98 863.529C1315.03 863.52 1315.09 863.503 1315.15 863.48M1320.01 867.341C1320.25 866.113 1321.79 857.707 1321.22 854.481C1320.61 850.992 1319.49 848.659 1317.81 847.884C1316.92 847.47 1316.31 847.41 1315.94 847.443C1315.65 847.469 1315.42 847.695 1315.37 847.986C1315.26 848.612 1315.2 849.884 1315.99 851.341C1317.11 853.412 1318.95 856.685 1318.71 859.186C1318.48 861.521 1316.06 863.16 1315.15 863.48M1320.01 867.341L1320.59 868.942C1321.96 873.38 1321.42 878.244 1318.89 882.141C1318.83 882.245 1318.76 882.348 1318.69 882.448M1288.37 891.581C1288.37 891.581 1289.21 890.527 1288.81 888.931C1288.41 887.334 1286.32 885.076 1286 885.733C1285.99 885.756 1285.98 885.781 1285.96 885.808M1288.37 891.581C1288.37 891.581 1278.85 890.903 1275.64 889.4C1272.43 887.898 1270.47 886.211 1270.16 884.393C1270 883.456 1270.09 882.862 1270.21 882.505C1270.31 882.205 1270.62 882.029 1270.93 882.062C1271.58 882.127 1272.8 882.408 1273.97 883.529C1275.68 885.153 1278.36 887.78 1280.84 888.196C1283.23 888.597 1285.52 886.542 1285.96 885.808M1288.37 891.581L1289.83 892.487C1293.73 894.949 1298.53 895.695 1302.93 894.314C1303.08 894.268 1303.22 894.22 1303.36 894.171M1352.89 909.844L1320.6 934.585M1352.89 909.844L1358.74 910.098M1352.89 909.844L1320.6 934.585M1352.89 909.844L1336.01 887.803M1320.6 934.585L1303.71 912.543M1320.6 934.585L1319.64 940.045M1303.71 912.543L1336.01 887.801M1303.71 912.543L1298.26 912.139M1336.01 887.801L1336.01 887.803M1336.01 887.801L1337.35 882.192M1298.26 912.139L1303.71 912.543M1298.26 912.139L1319.64 940.045M1298.26 912.139L1337.35 882.192M1303.71 912.543L1320.6 934.585M1303.71 912.543L1336.01 887.803M1320.6 934.585L1319.65 940.046M1358.74 910.098L1337.36 882.192M1358.74 910.098L1319.65 940.046M1274.12 873.045C1272.06 871.776 1269.82 870.8 1267.46 870.162L1268.78 868.048C1276.29 855.949 1287.87 846.927 1301.45 842.605L1304.85 841.523C1304.85 843.97 1305.21 846.386 1305.9 848.7M1274.12 873.045C1276.7 874.64 1278.98 876.698 1280.85 879.136L1285.96 885.808M1274.12 873.045C1268.63 875.254 1264.43 875.632 1262.91 873.648C1260 869.842 1268.04 858.785 1280.88 848.951C1293.71 839.117 1306.48 834.23 1309.4 838.036C1310.92 840.02 1309.46 843.975 1305.9 848.7M1305.9 848.7C1306.77 851.605 1308.16 854.347 1310.03 856.786L1315.15 863.48M1303.36 894.171C1304.48 893.785 1305.46 893.3 1306.19 892.739L1316.56 884.792C1317.31 884.225 1318.03 883.415 1318.69 882.448M1336.01 887.803L1336.01 887.802L1337.36 882.192M1337.36 882.192L1337.36 882.189L1337.35 882.192M1337.36 882.192L1337.36 882.189L1337.35 882.192M1319.65 940.046L1319.64 940.048L1319.64 940.045M1319.65 940.046L1319.65 940.048L1319.64 940.045" stroke="#B22C1B" stroke-width="1.25571" stroke-miterlimit="10" stroke-linejoin="round"/>
<path d="M1433.88 889.641C1434.04 889.715 1434.2 889.791 1434.36 889.868C1439.18 892.184 1442.54 895.364 1443.72 898.492L1444.33 899.997M1433.88 889.641C1432.62 889.064 1431.4 888.601 1430.32 888.313L1415.01 884.228C1413.92 883.936 1412.63 883.726 1411.27 883.6M1433.88 889.641L1435.48 883.644M1411.27 883.6C1411.13 883.587 1410.98 883.575 1410.84 883.564C1405.46 883.141 1400.93 884.231 1398.33 886.372L1397.07 887.388M1411.27 883.6L1412.87 877.593M1397.07 887.388L1444.33 899.997M1397.07 887.388L1391.83 885.991M1444.33 899.997L1449.53 901.386M1450.97 873.736C1450.97 873.736 1449.54 872.944 1449.25 870.97C1448.96 868.995 1450.25 865.496 1450.91 866.083C1450.96 866.122 1451.01 866.165 1451.08 866.21M1450.97 873.736C1452.32 873.05 1461.54 868.314 1464.22 865.379C1467.12 862.206 1468.53 859.405 1468.04 857.223C1467.77 856.059 1467.38 855.429 1467.07 855.096C1466.83 854.833 1466.44 854.782 1466.13 854.949C1465.45 855.309 1464.18 856.189 1463.36 858.026C1462.2 860.639 1460.42 864.827 1457.84 866.444C1455.42 867.953 1452.06 866.842 1451.08 866.21M1450.97 873.736L1449.85 875.47C1446.61 880.07 1441.54 883.156 1435.92 883.613C1435.77 883.625 1435.62 883.635 1435.48 883.644M1404.27 861.277C1404.27 861.277 1405.9 861.303 1407.14 859.737C1408.38 858.171 1409 854.493 1408.13 854.671C1408.1 854.677 1408.07 854.682 1408.03 854.687M1404.27 861.277C1404.27 861.277 1397.87 851.627 1396.94 847.432C1396.01 843.237 1396.18 840.104 1397.69 838.459C1398.48 837.611 1399.11 837.255 1399.54 837.109C1399.91 836.986 1400.3 837.147 1400.51 837.475C1400.92 838.141 1401.55 839.521 1401.35 841.483C1401.05 844.325 1400.51 848.845 1401.95 851.535C1403.33 854.13 1406.99 854.803 1408.03 854.687M1404.27 861.277L1404.47 863.341C1404.99 868.912 1407.83 874.074 1412.41 877.282C1412.56 877.389 1412.72 877.493 1412.87 877.593M1434.47 936.778L1386.8 924.06M1434.47 936.778L1438.55 942.582M1434.47 936.778L1386.8 924.062M1434.47 936.778L1443.15 904.244M1386.8 924.06L1395.48 891.523M1386.8 924.06L1380.84 927.185M1395.48 891.523L1443.15 904.241M1395.48 891.523L1391.83 885.991M1443.15 904.241L1443.15 904.244M1443.15 904.241L1449.53 901.386M1391.83 885.991L1395.48 891.525M1391.83 885.991L1380.84 927.185M1391.83 885.991L1449.53 901.386M1395.48 891.525L1386.8 924.062M1395.48 891.525L1443.15 904.244M1386.8 924.062L1380.85 927.187M1438.55 942.582L1449.54 901.389M1438.55 942.582L1380.85 927.187M1411.52 833.863C1411.22 830.95 1410.5 828.076 1409.37 825.335L1412.37 825.031C1429.56 823.296 1446.8 827.749 1460.99 837.59L1464.55 840.056C1462.2 841.868 1460.14 844.001 1458.43 846.378M1411.52 833.863C1411.9 837.52 1411.62 841.24 1410.66 844.839L1408.03 854.687M1411.52 833.863C1405.34 830.225 1401.87 826.472 1402.65 823.544C1404.15 817.925 1420.73 817.469 1439.67 822.524C1458.62 827.579 1472.77 836.231 1471.27 841.85C1470.49 844.778 1465.61 846.304 1458.43 846.378M1458.43 846.378C1456.28 849.362 1454.68 852.729 1453.72 856.328L1451.08 866.21M1412.87 877.593C1414.07 878.381 1415.26 878.963 1416.34 879.252L1431.65 883.336C1432.74 883.628 1434.06 883.724 1435.48 883.644M1443.15 904.244L1443.15 904.244L1449.54 901.389M1449.54 901.389L1449.54 901.388L1449.53 901.386M1449.54 901.389L1449.54 901.385L1449.53 901.386M1380.85 927.187L1380.84 927.186L1380.84 927.185M1380.85 927.187L1380.84 927.189L1380.84 927.185" stroke="#4C83C3" stroke-width="1.25571" stroke-miterlimit="10" stroke-linejoin="round"/>
<path d="M1240.44 972.897C1240.57 972.971 1240.7 973.046 1240.82 973.123C1244.65 975.418 1247.19 978.317 1247.92 981.003L1248.31 982.299M1240.44 972.897C1239.45 972.321 1238.47 971.843 1237.6 971.52L1225.21 966.944C1224.32 966.617 1223.28 966.343 1222.15 966.133M1240.44 972.897L1242.23 968.046M1222.15 966.133C1222.04 966.111 1221.92 966.09 1221.8 966.07C1217.37 965.303 1213.53 965.855 1211.21 967.431L1210.08 968.176M1222.15 966.133L1223.95 961.274M1210.08 968.176L1248.31 982.299M1210.08 968.176L1205.85 966.611M1248.31 982.299L1252.52 983.854M1255.86 961.027C1255.86 961.027 1254.73 960.26 1254.64 958.599C1254.55 956.939 1255.89 954.136 1256.4 954.674C1256.43 954.71 1256.48 954.75 1256.53 954.793M1255.86 961.027C1257.03 960.563 1265.05 957.349 1267.49 955.122C1270.14 952.714 1271.53 950.5 1271.29 948.652C1271.16 947.665 1270.89 947.113 1270.66 946.812C1270.48 946.576 1270.16 946.503 1269.89 946.617C1269.29 946.863 1268.17 947.494 1267.35 948.956C1266.19 951.033 1264.39 954.37 1262.12 955.511C1260 956.576 1257.29 955.393 1256.53 954.793M1255.86 961.027L1254.8 962.38C1251.74 965.944 1247.3 968.111 1242.61 968.055C1242.48 968.053 1242.36 968.05 1242.23 968.046M1218.08 947.072C1218.08 947.072 1219.43 947.22 1220.58 946.017C1221.73 944.813 1222.53 941.811 1221.79 941.891C1221.77 941.894 1221.74 941.896 1221.71 941.896M1218.08 947.072C1218.08 947.072 1213.52 938.571 1213.07 935.019C1212.63 931.466 1213.01 928.881 1214.39 927.633C1215.11 926.99 1215.66 926.744 1216.03 926.656C1216.34 926.583 1216.66 926.747 1216.8 927.035C1217.09 927.619 1217.51 928.813 1217.19 930.425C1216.72 932.76 1215.92 936.468 1216.91 938.81C1217.85 941.07 1220.84 941.913 1221.71 941.896M1218.08 947.072L1218.09 948.8C1218.09 953.462 1220.04 957.964 1223.59 960.981C1223.71 961.081 1223.83 961.179 1223.95 961.274M1237.28 1012.05L1198.72 997.801M1237.28 1012.05L1240.21 1017.18M1237.28 1012.05L1198.72 997.803M1237.28 1012.05L1247 985.73M1198.72 997.801L1208.44 971.482M1198.72 997.801L1193.54 999.932M1208.44 971.482L1247 985.728M1208.44 971.482L1205.85 966.611M1247 985.728L1247 985.73M1247 985.728L1252.52 983.854M1205.85 966.611L1208.44 971.484M1205.85 966.611L1193.54 999.932M1205.85 966.611L1252.52 983.854M1208.44 971.484L1198.72 997.803M1208.44 971.484L1247 985.73M1198.72 997.803L1193.54 999.934M1240.21 1017.18L1252.52 983.857M1240.21 1017.18L1193.54 999.934M1226.22 924.892C1226.2 922.452 1225.83 920.013 1225.1 917.651L1227.61 917.632C1242 917.524 1255.96 922.555 1266.97 931.819L1269.73 934.14C1267.64 935.461 1265.77 937.071 1264.17 938.911M1226.22 924.892C1226.25 927.955 1225.73 931.019 1224.65 933.931L1221.71 941.896M1226.22 924.892C1221.37 921.395 1218.79 918.013 1219.66 915.644C1221.34 911.1 1235.13 912.006 1250.45 917.668C1265.78 923.33 1276.84 931.604 1275.17 936.149C1274.29 938.518 1270.13 939.406 1264.17 938.911M1264.17 938.911C1262.15 941.219 1260.56 943.888 1259.49 946.799L1256.53 954.793M1223.95 961.274C1224.88 962.021 1225.82 962.596 1226.7 962.919L1239.08 967.494C1239.97 967.821 1241.05 968.003 1242.23 968.046M1247 985.73L1247 985.73L1252.52 983.857M1252.52 983.857L1252.53 983.856L1252.52 983.854M1252.52 983.857L1252.52 983.853L1252.52 983.854M1193.54 999.934L1193.54 999.933L1193.54 999.932M1193.54 999.934L1193.54 999.935L1193.54 999.932" stroke="#4C83C3" stroke-width="1.25571" stroke-miterlimit="10" stroke-linejoin="round"/>
<rect x="842" y="854" width="99" height="33" rx="16.5" fill="white"/>
<text fill="black" xml:space="preserve" style="white-space: pre" font-family="Helvetica" font-size="16" letter-spacing="0em"><tspan x="862" y="875.712">#kaz027</tspan></text>
</g>
<defs>
<clipPath id="clip0_5165_73185">
<path d="M0 836H1488V968C1488 976.837 1480.84 984 1472 984H16C7.16343 984 0 976.837 0 968V836Z" fill="white"/>
</clipPath>
</defs>
</svg>
