<?xml version="1.0" encoding="UTF-8" standalone="no"?>
<!-- Generator: Adobe Illustrator 23.0.0, SVG Export Plug-In . SVG Version: 6.00 Build 0)  -->

<svg
   version="1.1"
   id="Слой_1"
   x="0px"
   y="0px"
   viewBox="0 0 56.830002 56.996033"
   xml:space="preserve"
   sodipodi:docname="spbetu-logo-en.svg"
   width="56.830002"
   height="56.996033"
   inkscape:version="1.3.2 (091e20e, 2023-11-25, custom)"
   xmlns:inkscape="http://www.inkscape.org/namespaces/inkscape"
   xmlns:sodipodi="http://sodipodi.sourceforge.net/DTD/sodipodi-0.dtd"
   xmlns="http://www.w3.org/2000/svg"
   xmlns:svg="http://www.w3.org/2000/svg"><defs
   id="defs55">
	
	
	
	
	
	
	
	
	
	
	
	
	
	
	
	
	
	
	
	
	
	
	
	
	
	
	
	
	
	
	
	
	
	
	
	
	
	
	
	
	
	
	
	
	
	
	
	
	
	
	
	
	
	
	
</defs><sodipodi:namedview
   id="namedview55"
   pagecolor="#ffffff"
   bordercolor="#000000"
   borderopacity="0.25"
   inkscape:showpageshadow="2"
   inkscape:pageopacity="0.0"
   inkscape:pagecheckerboard="0"
   inkscape:deskcolor="#d1d1d1"
   showgrid="false"
   inkscape:zoom="1.4072609"
   inkscape:cx="179.42657"
   inkscape:cy="98.77344"
   inkscape:window-width="1560"
   inkscape:window-height="970"
   inkscape:window-x="-6"
   inkscape:window-y="-6"
   inkscape:window-maximized="1"
   inkscape:current-layer="Слой_1" />
<style
   type="text/css"
   id="style1">
	.st0{fill:#002D74;}
</style>
<path
   class="st0"
   d="m 33.49,30.995 c 0.09,0.76 0.11,1.61 0.11,3.78 0,2.35 -0.02,3.29 -0.11,4.07 h 1.7 c -0.09,-0.77 -0.11,-1.71 -0.11,-4.07 0,-2.16 0.02,-3.01 0.11,-3.78 z"
   id="path8" /><path
   class="st0"
   d="m 39.63,35.155 c 0.82,0 1.32,0.59 1.32,1.59 0,0.95 -0.49,1.52 -1.27,1.52 -0.8,0 -1.31,-0.59 -1.31,-1.59 0,-0.95 0.48,-1.52 1.26,-1.52 z m 0,-3.58 c 0.72,0 1.14,0.54 1.14,1.43 0,0.86 -0.42,1.39 -1.08,1.39 -0.71,0 -1.14,-0.54 -1.14,-1.44 -0.01,-0.86 0.41,-1.38 1.08,-1.38 z m -2.89,5.18 c 0,1.4 1.06,2.23 2.87,2.23 1.86,0 2.96,-0.84 2.96,-2.3 0,-0.95 -0.55,-1.64 -1.54,-1.95 0.83,-0.3 1.3,-0.93 1.3,-1.8 0,-1.3 -0.98,-2.07 -2.65,-2.07 -1.71,0 -2.73,0.78 -2.73,2.14 0,0.85 0.47,1.46 1.31,1.76 -0.97,0.31 -1.52,1 -1.52,1.99 z"
   id="path9" /><path
   class="st0"
   d="m 46.56,35.155 c 0.82,0 1.32,0.59 1.32,1.59 0,0.95 -0.49,1.52 -1.27,1.52 -0.8,0 -1.31,-0.59 -1.31,-1.59 0,-0.95 0.49,-1.52 1.26,-1.52 z m 0,-3.58 c 0.72,0 1.14,0.54 1.14,1.43 0,0.86 -0.42,1.39 -1.08,1.39 -0.71,0 -1.14,-0.54 -1.14,-1.44 0,-0.86 0.42,-1.38 1.08,-1.38 z m -2.88,5.18 c 0,1.4 1.06,2.23 2.87,2.23 1.86,0 2.96,-0.84 2.96,-2.3 0,-0.95 -0.55,-1.64 -1.54,-1.95 0.83,-0.3 1.3,-0.93 1.3,-1.8 0,-1.3 -0.98,-2.07 -2.65,-2.07 -1.71,0 -2.73,0.78 -2.73,2.14 0,0.85 0.47,1.46 1.31,1.76 -0.97,0.31 -1.52,1 -1.52,1.99 z"
   id="path10" /><path
   class="st0"
   d="m 53.66,38.215 c -0.8,0 -1.31,-0.66 -1.4,-2.73 0.27,-0.31 0.71,-0.67 1.29,-0.67 0.83,0 1.25,0.54 1.25,1.62 0.01,1.1 -0.42,1.78 -1.14,1.78 z m 0.4,-4.43 c -0.86,0 -1.45,0.4 -1.8,0.78 0.05,-1.77 0.56,-2.98 1.82,-2.98 1,0 1.51,0.94 1.51,0.94 v -1.39 c 0,0 -0.56,-0.28 -1.59,-0.28 -1.98,0 -3.38,1.51 -3.38,4.2 0,2.71 1.11,3.92 2.98,3.92 1.75,0 2.77,-1.08 2.77,-2.76 -0.01,-1.56 -0.87,-2.43 -2.31,-2.43 z"
   id="path11" /><path
   class="st0"
   d="m 50.12,23.265 c -1.01,-3.9 -3.02,-7.6 -6.08,-10.66 -9.15,-9.15 -23.99,-9.15 -33.14,0 -4.13,4.13 -6.35,9.42 -6.76,14.82 l -2.67,0.24 -1.44,0.11 c 0.33,-6.17 2.83,-12.24 7.55,-16.95 10.14,-10.14 26.58,-10.14 36.71,0 3.53,3.53 5.82,7.82 6.88,12.35 z m -6.77,0.61 c -0.83,-2.57 -2.25,-5 -4.3,-7.04 -6.97,-6.97 -18.28,-6.97 -25.25,0 -2.86,2.86 -4.5,6.45 -5.01,10.17 l -4.62,0.42 c 0.57,-4.41 2.53,-8.67 5.91,-12.06 8.15,-8.15 21.36,-8.15 29.51,0 2.44,2.43 4.12,5.33 5.09,8.4 z m -34.33,3.11 c 0.54,-2.86 1.89,-5.6 4.11,-7.82 5.89,-5.89 15.44,-5.89 21.33,0 1.53,1.53 2.65,3.31 3.38,5.21 z m 39.5,-18.66 c -11.1,-11.1 -29.1,-11.1 -40.2,0 -5.39,5.39 -8.15,12.39 -8.31,19.45 v 0 c 0,0.03 0,0.05 0,0.08 0,0.3 -0.01,0.6 -0.01,0.91 0,-0.12 0.01,-0.25 0.01,-0.37 -0.01,2.41 0.26,4.86 0.89,7.31 3.95,15.2 19.46,24.32 34.66,20.37 7.16,-1.86 12.96,-6.29 16.69,-12.05 H 52.2 c -3.41,4.89 -8.51,8.65 -14.74,10.27 -13.88,3.6 -28.05,-4.73 -31.65,-18.6 -0.69,-2.65 -0.92,-5.31 -0.78,-7.9 h 1.18 c -0.06,2.12 0.16,4.28 0.72,6.44 3.23,12.44 15.93,19.91 28.37,16.68 4.54,-1.18 8.39,-3.65 11.31,-6.88 h -0.03 c -3.72,3.53 -8.75,5.7 -14.29,5.7 -5.97,0 -11.34,-2.52 -15.13,-6.55 -0.06,-0.07 -0.13,-0.13 -0.19,-0.2 -0.06,-0.07 -0.13,-0.14 -0.19,-0.21 -2.16,-2.39 -3.79,-5.32 -4.66,-8.66 -0.55,-2.12 -0.72,-4.25 -0.61,-6.32 h 1.33 c -0.09,1.77 0.06,3.57 0.53,5.38 2.48,9.54 12.22,15.27 21.77,12.8 1.66,-0.43 3.19,-1.1 4.59,-1.93 H 39.4 c -1.88,0.82 -3.95,1.28 -6.14,1.28 -8.55,0 -15.48,-6.93 -15.48,-15.48 0,-0.69 0.07,-1.37 0.16,-2.03 h 4.04 16.73 v 0 h 5.46 v 0 h 1.39 5.29 0.99 4.99 v 0 c -0.16,-7.09 -2.92,-14.1 -8.31,-19.49 z"
   id="path12" />
</svg>
