<?xml version="1.0" encoding="UTF-8" standalone="no"?>
<svg
   width="44.675747"
   height="50"
   fill="none"
   version="1.1"
   id="svg1"
   sodipodi:docname="logo (3).svg"
   inkscape:version="1.3.2 (091e20e, 2023-11-25, custom)"
   xmlns:inkscape="http://www.inkscape.org/namespaces/inkscape"
   xmlns:sodipodi="http://sodipodi.sourceforge.net/DTD/sodipodi-0.dtd"
   xmlns="http://www.w3.org/2000/svg"
   xmlns:svg="http://www.w3.org/2000/svg">
  <defs
     id="defs1" />
  <sodipodi:namedview
     id="namedview1"
     pagecolor="#ffffff"
     bordercolor="#000000"
     borderopacity="0.25"
     inkscape:showpageshadow="2"
     inkscape:pageopacity="0.0"
     inkscape:pagecheckerboard="0"
     inkscape:deskcolor="#d1d1d1"
     showgrid="false"
     inkscape:zoom="3.5206186"
     inkscape:cx="21.161054"
     inkscape:cy="24.995608"
     inkscape:window-width="1560"
     inkscape:window-height="970"
     inkscape:window-x="-6"
     inkscape:window-y="-6"
     inkscape:window-maximized="1"
     inkscape:current-layer="svg1" />
  <path
     d="m 39.645973,3.589 h -5.685 c -0.22,0.4 -0.342,-0.025 -0.342,1.03 0,1.055 1.427,2.954 3.184,2.954 1.758,0 3.184,-1.9 3.184,-2.954 0,-1.055 -0.123,-0.63 -0.341,-1.03 z m -24.504,28.126 c 0.935,-0.594 0.798,-0.58 1.215,-1.102 -0.534,-0.382 -0.912,-0.99 -1.04,-1.425 -0.093,-0.322 0.035,-0.415 -0.009,-0.805 -0.186,-0.248 -1.132,-1.1 -0.177,-2.348 -0.278,-0.309 -0.614,-1.105 -0.297,-1.713 -3.583,-4.038 -4.167,-7.773 -3.095,-8.485 -0.93,-2.289 -1.277,-3.09 -0.356,-4.292 -1.055,-1.922 -0.25,-4.09 0.354,-4.179 -0.381,-0.937 -0.49,-2.23 -0.087,-3.042 0.182,-0.37 0.447,-0.431 0.868,-0.701 0.02478,-0.2836289 0.08079,-0.563657 0.167,-0.835 l -0.055,-0.12 c -0.246,-0.266 -0.631,-0.887 -0.836,-0.91 -0.288,-0.052 -0.965,0.579 -1.215,1.01 -0.251,0.433 -0.208,1.12 -0.212,1.374 -0.3760004,0.24 -0.6570004,0.357 -0.8190004,0.686 -0.358,0.721 -0.601,2.1 -0.262,2.933 -0.538,0.08 -1.192,3.682 -0.253,5.39 -0.818,1.069 -0.665,1.193 0.162,3.226 -0.95,0.635 0.062,4.413 3.2440004,8.001 -0.283,0.538 -0.324,1.368 -0.078,1.645 -0.85,1.107 -0.007,1.867 0.157,2.085 0.04,0.35 -0.075,0.431 0.01,0.717 0.111,0.388 0.449,0.928 0.923,1.268 0.298,0.66 0.89,1.196 1.691,1.622 z M 1.2469726,50 c -0.028,-0.281 -0.014,-0.576 -0.132,-0.837 -0.29699995,-0.651 -0.81599995,-1.087 -1.07999995,-1.815 -0.03613997,-0.08911 -0.0445057,-0.187055 -0.024,-0.281 C 1.2669726,42.79 2.8239726,38.961 6.8199726,36.452 c 2.48,-1.556 5.1560004,-2.55 7.6040004,-4.238 -0.652,-0.426 -1.142,-0.937 -1.411,-1.54 -0.533,-0.381 -0.912,-0.987 -1.04,-1.425 -0.095,-0.322 0.035,-0.413 -0.008,-0.805 -0.187,-0.247 -1.136,-1.1 -0.178,-2.348 -0.278,-0.309 -0.613,-1.105 -0.297,-1.713 -3.5830004,-4.038 -4.1660004,-7.772 -3.0950004,-8.487 -0.93,-2.289 -1.277,-3.09 -0.356,-4.29 -1.057,-1.921 -0.25,-4.09 0.354,-4.179 -0.381,-0.937 -0.493,-2.23 -0.087,-3.042 0.182,-0.367 0.45,-0.43 0.87,-0.7 0.008,-0.284 0.183,-1.078 0.466,-1.566 0.282,-0.489 1.8620004,-1.577 2.1830004,-1.519 0.23,0.023 1.049,0.379 1.325,0.678 0.06,0.13 0.114,0.264 0.17,0.398 0.568,-0.522 1.594,-1.18 1.845,-1.137 0.23,0.025 1.048,0.381 1.324,0.678 0.837,1.867 1.279,4.174 2.617,6.107 1.951,2.816 5.128,5.978 6.881,8.303 l 0.144,0.193 c 0.134,-0.07 -0.023,2.149 1.094,5.733 0.016,-3.534 0.002,-6.397 0.187,-6.633 0.483,-0.615 0.837,-1.534 0.622,-2.217 -0.321,-1.025 -1.942,-1.531 -2.4,-2.09 -1.172,-1.424 -1.45,-2.379 -1.413,-3.543 0.061,-1.855 0.624,-3.28 2.142,-4.056 1.286,-0.658 3.265,-0.644 6.105,-0.345 0.636,-1.591 2.254,-2.669 4.244,-2.669 2.172,0 4,1.375 4.497,3.217 0.082,0.304 -0.41,0.274 -0.462,0.562 0.066,0.266 0.102,0.543 0.102,0.826 0,2.051 -1.835,3.723 -4.087,3.723 -2.25,0 -4.087,-1.672 -4.087,-3.723 0,-0.322 0.048,-0.635 0.132,-0.934 0.019,-0.148 -0.057,-0.127 -0.193,-0.175 -1.785,-0.222 -3.417,-0.44 -4.7,-0.145 -1.343,0.308 -2.312,1.17 -2.647,2.504 -0.497,1.98 0.094,3.002 1.366,3.818 0.62,0.4 1.404,0.874 2.302,1.148 1.415,0.438 3.49,0.522 4.755,1.237 0.82,0.462 0.624,1.036 1.513,1.159 0.488,0.62 1.653,0.224 2.275,0.853 0.125,0.127 -0.18,0.456 -0.069,0.594 0.666,0.833 2.62,1.216 2.939,2.144 0.07,0.202 -0.035,0.4 -0.338,0.663 0.073,0.238 -0.33,1.26 -0.565,1.4 -2.1,-0.32 -2.261,-0.166 -1.42,0.973 0.148,0.147 0.232,0.267 0.264,0.367 0.05,0.168 -0.111,0.3 -0.3,0.372 -0.245,0.492 -0.703,0.617 -1.195,0.599 -0.37,-0.014 -0.985,-0.104 -1.206,-0.34 -0.503,-0.538 -0.271,0.53 -0.285,0.653 -0.048,0.367 -0.335,0.776 -0.369,1.105 0.376,0.662 0.415,1.458 0.654,2.178 0.483,1.47 0.58,3.015 1.06,4.435 0.814,2.398 1.917,3.868 0.625,6.597 -0.01922,0.03808 -0.03922,0.07575 -0.06,0.113 0.044,0.266 0.048,0.56 0.121,0.797 0.816,2.568 1.457,7.915 3.068,9.959 0.791,1.002 3.581,0.286 4.199,1.649 0.337,0.746 -0.552,1.132 -0.94,1.67 h -6.66 c -0.405,-0.556 -0.419,-1.262 -0.763,-1.801 -1.215,-1.915 -1.917,-4.014 -3.077,-5.97 -0.381,-0.639 -1.106,-1.16 -1.375,-2.011 -0.146,-0.456 -0.02,-0.974 -0.111,-1.434 -1.573,0.76 -1.897,1.787 -3.518,2.373 -3.385,1.225 -7.677,2.055 -11.175,2.797 -0.035,0.007 4.668,-5.479 1.682,-5.962 -2.989,-0.483 -10.0550004,1.654 -10.0870004,1.66 -0.016,0.017 7.0800004,-1.862 9.6170004,-1.215 2.382,0.608 -0.937,4.58 -1.967,5.44 -0.23,0.193 -3.089,2.679 -2.952,2.76 0.21,0.125 0.492,0.103 0.743,0.094 2.977,-0.107 6.588,-0.493 9.255,1.107 1.098,0.658 0.17,1.638 -0.52,2.16 H 1.2469726 Z"
     fill="#00888e"
     id="path1"
     sodipodi:nodetypes="ccssscccccccccccccccccccccccccccccccccccccccccccccccccccccccccccsccsssccccccccccccccccccccccccccccccccccccccccccccc" />
</svg>
