<svg width="460" height="460" viewBox="0 0 460 460" fill="none" xmlns="http://www.w3.org/2000/svg">
<path d="M339.752 385.315L335.746 387.985C333.003 389.813 329.232 389.461 327.321 386.593C325.408 383.723 326.591 380.194 329.334 378.367L333.343 375.695L339.752 385.315Z" fill="#0F2D69"/>
<path d="M223.826 134.488C231.437 134.488 242.983 136.174 251.147 146.309C255.394 151.443 258.01 158.267 258.921 165.112H258.913C258.913 165.118 258.916 165.12 258.916 165.127H223.301V175.239H259.244C259.091 178.886 258.601 182.776 257.088 186.854C255.892 190.084 254.053 193.433 251.226 196.869C245.592 203.912 236.333 210.451 223.271 210.451H223.047V220.7C257.961 220.7 271.548 243.896 271.548 286.369V318.324H249.135V249.763H223.296V318.397H223.286V318.411H203.489V134.493H203.494V134.48L223.826 134.488Z" fill="#0F2D69"/>
<path d="M400.329 315.979L398.574 319.235C397.081 322.005 394.549 323.173 391.916 321.753C389.461 320.429 388.657 317.864 390.004 315.365L392.073 311.526L400.329 315.979Z" fill="#0F2D69"/>
<path d="M387.61 309.12L385.444 313.137C383.784 316.217 380.566 317.591 377.89 316.147C374.943 314.559 374.658 311.238 376.295 308.205L378.461 304.188L387.61 309.12Z" fill="#0F2D69"/>
<path d="M420.66 234.75L420.367 239.56C420.165 242.85 417.607 245.638 414.168 245.428C410.727 245.217 408.631 242.144 408.831 238.854L409.127 234.044L420.66 234.75Z" fill="#0F2D69"/>
<path d="M69.3223 121.976C71.1663 119.245 74.7892 118.139 77.6465 120.071C80.5038 122.001 80.7487 125.716 78.9033 128.446L76.208 132.439L66.625 125.969L69.3223 121.976Z" fill="#0F2D69"/>
<path d="M368.197 96.8643C370.568 99.3683 370.682 103.1 368.25 105.404C365.821 107.704 362.061 107.423 359.69 104.918L356.519 101.567L365.023 93.5127L368.197 96.8643Z" fill="#0F2D69"/>
<path fill-rule="evenodd" clip-rule="evenodd" d="M229.588 0C356.391 0 459.175 102.788 459.175 229.588C459.175 356.388 356.391 459.175 229.588 459.175C102.787 459.175 0 356.388 0 229.588C3.29934e-05 102.788 102.787 4.94781e-05 229.588 0ZM156.389 413.339L162.404 415.164L166.512 401.624L184.126 406.969L180.02 420.506L186.037 422.331L196.339 388.366L190.322 386.539L185.834 401.339L168.22 395.996L172.707 381.197L166.691 379.372L156.389 413.339ZM230.779 404.655C226.526 404.122 222.634 406.982 221.824 411.126C221.79 411.306 221.761 411.498 221.737 411.681C221.189 416.118 224.338 420.166 228.772 420.725C228.828 420.725 228.87 420.733 228.923 420.744C229.009 420.749 229.095 420.767 229.182 420.773C233.63 421.323 237.659 418.16 238.207 413.723C238.755 409.284 235.596 405.235 231.156 404.697C231.091 404.695 231.027 404.682 230.962 404.681C230.898 404.667 230.835 404.655 230.779 404.655ZM304.182 392.94C300.768 383.284 290.219 378.247 280.563 381.662C274.685 383.742 270.474 388.565 268.909 394.174L272.813 405.214L288.062 399.824L286.388 395.09L277.067 398.386L275.58 394.181C276.711 391.145 279.168 388.663 282.61 387.444C289.302 385.079 295.859 388.57 298.158 395.069C300.457 401.571 297.549 408.408 290.857 410.773C286.699 412.244 282.611 411.483 279.588 409.164L276.038 414.185C280.781 417.562 287.023 418.636 292.904 416.558C302.56 413.143 307.596 402.596 304.182 392.94ZM146.269 367.489C139.126 363.232 132.599 365.365 129.642 370.33C122.634 382.091 140.866 387.054 136.971 393.586C135.493 396.07 132.764 396.39 129.803 394.626C126.752 392.809 125.677 390.457 124.586 386.442L119.4 388.309C120.919 393.287 122.572 396.455 127.059 399.13C133.287 402.842 139.258 401.441 142.163 396.562C149.302 384.585 131.096 379.873 134.912 373.472C136.444 370.902 139.893 370.065 143.465 372.194C146.209 373.829 148.026 376.624 149.021 380.698L154.128 378.961C152.825 373.522 150.494 370.008 146.269 367.489ZM323.305 360.633L330.109 370.843L327.704 372.445C324.975 373.471 316.639 364.526 309.634 369.193C308.832 369.727 308.033 370.446 307.231 371.345L310.491 376.237C310.843 375.759 311.237 375.437 311.659 375.155C314.993 372.934 320.321 377.366 323.021 376.663C319.785 380.403 319.291 385.789 322.104 390.009C325.758 395.494 333.028 396.803 338.471 393.175L348.218 386.681L328.538 357.147L323.305 360.633ZM108.231 346.045L117.496 354.477L110.939 361.677L102.465 353.962L98.7109 358.086L107.186 365.803L101.313 372.253L92.0508 363.821L88.1924 368.057L102.104 380.724L126.003 354.473L112.091 341.808L108.231 346.045ZM370.221 335.663C363.723 329.77 354.699 330.21 348.465 337.083C342.265 343.919 342.705 352.945 349.203 358.838L364.827 373.009L369.052 368.352L353.277 354.045C349.259 350.4 349.385 344.9 352.858 341.068C356.333 337.238 361.829 336.539 365.848 340.185L381.622 354.491L385.847 349.834L370.221 335.663ZM85.9014 303.819C81.6014 295.654 72.9703 292.979 65.209 297.068L46.5479 306.9L49.4775 312.463L68.3203 302.536C73.1202 300.009 78.2427 302.009 80.6533 306.586C83.0652 311.161 81.8396 316.562 77.041 319.091L58.2002 329.018L61.1289 334.579L79.792 324.747C87.5531 320.659 90.2278 312.029 85.9014 303.819ZM175.493 329.633H299.65V290.213C299.65 252.493 287.486 227.136 255.905 215.981C265.864 211.883 271.926 205.607 275.902 200.843C283.505 192.112 286.605 181.409 286.605 171.277C286.605 163.103 284.348 146.775 269.999 135.524C260.135 127.92 251.415 124.251 230.583 124.251H220.036C219.708 124.238 219.398 124.229 218.99 124.229H175.493V329.633ZM370.647 307.464C367.832 312.685 369.281 318.65 374.056 321.224C377.581 323.126 382.101 322.97 385.534 319.062C385.154 322.543 386.911 325.909 390.169 327.666C394.453 329.975 399.771 328.235 402.346 323.46L407.999 312.972L376.759 296.128L370.647 307.464ZM393.062 262.736C388.135 265.387 385.334 268.542 383.978 273.269C381.687 281.264 385.416 287.026 390.974 288.619C404.135 292.391 404.275 273.495 411.587 275.589C414.366 276.386 415.374 278.942 414.425 282.257C413.446 285.669 411.445 287.313 407.843 289.392L410.976 293.929C415.399 291.187 418.042 288.779 419.48 283.758C421.478 276.789 418.599 271.374 413.138 269.809C399.731 265.969 399.829 284.773 392.665 282.722C389.789 281.896 388.098 278.774 389.243 274.776C390.123 271.706 392.36 269.235 396.047 267.232L393.062 262.736ZM32.3174 255.797L33.6621 261.94L57.0449 256.823L37.9971 281.758L38.9404 286.067L73.6211 278.48L72.2754 272.337L48.8916 277.453L67.9502 252.568L66.9971 248.21L32.3174 255.797ZM391.065 232.938L403.31 233.688L403.131 236.573C402.3 239.366 390.141 240.604 389.626 249.005C389.567 249.966 389.654 251.039 389.886 252.223L395.755 252.581C395.586 252.012 395.566 251.504 395.598 250.996C395.84 246.999 402.59 245.43 403.662 242.854C404.685 247.693 408.678 251.341 413.736 251.65C420.312 252.054 425.747 247.052 426.147 240.522L426.863 228.83L391.449 226.661L391.065 232.938ZM31.0723 229.097L31.1758 235.386L66.667 234.79L66.5625 228.502L31.0723 229.097ZM388.042 196.514L390.79 215.124L396.458 214.288L394.63 201.898L404.261 200.478L405.936 211.813L411.453 210.999L409.779 199.661L418.406 198.388L420.236 210.778L425.904 209.942L423.158 191.332L388.042 196.514ZM35.5273 186.051L58.9541 199.843L32.2998 205.096L31.165 211.796L68.4863 203.976L69.3252 199.028L36.6543 179.401L35.5273 186.051ZM404.018 149.232L407.789 159.462L379.956 169.729L382.131 175.63L409.966 165.363L413.738 175.593L419.211 173.574L409.488 147.214L404.018 149.232ZM42.4316 162.148L75.3193 175.489L82.3887 158.059L77.0801 155.906L72.374 167.511L63.3525 163.851L67.6602 153.233L62.4912 151.136L58.1846 161.753L50.1045 158.478L54.8125 146.872L49.5029 144.719L42.4316 162.148ZM361.891 135.612L371.858 151.569L376.72 148.535L370.083 137.911L378.341 132.752L384.413 142.474L389.144 139.518L383.073 129.799L390.471 125.176L397.106 135.802L401.967 132.766L392 116.808L361.891 135.612ZM81.1797 114.932C75.7144 111.241 68.4918 112.788 64.8291 118.208L58.2734 127.916L87.6914 147.782L91.21 142.571L81.04 135.703L82.6582 133.308C84.7929 131.322 95.9022 136.44 100.614 129.464C101.153 128.665 101.624 127.697 102.025 126.56L97.1494 123.269C97.0054 123.845 96.7635 124.293 96.4795 124.713C94.2368 128.033 87.6246 125.954 85.3926 127.629C86.9672 122.94 85.381 117.768 81.1797 114.932ZM105.098 79.9502C99.8924 80.0515 96.3923 80.7781 92.5938 84.3633C87.3218 89.3446 87.0405 95.4713 90.9404 99.6006C100.518 109.739 110.021 93.5068 115.141 98.9268C117.196 101.101 117.056 104.649 114.035 107.505C111.712 109.698 108.527 110.684 104.335 110.529L104.611 115.918C110.2 116.149 114.221 114.865 117.798 111.487C123.843 105.775 123.571 98.9142 119.602 94.7129C110.198 84.7583 100.445 100.946 95.2227 95.418C93.2377 93.3153 93.6728 90.6026 96.1807 88.2334C98.7606 85.7961 101.319 85.4026 105.479 85.4492L105.098 79.9502ZM339.16 109.343L343.482 113.911L352.283 105.578L355.945 109.443C360.372 114.119 367.788 114.502 372.574 109.969C377.324 105.471 377.488 98.1951 372.92 93.3711L364.936 84.9375L339.16 109.343ZM330.548 93.8027C328.971 92.6094 326.738 92.957 325.576 94.4941C324.386 96.0715 324.691 98.2742 326.269 99.4648C327.847 100.659 330.089 100.382 331.283 98.8047C332.443 97.266 332.125 94.9946 330.548 93.8027ZM116.481 65.9922L136.185 95.5186L141.416 92.0283L121.712 62.501L116.481 65.9922ZM307.755 53.2246L317.344 58.4141L303.221 84.5059L308.751 87.499L322.874 61.4082L332.463 66.5986L335.239 61.4697L310.531 48.0947L307.755 53.2246ZM136.338 53.3984L138.688 58.7344L148.666 54.3389L160.629 81.4814L166.381 78.9453L154.418 51.8018L164.394 47.4053L162.042 42.0693L136.338 53.3984ZM283.369 37.8848C276.392 35.9051 270.987 38.7988 269.435 44.2627C265.629 57.6785 284.436 57.5321 282.401 64.7041C281.584 67.5812 278.468 69.2785 274.469 68.1455C271.394 67.2735 268.917 65.0413 266.905 61.3613L262.419 64.3555C265.08 69.2768 268.242 72.0704 272.973 73.4131C280.974 75.6822 286.727 71.9382 288.305 66.377C292.042 53.2068 273.143 53.1158 275.219 45.7988C276.008 43.0176 278.564 42.0028 281.88 42.9453C285.295 43.9133 286.943 45.9095 289.033 49.5068L293.561 46.3643C290.809 41.9469 288.393 39.3101 283.369 37.8848ZM200.289 32.8604L195.195 50.9531L183.849 35.9678L176.923 37.2773L193.397 58.3643L195.573 69.8721L201.75 68.7041L199.575 57.1963L207.215 31.5508L200.289 32.8604ZM242.067 41.7031C239.946 39.3431 236.747 38.5149 233.875 39.3096C232.71 39.6336 231.598 40.2322 230.626 41.0947C227.309 44.0854 227.033 49.2042 230.027 52.5322C233.022 55.8602 238.138 56.1259 241.458 53.1445C244.787 50.1512 245.062 45.0325 242.067 41.7031Z" fill="#0F2D69"/>
</svg>
