<?xml version="1.0" encoding="UTF-8" standalone="no"?>
<!-- Creator: CorelDRAW 2020 (64-Bit) -->

<svg
   xml:space="preserve"
   width="9.7386904mm"
   height="9.7386045mm"
   version="1.1"
   shape-rendering="geometricPrecision"
   text-rendering="geometricPrecision"
   image-rendering="optimizeQuality"
   fill-rule="evenodd"
   clip-rule="evenodd"
   viewBox="0 0 909012.86 909005.16"
   id="svg49"
   sodipodi:docname="logo (2).svg"
   inkscape:version="1.3.2 (091e20e, 2023-11-25, custom)"
   xmlns:inkscape="http://www.inkscape.org/namespaces/inkscape"
   xmlns:sodipodi="http://sodipodi.sourceforge.net/DTD/sodipodi-0.dtd"
   xmlns="http://www.w3.org/2000/svg"
   xmlns:svg="http://www.w3.org/2000/svg"><defs
   id="defs49">
  
  
  
  
  
  
  
  
  
  
  
  
  
  
  
  
  
  
  
  
  
 
   
   
  </defs><sodipodi:namedview
   id="namedview49"
   pagecolor="#ffffff"
   bordercolor="#000000"
   borderopacity="0.25"
   inkscape:showpageshadow="2"
   inkscape:pageopacity="0.0"
   inkscape:pagecheckerboard="0"
   inkscape:deskcolor="#d1d1d1"
   inkscape:document-units="mm"
   showgrid="false"
   inkscape:zoom="3.773408"
   inkscape:cx="71.420847"
   inkscape:cy="14.310671"
   inkscape:window-width="1560"
   inkscape:window-height="970"
   inkscape:window-x="-6"
   inkscape:window-y="-6"
   inkscape:window-maximized="1"
   inkscape:current-layer="svg49" />
 <g
   id="g49"
   transform="translate(-1)">
    <path
   fill="#002fa7"
   d="m 361414,288011 v -6226 -2884 l -308,-177 -1484,-868 -233,-131 -15196,-8811 -159,-187 -140,-187 -103,-205 -65,-196 -28,-112 v -19 c 1568,-3575 3174,-7141 4816,-10697 1708,-3715 3426,-7309 5124,-10781 1717,-3510 3519,-7075 5386,-10697 1857,-3603 3743,-7141 5638,-10622 1829,-3370 3771,-6833 5806,-10379 1997,-3472 4023,-6926 6086,-10342 2081,-3472 4172,-6861 6254,-10165 2109,-3342 4266,-6674 6450,-9997 2548,-3846 5106,-7617 7663,-11304 2679,-3855 5311,-7561 7897,-11098 2623,-3603 5339,-7243 8139,-10911 2838,-3706 5638,-7299 8419,-10771 2716,-3388 5563,-6870 8550,-10445 2968,-3556 5936,-7029 8895,-10426 2782,-3192 5563,-6319 8317,-9362 2380,-2632 4844,-5302 7374,-8009 2530,2698 4984,5367 7355,7990 2763,3052 5544,6179 8326,9371 2959,3398 5927,6879 8895,10435 2987,3566 5843,7047 8550,10445 2782,3472 5591,7075 8429,10781 2800,3668 5516,7309 8139,10902 2632,3612 5264,7309 7897,11108 2567,3687 5115,7449 7654,11304 2193,3314 4350,6655 6468,10015 2119,3360 4210,6739 6244,10137 2063,3416 4088,6870 6076,10342 2044,3556 3976,7019 5815,10379 1895,3491 3780,7029 5638,10631 1876,3622 3668,7178 5386,10687 1699,3482 3416,7075 5134,10790 1643,3547 3248,7113 4807,10678 v 56 l -28,93 -65,187 -103,205 -131,196 -159,177 -103,93 -15102,8718 -168,93 -1101,644 -756,439 v 868 1269 187 15999 107071 336 2203 1521 h 1512 2212 327 17669 336 2203 1521 v -1521 -2203 -336 -110590 l 13693,-7906 19,-9 47,-28 75,-47 47,-19 84,-75 93,-65 896,-653 65,-47 37,-28 93,-93 103,-93 831,-747 84,-84 65,-47 c 495,-495 961,-1045 1409,-1633 448,-588 831,-1185 1167,-1792 336,-607 625,-1260 887,-1941 252,-672 448,-1363 607,-2063 159,-691 261,-1409 317,-2119 47,-709 56,-1428 9,-2137 -56,-719 -149,-1428 -299,-2128 -149,-700 -355,-1391 -597,-2063 l -28,-75 -28,-56 -28,-56 c -1801,-4247 -3668,-8494 -5582,-12769 -1923,-4294 -3836,-8466 -5750,-12517 -1979,-4191 -3967,-8298 -5974,-12321 -1988,-3995 -4070,-8046 -6226,-12144 -2119,-4023 -4303,-8037 -6534,-12041 -2259,-4042 -4546,-8027 -6861,-11948 -2343,-3958 -4751,-7925 -7234,-11901 -2474,-3958 -5031,-7934 -7673,-11929 -2427,-3668 -4919,-7355 -7467,-11042 -2595,-3743 -5171,-7383 -7738,-10921 -2474,-3407 -5115,-6963 -7906,-10641 -2726,-3594 -5479,-7150 -8261,-10669 -2772,-3500 -5563,-6954 -8373,-10361 -2884,-3500 -5740,-6898 -8569,-10193 -2698,-3136 -5386,-6216 -8065,-9222 -2418,-2707 -4863,-5414 -7337,-8111 l 821,-980 c 551,-691 1092,-1428 1596,-2184 569,-849 1083,-1708 1549,-2586 485,-896 915,-1792 1288,-2698 373,-905 709,-1848 1008,-2810 289,-971 541,-1941 728,-2894 187,-933 336,-1923 429,-2950 103,-1017 159,-2016 159,-2987 0,-971 -56,-1969 -159,-2987 -103,-1036 -243,-2025 -439,-2959 -187,-952 -429,-1923 -728,-2894 -299,-980 -635,-1923 -1008,-2819 -364,-868 -775,-1745 -1241,-2623 -467,-868 -971,-1708 -1484,-2502 l -1045,-1465 -261,-345 196,-215 -1036,-1036 -1521,-1531 -224,-224 c -691,-691 -1437,-1363 -2222,-2007 -775,-635 -1587,-1232 -2427,-1792 -831,-560 -1699,-1073 -2595,-1559 -877,-467 -1783,-896 -2698,-1279 -952,-392 -1895,-728 -2828,-1008 -971,-289 -1941,-541 -2894,-728 -933,-187 -1932,-327 -2959,-429 -1017,-103 -2016,-149 -2987,-149 -971,0 -1969,47 -2987,149 -1027,103 -2025,243 -2959,429 -952,187 -1923,439 -2894,728 -971,299 -1913,635 -2847,1008 -896,373 -1792,803 -2698,1288 -877,467 -1736,980 -2576,1549 -868,579 -1680,1176 -2427,1792 -765,625 -1503,1297 -2222,2007 -691,681 -1353,1428 -1997,2212 -616,747 -1213,1559 -1792,2427 -551,821 -1073,1680 -1549,2576 -476,896 -905,1801 -1288,2707 -373,915 -709,1857 -1008,2819 -289,980 -541,1951 -728,2912 -187,933 -336,1932 -429,2959 -103,1017 -159,2016 -159,2987 0,971 56,1969 159,2987 93,1036 243,2025 429,2968 187,961 439,1932 737,2912 299,980 635,1923 1008,2819 383,915 812,1820 1279,2698 476,896 999,1755 1549,2576 504,765 1045,1493 1596,2184 l 803,961 c -2464,2688 -4910,5386 -7309,8083 -2679,3006 -5367,6086 -8074,9231 -2828,3286 -5684,6683 -8569,10183 -2810,3407 -5600,6861 -8373,10370 -2791,3519 -5544,7075 -8270,10669 -2791,3678 -5423,7234 -7897,10641 -2567,3538 -5152,7187 -7747,10939 -2548,3678 -5040,7355 -7467,11023 -2632,3995 -5190,7971 -7663,11929 -2483,3976 -4891,7943 -7234,11901 -2324,3920 -4611,7906 -6861,11938 -2240,4014 -4415,8027 -6534,12041 -2156,4107 -4238,8149 -6226,12153 -2007,4023 -3995,8130 -5974,12321 -1913,4051 -3827,8223 -5750,12517 -1913,4266 -3771,8522 -5582,12769 l -28,65 -19,47 -28,75 c -252,672 -448,1363 -597,2063 -149,700 -252,1409 -299,2128 -47,700 -47,1409 0,2119 56,719 159,1428 308,2128 149,691 355,1381 616,2063 261,681 560,1344 896,1951 327,607 719,1213 1167,1801 439,597 915,1139 1400,1633 l 47,47 112,75 47,37 691,644 112,103 47,47 65,47 28,19 831,625 112,84 84,65 65,37 75,47 28,19 131,75 47,19 13712,7915 v 110618 336 2203 1521 h 1512 2212 336 17660 336 2212 1512 v -1521 -2203 -336 -107033 -9250 z M 448958,74402 v 0 l -513,-569 -448,-588 -373,-644 -327,-681 -9,-19 -252,-728 -177,-737 -103,-765 -47,-784 47,-775 103,-765 187,-765 252,-709 299,-653 373,-625 47,-75 411,-560 65,-84 84,-84 317,-327 103,-103 569,-504 616,-467 644,-392 691,-327 28,-9 709,-252 737,-177 756,-112 765,-37 775,37 756,112 747,187 709,252 700,327 653,392 616,467 569,513 513,579 467,607 383,635 327,700 9,19 252,709 187,747 103,756 37,765 -37,765 -103,756 -187,737 -252,719 -336,700 -383,663 -457,597 -523,579 -103,103 -345,345 -93,84 -84,65 -532,392 -65,47 -607,355 -653,308 -28,19 -719,243 -747,187 -765,103 -784,37 -775,-37 -765,-103 -765,-187 -728,-261 -663,-317 -653,-383 -597,-448 -569,-513 -37,-37 z"
   id="path46" />
    <path
   fill="#002fa7"
   d="m 33323,370608 c 5507,-27843 13712,-54716 24315,-80319 10827,-26126 24156,-50955 39698,-74187 15691,-23456 33649,-45298 53559,-65208 19910,-19919 41751,-37878 65208,-53559 23232,-15541 48061,-28880 74187,-39698 25613,-10603 52476,-18808 80329,-24325 27125,-5367 55173,-8186 83894,-8186 28711,0 56770,2819 83894,8186 27843,5516 54716,13721 80319,24325 26126,10818 50955,24156 74187,39698 23456,15681 45298,33640 65208,53559 19919,19910 37868,41751 53559,65208 15541,23232 28880,48061 39698,74187 10603,25603 18808,52476 24325,80319 5367,27125 8186,55183 8186,83894 0,28721 -2819,56770 -8186,83894 -5516,27853 -13721,54716 -24325,80319 -10566,25510 -23531,49797 -38606,72563 -14766,22280 -31549,43114 -50086,62221 -1288,-4219 -2670,-8410 -4126,-12573 -1615,-4611 -3323,-9147 -5115,-13590 l 28450,-17091 7570,-4546 1885,-1139 1297,-784 -775,-1288 -1129,-1885 -4527,-7542 -88776,-147730 -4546,-7570 -1139,-1895 -775,-1297 -1297,775 -1876,1139 -7542,4527 -51589,30998 -2222,1381 -1344,887 c -5880,-3668 -11892,-7159 -18024,-10454 -6394,-3435 -12928,-6674 -19583,-9689 l -5628,-2492 -5666,-2371 -5666,-2240 -5787,-2165 -849,-308 -579,-215 -551,252 -812,373 -149849,68045 -34825,-74915 -775,-1680 -532,-1148 -1223,317 -1773,467 c -13768,3603 -27199,8111 -40230,13450 -13152,5386 -25893,11640 -38158,18687 -12349,7094 -24184,14981 -35441,23596 -11294,8653 -22000,18024 -32034,28067 -4499,4508 -8895,9166 -13161,13973 -4275,4816 -8382,9726 -12321,14729 -3948,5012 -7747,10155 -11406,15420 -3631,5218 -7122,10575 -10463,16064 l -19,28 -364,607 c -1055,1736 -1904,3146 -2399,4788 -513,1708 -607,3566 -103,6095 140,672 327,1335 560,1979 233,644 523,1269 859,1885 327,607 709,1195 1120,1736 420,551 868,1073 1363,1549 1083,1064 2156,1857 3248,2446 1120,597 2250,971 3416,1185 1055,196 2109,261 3211,243 1055,-19 2137,-112 3295,-224 l 184730,-17837 151883,192645 c -12022,2147 -24212,3799 -36543,4928 -12974,1176 -26154,1783 -39520,1783 -28721,0 -56770,-2819 -83894,-8186 -27853,-5507 -54716,-13712 -80329,-24325 C 264162,840546 239333,827217 216101,811676 192645,795985 170803,778027 150893,758117 130983,738198 113025,716366 97334,692909 81793,669677 68464,644839 57636,618713 47033,593110 38828,566246 33321,538394 c -5376,-27125 -8186,-55183 -8186,-83894 0,-28711 2810,-56770 8186,-83894 z m 285239,213096 v 0 c -14552,7523 -28413,16232 -41462,25995 -12722,9521 -24689,20068 -35768,31530 -10258,10613 -19751,22019 -28385,34116 l 153060,-14776 c -364,-1157 -672,-2352 -905,-3566 -345,-1839 -532,-3724 -532,-5638 0,-2007 196,-3976 579,-5880 392,-1941 971,-3836 1727,-5656 607,-1456 1335,-2884 2175,-4238 597,-971 1251,-1904 1941,-2791 l -187,-187 1064,-1064 1559,-1568 c 1381,-1381 2922,-2642 4592,-3752 1633,-1092 3398,-2035 5246,-2800 1148,-476 2334,-887 3566,-1223 l 1708,-420 -26229,-56424 c -15112,4947 -29738,11089 -43749,18341 z m 79377,60139 v 0 c -485,-205 -999,-364 -1531,-467 -523,-93 -1055,-149 -1596,-149 -541,0 -1073,56 -1596,149 -532,103 -1045,261 -1531,467 -485,205 -952,457 -1391,747 -457,308 -877,653 -1241,1017 l -420,420 -84,103 c -271,327 -513,663 -728,1008 -215,364 -411,737 -551,1101 -196,495 -345,1008 -448,1531 -103,523 -159,1064 -159,1596 0,541 56,1083 159,1605 103,541 261,1055 457,1531 196,495 439,961 728,1391 299,448 635,859 1008,1232 l 37,37 c 364,364 775,700 1232,1008 439,299 915,551 1400,747 485,187 999,345 1531,448 523,93 1055,149 1596,149 541,0 1083,-56 1605,-159 541,-103 1055,-252 1531,-448 383,-159 747,-336 1092,-541 355,-215 691,-467 1017,-728 l 93,-84 420,-429 c 364,-364 709,-775 1017,-1232 289,-429 541,-896 756,-1400 196,-485 355,-999 457,-1531 103,-523 159,-1055 159,-1596 0,-541 -56,-1073 -159,-1587 -103,-532 -261,-1045 -457,-1531 -205,-485 -457,-961 -756,-1409 -289,-429 -635,-840 -1017,-1232 -364,-364 -775,-700 -1232,-1017 -429,-289 -905,-541 -1400,-747 z M 543270,8671 v 0 C 514559,2987 484876,0 454513,0 424140,0 394458,2987 365746,8671 336288,14505 307847,23195 280713,34424 253038,45896 226744,60009 202148,76455 177282,93088 154162,112083 133123,133122 112093,154161 93089,177281 76465,202138 60018,226733 45896,253037 34434,280712 23196,307837 14506,336287 8672,365745 2988,394456 1,424139 1,454502 c 0,30373 2987,60046 8671,88767 5834,29449 14524,57899 25762,85033 11462,27675 25585,53969 42031,78565 16624,24866 35628,47977 56658,69016 41891,41891 91950,75652 147590,98698 27134,11238 55575,19928 85033,25753 28711,5694 58394,8671 88767,8671 16045,0 31922,-831 47594,-2464 15887,-1652 31530,-4126 46885,-7374 3930,-831 7906,-1736 11929,-2698 4079,-980 8037,-1988 11873,-3015 9474,-2548 18836,-5395 28067,-8531 9269,-3155 18425,-6608 27442,-10342 22206,-9194 43515,-20096 63770,-32538 20460,-12564 39847,-26705 57983,-42246 3304,-2828 6562,-5703 9754,-8606 3258,-2950 6422,-5908 9502,-8867 l 3304,-3202 3276,-3239 c 21039,-21039 40034,-44150 56667,-69016 16447,-24595 30560,-50889 42022,-78565 11238,-27134 19928,-55575 25762,-85033 5684,-28711 8671,-58394 8671,-88767 0,-30364 -2987,-60046 -8671,-88767 -5834,-29449 -14524,-57899 -25762,-85024 C 863119,253036 849006,226732 832559,202137 815926,177280 796931,154160 775892,133121 754853,112082 731733,93087 706876,76454 682281,60007 655977,45894 628302,34423 601177,23194 572727,14504 543269,8670 Z M 421125,636478 v 0 l 467,868 c 439,831 821,1652 1167,2464 747,1820 1335,3724 1717,5675 373,1904 579,3874 579,5880 0,2016 -205,3986 -579,5890 -383,1951 -971,3846 -1717,5666 -1549,3724 -3790,7066 -6562,9829 l -1559,1568 -1073,1073 -187,-187 c -887,681 -1820,1335 -2782,1923 -1279,793 -2614,1493 -4023,2081 l 151463,192113 c 10211,-2530 20302,-5423 30252,-8681 10342,-3388 20498,-7150 30438,-11276 22831,-9455 44691,-20843 65366,-33948 20638,-13086 40062,-27862 58086,-44141 -1484,-5759 -3127,-11425 -4928,-16997 -1708,-5320 -3584,-10603 -5610,-15840 l -1335,803 c -1885,1129 -3668,2362 -5348,3678 -1717,1344 -3332,2782 -4854,4312 -1531,1540 -2959,3174 -4275,4872 -1335,1717 -2558,3528 -3668,5395 -1129,1904 -2128,3855 -3006,5852 -877,2007 -1643,4079 -2268,6188 -485,1624 -896,3239 -1213,4826 -327,1596 -579,3230 -756,4882 l -75,747 -653,383 -17837,10725 -1195,737 -653,401 -709,-289 c -1521,-607 -3090,-1157 -4686,-1633 -1615,-485 -3220,-887 -4798,-1204 -2128,-429 -4312,-728 -6524,-896 -2175,-168 -4359,-205 -6515,-103 l -103,9 -131,9 h -37 c -2100,93 -4219,327 -6338,700 -2128,364 -4219,859 -6272,1475 -2081,644 -4116,1391 -6086,2268 -1951,868 -3892,1876 -5806,3024 l -51589,30998 -7533,4527 -1885,1139 -1297,775 -775,-1297 -1139,-1895 -4546,-7570 -88776,-147730 -4527,-7542 -1129,-1885 -775,-1288 1297,-784 1885,-1139 7570,-4546 51589,-30998 c 2772,-1661 5628,-3146 8531,-4434 2978,-1325 5974,-2436 8970,-3342 3062,-924 6179,-1661 9325,-2203 3155,-541 6356,-887 9567,-1036 2175,-103 4359,-112 6534,-37 2203,75 4378,243 6496,495 1755,215 3510,485 5283,821 1241,233 2483,504 3734,803 317,-1213 663,-2436 1045,-3659 523,-1699 1120,-3388 1755,-5059 793,-2035 1661,-4042 2614,-5992 943,-1960 1979,-3864 3071,-5722 831,-1400 1717,-2782 2651,-4154 l 1857,-2604 c -6571,-3911 -13301,-7570 -20171,-10967 -7131,-3528 -14430,-6786 -21888,-9745 l -143119,64946 z m 161638,164186 v 0 l 40883,-24558 c 2772,-1661 5628,-3146 8531,-4434 2978,-1325 5974,-2446 8961,-3342 3062,-933 6179,-1661 9325,-2203 3155,-541 6356,-887 9567,-1036 2184,-103 4359,-112 6534,-37 2212,75 4387,243 6506,495 1745,215 3500,485 5274,821 1241,233 2492,504 3734,803 317,-1223 672,-2446 1045,-3659 532,-1708 1120,-3388 1764,-5059 784,-2044 1661,-4042 2604,-5992 952,-1960 1979,-3874 3080,-5722 1624,-2744 3426,-5395 5404,-7953 1951,-2520 4070,-4928 6347,-7215 2231,-2240 4630,-4368 7178,-6366 2511,-1960 5162,-3790 7943,-5460 l 5274,-3174 18995,-11406 16568,-9959 -75867,-126262 -36608,21991 -4266,2567 c -1885,1129 -3668,2362 -5358,3678 -1708,1344 -3323,2782 -4844,4312 l -1596,1680 -1512,1736 c -877,1045 -1727,2156 -2548,3323 -812,1148 -1577,2334 -2287,3528 -1129,1904 -2137,3864 -3015,5862 -877,1997 -1633,4070 -2268,6188 -485,1615 -887,3230 -1213,4816 -317,1596 -569,3230 -747,4882 l -84,747 -644,383 -19079,11462 -644,392 -691,-280 c -1521,-616 -3090,-1157 -4676,-1633 -1615,-485 -3220,-887 -4798,-1204 -2128,-429 -4303,-728 -6515,-896 -2175,-168 -4359,-205 -6524,-103 l -103,9 -65,9 h -65 -28 c -2100,103 -4219,336 -6338,700 -2128,364 -4228,859 -6272,1484 -2091,635 -4126,1391 -6086,2259 -1969,877 -3911,1885 -5806,3024 l -40836,24539 75867,126262 z"
   id="path47" />
    <path
   fill="#002fa7"
   d="m 375434,336735 -308,8811 -9,336 -75,2203 -56,1512 1512,47 2212,65 317,9 40519,1484 v 36636 18640 373 l 187,355 c 2053,3771 4583,7318 7243,10585 2212,2716 4518,5236 6739,7533 -9287,5750 -19256,10874 -29449,15448 -10762,4826 -21823,9054 -32622,12760 -11070,3799 -21795,7029 -31614,9782 -9997,2810 -18892,5087 -26350,7001 l -3995,1017 -47,9 -159,37 -233,65 -187,112 -140,84 -37,19 c -915,541 -1699,1157 -2362,1829 -700,719 -1269,1503 -1708,2334 -457,877 -775,1801 -952,2744 -177,971 -215,1979 -131,2968 l 159,1148 271,1167 373,1129 467,1111 532,999 597,952 672,896 728,831 c 513,532 1073,1008 1643,1400 579,401 1185,728 1801,952 663,243 1335,392 1997,411 625,28 1241,-56 1839,-243 4210,-541 8326,-1157 12377,-1839 4154,-700 8307,-1493 12498,-2380 4238,-896 8475,-1885 12750,-2968 4247,-1073 8606,-2268 13086,-3594 4490,-1316 9017,-2735 13618,-4256 4564,-1512 9334,-3174 14337,-4994 4966,-1811 10043,-3724 15233,-5759 5162,-2025 10594,-4219 16307,-6590 l 4574,-1904 4527,-1932 4340,-1913 4182,-1960 4070,-2044 c 1391,-728 2726,-1456 4014,-2193 l 3724,-2212 2978,-1913 c 6889,3174 13432,6132 19648,8877 6487,2856 12713,5526 18715,8018 6086,2530 11920,4854 17539,6991 5610,2147 11051,4116 16363,5927 5292,1811 10454,3463 15523,4956 5059,1493 10025,2847 14953,4060 4938,1223 9791,2296 14608,3248 4798,943 9595,1773 14458,2492 579,196 1195,280 1801,271 672,-9 1344,-140 1988,-373 625,-215 1241,-523 1829,-915 569,-383 1139,-840 1671,-1363 l 737,-812 691,-887 607,-924 551,-999 495,-1111 392,-1129 299,-1148 187,-1157 c 103,-980 84,-1988 -75,-2968 -159,-933 -448,-1867 -905,-2763 -411,-831 -961,-1624 -1652,-2362 -635,-672 -1400,-1297 -2306,-1857 l -37,-28 -140,-93 -196,-121 -224,-65 -168,-47 -28,-9 -4004,-1111 c -9287,-2576 -20806,-5768 -33565,-9773 -12676,-3986 -26471,-8737 -40230,-14412 -13394,-5516 -26798,-11920 -39166,-19331 -12144,-7281 -23288,-15532 -32454,-24894 v -67690 -317 -2119 -1456 l -1465,-56 -2128,-84 -327,-9 -61493,-2250 -327,-9 -2193,-75 -1493,-56 -56,1512 -84,2193 -9,336 -317,8793 z"
   id="path48" />
    <polygon
   fill="#002fa7"
   points="476969,352537 477296,352519 530220,349746 530537,349728 532750,349616 534271,349541 534196,348029 534075,345826 534056,345499 533132,327858 533114,327541 533011,325329 532936,323816 531433,323891 529231,324003 528885,324022 475961,326794 475635,326813 473432,326925 471920,327009 471994,328511 472106,330696 472125,331041 473049,348682 473068,349000 473180,351212 473254,352733 474766,352649 "
   id="polygon48" />
    <path
   fill="#002fa7"
   d="m 454512,547404 c -2520,0 -5059,-308 -7607,-896 -2698,-616 -5414,-1540 -8102,-2707 -2866,-1241 -5722,-2782 -8513,-4536 -2922,-1848 -5796,-3958 -8569,-6244 -2987,-2474 -5843,-5143 -8513,-7934 -2763,-2884 -5339,-5908 -7673,-8979 -2362,-3099 -4480,-6263 -6310,-9399 -1801,-3099 -3304,-6151 -4443,-9054 l -121,-308 -392,-1008 -541,-1381 -1391,513 -1017,373 -289,112 -16848,6132 -317,112 -1027,373 -1409,513 504,1409 364,1027 121,327 c 1512,4228 3407,8391 5600,12442 2296,4238 4938,8382 7850,12386 2987,4116 6291,8111 9801,11910 3594,3883 7393,7542 11294,10883 3995,3444 8130,6580 12293,9353 4154,2772 8335,5171 12424,7122 4070,1932 8093,3454 11976,4480 3790,1008 7439,1540 10855,1540 3416,0 7066,-532 10855,-1540 3883,-1027 7906,-2548 11976,-4480 4098,-1951 8270,-4350 12433,-7122 4154,-2772 8289,-5918 12284,-9353 3902,-3342 7701,-7001 11294,-10883 3510,-3799 6814,-7794 9801,-11910 2912,-4004 5554,-8158 7850,-12386 2193,-4060 4088,-8223 5610,-12442 l 112,-308 364,-1036 513,-1419 -1419,-513 -1027,-373 -317,-112 -16848,-6132 -299,-112 -1008,-373 -1381,-504 -551,1372 -392,1008 -121,308 c -1139,2903 -2642,5955 -4443,9054 -1829,3136 -3948,6300 -6310,9399 -2334,3071 -4910,6104 -7673,8989 -2651,2772 -5507,5442 -8513,7925 -2782,2287 -5647,4396 -8569,6235 -2800,1764 -5647,3304 -8513,4546 -2688,1167 -5404,2091 -8102,2707 -2548,588 -5096,896 -7607,896 z"
   id="path49" />
   </g>
</svg>
