<svg width="84" height="80" viewBox="0 0 84 80" fill="none" xmlns="http://www.w3.org/2000/svg">
<g clip-path="url(#clip0_2862_28501)">
<path d="M26.355 78.307L28.158 73.183L29.593 73.688L28.195 77.663L30.142 78.349L31.541 74.374L32.968 74.876L31.165 80L26.355 78.307ZM26.195 72.456C26.477 72.886 26.627 73.349 26.647 73.851C26.667 74.353 26.546 74.84 26.284 75.316C26.022 75.793 25.676 76.156 25.241 76.408C24.808 76.659 24.335 76.782 23.822 76.775C23.2894 76.7621 22.7684 76.6167 22.306 76.352C21.8991 76.1354 21.5416 75.8368 21.256 75.475C20.9967 75.1408 20.8236 74.7479 20.752 74.331L22.035 74.026C22.14 74.567 22.411 74.959 22.851 75.201C23.109 75.344 23.371 75.412 23.634 75.411C23.898 75.409 24.144 75.335 24.367 75.188C24.591 75.044 24.777 74.836 24.925 74.569C25.071 74.302 25.147 74.035 25.149 73.766C25.1524 73.5053 25.0809 73.2492 24.943 73.028C24.7951 72.7958 24.5889 72.6065 24.345 72.479C23.905 72.237 23.429 72.218 22.916 72.419L22.485 71.173C22.8755 71.0103 23.2998 70.9458 23.721 70.985C24.154 71.023 24.589 71.162 25.024 71.4C25.4958 71.6495 25.8982 72.0124 26.195 72.456ZM19.526 70.373L20.078 70.801L21.354 69.158L22.562 70.097L19.23 74.387L18.023 73.448L19.317 71.781L18.734 71.328L16.414 72.199L15.14 71.209L18.091 70.179L18.459 66.909L19.826 67.971L19.526 70.373ZM17.325 66.077C17.4607 66.565 17.4572 67.0812 17.315 67.5673C17.1727 68.0535 16.8974 68.4901 16.52 68.828C16.1543 69.1779 15.6982 69.4189 15.203 69.5238C14.7078 69.6288 14.1932 69.5935 13.717 69.422C13.2102 69.24 12.7566 68.9349 12.397 68.534C12.0252 68.1442 11.7559 67.6684 11.613 67.149C11.48 66.6657 11.4824 66.1551 11.62 65.673C11.757 65.189 12.022 64.765 12.418 64.399C12.813 64.032 13.257 63.799 13.748 63.7C14.2393 63.5994 14.7489 63.6358 15.221 63.805C15.71 63.975 16.15 64.271 16.54 64.693C16.93 65.113 17.191 65.576 17.325 66.077ZM14.957 65.144C14.71 65.068 14.4466 65.0632 14.197 65.13C13.937 65.195 13.694 65.332 13.47 65.54C13.259 65.7278 13.0993 65.9663 13.006 66.233C12.921 66.487 12.906 66.74 12.964 66.993C13.02 67.243 13.141 67.469 13.329 67.671C13.515 67.873 13.731 68.011 13.977 68.086C14.222 68.162 14.477 68.166 14.737 68.101C14.997 68.036 15.24 67.898 15.464 67.691C15.688 67.483 15.844 67.252 15.928 66.998C16.013 66.743 16.028 66.491 15.969 66.238C15.9113 65.9829 15.7855 65.7483 15.605 65.559C15.4306 65.3644 15.2066 65.221 14.957 65.144ZM9.536 59.407C9.626 59.147 9.805 58.928 10.072 58.753C10.475 58.49 10.893 58.437 11.332 58.6C11.769 58.762 12.177 59.13 12.554 59.706L14.082 62.036L9.54 65.016L8.092 62.811C7.735 62.266 7.56 61.775 7.569 61.34C7.578 60.905 7.769 60.564 8.146 60.316C8.366 60.172 8.596 60.096 8.834 60.093C9.072 60.087 9.307 60.153 9.536 60.286C9.446 59.959 9.446 59.666 9.536 59.406V59.407ZM10.525 62.558L9.989 61.74C9.751 61.378 9.482 61.293 9.184 61.49C8.886 61.684 8.856 61.964 9.094 62.329L9.63 63.146L10.525 62.558ZM10.826 60.116C10.52 60.318 10.487 60.606 10.733 60.977L11.397 61.99L12.332 61.376L11.667 60.363C11.422 59.992 11.141 59.908 10.826 60.116ZM10.4 56.421C10.368 56.932 10.21 57.396 9.924 57.808C9.639 58.221 9.249 58.538 8.754 58.762C8.26 58.986 7.764 59.069 7.266 59.01C6.77097 58.9535 6.30145 58.7603 5.91 58.452C5.49176 58.1222 5.1619 57.6937 4.95 57.205C4.75325 56.788 4.64692 56.334 4.638 55.873C4.634 55.438 4.728 55.032 4.921 54.655L6.131 55.181C5.889 55.678 5.872 56.153 6.078 56.611C6.199 56.88 6.367 57.093 6.58 57.248C6.793 57.405 7.033 57.492 7.298 57.51C7.565 57.528 7.838 57.474 8.116 57.35C8.394 57.223 8.614 57.055 8.776 56.842C8.939 56.629 9.031 56.391 9.054 56.129C9.0749 55.8547 9.02389 55.5796 8.906 55.331C8.699 54.875 8.331 54.573 7.798 54.427L8.201 53.171C8.611 53.276 8.978 53.472 9.303 53.763C9.628 54.053 9.893 54.425 10.097 54.877C10.334 55.394 10.433 55.911 10.401 56.421H10.4ZM6.31 50.752L6.495 51.426L8.5 50.876L8.904 52.35L3.664 53.788L3.261 52.314L5.296 51.756L5.101 51.045L2.723 50.354L2.295 48.798L5.275 49.742L7.531 47.345L7.989 49.015L6.31 50.752ZM2.096 47.625L1.937 46.119L5.11 45.785L1.702 43.889L1.551 42.454L6.953 41.885L7.112 43.391L3.948 43.723L7.346 45.613L7.498 47.056L2.096 47.625ZM0.971 39.138C0.741 39.378 0.419 39.485 0 39.456L0.072 38.426C0.252 38.432 0.392 38.396 0.484 38.313C0.578 38.233 0.632 38.095 0.644 37.903C0.657 37.713 0.624 37.568 0.544 37.469C0.462 37.369 0.332 37.312 0.152 37.294L0.224 36.263C0.643 36.292 0.948 36.443 1.141 36.716C1.334 36.989 1.411 37.402 1.373 37.954C1.333 38.504 1.2 38.898 0.971 39.138ZM1.516 40.566L1.621 39.057L4.803 39.279L1.776 36.819L1.877 35.379L7.297 35.756L7.192 37.265L4.018 37.043L7.035 39.493L6.935 40.941L1.516 40.566ZM4.982 27.683L4.303 30.047L8.353 31.211L7.934 32.666L2.713 31.166L3.812 27.34L4.982 27.683ZM9.239 27.663C8.831 27.983 8.376 28.173 7.878 28.237C7.37044 28.2992 6.85561 28.2178 6.392 28.002C5.92241 27.8002 5.51856 27.4711 5.226 27.052C4.9414 26.6392 4.77508 26.1565 4.745 25.656C4.71243 25.1184 4.81451 24.5812 5.042 24.093C5.277 23.568 5.598 23.147 6.006 22.828C6.416 22.508 6.869 22.317 7.367 22.254C7.865 22.191 8.36 22.268 8.852 22.488C9.343 22.707 9.732 23.025 10.018 23.438C10.303 23.851 10.464 24.317 10.5 24.835C10.5323 25.3727 10.4298 25.9099 10.202 26.398C9.99031 26.8927 9.65948 27.3273 9.239 27.663ZM9.166 25.12C9.1383 24.8628 9.03962 24.6184 8.881 24.414C8.70784 24.1915 8.48064 24.0169 8.221 23.907C7.96514 23.787 7.6829 23.7344 7.401 23.754C7.14378 23.7726 6.89669 23.8619 6.687 24.012C6.477 24.162 6.317 24.362 6.205 24.612C6.093 24.864 6.051 25.116 6.078 25.372C6.105 25.629 6.201 25.863 6.363 26.078C6.526 26.293 6.746 26.461 7.026 26.586C7.304 26.71 7.578 26.761 7.846 26.739C8.10523 26.7206 8.35422 26.6304 8.5651 26.4785C8.77597 26.3266 8.94041 26.119 9.04 25.879C9.14928 25.6415 9.1928 25.379 9.166 25.119V25.12ZM12.095 22.028C11.6587 22.2681 11.1644 22.3823 10.667 22.358C10.1546 22.3321 9.65944 22.1642 9.237 21.873C8.80548 21.5953 8.45934 21.2035 8.237 20.741C8.02331 20.2912 7.93851 19.7911 7.992 19.296C8.042 18.785 8.225 18.294 8.541 17.819C8.817 17.406 9.138 17.083 9.505 16.849C9.86022 16.6189 10.2664 16.4791 10.688 16.442L10.883 17.747C10.335 17.805 9.921 18.043 9.643 18.46C9.48628 18.6862 9.39179 18.9497 9.369 19.224C9.349 19.487 9.402 19.736 9.528 19.972C9.654 20.209 9.844 20.412 10.098 20.581C10.353 20.751 10.613 20.848 10.878 20.871C11.145 20.897 11.394 20.85 11.631 20.729C11.867 20.609 12.066 20.426 12.228 20.18C12.506 19.763 12.566 19.29 12.408 18.762L13.686 18.438C13.816 18.841 13.843 19.258 13.769 19.688C13.695 20.117 13.52 20.538 13.244 20.951C12.9564 21.4002 12.5611 21.7704 12.094 22.028H12.095ZM14.2 11.177L15.776 15.673C15.947 16.153 16.002 16.597 15.942 17.009C15.881 17.42 15.712 17.776 15.437 18.077C15.2092 18.3174 14.9377 18.5122 14.637 18.651L14.047 17.617C14.237 17.503 14.381 17.39 14.482 17.28C14.5784 17.1787 14.6458 17.0533 14.677 16.917C14.7054 16.7667 14.7 16.6119 14.661 16.464L10.351 15.379L11.446 14.182L14.235 15.022L13.186 12.282L14.2 11.177ZM22.182 10.163L23.613 11.98L22.511 12.85L21.834 11.991L19.103 14.143L19.78 15.002L18.67 15.875L17.239 14.058L17.39 13.937C17.64 13.735 17.68 13.421 17.515 12.998C17.349 12.576 17.025 12.033 16.544 11.372L15.554 10.017L18.993 7.307L21.601 10.617L22.182 10.163ZM18.484 11.89C18.677 12.251 18.782 12.565 18.798 12.829L20.413 11.556L18.56 9.203L17.334 10.168L17.681 10.647C18.024 11.114 18.291 11.527 18.484 11.89ZM26.251 8.15L24.224 9.23L24.344 10.362L22.959 11.098L22.52 5.176L23.856 4.466L28.534 8.129L27.123 8.882L26.251 8.151V8.15ZM25.321 7.362L23.89 6.156L24.09 8.019L25.323 7.362H25.321ZM30.854 1.915C31.25 1.953 31.589 2.085 31.872 2.308C32.156 2.532 32.362 2.839 32.493 3.225C32.623 3.613 32.643 3.98 32.553 4.326C32.463 4.673 32.271 4.981 31.981 5.252C31.691 5.522 31.311 5.736 30.845 5.892L29.948 6.194L30.401 7.541L28.945 8.031L27.21 2.884L29.564 2.092C30.028 1.935 30.459 1.875 30.854 1.915ZM30.981 4.353C31.089 4.173 31.103 3.962 31.022 3.722C30.942 3.482 30.802 3.321 30.605 3.24C30.409 3.158 30.161 3.168 29.862 3.269L29.053 3.541L29.56 5.048L30.369 4.776C30.669 4.676 30.872 4.536 30.981 4.353ZM35.2 5.922C34.7259 5.76954 34.3031 5.48926 33.978 5.112C33.6459 4.72075 33.4285 4.24519 33.35 3.738C33.2548 3.23361 33.3026 2.71265 33.488 2.234C33.67 1.767 33.964 1.377 34.37 1.063C34.7947 0.740864 35.2931 0.52982 35.82 0.449C36.309 0.366 36.765 0.377 37.188 0.484C37.61 0.59 37.98 0.784 38.296 1.064L37.482 2.103C37.063 1.743 36.606 1.606 36.112 1.691C35.822 1.741 35.574 1.85 35.368 2.016C35.162 2.182 35.018 2.391 34.933 2.646C34.849 2.9 34.83 3.176 34.883 3.478C34.935 3.779 35.042 4.034 35.208 4.245C35.372 4.456 35.579 4.605 35.828 4.695C36.078 4.783 36.346 4.803 36.638 4.752C37.132 4.667 37.516 4.386 37.792 3.909L38.906 4.617C38.702 4.987 38.419 5.294 38.056 5.534C37.6679 5.78379 37.232 5.94967 36.776 6.021C36.2504 6.1175 35.7092 6.08415 35.2 5.922ZM43.792 1.218L42.132 1.256L42.23 5.469L40.717 5.503L40.62 1.29L38.952 1.328L38.925 0.11L43.767 0L43.792 1.218ZM49.353 3.712C49.493 3.949 49.543 4.227 49.503 4.545C49.443 5.023 49.209 5.375 48.803 5.602C48.397 5.83 47.852 5.9 47.169 5.815L44.404 5.467L45.083 0.077L47.7 0.407C48.346 0.489 48.833 0.675 49.16 0.964C49.487 1.252 49.62 1.621 49.564 2.066C49.5386 2.3113 49.4428 2.544 49.288 2.736C49.1289 2.9259 48.9201 3.06784 48.685 3.146C48.99 3.286 49.215 3.476 49.353 3.712ZM47.978 4.236C48.023 3.871 47.826 3.662 47.384 3.606L46.184 3.454L46.044 4.563L47.247 4.714C47.685 4.77 47.932 4.609 47.978 4.236ZM46.314 2.422L47.284 2.545C47.716 2.599 47.954 2.449 47.998 2.095C48.043 1.742 47.85 1.538 47.418 1.483L46.448 1.361L46.314 2.422ZM54.453 6.292L54.131 7.434L49.931 6.254L51.401 1.024L55.503 2.175L55.182 3.317L52.545 2.577L52.298 3.46L54.621 4.113L54.311 5.22L51.987 4.566L51.718 5.523L54.453 6.292ZM61.742 4.878L59.466 9.811L58.071 9.167L58.959 7.243L57.057 6.366L56.169 8.29L54.773 7.645L57.049 2.713L58.444 3.357L57.589 5.21L59.491 6.088L60.347 4.234L61.742 4.878ZM67.627 8.763L64.532 13.226L63.268 12.351L64.476 10.609L62.754 9.414L61.547 11.156L60.283 10.28L63.38 5.817L64.644 6.692L63.48 8.37L65.2 9.564L66.365 7.887L67.627 8.763ZM70.628 14.605C70.664 15.072 70.473 15.509 70.053 15.913C69.601 16.348 69.118 16.534 68.598 16.473C68.08 16.411 67.571 16.123 67.071 15.605L65.29 13.755L69.202 9.986L70.252 11.076L69.006 12.276L69.877 13.182C70.341 13.662 70.59 14.137 70.628 14.605ZM68.374 15.067C68.58 15.079 68.774 14.998 68.957 14.823C69.297 14.496 69.271 14.13 68.879 13.723L68.217 13.036L67.132 14.081L67.795 14.769C67.975 14.955 68.168 15.054 68.374 15.067ZM72.987 13.917L74.037 15.007L70.125 18.776L69.075 17.686L72.987 13.917ZM75.202 16.626L76.018 17.901L73.332 19.621L77.227 19.791L78.005 21.007L73.43 23.936L72.614 22.662L75.294 20.945L71.41 20.779L70.627 19.558L75.202 16.626ZM76.492 17.446C76.532 17.116 76.729 16.837 77.082 16.612L77.639 17.482C77.489 17.585 77.401 17.695 77.374 17.818C77.346 17.938 77.386 18.081 77.489 18.242C77.592 18.402 77.706 18.5 77.83 18.53C77.955 18.561 78.094 18.53 78.249 18.437L78.805 19.307C78.451 19.532 78.117 19.594 77.798 19.491C77.48 19.388 77.171 19.103 76.874 18.637C76.579 18.171 76.45 17.777 76.492 17.446ZM81.635 29.796L76.925 29.089C76.421 29.017 76.001 28.856 75.667 28.61C75.3391 28.3751 75.0913 28.0453 74.957 27.665C74.8524 27.3511 74.8073 27.0204 74.824 26.69L76.014 26.652C76.026 26.872 76.058 27.055 76.109 27.195C76.159 27.336 76.235 27.452 76.339 27.538C76.441 27.625 76.576 27.69 76.746 27.735L79.72 24.432L80.266 25.959L78.221 28.033L81.131 28.387L81.635 29.797V29.796ZM82.843 36.012L77.499 36.987L77.223 35.474L79.307 35.095L78.932 33.035L76.847 33.413L76.571 31.901L81.915 30.926L82.192 32.438L80.185 32.805L80.56 34.866L82.567 34.5L82.843 36.012ZM83.02 37.893L83.028 39.405L79.839 39.423L83.041 41.649L83.048 43.093L77.616 43.123L77.606 41.611L80.789 41.593L77.596 39.375L77.586 37.924L83.02 37.893ZM79.099 49.081C78.857 49.213 78.579 49.253 78.261 49.202C77.786 49.126 77.441 48.881 77.227 48.466C77.014 48.051 76.962 47.504 77.07 46.826L77.512 44.074L82.876 44.937L82.457 47.542C82.355 48.186 82.152 48.664 81.853 48.98C81.553 49.296 81.181 49.419 80.737 49.347C80.477 49.305 80.257 49.206 80.079 49.049C79.8945 48.8833 79.7601 48.6692 79.691 48.431C79.537 48.733 79.342 48.949 79.099 49.081ZM78.624 47.688C78.987 47.746 79.204 47.556 79.274 47.116L79.467 45.921L78.364 45.744L78.173 46.939C78.099 47.377 78.251 47.627 78.624 47.688ZM80.492 46.085L80.337 47.051C80.268 47.481 80.409 47.722 80.763 47.78C81.115 47.836 81.326 47.65 81.394 47.22L81.549 46.255L80.492 46.085ZM76.347 54.086L75.215 53.725L76.538 49.568L81.714 51.216L80.42 55.276L79.288 54.914L80.12 52.304L79.247 52.027L78.514 54.326L77.42 53.978L78.153 51.678L77.207 51.377L76.347 54.086ZM77.947 60.028C77.6644 60.2702 77.3171 60.4245 76.948 60.472C76.589 60.515 76.228 60.444 75.86 60.264C75.5186 60.1064 75.232 59.8505 75.037 59.529C74.8512 59.2079 74.7633 58.8394 74.784 58.469C74.799 58.073 74.914 57.654 75.131 57.214L75.55 56.364L74.275 55.736L74.954 54.356L79.827 56.757L78.73 58.984C78.513 59.426 78.252 59.774 77.947 60.028ZM76.127 58.396C76.18 58.6 76.319 58.759 76.546 58.871C76.773 58.982 76.984 58.997 77.181 58.916C77.378 58.833 77.546 58.65 77.685 58.367L78.062 57.602L76.634 56.898L76.257 57.663C76.12 57.948 76.077 58.192 76.127 58.396ZM72.035 60.282C72.492 60.051 72.972 59.952 73.472 59.988C73.972 60.024 74.445 60.198 74.889 60.511C75.333 60.825 75.656 61.21 75.858 61.668C76.06 62.127 76.128 62.61 76.065 63.119C76 63.629 75.805 64.115 75.477 64.579C75.2175 64.9607 74.8801 65.2831 74.487 65.525C74.114 65.749 73.717 65.873 73.293 65.899L73.133 64.59C73.681 64.547 74.102 64.32 74.391 63.91C74.561 63.668 74.659 63.417 74.685 63.154C74.7124 62.8947 74.6637 62.6331 74.545 62.401C74.4166 62.1497 74.2263 61.9353 73.992 61.778C73.7647 61.6107 73.4988 61.5034 73.219 61.466C72.9604 61.4328 72.6977 61.4755 72.463 61.589C72.225 61.702 72.021 61.879 71.851 62.121C71.562 62.531 71.491 63.001 71.634 63.534L70.348 63.824C70.2285 63.4178 70.2114 62.9884 70.298 62.574C70.384 62.146 70.57 61.731 70.857 61.325C71.1577 60.8855 71.5624 60.5273 72.035 60.282ZM73.154 67.474L72.091 68.552L69.821 66.312L70.517 70.149L69.503 71.178L65.635 67.364L66.698 66.287L68.963 68.521L68.266 64.695L69.286 63.661L73.154 67.474ZM63.861 73.947L65.197 72.959L62.692 69.572L63.908 68.672L66.413 72.059L67.754 71.066L68.478 72.046L64.585 74.925L63.861 73.947ZM57.626 73.941L57.06 72.896L60.896 70.819L63.484 75.594L59.737 77.624L59.172 76.582L61.582 75.277L61.145 74.472L59.022 75.622L58.475 74.611L60.598 73.461L60.125 72.588L57.626 73.941ZM53.781 78.637L55.339 78.058L53.869 74.108L55.289 73.58L56.757 77.531L58.322 76.95L58.746 78.092L54.207 79.78L53.781 78.637ZM42.586 79.314C42.9531 79.314 43.3051 79.1682 43.5646 78.9086C43.8242 78.6491 43.97 78.2971 43.97 77.93C43.97 77.5629 43.8242 77.2109 43.5646 76.9514C43.3051 76.6918 42.9531 76.546 42.586 76.546C42.2189 76.546 41.8669 76.6918 41.6074 76.9514C41.3478 77.2109 41.202 77.5629 41.202 77.93C41.202 78.2971 41.3478 78.6491 41.6074 78.9086C41.8669 79.1682 42.2189 79.314 42.586 79.314ZM56.3 45.803C56.426 46.143 56.507 46.376 56.599 46.616C57.209 48.216 57.832 49.819 58.431 51.426C58.541 51.726 58.691 51.848 59.012 51.826C59.472 51.799 59.934 51.821 60.395 51.826C61.286 51.826 61.949 52.494 61.955 53.406C61.961 55.191 61.972 56.97 61.967 58.756C61.967 59.066 62.019 59.233 62.369 59.306C62.974 59.428 63.284 59.872 63.41 60.457C63.468 60.713 63.387 60.852 63.106 60.847C62.835 60.847 62.569 60.857 62.299 60.847C62.068 60.842 61.976 60.941 61.976 61.165C61.976 61.421 61.952 61.677 61.958 61.932C61.968 62.509 61.705 62.95 61.198 63.161C60.748 63.345 60.248 63.428 59.765 63.511C59.442 63.567 59.108 63.551 58.75 63.567V64.529C58.75 64.946 58.606 65.047 58.232 64.857C58.007 64.74 57.817 64.563 57.622 64.401C57.455 64.267 57.299 64.117 57.052 63.888C57.052 64.189 57.047 64.388 57.052 64.583C57.062 64.877 56.913 64.933 56.666 64.877C55.964 64.717 55.462 64.099 55.433 63.349C55.423 63.081 55.433 62.814 55.433 62.504H54.293C54.074 61.325 54.723 60.497 55.848 60.479C56.592 60.462 57.328 60.457 58.072 60.452C58.245 60.452 58.412 60.452 58.412 60.206V56.874C57.525 57.096 56.718 56.986 55.901 56.842C54.599 56.607 53.585 55.918 52.906 54.822C52.376 53.965 51.991 53.026 51.558 52.113C51.3748 51.7327 51.221 51.3389 51.098 50.935C50.988 50.568 50.793 50.451 50.407 50.451C47.93 50.456 45.449 50.446 42.971 50.424C42.7 50.424 42.505 50.502 42.355 50.718C42.131 51.047 41.89 51.362 41.669 51.691C40.881 52.875 39.855 53.765 38.518 54.283C38.005 54.483 37.504 54.71 36.991 54.9C36.702 55.006 36.541 55.201 36.421 55.472C36.081 56.245 35.706 57.006 35.372 57.781C35.136 58.321 34.762 58.66 34.168 58.603C33.367 58.531 32.965 58.898 32.62 59.605C32.073 60.717 31.652 61.813 31.72 63.087C31.779 64.193 31.156 64.888 30.13 64.939C30.13 64.594 30.12 64.255 30.13 63.915C30.142 63.659 30.057 63.543 29.779 63.549C29.179 63.554 28.575 63.549 27.976 63.525C27.716 63.515 27.636 63.626 27.642 63.865C27.647 64.22 27.642 64.575 27.642 64.965C26.709 64.922 26.467 64.143 25.936 63.552V64.854C25.51 64.937 25.211 64.792 24.946 64.56C24.496 64.153 24.357 63.63 24.376 63.029C24.393 62.462 24.376 62.457 23.805 62.468C22.993 62.478 22.848 62.273 23.148 61.484C23.442 60.701 24.126 60.494 24.846 60.461C25.79 60.411 26.736 60.434 27.68 60.45C27.961 60.45 28.111 60.372 28.232 60.105C29.0832 58.2268 29.9472 56.3544 30.824 54.488C30.984 54.149 30.95 53.976 30.622 53.759C28.319 52.258 27.172 50.077 26.994 47.363C26.85 45.127 27.541 43.147 28.958 41.423C29.078 41.279 29.188 41.161 29.338 41.021C29.727 40.665 30.035 40.605 30.524 40.696C31.959 40.946 33.226 40.468 34.344 39.589C35.553 38.639 36.341 37.409 36.596 35.864C36.606 35.808 36.636 35.758 36.756 35.704C36.767 35.837 36.796 35.976 36.796 36.11C36.796 37.777 36.82 39.447 36.778 41.115C36.755 42.183 37.901 43.551 39.173 43.545C45.434 43.505 51.699 43.524 57.96 43.505C58.196 43.505 58.444 43.461 58.657 43.367C59.03 43.201 59.104 42.897 59.111 42.566C59.071 42.093 58.657 41.914 58.31 41.909C57.124 41.903 55.931 41.903 54.745 41.898C53.507 41.898 52.264 41.876 51.025 41.898C49.505 41.925 47.858 40.447 47.939 38.772C48.013 37.137 49.143 35.83 50.767 35.68C51.441 35.619 52.121 35.635 52.794 35.58C52.974 35.57 53.204 35.469 53.302 35.335C54.366 33.868 55.807 33.395 57.523 33.783C59.297 34.189 60.357 35.379 60.857 37.097C61.048 37.754 60.88 37.96 60.171 37.96C57.256 37.965 54.343 37.97 51.428 37.981C51.249 37.981 51.071 37.992 50.898 38.031C50.587 38.104 50.374 38.299 50.338 38.633C50.304 38.978 50.43 39.261 50.748 39.389C51.024 39.501 51.336 39.579 51.634 39.579C53.886 39.6 56.132 39.595 58.384 39.6C60.095 39.6 61.499 41.051 61.488 42.804C61.483 44.41 60.048 45.812 58.408 45.818H56.283L56.299 45.804L56.3 45.803Z" fill="#BB1B1B"/>
<path d="M49.2842 54.0735C49.1642 54.3465 49.2162 54.5254 49.4292 54.7074C49.6312 54.8844 49.8092 55.0844 49.9992 55.2744C50.5592 55.8344 50.6792 56.6204 50.2362 57.2864C49.8904 57.81 49.4988 58.3019 49.0662 58.7565C48.2382 59.6115 47.3732 60.4284 46.5142 61.2514C46.401 61.3547 46.3115 61.4814 46.252 61.6226C46.1924 61.7638 46.1642 61.9163 46.1692 62.0695C46.1692 62.4915 46.1292 62.9135 46.1062 63.3385C46.0542 64.3235 45.6412 64.7724 44.5632 64.9334V64.9395C44.5632 64.5675 44.5582 64.2224 44.5632 63.8774C44.5682 63.6394 44.4892 63.5224 44.2352 63.5224C43.6072 63.5224 42.9852 63.5225 42.3582 63.5055C42.1552 63.5055 42.0812 63.5835 42.0872 63.7785C42.0872 64.0345 42.0762 64.2914 42.0872 64.5454C42.0972 64.8504 41.9472 64.9305 41.6772 64.8745C41.1542 64.7645 40.8412 64.4065 40.6172 63.9515C40.5772 63.8685 40.5262 63.7835 40.4792 63.7065L40.3762 63.7225V64.8344C39.4252 64.8074 38.7562 64.1444 38.7562 63.2874C38.7562 62.5204 38.7562 62.5045 38.0022 62.5045C37.6162 62.5045 37.4952 62.3704 37.5012 61.9884C37.5192 61.0924 38.1232 60.4865 39.0962 60.4705C40.0532 60.4535 41.0152 60.4755 41.9692 60.4485C42.1822 60.4435 42.4482 60.3365 42.5982 60.1865C43.4962 59.2915 44.3662 58.3745 45.2482 57.4565C45.6152 57.0715 45.6042 56.9944 45.1372 56.7444C44.2802 56.2824 43.6972 55.5824 43.4892 54.6314C43.4022 54.2364 43.4712 53.7904 43.5412 53.3814C43.6232 52.9294 43.7652 52.4854 43.9222 52.0514C43.9622 51.9454 44.1352 51.8194 44.2452 51.8194C46.1512 51.7974 48.2122 51.8174 50.1182 51.8124M28.2952 31.0234C28.2952 31.3634 28.2842 31.7804 28.3592 32.0634C28.4352 32.3994 28.5492 32.6135 28.7732 32.7905C29.2172 33.1465 30.0402 33.0954 30.4712 32.7744C30.9612 32.4084 31.0312 31.8954 30.9372 31.3244C30.8972 31.0904 30.8542 31.0024 30.5512 31.0024C30.0962 30.9964 29.9062 31.0024 29.5202 31.0024C29.0602 31.0044 29.0812 30.7084 29.0812 30.4064C29.0812 30.1124 29.0782 29.7864 29.4982 29.7914C30.2132 29.7964 30.9532 29.7224 31.6372 29.8514C32.1972 29.9574 32.7492 30.2844 33.2222 30.6234C33.6952 30.9634 34.0792 31.4244 34.4782 31.8574C34.6682 32.0634 34.8582 32.1624 35.1402 32.1514C35.5842 32.1304 36.0342 32.1244 36.4832 32.1514C36.5992 32.1574 36.8012 32.3174 36.8012 32.4134C36.8112 32.8194 36.8062 33.2364 36.7322 33.6324C36.6292 34.1764 36.2252 34.4874 35.7122 34.6104C35.3952 34.6824 35.2972 34.8324 35.2342 35.1394C34.9742 36.4194 34.4222 37.5354 33.3682 38.3534C32.7021 38.8829 31.8791 39.1762 31.0282 39.1874C30.8502 39.1874 30.6712 39.2094 30.4932 39.1974C29.7202 39.1474 29.0182 39.2544 28.3222 39.6814C27.4282 40.2264 26.0582 39.8314 25.5572 38.9474C25.3542 38.5974 25.3442 38.1244 25.3092 37.7014C25.2862 37.4294 25.5462 37.4134 25.7592 37.4134C26.4212 37.4024 27.0892 37.4135 27.7512 37.3735C28.3852 37.3335 28.8292 36.8954 28.9442 36.2674C29.1812 34.9874 28.6742 34.3324 27.3782 34.2494C27.0202 34.2274 26.6632 34.2144 26.3052 34.1934C25.4752 34.1484 24.7852 33.4104 24.7852 32.5684C24.7852 32.1464 24.7682 31.7244 24.7972 31.3004C24.8022 31.1884 24.7912 30.9954 25.0272 30.9954C26.0872 30.9844 27.1472 31.0054 28.2062 31.0224M27.4282 53.2614C26.6382 53.5504 25.9082 53.9014 25.1412 54.0844C24.2842 54.2844 23.6372 53.9004 23.2862 53.0824C22.4201 51.0572 21.569 49.0254 20.7332 46.9874C20.6362 46.7494 20.5202 46.6594 20.2682 46.6374C19.5482 46.5714 19.0982 46.0974 18.7772 45.5024C18.5872 45.1524 18.7372 44.9414 19.1292 44.9354C19.3992 44.9304 19.6652 44.9304 19.9362 44.9194C20.1582 44.9164 20.1702 44.8944 20.1772 44.8584C20.1772 44.1634 20.1882 43.4454 20.1672 42.7344C20.1672 42.6564 19.9722 42.5384 19.8572 42.5284C19.5042 42.5014 19.1492 42.5174 18.7392 42.5174C18.7162 41.6434 19.2992 41.2484 19.9722 40.9274L19.9542 40.7994H19.2102C18.7082 40.7994 18.6632 40.7324 18.8082 40.2374C18.9922 39.6204 19.6542 39.1205 20.2982 39.1155H21.1162C21.1162 38.7925 21.1262 38.4875 21.1162 38.1855C21.0982 37.8625 21.2552 37.7794 21.5362 37.8134C22.2392 37.9024 22.8142 38.2364 23.2762 38.7704C23.8132 39.3934 24.1342 40.1434 24.1122 40.9504C24.0942 41.4454 23.8652 41.9794 23.5942 42.4074C23.2662 42.9254 23.2892 43.3374 23.5252 43.8874C24.7752 46.8074 25.9852 49.7434 27.2052 52.6734C27.2752 52.8334 27.3372 53.0014 27.4372 53.2504L27.4272 53.2614H27.4282ZM46.7962 33.2024V41.3944C46.7962 41.9294 46.7962 41.9344 46.2662 41.9344C45.8792 41.9344 45.5002 41.9184 45.1192 41.9394C44.8092 41.9564 44.6992 41.8224 44.7222 41.5334C44.7282 41.4564 44.7222 41.3784 44.7222 41.3064C44.7122 35.9224 44.6992 30.5404 44.6932 25.1564V24.8114C44.7042 24.6014 44.8032 24.4994 45.0332 24.5064C45.5062 24.5174 45.9772 24.5234 46.4492 24.5064C46.7312 24.4964 46.7942 24.6134 46.7892 24.8674C46.7832 26.1854 46.7892 27.5104 46.7892 28.8274V33.2094H46.7942V33.2024H46.7962ZM52.6872 29.4714C52.6872 30.9574 52.6822 32.4414 52.6922 33.9264C52.6922 34.2494 52.6002 34.3535 52.2822 34.3375C51.8736 34.3132 51.4639 34.3132 51.0552 34.3375C50.6982 34.3645 50.6012 34.2254 50.6012 33.8814C50.6192 31.0884 50.6192 28.2964 50.6242 25.5064C50.6242 25.3004 50.6342 25.0954 50.6242 24.8894C50.6062 24.6164 50.7342 24.5284 50.9872 24.5334C51.4182 24.5444 51.8572 24.5494 52.2882 24.5334C52.5882 24.5234 52.6852 24.6404 52.6852 24.9394C52.6762 26.4524 52.6872 27.9644 52.6872 29.4714Z" fill="#BB1B1B"/>
<path d="M23.5592 36.5445C22.6652 36.5495 21.8022 35.8605 21.8602 34.9035C21.8842 34.5085 21.8892 34.1075 21.9702 33.7305C22.0512 33.3585 22.3282 33.1185 22.7012 33.0065C23.0352 32.9125 23.3692 32.9185 23.6232 33.1965C23.8712 33.4745 23.8712 33.8025 23.7332 34.1315C23.4392 34.8545 23.5102 34.9545 24.2862 34.9545C25.2192 34.9545 26.1462 34.9375 27.0802 34.9435C27.3222 34.9435 27.5632 34.9705 27.7952 35.0315C28.1232 35.1205 28.2892 35.3545 28.3022 35.7105C28.3072 36.0765 28.1622 36.3385 27.8292 36.4605C27.6162 36.5335 27.3792 36.5675 27.1562 36.5735C26.5672 36.5895 25.9812 36.5735 25.3942 36.5735M29.6262 31.4565C29.8972 31.4665 30.1442 31.7235 30.1332 31.9795C30.1232 32.2365 29.8392 32.4975 29.5862 32.4585C29.3052 32.4185 29.1262 32.2465 29.1082 31.9525C29.0902 31.6915 29.3682 31.4475 29.6322 31.4525L29.6262 31.4565ZM60.7912 19.5825H24.7862V22.9495H60.7912V19.5825ZM24.7902 18.3715H60.7882L42.7392 11.6445L24.7902 18.3715ZM46.7962 24.5045H44.6932V41.9395H46.7962V24.5045ZM52.7012 24.5045H50.5992V34.4925H52.7012V24.5045ZM60.7882 32.5175C60.7882 32.5175 59.6262 31.0665 56.4712 31.1545V24.5025H60.7882V32.5175ZM34.9702 30.4325C34.9702 30.4325 34.4072 29.5255 32.8782 28.8445V24.5045H34.9812L34.9702 30.4325ZM40.8852 24.5045H38.7822V41.9395H40.8852V24.5045Z" fill="#BB1B1B"/>
<path d="M29.6094 32.4659C29.6775 32.4671 29.7452 32.4548 29.8086 32.4298C29.872 32.4048 29.9298 32.3676 29.9787 32.3202C30.0277 32.2729 30.0668 32.2163 30.0939 32.1538C30.1209 32.0913 30.1354 32.024 30.1364 31.9559C30.1338 31.8187 30.0768 31.6881 29.978 31.5929C29.8792 31.4976 29.7467 31.4455 29.6094 31.4479C29.4722 31.4458 29.3398 31.4982 29.2411 31.5936C29.1425 31.689 29.0858 31.8197 29.0834 31.9569C29.0834 32.2369 29.3184 32.4659 29.6094 32.4659ZM24.7734 24.5049V29.6779L27.1434 29.6549C27.1434 29.6549 27.4934 29.6609 27.4934 29.3589C27.4934 29.1099 27.4154 28.9969 27.5114 28.8109C27.7334 28.3869 29.0884 28.2389 29.0884 28.2389V24.5039L24.7734 24.5049Z" fill="#BB1B1B"/>
</g>
<defs>
<clipPath id="clip0_2862_28501">
<rect width="84" height="80" fill="white"/>
</clipPath>
</defs>
</svg>
