<svg width="1134" height="1134" viewBox="0 0 1134 1134" fill="none" xmlns="http://www.w3.org/2000/svg">
<circle cx="567" cy="567" r="567" fill="#9F2D20"/>
<path d="M515.204 1047.97L502.505 1046.34L506.953 1011.57C507.075 1010.61 507.239 1009.43 507.449 1008.02C507.66 1006.61 507.885 1005.16 508.125 1003.68C508.375 1002.19 508.6 1000.85 508.809 999.65C508.46 999.965 507.775 1000.5 506.749 1001.25C505.719 1001.99 504.763 1002.66 503.883 1003.24L496.267 1007.91L491.119 999.476L512.447 986.537L522.895 987.877L515.204 1047.97Z" fill="white"/>
<path d="M542.041 1050.12L565.612 1000.7L535.743 1000.2L535.917 989.429L579.377 990.154L579.244 998.189L555.461 1050.34L542.041 1050.12Z" fill="white"/>
<path d="M630.711 1046.33L588.55 1050.3L587.711 1041.42L601.417 1024.7C604.177 1021.27 606.391 1018.43 608.044 1016.15C609.697 1013.87 610.87 1011.83 611.55 1010.01C612.217 1008.2 612.457 1006.3 612.284 1004.32C612.057 1001.93 611.217 1000.21 609.777 999.13C608.324 998.06 606.484 997.629 604.257 997.84C601.924 998.054 599.711 998.805 597.604 1000.09C595.497 1001.37 593.351 1003.11 591.137 1005.31L583.444 997.754C585.031 996.108 586.737 994.532 588.55 993.026C590.364 991.525 592.524 990.244 595.017 989.198C597.51 988.138 600.564 987.442 604.164 987.112C608.124 986.737 611.59 987.132 614.59 988.293C617.55 989.453 619.937 991.194 621.697 993.512C623.484 995.828 624.511 998.54 624.804 1001.65C625.111 1004.97 624.75 1008.08 623.684 1010.95C622.617 1013.83 620.95 1016.73 618.697 1019.66C616.43 1022.6 613.684 1025.86 610.43 1029.47L603.364 1037.5L603.417 1038.08L629.697 1035.61L630.711 1046.33Z" fill="white"/>
<path d="M659.684 1017.9L657.59 1007.84C657.39 1006.89 657.19 1005.76 656.95 1004.46C656.737 1003.15 656.51 1001.84 656.297 1000.54C656.07 999.22 655.897 998.054 655.764 997.024C655.617 995.993 655.51 995.273 655.457 994.862L655.137 994.932C654.844 996.148 654.524 997.334 654.177 998.494C653.83 999.65 653.39 1000.88 652.857 1002.17L645.404 1020.86L659.684 1017.9ZM681.097 1023.62L673.95 1025.1L676.497 1037.39L664.244 1039.93L661.697 1027.64L636.377 1032.88L634.577 1024.16L652.644 980.468L664.204 978.066L671.937 1015.36L679.071 1013.88L681.097 1023.62Z" fill="white"/>
<path d="M234.781 847.446C238.304 844.223 242.141 842.282 246.299 841.611C250.457 840.942 254.735 841.591 259.128 843.563C263.516 845.539 267.843 848.862 272.107 853.514C273.983 855.571 275.683 857.707 277.209 859.914C278.735 862.125 280.056 864.371 281.177 866.658C282.297 868.939 283.203 871.257 283.904 873.598L272.211 884.294C270.875 880.342 269.329 876.385 267.553 872.442C265.787 868.489 263.535 865.027 260.813 862.045C258.932 859.989 257.141 858.578 255.449 857.813C253.759 857.047 252.177 856.811 250.707 857.111C249.241 857.413 247.9 858.122 246.679 859.238C245.193 860.599 244.377 862.265 244.237 864.231C244.097 866.193 244.368 868.474 245.043 871.061C245.719 873.653 246.535 876.519 247.485 879.687C248.095 881.658 248.676 883.885 249.225 886.366C249.781 888.842 250.052 891.429 250.031 894.131C250.016 896.833 249.461 899.534 248.385 902.242C247.305 904.943 245.408 907.53 242.701 910.011C239.155 913.254 235.377 915.215 231.375 915.895C227.367 916.57 223.319 916.01 219.216 914.214C215.113 912.427 211.181 909.471 207.419 905.358C204.597 902.266 202.26 898.999 200.419 895.542C198.573 892.075 196.927 888.202 195.481 883.899L208.989 879.017C210.376 882.769 211.756 886.001 213.132 888.727C214.503 891.445 216.215 893.935 218.271 896.178C219.707 897.749 221.183 898.865 222.699 899.514C224.215 900.165 225.685 900.365 227.112 900.099C228.537 899.839 229.848 899.165 231.039 898.078C232.449 896.787 233.256 895.287 233.461 893.591C233.667 891.885 233.456 889.789 232.825 887.307C232.2 884.821 231.339 881.793 230.253 878.215C228.913 873.867 228.037 869.905 227.627 866.333C227.217 862.755 227.527 859.423 228.557 856.342C229.593 853.259 231.665 850.298 234.781 847.446Z" fill="white"/>
<path d="M213.448 799.045C212.443 797.509 211.301 796.117 210.035 794.862C208.769 793.616 207.433 792.42 206.023 791.285L216.449 784.4C218.116 785.461 219.901 786.952 221.813 788.873C223.72 790.804 225.54 793.085 227.281 795.717C229.299 798.78 230.619 801.856 231.229 804.948C231.84 808.036 231.375 811.097 229.828 814.114C228.283 817.136 225.305 820.104 220.892 823.01L196.136 839.346L200.564 846.056L194.636 849.968L184.859 845.345L171.351 848.452L165.436 839.496L176.368 832.281L166.883 817.906L177.399 810.962L186.891 825.341L211.652 809.001C213.608 807.705 214.704 806.184 214.928 804.433C215.159 802.672 214.664 800.881 213.448 799.045Z" fill="white"/>
<path d="M119.116 724.436L121.543 731.81L144.232 724.356L142.481 719.022C141.485 715.985 140.22 713.489 138.684 711.522C137.148 709.55 135.327 708.24 133.22 707.585C131.109 706.925 128.712 707.034 126.031 707.914C122.263 709.15 119.812 711.117 118.671 713.814C117.529 716.501 117.68 720.042 119.116 724.436ZM105.563 727.968C102.32 718.097 102.075 710.206 104.817 704.277C107.568 698.358 112.657 694.181 120.077 691.734C123.424 690.638 126.787 690.093 130.168 690.098C133.551 690.109 136.803 690.869 139.924 692.374C143.047 693.881 145.919 696.302 148.545 699.649C151.168 702.992 153.399 707.46 155.229 713.033L157.516 719.988L184.704 711.052L190.028 727.262L113.587 752.384L105.563 727.968Z" fill="white"/>
<path d="M114.614 633.406C115.028 636.649 116.415 639.2 118.762 641.057C121.112 642.922 124.526 643.728 129.008 643.482L125.991 620.118C123.524 620.473 121.378 621.204 119.556 622.309C117.74 623.42 116.38 624.89 115.464 626.728C114.558 628.558 114.274 630.79 114.614 633.406ZM102.78 635.053C102.051 629.414 102.506 624.41 104.147 620.057C105.783 615.705 108.515 612.153 112.336 609.396C116.164 606.649 121.043 604.893 126.972 604.117L135.052 603.077L140.14 642.428C144.808 641.642 148.31 639.756 150.642 636.773C152.979 633.786 153.839 629.949 153.234 625.256C152.734 621.358 151.872 617.852 150.652 614.714C149.431 611.577 147.8 608.4 145.759 605.188L158.638 603.526C160.524 606.349 162.019 609.366 163.135 612.568C164.256 615.774 165.116 619.722 165.722 624.416C166.518 630.534 166.087 636.088 164.436 641.097C162.79 646.094 159.828 650.237 155.555 653.505C151.278 656.781 145.634 658.868 138.61 659.773C131.479 660.7 125.38 660.258 120.318 658.448C115.254 656.646 111.256 653.73 108.31 649.708C105.367 645.685 103.522 640.796 102.78 635.053Z" fill="white"/>
<path d="M149.907 550.308C149.967 548.476 149.841 546.685 149.531 544.929C149.221 543.168 148.82 541.426 148.325 539.681L160.813 540.09C161.564 541.912 162.16 544.158 162.6 546.84C163.051 549.512 163.22 552.429 163.12 555.576C163 559.253 162.3 562.52 161.013 565.397C159.728 568.269 157.576 570.501 154.569 572.072C151.567 573.648 147.424 574.348 142.141 574.178L112.492 573.212L112.237 581.248L105.137 581.017L99.824 571.592L87 566.333L87.3507 555.61L100.439 556.03L101 538.81L113.597 539.22L113.037 556.441L142.687 557.397C145.033 557.472 146.804 556.861 148.005 555.561C149.2 554.26 149.836 552.504 149.907 550.308Z" fill="white"/>
<path d="M119.847 483.674C119.216 486.881 119.712 489.738 121.353 492.249C122.984 494.761 125.965 496.612 130.288 497.808L134.867 474.698C132.409 474.253 130.148 474.262 128.072 474.728C125.996 475.198 124.235 476.158 122.788 477.61C121.337 479.066 120.361 481.082 119.847 483.674ZM108.113 481.462C109.215 475.889 111.241 471.29 114.177 467.689C117.12 464.081 120.837 461.58 125.34 460.189C129.843 458.797 135.027 458.682 140.891 459.849L148.885 461.425L141.176 500.354C145.853 501.096 149.776 500.42 152.939 498.338C156.1 496.246 158.141 492.88 159.057 488.237C159.823 484.389 160.123 480.786 159.968 477.425C159.808 474.062 159.272 470.536 158.357 466.838L171.1 469.36C171.985 472.637 172.445 475.978 172.481 479.366C172.521 482.764 172.085 486.781 171.165 491.429C169.964 497.473 167.793 502.606 164.636 506.818C161.484 511.037 157.361 514.024 152.263 515.765C147.169 517.506 141.151 517.686 134.205 516.31C127.147 514.914 121.508 512.553 117.285 509.225C113.063 505.908 110.195 501.87 108.689 497.122C107.179 492.369 106.983 487.156 108.113 481.462Z" fill="white"/>
<path d="M135.712 390.598C136.012 389.813 136.403 388.908 136.883 387.892C137.368 386.876 137.804 386.076 138.184 385.47L152.457 392.234C152.088 392.685 151.688 393.36 151.243 394.276C150.797 395.186 150.447 395.986 150.187 396.672C149.421 398.693 148.936 400.754 148.725 402.856C148.52 404.953 148.705 406.978 149.28 408.925C149.861 410.866 150.917 412.628 152.457 414.213C153.995 415.8 156.12 417.101 158.832 418.126L188.116 429.218L182.168 444.918L124.629 423.125L129.133 411.232L139.685 412.582L139.98 411.808C138.453 409.941 137.197 407.845 136.207 405.528C135.221 403.212 134.651 400.78 134.501 398.228C134.347 395.681 134.751 393.14 135.712 390.598Z" fill="white"/>
<path d="M210.771 342.462C214.408 344.528 216.995 347.125 218.531 350.252C220.067 353.384 220.523 357.001 219.897 361.118C219.267 365.237 217.525 369.809 214.664 374.858C212.543 378.59 210.485 381.652 208.495 384.044C206.503 386.436 204.181 388.677 201.525 390.748L189.467 383.904C192.424 381.748 195.271 379.236 198.003 376.378C200.744 373.532 202.825 370.836 204.261 368.318C205.868 365.482 206.604 363.205 206.453 361.5C206.303 359.793 205.543 358.542 204.172 357.766C203.281 357.257 202.331 357.052 201.335 357.136C200.335 357.221 198.917 357.817 197.087 358.933C195.256 360.044 192.613 361.925 189.177 364.572C185.869 367.118 182.888 369.069 180.231 370.41C177.569 371.746 174.968 372.376 172.416 372.296C169.864 372.226 167.072 371.321 164.04 369.609C159.092 366.797 156.46 362.765 156.136 357.497C155.815 352.228 157.481 346.369 161.144 339.92C163.025 336.608 165.156 333.632 167.537 330.994C169.919 328.357 172.747 325.866 176.028 323.509L184.059 333.881C181.407 335.882 179.051 337.844 176.984 339.77C174.917 341.701 173.196 343.877 171.82 346.304C170.611 348.441 169.979 350.222 169.94 351.633C169.899 353.033 170.469 354.08 171.651 354.75C172.511 355.236 173.437 355.396 174.423 355.216C175.413 355.034 176.769 354.369 178.495 353.218C180.221 352.073 182.612 350.302 185.665 347.896C188.632 345.569 191.423 343.677 194.045 342.212C196.672 340.75 199.324 339.976 202.005 339.89C204.687 339.81 207.609 340.665 210.771 342.462Z" fill="white"/>
<path d="M219.482 279.49C217.611 281.751 216.59 283.929 216.42 286.03C216.25 288.126 216.846 290.253 218.211 292.409C219.567 294.561 221.654 296.847 224.46 299.269L225.856 300.425C230.464 304.246 234.547 306.487 238.114 307.154C241.682 307.823 244.948 306.367 247.926 302.781C250.127 300.123 250.647 296.997 249.491 293.39C248.331 289.787 245.439 286.065 240.806 282.222C236.172 278.385 232.026 276.283 228.372 275.923C224.715 275.563 221.754 276.749 219.482 279.49ZM183.783 265.551L199.119 278.27C200.9 279.741 202.626 281.251 204.292 282.802C205.963 284.358 207.219 285.599 208.064 286.539L208.484 286.03C207.564 283.173 207.314 280.106 207.724 276.814C208.13 273.537 209.751 270.185 212.587 266.773C216.986 261.454 222.634 258.871 229.528 259.007C236.418 259.147 243.872 262.539 251.898 269.189C257.291 273.657 261.19 278.179 263.58 282.733C265.972 287.29 266.958 291.703 266.538 295.981C266.122 300.254 264.406 304.197 261.415 307.814C258.532 311.286 255.64 313.513 252.734 314.489C249.827 315.463 247.084 315.929 244.499 315.885L243.763 316.774L247.186 323.259L239 333.13L173.072 278.474L183.783 265.551Z" fill="white"/>
<path d="M296.912 189.807L335.703 237.573L325.705 245.684L318.997 241.001L318.311 241.561C318.601 244.013 318.396 246.374 317.695 248.656C316.985 250.928 315.904 253.058 314.448 255.045C312.988 257.036 311.261 258.837 309.271 260.453C305.853 263.236 302.385 265.041 298.868 265.892C295.347 266.737 291.844 266.457 288.352 265.036C284.86 263.62 281.447 260.858 278.12 256.756L252.828 225.616L265.857 215.034L288.512 242.932C291.288 246.344 293.996 248.425 296.627 249.166C299.264 249.912 301.92 249.196 304.597 247.02C307.249 244.873 308.835 242.577 309.36 240.14C309.885 237.704 309.5 235.062 308.204 232.22C306.909 229.368 304.888 226.252 302.131 222.864L283.884 200.389L296.912 189.807Z" fill="white"/>
<path d="M357.836 151.977C358.572 151.568 359.453 151.132 360.473 150.666C361.5 150.196 362.345 149.866 363.029 149.652L369.58 164.021C369.009 164.125 368.264 164.385 367.338 164.801C366.408 165.212 365.621 165.597 364.987 165.952C363.091 166.997 361.393 168.264 359.879 169.734C358.372 171.21 357.207 172.876 356.391 174.728C355.58 176.593 355.255 178.625 355.411 180.821C355.566 183.028 356.351 185.394 357.756 187.926L372.992 215.289L358.323 223.449L328.392 169.689L339.5 163.51L346.695 171.345L347.415 170.94C347.46 168.524 347.851 166.117 348.591 163.71C349.327 161.298 350.463 159.077 351.988 157.03C353.514 154.98 355.46 153.298 357.836 151.977Z" fill="white"/>
<path d="M435.067 204.357C438.835 203.001 441.941 201.485 444.399 199.803C446.855 198.122 448.576 196.371 449.561 194.565C450.548 192.749 450.717 190.938 450.077 189.142C449.552 187.695 448.716 186.695 447.571 186.154C446.419 185.609 444.928 185.474 443.092 185.739C441.261 186.01 439.015 186.625 436.353 187.575L428.172 190.513C426.236 191.207 424.611 192.138 423.3 193.314C421.989 194.49 421.084 195.801 420.583 197.242C420.092 198.682 420.112 200.154 420.648 201.639C421.423 203.811 423.084 205.147 425.616 205.642C428.152 206.133 431.305 205.707 435.067 204.357ZM421.839 159.513C424.811 158.446 426.657 156.755 427.383 154.429C428.108 152.098 427.908 149.37 426.777 146.223C425.521 142.741 423.869 140.375 421.808 139.149C419.752 137.923 417.285 137.818 414.424 138.849C411.521 139.89 409.656 141.541 408.835 143.807C408.009 146.074 408.224 148.95 409.475 152.433C410.601 155.579 412.212 157.811 414.299 159.122C416.389 160.443 418.907 160.567 421.839 159.513ZM438.095 214.898C430.013 217.805 423.335 218.611 418.061 217.325C412.788 216.039 409.235 212.867 407.415 207.789C406.164 204.297 406.203 200.994 407.539 197.857C408.869 194.735 411.461 191.909 415.315 189.402C413.444 189.292 411.621 188.672 409.851 187.53C408.075 186.39 406.873 184.939 406.244 183.182C405.453 180.971 405.428 178.905 406.179 176.978C406.933 175.053 408.26 172.946 410.167 170.665C406.664 170.445 403.497 169.198 400.675 166.937C397.853 164.675 395.741 161.574 394.325 157.641C392.815 153.423 392.455 149.51 393.24 145.898C394.025 142.281 395.912 139.063 398.893 136.231C401.876 133.415 405.903 131.083 410.981 129.267C412.052 128.882 413.317 128.502 414.784 128.131C416.251 127.762 417.611 127.452 418.861 127.197C420.117 126.941 420.968 126.791 421.417 126.741L441.621 119.492L444.503 127.522L436.279 133.11C437.564 134.09 438.675 135.226 439.611 136.527C440.545 137.833 441.307 139.294 441.887 140.92C444.117 147.134 443.688 152.753 440.601 157.777C437.513 162.809 432.115 166.702 424.416 169.469C422.549 170.024 420.773 170.505 419.092 170.91C418.516 171.815 418.145 172.686 417.981 173.531C417.816 174.371 417.865 175.167 418.141 175.933C418.416 176.694 418.956 177.203 419.777 177.474C420.597 177.749 421.699 177.779 423.089 177.574C424.475 177.369 426.136 176.923 428.072 176.229L437.915 172.692C444.268 170.409 449.596 170.034 453.915 171.565C458.223 173.101 461.324 176.504 463.225 181.797C465.652 188.561 464.716 194.821 460.409 200.579C456.096 206.338 448.661 211.111 438.095 214.898Z" fill="white"/>
<path d="M567.444 140.49C567.777 145.247 566.937 149.461 564.881 153.143C562.835 156.826 559.679 159.778 555.411 162.009C551.139 164.23 545.855 165.571 539.56 166.031C536.779 166.237 534.046 166.251 531.369 166.077C528.688 165.906 526.106 165.551 523.62 165.015C521.133 164.475 518.756 163.759 516.485 162.859L515.329 147.054C519.257 148.455 523.32 149.691 527.517 150.742C531.715 151.797 535.828 152.178 539.851 151.882C542.632 151.677 544.849 151.151 546.495 150.291C548.145 149.435 549.307 148.345 549.981 147.003C550.657 145.669 550.933 144.177 550.812 142.531C550.668 140.515 549.861 138.849 548.407 137.518C546.945 136.187 544.993 134.991 542.543 133.921C540.091 132.85 537.329 131.703 534.261 130.493C532.331 129.753 530.224 128.827 527.937 127.726C525.647 126.626 523.449 125.235 521.339 123.543C519.227 121.862 517.445 119.757 515.995 117.23C514.544 114.707 513.678 111.615 513.413 107.958C513.062 103.166 513.863 98.9821 515.809 95.4208C517.756 91.8528 520.703 89.0208 524.651 86.9101C528.603 84.7981 533.356 83.5474 538.92 83.1381C543.086 82.8368 547.105 83.0274 550.963 83.7181C554.82 84.4127 558.883 85.5234 563.151 87.0554L558.633 100.683C554.825 99.4528 551.428 98.5328 548.436 97.9221C545.453 97.3114 542.443 97.1168 539.405 97.3422C537.279 97.4968 535.493 97.9675 534.041 98.7528C532.59 99.5382 531.525 100.574 530.849 101.854C530.169 103.141 529.889 104.582 530.004 106.193C530.144 108.094 530.82 109.654 532.03 110.87C533.241 112.091 535.012 113.228 537.353 114.264C539.694 115.309 542.603 116.514 546.089 117.875C550.328 119.517 553.98 121.287 557.041 123.174C560.104 125.07 562.525 127.371 564.307 130.093C566.087 132.819 567.124 136.282 567.444 140.49Z" fill="white"/>
<path d="M618.511 153.644C620.351 153.789 622.137 153.758 623.911 153.533C625.671 153.313 627.444 153.004 629.204 152.598L628.177 165.046C626.311 165.701 624.044 166.186 621.351 166.492C618.657 166.802 615.724 166.828 612.591 166.568C608.924 166.266 605.697 165.397 602.897 163.965C600.084 162.534 597.964 160.278 596.551 157.201C595.137 154.12 594.631 149.946 595.071 144.678L597.537 115.118L589.524 114.448L590.111 107.373L599.791 102.545L605.697 90.0024L616.391 90.893L615.311 103.952L632.471 105.372L631.431 117.936L614.257 116.509L611.804 146.069C611.617 148.41 612.124 150.212 613.364 151.472C614.604 152.733 616.324 153.458 618.511 153.644Z" fill="white"/>
<path d="M689.591 150.711L683.244 149.326C677.951 148.13 674.057 148.15 671.564 149.37C669.071 150.597 667.471 152.633 666.751 155.474C666.124 157.966 666.404 159.922 667.591 161.338C668.791 162.754 670.551 163.77 672.897 164.361C676.391 165.246 679.591 164.961 682.511 163.505C685.431 162.049 687.377 159.422 688.351 155.614L689.591 150.711ZM689.377 115.283C697.377 117.31 703.071 120.611 706.457 125.175C709.844 129.743 710.631 135.586 708.831 142.697L698.751 182.442L687.391 179.555L686.297 170.654L685.871 170.545C683.617 172.25 681.431 173.546 679.311 174.447C677.191 175.347 674.897 175.823 672.417 175.878C669.951 175.933 667.057 175.538 663.751 174.702C660.231 173.806 657.244 172.33 654.791 170.269C652.337 168.213 650.671 165.586 649.777 162.383C648.897 159.187 648.991 155.439 650.084 151.131C651.684 144.807 655.084 140.705 660.297 138.823C665.511 136.942 672.591 136.973 681.564 138.909L692.004 141.215L692.671 138.603C693.457 135.471 693.217 132.97 691.951 131.094C690.684 129.218 688.604 127.922 685.684 127.177C682.804 126.446 679.871 126.135 676.884 126.255C673.911 126.366 670.871 126.691 667.777 127.237L665.177 114.883C668.764 114.013 672.657 113.593 676.831 113.633C681.004 113.667 685.177 114.218 689.377 115.283Z" fill="white"/>
<path d="M752.324 191.083C754.004 191.823 755.711 192.378 757.457 192.743C759.204 193.114 760.977 193.389 762.777 193.579L757.751 205.017C755.777 205.027 753.471 204.746 750.817 204.157C748.164 203.576 745.391 202.65 742.511 201.379C739.151 199.903 736.377 198.033 734.191 195.766C731.991 193.499 730.737 190.678 730.391 187.305C730.057 183.929 730.951 179.821 733.071 174.988L745.017 147.834L737.671 144.598L740.524 138.098L751.244 136.682L760.911 126.741L770.737 131.064L765.457 143.051L781.231 149.992L776.151 161.529L760.391 154.589L748.444 181.742C747.497 183.889 747.404 185.769 748.164 187.365C748.924 188.966 750.311 190.202 752.324 191.083Z" fill="white"/>
<path d="M825.377 188.066C822.644 186.285 819.804 185.685 816.857 186.26C813.924 186.845 811.084 188.917 808.364 192.489L828.111 205.348C829.444 203.236 830.271 201.129 830.617 199.033C830.951 196.926 830.711 194.941 829.911 193.049C829.097 191.168 827.591 189.508 825.377 188.066ZM831.804 178C836.564 181.101 840.071 184.689 842.324 188.761C844.577 192.829 845.511 197.217 845.124 201.916C844.737 206.608 842.911 211.461 839.644 216.474L835.204 223.3L801.951 201.634C799.524 205.708 798.684 209.596 799.444 213.302C800.191 217.016 802.551 220.162 806.524 222.749C809.817 224.89 813.044 226.512 816.217 227.617C819.404 228.728 822.871 229.544 826.644 230.078L819.551 240.956C816.177 240.556 812.911 239.74 809.751 238.509C806.591 237.288 803.017 235.377 799.057 232.79C793.897 229.433 789.937 225.501 787.204 220.997C784.457 216.494 783.231 211.561 783.524 206.182C783.804 200.809 785.871 195.15 789.737 189.217C793.671 183.193 797.964 178.845 802.617 176.158C807.271 173.481 812.097 172.326 817.057 172.701C822.031 173.066 826.951 174.833 831.804 178Z" fill="white"/>
<path d="M972.097 286.165L932.057 319.437C927.79 322.979 923.164 325.235 918.177 326.206C913.19 327.182 908.11 326.601 902.964 324.47C897.804 322.343 892.83 318.395 888.044 312.637C881.244 304.457 878.15 296.482 878.764 288.722C879.377 280.966 883.124 274.222 890.017 268.503L929.884 235.366L940.75 248.45L902.87 279.931C897.764 284.174 895.044 288.195 894.724 291.994C894.39 295.795 895.937 299.738 899.337 303.837C901.724 306.709 904.164 308.634 906.644 309.61C909.11 310.575 911.737 310.631 914.497 309.77C917.257 308.905 920.244 307.143 923.43 304.491L961.23 273.086L972.097 286.165Z" fill="white"/>
<path d="M996.378 362.3C999.404 368.124 1000.26 373.637 998.924 378.836C997.604 384.029 993.431 388.452 986.431 392.089L950.844 410.596L943.098 395.706L974.991 379.126C978.884 377.094 981.458 374.858 982.711 372.406C983.964 369.96 983.804 367.222 982.231 364.196C979.858 359.638 976.698 357.332 972.738 357.281C968.791 357.232 963.898 358.712 958.071 361.745L932.378 375.098L924.631 360.204L979.231 331.825L985.151 343.202L979.204 348.83L979.644 349.661C982.124 349.857 984.418 350.517 986.498 351.642C988.578 352.778 990.444 354.265 992.111 356.116C993.778 357.952 995.191 360.018 996.378 362.3Z" fill="white"/>
<path d="M1043.7 416.53C1044.48 418.886 1044.63 421.108 1044.11 423.18C1043.58 425.25 1041.82 426.792 1038.83 427.797C1035.87 428.788 1033.54 428.622 1031.84 427.297C1030.14 425.972 1028.88 424.125 1028.1 421.758C1027.3 419.362 1027.18 417.125 1027.74 415.06C1028.3 412.993 1030.07 411.466 1033.02 410.472C1036 409.465 1038.34 409.625 1040 410.946C1041.66 412.268 1042.9 414.124 1043.7 416.53ZM1023.51 432.125L965.177 451.698L959.831 435.777L1018.16 416.205L1023.51 432.125Z" fill="white"/>
<path d="M975.591 492.18L1031.94 458.108L1035.08 475.383L1002.71 493.35C1000.82 494.366 998.778 495.272 996.604 496.057C994.431 496.837 992.484 497.462 990.738 497.928L990.818 498.358C992.751 498.124 994.831 498.018 997.084 498.038C999.324 498.053 1001.51 498.228 1003.66 498.544L1040.27 503.917L1043.4 521.193L978.671 509.13L975.591 492.18Z" fill="white"/>
<path d="M1034.56 575.594C1034.56 572.326 1033.51 569.62 1031.42 567.473C1029.32 565.332 1026.03 564.101 1021.56 563.772L1021.59 587.326C1024.07 587.286 1026.3 586.836 1028.24 585.97C1030.19 585.105 1031.72 583.824 1032.86 582.113C1033.99 580.406 1034.56 578.236 1034.56 575.594ZM1046.5 575.474C1046.51 581.157 1045.42 586.056 1043.24 590.168C1041.06 594.281 1037.9 597.453 1033.75 599.7C1029.6 601.941 1024.55 603.066 1018.56 603.072L1010.42 603.077L1010.39 563.396C1005.66 563.586 1001.95 565.006 999.244 567.669C996.55 570.33 995.204 574.022 995.217 578.766C995.217 582.689 995.617 586.281 996.43 589.548C997.244 592.81 998.457 596.172 1000.07 599.614L987.084 599.625C985.577 596.582 984.47 593.396 983.777 590.084C983.07 586.756 982.724 582.733 982.724 578.001C982.71 571.841 983.844 566.382 986.11 561.62C988.39 556.872 991.857 553.144 996.51 550.448C1001.16 547.741 1007.04 546.39 1014.12 546.385C1021.31 546.38 1027.3 547.59 1032.1 550.028C1036.88 552.464 1040.47 555.866 1042.88 560.229C1045.28 564.592 1046.5 569.674 1046.5 575.474Z" fill="white"/>
<path d="M1037.27 669.895C1037.12 670.73 1036.92 671.691 1036.64 672.777C1036.38 673.862 1036.11 674.743 1035.84 675.409L1020.52 671.586C1020.8 671.075 1021.07 670.325 1021.31 669.345C1021.58 668.363 1021.76 667.514 1021.88 666.793C1022.23 664.651 1022.31 662.535 1022.1 660.439C1021.88 658.337 1021.31 656.391 1020.36 654.599C1019.4 652.809 1018.03 651.283 1016.2 650.031C1014.39 648.781 1012.04 647.926 1009.18 647.45L978.297 642.331L981.044 625.771L1041.74 635.827L1039.66 648.366L1029.04 649.117L1028.91 649.937C1030.78 651.473 1032.42 653.279 1033.84 655.35C1035.26 657.431 1036.31 659.703 1036.95 662.175C1037.6 664.646 1037.71 667.218 1037.27 669.895Z" fill="white"/>
<path d="M973.151 731.735C969.177 730.425 966.137 728.389 964.017 725.621C961.884 722.854 960.737 719.393 960.551 715.23C960.351 711.071 961.164 706.238 962.977 700.735C964.324 696.657 965.737 693.255 967.217 690.514C968.711 687.782 970.551 685.13 972.737 682.569L985.911 686.917C983.431 689.613 981.137 692.634 979.017 695.971C976.884 699.309 975.377 702.351 974.457 705.107C973.444 708.205 973.164 710.582 973.644 712.222C974.124 713.869 975.124 714.939 976.617 715.434C977.591 715.755 978.564 715.779 979.524 715.494C980.484 715.21 981.764 714.349 983.337 712.898C984.911 711.453 987.137 709.09 989.991 705.823C992.724 702.666 995.271 700.17 997.617 698.338C999.964 696.502 1002.39 695.377 1004.91 694.951C1007.43 694.526 1010.34 694.861 1013.64 695.951C1019.04 697.738 1022.42 701.17 1023.78 706.274C1025.12 711.371 1024.63 717.451 1022.31 724.481C1021.12 728.107 1019.62 731.445 1017.79 734.497C1015.98 737.543 1013.68 740.546 1010.94 743.503L1001.03 734.907C1003.24 732.426 1005.16 730.045 1006.8 727.742C1008.46 725.441 1009.71 722.974 1010.59 720.327C1011.36 717.997 1011.62 716.125 1011.39 714.739C1011.15 713.343 1010.39 712.438 1009.1 712.007C1008.16 711.702 1007.23 711.733 1006.28 712.098C1005.36 712.467 1004.16 713.378 1002.68 714.849C1001.22 716.321 999.217 718.522 996.697 721.483C994.257 724.346 991.884 726.751 989.604 728.698C987.311 730.65 984.857 731.925 982.244 732.535C979.644 733.141 976.604 732.871 973.151 731.735Z" fill="white"/>
<path d="M1019.54 791.88C1018.44 794.121 1016.99 795.797 1015.16 796.913C1013.34 798.018 1011 797.884 1008.16 796.502C1005.36 795.132 1003.82 793.386 1003.54 791.249C1003.24 789.108 1003.66 786.917 1004.74 784.676C1005.86 782.398 1007.34 780.722 1009.18 779.642C1011.03 778.561 1013.36 778.712 1016.16 780.077C1019 781.453 1020.55 783.2 1020.8 785.305C1021.07 787.412 1020.64 789.604 1019.54 791.88ZM994.204 788.848L938.884 761.916L946.23 746.821L1001.55 773.758L994.204 788.848Z" fill="white"/>
<path d="M921.791 814.525C920.777 816.061 919.964 817.652 919.311 819.317C918.671 820.974 918.097 822.68 917.617 824.421L907.164 817.586C907.471 815.645 908.124 813.409 909.138 810.888C910.151 808.376 911.511 805.794 913.244 803.157C915.244 800.08 917.538 797.653 920.138 795.862C922.724 794.072 925.724 793.286 929.111 793.501C932.497 793.716 936.391 795.272 940.817 798.158L965.657 814.389L970.057 807.66L975.991 811.537L975.644 822.345L983.871 833.506L977.991 842.493L967.031 835.328L957.604 849.748L947.057 842.858L956.471 828.438L931.644 812.213C929.671 810.928 927.844 810.532 926.138 811.022C924.444 811.513 922.991 812.678 921.791 814.525Z" fill="white"/>
<path d="M943.964 868.934L931.59 882.534L898.177 867.839C897.11 867.369 896.07 866.843 895.057 866.267C894.044 865.693 893.03 865.067 892.004 864.386C890.99 863.711 889.95 862.961 888.897 862.165L888.684 862.401C890.004 863.897 891.164 865.373 892.177 866.818C893.19 868.259 894.137 869.77 894.99 871.337L912.937 903.057L900.83 916.37L867.004 850.422C864.91 846.385 863.67 842.482 863.27 838.695C862.87 834.907 863.23 831.321 864.39 827.927C865.537 824.541 867.43 821.389 870.07 818.487C871.364 817.071 872.55 815.915 873.63 815.025C874.724 814.129 875.684 813.383 876.51 812.798L886.364 821.763C885.71 822.209 884.924 822.819 884.03 823.59C883.137 824.355 882.257 825.217 881.39 826.167C879.804 827.903 878.817 829.729 878.417 831.646C878.017 833.562 878.044 835.503 878.51 837.465C878.99 839.43 879.737 841.327 880.75 843.147L882.324 845.91L943.964 868.934Z" fill="white"/>
<path d="M511.028 332.798C511.232 333.298 511.437 333.776 511.64 334.204C515.292 341.969 521.976 349.478 521.976 349.478C521.976 349.478 522.051 349.425 522.097 349.39L522.115 349.41C522.115 349.41 523.077 348.684 525.028 347.58C525.688 347.206 526.457 346.792 527.344 346.346C529.46 345.29 532.203 344.076 535.611 342.872C543.665 340.024 554.381 339.129 554.381 339.129C554.381 339.129 544.397 325.24 542.517 305.174C541.451 293.805 541.891 287.836 542.016 287.494C541.341 287.452 540.671 287.392 539.984 287.392C532.404 287.392 525.451 290.045 519.972 294.456C519.835 294.562 519.696 294.668 519.563 294.776C512.519 300.637 508.029 309.466 508.029 319.348C508.029 322.102 508.415 324.76 509.069 327.31C509.588 328.934 510.303 331.026 511.028 332.798Z" fill="white"/>
<path d="M703.351 430.13C706.617 435.318 706.457 441.809 706.457 441.809C706.511 441.822 713.071 442.952 716.311 446.192C716.311 446.192 716.804 445.692 716.884 445.601C721.311 440.148 729.471 431.218 731.831 418.252C733.737 407.693 732.497 392.898 730.271 388.17C730.191 388 730.124 387.742 730.044 387.598C732.151 385.142 735.644 379.454 745.324 379.454C748.871 379.454 752.031 380.429 754.604 381.649C758.857 383.693 761.457 386.385 761.457 386.385C761.457 386.385 753.124 401.233 748.751 408.305C746.524 411.922 744.897 414.736 740.404 424.637C736.671 432.885 735.657 438.358 736.297 444.266C736.844 449.23 739.484 458.717 740.617 468.249C742.804 486.525 739.191 495.452 739.191 495.452C739.191 495.452 739.284 495.39 739.417 495.304C739.391 495.377 739.337 495.52 739.337 495.52C739.337 495.52 761.004 481.213 774.697 449.262C774.644 449.252 774.604 449.234 774.551 449.224C774.551 449.224 774.551 449.204 774.564 449.194C772.017 448.729 769.991 448.026 768.177 447.125C766.364 446.21 764.764 445.096 763.071 443.801C750.951 434.536 753.684 424.68 757.631 420.04C758.751 418.718 759.911 417.44 761.111 416.156C764.164 412.902 767.457 409.624 770.924 405.589C775.297 400.492 776.884 395.396 777.431 390.893C777.631 389.348 777.844 387.794 777.844 386.189C777.844 372.75 771.324 363.598 763.017 359.017C760.257 357.476 757.311 356.44 754.324 355.924C745.031 354.32 733.657 357.813 725.351 363.472C722.191 365.625 716.964 370.417 715.511 374.021C713.684 383.081 716.391 385.38 719.137 394.745C719.191 394.932 719.311 395.076 719.364 395.269C725.057 416.092 722.137 426.169 703.351 430.13Z" fill="white"/>
<path d="M610.351 411.53C612.791 416.728 617.271 421.753 617.271 421.753C617.271 421.753 617.311 421.726 617.311 421.718C617.337 421.749 617.977 422.388 617.977 422.388C617.977 422.388 620.417 420.24 626.871 417.736C632.204 415.665 639.004 414.94 639.004 414.94C639.004 414.94 632.324 405.644 631.057 392.213C630.337 384.436 630.657 380.406 630.737 380.344C630.684 380.334 630.631 380.34 630.577 380.332L630.591 380.276C627.191 379.702 623.671 380.366 620.431 381.9C618.204 383.142 616.231 384.51 614.577 385.988C611.684 388.556 609.751 391.436 609.004 394.513C607.831 397.796 607.404 401.42 608.111 405.17C608.164 405.494 609.337 409.368 610.351 411.53Z" fill="white"/>
<path d="M640.004 397.769C642.897 405.821 647.684 412.58 651.391 413.996C651.951 414.23 652.497 414.378 653.004 414.378C656.831 413.926 661.884 406.218 664.337 396.786C666.631 387.964 665.071 380.577 661.204 377.45C660.324 376.788 659.364 376.224 658.337 375.772C658.177 375.697 657.991 375.668 657.817 375.598C659.751 373.889 661.044 371.438 661.044 368.673C661.044 364.391 658.217 360.905 654.351 359.789V356.026H660.764V350.861H654.351V342.686H649.151V350.861H642.724V356.026H649.151V359.789C645.284 360.905 642.497 364.391 642.497 368.673C642.497 371.406 643.711 373.832 645.617 375.541C644.057 376.216 642.644 377.12 641.417 378.222C637.831 381.672 636.937 389.166 640.004 397.769Z" fill="white"/>
<path d="M666.111 414.221C666.111 414.221 677.498 414.306 688.884 418.75C689.084 418.83 689.231 418.94 689.418 419.03C690.938 417.086 693.151 414.024 694.631 410.88C695.644 408.717 696.804 404.844 696.871 404.52C697.578 400.769 697.151 397.145 695.964 393.861C695.217 390.785 693.284 387.904 690.404 385.336C688.751 383.858 686.778 382.492 684.538 381.249C684.511 381.236 684.484 381.229 684.457 381.217C684.444 381.205 684.418 381.192 684.404 381.181C681.164 379.648 677.644 378.984 674.244 379.557C674.324 379.62 674.644 383.648 673.911 391.426C672.658 404.857 665.978 414.153 665.978 414.153C665.978 414.153 666.084 414.162 666.151 414.168L666.111 414.221Z" fill="white"/>
<path d="M591.884 339.129C591.884 339.129 602.604 340.024 610.657 342.872C614.057 344.076 616.804 345.29 618.924 346.346C619.804 346.792 620.577 347.206 621.23 347.58C623.19 348.684 624.15 349.41 624.15 349.41L624.164 349.39C624.217 349.425 624.284 349.478 624.284 349.478C624.284 349.478 630.977 341.969 634.63 334.204C634.83 333.776 635.03 333.298 635.23 332.798C635.964 331.026 636.67 328.934 637.19 327.31C637.844 324.76 638.23 322.102 638.23 319.348C638.23 309.466 633.75 300.637 626.697 294.776C626.564 294.668 626.43 294.562 626.297 294.456C620.817 290.045 613.857 287.392 606.284 287.392C605.59 287.392 604.924 287.452 604.244 287.494C604.377 287.836 604.817 293.805 603.75 305.174C601.87 325.24 591.884 339.129 591.884 339.129Z" fill="white"/>
<path d="M598.964 369.986C598.964 369.986 600.204 376.246 600.964 379.052C601.004 379.041 601.737 379.088 601.737 379.121C606.497 377.206 615.844 374.41 615.844 371.283V363.362V361.294C615.844 359.483 614.017 357.781 610.791 356.296C604.191 353.217 591.831 351.085 577.791 350.822L569.644 350.8C555.144 350.954 542.133 353.126 535.348 356.296C532.113 357.781 530.228 359.483 530.228 361.294V363.362V371.283C530.228 374.41 539.672 377.206 544.436 379.121C544.436 379.088 545.199 379.041 545.244 379.052C545.997 376.246 547.276 369.986 547.276 369.986C547.276 369.986 546.253 369.573 546.06 369.155C545.479 367.902 546.537 367.181 548.301 366.19C550.059 365.229 552.96 364.654 555.424 364.557C556.923 370.045 557.139 378.647 556.817 386.03C556.169 400.847 553.365 419.445 544.589 432.098C547.931 435.334 551.608 439.539 555.383 444.93C564.483 427.471 565.919 408.376 566.68 388.704C567.017 380.041 566.669 369.902 566.681 362.969C567.524 362.956 570.351 362.617 573.151 362.617C575.951 362.617 578.737 362.956 579.577 362.969C579.591 369.902 579.244 380.041 579.577 388.704C580.364 408.726 581.791 428.162 591.337 445.873C594.804 440.814 598.191 436.741 601.337 433.527C601.564 433.215 601.751 432.922 601.991 432.606C592.937 419.946 590.097 401.038 589.444 386.03C589.124 378.647 589.337 370.045 590.831 364.557C593.297 364.654 596.204 365.229 597.951 366.19C599.724 367.181 600.777 367.902 600.191 369.155C599.991 369.573 598.964 369.986 598.964 369.986Z" fill="white"/>
<path d="M721.671 509.828C721.631 509.816 721.591 509.769 721.551 509.761C721.404 509.737 721.271 509.702 721.124 509.716L720.897 509.734C720.364 509.781 719.884 509.834 719.404 509.886C714.191 510.208 709.137 509.818 704.951 508.184C702.577 507.404 700.537 506.066 698.551 504.661C698.097 504.281 692.791 499.6 691.844 498.712C688.004 495.122 680.764 489.86 673.257 489.117C664.817 488.28 659.431 491.37 653.364 493.758C652.804 493.988 652.364 494.534 652.324 495.184C652.284 495.892 652.697 496.513 653.311 496.782C653.524 496.9 653.751 496.984 654.004 497C660.004 497.43 665.711 498.452 671.124 500.045C675.151 501.258 679.137 502.553 682.284 504.796C686.444 507.746 690.017 511.494 692.404 513.006C695.497 514.966 698.231 516.86 701.777 517.569C705.511 518.201 709.391 517.944 713.031 516.996C713.204 516.953 713.351 516.897 713.511 516.853C714.484 516.614 715.404 516.248 716.337 515.898C717.604 515.394 718.831 514.828 719.977 514.157C720.017 514.129 720.071 514.1 720.111 514.072C720.857 513.634 721.644 513.274 722.337 512.758C722.351 512.742 722.377 512.734 722.404 512.718C722.831 512.388 723.097 511.845 723.044 511.264C722.977 510.51 722.391 509.952 721.684 509.829C721.684 509.829 721.671 509.829 721.671 509.828Z" fill="white"/>
<path d="M698.47 454.026C698.857 455.225 700.124 456.493 701.55 457.326C706.07 459.948 707.67 463.793 700.924 464.592C695.99 465.176 690.857 461.894 672.657 466.892C661.977 469.822 649.404 480.598 645.03 485.562C643.684 487.098 642.284 488.878 640.99 490.754C636.764 496.852 636.804 505.057 641.377 510.902C644.097 514.384 647.124 516.644 648.017 517.245C663.99 528.068 678.99 519.102 680.63 517.468C681.937 516.161 682.017 515.64 681.764 515.301C681.737 515.261 681.684 515.27 681.657 515.238C681.644 515.244 681.63 515.246 681.63 515.252C681.617 515.248 681.63 515.237 681.63 515.233C681.59 515.193 676.55 517.914 669.457 517.914C665.444 517.914 661.337 517.209 657.924 515.677C655.417 514.536 649.63 511.448 646.23 505.988C644.017 502.449 644.484 497.882 647.15 494.678C649.83 491.461 653.084 488.426 656.124 486.185C662.99 481.141 670.857 478.097 679.99 477.957C680.217 477.953 680.43 477.929 680.657 477.929C685.257 477.929 689.644 478.729 693.79 480.088C695.87 480.773 697.897 481.62 699.83 482.604C705.684 485.606 710.764 489.91 714.644 495.177C714.644 495.161 714.657 495.137 714.67 495.12C714.697 495.165 714.75 495.201 714.777 495.245C716.27 492.704 717.95 488.892 719.377 483.554C719.63 482.613 719.884 481.656 720.11 480.62C722.137 471.668 721.55 450.882 701.79 450.882C701.417 450.882 701.057 451.045 700.697 451.129C698.59 451.694 698.084 452.826 698.47 454.026Z" fill="white"/>
<path d="M373.62 405.589C377.083 409.624 380.373 412.902 383.421 416.156C384.624 417.44 385.788 418.718 386.911 420.04C390.856 424.68 393.584 434.536 381.461 443.801C379.768 445.096 378.168 446.21 376.363 447.125C374.551 448.026 372.527 448.729 369.98 449.194C369.984 449.204 369.993 449.224 369.993 449.224C369.937 449.234 369.897 449.252 369.84 449.262C383.536 481.213 405.203 495.52 405.203 495.52C405.203 495.52 405.152 495.377 405.125 495.304C405.251 495.39 405.34 495.452 405.34 495.452C405.34 495.452 401.736 486.525 403.92 468.249C405.059 458.717 407.691 449.23 408.235 444.266C408.883 438.358 407.873 432.885 404.133 424.637C399.644 414.736 398.016 411.922 395.781 408.305C391.416 401.233 383.08 386.385 383.08 386.385C383.08 386.385 385.684 383.693 389.931 381.649C392.504 380.429 395.665 379.454 399.216 379.454C408.891 379.454 412.385 385.142 414.5 387.598C414.417 387.742 414.345 388 414.265 388.17C412.036 392.898 410.797 407.693 412.713 418.252C415.065 431.218 423.224 440.148 427.653 445.601C427.727 445.692 428.232 446.192 428.232 446.192C431.472 442.952 438.028 441.822 438.075 441.809C438.075 441.809 437.913 435.318 441.187 430.13C422.4 426.169 419.476 416.092 425.173 395.269C425.225 395.076 425.343 394.932 425.397 394.745C428.148 385.38 430.852 383.081 429.032 374.021C427.575 370.417 422.349 365.625 419.188 363.472C410.88 357.813 399.508 354.32 390.217 355.924C387.231 356.44 384.276 357.476 381.517 359.017C373.211 363.598 366.693 372.75 366.693 386.189C366.693 387.794 366.912 389.348 367.101 390.893C367.656 395.396 369.245 400.492 373.62 405.589Z" fill="white"/>
<path d="M505.535 414.94C505.535 414.94 512.339 415.665 517.669 417.736C524.116 420.24 526.565 422.388 526.565 422.388C526.565 422.388 527.195 421.749 527.223 421.718C527.233 421.726 527.271 421.753 527.271 421.753C527.271 421.753 531.745 416.728 534.189 411.53C535.207 409.368 536.368 405.494 536.428 405.17C537.131 401.42 536.712 397.796 535.528 394.513C534.78 391.436 532.847 388.556 529.965 385.988C528.308 384.51 526.337 383.142 524.103 381.9C520.867 380.366 517.349 379.702 513.944 380.276L513.953 380.332C513.905 380.34 513.855 380.334 513.805 380.344C513.88 380.406 514.205 384.436 513.476 392.213C512.217 405.644 505.535 414.94 505.535 414.94Z" fill="white"/>
<path d="M491.528 414.378H491.532C492.041 414.378 492.586 414.23 493.153 413.996C496.853 412.58 501.636 405.821 504.529 397.769C507.605 389.166 506.707 381.672 503.115 378.222C501.871 377.105 500.382 376.278 498.796 375.613C500.728 373.902 502.033 371.446 502.033 368.673C502.033 364.391 499.215 360.905 495.343 359.789V356.026H501.75V350.861H495.343V342.686H490.136V350.861H483.72V356.026H490.136V359.789C486.277 360.905 483.494 364.391 483.494 368.673C483.494 371.443 484.729 373.898 486.685 375.609C486.529 375.674 486.353 375.702 486.2 375.772C485.176 376.224 484.211 376.788 483.327 377.45C479.465 380.577 477.908 387.964 480.2 396.786C482.648 406.218 487.709 413.926 491.528 414.378Z" fill="white"/>
<path d="M449.908 410.88C451.388 414.024 453.599 417.086 455.123 419.03C455.309 418.94 455.451 418.83 455.655 418.75C467.033 414.306 478.423 414.221 478.423 414.221L478.388 414.168C478.452 414.162 478.561 414.153 478.561 414.153C478.561 414.153 471.88 404.857 470.621 391.426C469.892 383.648 470.217 379.62 470.292 379.557C466.887 378.984 463.368 379.648 460.135 381.181C460.113 381.192 460.097 381.205 460.076 381.217C460.051 381.229 460.023 381.236 459.996 381.249C457.759 382.492 455.789 383.858 454.132 385.336C451.251 387.904 449.317 390.785 448.569 393.861C447.385 397.145 446.967 400.769 447.669 404.52C447.729 404.844 448.891 408.717 449.908 410.88Z" fill="white"/>
<path d="M490.532 497C490.788 496.984 491.019 496.9 491.227 496.782C491.841 496.513 492.256 495.892 492.216 495.184C492.173 494.534 491.737 493.988 491.173 493.758C485.112 491.37 479.723 488.28 471.273 489.117C463.779 489.86 456.529 495.122 452.695 498.712C451.745 499.6 446.443 504.281 445.981 504.661C444 506.066 441.956 507.404 439.587 508.184C435.403 509.818 430.344 510.208 425.137 509.886C424.651 509.834 424.168 509.781 423.644 509.734L423.411 509.716C423.265 509.702 423.131 509.737 422.993 509.761C422.944 509.769 422.913 509.816 422.864 509.828C422.861 509.829 422.859 509.829 422.855 509.829C422.141 509.952 421.561 510.51 421.499 511.264C421.443 511.845 421.703 512.388 422.136 512.718C422.157 512.734 422.183 512.742 422.203 512.758C422.895 513.274 423.68 513.634 424.421 514.072C424.469 514.1 424.516 514.129 424.563 514.157C425.707 514.828 426.935 515.394 428.2 515.898C429.128 516.248 430.049 516.614 431.021 516.853C431.183 516.897 431.34 516.953 431.503 516.996C435.14 517.944 439.021 518.201 442.753 517.569C446.3 516.86 449.041 514.966 452.135 513.006C454.519 511.494 458.099 507.746 462.248 504.796C465.4 502.553 469.389 501.258 473.408 500.045C478.825 498.452 484.537 497.43 490.532 497Z" fill="white"/>
<path d="M424.421 480.62C424.655 481.656 424.904 482.613 425.156 483.554C426.585 488.892 428.267 492.704 429.76 495.245C429.793 495.201 429.835 495.165 429.868 495.12C429.879 495.137 429.889 495.161 429.899 495.177C433.776 489.91 438.851 485.606 444.709 482.604C446.644 481.62 448.661 480.773 450.751 480.088C454.892 478.729 459.287 477.929 463.885 477.929C464.105 477.929 464.32 477.953 464.54 477.957C473.673 478.097 481.547 481.141 488.408 486.185C491.455 488.426 494.704 491.461 497.387 494.678C500.057 497.882 500.519 502.449 498.311 505.988C494.907 511.448 489.123 514.536 486.62 515.677C483.207 517.209 479.093 517.914 475.077 517.914C467.987 517.914 462.94 515.193 462.911 515.233C462.908 515.237 462.916 515.248 462.913 515.252C462.903 515.246 462.892 515.244 462.883 515.238C462.849 515.27 462.801 515.261 462.771 515.301C462.517 515.64 462.603 516.161 463.909 517.468C465.544 519.102 480.541 528.068 496.521 517.245C497.408 516.644 500.444 514.384 503.161 510.902C507.727 505.057 507.772 496.852 503.549 490.754C502.249 488.878 500.859 487.098 499.504 485.562C495.133 480.598 482.556 469.822 471.877 466.892C453.677 461.894 448.544 465.176 443.619 464.592C436.861 463.793 438.464 459.948 442.984 457.326C444.417 456.493 445.685 455.225 446.068 454.026C446.452 452.826 445.951 451.694 443.844 451.129C443.481 451.045 443.115 450.882 442.751 450.882C422.987 450.882 422.396 471.668 424.421 480.62Z" fill="white"/>
<path d="M664.884 785.507L664.924 785.726C664.964 785.719 665.004 785.729 665.03 785.725C664.977 785.649 664.95 785.582 664.884 785.507Z" fill="white"/>
<path d="M583.497 584.009C584.164 585.321 586.75 587.403 587.31 591.421C587.364 591.85 597.271 580.913 597.271 580.913V570.395L586.697 574.855L583.497 584.009Z" fill="white"/>
<path d="M518.932 859.834C523.727 858.555 528.081 857.081 532.72 855.303C535.006 854.409 537.307 853.41 539.581 852.249C541.884 851.081 544.161 849.751 546.376 848.189C548.561 846.662 550.581 844.733 552.306 842.555C553.185 841.477 553.889 840.286 554.516 839.011C554.813 838.342 555.144 837.643 555.361 837.021L555.79 835.289L555.809 835.229C556.121 833.978 555.361 832.709 554.111 832.397C553.625 832.274 553.151 832.341 552.716 832.509C552.297 832.641 551.917 832.878 551.633 833.213C550.184 834.911 548.633 836.085 546.961 836.989C545.312 837.863 543.549 838.487 541.649 839.081C537.788 840.202 533.541 840.787 529.197 841.346C524.908 841.895 520.248 842.374 515.992 842.793C511.721 843.178 507.372 843.393 502.957 843.551L489.286 843.998C484.537 844.249 479.592 844.495 473.917 845.802C471.766 846.321 469.436 846.967 467.052 848.094C466.25 848.467 465.443 848.891 464.633 849.387C461.531 851.322 458.428 854.471 456.906 858.131C455.31 861.774 455.125 865.417 455.749 868.486C456.46 871.585 457.721 874.255 459.94 876.571C460.829 877.497 462.161 877.706 463.278 877.233C463.658 877.094 464.633 876.253 464.633 876.253C468.569 869.889 477.001 866.477 478.644 866.082C485.455 864.495 495.19 864.067 504.562 862.686C509.326 861.993 514.127 861.095 518.932 859.834Z" fill="white"/>
<path d="M476.053 833.51C475.965 834.772 476.918 835.856 478.179 835.944C478.71 835.977 479.207 835.833 479.612 835.553L479.687 835.502C479.705 835.49 479.732 835.498 479.732 835.498L480.476 834.997C481.563 834.261 482.658 833.656 483.755 833.149C487.122 831.618 490.52 831.066 493.86 830.99C498.455 830.855 503.122 831.413 508.494 832.372C514.286 833.413 520.82 833.888 527.16 833.372C530.371 833.134 533.622 832.515 536.924 831.623C538.571 831.069 540.251 830.515 541.948 829.622C541.963 829.614 541.982 829.604 541.982 829.604C542.027 829.578 542.056 829.57 542.087 829.554C543.649 828.666 545.84 827.54 546.943 825.121C547.371 824.182 546.952 823.074 546.012 822.646C545.874 822.582 545.724 822.53 545.58 822.506C545.58 822.506 539.143 821.297 536.523 820.544L528.342 818.442C522.731 817.069 517.391 815.878 511.387 814.859C505.004 813.762 497.422 813.809 490.356 816.562C489.466 816.907 488.583 817.309 487.718 817.759C481.703 820.849 476.528 826.422 476.053 833.51Z" fill="white"/>
<path d="M485.28 810.878C485.572 810.805 489.331 809.457 491.107 808.866C491.107 808.866 491.065 808.853 491.058 808.852C491.125 808.83 468.949 800.822 481.533 786.532L481.586 785.98C481.548 786.03 481.518 785.877 481.486 785.925C479.374 785.653 477.225 785.838 475.26 786.65C473.281 787.438 471.539 788.744 470.104 790.522C464.08 797.994 472.342 806.1 472.564 806.254C471.328 806.165 468.362 805.72 467.13 805.585C461.772 801.921 452.884 792.889 465.632 773.777C465.308 773.734 464.984 773.717 464.661 773.701C462.823 773.613 461.012 773.964 459.32 774.71C458.329 775.036 457.379 775.43 456.467 775.882C450.193 778.941 445.912 784.874 445.912 791.758C445.912 794.566 446.68 797.193 447.944 799.565C448.863 801.289 450.099 802.833 451.54 804.198C450.597 804.117 446.532 803.865 445.565 803.58C439.725 796.865 433.273 784.297 445.723 769.593C445.4 769.549 445.077 769.536 444.753 769.52C442.914 769.432 441.104 769.785 439.412 770.532C438.288 770.94 437.24 771.436 436.261 772.005C429.368 775.941 426.004 783.477 426.004 789.692C426.004 792.5 427.018 797.076 428.036 799.565C436.212 819.577 474.836 813.509 485.28 810.878Z" fill="white"/>
<path d="M681.697 849.387C680.884 848.891 680.084 848.467 679.271 848.094C676.897 846.967 674.564 846.321 672.404 845.802C666.737 844.495 661.791 844.249 657.044 843.998L643.364 843.551C638.95 843.393 634.604 843.178 630.337 842.793C626.084 842.374 621.417 841.895 617.137 841.346C612.791 840.787 608.537 840.202 604.684 839.081C602.777 838.487 601.017 837.863 599.364 836.989C597.697 836.085 596.137 834.911 594.697 833.213C594.404 832.878 594.031 832.641 593.617 832.509C593.177 832.341 592.697 832.274 592.217 832.397C590.964 832.709 590.204 833.978 590.524 835.229L590.537 835.289L590.964 837.021C591.177 837.643 591.511 838.342 591.817 839.011C592.444 840.286 593.137 841.477 594.017 842.555C595.751 844.733 597.764 846.662 599.951 848.189C602.164 849.751 604.444 851.081 606.751 852.249C609.017 853.41 611.324 854.409 613.604 855.303C618.244 857.081 622.604 858.555 627.39 859.834C632.204 861.095 637.004 861.993 641.764 862.686C651.137 864.067 660.871 864.495 667.684 866.082C669.324 866.477 677.764 869.889 681.697 876.253C681.697 876.253 682.671 877.094 683.044 877.233C684.164 877.706 685.497 877.497 686.39 876.571C688.604 874.255 689.871 871.585 690.577 868.486C691.204 865.417 691.017 861.774 689.417 858.131C687.897 854.471 684.79 851.322 681.697 849.387Z" fill="white"/>
<path d="M604.244 829.554C604.271 829.57 604.297 829.578 604.337 829.594C604.351 829.603 604.364 829.614 604.364 829.614C606.084 830.516 607.751 831.069 609.404 831.623C612.711 832.515 615.951 833.134 619.164 833.372C625.511 833.888 632.044 833.413 637.831 832.372C643.204 831.413 647.871 830.855 652.471 830.99C655.804 831.066 659.204 831.618 662.577 833.149C663.671 833.656 664.764 834.261 665.857 834.997L666.577 835.486C666.591 835.498 666.617 835.49 666.617 835.49L666.711 835.553C667.124 835.833 667.617 835.977 668.151 835.944C669.404 835.856 670.364 834.772 670.271 833.51C669.804 826.422 664.631 820.849 658.617 817.759C657.751 817.309 656.857 816.907 655.977 816.562C648.911 813.809 641.324 813.762 634.937 814.859C628.937 815.878 623.591 817.069 617.991 818.442L609.804 820.544C607.191 821.297 600.751 822.506 600.751 822.506C600.604 822.53 600.457 822.582 600.311 822.646C599.377 823.074 598.951 824.182 599.391 825.121C600.484 827.54 602.684 828.666 604.244 829.554Z" fill="white"/>
<path d="M710.071 772.005C709.084 771.436 708.044 770.94 706.911 770.532C705.217 769.785 703.417 769.432 701.577 769.52C701.257 769.536 700.924 769.549 700.604 769.593C713.057 784.297 706.604 796.865 700.764 803.58C699.791 803.865 695.724 804.117 694.791 804.198C696.231 802.833 697.471 801.289 698.377 799.565C699.644 797.193 700.417 794.566 700.417 791.758C700.417 784.874 696.137 778.941 689.857 775.882C688.951 775.43 688.004 775.036 687.004 774.71C685.311 773.964 683.511 773.613 681.671 773.701C681.337 773.717 681.017 773.734 680.697 773.777C693.444 792.889 684.551 801.921 679.191 805.585C677.964 805.72 675.004 806.165 673.764 806.254C673.991 806.1 682.244 797.994 676.217 790.522C674.791 788.744 673.044 787.438 671.071 786.65C669.097 785.838 666.951 785.653 664.844 785.925C664.804 785.877 664.777 786.03 664.737 785.98L664.791 786.532C677.377 800.822 655.204 808.83 655.271 808.852L655.217 808.866C656.991 809.457 660.751 810.805 661.044 810.878C671.497 813.509 710.111 819.577 718.297 799.565C719.311 797.076 720.324 792.5 720.324 789.692C720.324 783.477 716.964 775.941 710.071 772.005Z" fill="white"/>
<path d="M589.857 682.23C593.924 666.763 600.23 658.326 600.23 658.326C603.857 653.065 607.91 649.167 612.044 647.09C615.39 645.195 619.617 644.999 623.817 646.875C625.964 647.838 627.857 649.349 629.297 651.215C629.31 651.225 629.31 651.234 629.324 651.243C629.59 651.669 629.777 651.97 630.017 652.345C630.297 652.87 630.577 653.391 630.857 653.947C632.284 656.831 633.257 659.851 634.017 663.341C634.097 663.75 634.177 664.185 634.23 664.599C635.737 675.239 635.67 676.775 635.577 687.957C635.564 688.589 635.284 692.808 635.204 693.434C634.67 697.633 633.004 706.395 628.11 718.218C626.644 722.813 623.284 727.017 623.377 727.087C617.604 736.882 608.644 742.675 602.51 741.958C597.897 741.418 595.324 738.813 593.79 737.077C589.51 732.23 589.164 729.575 588.484 727.405C587.03 722.791 587.257 720.458 587.03 718.058C585.91 706.026 587.244 697.174 588.537 689.099C588.71 688.009 589.257 685.302 589.617 683.538C589.617 683.538 589.724 682.947 589.857 682.362M638.07 647.429C634.057 640.111 628.47 635.313 621.684 634.265C618.017 633.7 614.31 634.305 610.657 635.842C610.617 635.807 609.937 636.151 609.937 636.151C607.204 637.402 604.497 639.163 601.897 641.43C591.284 650.674 582.27 667.813 578.524 688.277C574.937 707.838 577.017 725.934 583.084 737.911C587.124 745.886 592.924 751.174 600.07 752.277C607.097 753.359 614.324 750.237 620.897 744.125C631.057 734.682 639.604 718.045 643.23 698.263C646.924 678.055 644.617 659.374 638.07 647.429Z" fill="white"/>
<path d="M590.657 681.946C590.764 681.469 590.857 681.061 590.911 680.773Z" fill="white"/>
<path d="M600.244 658.968C600.697 658.253 601.164 657.561 601.644 656.891Z" fill="white"/>
<path d="M563.767 666.249C563.767 666.249 546.627 672.737 538.459 676.042L555.162 647.09C555.199 647.233 555.947 651.15 562.738 654.001C562.528 655.033 563.767 666.249 563.767 666.249ZM572.817 793.876C572.697 793.876 572.591 793.861 572.471 793.861C542.791 793.708 516.554 773.769 500.682 743.428C508.075 730.953 523.363 703.733 523.363 703.733C524.807 709.308 533.328 746.221 533.328 746.221C533.328 746.221 522.55 750.872 527.999 754.197C533.442 757.532 545.024 755.066 545.024 755.066C545.024 755.066 547.964 757.722 551.147 759.95C554.921 762.794 559.198 764.897 563.799 766.126C565.547 766.802 566.751 767.229 566.751 767.229C566.751 767.229 565.672 772.33 567.311 774.98C567.951 776.021 568.551 776.917 570.631 776.917C571.217 776.917 571.831 776.781 572.431 776.557C574.231 775.896 575.951 774.457 576.938 773.449C579.431 770.888 580.311 769.056 582.178 766.58C582.111 766.465 582.204 766.294 582.364 766.1C586.777 764.904 591.444 763.298 595.871 757.762C585.098 753.549 575.951 743.713 572.431 727.448C571.151 721.509 570.431 715.048 570.351 708.221C570.284 701.09 570.871 693.601 572.271 685.924C572.324 685.657 572.391 685.4 572.431 685.134C577.497 658.48 594.057 638.144 598.857 636.402C597.364 632.984 598.004 624.301 586.391 619.508C583.897 618.476 576.124 618.014 575.404 614.445C579.058 611.96 581.831 607.294 582.524 601.684C583.444 594.158 580.271 587.409 575.204 584.988C576.418 582.216 579.391 578.418 579.391 578.418L573.604 572.213L572.431 572.837L566.119 576.217C566.119 576.217 568.018 581.646 568.004 584.573C563.018 586.236 559.305 590.168 558.452 597.153C558.036 600.566 559.909 605.878 563.808 609.778C565.911 611.88 566.328 613.664 565.024 614.968C562.168 617.822 556.264 617.122 553.223 621.552C551.309 624.338 549.001 630.785 549.001 630.785C547.572 633.685 539.168 653.832 535.045 660.934C534.009 662.717 529.822 669.318 529.822 669.318C529.822 669.318 527.997 670.574 525.953 672.217C524.292 673.553 522.49 675.14 521.382 676.556C518.198 680.624 519.483 687.916 521.425 691L496.979 735.68C496.027 733.649 495.571 732.516 495.571 732.516C488.695 715.737 484.776 696.492 484.776 676.042C484.776 613.441 521.443 562.104 567.538 558.436H572.364H578.217C583.297 558.858 588.258 559.868 593.071 561.392C595.591 562.189 598.071 563.13 600.511 564.213C635.524 579.785 660.857 624.013 660.857 676.042C660.857 741.017 621.364 793.876 572.817 793.876ZM862.831 590.398C862.297 588.601 861.071 587.209 859.524 586.409C858.017 585.582 856.204 585.332 854.431 585.86L854.151 585.944C846.484 588.23 838.471 590.625 830.591 592.446C826.644 593.421 822.724 594.361 818.804 595.22C814.898 596.049 811.044 596.717 806.804 597.28C798.564 598.38 790.271 599.306 782.004 600.017C776.698 600.46 771.258 600.825 765.978 601.06C766.738 600.862 767.484 600.67 768.271 600.453C770.578 599.816 772.844 599.154 775.071 598.457C779.551 597.06 783.924 595.552 788.257 593.97C796.937 590.798 805.351 587.353 813.764 583.662C822.164 580.066 830.964 575.985 838.751 570.953C846.604 565.78 853.964 560.381 860.857 553.66C862.977 551.589 863.511 548.27 861.964 545.586C861.257 544.374 860.231 543.472 859.057 542.914C857.124 541.948 854.764 541.932 852.764 543.093L852.484 543.252C845.218 547.445 837.537 551.758 829.857 555.436C822.111 559.237 814.751 562.857 806.471 565.681C798.258 568.556 789.884 571.24 781.551 573.57C777.391 574.733 773.204 575.814 769.057 576.761L766.284 577.349C768.378 576.453 770.431 575.532 772.431 574.566C776.951 572.362 781.298 570.01 785.538 567.574C794.031 562.688 802.138 557.458 810.071 552.022C818.191 546.548 826.298 540.584 833.351 533.781C840.391 526.838 846.884 519.742 852.578 511.336C854.258 508.857 854.097 505.461 851.991 503.153C851.351 502.456 850.604 501.938 849.791 501.577C847.431 500.45 844.538 500.773 842.484 502.645L842.231 502.868C835.724 508.789 828.724 514.885 821.591 520.296C814.417 525.808 807.431 531.18 799.591 535.669C798.124 536.524 796.644 537.318 795.164 538.156C788.644 541.854 782.058 545.416 775.418 548.612C774.138 549.229 772.844 549.809 771.564 550.397C769.137 551.505 766.724 552.557 764.297 553.541C764.737 553.244 765.191 552.948 765.618 552.645C768.471 550.636 771.151 548.546 773.764 546.428C775.217 545.257 776.671 544.088 778.084 542.892C785.871 536.269 793.124 529.273 800.084 522.181C800.164 522.092 800.258 522.004 800.351 521.914C807.724 514.414 814.631 506.67 820.484 498.137C826.258 489.5 831.431 480.813 835.471 470.928C836.618 468.133 835.724 464.813 833.151 463C833.111 462.972 833.071 462.97 833.031 462.944C833.031 462.94 833.018 462.934 833.018 462.934C830.018 460.822 825.884 461.538 823.778 464.532L823.578 464.81C818.258 472.366 812.391 480.18 806.218 487.313C804.378 489.472 802.524 491.617 800.657 493.745C796.297 498.717 791.804 503.541 786.938 507.854C784.498 510.021 782.031 512.092 779.551 514.176C775.084 517.952 770.577 521.622 765.964 525.065C766.684 524.141 767.404 523.221 768.084 522.29C771.898 517.058 775.404 511.746 778.764 506.386C781.097 502.666 783.364 498.925 785.564 495.156C789.457 488.654 792.991 481.985 796.057 475.129C797.444 472.056 798.751 468.957 799.897 465.8C803.577 455.525 806.551 445.324 808.124 434.206C808.551 431.154 806.791 428.114 803.778 427.044C803.764 427.041 803.751 427.04 803.751 427.036C803.711 427.021 803.684 426.99 803.644 426.976C800.191 425.753 796.404 427.558 795.178 431.005L795.071 431.33C792.271 439.216 788.911 447.324 785.257 455.141C784.684 456.384 784.164 457.676 783.564 458.898C779.457 467.374 775.151 475.706 770.138 483.541C769.844 484.005 769.564 484.485 769.257 484.945C765.497 490.472 761.578 495.834 757.551 501.061C745.164 514.869 724.284 528.686 712.978 534.18C707.484 536.852 701.857 540.513 696.231 543.27C696.151 543.313 696.058 543.364 695.978 543.405C692.178 545.246 688.911 548.192 686.991 551.95C686.497 552.905 686.111 553.912 685.778 554.942C685.178 556.765 684.804 558.688 684.804 560.712C684.804 567.942 688.737 574.877 694.657 577.976C696.631 579.032 698.818 579.665 701.151 579.733C701.551 579.745 701.857 579.682 702.191 579.648C704.204 579.434 705.338 578.561 705.338 578.561C705.338 578.561 703.751 574.317 706.178 572.408C706.578 572.142 707.004 571.918 707.444 571.72C708.564 571.214 709.791 570.917 711.097 570.917C712.324 570.917 713.484 571.162 714.551 571.606C717.684 572.989 719.897 576.118 719.897 579.773C719.897 584.3 716.511 587.992 712.151 588.576C710.178 589.353 706.364 589.474 703.964 589.474C698.937 589.474 694.058 588.954 689.311 588.081C682.778 586.88 676.551 584.818 670.751 582.154C663.684 578.901 650.724 569.4 650.924 568.858C637.577 556.474 629.151 539.458 628.417 520.632C628.391 519.764 628.284 518.913 628.284 518.038C628.284 515.33 628.471 512.378 628.791 509.749C629.337 505.116 630.391 500.553 631.844 496.142C634.444 488.26 638.391 480.877 643.444 474.538C643.938 473.922 646.218 471.408 649.178 468.486C649.351 468.314 649.524 468.141 649.697 467.966C649.724 467.936 649.764 467.905 649.791 467.874C653.044 464.673 656.991 461.1 660.351 458.893C660.351 458.892 660.351 458.89 660.351 458.889C660.364 458.882 660.378 458.876 660.378 458.869C660.151 458.724 659.778 458.39 659.404 458.029C658.978 457.608 658.537 457.149 658.297 456.884C652.151 456.285 649.978 453.365 648.938 450.889C648.911 450.814 648.884 450.738 648.844 450.662C648.778 450.466 648.671 450.248 648.617 450.078C648.297 449.154 648.311 446.358 648.417 445.964C648.884 443.697 650.244 441.449 651.404 440.345C651.951 439.725 652.538 439.184 653.138 438.713C654.991 437.286 657.084 436.504 659.324 436.074C659.884 435.954 660.444 435.85 661.004 435.792C661.084 435.784 661.151 435.764 661.218 435.756C666.924 435.157 672.564 437.63 674.818 443.464L674.844 443.505C674.524 443.724 671.231 444.34 671.231 444.34V444.337L671.218 444.34C670.044 441.832 668.098 440.778 665.818 440.949C665.058 441.009 664.258 441.202 663.444 441.526C662.911 441.736 662.458 442.012 662.071 442.34C658.404 445.454 661.631 453.337 666.697 453.89C667.497 453.974 668.338 453.881 669.204 453.56C669.231 453.549 669.271 453.536 669.297 453.525C671.524 452.644 685.671 449.246 694.191 447.904C695.817 447.646 697.271 447.456 698.364 447.382C698.391 447.364 698.431 447.342 698.457 447.324C698.457 447.321 698.471 447.316 698.471 447.312C698.471 447.309 698.484 447.305 698.484 447.302C699.951 444.912 700.017 429.19 687.631 424.07C677.857 420.025 669.351 419.37 661.671 419.361C654.698 419.352 648.364 420.07 641.884 421.497C616.684 427.032 601.351 441.628 587.311 473.2V473.206C577.791 491.87 574.378 509.773 573.004 514.697C573.004 514.697 572.484 514.702 571.604 514.716C570.191 509.436 566.791 491.628 557.41 473.23V473.224C543.366 441.649 527.956 427.052 502.76 421.517C496.27 420.09 489.86 419.372 482.895 419.381C475.208 419.39 466.712 420.045 456.927 424.09C444.543 429.212 444.604 444.933 446.076 447.324C446.11 447.342 446.146 447.364 446.178 447.382C447.271 447.456 448.719 447.646 450.352 447.904C458.865 449.246 473.013 452.644 475.241 453.525C475.269 453.536 475.308 453.549 475.335 453.56C476.2 453.881 477.04 453.974 477.835 453.89C483.425 453.28 486.765 443.77 481.123 441.548C480.303 441.224 479.504 441.03 478.744 440.97C476.462 440.8 474.517 441.853 473.347 444.361L473.332 444.36L473.331 444.361C473.331 444.361 469.854 443.712 469.694 443.509L469.716 443.464C471.978 437.63 477.613 435.157 483.313 435.756C483.388 435.764 483.456 435.784 483.529 435.792C484.096 435.85 484.656 435.954 485.217 436.074C488.191 436.648 490.941 437.848 493.153 440.366C494.319 441.47 495.677 443.718 496.141 445.986C496.252 446.381 496.267 449.177 495.945 450.1C495.888 450.269 495.792 450.488 495.715 450.685C495.684 450.761 495.657 450.837 495.624 450.912C494.593 453.388 492.411 456.308 486.267 456.906C486.028 457.173 485.59 457.632 485.155 458.053C484.783 458.413 484.415 458.748 484.183 458.893C487.776 461.246 492.022 465.156 495.388 468.509C498.339 471.433 500.624 473.952 501.116 474.569C506.168 480.906 510.12 488.297 512.723 496.18C514.18 500.59 515.227 505.166 515.779 509.801C516.091 512.429 516.285 515.406 516.285 518.114C516.285 518.989 516.178 519.889 516.144 520.757C516.084 522.329 515.963 523.886 515.796 525.432C514.124 533.321 510.605 546.134 504.087 556.966C503.751 557.458 503.418 557.952 503.071 558.436H503.179C500.691 562.332 497.792 565.918 494.427 568.858C494.624 569.4 481.664 578.901 474.606 582.154C468.795 584.818 462.57 586.88 456.044 588.081C451.3 588.954 446.408 589.474 441.394 589.474C438.983 589.474 435.18 589.353 433.207 588.576C428.84 587.992 425.46 584.3 425.46 579.773C425.46 576.118 427.661 572.989 430.807 571.606C431.867 571.162 433.031 570.917 434.252 570.917C435.56 570.917 436.793 571.214 437.913 571.72C438.352 571.918 438.779 572.142 439.178 572.408C441.598 574.317 440.017 578.561 440.017 578.561C440.017 578.561 441.141 579.434 443.163 579.648C443.501 579.682 443.805 579.745 444.196 579.733C446.539 579.665 448.727 579.032 450.695 577.976C456.61 574.877 460.544 567.942 460.544 560.712C460.544 558.688 460.175 556.765 459.578 554.942C459.24 553.912 458.85 552.905 458.362 551.95C456.44 548.192 453.177 545.246 449.379 543.405C449.292 543.364 449.207 543.313 449.12 543.27C443.488 540.513 437.868 536.852 432.369 534.18C421.071 528.686 400.189 514.869 387.797 501.061C383.779 495.834 379.852 490.472 376.089 484.945C375.787 484.485 375.514 484.005 375.216 483.541C370.199 475.706 365.901 467.374 361.785 458.898C361.188 457.676 360.672 456.384 360.092 455.141C356.444 447.324 353.076 439.216 350.282 431.33L350.169 431.005C348.947 427.558 345.161 425.753 341.713 426.976C341.673 426.99 341.647 427.021 341.608 427.036C341.597 427.04 341.585 427.041 341.575 427.044C338.556 428.114 336.797 431.154 337.231 434.206C338.799 445.324 341.771 455.525 345.45 465.8C346.603 468.957 347.912 472.056 349.288 475.129C352.358 481.985 355.9 488.654 359.787 495.156C361.987 498.925 364.255 502.666 366.584 506.386C369.943 511.746 373.451 517.058 377.263 522.29C377.943 523.221 378.671 524.141 379.384 525.065C374.779 521.622 370.267 517.952 365.795 514.176C363.327 512.092 360.855 510.021 358.413 507.854C353.543 503.541 349.056 498.717 344.692 493.745C342.824 491.617 340.971 489.472 339.132 487.313C332.964 480.18 327.094 472.366 321.772 464.81L321.572 464.532C319.466 461.538 315.331 460.822 312.335 462.932C312.335 462.932 312.327 462.94 312.321 462.944C312.281 462.97 312.235 462.972 312.195 463C309.623 464.813 308.735 468.133 309.88 470.928C313.926 480.813 319.093 489.5 324.871 498.137C330.727 506.67 337.631 514.414 345.003 521.914C345.092 522.004 345.187 522.092 345.275 522.181C352.227 529.273 359.486 536.269 367.271 542.892C368.679 544.088 370.132 545.257 371.583 546.428C374.206 548.546 376.884 550.636 379.732 552.645C380.163 552.948 380.609 553.244 381.051 553.541C378.632 552.557 376.212 551.505 373.791 550.397C372.504 549.809 371.216 549.229 369.931 548.612C363.288 545.416 356.713 541.854 350.191 538.156C348.715 537.318 347.224 536.524 345.756 535.669C337.917 531.18 330.932 525.808 323.768 520.296C316.628 514.885 309.623 508.789 303.119 502.868L302.868 502.645C300.819 500.773 297.919 500.45 295.556 501.577C294.748 501.938 293.996 502.456 293.361 503.153C291.259 505.461 291.1 508.857 292.775 511.336C298.468 519.742 304.958 526.838 312 533.781C319.056 540.584 327.155 546.548 335.285 552.022C343.217 557.458 351.326 562.688 359.81 567.574C364.056 570.01 368.396 572.362 372.927 574.566C374.918 575.532 376.968 576.453 379.068 577.349L376.295 576.761C372.144 575.814 367.968 574.733 363.8 573.57C355.47 571.24 347.096 568.556 338.882 565.681C330.606 562.857 323.243 559.237 315.488 555.436C307.817 551.758 300.128 547.445 292.863 543.252L292.592 543.093C290.584 541.932 288.225 541.948 286.296 542.914C285.117 543.472 284.088 544.374 283.388 545.586C281.835 548.27 282.379 551.589 284.5 553.66C291.39 560.381 298.752 565.78 306.595 570.953C314.381 575.985 323.192 580.066 331.592 583.662C339.999 587.353 348.418 590.798 357.094 593.97C361.423 595.552 365.806 597.06 370.276 598.457C372.514 599.154 374.775 599.816 377.076 600.453C377.864 600.67 378.613 600.862 379.368 601.06C374.089 600.825 368.654 600.46 363.348 600.017C355.087 599.306 346.793 598.38 338.551 597.28C334.312 596.717 330.458 596.049 326.544 595.22C322.628 594.361 318.703 593.421 314.761 592.446C306.887 590.625 298.867 588.23 291.207 585.944L290.923 585.86C289.149 585.332 287.329 585.582 285.825 586.409C284.284 587.209 283.052 588.601 282.519 590.398C281.644 593.341 282.904 596.413 285.397 597.953C293.152 602.732 301.059 606.244 309.367 609.472C317.55 612.593 326.663 614.608 335.035 616.342C343.487 618.18 351.953 619.836 360.507 621.278C368.201 622.545 375.683 623.666 383.729 624.493C378.844 625.077 373.921 625.637 369.019 626.121C361.129 626.894 353.218 627.55 345.31 628.057C343.342 628.206 341.392 628.27 339.36 628.345L333.691 628.442L322.209 628.224C314.52 628.141 306.604 627.601 298.971 627.182L298.709 627.173C297.331 627.098 296.028 627.45 294.927 628.112C293.028 629.196 291.695 631.178 291.571 633.521C291.407 636.554 293.309 639.228 296.055 640.173C304.171 642.96 312.191 644.62 320.508 645.978C324.658 646.582 328.853 646.969 333.091 647.146C335.207 647.248 337.337 647.3 339.468 647.326L345.571 647.41C353.73 647.588 361.884 647.625 370.038 647.522C375.691 647.457 376.919 647.448 382.584 647.248L383.332 649.717C374 652.648 367.634 654.553 358.227 657.185C350.906 659.25 343.965 660.614 336.747 662.108C329.596 663.712 322.172 665.001 314.991 666.48L314.791 666.53C314.299 666.632 313.837 666.793 313.399 666.99C310.531 668.2 308.82 671.301 309.473 674.46C310.084 677.413 312.559 679.497 315.415 679.758C323.429 680.465 331.16 680.252 339.083 679.758C346.952 679.224 354.916 677.456 362.415 676.056C369.983 674.654 381.096 672.021 388.589 670.453L389.185 672.338C386.073 674.12 379.323 677.712 376.207 679.437C373.092 681.168 369.975 682.733 366.852 684.258C363.764 685.765 360.672 687.236 357.567 688.789L357.545 688.8C357.507 688.82 357.467 688.837 357.428 688.857C351.191 692.085 344.734 695.165 338.515 698.532L338.403 698.592C335.16 700.342 333.956 704.393 335.71 707.641C337.128 710.26 340.055 711.548 342.836 711.013C350.195 709.606 357.176 707.524 364.234 705.258C371.248 702.922 378.057 699.658 384.723 696.745C386.496 695.969 393.475 692.968 395.239 692.185L396.448 697.741C395.362 698.501 391.455 701.23 391.436 701.245L383.732 707.916C378.658 712.441 373.917 717.386 369.429 722.657C367.015 725.485 367.34 729.728 370.168 732.137C372.308 733.966 375.276 734.186 377.635 732.958C377.667 732.942 377.695 732.924 377.725 732.908C377.741 732.9 377.757 732.898 377.773 732.89C383.932 729.69 389.788 726.109 395.334 722.122L401.195 718.693C401.218 718.824 404.419 738.085 405.26 746.07C407.883 770.957 407.137 799.585 409.824 802.932C412.069 805.726 416.532 805.092 420.54 805.214C420.271 804.261 420.139 803.376 419.936 802.454C419.927 802.358 419.959 802.269 419.938 802.172C417.063 788.834 421.027 778.997 423.483 774.976C423.524 774.908 423.506 774.829 423.539 774.761C423.594 774.676 423.823 773.872 423.813 773.702C422.945 757.877 420.822 732.349 417.244 712.526C411.542 680.925 401.973 630.31 399.257 615.977C399.095 615.125 399.399 614.356 399.931 613.818C400.527 613.288 401.369 613.026 402.253 613.249C411.948 615.7 427.876 617.13 438.159 617.808C445.841 618.313 464.169 618.258 483.057 612.462C475.051 631.35 470.487 653.017 470.487 676.042C470.487 721.18 488.01 761.098 514.695 785.045C511.535 785.544 509.194 785.99 508.534 786.221C501.664 788.628 496.274 792.098 493.248 793.854C493.178 793.896 493.123 793.968 493.056 794.016C492.857 794.109 492.631 794.198 492.457 794.294C491.415 794.876 491.351 796.053 491.603 797.22C492.305 800.488 494.117 804.558 495.892 806.968C496.287 807.502 496.675 808.017 497.336 808.05C522.292 809.294 540.64 811.192 555.345 820.517C555.411 820.564 555.475 820.6 555.541 820.648C555.945 820.898 556.312 821.209 556.713 821.474C563.657 826.945 566.459 838.272 560.792 846.333C558.843 848.337 556.815 850.278 554.807 852.129C547.969 858.025 540.55 863.045 532.755 866.809C524.958 870.606 516.808 872.968 508.55 874.165C500.236 875.682 491.943 876.789 481.095 879.352L481.029 879.37C480.675 879.456 480.355 879.609 480.078 879.813C479.178 880.4 478.683 881.486 478.943 882.592C479.05 883.048 479.278 883.453 479.571 883.78C487.534 892.376 499.303 895.78 510.648 895.148C519.232 894.481 527.559 892.018 535.182 888.372C537.727 887.158 540.195 885.816 542.566 884.362C552.024 878.52 560.144 870.909 566.284 861.946C566.412 861.764 566.532 861.57 566.653 861.38C566.629 861.478 566.605 861.576 566.58 861.674C565.188 866.521 560.568 879.236 556.871 883.49C553.132 887.792 549.707 891.909 545.757 895.148C542.805 897.562 539.708 899.617 536.263 901.342C535.131 901.905 533.965 902.434 532.751 902.926C527.773 904.992 522.049 906.326 515.323 907.773L515.259 907.788C514.919 907.861 514.612 908.004 514.345 908.194C513.483 908.733 512.99 909.753 513.216 910.805C513.351 911.432 513.704 911.964 514.189 912.302C520.169 916.549 527.716 918.536 535.54 918.07C539.503 917.833 543.459 916.874 547.195 915.34C550.892 913.837 554.372 911.761 557.417 909.229C558.44 908.39 559.258 907.452 560.172 906.52C561.895 909.954 563.72 913.389 565.043 916.809C566.791 920.894 568.177 924.982 570.417 929.066C570.924 929.981 572.044 930.406 572.471 930.329C572.471 930.406 574.231 929.981 574.738 929.066C576.978 924.982 578.564 920.894 580.311 916.809C581.631 913.389 583.458 909.954 585.178 906.52C586.098 907.452 586.911 908.39 587.938 909.229C590.978 911.761 594.457 913.837 598.164 915.34C601.897 916.874 605.844 917.833 609.817 918.07C617.631 918.536 625.177 916.549 631.164 912.302C631.644 911.964 632.004 911.432 632.138 910.805C632.364 909.753 631.871 908.733 631.004 908.194C630.738 908.004 630.431 907.861 630.097 907.788L630.031 907.773C623.297 906.326 617.578 904.992 612.604 902.926C611.391 902.434 610.217 901.905 609.084 901.342C605.644 899.617 602.551 897.562 599.591 895.148C595.644 891.909 592.217 887.792 588.484 883.49C584.777 879.236 580.164 866.521 578.778 861.674C578.751 861.576 578.724 861.478 578.697 861.38C578.817 861.57 578.938 861.764 579.071 861.946C585.204 870.909 593.324 878.52 602.791 884.362C605.164 885.816 607.631 887.158 610.164 888.372C617.791 892.018 626.124 894.481 634.697 895.148C646.044 895.78 657.818 892.376 665.778 883.78C666.071 883.453 666.298 883.048 666.404 882.592C666.671 881.486 666.178 880.4 665.271 879.813C665.004 879.609 664.684 879.456 664.324 879.37L664.257 879.352C653.404 876.789 645.111 875.682 636.804 874.165C628.538 872.968 620.391 870.606 612.591 866.809C604.804 863.045 597.377 858.025 590.551 852.129C588.537 850.278 586.511 848.337 584.564 846.333C578.897 838.272 581.698 826.945 588.644 821.474C589.044 821.209 589.404 820.898 589.804 820.648C589.871 820.6 589.938 820.564 590.004 820.517C604.711 811.192 623.057 809.294 648.017 808.05C648.671 808.017 649.057 807.502 649.457 806.968C651.231 804.558 653.044 800.488 653.738 797.22C653.991 796.053 653.924 794.876 652.884 794.294C652.711 794.198 652.471 794.109 652.271 794.016C652.204 793.968 652.124 793.896 652.057 793.854C649.031 792.098 643.591 788.628 636.724 786.221C636.084 786.001 633.804 785.581 630.857 785.109C657.591 761.17 675.151 721.228 675.151 676.042C675.151 653.025 670.538 631.409 662.538 612.528C681.338 618.25 699.537 618.31 707.191 617.808C717.471 617.13 733.404 615.7 743.097 613.249C743.977 613.026 744.831 613.288 745.418 613.818C745.951 614.356 746.257 615.125 746.097 615.977C743.377 630.31 733.804 680.925 728.111 712.526C724.524 732.349 722.404 757.877 721.538 773.702C721.524 773.872 721.764 774.676 721.818 774.761C721.844 774.829 721.831 774.908 721.871 774.976C724.324 778.997 728.284 788.834 725.418 802.172C725.391 802.269 725.431 802.358 725.418 802.454C725.218 803.376 725.084 804.261 724.818 805.214C728.818 805.092 733.284 805.726 735.524 802.932C738.217 799.585 737.471 770.957 740.097 746.07C740.937 738.085 744.137 718.824 744.164 718.693L750.018 722.122C755.564 726.109 761.418 729.69 767.578 732.89C767.578 732.89 767.617 732.9 767.631 732.908C767.657 732.924 767.684 732.942 767.711 732.958C770.071 734.186 773.044 733.966 775.178 732.137C778.018 729.728 778.337 725.485 775.924 722.657C771.431 717.386 766.698 712.441 761.618 707.916L753.911 701.245C753.898 701.23 749.991 698.501 748.897 697.741L750.111 692.185C751.871 692.968 758.857 695.969 760.631 696.745C767.297 699.658 774.111 702.922 781.124 705.258C788.177 707.524 795.164 709.606 802.511 711.013C805.298 711.548 808.218 710.26 809.644 707.641C811.391 704.393 810.191 700.342 806.951 698.592L806.831 698.532C800.617 695.165 794.164 692.085 787.924 688.857C787.884 688.837 787.844 688.82 787.804 688.8L787.791 688.789C784.684 687.236 781.591 685.765 778.497 684.258C775.377 682.733 772.258 681.168 769.151 679.437C766.031 677.712 759.284 674.12 756.164 672.338L756.764 670.453C764.257 672.021 775.364 674.654 782.938 676.056C790.431 677.456 798.404 679.224 806.271 679.758C814.191 680.252 821.924 680.465 829.938 679.758C832.791 679.497 835.271 677.413 835.884 674.46C836.538 671.301 834.818 668.2 831.951 666.99C831.511 666.793 831.057 666.632 830.564 666.53L830.364 666.48C823.177 665.001 815.751 663.712 808.604 662.108C801.391 660.614 794.444 659.25 787.124 657.185C777.724 654.553 771.351 652.648 762.018 649.717L762.764 647.248C768.431 647.448 769.658 647.457 775.311 647.522C783.471 647.625 791.618 647.588 799.778 647.41L805.884 647.326C808.018 647.3 810.151 647.248 812.257 647.146C816.497 646.969 820.698 646.582 824.844 645.978C833.164 644.62 841.177 642.96 849.297 640.173C852.044 639.228 853.951 636.554 853.778 633.521C853.658 631.178 852.324 629.196 850.431 628.112C849.324 627.45 848.018 627.098 846.644 627.173L846.378 627.182C838.751 627.601 830.831 628.141 823.138 628.224L811.657 628.442L805.991 628.345C803.964 628.27 802.004 628.206 800.044 628.057C792.138 627.55 784.218 626.894 776.338 626.121C771.431 625.637 766.511 625.077 761.618 624.493C769.671 623.666 777.151 622.545 784.844 621.278C793.404 619.836 801.871 618.18 810.311 616.342C818.684 614.608 827.804 612.593 835.991 609.472C844.297 606.244 852.204 602.732 859.951 597.953C862.444 596.413 863.711 593.341 862.831 590.398Z" fill="white"/>
<path d="M547.605 254.574C547.979 254.574 548.212 254.444 548.496 254.401C549.711 256.44 551.837 257.874 554.431 257.874H554.493C557.044 257.874 559.221 256.489 560.436 254.401H569.737V260.492C563.785 261.916 559.327 267.321 559.327 273.69C559.327 277.097 560.692 280.204 562.721 282.566C560.504 283.376 558.46 284.576 556.695 286.16C551.329 291.313 549.988 302.169 554.583 315.024C557.771 323.898 562.492 331.232 566.977 335.561C569.004 337.754 571.044 338.726 572.897 338.726H573.377C575.217 338.726 577.257 337.754 579.297 335.561C583.777 331.232 588.497 323.898 591.684 315.024C596.271 302.169 594.937 291.305 589.564 286.15C587.764 284.528 585.657 283.304 583.377 282.497C585.377 280.142 586.697 277.025 586.697 273.69C586.697 267.321 582.284 261.916 576.337 260.492V254.401H585.697C586.791 256.489 589.031 257.874 591.577 257.874H591.671C594.271 257.874 596.524 256.404 597.684 254.168C597.951 254.257 598.191 254.356 598.444 254.356C600.244 254.356 601.711 252.91 601.711 251.102C601.711 249.334 600.244 247.845 598.444 247.845C598.231 247.845 597.964 247.933 597.711 247.976C596.537 245.8 594.271 244.262 591.671 244.262H591.577C589.031 244.262 586.791 245.654 585.697 247.76H576.337V235.437C578.471 234.222 579.817 232.094 579.817 229.488C579.817 226.789 578.284 224.51 576.084 223.405C576.217 223.065 576.271 222.748 576.271 222.377C576.271 220.61 574.817 219.124 573.044 219.124C571.271 219.124 569.777 220.61 569.777 222.377C569.777 222.748 569.871 223.065 570.017 223.405C567.737 224.51 566.216 226.789 566.216 229.488C566.216 232.094 567.604 234.222 569.737 235.437V247.76H560.436C559.221 245.654 557.044 244.262 554.493 244.262H554.431C551.745 244.262 549.357 245.884 548.311 248.162C548.071 248.162 547.831 248.077 547.605 248.077C545.845 248.077 544.361 249.466 544.361 251.332C544.361 253.105 545.845 254.574 547.605 254.574Z" fill="white"/>
<path d="M633.284 683.293C633.084 683.206 632.884 683.136 632.657 683.097C632.297 683.034 631.897 683.069 631.497 683.137C630.964 683.248 630.391 683.492 629.911 683.872L625.471 687.808C626.004 687.73 626.631 687.685 627.297 687.612C628.831 687.468 630.657 687.305 632.057 686.864C633.364 686.457 634.297 685.796 634.244 684.708C634.204 683.88 633.711 683.485 633.284 683.293Z" fill="white"/>
<path d="M634.337 685.189C632.937 683.824 631.244 683.289 629.83 683.31C630.67 681.594 631.177 679.176 630.604 677.48C630.431 676.989 630.164 676.517 629.817 676.118V676.116C627.857 673.632 626.204 673.03 625.417 672.862C624.871 672.748 622.257 672.477 620.911 674.254L620.697 672.037C619.644 672.925 618.617 675.773 618.377 676.496C617.817 678.188 616.697 682.441 616.697 682.441C619.924 677.322 621.671 676.69 624.471 675.974C622.057 677.653 620.111 681.529 619.004 685.046L625.43 680.729L623.991 679.73C624.764 678.472 625.55 677.9 626.964 678.726C627.457 679.01 627.777 679.518 627.871 680.273C627.951 680.828 627.951 682.26 626.644 683.926L615.03 693.95C614.15 694.674 613.844 695.429 613.924 697.792C613.951 698.585 614.777 699.46 616.257 698.101L628.724 686.982C629.324 686.488 630.231 686.922 630.511 687.322C631.231 688.373 630.831 690.562 628.951 693.346L627.897 690.962C626.83 692.384 624.884 695.946 623.23 697.741C623.23 697.741 626.511 698.017 629.044 696.078C629.737 695.548 630.337 695.018 630.857 694.496C628.777 699.806 624.071 703.545 624.017 703.58C624.017 703.58 627.244 703.26 628.977 702.349C630.764 701.412 632.457 700.313 633.897 698.642L631.524 697.873C632.697 696.244 634.577 694.241 635.337 690.941C635.924 688.348 635.591 686.413 634.337 685.189Z" fill="white"/>
<path d="M607.79 685.809L609.35 678.008L607.244 679.646C607.244 679.646 605.684 677.498 605.19 676.945C603.177 674.676 601.124 673.721 599.097 674.12C596.804 674.569 596.257 676.156 593.444 675.409C593.564 677.552 591.404 678.409 590.177 680.122C588.977 681.796 588.99 684.06 590.217 686.84C590.524 687.518 591.937 689.853 591.937 689.853L589.271 690.685L597.671 693.15C597.671 692.277 596.724 686.61 596.724 686.61L594.79 688.048C594.017 687.085 593.697 686.418 593.204 685.568C592.417 684.212 591.897 683.161 592.31 682.222C592.67 681.401 594.017 681.305 594.71 681.226L604.124 696.04C604.59 696.936 605.47 696.962 605.764 696.378C606.657 694.618 606.711 692.605 606.271 692.125L597.897 679.262C598.23 678.614 599.177 677.824 599.871 677.696C601.044 677.477 601.577 677.817 602.71 678.812C603.484 679.48 604.244 680.638 604.577 681.09L602.364 681.946C604.004 683.072 606.87 685.038 607.79 685.809Z" fill="white"/>
<path d="M609.404 659.164C610.644 660.997 612.87 663.297 613.91 664.234C613.91 664.234 612.43 666.042 612.23 666.402C611.337 667.948 615.191 668.504 615.471 668.558C615.924 668.625 619.564 669.409 619.257 667.65C619.19 667.24 618.177 665.15 618.177 665.15C619.47 664.624 622.604 663.12 624.404 661.826C624.644 661.656 625.204 661.23 625.417 660.976C628.937 656.629 627.724 653.882 627.724 653.882L621.204 657.954C620.617 658.34 620.271 657.962 620.271 657.962C620.831 657.637 621.657 655.666 621.804 655.161C622.057 654.358 621.79 653.79 620.817 653.596C619.964 653.422 619.524 653.716 619.524 653.716C619.724 653.36 619.71 653.39 619.79 653.229C619.83 653.164 619.857 653.104 619.884 653.033C619.937 652.914 619.964 652.812 619.99 652.672C619.99 652.644 619.977 652.626 619.977 652.601C619.977 652.556 620.004 652.517 620.004 652.47C620.004 651.55 619.257 650.806 618.337 650.806C617.591 650.808 616.99 651.296 616.777 651.96C616.75 652.004 616.71 652.032 616.697 652.088C616.63 652.436 616.604 652.221 616.764 653.19C616.764 653.19 616.457 652.8 615.59 652.666C614.617 652.517 614.377 652.921 614.324 653.757C614.297 654.285 614.164 655.897 614.604 656.957C614.631 657.014 614.151 657.193 613.737 656.629L609.017 650.561C609.017 650.561 606.937 652.724 608.75 658.017C608.857 658.328 609.231 658.921 609.404 659.164Z" fill="white"/>
<path d="M589.884 721.102C588.924 721.102 588.15 720.331 588.15 719.381C588.15 718.43 588.924 717.659 589.884 717.659C590.83 717.659 591.604 718.43 591.604 719.381C591.604 720.331 590.83 721.102 589.884 721.102ZM602.55 709.783C603.257 709.085 603.724 708.19 603.91 707.217L604.284 705.314C604.484 704.241 603.297 703.671 602.484 704.407L591.564 714.797L591.271 715.066C591.004 714.961 590.737 714.885 590.444 714.849C589.964 714.79 589.484 714.834 589.03 714.983C588.524 715.141 588.057 715.418 587.63 715.805C585.99 717.301 585.684 720.025 586.91 721.886C587.524 722.794 588.417 723.371 589.43 723.495C590.244 723.594 591.03 723.399 591.724 722.942C591.91 722.819 592.084 722.694 592.257 722.539C593.244 721.638 594.084 719.894 593.63 718.402L602.55 709.783Z" fill="white"/>
<path d="M622.537 724.761C621.591 724.761 620.817 723.99 620.817 723.04C620.817 722.089 621.591 721.318 622.537 721.318C623.497 721.318 624.257 722.089 624.257 723.04C624.257 723.99 623.497 724.761 622.537 724.761ZM623.084 718.744C622.684 718.694 622.271 718.734 621.884 718.837L613.777 706.108C613.204 705.221 612.191 705.369 612.004 706.41L611.697 707.492C611.457 708.805 611.244 708.836 612.577 711.389L619.084 721.325C618.457 722.829 618.551 724.633 619.444 725.993C620.084 726.929 621.004 727.522 622.044 727.65C623.097 727.78 624.111 727.422 624.951 726.666C624.964 726.653 624.991 726.625 625.004 726.612C626.644 725.05 626.951 722.288 625.684 720.402C625.044 719.465 624.137 718.872 623.084 718.744Z" fill="white"/>
<path d="M605.271 732.101C607.657 719.265 613.871 685.85 613.924 685.522C614.391 682.813 615.871 675.582 616.244 671.486C616.471 669.945 613.977 668.987 613.431 671.166C612.671 674.142 610.911 681.811 610.324 684.797L610.311 684.793C610.311 684.793 603.551 718.518 600.977 731.449C600.817 732.21 600.444 732.877 599.991 733.51C599.684 733.945 599.457 734.465 599.364 735.043C599.057 736.895 600.164 738.615 601.831 738.887C603.497 739.159 605.097 737.878 605.391 736.026C605.471 735.595 605.457 735.173 605.391 734.774C605.217 733.882 605.097 732.993 605.271 732.101Z" fill="white"/>
<path d="M623.751 716.166L615.991 721.983C615.391 722.425 614.564 722.305 614.124 721.715C613.684 721.126 613.804 720.291 614.391 719.849L622.151 714.033C622.737 713.591 623.577 713.711 624.017 714.301C624.457 714.89 624.337 715.725 623.751 716.166Z" fill="white"/>
</svg>
