<svg width="1920" height="1080" viewBox="0 0 1920 1080" fill="none" xmlns="http://www.w3.org/2000/svg">
<rect x="1520" y="16" width="384" height="216" rx="10" fill="white"/>
<path d="M1582.26 147.169C1581.88 147.097 1581.48 147.11 1581.11 147.208C1580.73 147.305 1580.38 147.485 1580.08 147.734C1579.78 147.984 1579.53 148.296 1579.37 148.649C1579.2 149.002 1579.12 149.388 1579.12 149.778C1579.12 150.168 1579.2 150.554 1579.37 150.907C1579.53 151.26 1579.78 151.572 1580.08 151.821C1580.38 152.071 1580.73 152.25 1581.11 152.348C1581.48 152.446 1581.88 152.459 1582.26 152.387C1582.65 152.46 1583.04 152.446 1583.42 152.349C1583.8 152.251 1584.15 152.071 1584.45 151.822C1584.75 151.573 1584.99 151.26 1585.16 150.907C1585.32 150.554 1585.41 150.168 1585.41 149.778C1585.41 149.388 1585.32 149.002 1585.16 148.649C1584.99 148.296 1584.75 147.983 1584.45 147.734C1584.15 147.485 1583.8 147.305 1583.42 147.207C1583.04 147.11 1582.65 147.096 1582.26 147.169ZM1582.26 151.383C1581.08 151.383 1580.12 150.662 1580.12 149.778C1580.12 148.894 1581.08 148.171 1582.26 148.171C1583.44 148.171 1584.4 148.892 1584.4 149.778C1584.4 150.664 1583.44 151.383 1582.26 151.383Z" fill="#4C83C3"/>
<path d="M1577.98 151.745C1577.87 151.121 1577.52 150.566 1577 150.2C1576.48 149.835 1575.84 149.689 1575.21 149.793C1574.58 149.816 1573.98 150.089 1573.55 150.551C1573.11 151.013 1572.88 151.627 1572.9 152.261C1572.95 152.561 1573.07 152.847 1573.24 153.1C1573.42 153.353 1573.64 153.569 1573.89 153.734C1574.15 153.899 1574.44 154.011 1574.74 154.062C1575.04 154.113 1575.35 154.103 1575.65 154.032C1577.12 153.883 1578.1 152.92 1577.98 151.745ZM1575.55 153.127C1574.78 153.206 1573.91 152.938 1573.83 152.167C1573.87 151.79 1574.04 151.438 1574.31 151.171C1574.58 150.904 1574.93 150.737 1575.31 150.698C1575.68 150.66 1576.06 150.752 1576.38 150.96C1576.7 151.167 1576.93 151.478 1577.05 151.839C1577.13 152.613 1576.33 153.049 1575.55 153.127Z" fill="#4C83C3"/>
<path d="M1568.83 151.749C1567.45 151.749 1566.59 152.399 1566.59 153.444C1566.59 154.489 1567.45 155.138 1568.83 155.138C1570.21 155.138 1571.06 154.49 1571.06 153.444C1571.06 152.397 1570.21 151.749 1568.83 151.749ZM1568.83 154.239C1568.21 154.239 1567.47 154.103 1567.47 153.444C1567.47 152.788 1568.21 152.65 1568.83 152.65C1569.45 152.65 1570.19 152.788 1570.19 153.444C1570.19 154.103 1569.45 154.239 1568.83 154.239Z" fill="#4C83C3"/>
<path d="M1601.53 132.797C1601.38 131.817 1601 130.886 1600.42 130.079C1599.84 129.273 1599.08 128.614 1598.2 128.155C1598.17 128.136 1598.15 128.118 1598.12 128.098L1598.11 128.089L1598 128.021V129.523C1598.05 129.553 1598.12 129.605 1598.2 129.659C1598.74 130.007 1599.2 130.46 1599.56 130.992C1599.92 131.525 1600.16 132.124 1600.28 132.755C1600.28 133.533 1600.08 134.299 1599.72 134.988C1599.36 135.677 1598.84 136.269 1598.2 136.715C1598.18 136.733 1598.17 136.75 1598.15 136.766L1598 136.894L1597.9 136.98L1598 137.019L1598.2 137.098L1598.2 137.099C1598.22 137.109 1600.4 138.028 1599.37 141.249C1598.81 142.785 1597.77 144.101 1596.41 145.002C1595.05 145.902 1593.43 146.339 1591.8 146.248H1591.75C1588.69 146.164 1585.71 145.271 1583.11 143.658L1582.98 143.584L1582.87 143.695C1581.51 145.083 1579.7 145.938 1577.76 146.104C1577.73 146.112 1575.35 146.286 1573.8 143.163L1573.72 143.006L1573.56 143.063C1573.54 143.069 1571.75 143.661 1570.8 142.766C1570.74 142.706 1570.68 142.641 1570.62 142.571H1570.36V142.568H1569.44V142.571H1569.24L1569.25 142.621L1569.28 142.688C1569.29 142.712 1569.3 142.734 1569.31 142.766C1569.51 143.245 1570.36 144.768 1573.08 144.425C1573.57 145.252 1574.24 145.946 1575.06 146.446C1575.88 146.945 1576.8 147.233 1577.76 147.285H1577.76C1579.77 147.25 1581.69 146.466 1583.15 145.086C1585.71 146.439 1588.53 147.246 1591.42 147.455C1591.74 147.455 1592.05 147.437 1592.37 147.402C1594.07 147.359 1595.71 146.838 1597.12 145.898C1598.53 144.958 1599.65 143.638 1600.34 142.091C1600.75 141.252 1600.91 140.315 1600.8 139.389C1600.69 138.463 1600.32 137.588 1599.72 136.868C1600.29 136.352 1600.74 135.723 1601.06 135.022C1601.37 134.322 1601.53 133.564 1601.53 132.797Z" fill="#4C83C3"/>
<path d="M1562.75 153C1561.28 153 1561 153.846 1561 154.25C1561 154.654 1561.28 155.5 1562.75 155.5C1563.86 155.5 1564.5 155.063 1564.5 154.25C1564.5 153.437 1563.86 153 1562.75 153ZM1562.75 154.696C1561.93 154.696 1561.8 154.424 1561.8 154.25C1561.8 154.076 1561.93 153.804 1562.75 153.804C1562.85 153.804 1563.75 153.804 1563.75 154.25C1563.75 154.696 1562.85 154.696 1562.75 154.696Z" fill="#4C83C3"/>
<path d="M1597.88 129.562L1597.73 129.476C1595.64 127.572 1592.98 126.419 1590.17 126.197C1589.76 126.197 1589.36 126.233 1588.96 126.305C1588.11 126.47 1587.3 126.803 1586.58 127.282C1585.85 127.762 1585.24 128.38 1584.75 129.1L1584.3 129.863L1584.17 128.987C1583.82 126.703 1582.67 126.551 1582.65 126.548C1582.57 126.532 1582.48 126.523 1582.4 126.524C1581.15 126.524 1579.49 128.184 1579.47 128.202L1579.09 128.596L1578.94 128.063C1578.06 124.792 1575.85 124.724 1575.77 124.722C1574.22 124.72 1572.73 125.302 1571.6 126.35C1571.18 126.887 1570.97 127.564 1571.02 128.245C1571.08 128.927 1571.39 129.563 1571.89 130.027L1572.2 130.356L1571.78 130.537C1567.58 132.362 1567.82 133.905 1567.83 133.931C1567.97 135.04 1570.42 136.165 1571.93 136.611L1572.36 136.742L1572.09 137.104C1569.68 140.391 1570.4 142.018 1570.57 142.309L1570.62 142.451H1592.8C1594.15 142.447 1595.45 141.907 1596.4 140.951C1597.35 139.995 1597.89 138.7 1597.88 137.35V129.562Z" fill="#4C83C3"/>
<path d="M1592.81 113.155H1566.08C1564.73 113.157 1563.44 113.694 1562.49 114.647C1561.54 115.601 1561 116.893 1561 118.241V137.366C1561 138.714 1561.54 140.006 1562.49 140.96C1563.44 141.914 1564.73 142.45 1566.08 142.453H1569.06L1569.04 142.403C1568.86 141.565 1568.85 140.7 1569.02 139.859C1569.19 139.019 1569.52 138.222 1570.01 137.516C1567.65 136.539 1566.42 135.372 1566.37 134.048C1566.28 132.004 1568.99 130.338 1569.98 129.799C1569.72 129.303 1569.56 128.758 1569.52 128.199C1569.49 127.64 1569.57 127.079 1569.76 126.552C1570.32 125.365 1571.32 124.446 1572.56 123.989C1573.45 123.554 1574.42 123.316 1575.42 123.291C1576.01 123.288 1576.6 123.402 1577.16 123.626C1578.29 124.124 1579.22 125.006 1579.77 126.117C1580.55 125.547 1581.47 125.213 1582.43 125.156C1582.72 125.155 1583 125.199 1583.28 125.286C1584 125.545 1584.59 126.07 1584.94 126.753C1586.32 125.506 1588.12 124.825 1589.98 124.845C1592.84 125.043 1595.58 126.069 1597.86 127.798L1597.88 127.815V118.241C1597.88 116.893 1597.35 115.601 1596.4 114.648C1595.44 113.695 1594.15 113.158 1592.81 113.155Z" fill="#4C83C3"/>
<path d="M1643.75 103.883L1635.35 108.085L1635.89 109.16L1644.29 104.958L1643.75 103.883Z" fill="#FDBA12"/>
<path d="M1639.97 97.9158L1632.43 104.619L1633.23 105.517L1640.77 98.814L1639.97 97.9158Z" fill="#FDBA12"/>
<path d="M1632.7 93.0451L1628.72 102.264L1629.82 102.74L1633.81 93.5219L1632.7 93.0451Z" fill="#FDBA12"/>
<path d="M1625.32 91.1763H1624.12V101.488H1625.32V91.1763Z" fill="#FDBA12"/>
<path d="M1616.74 93.0449L1615.64 93.522L1619.54 102.557L1619.62 102.74L1620.73 102.263L1616.82 93.2267L1616.74 93.0449Z" fill="#FDBA12"/>
<path d="M1608.68 98.8147L1616.22 105.517L1617.02 104.619L1609.47 97.9151L1608.68 98.8147Z" fill="#FDBA12"/>
<path d="M1605.69 103.888L1605.15 104.962L1613.56 109.156L1614.1 108.081L1605.69 103.888Z" fill="#FDBA12"/>
<path d="M1638.09 113.156H1636.26L1636.25 113.353C1636.24 114.862 1635.93 116.354 1635.35 117.742C1634.76 119.131 1633.9 120.39 1632.82 121.445C1631.93 122.351 1630.85 123.046 1629.65 123.478L1628.8 129.384H1620.49L1619.76 123.525C1613.51 121.128 1613.27 114.559 1613.2 113.264L1613.19 113.156H1611.36C1610.01 113.161 1608.72 113.701 1607.77 114.657C1606.81 115.614 1606.28 116.909 1606.28 118.258V137.438C1606.28 138.659 1606.72 139.839 1607.52 140.763C1608.32 141.686 1609.43 142.291 1610.63 142.467H1638.81C1640.02 142.291 1641.13 141.686 1641.93 140.763C1642.72 139.839 1643.16 138.659 1643.17 137.438V118.258C1643.17 116.909 1642.63 115.613 1641.68 114.657C1640.73 113.701 1639.44 113.161 1638.09 113.156ZM1620.58 130.779H1628.85V131.998H1620.58V130.779ZM1620.58 133.114H1628.85V134.332H1620.58V133.114ZM1626.28 139.001H1623.03V137.782H1626.28V139.001ZM1628.87 136.667H1620.61V135.448H1628.87V136.667Z" fill="#FDBA12"/>
<path d="M1620.46 119.151L1625.2 117.213L1621.13 115.971L1623.99 113.351L1624.18 113.156H1614.75V113.351C1614.81 114.525 1615 120.336 1620.84 122.519L1620.95 122.56L1621.64 128H1624.1V121.573L1625.41 120.501L1620.46 119.151Z" fill="#FDBA12"/>
<path d="M1625.91 113.155L1625.74 113.352L1623.63 115.375L1629.08 116.903L1624.21 118.905L1628.03 119.978L1625.37 122.148V128.001H1627.61L1628.39 122.523L1628.49 122.479C1630.31 121.732 1631.87 120.47 1632.98 118.849C1634.09 117.227 1634.71 115.317 1634.75 113.352V113.155H1625.91Z" fill="#FDBA12"/>
<path d="M1683.43 113.156H1673.27C1677.75 116.5 1680.28 119.974 1680.8 123.484C1680.96 124.994 1680.82 126.522 1680.37 127.973C1679.92 129.424 1679.18 130.767 1678.18 131.918L1678.1 132.03C1674.2 137 1666.24 140.756 1663 142.138C1662.64 142.25 1662.27 142.36 1661.9 142.467H1683.43C1684.78 142.463 1686.07 141.924 1687.02 140.971C1687.97 140.017 1688.5 138.725 1688.5 137.379V118.244C1688.5 116.898 1687.97 115.606 1687.02 114.652C1686.07 113.698 1684.78 113.16 1683.43 113.156Z" fill="#B22C1B"/>
<path d="M1670.77 113.368L1670.54 113.188H1656.57C1655.22 113.192 1653.93 113.731 1652.98 114.685C1652.03 115.639 1651.5 116.931 1651.5 118.277V137.409C1651.5 138.755 1652.03 140.048 1652.98 141.002C1653.93 141.957 1655.22 142.495 1656.57 142.5H1656.64L1657.22 142.308C1670.22 138.008 1678.76 131.46 1679.18 125.269C1679.61 119.037 1671.65 113.933 1670.77 113.368Z" fill="#B22C1B"/>
<path d="M1681.99 89.3142C1682.13 88.5124 1682.2 87.7004 1682.2 86.8867C1682.25 85.0591 1681.82 83.2504 1680.96 81.6379C1680.1 80.0253 1678.83 78.6643 1677.29 77.6883C1675.1 76.2963 1672.57 75.5392 1669.98 75.5015C1667.38 75.4638 1664.83 76.1469 1662.61 77.4748C1660.99 78.5318 1659.68 79.994 1658.8 81.7155C1657.93 83.4371 1657.52 85.3579 1657.62 87.2865C1657.62 88.234 1657.7 89.1798 1657.85 90.1153C1658.56 94.6849 1661.02 98.7988 1664.71 101.582C1662.77 101.057 1660.24 100.805 1659.14 102.583C1659.01 102.753 1658.91 102.948 1658.86 103.157C1658.8 103.366 1658.79 103.583 1658.82 103.797C1658.86 104.01 1658.93 104.215 1659.05 104.397C1659.17 104.579 1659.32 104.736 1659.5 104.856C1660.91 105.868 1664.33 105.6 1666.4 104.416L1664.98 107.725H1674.52L1672.61 103.91C1674.92 104.875 1677.59 105.745 1679.04 104.864C1679.33 104.681 1679.57 104.426 1679.74 104.123C1679.9 103.819 1679.99 103.479 1679.99 103.133C1680.03 102.765 1679.97 102.392 1679.82 102.053C1679.68 101.714 1679.44 101.421 1679.14 101.204C1678.05 100.637 1676.78 100.5 1675.6 100.822C1675.76 100.684 1675.92 100.546 1676.09 100.406C1679.27 97.4986 1681.36 93.5809 1681.99 89.3142ZM1660.2 103.88C1660.06 103.781 1659.89 103.659 1660.17 103.213C1660.99 101.869 1663.75 102.385 1666 103.277C1665.13 103.795 1664.17 104.117 1663.17 104.221C1662.16 104.325 1661.15 104.209 1660.2 103.88ZM1678.45 102.185C1678.58 102.285 1678.68 102.421 1678.74 102.578C1678.8 102.734 1678.82 102.904 1678.79 103.068C1678.79 103.218 1678.76 103.367 1678.7 103.502C1678.63 103.637 1678.53 103.753 1678.41 103.839C1677.87 104.172 1676.47 104.237 1672.94 102.747C1675.09 102.029 1677.54 101.544 1678.45 102.185ZM1671.43 102.012C1671.28 102.07 1671.17 102.112 1671.12 102.134L1670.7 102.279L1670.5 102.377L1670.51 102.389L1669.81 102.677L1670.89 103.159L1672.57 106.524H1666.81L1668.47 102.651L1667.86 102.293C1665.54 101.045 1663.54 99.281 1662.01 97.1368C1660.48 94.9926 1659.47 92.5255 1659.04 89.9261C1658.9 89.0587 1658.83 88.1817 1658.82 87.3031C1658.73 85.5741 1659.09 83.8502 1659.87 82.3031C1660.64 80.756 1661.81 79.4396 1663.26 78.4849C1665.29 77.2785 1667.61 76.659 1669.97 76.6953C1672.33 76.7317 1674.63 77.4225 1676.62 78.6908C1678 79.5639 1679.13 80.7798 1679.9 82.2194C1680.66 83.659 1681.04 85.2729 1681 86.9033C1681 87.6445 1680.93 88.3841 1680.8 89.1143C1680.44 91.8747 1679.39 94.4998 1677.75 96.752C1676.11 99.0041 1673.94 100.812 1671.43 102.012Z" fill="#B22C1B"/>
<path d="M1672.76 112.919L1672.67 112.862C1672.67 112.86 1672.66 112.854 1672.64 112.839C1671.73 112.277 1670.96 111.531 1670.36 110.65C1669.77 109.769 1669.36 108.772 1669.18 107.725H1667.88C1668.09 109.704 1669.04 111.531 1670.53 112.839C1670.57 112.866 1670.6 112.892 1670.64 112.919C1670.69 112.959 1670.73 113 1670.78 113.037H1672.72L1672.93 113.036L1672.76 112.919Z" fill="#B22C1B"/>
<path d="M1663.82 86.5483L1664.48 86.1689C1664.77 85.998 1664.98 85.8522 1665.1 85.7314C1665.29 85.5423 1665.38 85.3258 1665.38 85.082C1665.38 84.7972 1665.29 84.5716 1665.12 84.4053C1664.95 84.2367 1664.72 84.1523 1664.44 84.1523C1664.02 84.1523 1663.73 84.3118 1663.56 84.6309C1663.48 84.8018 1663.43 85.0387 1663.42 85.3418H1662.8C1662.8 84.9157 1662.88 84.5682 1663.03 84.2993C1663.3 83.8254 1663.77 83.5884 1664.44 83.5884C1665 83.5884 1665.41 83.7399 1665.67 84.043C1665.93 84.346 1666.06 84.6833 1666.06 85.0547C1666.06 85.4466 1665.92 85.7816 1665.65 86.0596C1665.49 86.2214 1665.2 86.4173 1664.79 86.6475L1664.32 86.9072C1664.1 87.0303 1663.92 87.1476 1663.79 87.2593C1663.57 87.4575 1663.42 87.6774 1663.36 87.9189H1666.04V88.5H1662.68C1662.7 88.0785 1662.79 87.7116 1662.94 87.3994C1663.09 87.0872 1663.38 86.8035 1663.82 86.5483ZM1669.62 84.3882C1669.84 84.7915 1669.95 85.3441 1669.95 86.0459C1669.95 86.7113 1669.85 87.2616 1669.65 87.6968C1669.36 88.3211 1668.9 88.6333 1668.24 88.6333C1667.66 88.6333 1667.22 88.3781 1666.93 87.8677C1666.69 87.4416 1666.57 86.8696 1666.57 86.1519C1666.57 85.5959 1666.64 85.1185 1666.79 84.7197C1667.06 83.9769 1667.54 83.6055 1668.25 83.6055C1668.88 83.6055 1669.34 83.8664 1669.62 84.3882ZM1669.29 86.0698C1669.29 85.5138 1669.22 85.057 1669.08 84.6992C1668.94 84.3392 1668.68 84.1592 1668.28 84.1592C1667.92 84.1592 1667.66 84.3301 1667.49 84.6719C1667.32 85.0114 1667.24 85.5127 1667.24 86.1758C1667.24 86.6748 1667.29 87.0758 1667.4 87.3789C1667.56 87.8415 1667.84 88.0728 1668.24 88.0728C1668.56 88.0728 1668.81 87.9315 1669 87.6489C1669.19 87.3664 1669.29 86.84 1669.29 86.0698ZM1671.62 86.5483L1672.27 86.1689C1672.57 85.998 1672.77 85.8522 1672.89 85.7314C1673.08 85.5423 1673.17 85.3258 1673.17 85.082C1673.17 84.7972 1673.09 84.5716 1672.92 84.4053C1672.75 84.2367 1672.52 84.1523 1672.23 84.1523C1671.81 84.1523 1671.52 84.3118 1671.36 84.6309C1671.27 84.8018 1671.22 85.0387 1671.21 85.3418H1670.59C1670.6 84.9157 1670.67 84.5682 1670.82 84.2993C1671.09 83.8254 1671.56 83.5884 1672.24 83.5884C1672.8 83.5884 1673.21 83.7399 1673.46 84.043C1673.72 84.346 1673.85 84.6833 1673.85 85.0547C1673.85 85.4466 1673.71 85.7816 1673.44 86.0596C1673.28 86.2214 1672.99 86.4173 1672.58 86.6475L1672.11 86.9072C1671.89 87.0303 1671.71 87.1476 1671.59 87.2593C1671.36 87.4575 1671.22 87.6774 1671.16 87.9189H1673.83V88.5H1670.47C1670.49 88.0785 1670.58 87.7116 1670.73 87.3994C1670.88 87.0872 1671.18 86.8035 1671.62 86.5483ZM1674.31 86.9961H1674.96C1674.98 87.3128 1675.04 87.543 1675.13 87.6865C1675.29 87.944 1675.58 88.0728 1676 88.0728C1676.32 88.0728 1676.58 87.9862 1676.78 87.813C1676.97 87.6398 1677.07 87.4165 1677.07 87.1431C1677.07 86.8058 1676.97 86.57 1676.76 86.4355C1676.56 86.3011 1676.27 86.2339 1675.9 86.2339C1675.86 86.2339 1675.82 86.235 1675.78 86.2373C1675.74 86.2373 1675.69 86.2384 1675.65 86.2407V85.6973C1675.71 85.7041 1675.77 85.7087 1675.81 85.7109C1675.85 85.7132 1675.9 85.7144 1675.95 85.7144C1676.18 85.7144 1676.37 85.6779 1676.52 85.605C1676.78 85.4774 1676.91 85.2495 1676.91 84.9214C1676.91 84.6776 1676.82 84.4896 1676.65 84.3574C1676.48 84.2253 1676.27 84.1592 1676.04 84.1592C1675.63 84.1592 1675.35 84.2959 1675.19 84.5693C1675.11 84.7197 1675.06 84.9339 1675.05 85.2119H1674.44C1674.44 84.8473 1674.51 84.5374 1674.66 84.2822C1674.91 83.8265 1675.35 83.5986 1675.98 83.5986C1676.48 83.5986 1676.86 83.7103 1677.14 83.9336C1677.41 84.1546 1677.55 84.4759 1677.55 84.8975C1677.55 85.1982 1677.47 85.4421 1677.3 85.6289C1677.2 85.7451 1677.07 85.8363 1676.92 85.9023C1677.17 85.973 1677.37 86.1097 1677.52 86.3125C1677.66 86.513 1677.74 86.7591 1677.74 87.0508C1677.74 87.5179 1677.58 87.8984 1677.27 88.1924C1676.97 88.4863 1676.53 88.6333 1675.96 88.6333C1675.39 88.6333 1674.97 88.4749 1674.7 88.1582C1674.44 87.8392 1674.31 87.4518 1674.31 86.9961ZM1663.82 93.5483L1664.48 93.1689C1664.77 92.998 1664.98 92.8522 1665.1 92.7314C1665.29 92.5423 1665.38 92.3258 1665.38 92.082C1665.38 91.7972 1665.29 91.5716 1665.12 91.4053C1664.95 91.2367 1664.72 91.1523 1664.44 91.1523C1664.02 91.1523 1663.73 91.3118 1663.56 91.6309C1663.48 91.8018 1663.43 92.0387 1663.42 92.3418H1662.8C1662.8 91.9157 1662.88 91.5682 1663.03 91.2993C1663.3 90.8254 1663.77 90.5884 1664.44 90.5884C1665 90.5884 1665.41 90.7399 1665.67 91.043C1665.93 91.346 1666.06 91.6833 1666.06 92.0547C1666.06 92.4466 1665.92 92.7816 1665.65 93.0596C1665.49 93.2214 1665.2 93.4173 1664.79 93.6475L1664.32 93.9072C1664.1 94.0303 1663.92 94.1476 1663.79 94.2593C1663.57 94.4575 1663.42 94.6774 1663.36 94.9189H1666.04V95.5H1662.68C1662.7 95.0785 1662.79 94.7116 1662.94 94.3994C1663.09 94.0872 1663.38 93.8035 1663.82 93.5483ZM1669.62 91.3882C1669.84 91.7915 1669.95 92.3441 1669.95 93.0459C1669.95 93.7113 1669.85 94.2616 1669.65 94.6968C1669.36 95.3211 1668.9 95.6333 1668.24 95.6333C1667.66 95.6333 1667.22 95.3781 1666.93 94.8677C1666.69 94.4416 1666.57 93.8696 1666.57 93.1519C1666.57 92.5959 1666.64 92.1185 1666.79 91.7197C1667.06 90.9769 1667.54 90.6055 1668.25 90.6055C1668.88 90.6055 1669.34 90.8664 1669.62 91.3882ZM1669.29 93.0698C1669.29 92.5138 1669.22 92.057 1669.08 91.6992C1668.94 91.3392 1668.68 91.1592 1668.28 91.1592C1667.92 91.1592 1667.66 91.3301 1667.49 91.6719C1667.32 92.0114 1667.24 92.5127 1667.24 93.1758C1667.24 93.6748 1667.29 94.0758 1667.4 94.3789C1667.56 94.8415 1667.84 95.0728 1668.24 95.0728C1668.56 95.0728 1668.81 94.9315 1669 94.6489C1669.19 94.3664 1669.29 93.84 1669.29 93.0698ZM1671.62 93.5483L1672.27 93.1689C1672.57 92.998 1672.77 92.8522 1672.89 92.7314C1673.08 92.5423 1673.17 92.3258 1673.17 92.082C1673.17 91.7972 1673.09 91.5716 1672.92 91.4053C1672.75 91.2367 1672.52 91.1523 1672.23 91.1523C1671.81 91.1523 1671.52 91.3118 1671.36 91.6309C1671.27 91.8018 1671.22 92.0387 1671.21 92.3418H1670.59C1670.6 91.9157 1670.67 91.5682 1670.82 91.2993C1671.09 90.8254 1671.56 90.5884 1672.24 90.5884C1672.8 90.5884 1673.21 90.7399 1673.46 91.043C1673.72 91.346 1673.85 91.6833 1673.85 92.0547C1673.85 92.4466 1673.71 92.7816 1673.44 93.0596C1673.28 93.2214 1672.99 93.4173 1672.58 93.6475L1672.11 93.9072C1671.89 94.0303 1671.71 94.1476 1671.59 94.2593C1671.36 94.4575 1671.22 94.6774 1671.16 94.9189H1673.83V95.5H1670.47C1670.49 95.0785 1670.58 94.7116 1670.73 94.3994C1670.88 94.0872 1671.18 93.8035 1671.62 93.5483ZM1676.46 93.7671V91.5488L1674.89 93.7671H1676.46ZM1676.47 95.5V94.3037H1674.32V93.7021L1676.57 90.5918H1677.09V93.7671H1677.81V94.3037H1677.09V95.5H1676.47Z" fill="#B22C1B"/>
<path d="M1568.85 104.225H1569.85V105.115C1570.14 104.748 1570.46 104.484 1570.79 104.324C1571.12 104.164 1571.49 104.084 1571.9 104.084C1572.79 104.084 1573.39 104.395 1573.7 105.016C1573.87 105.355 1573.96 105.842 1573.96 106.475V110.5H1572.89V106.545C1572.89 106.162 1572.83 105.854 1572.72 105.619C1572.53 105.229 1572.19 105.033 1571.7 105.033C1571.45 105.033 1571.24 105.059 1571.08 105.109C1570.79 105.195 1570.54 105.367 1570.32 105.625C1570.15 105.832 1570.03 106.047 1569.98 106.27C1569.93 106.488 1569.9 106.803 1569.9 107.213V110.5H1568.85V104.225ZM1580.39 105.209C1580.6 105.525 1580.74 105.895 1580.81 106.316C1580.87 106.605 1580.9 107.066 1580.9 107.699H1576.3C1576.32 108.336 1576.47 108.848 1576.76 109.234C1577.04 109.617 1577.47 109.809 1578.06 109.809C1578.61 109.809 1579.05 109.627 1579.38 109.264C1579.57 109.053 1579.7 108.809 1579.78 108.531H1580.82C1580.79 108.762 1580.7 109.02 1580.54 109.305C1580.39 109.586 1580.22 109.816 1580.03 109.996C1579.71 110.309 1579.31 110.52 1578.84 110.629C1578.58 110.691 1578.29 110.723 1577.97 110.723C1577.19 110.723 1576.53 110.439 1575.99 109.873C1575.45 109.303 1575.17 108.506 1575.17 107.482C1575.17 106.475 1575.45 105.656 1575.99 105.027C1576.54 104.398 1577.26 104.084 1578.14 104.084C1578.58 104.084 1579.02 104.189 1579.43 104.4C1579.85 104.607 1580.17 104.877 1580.39 105.209ZM1579.82 106.861C1579.78 106.404 1579.68 106.039 1579.52 105.766C1579.23 105.258 1578.75 105.004 1578.07 105.004C1577.59 105.004 1577.18 105.18 1576.86 105.531C1576.53 105.879 1576.35 106.322 1576.33 106.861H1579.82ZM1582.23 104.225H1583.24V105.309C1583.32 105.098 1583.52 104.842 1583.84 104.541C1584.16 104.236 1584.53 104.084 1584.95 104.084C1584.97 104.084 1585 104.086 1585.05 104.09C1585.09 104.094 1585.17 104.102 1585.29 104.113V105.227C1585.22 105.215 1585.17 105.207 1585.11 105.203C1585.06 105.199 1585 105.197 1584.94 105.197C1584.41 105.197 1584 105.369 1583.72 105.713C1583.43 106.053 1583.29 106.445 1583.29 106.891V110.5H1582.23V104.225ZM1591.15 106.334H1590.12C1590.06 105.947 1589.92 105.627 1589.69 105.373C1589.47 105.115 1589.11 104.986 1588.62 104.986C1587.95 104.986 1587.47 105.314 1587.18 105.971C1586.99 106.396 1586.9 106.922 1586.9 107.547C1586.9 108.176 1587.03 108.705 1587.3 109.135C1587.56 109.564 1587.98 109.779 1588.55 109.779C1588.99 109.779 1589.33 109.646 1589.59 109.381C1589.85 109.111 1590.02 108.744 1590.12 108.279H1591.15C1591.03 109.111 1590.74 109.721 1590.27 110.107C1589.8 110.49 1589.2 110.682 1588.47 110.682C1587.65 110.682 1586.99 110.383 1586.51 109.785C1586.02 109.184 1585.77 108.434 1585.77 107.535C1585.77 106.434 1586.04 105.576 1586.58 104.963C1587.11 104.35 1587.79 104.043 1588.62 104.043C1589.33 104.043 1589.9 104.215 1590.34 104.559C1590.79 104.902 1591.06 105.494 1591.15 106.334Z" fill="#4C83C3"/>
<path d="M1562.22 156.61H1563.92V166.5H1562.22V156.61ZM1563.06 154.875C1562.86 154.875 1562.66 154.851 1562.48 154.801C1562.31 154.752 1562.16 154.681 1562.04 154.588C1561.92 154.495 1561.82 154.387 1561.74 154.263C1561.67 154.139 1561.64 154.003 1561.64 153.855C1561.64 153.7 1561.68 153.555 1561.75 153.419C1561.83 153.283 1561.92 153.165 1562.05 153.066C1562.18 152.967 1562.33 152.89 1562.5 152.834C1562.68 152.779 1562.86 152.751 1563.06 152.751C1563.26 152.751 1563.44 152.779 1563.61 152.834C1563.78 152.89 1563.93 152.967 1564.05 153.066C1564.18 153.165 1564.28 153.283 1564.36 153.419C1564.43 153.555 1564.47 153.7 1564.47 153.855C1564.47 154.003 1564.43 154.139 1564.36 154.263C1564.29 154.387 1564.19 154.495 1564.07 154.588C1563.95 154.681 1563.8 154.752 1563.63 154.801C1563.45 154.851 1563.26 154.875 1563.06 154.875ZM1562.22 156.61H1563.92V166.5H1562.22V156.61ZM1574.29 159.904H1572.66C1572.56 159.292 1572.34 158.784 1571.98 158.382C1571.63 157.974 1571.07 157.77 1570.29 157.77C1569.22 157.77 1568.46 158.29 1568 159.329C1567.71 160.003 1567.56 160.835 1567.56 161.824C1567.56 162.82 1567.77 163.658 1568.19 164.338C1568.61 165.019 1569.27 165.359 1570.18 165.359C1570.87 165.359 1571.42 165.149 1571.82 164.728C1572.23 164.301 1572.51 163.72 1572.66 162.984H1574.29C1574.1 164.301 1573.64 165.266 1572.89 165.878C1572.15 166.485 1571.2 166.788 1570.05 166.788C1568.75 166.788 1567.71 166.314 1566.94 165.368C1566.16 164.416 1565.78 163.228 1565.78 161.806C1565.78 160.062 1566.2 158.704 1567.05 157.733C1567.9 156.762 1568.98 156.276 1570.29 156.276C1571.41 156.276 1572.32 156.549 1573.01 157.093C1573.72 157.637 1574.14 158.574 1574.29 159.904ZM1582.87 161.472C1582.87 160.68 1582.75 160 1582.52 159.431C1582.09 158.336 1581.3 157.789 1580.15 157.789C1578.99 157.789 1578.2 158.367 1577.77 159.523C1577.54 160.142 1577.43 160.927 1577.43 161.88C1577.43 162.647 1577.54 163.299 1577.77 163.837C1578.21 164.864 1579 165.377 1580.15 165.377C1580.93 165.377 1581.57 165.053 1582.09 164.403C1582.61 163.748 1582.87 162.771 1582.87 161.472ZM1575.83 156.61H1577.45V157.928C1577.78 157.476 1578.15 157.127 1578.54 156.879C1579.11 156.508 1579.77 156.323 1580.53 156.323C1581.65 156.323 1582.61 156.756 1583.4 157.622C1584.18 158.481 1584.57 159.712 1584.57 161.314C1584.57 163.479 1584.01 165.025 1582.88 165.953C1582.16 166.54 1581.32 166.834 1580.37 166.834C1579.62 166.834 1578.99 166.67 1578.49 166.342C1578.19 166.157 1577.86 165.838 1577.5 165.387V170.461H1575.83V156.61ZM1594.36 159.904H1592.74C1592.64 159.292 1592.41 158.784 1592.06 158.382C1591.71 157.974 1591.14 157.77 1590.36 157.77C1589.3 157.77 1588.54 158.29 1588.08 159.329C1587.78 160.003 1587.64 160.835 1587.64 161.824C1587.64 162.82 1587.85 163.658 1588.27 164.338C1588.69 165.019 1589.35 165.359 1590.25 165.359C1590.94 165.359 1591.49 165.149 1591.89 164.728C1592.3 164.301 1592.58 163.72 1592.74 162.984H1594.36C1594.18 164.301 1593.71 165.266 1592.97 165.878C1592.23 166.485 1591.28 166.788 1590.12 166.788C1588.82 166.788 1587.79 166.314 1587.01 165.368C1586.24 164.416 1585.85 163.228 1585.85 161.806C1585.85 160.062 1586.28 158.704 1587.12 157.733C1587.97 156.762 1589.05 156.276 1590.36 156.276C1591.48 156.276 1592.39 156.549 1593.09 157.093C1593.8 157.637 1594.22 158.574 1594.36 159.904Z" fill="#4C83C3"/>
<path d="M1606.77 153.225H1607.78V154.115C1608.07 153.748 1608.39 153.484 1608.72 153.324C1609.05 153.164 1609.42 153.084 1609.83 153.084C1610.72 153.084 1611.32 153.395 1611.63 154.016C1611.8 154.355 1611.89 154.842 1611.89 155.475V159.5H1610.82V155.545C1610.82 155.162 1610.76 154.854 1610.65 154.619C1610.46 154.229 1610.12 154.033 1609.63 154.033C1609.38 154.033 1609.17 154.059 1609.01 154.109C1608.72 154.195 1608.47 154.367 1608.25 154.625C1608.07 154.832 1607.96 155.047 1607.9 155.27C1607.85 155.488 1607.83 155.803 1607.83 156.213V159.5H1606.77V153.225ZM1617.77 156.26C1617.77 155.674 1617.68 155.197 1617.49 154.83C1617.19 154.252 1616.68 153.963 1615.96 153.963C1615.31 153.963 1614.84 154.209 1614.55 154.701C1614.26 155.193 1614.11 155.787 1614.11 156.482C1614.11 157.15 1614.26 157.707 1614.55 158.152C1614.84 158.598 1615.31 158.82 1615.94 158.82C1616.64 158.82 1617.12 158.557 1617.38 158.029C1617.64 157.498 1617.77 156.908 1617.77 156.26ZM1618.87 156.23C1618.87 157.242 1618.63 158.078 1618.13 158.738C1617.64 159.398 1616.88 159.729 1615.84 159.729C1614.98 159.729 1614.29 159.438 1613.79 158.855C1613.28 158.27 1613.03 157.484 1613.03 156.5C1613.03 155.445 1613.29 154.605 1613.83 153.98C1614.36 153.355 1615.08 153.043 1615.98 153.043C1616.79 153.043 1617.48 153.313 1618.04 153.852C1618.59 154.391 1618.87 155.184 1618.87 156.23ZM1620.16 153.225H1621.16V154.309C1621.25 154.098 1621.45 153.842 1621.77 153.541C1622.09 153.236 1622.46 153.084 1622.87 153.084C1622.89 153.084 1622.93 153.086 1622.97 153.09C1623.02 153.094 1623.1 153.102 1623.21 153.113V154.227C1623.15 154.215 1623.09 154.207 1623.04 154.203C1622.99 154.199 1622.93 154.197 1622.87 154.197C1622.34 154.197 1621.93 154.369 1621.64 154.713C1621.36 155.053 1621.22 155.445 1621.22 155.891V159.5H1620.16V153.225ZM1624.34 151.473H1625.41V153.225H1626.41V154.086H1625.41V158.182C1625.41 158.4 1625.48 158.547 1625.63 158.621C1625.71 158.664 1625.85 158.686 1626.04 158.686C1626.09 158.686 1626.14 158.686 1626.2 158.686C1626.26 158.682 1626.33 158.676 1626.41 158.668V159.5C1626.29 159.535 1626.16 159.561 1626.03 159.576C1625.9 159.592 1625.76 159.6 1625.61 159.6C1625.11 159.6 1624.78 159.475 1624.6 159.225C1624.43 158.971 1624.34 158.643 1624.34 158.24V154.086H1623.49V153.225H1624.34V151.473ZM1627.47 150.863H1628.52V154.074C1628.77 153.758 1629 153.535 1629.2 153.406C1629.54 153.184 1629.96 153.072 1630.47 153.072C1631.38 153.072 1632 153.391 1632.32 154.027C1632.5 154.375 1632.58 154.857 1632.58 155.475V159.5H1631.5V155.545C1631.5 155.084 1631.44 154.746 1631.32 154.531C1631.13 154.188 1630.77 154.016 1630.25 154.016C1629.81 154.016 1629.41 154.166 1629.06 154.467C1628.7 154.768 1628.52 155.336 1628.52 156.172V159.5H1627.47V150.863ZM1634.63 153.225L1635.84 158.17L1637.07 153.225H1638.25L1639.48 158.141L1640.76 153.225H1641.82L1640 159.5H1638.9L1637.62 154.643L1636.39 159.5H1635.29L1633.48 153.225H1634.63ZM1647.68 154.209C1647.89 154.525 1648.04 154.895 1648.11 155.316C1648.17 155.605 1648.2 156.066 1648.2 156.699H1643.6C1643.62 157.336 1643.77 157.848 1644.05 158.234C1644.33 158.617 1644.77 158.809 1645.36 158.809C1645.91 158.809 1646.35 158.627 1646.68 158.264C1646.86 158.053 1647 157.809 1647.07 157.531H1648.11C1648.08 157.762 1647.99 158.02 1647.84 158.305C1647.68 158.586 1647.51 158.816 1647.32 158.996C1647 159.309 1646.6 159.52 1646.13 159.629C1645.88 159.691 1645.59 159.723 1645.27 159.723C1644.49 159.723 1643.83 159.439 1643.28 158.873C1642.74 158.303 1642.47 157.506 1642.47 156.482C1642.47 155.475 1642.74 154.656 1643.29 154.027C1643.84 153.398 1644.55 153.084 1645.43 153.084C1645.88 153.084 1646.31 153.189 1646.73 153.4C1647.15 153.607 1647.46 153.877 1647.68 154.209ZM1647.12 155.861C1647.07 155.404 1646.97 155.039 1646.82 154.766C1646.53 154.258 1646.04 154.004 1645.37 154.004C1644.88 154.004 1644.48 154.18 1644.15 154.531C1643.82 154.879 1643.65 155.322 1643.63 155.861H1647.12ZM1650.13 157.531C1650.16 157.883 1650.25 158.152 1650.39 158.34C1650.66 158.68 1651.12 158.85 1651.77 158.85C1652.16 158.85 1652.51 158.766 1652.8 158.598C1653.1 158.426 1653.25 158.162 1653.25 157.807C1653.25 157.537 1653.13 157.332 1652.89 157.191C1652.74 157.105 1652.44 157.006 1651.99 156.893L1651.15 156.682C1650.62 156.549 1650.22 156.4 1649.97 156.236C1649.52 155.951 1649.29 155.557 1649.29 155.053C1649.29 154.459 1649.5 153.979 1649.93 153.611C1650.36 153.244 1650.93 153.061 1651.66 153.061C1652.6 153.061 1653.28 153.338 1653.7 153.893C1653.96 154.244 1654.09 154.623 1654.08 155.029H1653.09C1653.07 154.791 1652.98 154.574 1652.83 154.379C1652.59 154.102 1652.17 153.963 1651.57 153.963C1651.18 153.963 1650.87 154.039 1650.67 154.191C1650.46 154.344 1650.36 154.545 1650.36 154.795C1650.36 155.068 1650.5 155.287 1650.77 155.451C1650.92 155.549 1651.15 155.635 1651.46 155.709L1652.15 155.879C1652.91 156.063 1653.42 156.24 1653.68 156.412C1654.09 156.682 1654.29 157.105 1654.29 157.684C1654.29 158.242 1654.08 158.725 1653.65 159.131C1653.23 159.537 1652.59 159.74 1651.72 159.74C1650.79 159.74 1650.12 159.529 1649.73 159.107C1649.35 158.682 1649.14 158.156 1649.11 157.531H1650.13ZM1655.71 151.473H1656.78V153.225H1657.78V154.086H1656.78V158.182C1656.78 158.4 1656.85 158.547 1657 158.621C1657.08 158.664 1657.22 158.686 1657.41 158.686C1657.46 158.686 1657.52 158.686 1657.57 158.686C1657.63 158.682 1657.7 158.676 1657.78 158.668V159.5C1657.66 159.535 1657.53 159.561 1657.4 159.576C1657.27 159.592 1657.13 159.6 1656.98 159.6C1656.48 159.6 1656.15 159.475 1655.97 159.225C1655.8 158.971 1655.71 158.643 1655.71 158.24V154.086H1654.86V153.225H1655.71V151.473ZM1663.7 154.209C1663.91 154.525 1664.05 154.895 1664.12 155.316C1664.19 155.605 1664.22 156.066 1664.22 156.699H1659.62C1659.64 157.336 1659.79 157.848 1660.07 158.234C1660.35 158.617 1660.79 158.809 1661.38 158.809C1661.93 158.809 1662.37 158.627 1662.7 158.264C1662.88 158.053 1663.02 157.809 1663.09 157.531H1664.13C1664.1 157.762 1664.01 158.02 1663.86 158.305C1663.7 158.586 1663.53 158.816 1663.34 158.996C1663.02 159.309 1662.62 159.52 1662.15 159.629C1661.9 159.691 1661.61 159.723 1661.29 159.723C1660.51 159.723 1659.85 159.439 1659.3 158.873C1658.76 158.303 1658.49 157.506 1658.49 156.482C1658.49 155.475 1658.76 154.656 1659.31 154.027C1659.86 153.398 1660.57 153.084 1661.45 153.084C1661.9 153.084 1662.33 153.189 1662.75 153.4C1663.17 153.607 1663.48 153.877 1663.7 154.209ZM1663.13 155.861C1663.09 155.404 1662.99 155.039 1662.84 154.766C1662.55 154.258 1662.06 154.004 1661.39 154.004C1660.9 154.004 1660.5 154.18 1660.17 154.531C1659.84 154.879 1659.67 155.322 1659.65 155.861H1663.13ZM1665.55 153.225H1666.55V154.309C1666.63 154.098 1666.83 153.842 1667.15 153.541C1667.47 153.236 1667.84 153.084 1668.26 153.084C1668.28 153.084 1668.31 153.086 1668.36 153.09C1668.41 153.094 1668.49 153.102 1668.6 153.113V154.227C1668.54 154.215 1668.48 154.207 1668.43 154.203C1668.37 154.199 1668.32 154.197 1668.26 154.197C1667.72 154.197 1667.32 154.369 1667.03 154.713C1666.75 155.053 1666.6 155.445 1666.6 155.891V159.5H1665.55V153.225ZM1669.52 153.225H1670.52V154.115C1670.81 153.748 1671.13 153.484 1671.46 153.324C1671.79 153.164 1672.16 153.084 1672.57 153.084C1673.46 153.084 1674.06 153.395 1674.37 154.016C1674.54 154.355 1674.63 154.842 1674.63 155.475V159.5H1673.56V155.545C1673.56 155.162 1673.5 154.854 1673.39 154.619C1673.2 154.229 1672.86 154.033 1672.37 154.033C1672.12 154.033 1671.91 154.059 1671.75 154.109C1671.46 154.195 1671.21 154.367 1670.99 154.625C1670.82 154.832 1670.7 155.047 1670.65 155.27C1670.6 155.488 1670.57 155.803 1670.57 156.213V159.5H1669.52V153.225ZM1606.8 165.225H1607.8V166.309C1607.89 166.098 1608.09 165.842 1608.41 165.541C1608.73 165.236 1609.1 165.084 1609.52 165.084C1609.54 165.084 1609.57 165.086 1609.62 165.09C1609.66 165.094 1609.74 165.102 1609.86 165.113V166.227C1609.79 166.215 1609.73 166.207 1609.68 166.203C1609.63 166.199 1609.57 166.197 1609.51 166.197C1608.98 166.197 1608.57 166.369 1608.29 166.713C1608 167.053 1607.86 167.445 1607.86 167.891V171.5H1606.8V165.225ZM1611.82 165.225V169.391C1611.82 169.711 1611.87 169.973 1611.98 170.176C1612.16 170.551 1612.51 170.738 1613.03 170.738C1613.76 170.738 1614.26 170.41 1614.53 169.754C1614.67 169.402 1614.74 168.92 1614.74 168.307V165.225H1615.8V171.5H1614.8L1614.81 170.574C1614.68 170.813 1614.51 171.014 1614.3 171.178C1613.9 171.506 1613.41 171.67 1612.84 171.67C1611.94 171.67 1611.33 171.371 1611.01 170.773C1610.83 170.453 1610.75 170.025 1610.75 169.49V165.225H1611.82ZM1618.08 169.531C1618.11 169.883 1618.2 170.152 1618.34 170.34C1618.61 170.68 1619.07 170.85 1619.72 170.85C1620.11 170.85 1620.46 170.766 1620.75 170.598C1621.05 170.426 1621.2 170.162 1621.2 169.807C1621.2 169.537 1621.08 169.332 1620.84 169.191C1620.69 169.105 1620.39 169.006 1619.94 168.893L1619.1 168.682C1618.57 168.549 1618.17 168.4 1617.92 168.236C1617.46 167.951 1617.24 167.557 1617.24 167.053C1617.24 166.459 1617.45 165.979 1617.88 165.611C1618.31 165.244 1618.88 165.061 1619.61 165.061C1620.55 165.061 1621.23 165.338 1621.65 165.893C1621.91 166.244 1622.04 166.623 1622.03 167.029H1621.04C1621.02 166.791 1620.93 166.574 1620.78 166.379C1620.54 166.102 1620.12 165.963 1619.52 165.963C1619.12 165.963 1618.82 166.039 1618.62 166.191C1618.41 166.344 1618.31 166.545 1618.31 166.795C1618.31 167.068 1618.45 167.287 1618.71 167.451C1618.87 167.549 1619.1 167.635 1619.41 167.709L1620.1 167.879C1620.86 168.063 1621.37 168.24 1621.63 168.412C1622.04 168.682 1622.24 169.105 1622.24 169.684C1622.24 170.242 1622.03 170.725 1621.6 171.131C1621.18 171.537 1620.54 171.74 1619.67 171.74C1618.74 171.74 1618.07 171.529 1617.68 171.107C1617.3 170.682 1617.09 170.156 1617.06 169.531H1618.08ZM1624.08 169.531C1624.11 169.883 1624.2 170.152 1624.34 170.34C1624.61 170.68 1625.07 170.85 1625.72 170.85C1626.11 170.85 1626.46 170.766 1626.75 170.598C1627.05 170.426 1627.2 170.162 1627.2 169.807C1627.2 169.537 1627.08 169.332 1626.84 169.191C1626.69 169.105 1626.39 169.006 1625.94 168.893L1625.1 168.682C1624.57 168.549 1624.17 168.4 1623.92 168.236C1623.46 167.951 1623.24 167.557 1623.24 167.053C1623.24 166.459 1623.45 165.979 1623.88 165.611C1624.31 165.244 1624.88 165.061 1625.61 165.061C1626.55 165.061 1627.23 165.338 1627.65 165.893C1627.91 166.244 1628.04 166.623 1628.03 167.029H1627.04C1627.02 166.791 1626.93 166.574 1626.78 166.379C1626.54 166.102 1626.12 165.963 1625.52 165.963C1625.12 165.963 1624.82 166.039 1624.62 166.191C1624.41 166.344 1624.31 166.545 1624.31 166.795C1624.31 167.068 1624.45 167.287 1624.71 167.451C1624.87 167.549 1625.1 167.635 1625.41 167.709L1626.1 167.879C1626.86 168.063 1627.37 168.24 1627.63 168.412C1628.04 168.682 1628.24 169.105 1628.24 169.684C1628.24 170.242 1628.03 170.725 1627.6 171.131C1627.18 171.537 1626.54 171.74 1625.67 171.74C1624.74 171.74 1624.07 171.529 1623.68 171.107C1623.3 170.682 1623.09 170.156 1623.06 169.531H1624.08ZM1629.45 165.254H1630.52V171.5H1629.45V165.254ZM1629.98 164.158C1629.85 164.158 1629.73 164.143 1629.61 164.111C1629.5 164.08 1629.41 164.035 1629.33 163.977C1629.25 163.918 1629.19 163.85 1629.14 163.771C1629.1 163.693 1629.08 163.607 1629.08 163.514C1629.08 163.416 1629.1 163.324 1629.15 163.238C1629.2 163.152 1629.26 163.078 1629.34 163.016C1629.42 162.953 1629.52 162.904 1629.62 162.869C1629.73 162.834 1629.85 162.816 1629.98 162.816C1630.1 162.816 1630.22 162.834 1630.32 162.869C1630.43 162.904 1630.53 162.953 1630.6 163.016C1630.69 163.078 1630.75 163.152 1630.8 163.238C1630.84 163.324 1630.87 163.416 1630.87 163.514C1630.87 163.607 1630.84 163.693 1630.8 163.771C1630.75 163.85 1630.69 163.918 1630.62 163.977C1630.54 164.035 1630.44 164.08 1630.33 164.111C1630.22 164.143 1630.11 164.158 1629.98 164.158ZM1629.45 165.254H1630.52V171.5H1629.45V165.254ZM1634.05 170.814C1634.43 170.814 1634.79 170.729 1635.13 170.557C1635.72 170.271 1636.01 169.805 1636.01 169.156V168.307C1635.88 168.389 1635.72 168.457 1635.51 168.512C1635.31 168.566 1635.11 168.605 1634.92 168.629L1634.28 168.711C1633.89 168.762 1633.61 168.842 1633.42 168.951C1633.09 169.135 1632.93 169.428 1632.93 169.83C1632.93 170.135 1633.04 170.375 1633.26 170.551C1633.49 170.727 1633.75 170.814 1634.05 170.814ZM1635.48 167.697C1635.73 167.666 1635.89 167.564 1635.97 167.393C1636.02 167.299 1636.04 167.164 1636.04 166.988C1636.04 166.629 1635.91 166.369 1635.65 166.209C1635.4 166.045 1635.04 165.963 1634.56 165.963C1634.01 165.963 1633.62 166.111 1633.39 166.408C1633.26 166.572 1633.17 166.816 1633.13 167.141H1632.15C1632.17 166.367 1632.42 165.83 1632.9 165.529C1633.38 165.225 1633.95 165.072 1634.58 165.072C1635.32 165.072 1635.92 165.213 1636.38 165.494C1636.84 165.775 1637.07 166.213 1637.07 166.807V170.422C1637.07 170.531 1637.09 170.619 1637.13 170.686C1637.18 170.752 1637.27 170.785 1637.42 170.785C1637.46 170.785 1637.52 170.783 1637.58 170.779C1637.63 170.771 1637.7 170.762 1637.76 170.75V171.529C1637.6 171.576 1637.47 171.605 1637.39 171.617C1637.3 171.629 1637.19 171.635 1637.04 171.635C1636.67 171.635 1636.41 171.506 1636.25 171.248C1636.16 171.111 1636.1 170.918 1636.06 170.668C1635.85 170.949 1635.54 171.193 1635.14 171.4C1634.74 171.607 1634.29 171.711 1633.81 171.711C1633.23 171.711 1632.75 171.535 1632.38 171.184C1632.01 170.828 1631.83 170.385 1631.83 169.854C1631.83 169.271 1632.01 168.82 1632.37 168.5C1632.74 168.18 1633.21 167.982 1633.8 167.908L1635.48 167.697ZM1643.05 169.813C1643.32 170.465 1643.8 170.791 1644.5 170.791C1645.23 170.791 1645.74 170.447 1646.01 169.76C1646.17 169.381 1646.24 168.896 1646.24 168.307C1646.24 167.764 1646.16 167.311 1645.99 166.947C1645.71 166.326 1645.2 166.016 1644.48 166.016C1644.03 166.016 1643.63 166.215 1643.31 166.613C1642.98 167.008 1642.82 167.619 1642.82 168.447C1642.82 168.99 1642.9 169.445 1643.05 169.813ZM1645.69 165.477C1645.89 165.617 1646.07 165.824 1646.25 166.098V165.225H1647.26V174.002H1646.2V170.779C1646.02 171.061 1645.78 171.285 1645.46 171.453C1645.15 171.617 1644.77 171.699 1644.3 171.699C1643.63 171.699 1643.04 171.438 1642.51 170.914C1641.98 170.391 1641.72 169.594 1641.72 168.523C1641.72 167.52 1641.96 166.695 1642.46 166.051C1642.95 165.406 1643.59 165.084 1644.38 165.084C1644.9 165.084 1645.34 165.215 1645.69 165.477ZM1649.87 165.225V169.391C1649.87 169.711 1649.93 169.973 1650.03 170.176C1650.21 170.551 1650.56 170.738 1651.08 170.738C1651.81 170.738 1652.31 170.41 1652.58 169.754C1652.72 169.402 1652.79 168.92 1652.79 168.307V165.225H1653.85V171.5H1652.85L1652.86 170.574C1652.73 170.813 1652.56 171.014 1652.35 171.178C1651.95 171.506 1651.46 171.67 1650.89 171.67C1649.99 171.67 1649.38 171.371 1649.06 170.773C1648.88 170.453 1648.8 170.025 1648.8 169.49V165.225H1649.87ZM1657.43 170.814C1657.8 170.814 1658.16 170.729 1658.51 170.557C1659.1 170.271 1659.39 169.805 1659.39 169.156V168.307C1659.26 168.389 1659.1 168.457 1658.89 168.512C1658.69 168.566 1658.49 168.605 1658.29 168.629L1657.66 168.711C1657.27 168.762 1656.99 168.842 1656.79 168.951C1656.47 169.135 1656.31 169.428 1656.31 169.83C1656.31 170.135 1656.42 170.375 1656.64 170.551C1656.87 170.727 1657.13 170.814 1657.43 170.814ZM1658.86 167.697C1659.11 167.666 1659.27 167.564 1659.35 167.393C1659.4 167.299 1659.42 167.164 1659.42 166.988C1659.42 166.629 1659.29 166.369 1659.03 166.209C1658.78 166.045 1658.41 165.963 1657.94 165.963C1657.39 165.963 1657 166.111 1656.77 166.408C1656.64 166.572 1656.55 166.816 1656.51 167.141H1655.53C1655.55 166.367 1655.8 165.83 1656.28 165.529C1656.76 165.225 1657.32 165.072 1657.96 165.072C1658.7 165.072 1659.3 165.213 1659.76 165.494C1660.22 165.775 1660.45 166.213 1660.45 166.807V170.422C1660.45 170.531 1660.47 170.619 1660.51 170.686C1660.56 170.752 1660.65 170.785 1660.8 170.785C1660.84 170.785 1660.9 170.783 1660.96 170.779C1661.01 170.771 1661.08 170.762 1661.14 170.75V171.529C1660.98 171.576 1660.85 171.605 1660.77 171.617C1660.68 171.629 1660.56 171.635 1660.42 171.635C1660.05 171.635 1659.79 171.506 1659.62 171.248C1659.54 171.111 1659.48 170.918 1659.44 170.668C1659.23 170.949 1658.92 171.193 1658.52 171.4C1658.12 171.607 1657.67 171.711 1657.19 171.711C1656.61 171.711 1656.13 171.535 1655.76 171.184C1655.39 170.828 1655.21 170.385 1655.21 169.854C1655.21 169.271 1655.39 168.82 1655.75 168.5C1656.12 168.18 1656.59 167.982 1657.18 167.908L1658.86 167.697ZM1662.21 162.893H1663.26V171.5H1662.21V162.893ZM1664.85 165.254H1665.92V171.5H1664.85V165.254ZM1665.38 164.158C1665.25 164.158 1665.13 164.143 1665.02 164.111C1664.91 164.08 1664.81 164.035 1664.73 163.977C1664.66 163.918 1664.59 163.85 1664.55 163.771C1664.5 163.693 1664.48 163.607 1664.48 163.514C1664.48 163.416 1664.51 163.324 1664.55 163.238C1664.6 163.152 1664.66 163.078 1664.74 163.016C1664.82 162.953 1664.92 162.904 1665.03 162.869C1665.14 162.834 1665.25 162.816 1665.38 162.816C1665.5 162.816 1665.62 162.834 1665.72 162.869C1665.83 162.904 1665.93 162.953 1666.01 163.016C1666.09 163.078 1666.15 163.152 1666.2 163.238C1666.25 163.324 1666.27 163.416 1666.27 163.514C1666.27 163.607 1666.25 163.693 1666.2 163.771C1666.16 163.85 1666.1 163.918 1666.02 163.977C1665.94 164.035 1665.85 164.08 1665.74 164.111C1665.63 164.143 1665.51 164.158 1665.38 164.158ZM1664.85 165.254H1665.92V171.5H1664.85V165.254Z" fill="#B22C1B"/>
<path d="M1761.07 63.8179H1763.52V81.75H1761.07V63.8179ZM1782.41 69.2012H1780.04C1779.77 68.0456 1779.23 67.13 1778.43 66.4546C1777.63 65.7791 1776.51 65.4414 1775.06 65.4414C1773.29 65.4414 1771.87 66.064 1770.78 67.3091C1769.69 68.5461 1769.15 70.4463 1769.15 73.0098C1769.15 75.1094 1769.64 76.8143 1770.62 78.1245C1771.6 79.4266 1773.07 80.0776 1775.01 80.0776C1776.8 80.0776 1778.16 79.39 1779.1 78.0146C1779.6 77.2904 1779.97 76.3382 1780.21 75.1582H1782.58C1782.37 77.0462 1781.67 78.6291 1780.48 79.9067C1779.06 81.4448 1777.14 82.2139 1774.72 82.2139C1772.63 82.2139 1770.89 81.5832 1769.47 80.3218C1767.61 78.6535 1766.67 76.0778 1766.67 72.5947C1766.67 69.9499 1767.37 67.7811 1768.77 66.0884C1770.29 64.2492 1772.37 63.3296 1775.04 63.3296C1777.31 63.3296 1779.07 63.9277 1780.32 65.124C1781.57 66.3203 1782.27 67.6794 1782.41 69.2012ZM1785.78 63.8179H1793.85C1795.44 63.8179 1796.73 64.2695 1797.7 65.1729C1798.68 66.068 1799.17 67.3294 1799.17 68.957C1799.17 70.3568 1798.73 71.5775 1797.86 72.6191C1796.99 73.6527 1795.65 74.1694 1793.85 74.1694H1788.21V81.75H1785.78V63.8179ZM1795.25 66.2837C1794.71 66.0314 1793.98 65.9053 1793.04 65.9053H1788.21V72.1187H1793.04C1794.13 72.1187 1795.01 71.8867 1795.69 71.4229C1796.37 70.959 1796.72 70.1411 1796.72 68.9692C1796.72 67.6509 1796.23 66.7557 1795.25 66.2837ZM1817.15 69.2012H1814.78C1814.51 68.0456 1813.98 67.13 1813.17 66.4546C1812.37 65.7791 1811.25 65.4414 1809.8 65.4414C1808.04 65.4414 1806.61 66.064 1805.52 67.3091C1804.43 68.5461 1803.89 70.4463 1803.89 73.0098C1803.89 75.1094 1804.38 76.8143 1805.36 78.1245C1806.34 79.4266 1807.81 80.0776 1809.75 80.0776C1811.54 80.0776 1812.91 79.39 1813.84 78.0146C1814.34 77.2904 1814.71 76.3382 1814.95 75.1582H1817.32C1817.11 77.0462 1816.41 78.6291 1815.22 79.9067C1813.8 81.4448 1811.88 82.2139 1809.46 82.2139C1807.38 82.2139 1805.63 81.5832 1804.21 80.3218C1802.35 78.6535 1801.42 76.0778 1801.42 72.5947C1801.42 69.9499 1802.11 67.7811 1803.51 66.0884C1805.03 64.2492 1807.12 63.3296 1809.78 63.3296C1812.05 63.3296 1813.81 63.9277 1815.06 65.124C1816.32 66.3203 1817.01 67.6794 1817.15 69.2012ZM1716.01 90.8179H1718.88L1727.94 105.344V90.8179H1730.25V108.75H1727.53L1718.33 94.2358V108.75H1716.01V90.8179ZM1742.78 102C1742.78 100.779 1742.59 99.786 1742.2 99.021C1741.58 97.8166 1740.51 97.2144 1739 97.2144C1737.66 97.2144 1736.68 97.7271 1736.07 98.7524C1735.46 99.7778 1735.16 101.015 1735.16 102.463C1735.16 103.855 1735.46 105.015 1736.07 105.942C1736.68 106.87 1737.65 107.334 1738.98 107.334C1740.43 107.334 1741.43 106.785 1741.97 105.686C1742.51 104.579 1742.78 103.35 1742.78 102ZM1745.08 101.938C1745.08 104.046 1744.57 105.788 1743.54 107.163C1742.52 108.538 1740.93 109.226 1738.77 109.226C1736.97 109.226 1735.54 108.62 1734.48 107.407C1733.43 106.187 1732.9 104.551 1732.9 102.5C1732.9 100.303 1733.45 98.5531 1734.57 97.251C1735.68 95.9489 1737.18 95.2979 1739.06 95.2979C1740.75 95.2979 1742.17 95.8594 1743.33 96.9824C1744.5 98.1055 1745.08 99.7575 1745.08 101.938ZM1747.77 95.6763H1749.85V97.9346C1750.02 97.4951 1750.44 96.9621 1751.11 96.3354C1751.78 95.7007 1752.55 95.3833 1753.42 95.3833C1753.46 95.3833 1753.53 95.3874 1753.62 95.3955C1753.72 95.4036 1753.89 95.4199 1754.12 95.4443V97.7637C1753.99 97.7393 1753.87 97.723 1753.76 97.7148C1753.65 97.7067 1753.53 97.7026 1753.4 97.7026C1752.3 97.7026 1751.45 98.0607 1750.85 98.7769C1750.26 99.4849 1749.96 100.303 1749.96 101.23V108.75H1747.77V95.6763ZM1756.47 92.0264H1758.69V95.6763H1760.78V97.4707H1758.69V106.003C1758.69 106.459 1758.85 106.764 1759.15 106.919C1759.33 107.008 1759.61 107.053 1760.01 107.053C1760.11 107.053 1760.23 107.053 1760.35 107.053C1760.47 107.045 1760.62 107.033 1760.78 107.017V108.75C1760.53 108.823 1760.26 108.876 1759.98 108.909C1759.72 108.941 1759.42 108.958 1759.11 108.958C1758.08 108.958 1757.38 108.697 1757.02 108.176C1756.65 107.647 1756.47 106.964 1756.47 106.125V97.4707H1754.7V95.6763H1756.47V92.0264ZM1762.99 90.7568H1765.18V97.4463C1765.71 96.7871 1766.17 96.3232 1766.59 96.0547C1767.3 95.5908 1768.18 95.3589 1769.24 95.3589C1771.13 95.3589 1772.42 96.0221 1773.09 97.3486C1773.46 98.0729 1773.64 99.078 1773.64 100.364V108.75H1771.39V100.51C1771.39 99.55 1771.26 98.846 1771.02 98.3984C1770.62 97.6823 1769.87 97.3242 1768.77 97.3242C1767.86 97.3242 1767.04 97.6375 1766.3 98.2642C1765.55 98.8908 1765.18 100.075 1765.18 101.816V108.75H1762.99V90.7568ZM1777.92 95.6763L1780.43 105.979L1782.98 95.6763H1785.45L1788.01 105.918L1790.69 95.6763H1792.88L1789.09 108.75H1786.8L1784.14 98.6304L1781.57 108.75H1779.28L1775.51 95.6763H1777.92ZM1805.1 97.7271C1805.54 98.3862 1805.83 99.1553 1805.98 100.034C1806.11 100.636 1806.18 101.597 1806.18 102.915H1796.59C1796.63 104.242 1796.95 105.308 1797.53 106.113C1798.12 106.911 1799.03 107.31 1800.26 107.31C1801.4 107.31 1802.32 106.931 1803 106.174C1803.39 105.735 1803.67 105.226 1803.83 104.648H1805.99C1805.94 105.129 1805.74 105.666 1805.42 106.26C1805.1 106.846 1804.74 107.326 1804.34 107.7C1803.68 108.351 1802.85 108.791 1801.87 109.019C1801.34 109.149 1800.74 109.214 1800.07 109.214C1798.44 109.214 1797.07 108.624 1795.93 107.444C1794.8 106.256 1794.24 104.596 1794.24 102.463C1794.24 100.364 1794.81 98.6589 1795.95 97.3486C1797.09 96.0384 1798.57 95.3833 1800.41 95.3833C1801.34 95.3833 1802.24 95.603 1803.11 96.0425C1803.98 96.4738 1804.65 97.0353 1805.1 97.7271ZM1803.92 101.169C1803.83 100.217 1803.62 99.4564 1803.29 98.8867C1802.69 97.8288 1801.69 97.2998 1800.28 97.2998C1799.27 97.2998 1798.42 97.666 1797.74 98.3984C1797.06 99.1227 1796.69 100.046 1796.65 101.169H1803.92ZM1810.19 104.648C1810.26 105.381 1810.44 105.942 1810.74 106.333C1811.29 107.041 1812.25 107.395 1813.62 107.395C1814.44 107.395 1815.15 107.22 1815.77 106.87C1816.39 106.512 1816.7 105.963 1816.7 105.222C1816.7 104.661 1816.45 104.233 1815.95 103.94C1815.64 103.761 1815.01 103.554 1814.07 103.318L1812.33 102.878C1811.21 102.602 1810.39 102.292 1809.86 101.951C1808.92 101.357 1808.45 100.535 1808.45 99.4849C1808.45 98.2479 1808.89 97.2469 1809.78 96.4819C1810.67 95.717 1811.87 95.3345 1813.38 95.3345C1815.35 95.3345 1816.77 95.9123 1817.64 97.0679C1818.18 97.8003 1818.45 98.5897 1818.43 99.436H1816.36C1816.32 98.9396 1816.14 98.488 1815.83 98.0811C1815.33 97.5033 1814.45 97.2144 1813.21 97.2144C1812.38 97.2144 1811.75 97.373 1811.31 97.6904C1810.89 98.0078 1810.68 98.4269 1810.68 98.9478C1810.68 99.5174 1810.96 99.9731 1811.52 100.315C1811.85 100.518 1812.33 100.697 1812.96 100.852L1814.42 101.206C1815.99 101.589 1817.05 101.959 1817.59 102.317C1818.44 102.878 1818.87 103.761 1818.87 104.966C1818.87 106.13 1818.43 107.135 1817.54 107.981C1816.66 108.827 1815.32 109.25 1813.51 109.25C1811.57 109.25 1810.19 108.811 1809.37 107.932C1808.57 107.045 1808.14 105.951 1808.08 104.648H1810.19ZM1821.83 92.0264H1824.05V95.6763H1826.13V97.4707H1824.05V106.003C1824.05 106.459 1824.2 106.764 1824.51 106.919C1824.68 107.008 1824.97 107.053 1825.37 107.053C1825.47 107.053 1825.58 107.053 1825.71 107.053C1825.83 107.045 1825.97 107.033 1826.13 107.017V108.75C1825.88 108.823 1825.62 108.876 1825.34 108.909C1825.07 108.941 1824.78 108.958 1824.46 108.958C1823.44 108.958 1822.74 108.697 1822.37 108.176C1822.01 107.647 1821.83 106.964 1821.83 106.125V97.4707H1820.06V95.6763H1821.83V92.0264ZM1838.48 97.7271C1838.92 98.3862 1839.21 99.1553 1839.35 100.034C1839.48 100.636 1839.55 101.597 1839.55 102.915H1829.97C1830.01 104.242 1830.32 105.308 1830.91 106.113C1831.49 106.911 1832.4 107.31 1833.63 107.31C1834.78 107.31 1835.69 106.931 1836.38 106.174C1836.77 105.735 1837.04 105.226 1837.21 104.648H1839.37C1839.31 105.129 1839.12 105.666 1838.79 106.26C1838.48 106.846 1838.12 107.326 1837.72 107.7C1837.05 108.351 1836.23 108.791 1835.24 109.019C1834.71 109.149 1834.11 109.214 1833.45 109.214C1831.82 109.214 1830.44 108.624 1829.31 107.444C1828.18 106.256 1827.61 104.596 1827.61 102.463C1827.61 100.364 1828.18 98.6589 1829.32 97.3486C1830.46 96.0384 1831.95 95.3833 1833.79 95.3833C1834.72 95.3833 1835.62 95.603 1836.49 96.0425C1837.36 96.4738 1838.02 97.0353 1838.48 97.7271ZM1837.29 101.169C1837.2 100.217 1836.99 99.4564 1836.67 98.8867C1836.07 97.8288 1835.06 97.2998 1833.65 97.2998C1832.64 97.2998 1831.8 97.666 1831.11 98.3984C1830.43 99.1227 1830.07 100.046 1830.03 101.169H1837.29ZM1842.32 95.6763H1844.41V97.9346C1844.58 97.4951 1845 96.9621 1845.67 96.3354C1846.33 95.7007 1847.1 95.3833 1847.97 95.3833C1848.01 95.3833 1848.08 95.3874 1848.18 95.3955C1848.28 95.4036 1848.44 95.4199 1848.68 95.4443V97.7637C1848.55 97.7393 1848.43 97.723 1848.31 97.7148C1848.21 97.7067 1848.09 97.7026 1847.96 97.7026C1846.85 97.7026 1846 98.0607 1845.41 98.7769C1844.82 99.4849 1844.52 100.303 1844.52 101.23V108.75H1842.32V95.6763ZM1850.58 95.6763H1852.67V97.5317C1853.29 96.7668 1853.95 96.2174 1854.64 95.8838C1855.33 95.5501 1856.1 95.3833 1856.94 95.3833C1858.8 95.3833 1860.05 96.0303 1860.7 97.3242C1861.06 98.0322 1861.24 99.0454 1861.24 100.364V108.75H1859.01V100.51C1859.01 99.7127 1858.89 99.0698 1858.65 98.5815C1858.26 97.7677 1857.56 97.3608 1856.53 97.3608C1856.01 97.3608 1855.58 97.4137 1855.25 97.5195C1854.65 97.6986 1854.12 98.0566 1853.66 98.5938C1853.29 99.0251 1853.05 99.4727 1852.94 99.9365C1852.84 100.392 1852.78 101.047 1852.78 101.902V108.75H1850.58V95.6763ZM1760.51 126.033C1761.65 126.033 1762.55 125.805 1763.21 125.35C1763.87 124.894 1764.21 124.072 1764.21 122.884C1764.21 121.606 1763.74 120.735 1762.82 120.271C1762.32 120.027 1761.66 119.905 1760.83 119.905H1754.89V126.033H1760.51ZM1752.46 117.818H1760.77C1762.13 117.818 1763.26 118.017 1764.15 118.416C1765.83 119.181 1766.67 120.593 1766.67 122.652C1766.67 123.726 1766.45 124.605 1766 125.289C1765.56 125.972 1764.94 126.521 1764.15 126.937C1764.85 127.221 1765.37 127.596 1765.72 128.06C1766.08 128.523 1766.28 129.276 1766.32 130.318L1766.41 132.723C1766.43 133.406 1766.49 133.915 1766.58 134.249C1766.72 134.818 1766.98 135.184 1767.36 135.347V135.75H1764.38C1764.3 135.595 1764.23 135.396 1764.18 135.152C1764.13 134.908 1764.09 134.436 1764.06 133.736L1763.92 130.745C1763.86 129.573 1763.42 128.788 1762.61 128.389C1762.15 128.169 1761.42 128.06 1760.42 128.06H1754.89V135.75H1752.46V117.818ZM1772.14 122.676V131.355C1772.14 132.023 1772.25 132.568 1772.46 132.991C1772.85 133.772 1773.58 134.163 1774.65 134.163C1776.17 134.163 1777.22 133.479 1777.77 132.112C1778.07 131.38 1778.22 130.375 1778.22 129.097V122.676H1780.42V135.75H1778.34L1778.37 133.821C1778.08 134.318 1777.73 134.737 1777.31 135.079C1776.47 135.762 1775.45 136.104 1774.25 136.104C1772.39 136.104 1771.12 135.481 1770.45 134.236C1770.08 133.569 1769.9 132.678 1769.9 131.563V122.676H1772.14ZM1785.17 131.648C1785.23 132.381 1785.42 132.942 1785.72 133.333C1786.27 134.041 1787.23 134.395 1788.6 134.395C1789.41 134.395 1790.13 134.22 1790.75 133.87C1791.36 133.512 1791.67 132.963 1791.67 132.222C1791.67 131.661 1791.43 131.233 1790.93 130.94C1790.61 130.761 1789.99 130.554 1789.05 130.318L1787.3 129.878C1786.19 129.602 1785.37 129.292 1784.84 128.951C1783.89 128.357 1783.42 127.535 1783.42 126.485C1783.42 125.248 1783.87 124.247 1784.75 123.482C1785.65 122.717 1786.85 122.334 1788.35 122.334C1790.32 122.334 1791.74 122.912 1792.61 124.068C1793.16 124.8 1793.42 125.59 1793.41 126.436H1791.33C1791.29 125.94 1791.12 125.488 1790.81 125.081C1790.3 124.503 1789.43 124.214 1788.18 124.214C1787.35 124.214 1786.72 124.373 1786.29 124.69C1785.87 125.008 1785.66 125.427 1785.66 125.948C1785.66 126.517 1785.94 126.973 1786.5 127.315C1786.82 127.518 1787.3 127.697 1787.94 127.852L1789.39 128.206C1790.97 128.589 1792.03 128.959 1792.56 129.317C1793.42 129.878 1793.85 130.761 1793.85 131.966C1793.85 133.13 1793.4 134.135 1792.52 134.981C1791.64 135.827 1790.29 136.25 1788.49 136.25C1786.54 136.25 1785.16 135.811 1784.35 134.932C1783.54 134.045 1783.11 132.951 1783.06 131.648H1785.17ZM1797.67 131.648C1797.73 132.381 1797.92 132.942 1798.22 133.333C1798.77 134.041 1799.73 134.395 1801.1 134.395C1801.91 134.395 1802.63 134.22 1803.25 133.87C1803.86 133.512 1804.17 132.963 1804.17 132.222C1804.17 131.661 1803.93 131.233 1803.43 130.94C1803.11 130.761 1802.49 130.554 1801.55 130.318L1799.8 129.878C1798.69 129.602 1797.87 129.292 1797.34 128.951C1796.39 128.357 1795.92 127.535 1795.92 126.485C1795.92 125.248 1796.37 124.247 1797.25 123.482C1798.15 122.717 1799.35 122.334 1800.85 122.334C1802.82 122.334 1804.24 122.912 1805.11 124.068C1805.66 124.8 1805.92 125.59 1805.91 126.436H1803.83C1803.79 125.94 1803.62 125.488 1803.31 125.081C1802.8 124.503 1801.93 124.214 1800.68 124.214C1799.85 124.214 1799.22 124.373 1798.79 124.69C1798.37 125.008 1798.16 125.427 1798.16 125.948C1798.16 126.517 1798.44 126.973 1799 127.315C1799.32 127.518 1799.8 127.697 1800.44 127.852L1801.89 128.206C1803.47 128.589 1804.53 128.959 1805.06 129.317C1805.92 129.878 1806.35 130.761 1806.35 131.966C1806.35 133.13 1805.9 134.135 1805.02 134.981C1804.14 135.827 1802.79 136.25 1800.99 136.25C1799.04 136.25 1797.66 135.811 1796.85 134.932C1796.04 134.045 1795.61 132.951 1795.56 131.648H1797.67ZM1808.86 122.737H1811.1V135.75H1808.86V122.737ZM1809.96 120.455C1809.69 120.455 1809.44 120.422 1809.2 120.357C1808.98 120.292 1808.78 120.198 1808.62 120.076C1808.45 119.954 1808.32 119.812 1808.23 119.649C1808.14 119.486 1808.09 119.307 1808.09 119.112C1808.09 118.908 1808.14 118.717 1808.24 118.538C1808.34 118.359 1808.47 118.204 1808.63 118.074C1808.8 117.944 1809 117.842 1809.23 117.769C1809.46 117.696 1809.7 117.659 1809.96 117.659C1810.22 117.659 1810.46 117.696 1810.68 117.769C1810.91 117.842 1811.1 117.944 1811.27 118.074C1811.44 118.204 1811.57 118.359 1811.67 118.538C1811.77 118.717 1811.82 118.908 1811.82 119.112C1811.82 119.307 1811.77 119.486 1811.67 119.649C1811.58 119.812 1811.45 119.954 1811.29 120.076C1811.13 120.198 1810.93 120.292 1810.7 120.357C1810.48 120.422 1810.23 120.455 1809.96 120.455ZM1808.86 122.737H1811.1V135.75H1808.86V122.737ZM1818.46 134.322C1819.23 134.322 1819.98 134.143 1820.7 133.785C1821.92 133.191 1822.53 132.218 1822.53 130.867V129.097C1822.26 129.268 1821.92 129.41 1821.5 129.524C1821.07 129.638 1820.66 129.72 1820.25 129.769L1818.92 129.939C1818.12 130.045 1817.52 130.212 1817.13 130.44C1816.45 130.822 1816.11 131.433 1816.11 132.271C1816.11 132.906 1816.34 133.406 1816.81 133.772C1817.27 134.139 1817.82 134.322 1818.46 134.322ZM1821.43 127.828C1821.94 127.763 1822.28 127.551 1822.45 127.193C1822.55 126.998 1822.59 126.717 1822.59 126.351C1822.59 125.602 1822.33 125.061 1821.79 124.727C1821.26 124.385 1820.5 124.214 1819.51 124.214C1818.36 124.214 1817.54 124.524 1817.06 125.142C1816.8 125.484 1816.62 125.993 1816.54 126.668H1814.49C1814.53 125.057 1815.05 123.938 1816.05 123.311C1817.06 122.676 1818.23 122.359 1819.55 122.359C1821.09 122.359 1822.34 122.652 1823.3 123.238C1824.25 123.824 1824.73 124.735 1824.73 125.972V133.504C1824.73 133.732 1824.78 133.915 1824.86 134.053C1824.96 134.192 1825.16 134.261 1825.46 134.261C1825.56 134.261 1825.67 134.257 1825.79 134.249C1825.91 134.232 1826.04 134.212 1826.18 134.188V135.811C1825.84 135.909 1825.58 135.97 1825.4 135.994C1825.22 136.019 1824.98 136.031 1824.67 136.031C1823.91 136.031 1823.36 135.762 1823.02 135.225C1822.84 134.94 1822.72 134.537 1822.64 134.017C1822.2 134.603 1821.55 135.111 1820.71 135.542C1819.88 135.974 1818.95 136.189 1817.94 136.189C1816.73 136.189 1815.74 135.823 1814.96 135.091C1814.2 134.35 1813.82 133.427 1813.82 132.32C1813.82 131.107 1814.2 130.167 1814.95 129.5C1815.71 128.833 1816.7 128.422 1817.93 128.267L1821.43 127.828ZM1737.95 162.701L1736.73 164.178L1733.96 162.066C1733.29 162.433 1732.57 162.726 1731.79 162.945C1731.01 163.165 1730.17 163.275 1729.25 163.275C1726.46 163.275 1724.28 162.363 1722.7 160.541C1721.31 158.766 1720.62 156.545 1720.62 153.875C1720.62 151.45 1721.22 149.375 1722.42 147.65C1723.97 145.436 1726.26 144.33 1729.28 144.33C1732.45 144.33 1734.79 145.347 1736.31 147.381C1737.5 148.968 1738.1 150.999 1738.1 153.473C1738.1 154.628 1737.95 155.739 1737.67 156.805C1737.24 158.433 1736.51 159.759 1735.48 160.785L1737.95 162.701ZM1732.1 160.589L1730.14 159.051L1731.36 157.55L1733.7 159.369C1734.44 158.522 1734.94 157.574 1735.2 156.524C1735.47 155.475 1735.61 154.47 1735.61 153.509C1735.61 151.402 1735.05 149.705 1733.95 148.419C1732.85 147.133 1731.34 146.49 1729.43 146.49C1727.49 146.49 1725.96 147.109 1724.83 148.346C1723.7 149.575 1723.13 151.471 1723.13 154.034C1723.13 156.191 1723.67 157.908 1724.75 159.186C1725.85 160.463 1727.44 161.102 1729.54 161.102C1730.04 161.102 1730.52 161.069 1730.96 161.004C1731.4 160.931 1731.78 160.793 1732.1 160.589ZM1742.91 149.676V158.355C1742.91 159.023 1743.01 159.568 1743.22 159.991C1743.61 160.772 1744.34 161.163 1745.41 161.163C1746.94 161.163 1747.98 160.479 1748.53 159.112C1748.84 158.38 1748.99 157.375 1748.99 156.097V149.676H1751.18V162.75H1749.11L1749.13 160.821C1748.85 161.318 1748.49 161.737 1748.07 162.079C1747.23 162.762 1746.21 163.104 1745.02 163.104C1743.15 163.104 1741.89 162.481 1741.21 161.236C1740.84 160.569 1740.66 159.678 1740.66 158.563V149.676H1742.91ZM1758.65 161.322C1759.43 161.322 1760.18 161.143 1760.9 160.785C1762.12 160.191 1762.73 159.218 1762.73 157.867V156.097C1762.46 156.268 1762.12 156.41 1761.69 156.524C1761.27 156.638 1760.86 156.72 1760.45 156.769L1759.12 156.939C1758.32 157.045 1757.72 157.212 1757.32 157.44C1756.65 157.822 1756.31 158.433 1756.31 159.271C1756.31 159.906 1756.54 160.406 1757.01 160.772C1757.47 161.139 1758.02 161.322 1758.65 161.322ZM1761.63 154.828C1762.14 154.763 1762.47 154.551 1762.65 154.193C1762.74 153.998 1762.79 153.717 1762.79 153.351C1762.79 152.602 1762.52 152.061 1761.99 151.727C1761.46 151.385 1760.7 151.214 1759.7 151.214C1758.56 151.214 1757.74 151.524 1757.26 152.142C1756.99 152.484 1756.82 152.993 1756.74 153.668H1754.69C1754.73 152.057 1755.25 150.938 1756.25 150.311C1757.26 149.676 1758.43 149.359 1759.75 149.359C1761.29 149.359 1762.54 149.652 1763.5 150.238C1764.45 150.824 1764.93 151.735 1764.93 152.972V160.504C1764.93 160.732 1764.97 160.915 1765.06 161.053C1765.16 161.192 1765.36 161.261 1765.66 161.261C1765.76 161.261 1765.87 161.257 1765.99 161.249C1766.11 161.232 1766.24 161.212 1766.38 161.188V162.811C1766.04 162.909 1765.78 162.97 1765.6 162.994C1765.42 163.019 1765.18 163.031 1764.87 163.031C1764.11 163.031 1763.56 162.762 1763.22 162.225C1763.04 161.94 1762.91 161.537 1762.84 161.017C1762.39 161.603 1761.75 162.111 1760.91 162.542C1760.07 162.974 1759.15 163.189 1758.14 163.189C1756.93 163.189 1755.94 162.823 1755.16 162.091C1754.4 161.35 1754.02 160.427 1754.02 159.32C1754.02 158.107 1754.39 157.167 1755.15 156.5C1755.91 155.833 1756.9 155.422 1758.13 155.267L1761.63 154.828ZM1768.6 144.818H1770.8V162.75H1768.6V144.818ZM1774.11 149.737H1776.34V162.75H1774.11V149.737ZM1775.21 147.455C1774.94 147.455 1774.69 147.422 1774.45 147.357C1774.22 147.292 1774.03 147.198 1773.86 147.076C1773.7 146.954 1773.57 146.812 1773.47 146.649C1773.38 146.486 1773.34 146.307 1773.34 146.112C1773.34 145.908 1773.39 145.717 1773.49 145.538C1773.58 145.359 1773.71 145.204 1773.88 145.074C1774.05 144.944 1774.25 144.842 1774.47 144.769C1774.7 144.696 1774.95 144.659 1775.21 144.659C1775.47 144.659 1775.71 144.696 1775.93 144.769C1776.15 144.842 1776.35 144.944 1776.51 145.074C1776.68 145.204 1776.82 145.359 1776.92 145.538C1777.01 145.717 1777.06 145.908 1777.06 146.112C1777.06 146.307 1777.01 146.486 1776.92 146.649C1776.83 146.812 1776.7 146.954 1776.54 147.076C1776.37 147.198 1776.18 147.292 1775.95 147.357C1775.72 147.422 1775.48 147.455 1775.21 147.455ZM1774.11 149.737H1776.34V162.75H1774.11V149.737ZM1780.7 145.685C1781.21 144.936 1782.2 144.562 1783.67 144.562C1783.8 144.562 1783.95 144.566 1784.09 144.574C1784.24 144.582 1784.41 144.594 1784.59 144.61V146.612C1784.37 146.596 1784.2 146.588 1784.09 146.588C1784 146.58 1783.9 146.576 1783.81 146.576C1783.15 146.576 1782.75 146.751 1782.62 147.101C1782.49 147.442 1782.42 148.321 1782.42 149.737H1784.59V151.471H1782.4V162.75H1780.22V151.471H1778.4V149.737H1780.22V147.687C1780.26 146.775 1780.41 146.108 1780.7 145.685ZM1786.63 149.737H1788.87V162.75H1786.63V149.737ZM1787.73 147.455C1787.46 147.455 1787.21 147.422 1786.97 147.357C1786.75 147.292 1786.55 147.198 1786.39 147.076C1786.23 146.954 1786.1 146.812 1786 146.649C1785.91 146.486 1785.86 146.307 1785.86 146.112C1785.86 145.908 1785.91 145.717 1786.01 145.538C1786.11 145.359 1786.24 145.204 1786.4 145.074C1786.57 144.944 1786.77 144.842 1787 144.769C1787.23 144.696 1787.47 144.659 1787.73 144.659C1787.99 144.659 1788.23 144.696 1788.45 144.769C1788.68 144.842 1788.87 144.944 1789.04 145.074C1789.21 145.204 1789.34 145.359 1789.44 145.538C1789.54 145.717 1789.59 145.908 1789.59 146.112C1789.59 146.307 1789.54 146.486 1789.44 146.649C1789.35 146.812 1789.22 146.954 1789.06 147.076C1788.9 147.198 1788.7 147.292 1788.48 147.357C1788.25 147.422 1788 147.455 1787.73 147.455ZM1786.63 149.737H1788.87V162.75H1786.63V149.737ZM1802.5 154.071H1800.37C1800.24 153.265 1799.94 152.598 1799.47 152.069C1799.01 151.532 1798.27 151.263 1797.24 151.263C1795.84 151.263 1794.84 151.947 1794.24 153.314C1793.85 154.201 1793.65 155.296 1793.65 156.598C1793.65 157.908 1793.93 159.011 1794.48 159.906C1795.03 160.801 1795.91 161.249 1797.09 161.249C1798.01 161.249 1798.73 160.972 1799.25 160.418C1799.79 159.857 1800.16 159.092 1800.37 158.124H1802.5C1802.26 159.857 1801.65 161.126 1800.67 161.932C1799.69 162.73 1798.44 163.128 1796.92 163.128C1795.21 163.128 1793.85 162.506 1792.83 161.261C1791.82 160.007 1791.31 158.445 1791.31 156.573C1791.31 154.278 1791.87 152.492 1792.98 151.214C1794.09 149.937 1795.51 149.298 1797.24 149.298C1798.71 149.298 1799.91 149.656 1800.83 150.372C1801.76 151.088 1802.31 152.321 1802.5 154.071ZM1808.73 161.322C1809.5 161.322 1810.25 161.143 1810.97 160.785C1812.19 160.191 1812.8 159.218 1812.8 157.867V156.097C1812.54 156.268 1812.19 156.41 1811.77 156.524C1811.34 156.638 1810.93 156.72 1810.52 156.769L1809.19 156.939C1808.39 157.045 1807.8 157.212 1807.4 157.44C1806.72 157.822 1806.38 158.433 1806.38 159.271C1806.38 159.906 1806.62 160.406 1807.08 160.772C1807.54 161.139 1808.09 161.322 1808.73 161.322ZM1811.71 154.828C1812.21 154.763 1812.55 154.551 1812.72 154.193C1812.82 153.998 1812.87 153.717 1812.87 153.351C1812.87 152.602 1812.6 152.061 1812.06 151.727C1811.53 151.385 1810.77 151.214 1809.78 151.214C1808.63 151.214 1807.82 151.524 1807.34 152.142C1807.07 152.484 1806.89 152.993 1806.81 153.668H1804.76C1804.8 152.057 1805.32 150.938 1806.32 150.311C1807.33 149.676 1808.5 149.359 1809.83 149.359C1811.36 149.359 1812.61 149.652 1813.57 150.238C1814.53 150.824 1815 151.735 1815 152.972V160.504C1815 160.732 1815.05 160.915 1815.14 161.053C1815.23 161.192 1815.43 161.261 1815.73 161.261C1815.83 161.261 1815.94 161.257 1816.06 161.249C1816.19 161.232 1816.32 161.212 1816.45 161.188V162.811C1816.11 162.909 1815.85 162.97 1815.67 162.994C1815.49 163.019 1815.25 163.031 1814.94 163.031C1814.18 163.031 1813.63 162.762 1813.29 162.225C1813.11 161.94 1812.99 161.537 1812.91 161.017C1812.47 161.603 1811.82 162.111 1810.99 162.542C1810.15 162.974 1809.22 163.189 1808.21 163.189C1807 163.189 1806.01 162.823 1805.24 162.091C1804.47 161.35 1804.09 160.427 1804.09 159.32C1804.09 158.107 1804.47 157.167 1805.22 156.5C1805.98 155.833 1806.97 155.422 1808.2 155.267L1811.71 154.828ZM1819.05 146.026H1821.28V149.676H1823.36V151.471H1821.28V160.003C1821.28 160.459 1821.43 160.764 1821.74 160.919C1821.91 161.008 1822.2 161.053 1822.59 161.053C1822.7 161.053 1822.81 161.053 1822.94 161.053C1823.06 161.045 1823.2 161.033 1823.36 161.017V162.75C1823.11 162.823 1822.85 162.876 1822.57 162.909C1822.3 162.941 1822.01 162.958 1821.69 162.958C1820.67 162.958 1819.97 162.697 1819.6 162.176C1819.24 161.647 1819.05 160.964 1819.05 160.125V151.471H1817.28V149.676H1819.05V146.026ZM1825.57 149.737H1827.81V162.75H1825.57V149.737ZM1826.67 147.455C1826.4 147.455 1826.15 147.422 1825.91 147.357C1825.69 147.292 1825.49 147.198 1825.33 147.076C1825.17 146.954 1825.04 146.812 1824.94 146.649C1824.85 146.486 1824.8 146.307 1824.8 146.112C1824.8 145.908 1824.85 145.717 1824.95 145.538C1825.05 145.359 1825.18 145.204 1825.34 145.074C1825.51 144.944 1825.71 144.842 1825.94 144.769C1826.17 144.696 1826.41 144.659 1826.67 144.659C1826.93 144.659 1827.17 144.696 1827.39 144.769C1827.62 144.842 1827.81 144.944 1827.98 145.074C1828.15 145.204 1828.28 145.359 1828.38 145.538C1828.48 145.717 1828.53 145.908 1828.53 146.112C1828.53 146.307 1828.48 146.486 1828.38 146.649C1828.29 146.812 1828.16 146.954 1828 147.076C1827.84 147.198 1827.64 147.292 1827.42 147.357C1827.19 147.422 1826.94 147.455 1826.67 147.455ZM1825.57 149.737H1827.81V162.75H1825.57V149.737ZM1840.14 156C1840.14 154.779 1839.94 153.786 1839.55 153.021C1838.93 151.817 1837.87 151.214 1836.35 151.214C1835.01 151.214 1834.03 151.727 1833.42 152.752C1832.81 153.778 1832.51 155.015 1832.51 156.463C1832.51 157.855 1832.81 159.015 1833.42 159.942C1834.03 160.87 1835 161.334 1836.33 161.334C1837.78 161.334 1838.78 160.785 1839.32 159.686C1839.86 158.579 1840.14 157.35 1840.14 156ZM1842.43 155.938C1842.43 158.046 1841.92 159.788 1840.89 161.163C1839.87 162.538 1838.28 163.226 1836.12 163.226C1834.32 163.226 1832.89 162.62 1831.83 161.407C1830.78 160.187 1830.25 158.551 1830.25 156.5C1830.25 154.303 1830.81 152.553 1831.92 151.251C1833.04 149.949 1834.53 149.298 1836.41 149.298C1838.1 149.298 1839.52 149.859 1840.69 150.982C1841.85 152.105 1842.43 153.757 1842.43 155.938ZM1845.06 149.676H1847.14V151.532C1847.76 150.767 1848.42 150.217 1849.11 149.884C1849.8 149.55 1850.57 149.383 1851.42 149.383C1853.27 149.383 1854.52 150.03 1855.17 151.324C1855.53 152.032 1855.71 153.045 1855.71 154.364V162.75H1853.48V154.51C1853.48 153.713 1853.36 153.07 1853.12 152.582C1852.73 151.768 1852.03 151.361 1851 151.361C1850.48 151.361 1850.05 151.414 1849.72 151.52C1849.12 151.699 1848.59 152.057 1848.13 152.594C1847.77 153.025 1847.53 153.473 1847.41 153.937C1847.31 154.392 1847.25 155.047 1847.25 155.902V162.75H1845.06V149.676Z" fill="black"/>
<path d="M1745.98 176.621H1747.35V177.846C1747.76 177.341 1748.2 176.979 1748.65 176.758C1749.11 176.538 1749.62 176.428 1750.17 176.428C1751.4 176.428 1752.23 176.855 1752.66 177.709C1752.89 178.176 1753.01 178.845 1753.01 179.715V185.25H1751.54V179.812C1751.54 179.285 1751.46 178.861 1751.3 178.539C1751.04 178.002 1750.58 177.733 1749.9 177.733C1749.56 177.733 1749.27 177.768 1749.05 177.838C1748.66 177.956 1748.31 178.192 1748.01 178.547C1747.77 178.832 1747.61 179.127 1747.53 179.433C1747.46 179.734 1747.43 180.166 1747.43 180.73V185.25H1745.98V176.621ZM1761.85 177.975C1762.14 178.41 1762.33 178.917 1762.43 179.498C1762.51 179.895 1762.56 180.529 1762.56 181.399H1756.23C1756.26 182.274 1756.47 182.978 1756.85 183.51C1757.24 184.036 1757.84 184.299 1758.65 184.299C1759.41 184.299 1760.01 184.05 1760.46 183.55C1760.72 183.26 1760.9 182.924 1761.01 182.543H1762.44C1762.4 182.86 1762.27 183.214 1762.06 183.606C1761.85 183.993 1761.61 184.31 1761.35 184.557C1760.91 184.987 1760.36 185.277 1759.71 185.427C1759.36 185.513 1758.97 185.556 1758.53 185.556C1757.46 185.556 1756.54 185.167 1755.8 184.388C1755.05 183.604 1754.68 182.508 1754.68 181.101C1754.68 179.715 1755.05 178.59 1755.81 177.725C1756.56 176.86 1757.54 176.428 1758.75 176.428C1759.37 176.428 1759.96 176.573 1760.54 176.863C1761.11 177.148 1761.55 177.518 1761.85 177.975ZM1761.07 180.247C1761.01 179.618 1760.87 179.116 1760.66 178.74C1760.26 178.042 1759.6 177.693 1758.67 177.693C1758 177.693 1757.44 177.935 1756.99 178.418C1756.54 178.896 1756.3 179.506 1756.27 180.247H1761.07ZM1764.39 176.621H1765.76V178.112C1765.88 177.822 1766.15 177.47 1766.59 177.056C1767.03 176.637 1767.54 176.428 1768.12 176.428C1768.14 176.428 1768.19 176.431 1768.25 176.436C1768.32 176.441 1768.43 176.452 1768.58 176.468V177.999C1768.5 177.983 1768.42 177.972 1768.34 177.967C1768.27 177.961 1768.19 177.959 1768.11 177.959C1767.38 177.959 1766.82 178.195 1766.42 178.668C1766.03 179.135 1765.84 179.675 1765.84 180.287V185.25H1764.39V176.621ZM1776.64 179.522H1775.23C1775.14 178.99 1774.95 178.55 1774.64 178.2C1774.34 177.846 1773.84 177.669 1773.17 177.669C1772.24 177.669 1771.58 178.12 1771.19 179.022C1770.93 179.608 1770.8 180.33 1770.8 181.189C1770.8 182.054 1770.98 182.782 1771.35 183.373C1771.71 183.964 1772.29 184.259 1773.07 184.259C1773.67 184.259 1774.15 184.076 1774.5 183.711C1774.85 183.341 1775.1 182.836 1775.23 182.197H1776.64C1776.48 183.341 1776.08 184.178 1775.43 184.71C1774.79 185.237 1773.96 185.5 1772.96 185.5C1771.83 185.5 1770.93 185.089 1770.26 184.267C1769.59 183.44 1769.25 182.409 1769.25 181.173C1769.25 179.659 1769.62 178.48 1770.36 177.636C1771.09 176.793 1772.03 176.372 1773.17 176.372C1774.14 176.372 1774.93 176.608 1775.54 177.081C1776.15 177.553 1776.52 178.367 1776.64 179.522ZM1779.28 185.29C1779.1 185.29 1778.93 185.269 1778.78 185.226C1778.63 185.183 1778.5 185.121 1778.39 185.041C1778.28 184.96 1778.2 184.866 1778.13 184.759C1778.07 184.651 1778.04 184.533 1778.04 184.404C1778.04 184.27 1778.07 184.144 1778.14 184.025C1778.2 183.907 1778.29 183.805 1778.4 183.719C1778.51 183.633 1778.64 183.566 1778.79 183.518C1778.94 183.469 1779.1 183.445 1779.28 183.445C1779.45 183.445 1779.61 183.469 1779.75 183.518C1779.9 183.566 1780.03 183.633 1780.14 183.719C1780.25 183.805 1780.34 183.907 1780.4 184.025C1780.47 184.144 1780.5 184.27 1780.5 184.404C1780.5 184.533 1780.47 184.651 1780.4 184.759C1780.34 184.866 1780.26 184.96 1780.15 185.041C1780.05 185.121 1779.92 185.183 1779.77 185.226C1779.62 185.269 1779.45 185.29 1779.28 185.29ZM1782.68 176.662H1784.16V185.25H1782.68V176.662ZM1783.41 175.155C1783.23 175.155 1783.06 175.134 1782.91 175.091C1782.76 175.048 1782.63 174.986 1782.52 174.905C1782.41 174.825 1782.33 174.731 1782.26 174.623C1782.21 174.516 1782.18 174.398 1782.18 174.269C1782.18 174.135 1782.21 174.008 1782.27 173.89C1782.34 173.772 1782.42 173.67 1782.53 173.584C1782.64 173.498 1782.77 173.431 1782.92 173.383C1783.08 173.334 1783.24 173.31 1783.41 173.31C1783.58 173.31 1783.74 173.334 1783.88 173.383C1784.03 173.431 1784.16 173.498 1784.27 173.584C1784.38 173.67 1784.47 173.772 1784.54 173.89C1784.6 174.008 1784.63 174.135 1784.63 174.269C1784.63 174.398 1784.6 174.516 1784.54 174.623C1784.48 174.731 1784.39 174.825 1784.29 174.905C1784.18 174.986 1784.05 175.048 1783.9 175.091C1783.75 175.134 1783.59 175.155 1783.41 175.155ZM1782.68 176.662H1784.16V185.25H1782.68V176.662ZM1786.65 174.212H1788.11V176.621H1789.49V177.806H1788.11V183.437C1788.11 183.738 1788.22 183.939 1788.42 184.042C1788.53 184.101 1788.72 184.13 1788.98 184.13C1789.05 184.13 1789.13 184.13 1789.21 184.13C1789.29 184.125 1789.38 184.117 1789.49 184.106V185.25C1789.32 185.298 1789.15 185.333 1788.97 185.355C1788.79 185.376 1788.6 185.387 1788.39 185.387C1787.71 185.387 1787.25 185.215 1787.01 184.871C1786.77 184.522 1786.65 184.071 1786.65 183.518V177.806H1785.48V176.621H1786.65V174.212ZM1790.95 176.621H1792.38V177.846C1792.73 177.422 1793.04 177.113 1793.32 176.919C1793.8 176.592 1794.34 176.428 1794.95 176.428C1795.63 176.428 1796.19 176.597 1796.6 176.936C1796.84 177.129 1797.06 177.414 1797.25 177.79C1797.57 177.328 1797.95 176.987 1798.39 176.766C1798.82 176.541 1799.31 176.428 1799.85 176.428C1801.01 176.428 1801.8 176.847 1802.22 177.685C1802.45 178.136 1802.56 178.743 1802.56 179.506V185.25H1801.05V179.256C1801.05 178.681 1800.91 178.286 1800.62 178.072C1800.33 177.857 1799.98 177.749 1799.57 177.749C1799 177.749 1798.51 177.94 1798.1 178.321C1797.69 178.703 1797.48 179.339 1797.48 180.231V185.25H1796.01V179.618C1796.01 179.033 1795.94 178.606 1795.8 178.337C1795.58 177.935 1795.17 177.733 1794.57 177.733C1794.02 177.733 1793.52 177.945 1793.07 178.37C1792.62 178.794 1792.4 179.562 1792.4 180.674V185.25H1790.95V176.621ZM1810.63 180.795C1810.63 179.989 1810.5 179.334 1810.24 178.829C1809.84 178.034 1809.13 177.636 1808.13 177.636C1807.25 177.636 1806.6 177.975 1806.2 178.652C1805.8 179.328 1805.6 180.145 1805.6 181.101C1805.6 182.019 1805.8 182.785 1806.2 183.397C1806.6 184.009 1807.24 184.315 1808.12 184.315C1809.08 184.315 1809.74 183.953 1810.09 183.228C1810.45 182.497 1810.63 181.686 1810.63 180.795ZM1812.15 180.754C1812.15 182.146 1811.81 183.295 1811.13 184.203C1810.45 185.11 1809.4 185.564 1807.98 185.564C1806.79 185.564 1805.85 185.164 1805.15 184.364C1804.45 183.558 1804.11 182.479 1804.11 181.125C1804.11 179.675 1804.47 178.52 1805.21 177.661C1805.95 176.801 1806.93 176.372 1808.17 176.372C1809.29 176.372 1810.23 176.742 1810.99 177.483C1811.76 178.225 1812.15 179.315 1812.15 180.754ZM1815.06 185.29C1814.89 185.29 1814.72 185.269 1814.56 185.226C1814.41 185.183 1814.28 185.121 1814.18 185.041C1814.07 184.96 1813.98 184.866 1813.92 184.759C1813.86 184.651 1813.83 184.533 1813.83 184.404C1813.83 184.27 1813.86 184.144 1813.93 184.025C1813.99 183.907 1814.08 183.805 1814.18 183.719C1814.3 183.633 1814.43 183.566 1814.58 183.518C1814.73 183.469 1814.89 183.445 1815.06 183.445C1815.23 183.445 1815.39 183.469 1815.54 183.518C1815.69 183.566 1815.82 183.633 1815.92 183.719C1816.04 183.805 1816.13 183.907 1816.19 184.025C1816.26 184.144 1816.29 184.27 1816.29 184.404C1816.29 184.533 1816.26 184.651 1816.19 184.759C1816.13 184.866 1816.05 184.96 1815.94 185.041C1815.83 185.121 1815.7 185.183 1815.55 185.226C1815.4 185.269 1815.24 185.29 1815.06 185.29ZM1818.51 176.621H1819.89V178.112C1820 177.822 1820.28 177.47 1820.72 177.056C1821.16 176.637 1821.67 176.428 1822.24 176.428C1822.27 176.428 1822.31 176.431 1822.38 176.436C1822.44 176.441 1822.55 176.452 1822.71 176.468V177.999C1822.62 177.983 1822.54 177.972 1822.47 177.967C1822.4 177.961 1822.32 177.959 1822.23 177.959C1821.5 177.959 1820.94 178.195 1820.55 178.668C1820.16 179.135 1819.96 179.675 1819.96 180.287V185.25H1818.51V176.621ZM1825.42 176.621V182.35C1825.42 182.79 1825.49 183.15 1825.62 183.429C1825.88 183.945 1826.36 184.203 1827.07 184.203C1828.08 184.203 1828.76 183.751 1829.13 182.849C1829.33 182.366 1829.43 181.702 1829.43 180.859V176.621H1830.88V185.25H1829.51L1829.52 183.977C1829.34 184.305 1829.1 184.581 1828.82 184.807C1828.27 185.258 1827.6 185.484 1826.81 185.484C1825.58 185.484 1824.74 185.073 1824.3 184.251C1824.05 183.811 1823.93 183.222 1823.93 182.487V176.621H1825.42Z" fill="black"/>
<path d="M1744.91 186.902H1832.08V187.715H1744.91V186.902Z" fill="black"/>
</svg>
