<svg width="1385" height="546" viewBox="0 0 1385 546" fill="none" xmlns="http://www.w3.org/2000/svg">
<g clip-path="url(#clip0_6279_31972)">
<path d="M1112.28 545.4H272.698C122.091 545.4 0 423.31 0 272.703C0 122.096 122.091 0.00539546 272.698 0.00539546H1112.28C1262.88 0.00539546 1384.97 122.096 1384.97 272.703C1384.97 423.31 1262.88 545.4 1112.28 545.4Z" fill="white"/>
<path d="M1069.87 315.049C1059.49 325.613 1045.08 331.204 1028.19 331.224C1028.05 331.224 1027.92 331.216 1027.78 331.215C1027.64 331.216 1027.51 331.224 1027.37 331.224C1010.48 331.204 996.067 325.613 985.687 315.049C975.205 304.375 969.528 288.941 969.593 271.452C969.528 253.968 975.205 238.519 985.692 227.844C996.067 217.281 1010.48 211.685 1027.37 211.669H1027.47C1027.58 211.669 1027.68 211.676 1027.78 211.676C1027.88 211.676 1027.99 211.669 1028.09 211.669H1028.19C1045.08 211.685 1059.49 217.281 1069.87 227.844C1080.36 238.519 1086.03 253.968 1085.97 271.452C1086.03 288.941 1080.36 304.375 1069.87 315.049ZM1144.94 271.437C1144.79 227.296 1126.6 194.373 1090.72 173.552C1071.51 162.412 1049.73 157.472 1027.78 157.623C1005.83 157.472 984.049 162.412 964.845 173.552C928.961 194.373 910.765 227.296 910.619 271.437H910.613C910.756 315.588 928.957 348.516 964.84 369.343C983.475 380.152 1004.64 385.215 1026.1 385.329C1026.65 385.329 1027.22 385.311 1027.78 385.304C1028.34 385.311 1028.91 385.329 1029.47 385.329C1050.93 385.215 1072.09 380.152 1090.72 369.343C1126.6 348.516 1144.81 315.588 1144.95 271.437H1144.94Z" fill="#231F20"/>
<path d="M320.417 160.057V214.199H402.814V383.348H463.124V214.199H547.018V160.057H320.417Z" fill="#231F20"/>
<path d="M240.081 383.348H300.945V159.6H240.081V383.348Z" fill="#231F20"/>
<path d="M791.291 159.601L730.888 306.857L670.482 159.601H566.492V383.348H627.351V200.425L699.515 383.348H762.258L834.42 200.421V383.348H895.289V159.601H791.291Z" fill="#231F20"/>
<path d="M270.485 79.8C253.661 79.8 240.025 93.1454 240.025 109.6C240.025 126.059 253.661 139.399 270.485 139.399C287.309 139.399 300.945 126.059 300.945 109.6C300.945 93.1454 287.309 79.8 270.485 79.8Z" fill="#231F20"/>
</g>
<defs>
<clipPath id="clip0_6279_31972">
<rect width="1384.97" height="545.4" fill="white"/>
</clipPath>
</defs>
</svg>
