<svg width="1920" height="1080" viewBox="0 0 1920 1080" fill="none" xmlns="http://www.w3.org/2000/svg">
<g id="title-twitter">
<g id="twitter title">
<rect x="550" y="697" width="986" height="313" rx="10" fill="white"/>
<text id="text" fill="black" xml:space="preserve" style="white-space: pre" font-family="Helvetica" font-size="30" letter-spacing="0em"><tspan x="580" y="843.274">&#x41c;&#x43e;&#x43d;&#x433;&#x43e;&#x43b;&#x438;&#x44f; &#x441;&#x442;&#x430;&#x43b;&#x430; &#x43f;&#x435;&#x440;&#x432;&#x43e;&#x439; &#x441;&#x442;&#x440;&#x430;&#x43d;&#x43e;&#x439; &#x432; &#x410;&#x437;&#x438;&#x438;, &#x43f;&#x440;&#x438;&#x43d;&#x44f;&#x432;&#x448;&#x435;&#x439; &#x437;&#x430;&#x43a;&#x43e;&#x43d; &#x43e; </tspan><tspan x="580" y="876.274">&#x43f;&#x440;&#x430;&#x432;&#x43e;&#x432;&#x43e;&#x43c; &#x441;&#x442;&#x430;&#x442;&#x443;&#x441;&#x435; &#x43f;&#x440;&#x430;&#x432;&#x43e;&#x437;&#x430;&#x449;&#x438;&#x442;&#x43d;&#x438;&#x43a;&#x43e;&#x432;. &#x41e;&#x442;&#x43d;&#x44b;&#x43d;&#x435; &#x43f;&#x440;&#x430;&#x432;&#x43e;&#x437;&#x430;&#x449;&#x438;&#x442;&#x43d;&#x438;&#x43a;&#x438; &#x432; </tspan><tspan x="580" y="909.274">&#x41c;&#x43e;&#x43d;&#x433;&#x43e;&#x43b;&#x438;&#x438; &#x437;&#x430;&#x449;&#x438;&#x449;&#x435;&#x43d;&#x44b; &#x437;&#x430;&#x43a;&#x43e;&#x43d;&#x43e;&#x43c;, &#x430; &#x438;&#x445; &#x43f;&#x440;&#x430;&#x432;&#x430; &#x443;&#x432;&#x430;&#x436;&#x430;&#x44e;&#x442;&#x441;&#x44f;, </tspan><tspan x="580" y="942.274">&#x43f;&#x440;&#x43e;&#x434;&#x432;&#x438;&#x433;&#x430;&#x44e;&#x442;&#x441;&#x44f; &#x438; &#x440;&#x435;&#x430;&#x43b;&#x438;&#x437;&#x443;&#x44e;&#x442;&#x441;&#x44f;. &#x41a;&#x43e;&#x43c;&#x438;&#x441;&#x441;&#x430;&#x440; &#x41e;&#x41e;&#x41d; &#x43f;&#x43e; &#x43f;&#x440;&#x430;&#x432;&#x430;&#x43c; </tspan><tspan x="580" y="975.274">&#x447;&#x435;&#x43b;&#x43e;&#x432;&#x435;&#x43a;&#x430; &#x43f;&#x440;&#x438;&#x432;&#x435;&#x442;&#x441;&#x442;&#x432;&#x43e;&#x432;&#x430;&#x43b;&#x430; &#x43f;&#x440;&#x438;&#x43d;&#x44f;&#x442;&#x438;&#x435; &#x437;&#x430;&#x43a;&#x43e;&#x43d;&#x430; </tspan></text>
<text id="name" fill="black" xml:space="preserve" style="white-space: pre" font-family="Helvetica" font-size="30" letter-spacing="0em"><tspan x="713" y="771.274">&#x41e;&#x41e;&#x41d;&#13; @UnitedNationsRU</tspan></text>
<path id="twitter logo" d="M676.762 740.888C676.823 741.754 676.823 742.621 676.823 743.496C676.823 770.148 656.185 800.887 618.448 800.887V800.871C607.301 800.887 596.385 797.747 587 791.828C588.621 792.02 590.25 792.116 591.883 792.12C601.121 792.128 610.096 789.08 617.364 783.468C608.584 783.305 600.886 777.677 598.196 769.461C601.272 770.044 604.441 769.925 607.459 769.114C597.888 767.213 591.002 758.945 591.002 749.343C591.002 749.255 591.002 749.171 591.002 749.087C593.854 750.649 597.047 751.516 600.313 751.612C591.298 745.688 588.519 733.898 593.963 724.68C604.38 737.281 619.748 744.942 636.246 745.752C634.593 738.747 636.852 731.406 642.182 726.481C650.445 718.844 663.441 719.236 671.209 727.356C675.804 726.465 680.207 724.807 684.237 722.459C682.706 727.128 679.501 731.094 675.219 733.614C679.285 733.143 683.258 732.073 687 730.439C684.246 734.497 680.776 738.032 676.762 740.888Z" fill="#1D9BF0"/>
</g>
</g>
</svg>
