<?xml version="1.0" encoding="utf-8"?>
<!-- Generator: Adobe Illustrator 25.2.0, SVG Export Plug-In . SVG Version: 6.00 Build 0)  -->
<svg version="1.1" id="Layer_1" xmlns="http://www.w3.org/2000/svg" xmlns:xlink="http://www.w3.org/1999/xlink" x="0px" y="0px"
	 viewBox="0 0 425.9 115" style="enable-background:new 0 0 425.9 115;" xml:space="preserve">
<style type="text/css">
	.st0{fill:#F68B1F;}
	.st1{fill:#4D4D4F;}
</style>
<g id="Layer_2_1_">
	<g id="Layer_1-2">
		<g id="sut-logo-eng">
			<path class="st0" d="M162.3,86.4L161.6,65h1.7c3.9,13.7,11.6,20.5,23,20.5c3.4,0.1,6.8-1,9.5-3.1c2.9-2.1,4.6-5.5,4.5-9.2
				c0-7-3.6-11.6-10.7-13.7l-11.5-3.3c-6.4-1.6-11.3-6.6-12.8-13c-0.6-2.4-0.9-4.9-0.9-7.4c-0.2-4.6,1.5-9.1,4.7-12.4
				c3-3.2,7.3-5,11.7-4.9c2.1-0.1,4.2,0.1,6.2,0.5c1.6,0.4,3.2,1,4.8,1.6c1.6,0.7,3.3,1,5,1c1.4,0,2.2-0.8,2.6-2.4h1.3v16.4h-1.4
				c-2.9-10.2-8.9-15.3-18.2-15.3c-4.1,0-7.2,1.2-9.4,3.7c-2.1,2.3-3.3,5.3-3.3,8.4c0,5.8,3.2,9.8,9.5,11.9l17.4,5.3
				c6.3,3.3,9.5,9.2,9.5,17.9c0.2,5.1-1.5,10.2-4.8,14.1c-3.1,3.8-7.9,6-12.8,5.9c-4.3,0-8.5-0.8-12.5-2.5c-1.1-0.5-2.2-1-3.3-1.6
				c-1.1-0.5-2.2-0.8-3.4-0.8c-2.4,0-3.7,1.3-4,3.9L162.3,86.4z"/>
			<path class="st0" d="M242.6,87.5c-6.8,0-12.4-1.5-16.9-4.4c-5.5-3.5-8.2-8.6-8.2-15.4V21.6h-7.6v-2h25.4v2h-7.5v47.7
				c0,5,1.8,8.9,5.4,11.6c3.5,2.5,7.7,3.8,12.1,3.6c5.6,0,9.9-1.7,12.9-5c3-3.3,4.6-8,4.6-14V28.9c0-4.9-3.1-7.3-9.3-7.2v-2h19.1v2
				c-3.1-0.1-5.3,0.6-6.6,2s-1.9,3.8-1.9,7.3v36.9c0,6.8-2.1,11.9-6.2,15.3C254.2,86,249.1,87.5,242.6,87.5z"/>
			<path class="st0" d="M302,84.4V21.6c-14,0-21,6.4-21,19.1h-1.9V19.6h56.1v21.1h-1.9c0-12.7-7-19.1-20.9-19.1v62.8h8.3v2h-27.1v-2
				L302,84.4z"/>
			<path class="st0" d="M404,114.8c13.1-14.8,22-38.3,22-56.4c0-12.3-3.6-34.6-22-58.1l-2.3,1.1c10.9,18.7,12.5,34.9,12.5,57
				c0,4.5,0.2,37.2-12.3,55L404,114.8z"/>
			<path class="st0" d="M374.2,105.8c11.1-12.5,18.5-32.3,18.5-47.6c0-10.4-3.1-29.2-18.6-49.1l-2,1c9.2,15.8,10.6,29.4,10.6,48.1
				c0,3.8,0.2,31.4-10.4,46.4L374.2,105.8z"/>
			<path class="st0" d="M348.2,96.9c9-10.1,15.1-26.3,15.1-38.7c0-8.5-2.5-23.8-15.1-40l-1.6,0.8c7.5,12.9,8.6,24,8.6,39.2
				c0,3.1,0.2,25.5-8.5,37.8L348.2,96.9z"/>
			<path class="st1" d="M0.7,86.4L0,65h1.7c3.9,13.7,11.6,20.5,23,20.5c3.4,0.1,6.8-1,9.5-3.1c2.9-2.1,4.6-5.5,4.5-9.2
				c0-7-3.6-11.6-10.7-13.7l-11.5-3.3c-6.4-1.6-11.3-6.6-12.8-13c-0.6-2.4-0.9-4.9-0.9-7.4c-0.2-4.6,1.5-9,4.7-12.3
				c3-3.2,7.3-5,11.7-4.9c2.1-0.1,4.2,0.1,6.2,0.5c1.6,0.4,3.2,1,4.8,1.6c1.6,0.7,3.3,1,5,1c1.4,0,2.2-0.8,2.6-2.4h1.3v16.4h-1.4
				c-2.9-10.2-8.9-15.3-18.2-15.3c-4.1,0-7.2,1.2-9.4,3.7C8.1,26.4,7,29.4,7,32.5c0,5.8,3.2,9.8,9.5,11.9l17.4,5.3
				c6.3,3.3,9.5,9.2,9.5,17.9c0.2,5.1-1.5,10.2-4.8,14.1c-3.1,3.8-7.9,6-12.8,5.9c-4.3,0-8.5-0.8-12.5-2.5c-1.1-0.5-2.2-1-3.3-1.6
				c-1.1-0.5-2.2-0.8-3.4-0.8c-2.4,0-3.7,1.3-4,3.9L0.7,86.4z"/>
			<path class="st1" d="M55.4,84.4V21.6h-7.6v-2h27.8c6.9,0,12.5,1.5,16.8,4.5c5.1,3.5,7.6,8.8,7.6,15.9c0,6.7-1.9,11.6-5.7,14.8
				c-3,2.6-7.4,4.2-13.3,4.8c-2,0.2-7.2,0.3-15.4,0.3v24.5h8.7v2H47.8v-2L55.4,84.4z M65.7,21.6V58h7c10.7,0,16-5.9,16-17.7
				c0-6.4-1.1-11-3.4-14c-2.5-3.2-6.7-4.7-12.5-4.7H65.7z"/>
			<path class="st1" d="M116,79.8v6.5h-15.3v-1.8h6.2V21.7h-6.2v-1.8l15.2-0.6v28.1c2.5-3.7,5.6-5.6,9.4-5.6
				c6.4,0,11.4,2.1,14.8,6.3c3.2,4,4.9,9.5,4.9,16.4c0,7.7-1.8,13.5-5.4,17.3c-3.5,3.8-8.5,5.9-13.6,5.7
				C121.8,87.5,118.5,85,116,79.8z M135,72.4V58.9c0.1-2.7-0.3-5.3-1.1-7.9c-1.7-4.9-4.5-7.3-8.4-7.3c-2.3,0-4.6,0.8-6.4,2.3
				c-2,1.4-3.2,3.7-3.2,6.1v22.6c0,2.8,1,5.6,3,7.7c1.7,2.1,4.3,3.3,7,3.3c3,0.1,5.8-1.6,7.2-4.3C134.5,78.6,135.1,75.5,135,72.4
				L135,72.4z"/>
		</g>
	</g>
</g>
</svg>
