<svg width="1350" height="970" viewBox="0 0 1350 970" fill="none" xmlns="http://www.w3.org/2000/svg">
    <g clip-path="url(#clip0_3598_85771)">
        <g clip-path="url(#clip1_3598_85771)">
            <path d="M0 765H1350V954.001C1350 962.837 1342.84 970.001 1334 970.001H16C7.16344 970.001 0 962.837 0 954.001V765Z"
                  fill="white"/>
            <path d="M1020 812L1073.9 865.899" stroke="#0C97D4" stroke-opacity="0.3" stroke-width="18.4909"
                  stroke-miterlimit="10"/>
            <path d="M908 921L961.899 974.899" stroke="#0C97D4" stroke-opacity="0.3" stroke-width="18.4909"
                  stroke-miterlimit="10"/>
            <path d="M564 894L617.899 947.899" stroke="#0C97D4" stroke-opacity="0.3" stroke-width="18.4909"
                  stroke-miterlimit="10"/>
            <path d="M905 773.849H872.451L892.386 787.419V799.468L872.339 813.151H905V831H843V813.207L872.057 793.5L843 773.736V756H905V773.849Z"
                  fill="#8FCEA5" fill-opacity="0.3"/>
            <path d="M1121.77 1044.98C1105.88 1025.35 1113.44 1004.47 1107.71 983.399C1102.82 965.397 1091.25 945.893 1095.87 927.96C1099.98 912.02 1112.35 903.779 1109.46 885.217C1107.02 869.453 1099.78 853.902 1099.73 838.083C1099.67 821.696 1107.45 808.685 1115.09 795.959C1116.95 792.853 1124.14 764.906 1124.36 764.909C1124.36 764.907 1161.84 764.93 1161.84 764.93C1173.06 770.321 1181.53 781.06 1186.17 792.368C1190.81 803.677 1192.06 815.588 1192.46 827.188C1192.75 835.948 1192.62 844.858 1195.57 853.532C1201.44 870.79 1217.99 883.426 1228.14 899.196C1237.46 913.701 1246.35 929.203 1249.18 945.794C1252.5 965.172 1245.88 984.094 1244.58 1002.9C1241.92 1041.33 1217.84 1059.72 1183.25 1067.22C1160.84 1072.08 1138.5 1065.64 1121.77 1044.98Z"
                  fill="#8FCEA5" fill-opacity="0.5"/>
            <mask id="mask0_3598_85771" style="mask-type:luminance" maskUnits="userSpaceOnUse" x="1110" y="763"
                  width="309" height="280">
                <path d="M1184.13 780.254C1166.56 785.204 1147.98 791.268 1133.83 802.136C1127.58 806.832 1122.29 812.702 1118.28 819.419C1112.59 829.59 1109.73 841.103 1110.02 852.755V853.282C1110.36 866.712 1112.64 880.021 1116.79 892.799C1121.47 909.218 1128.42 924.903 1137.44 939.405C1159.26 973.18 1194.85 995.238 1230.09 1014.4C1263.49 1032.56 1305.41 1052.48 1342.93 1035.69C1367.57 1024.65 1366.75 1006.6 1368.71 982.525C1369.88 968.054 1370.64 953.231 1378.7 940.928C1387.49 927.483 1402.37 920.247 1410.04 905.425C1424.69 876.951 1419.21 839.485 1400.29 813.853C1376.85 782.304 1337.28 766.164 1298.52 763.469C1293.86 763.146 1289.24 763 1284.58 763C1250.57 763 1216.91 771.173 1184.13 780.371"
                      fill="white"/>
            </mask>
            <g mask="url(#mask0_3598_85771)">
                <path d="M1186.62 766.923C1187.33 767.84 1188.3 768.526 1189.4 768.894C1190.5 769.261 1191.69 769.294 1192.8 768.988C1193.92 768.682 1194.93 768.05 1195.68 767.174C1196.44 766.297 1196.93 765.215 1197.07 764.064C1197.21 762.913 1197.01 761.745 1196.49 760.709C1195.97 759.672 1195.16 758.813 1194.15 758.241C1193.14 757.669 1191.98 757.409 1190.83 757.494C1189.67 757.58 1188.56 758.007 1187.65 758.721C1186.43 759.675 1185.64 761.073 1185.44 762.611C1185.25 764.148 1185.68 765.698 1186.62 766.923Z"
                      fill="#231F20" fill-opacity="0.3"/>
                <path d="M1171.34 778.672C1172.05 779.59 1173.01 780.275 1174.11 780.643C1175.21 781.011 1176.4 781.043 1177.51 780.737C1178.63 780.431 1179.64 779.799 1180.4 778.923C1181.16 778.046 1181.64 776.964 1181.78 775.813C1181.93 774.662 1181.72 773.494 1181.2 772.458C1180.68 771.421 1179.87 770.562 1178.86 769.99C1177.85 769.418 1176.69 769.158 1175.54 769.243C1174.38 769.329 1173.27 769.756 1172.36 770.47C1171.14 771.424 1170.35 772.822 1170.15 774.36C1169.96 775.897 1170.39 777.447 1171.34 778.672Z"
                      fill="#231F20" fill-opacity="0.3"/>
                <path d="M1156.04 790.39C1156.75 791.307 1157.71 791.993 1158.81 792.361C1159.91 792.728 1161.1 792.761 1162.22 792.455C1163.34 792.149 1164.34 791.517 1165.1 790.641C1165.86 789.764 1166.34 788.682 1166.48 787.531C1166.63 786.38 1166.43 785.212 1165.91 784.175C1165.39 783.139 1164.57 782.28 1163.56 781.708C1162.55 781.136 1161.4 780.876 1160.24 780.961C1159.08 781.047 1157.98 781.474 1157.06 782.188C1155.84 783.142 1155.05 784.54 1154.86 786.077C1154.67 787.614 1155.09 789.165 1156.04 790.39Z"
                      fill="#231F20" fill-opacity="0.3"/>
                <path d="M1140.78 802.135C1141.49 803.05 1142.46 803.733 1143.56 804.097C1144.66 804.461 1145.85 804.49 1146.97 804.18C1148.08 803.87 1149.09 803.235 1149.84 802.356C1150.6 801.477 1151.08 800.392 1151.22 799.241C1151.36 798.089 1151.15 796.922 1150.63 795.887C1150.1 794.852 1149.28 793.996 1148.27 793.427C1147.26 792.859 1146.1 792.603 1144.95 792.693C1143.79 792.783 1142.69 793.215 1141.78 793.933C1140.56 794.891 1139.77 796.291 1139.59 797.828C1139.4 799.365 1139.83 800.913 1140.78 802.135Z"
                      fill="#231F20" fill-opacity="0.3"/>
                <path d="M1125.45 813.882C1126.17 814.793 1127.14 815.472 1128.24 815.832C1129.34 816.192 1130.52 816.218 1131.64 815.906C1132.76 815.594 1133.75 814.959 1134.51 814.08C1135.26 813.201 1135.74 812.118 1135.88 810.968C1136.02 809.818 1135.81 808.652 1135.29 807.619C1134.77 806.585 1133.95 805.73 1132.94 805.161C1131.93 804.592 1130.78 804.335 1129.62 804.422C1128.47 804.509 1127.36 804.937 1126.45 805.651C1125.84 806.126 1125.34 806.715 1124.96 807.386C1124.58 808.057 1124.34 808.796 1124.25 809.56C1124.15 810.325 1124.21 811.1 1124.42 811.842C1124.63 812.583 1124.98 813.277 1125.45 813.882Z"
                      fill="#231F20" fill-opacity="0.3"/>
                <path d="M1110.14 825.598C1110.85 826.515 1111.82 827.201 1112.92 827.569C1114.02 827.936 1115.2 827.969 1116.32 827.663C1117.44 827.357 1118.44 826.725 1119.2 825.849C1119.96 824.972 1120.44 823.89 1120.59 822.739C1120.73 821.588 1120.53 820.42 1120.01 819.383C1119.49 818.347 1118.67 817.488 1117.66 816.916C1116.65 816.344 1115.5 816.084 1114.34 816.169C1113.18 816.255 1112.08 816.682 1111.17 817.396C1109.94 818.35 1109.15 819.748 1108.96 821.285C1108.77 822.822 1109.19 824.373 1110.14 825.598Z"
                      fill="#231F20" fill-opacity="0.3"/>
                <path d="M1213.42 770.205C1214.14 771.118 1215.1 771.8 1216.2 772.163C1217.3 772.527 1218.48 772.556 1219.6 772.248C1220.72 771.94 1221.72 771.308 1222.48 770.432C1223.23 769.555 1223.71 768.474 1223.86 767.325C1224 766.176 1223.8 765.01 1223.28 763.975C1222.76 762.939 1221.95 762.081 1220.94 761.508C1219.93 760.936 1218.78 760.674 1217.62 760.757C1216.47 760.84 1215.36 761.263 1214.45 761.974C1213.84 762.446 1213.33 763.034 1212.95 763.704C1212.57 764.374 1212.32 765.112 1212.23 765.877C1212.13 766.641 1212.19 767.417 1212.39 768.16C1212.6 768.903 1212.95 769.598 1213.42 770.205Z"
                      fill="#231F20" fill-opacity="0.3"/>
                <path d="M1198.14 781.921C1198.85 782.839 1199.81 783.524 1200.91 783.892C1202.01 784.26 1203.2 784.292 1204.32 783.986C1205.43 783.68 1206.44 783.048 1207.2 782.172C1207.96 781.295 1208.44 780.213 1208.58 779.062C1208.73 777.911 1208.53 776.743 1208 775.707C1207.48 774.67 1206.67 773.811 1205.66 773.239C1204.65 772.667 1203.49 772.407 1202.34 772.492C1201.18 772.578 1200.08 773.005 1199.16 773.719C1197.94 774.673 1197.15 776.071 1196.96 777.609C1196.76 779.146 1197.19 780.696 1198.14 781.921Z"
                      fill="#231F20" fill-opacity="0.3"/>
                <path d="M1182.85 793.667C1183.56 794.585 1184.52 795.27 1185.62 795.638C1186.72 796.006 1187.91 796.038 1189.03 795.732C1190.15 795.426 1191.15 794.795 1191.91 793.918C1192.67 793.041 1193.15 791.959 1193.29 790.808C1193.44 789.657 1193.24 788.489 1192.72 787.453C1192.2 786.416 1191.38 785.557 1190.37 784.985C1189.36 784.413 1188.2 784.153 1187.05 784.239C1185.89 784.324 1184.79 784.751 1183.87 785.465C1182.65 786.419 1181.86 787.818 1181.67 789.355C1181.47 790.892 1181.9 792.442 1182.85 793.667Z"
                      fill="#231F20" fill-opacity="0.3"/>
                <path d="M1167.55 805.414C1168.26 806.327 1169.23 807.009 1170.33 807.372C1171.43 807.736 1172.61 807.765 1173.73 807.457C1174.84 807.149 1175.84 806.517 1176.6 805.641C1177.36 804.764 1177.84 803.683 1177.98 802.534C1178.12 801.385 1177.92 800.219 1177.4 799.184C1176.89 798.148 1176.07 797.29 1175.06 796.717C1174.06 796.145 1172.9 795.883 1171.75 795.966C1170.59 796.049 1169.49 796.472 1168.57 797.183C1167.97 797.655 1167.46 798.243 1167.07 798.913C1166.69 799.583 1166.45 800.321 1166.35 801.086C1166.26 801.85 1166.31 802.626 1166.52 803.369C1166.72 804.112 1167.07 804.807 1167.55 805.414Z"
                      fill="#231F20" fill-opacity="0.3"/>
                <path d="M1152.26 817.134C1152.97 818.049 1153.94 818.732 1155.04 819.096C1156.14 819.46 1157.33 819.489 1158.45 819.179C1159.57 818.869 1160.57 818.234 1161.32 817.355C1162.08 816.476 1162.56 815.391 1162.7 814.24C1162.84 813.088 1162.63 811.921 1162.11 810.886C1161.58 809.851 1160.76 808.995 1159.75 808.427C1158.74 807.858 1157.58 807.603 1156.43 807.692C1155.27 807.782 1154.17 808.214 1153.26 808.932C1152.04 809.89 1151.25 811.29 1151.07 812.827C1150.88 814.364 1151.31 815.912 1152.26 817.134Z"
                      fill="#231F20" fill-opacity="0.3"/>
                <path d="M1136.97 828.88C1137.68 829.795 1138.65 830.478 1139.75 830.842C1140.86 831.206 1142.04 831.235 1143.16 830.925C1144.28 830.615 1145.28 829.98 1146.03 829.101C1146.79 828.222 1147.27 827.137 1147.41 825.986C1147.55 824.834 1147.34 823.667 1146.82 822.632C1146.3 821.597 1145.48 820.741 1144.46 820.173C1143.45 819.604 1142.3 819.349 1141.14 819.439C1139.98 819.528 1138.88 819.96 1137.97 820.678C1136.75 821.636 1135.96 823.036 1135.78 824.573C1135.59 826.11 1136.02 827.659 1136.97 828.88Z"
                      fill="#231F20" fill-opacity="0.3"/>
                <path d="M1121.65 840.627C1122.37 841.54 1123.33 842.221 1124.43 842.585C1125.53 842.949 1126.72 842.978 1127.83 842.67C1128.95 842.362 1129.95 841.73 1130.71 840.853C1131.46 839.977 1131.94 838.896 1132.09 837.747C1132.23 836.598 1132.03 835.432 1131.51 834.396C1130.99 833.361 1130.18 832.503 1129.17 831.93C1128.16 831.358 1127.01 831.096 1125.85 831.179C1124.7 831.262 1123.59 831.685 1122.68 832.396C1122.07 832.868 1121.56 833.456 1121.18 834.126C1120.8 834.796 1120.55 835.534 1120.46 836.299C1120.36 837.063 1120.42 837.839 1120.63 838.582C1120.83 839.325 1121.18 840.02 1121.65 840.627Z"
                      fill="#231F20" fill-opacity="0.3"/>
                <path d="M1106.36 852.343C1107.07 853.26 1108.04 853.946 1109.14 854.314C1110.24 854.681 1111.42 854.714 1112.54 854.408C1113.66 854.102 1114.66 853.47 1115.42 852.594C1116.18 851.717 1116.66 850.635 1116.81 849.484C1116.95 848.333 1116.75 847.165 1116.23 846.128C1115.71 845.092 1114.89 844.233 1113.89 843.661C1112.88 843.089 1111.72 842.829 1110.56 842.914C1109.41 843 1108.3 843.427 1107.39 844.141C1106.17 845.095 1105.37 846.493 1105.18 848.03C1104.99 849.568 1105.41 851.118 1106.36 852.343Z"
                      fill="#231F20" fill-opacity="0.3"/>
                <path d="M1240.38 773.456C1241.09 774.374 1242.06 775.06 1243.16 775.427C1244.26 775.795 1245.44 775.827 1246.56 775.521C1247.68 775.215 1248.68 774.584 1249.44 773.707C1250.2 772.83 1250.68 771.748 1250.83 770.597C1250.97 769.446 1250.77 768.278 1250.25 767.242C1249.73 766.205 1248.91 765.346 1247.91 764.774C1246.9 764.202 1245.74 763.942 1244.58 764.028C1243.43 764.113 1242.32 764.54 1241.41 765.254C1240.19 766.208 1239.39 767.607 1239.2 769.144C1239.01 770.681 1239.43 772.231 1240.38 773.456Z"
                      fill="#231F20" fill-opacity="0.3"/>
                <path d="M1224.93 785.203C1225.64 786.12 1226.61 786.806 1227.71 787.173C1228.81 787.541 1229.99 787.574 1231.11 787.267C1232.23 786.961 1233.23 786.33 1233.99 785.453C1234.75 784.576 1235.24 783.494 1235.38 782.343C1235.52 781.192 1235.32 780.024 1234.8 778.988C1234.28 777.951 1233.46 777.092 1232.46 776.52C1231.45 775.948 1230.29 775.688 1229.13 775.774C1227.98 775.859 1226.87 776.286 1225.96 777C1224.74 777.954 1223.94 779.353 1223.75 780.89C1223.56 782.427 1223.98 783.978 1224.93 785.203Z"
                      fill="#231F20" fill-opacity="0.3"/>
                <path d="M1209.65 796.95C1210.36 797.863 1211.33 798.545 1212.43 798.908C1213.53 799.272 1214.71 799.302 1215.83 798.993C1216.94 798.685 1217.94 798.053 1218.7 797.177C1219.46 796.3 1219.94 795.219 1220.08 794.07C1220.23 792.921 1220.03 791.755 1219.51 790.72C1218.99 789.684 1218.17 788.826 1217.17 788.254C1216.16 787.681 1215.01 787.419 1213.85 787.502C1212.69 787.585 1211.59 788.008 1210.68 788.719C1210.07 789.191 1209.56 789.779 1209.18 790.449C1208.8 791.119 1208.55 791.857 1208.46 792.622C1208.36 793.386 1208.42 794.162 1208.62 794.905C1208.83 795.648 1209.18 796.343 1209.65 796.95Z"
                      fill="#231F20" fill-opacity="0.3"/>
                <path d="M1194.36 808.666C1195.07 809.584 1196.03 810.27 1197.13 810.637C1198.24 811.005 1199.42 811.037 1200.54 810.731C1201.66 810.425 1202.66 809.794 1203.42 808.917C1204.18 808.04 1204.66 806.958 1204.8 805.807C1204.95 804.656 1204.75 803.488 1204.23 802.452C1203.71 801.415 1202.89 800.556 1201.88 799.984C1200.87 799.412 1199.72 799.152 1198.56 799.238C1197.4 799.323 1196.3 799.75 1195.38 800.464C1194.16 801.418 1193.37 802.817 1193.18 804.354C1192.99 805.891 1193.41 807.441 1194.36 808.666Z"
                      fill="#231F20" fill-opacity="0.3"/>
                <path d="M1179.06 820.415C1179.77 821.333 1180.74 822.019 1181.84 822.386C1182.94 822.754 1184.12 822.786 1185.24 822.48C1186.36 822.174 1187.36 821.543 1188.12 820.666C1188.88 819.789 1189.36 818.707 1189.51 817.556C1189.65 816.405 1189.45 815.237 1188.93 814.201C1188.41 813.164 1187.59 812.305 1186.58 811.733C1185.58 811.161 1184.42 810.901 1183.26 810.987C1182.11 811.072 1181 811.499 1180.09 812.213C1178.87 813.167 1178.07 814.566 1177.88 816.103C1177.69 817.64 1178.11 819.19 1179.06 820.415Z"
                      fill="#231F20" fill-opacity="0.3"/>
                <path d="M1163.77 832.162C1164.49 833.073 1165.46 833.751 1166.56 834.111C1167.66 834.472 1168.84 834.497 1169.96 834.186C1171.08 833.874 1172.07 833.238 1172.83 832.359C1173.58 831.48 1174.06 830.397 1174.2 829.247C1174.34 828.097 1174.13 826.932 1173.61 825.898C1173.09 824.864 1172.27 824.009 1171.26 823.44C1170.25 822.871 1169.1 822.614 1167.94 822.701C1166.79 822.788 1165.68 823.216 1164.77 823.93C1164.16 824.405 1163.66 824.995 1163.28 825.665C1162.9 826.336 1162.66 827.075 1162.57 827.839C1162.47 828.604 1162.53 829.379 1162.74 830.121C1162.95 830.863 1163.3 831.556 1163.77 832.162Z"
                      fill="#231F20" fill-opacity="0.3"/>
                <path d="M1148.49 843.879C1149.2 844.794 1150.17 845.477 1151.27 845.841C1152.37 846.205 1153.56 846.234 1154.67 845.924C1155.79 845.614 1156.79 844.979 1157.55 844.1C1158.31 843.221 1158.78 842.136 1158.92 840.985C1159.06 839.833 1158.86 838.666 1158.34 837.631C1157.81 836.596 1156.99 835.74 1155.98 835.172C1154.97 834.603 1153.81 834.348 1152.65 834.438C1151.5 834.527 1150.39 834.959 1149.48 835.677C1148.27 836.635 1147.48 838.035 1147.29 839.572C1147.11 841.109 1147.54 842.658 1148.49 843.879Z"
                      fill="#231F20" fill-opacity="0.3"/>
                <path d="M1133.19 855.625C1133.91 856.54 1134.88 857.223 1135.98 857.587C1137.08 857.951 1138.26 857.98 1139.38 857.67C1140.5 857.36 1141.5 856.726 1142.26 855.846C1143.01 854.967 1143.49 853.883 1143.63 852.731C1143.77 851.579 1143.57 850.412 1143.04 849.377C1142.52 848.342 1141.7 847.486 1140.69 846.918C1139.68 846.349 1138.52 846.094 1137.36 846.184C1136.2 846.274 1135.1 846.705 1134.19 847.423C1132.97 848.381 1132.19 849.782 1132 851.318C1131.81 852.855 1132.24 854.404 1133.19 855.625Z"
                      fill="#231F20" fill-opacity="0.3"/>
                <path d="M1117.86 867.371C1118.58 868.284 1119.54 868.966 1120.64 869.329C1121.74 869.693 1122.93 869.723 1124.04 869.414C1125.16 869.106 1126.16 868.474 1126.92 867.598C1127.67 866.721 1128.15 865.64 1128.3 864.491C1128.44 863.342 1128.24 862.176 1127.72 861.141C1127.2 860.105 1126.39 859.247 1125.38 858.674C1124.37 858.102 1123.22 857.84 1122.06 857.923C1120.91 858.006 1119.8 858.429 1118.89 859.14C1118.28 859.612 1117.77 860.2 1117.39 860.87C1117.01 861.54 1116.77 862.278 1116.67 863.043C1116.57 863.807 1116.63 864.583 1116.84 865.326C1117.04 866.069 1117.39 866.764 1117.86 867.371Z"
                      fill="#231F20" fill-opacity="0.3"/>
                <path d="M1102.7 879.087C1103.41 880.005 1104.38 880.69 1105.48 881.058C1106.58 881.426 1107.76 881.458 1108.88 881.152C1110 880.846 1111 880.214 1111.76 879.338C1112.52 878.461 1113 877.379 1113.15 876.228C1113.29 875.077 1113.09 873.909 1112.57 872.873C1112.05 871.836 1111.23 870.977 1110.23 870.405C1109.22 869.833 1108.06 869.573 1106.9 869.659C1105.75 869.744 1104.64 870.171 1103.73 870.885C1102.51 871.839 1101.71 873.237 1101.52 874.775C1101.33 876.312 1101.75 877.862 1102.7 879.087Z"
                      fill="#231F20" fill-opacity="0.3"/>
                <path d="M1282.35 764.992C1283.07 765.907 1284.04 766.59 1285.14 766.955C1286.24 767.319 1287.42 767.348 1288.54 767.038C1289.66 766.728 1290.66 766.093 1291.42 765.213C1292.17 764.334 1292.65 763.25 1292.79 762.098C1292.93 760.946 1292.73 759.779 1292.2 758.744C1291.68 757.709 1290.86 756.853 1289.85 756.285C1288.84 755.716 1287.68 755.461 1286.52 755.551C1285.37 755.641 1284.26 756.072 1283.35 756.79C1282.13 757.748 1281.35 759.149 1281.16 760.686C1280.97 762.223 1281.4 763.771 1282.35 764.992Z"
                      fill="#231F20" fill-opacity="0.3"/>
                <path d="M1267.06 776.738C1267.78 777.654 1268.75 778.336 1269.85 778.701C1270.95 779.065 1272.13 779.094 1273.25 778.784C1274.37 778.474 1275.37 777.839 1276.13 776.959C1276.88 776.08 1277.36 774.996 1277.5 773.844C1277.64 772.693 1277.44 771.525 1276.91 770.49C1276.39 769.455 1275.57 768.6 1274.56 768.031C1273.55 767.462 1272.39 767.207 1271.23 767.297C1270.08 767.387 1268.97 767.818 1268.06 768.536C1266.84 769.494 1266.06 770.895 1265.87 772.432C1265.68 773.969 1266.11 775.517 1267.06 776.738Z"
                      fill="#231F20" fill-opacity="0.3"/>
                <path d="M1251.75 788.484C1252.46 789.398 1253.43 790.079 1254.53 790.443C1255.63 790.806 1256.81 790.836 1257.93 790.528C1259.04 790.219 1260.04 789.587 1260.8 788.711C1261.56 787.835 1262.04 786.754 1262.18 785.604C1262.32 784.455 1262.12 783.289 1261.6 782.254C1261.08 781.219 1260.27 780.36 1259.26 779.788C1258.26 779.215 1257.1 778.954 1255.95 779.036C1254.79 779.119 1253.69 779.543 1252.77 780.253C1252.16 780.726 1251.66 781.314 1251.27 781.983C1250.89 782.653 1250.65 783.391 1250.55 784.156C1250.46 784.921 1250.51 785.697 1250.72 786.439C1250.92 787.182 1251.27 787.877 1251.75 788.484Z"
                      fill="#231F20" fill-opacity="0.3"/>
                <path d="M1236.45 800.203C1237.17 801.114 1238.14 801.792 1239.24 802.152C1240.34 802.513 1241.52 802.538 1242.64 802.227C1243.75 801.915 1244.75 801.279 1245.5 800.4C1246.26 799.521 1246.74 798.438 1246.87 797.288C1247.01 796.138 1246.81 794.973 1246.29 793.939C1245.76 792.905 1244.94 792.05 1243.94 791.481C1242.93 790.912 1241.77 790.655 1240.62 790.742C1239.46 790.829 1238.36 791.257 1237.45 791.971C1236.23 792.925 1235.43 794.324 1235.24 795.861C1235.05 797.398 1235.47 798.948 1236.42 800.173"
                      fill="#231F20" fill-opacity="0.3"/>
                <path d="M1221.16 811.948C1221.87 812.865 1222.84 813.551 1223.94 813.918C1225.04 814.286 1226.22 814.319 1227.34 814.012C1228.46 813.706 1229.46 813.075 1230.22 812.198C1230.98 811.322 1231.46 810.239 1231.61 809.088C1231.75 807.937 1231.55 806.77 1231.03 805.733C1230.51 804.696 1229.69 803.838 1228.68 803.265C1227.67 802.693 1226.52 802.433 1225.36 802.519C1224.2 802.604 1223.1 803.031 1222.18 803.745C1220.96 804.699 1220.17 806.098 1219.98 807.635C1219.79 809.172 1220.21 810.723 1221.16 811.948Z"
                      fill="#231F20" fill-opacity="0.3"/>
                <path d="M1205.87 823.694C1206.59 824.607 1207.55 825.289 1208.65 825.653C1209.75 826.016 1210.93 826.046 1212.05 825.738C1213.17 825.429 1214.17 824.797 1214.92 823.921C1215.68 823.045 1216.16 821.964 1216.31 820.814C1216.45 819.665 1216.25 818.499 1215.73 817.464C1215.21 816.429 1214.39 815.57 1213.39 814.998C1212.38 814.425 1211.23 814.164 1210.07 814.246C1208.92 814.329 1207.81 814.753 1206.9 815.463C1206.29 815.936 1205.78 816.524 1205.4 817.193C1205.02 817.863 1204.77 818.601 1204.68 819.366C1204.58 820.131 1204.64 820.907 1204.84 821.649C1205.05 822.392 1205.4 823.087 1205.87 823.694Z"
                      fill="#231F20" fill-opacity="0.3"/>
                <path d="M1190.59 835.411C1191.3 836.328 1192.26 837.014 1193.36 837.381C1194.46 837.749 1195.65 837.782 1196.76 837.475C1197.88 837.169 1198.89 836.538 1199.65 835.661C1200.41 834.784 1200.89 833.702 1201.03 832.551C1201.18 831.4 1200.97 830.233 1200.45 829.196C1199.93 828.159 1199.12 827.3 1198.11 826.728C1197.1 826.156 1195.94 825.896 1194.79 825.982C1193.63 826.067 1192.52 826.494 1191.61 827.208C1190.39 828.162 1189.6 829.561 1189.4 831.098C1189.21 832.635 1189.64 834.186 1190.59 835.411Z"
                      fill="#231F20" fill-opacity="0.3"/>
                <path d="M1175.28 847.159C1176 848.074 1176.97 848.757 1178.07 849.121C1179.17 849.486 1180.35 849.515 1181.47 849.205C1182.59 848.895 1183.59 848.26 1184.35 847.38C1185.1 846.501 1185.58 845.417 1185.72 844.265C1185.86 843.113 1185.66 841.946 1185.13 840.911C1184.61 839.876 1183.79 839.02 1182.78 838.452C1181.77 837.883 1180.61 837.628 1179.45 837.718C1178.29 837.808 1177.19 838.239 1176.28 838.957C1175.06 839.915 1174.28 841.316 1174.09 842.853C1173.9 844.39 1174.33 845.938 1175.28 847.159Z"
                      fill="#231F20" fill-opacity="0.3"/>
                <path d="M1159.99 858.877C1160.71 859.792 1161.68 860.475 1162.78 860.839C1163.88 861.203 1165.06 861.232 1166.18 860.922C1167.3 860.612 1168.3 859.977 1169.06 859.098C1169.81 858.219 1170.29 857.135 1170.43 855.983C1170.57 854.831 1170.37 853.664 1169.84 852.629C1169.32 851.594 1168.5 850.738 1167.49 850.17C1166.48 849.601 1165.32 849.346 1164.16 849.436C1163.01 849.526 1161.9 849.957 1160.99 850.675C1159.77 851.633 1158.99 853.034 1158.8 854.57C1158.61 856.107 1159.04 857.656 1159.99 858.877Z"
                      fill="#231F20" fill-opacity="0.3"/>
                <path d="M1144.71 870.623C1145.42 871.538 1146.39 872.221 1147.49 872.585C1148.59 872.949 1149.78 872.978 1150.9 872.668C1152.01 872.358 1153.02 871.724 1153.77 870.844C1154.53 869.965 1155.01 868.881 1155.15 867.729C1155.29 866.577 1155.08 865.41 1154.56 864.375C1154.03 863.34 1153.21 862.484 1152.2 861.916C1151.19 861.347 1150.03 861.092 1148.88 861.182C1147.72 861.272 1146.62 861.703 1145.71 862.421C1144.49 863.379 1143.7 864.78 1143.52 866.316C1143.33 867.853 1143.76 869.402 1144.71 870.623Z"
                      fill="#231F20" fill-opacity="0.3"/>
                <path d="M1129.38 882.369C1130.09 883.282 1131.06 883.964 1132.16 884.327C1133.26 884.691 1134.44 884.721 1135.55 884.412C1136.67 884.104 1137.67 883.472 1138.43 882.596C1139.19 881.719 1139.67 880.638 1139.81 879.489C1139.95 878.34 1139.75 877.174 1139.23 876.139C1138.71 875.103 1137.9 874.245 1136.89 873.672C1135.89 873.1 1134.73 872.838 1133.58 872.921C1132.42 873.004 1131.32 873.427 1130.4 874.138C1129.79 874.61 1129.28 875.198 1128.9 875.868C1128.52 876.538 1128.28 877.276 1128.18 878.041C1128.09 878.805 1128.14 879.581 1128.35 880.324C1128.55 881.067 1128.9 881.762 1129.38 882.369Z"
                      fill="#231F20" fill-opacity="0.3"/>
                <path d="M1114.09 894.086C1114.8 895.004 1115.76 895.689 1116.86 896.057C1117.96 896.425 1119.15 896.457 1120.26 896.151C1121.38 895.845 1122.39 895.213 1123.15 894.337C1123.91 893.46 1124.39 892.378 1124.53 891.227C1124.68 890.076 1124.47 888.908 1123.95 887.872C1123.43 886.835 1122.62 885.976 1121.61 885.404C1120.6 884.832 1119.44 884.572 1118.29 884.658C1117.13 884.743 1116.02 885.17 1115.11 885.884C1113.89 886.838 1113.1 888.236 1112.9 889.774C1112.71 891.311 1113.14 892.861 1114.09 894.086Z"
                      fill="#231F20" fill-opacity="0.3"/>
                <path d="M1309.15 768.271C1309.86 769.188 1310.83 769.874 1311.93 770.242C1313.03 770.609 1314.21 770.642 1315.33 770.336C1316.45 770.029 1317.45 769.398 1318.21 768.521C1318.97 767.645 1319.45 766.562 1319.6 765.412C1319.74 764.261 1319.54 763.093 1319.02 762.056C1318.5 761.02 1317.68 760.161 1316.67 759.589C1315.67 759.016 1314.51 758.757 1313.35 758.842C1312.2 758.928 1311.09 759.354 1310.18 760.069C1308.96 761.023 1308.16 762.421 1307.97 763.958C1307.78 765.495 1308.2 767.046 1309.15 768.271Z"
                      fill="#231F20" fill-opacity="0.3"/>
                <path d="M1293.87 780.017C1294.58 780.928 1295.55 781.607 1296.65 781.967C1297.75 782.327 1298.94 782.353 1300.05 782.041C1301.17 781.729 1302.17 781.093 1302.92 780.214C1303.68 779.335 1304.15 778.252 1304.29 777.102C1304.43 775.953 1304.23 774.787 1303.7 773.753C1303.18 772.72 1302.36 771.865 1301.35 771.296C1300.34 770.727 1299.19 770.469 1298.03 770.557C1296.88 770.644 1295.78 771.072 1294.86 771.786C1294.26 772.26 1293.75 772.85 1293.37 773.521C1292.99 774.192 1292.75 774.93 1292.66 775.695C1292.57 776.46 1292.63 777.235 1292.83 777.976C1293.04 778.718 1293.39 779.412 1293.87 780.017Z"
                      fill="#231F20" fill-opacity="0.3"/>
                <path d="M1278.46 791.736C1279.18 792.652 1280.14 793.335 1281.25 793.699C1282.35 794.063 1283.53 794.092 1284.65 793.782C1285.77 793.472 1286.77 792.837 1287.53 791.957C1288.28 791.078 1288.76 789.994 1288.9 788.842C1289.04 787.691 1288.84 786.523 1288.31 785.488C1287.79 784.454 1286.97 783.598 1285.96 783.029C1284.95 782.461 1283.79 782.205 1282.63 782.295C1281.47 782.385 1280.37 782.816 1279.46 783.534C1278.24 784.492 1277.46 785.893 1277.27 787.43C1277.08 788.967 1277.51 790.515 1278.46 791.736Z"
                      fill="#231F20" fill-opacity="0.3"/>
                <path d="M1263.28 803.482C1263.99 804.398 1264.96 805.081 1266.06 805.445C1267.16 805.809 1268.35 805.838 1269.46 805.528C1270.58 805.218 1271.58 804.583 1272.34 803.704C1273.1 802.824 1273.57 801.74 1273.71 800.588C1273.85 799.437 1273.65 798.269 1273.12 797.235C1272.6 796.2 1271.78 795.344 1270.77 794.775C1269.76 794.207 1268.6 793.951 1267.44 794.041C1266.29 794.131 1265.18 794.562 1264.27 795.28C1263.06 796.238 1262.27 797.639 1262.08 799.176C1261.9 800.713 1262.32 802.261 1263.28 803.482Z"
                      fill="#231F20" fill-opacity="0.3"/>
                <path d="M1247.96 815.23C1248.67 816.143 1249.64 816.824 1250.74 817.188C1251.84 817.551 1253.02 817.581 1254.14 817.273C1255.25 816.964 1256.25 816.332 1257.01 815.456C1257.77 814.58 1258.25 813.499 1258.39 812.349C1258.53 811.2 1258.33 810.034 1257.81 808.999C1257.3 807.964 1256.48 807.106 1255.47 806.533C1254.47 805.96 1253.31 805.699 1252.16 805.782C1251 805.864 1249.9 806.288 1248.98 806.998C1248.38 807.471 1247.87 808.059 1247.49 808.728C1247.1 809.398 1246.86 810.137 1246.76 810.901C1246.67 811.666 1246.72 812.442 1246.93 813.184C1247.14 813.927 1247.48 814.622 1247.96 815.23Z"
                      fill="#231F20" fill-opacity="0.3"/>
                <path d="M1232.67 826.947C1233.38 827.864 1234.35 828.55 1235.45 828.917C1236.55 829.285 1237.73 829.318 1238.85 829.011C1239.97 828.705 1240.97 828.074 1241.73 827.197C1242.49 826.321 1242.97 825.238 1243.12 824.087C1243.26 822.936 1243.06 821.769 1242.54 820.732C1242.02 819.695 1241.2 818.837 1240.19 818.264C1239.19 817.692 1238.03 817.432 1236.87 817.518C1235.72 817.603 1234.61 818.03 1233.7 818.745C1232.48 819.698 1231.68 821.097 1231.49 822.634C1231.3 824.171 1231.72 825.722 1232.67 826.947Z"
                      fill="#231F20" fill-opacity="0.3"/>
                <path d="M1217.38 838.839C1218.1 839.752 1219.06 840.433 1220.16 840.797C1221.26 841.161 1222.45 841.19 1223.56 840.882C1224.68 840.574 1225.68 839.942 1226.44 839.065C1227.19 838.189 1227.67 837.108 1227.82 835.959C1227.96 834.81 1227.76 833.644 1227.24 832.608C1226.72 831.573 1225.91 830.715 1224.9 830.142C1223.89 829.57 1222.74 829.308 1221.58 829.391C1220.43 829.474 1219.32 829.897 1218.41 830.607C1217.8 831.08 1217.29 831.668 1216.91 832.338C1216.53 833.008 1216.28 833.746 1216.19 834.511C1216.09 835.275 1216.15 836.051 1216.36 836.794C1216.56 837.536 1216.91 838.231 1217.38 838.839Z"
                      fill="#231F20" fill-opacity="0.3"/>
                <path d="M1202.09 850.558C1202.8 851.475 1203.77 852.161 1204.87 852.529C1205.97 852.896 1207.15 852.929 1208.27 852.623C1209.39 852.317 1210.39 851.685 1211.15 850.809C1211.91 849.932 1212.4 848.85 1212.54 847.699C1212.68 846.548 1212.48 845.38 1211.96 844.343C1211.44 843.307 1210.62 842.448 1209.62 841.876C1208.61 841.304 1207.45 841.044 1206.29 841.129C1205.14 841.215 1204.03 841.642 1203.12 842.356C1201.9 843.31 1201.1 844.708 1200.91 846.245C1200.72 847.782 1201.14 849.333 1202.09 850.558Z"
                      fill="#231F20" fill-opacity="0.3"/>
                <path d="M1186.79 862.275C1187.5 863.191 1188.47 863.874 1189.57 864.238C1190.68 864.602 1191.86 864.631 1192.98 864.321C1194.1 864.011 1195.1 863.376 1195.85 862.497C1196.61 861.617 1197.09 860.533 1197.23 859.381C1197.37 858.23 1197.16 857.062 1196.64 856.028C1196.12 854.993 1195.3 854.137 1194.28 853.568C1193.27 853 1192.12 852.744 1190.96 852.834C1189.8 852.924 1188.7 853.355 1187.79 854.073C1186.57 855.031 1185.78 856.432 1185.6 857.969C1185.41 859.506 1185.84 861.054 1186.79 862.275Z"
                      fill="#231F20" fill-opacity="0.3"/>
                <path d="M1171.5 873.992C1171.92 874.716 1172.49 875.342 1173.17 875.828C1173.84 876.315 1174.62 876.651 1175.44 876.813C1176.26 876.975 1177.1 876.96 1177.92 876.77C1178.73 876.579 1179.49 876.216 1180.15 875.706C1180.82 875.196 1181.36 874.551 1181.75 873.813C1182.14 873.075 1182.37 872.262 1182.42 871.429C1182.48 870.595 1182.35 869.76 1182.05 868.979C1181.75 868.199 1181.29 867.491 1180.7 866.903C1180.28 866.179 1179.72 865.553 1179.04 865.067C1178.36 864.58 1177.58 864.245 1176.76 864.082C1175.94 863.92 1175.1 863.935 1174.29 864.126C1173.47 864.317 1172.71 864.679 1172.05 865.189C1171.39 865.699 1170.84 866.344 1170.45 867.082C1170.06 867.82 1169.83 868.633 1169.78 869.467C1169.73 870.3 1169.85 871.135 1170.15 871.916C1170.45 872.696 1170.91 873.404 1171.5 873.992Z"
                      fill="#231F20" fill-opacity="0.3"/>
                <path d="M1156.22 885.71C1156.93 886.625 1157.9 887.308 1159 887.672C1160.11 888.036 1161.29 888.065 1162.41 887.755C1163.53 887.445 1164.53 886.81 1165.28 885.931C1166.04 885.052 1166.52 883.968 1166.66 882.816C1166.8 881.664 1166.59 880.497 1166.07 879.462C1165.55 878.427 1164.73 877.571 1163.71 877.003C1162.7 876.434 1161.55 876.179 1160.39 876.269C1159.23 876.359 1158.13 876.79 1157.22 877.508C1156 878.466 1155.21 879.867 1155.03 881.403C1154.84 882.94 1155.27 884.489 1156.22 885.71Z"
                      fill="#231F20" fill-opacity="0.3"/>
                <path d="M1140.92 897.428C1141.63 898.343 1142.6 899.026 1143.7 899.39C1144.8 899.754 1145.99 899.783 1147.11 899.473C1148.23 899.163 1149.23 898.528 1149.98 897.649C1150.74 896.77 1151.22 895.685 1151.36 894.534C1151.5 893.382 1151.29 892.215 1150.77 891.18C1150.24 890.145 1149.42 889.289 1148.41 888.72C1147.4 888.152 1146.24 887.896 1145.09 887.986C1143.93 888.076 1142.83 888.508 1141.92 889.226C1140.7 890.184 1139.91 891.584 1139.73 893.121C1139.54 894.658 1139.97 896.206 1140.92 897.428Z"
                      fill="#231F20" fill-opacity="0.3"/>
                <path d="M1125.6 909.144C1126.32 910.057 1127.28 910.738 1128.38 911.102C1129.48 911.465 1130.66 911.495 1131.78 911.187C1132.9 910.879 1133.9 910.246 1134.65 909.37C1135.41 908.494 1135.89 907.413 1136.04 906.263C1136.18 905.114 1135.98 903.948 1135.46 902.913C1134.94 901.878 1134.13 901.02 1133.12 900.447C1132.11 899.874 1130.96 899.613 1129.8 899.696C1128.65 899.778 1127.54 900.202 1126.63 900.912C1126.02 901.385 1125.51 901.973 1125.13 902.643C1124.75 903.312 1124.5 904.051 1124.41 904.815C1124.31 905.58 1124.37 906.356 1124.57 907.098C1124.78 907.841 1125.13 908.536 1125.6 909.144Z"
                      fill="#231F20" fill-opacity="0.3"/>
                <path d="M1110.31 920.862C1111.02 921.779 1111.99 922.465 1113.09 922.832C1114.19 923.2 1115.37 923.233 1116.49 922.926C1117.61 922.62 1118.61 921.989 1119.37 921.112C1120.13 920.236 1120.61 919.153 1120.76 918.002C1120.9 916.851 1120.7 915.684 1120.18 914.647C1119.66 913.61 1118.84 912.752 1117.83 912.179C1116.83 911.607 1115.67 911.347 1114.51 911.433C1113.36 911.518 1112.25 911.945 1111.34 912.66C1110.12 913.613 1109.32 915.012 1109.13 916.549C1108.94 918.086 1109.36 919.637 1110.31 920.862Z"
                      fill="#231F20" fill-opacity="0.3"/>
                <path d="M1335.96 771.464C1336.68 772.377 1337.64 773.058 1338.74 773.422C1339.84 773.786 1341.02 773.815 1342.14 773.507C1343.26 773.199 1344.26 772.567 1345.01 771.69C1345.77 770.814 1346.25 769.733 1346.4 768.584C1346.54 767.435 1346.34 766.269 1345.82 765.233C1345.3 764.198 1344.48 763.34 1343.48 762.767C1342.47 762.195 1341.32 761.933 1340.16 762.016C1339.01 762.099 1337.9 762.522 1336.99 763.233C1336.38 763.705 1335.87 764.293 1335.49 764.963C1335.11 765.633 1334.86 766.371 1334.77 767.136C1334.67 767.9 1334.73 768.676 1334.93 769.419C1335.14 770.161 1335.49 770.856 1335.96 771.464Z"
                      fill="#231F20" fill-opacity="0.3"/>
                <path d="M1320.66 783.183C1321.37 784.1 1322.34 784.786 1323.44 785.154C1324.54 785.521 1325.72 785.554 1326.84 785.248C1327.96 784.942 1328.96 784.31 1329.72 783.434C1330.48 782.557 1330.97 781.475 1331.11 780.324C1331.25 779.173 1331.05 778.005 1330.53 776.968C1330.01 775.932 1329.2 775.073 1328.19 774.501C1327.18 773.929 1326.02 773.669 1324.86 773.754C1323.71 773.84 1322.6 774.267 1321.69 774.981C1320.47 775.935 1319.67 777.333 1319.48 778.87C1319.29 780.407 1319.72 781.958 1320.66 783.183Z"
                      fill="#231F20" fill-opacity="0.3"/>
                <path d="M1305.37 794.9C1305.78 795.634 1306.35 796.271 1307.02 796.767C1307.7 797.264 1308.48 797.609 1309.3 797.778C1310.13 797.948 1310.98 797.938 1311.8 797.75C1312.62 797.562 1313.38 797.199 1314.05 796.688C1314.72 796.176 1315.27 795.526 1315.66 794.783C1316.05 794.041 1316.28 793.222 1316.33 792.382C1316.38 791.543 1316.25 790.703 1315.95 789.919C1315.64 789.136 1315.17 788.427 1314.57 787.84C1314.16 787.107 1313.6 786.47 1312.92 785.973C1312.24 785.477 1311.46 785.132 1310.64 784.962C1309.81 784.793 1308.96 784.802 1308.14 784.99C1307.33 785.179 1306.56 785.541 1305.89 786.053C1305.22 786.565 1304.67 787.214 1304.28 787.957C1303.89 788.7 1303.66 789.519 1303.61 790.358C1303.56 791.197 1303.69 792.037 1303.99 792.821C1304.3 793.605 1304.77 794.314 1305.37 794.9Z"
                      fill="#231F20" fill-opacity="0.3"/>
                <path d="M1290.17 806.762C1290.88 807.673 1291.85 808.352 1292.95 808.712C1294.06 809.072 1295.24 809.098 1296.35 808.786C1297.47 808.474 1298.47 807.839 1299.22 806.96C1299.98 806.081 1300.45 804.998 1300.59 803.848C1300.73 802.698 1300.53 801.532 1300 800.499C1299.48 799.465 1298.66 798.61 1297.65 798.041C1296.65 797.472 1295.49 797.215 1294.34 797.302C1293.18 797.389 1292.08 797.817 1291.16 798.531C1290.56 799.006 1290.05 799.595 1289.67 800.266C1289.3 800.937 1289.05 801.676 1288.96 802.44C1288.87 803.205 1288.93 803.98 1289.13 804.722C1289.34 805.463 1289.69 806.157 1290.17 806.762Z"
                      fill="#231F20" fill-opacity="0.3"/>
                <path d="M1274.8 818.481C1275.51 819.397 1276.48 820.08 1277.58 820.444C1278.68 820.808 1279.87 820.837 1280.99 820.527C1282.1 820.217 1283.11 819.582 1283.86 818.703C1284.62 817.823 1285.1 816.739 1285.24 815.587C1285.38 814.436 1285.17 813.268 1284.65 812.234C1284.12 811.199 1283.3 810.343 1282.29 809.774C1281.28 809.206 1280.12 808.95 1278.97 809.04C1277.81 809.13 1276.71 809.561 1275.8 810.279C1274.58 811.237 1273.79 812.638 1273.61 814.175C1273.42 815.712 1273.85 817.26 1274.8 818.481Z"
                      fill="#231F20" fill-opacity="0.3"/>
                <path d="M1259.47 830.229C1260.18 831.142 1261.15 831.823 1262.25 832.187C1263.35 832.55 1264.53 832.58 1265.65 832.272C1266.76 831.964 1267.76 831.331 1268.52 830.455C1269.28 829.579 1269.76 828.498 1269.9 827.348C1270.05 826.199 1269.85 825.033 1269.33 823.998C1268.81 822.963 1267.99 822.105 1266.99 821.532C1265.98 820.959 1264.83 820.698 1263.67 820.781C1262.52 820.863 1261.41 821.287 1260.5 821.997C1259.89 822.47 1259.38 823.058 1259 823.728C1258.62 824.397 1258.37 825.136 1258.28 825.9C1258.18 826.665 1258.24 827.441 1258.44 828.183C1258.65 828.926 1259 829.621 1259.47 830.229Z"
                      fill="#231F20" fill-opacity="0.3"/>
                <path d="M1244.18 841.945C1244.89 842.862 1245.86 843.548 1246.96 843.915C1248.06 844.283 1249.24 844.316 1250.36 844.009C1251.48 843.703 1252.48 843.072 1253.24 842.195C1254 841.319 1254.48 840.236 1254.63 839.085C1254.77 837.934 1254.57 836.767 1254.05 835.73C1253.53 834.693 1252.71 833.835 1251.7 833.262C1250.69 832.69 1249.54 832.43 1248.38 832.516C1247.22 832.601 1246.12 833.028 1245.2 833.743C1243.98 834.696 1243.19 836.095 1243 837.632C1242.81 839.169 1243.23 840.72 1244.18 841.945Z"
                      fill="#231F20" fill-opacity="0.3"/>
                <path d="M1228.89 853.691C1229.6 854.608 1230.57 855.294 1231.67 855.661C1232.77 856.029 1233.95 856.062 1235.07 855.756C1236.19 855.449 1237.19 854.818 1237.95 853.941C1238.71 853.065 1239.2 851.982 1239.34 850.831C1239.48 849.681 1239.28 848.513 1238.76 847.476C1238.24 846.44 1237.43 845.581 1236.42 845.009C1235.41 844.436 1234.25 844.177 1233.09 844.262C1231.94 844.347 1230.83 844.774 1229.92 845.489C1228.7 846.443 1227.91 847.841 1227.71 849.378C1227.52 850.915 1227.95 852.466 1228.89 853.691Z"
                      fill="#231F20" fill-opacity="0.3"/>
                <path d="M1213.6 865.438C1214.31 866.351 1215.27 867.032 1216.37 867.396C1217.47 867.759 1218.66 867.789 1219.77 867.481C1220.89 867.173 1221.89 866.54 1222.65 865.664C1223.4 864.788 1223.88 863.707 1224.03 862.557C1224.17 861.408 1223.97 860.242 1223.45 859.207C1222.93 858.172 1222.12 857.314 1221.11 856.741C1220.1 856.168 1218.95 855.907 1217.8 855.99C1216.64 856.072 1215.54 856.496 1214.62 857.206C1214.01 857.679 1213.5 858.267 1213.12 858.937C1212.74 859.606 1212.5 860.345 1212.4 861.109C1212.31 861.874 1212.36 862.65 1212.57 863.392C1212.77 864.135 1213.12 864.83 1213.6 865.438Z"
                      fill="#231F20" fill-opacity="0.3"/>
                <path d="M1198.31 877.154C1199.02 878.071 1199.98 878.757 1201.08 879.124C1202.18 879.492 1203.37 879.525 1204.49 879.219C1205.61 878.912 1206.61 878.281 1207.37 877.404C1208.13 876.528 1208.61 875.445 1208.75 874.294C1208.9 873.143 1208.7 871.976 1208.18 870.939C1207.66 869.902 1206.84 869.044 1205.83 868.471C1204.82 867.899 1203.67 867.639 1202.51 867.725C1201.35 867.81 1200.25 868.237 1199.33 868.952C1198.11 869.905 1197.32 871.304 1197.13 872.841C1196.94 874.378 1197.36 875.929 1198.31 877.154Z"
                      fill="#231F20" fill-opacity="0.3"/>
                <path d="M1183.02 888.903C1183.73 889.82 1184.69 890.506 1185.8 890.873C1186.9 891.241 1188.08 891.274 1189.2 890.967C1190.32 890.661 1191.32 890.03 1192.08 889.153C1192.84 888.277 1193.32 887.194 1193.47 886.043C1193.61 884.892 1193.41 883.725 1192.89 882.688C1192.37 881.651 1191.55 880.793 1190.54 880.22C1189.53 879.648 1188.38 879.388 1187.22 879.474C1186.06 879.559 1184.96 879.986 1184.04 880.701C1182.82 881.654 1182.03 883.053 1181.84 884.59C1181.65 886.127 1182.07 887.678 1183.02 888.903Z"
                      fill="#231F20" fill-opacity="0.3"/>
                <path d="M1167.74 900.649C1168.45 901.56 1169.42 902.239 1170.52 902.599C1171.62 902.959 1172.81 902.985 1173.92 902.673C1175.04 902.361 1176.03 901.725 1176.79 900.846C1177.54 899.967 1178.02 898.884 1178.16 897.734C1178.3 896.584 1178.09 895.419 1177.57 894.385C1177.05 893.352 1176.23 892.496 1175.22 891.927C1174.21 891.358 1173.06 891.101 1171.9 891.189C1170.75 891.276 1169.64 891.703 1168.73 892.418C1168.12 892.892 1167.62 893.482 1167.24 894.153C1166.86 894.824 1166.62 895.562 1166.53 896.327C1166.43 897.091 1166.49 897.867 1166.7 898.608C1166.91 899.35 1167.26 900.043 1167.74 900.649Z"
                      fill="#231F20" fill-opacity="0.3"/>
                <path d="M1152.5 912.366C1153.21 913.281 1154.18 913.964 1155.28 914.329C1156.38 914.693 1157.57 914.722 1158.69 914.412C1159.8 914.102 1160.8 913.467 1161.56 912.587C1162.32 911.708 1162.8 910.624 1162.94 909.472C1163.08 908.32 1162.87 907.153 1162.35 906.118C1161.82 905.083 1161 904.227 1159.99 903.659C1158.98 903.09 1157.82 902.835 1156.67 902.925C1155.51 903.015 1154.41 903.446 1153.49 904.164C1152.28 905.122 1151.49 906.523 1151.3 908.06C1151.12 909.597 1151.55 911.145 1152.5 912.366Z"
                      fill="#231F20" fill-opacity="0.3"/>
                <path d="M1137.12 924.112C1137.83 925.029 1138.8 925.715 1139.9 926.082C1141 926.45 1142.18 926.483 1143.3 926.176C1144.42 925.87 1145.42 925.239 1146.18 924.362C1146.94 923.486 1147.42 922.403 1147.57 921.252C1147.71 920.101 1147.51 918.934 1146.99 917.897C1146.47 916.86 1145.65 916.002 1144.64 915.429C1143.63 914.857 1142.48 914.597 1141.32 914.683C1140.16 914.768 1139.06 915.195 1138.15 915.91C1136.93 916.863 1136.13 918.262 1135.94 919.799C1135.75 921.336 1136.17 922.887 1137.12 924.112Z"
                      fill="#231F20" fill-opacity="0.3"/>
                <path d="M1121.83 935.859C1122.54 936.772 1123.51 937.454 1124.61 937.818C1125.7 938.181 1126.89 938.211 1128 937.903C1129.12 937.594 1130.12 936.962 1130.88 936.086C1131.63 935.21 1132.12 934.129 1132.26 932.979C1132.4 931.83 1132.2 930.664 1131.68 929.629C1131.16 928.594 1130.35 927.735 1129.34 927.163C1128.33 926.59 1127.18 926.329 1126.03 926.411C1124.87 926.494 1123.77 926.918 1122.85 927.628C1122.24 928.101 1121.73 928.689 1121.35 929.358C1120.97 930.028 1120.73 930.766 1120.63 931.531C1120.54 932.296 1120.59 933.072 1120.8 933.814C1121 934.557 1121.35 935.252 1121.83 935.859Z"
                      fill="#231F20" fill-opacity="0.3"/>
                <path d="M1347.47 786.55C1348.18 787.467 1349.15 788.153 1350.25 788.521C1351.35 788.888 1352.53 788.921 1353.65 788.615C1354.77 788.309 1355.77 787.677 1356.53 786.801C1357.29 785.924 1357.77 784.842 1357.92 783.691C1358.06 782.54 1357.86 781.372 1357.34 780.336C1356.82 779.299 1356 778.44 1354.99 777.868C1353.99 777.296 1352.83 777.036 1351.67 777.121C1350.52 777.207 1349.41 777.634 1348.5 778.348C1347.28 779.302 1346.48 780.7 1346.29 782.237C1346.1 783.775 1346.52 785.325 1347.47 786.55Z"
                      fill="#231F20" fill-opacity="0.3"/>
                <path d="M1332.19 798.268C1332.9 799.185 1333.86 799.871 1334.96 800.239C1336.06 800.606 1337.25 800.639 1338.37 800.333C1339.49 800.027 1340.49 799.395 1341.25 798.518C1342.01 797.642 1342.49 796.56 1342.63 795.409C1342.78 794.258 1342.58 793.09 1342.06 792.053C1341.54 791.017 1340.72 790.158 1339.71 789.586C1338.7 789.014 1337.54 788.754 1336.39 788.839C1335.23 788.925 1334.13 789.352 1333.21 790.066C1331.99 791.02 1331.2 792.418 1331.01 793.955C1330.81 795.492 1331.24 797.043 1332.19 798.268Z"
                      fill="#231F20" fill-opacity="0.3"/>
                <path d="M1316.89 810.014C1317.6 810.931 1318.57 811.617 1319.67 811.985C1320.77 812.352 1321.95 812.385 1323.07 812.079C1324.19 811.773 1325.19 811.141 1325.95 810.265C1326.71 809.388 1327.19 808.306 1327.34 807.155C1327.48 806.004 1327.28 804.836 1326.76 803.799C1326.24 802.763 1325.42 801.904 1324.41 801.332C1323.4 800.76 1322.25 800.5 1321.09 800.585C1319.93 800.671 1318.83 801.098 1317.92 801.812C1316.69 802.766 1315.9 804.164 1315.71 805.701C1315.52 807.238 1315.94 808.789 1316.89 810.014Z"
                      fill="#231F20" fill-opacity="0.3"/>
                <path d="M1301.6 821.76C1302.32 822.671 1303.29 823.35 1304.39 823.71C1305.49 824.07 1306.67 824.096 1307.79 823.784C1308.9 823.472 1309.9 822.837 1310.66 821.958C1311.41 821.079 1311.89 819.996 1312.03 818.846C1312.17 817.696 1311.96 816.53 1311.44 815.497C1310.91 814.463 1310.1 813.608 1309.09 813.039C1308.08 812.47 1306.92 812.213 1305.77 812.3C1304.61 812.387 1303.51 812.815 1302.6 813.529C1301.99 814.004 1301.49 814.593 1301.11 815.264C1300.73 815.935 1300.49 816.674 1300.39 817.438C1300.3 818.203 1300.36 818.978 1300.57 819.72C1300.78 820.461 1301.13 821.155 1301.6 821.76Z"
                      fill="#231F20" fill-opacity="0.3"/>
                <path d="M1286.31 833.48C1287.03 834.395 1288 835.078 1289.1 835.442C1290.2 835.806 1291.38 835.835 1292.5 835.525C1293.62 835.215 1294.62 834.58 1295.38 833.701C1296.13 832.821 1296.61 831.737 1296.75 830.585C1296.89 829.434 1296.69 828.267 1296.16 827.232C1295.64 826.197 1294.82 825.341 1293.81 824.772C1292.8 824.204 1291.64 823.948 1290.48 824.038C1289.33 824.128 1288.22 824.559 1287.31 825.277C1286.09 826.236 1285.31 827.636 1285.12 829.173C1284.93 830.71 1285.36 832.258 1286.31 833.48Z"
                      fill="#231F20" fill-opacity="0.3"/>
                <path d="M1271.01 845.226C1271.73 846.141 1272.7 846.824 1273.8 847.188C1274.9 847.552 1276.08 847.581 1277.2 847.271C1278.32 846.961 1279.32 846.326 1280.08 845.447C1280.83 844.567 1281.31 843.483 1281.45 842.331C1281.59 841.18 1281.39 840.013 1280.86 838.978C1280.34 837.943 1279.52 837.087 1278.51 836.518C1277.5 835.95 1276.34 835.694 1275.18 835.784C1274.03 835.874 1272.92 836.305 1272.01 837.023C1270.79 837.982 1270.01 839.382 1269.82 840.919C1269.63 842.456 1270.06 844.004 1271.01 845.226Z"
                      fill="#231F20" fill-opacity="0.3"/>
                <path d="M1255.69 856.973C1256.41 857.886 1257.37 858.567 1258.47 858.931C1259.57 859.294 1260.75 859.324 1261.87 859.016C1262.99 858.708 1263.99 858.076 1264.74 857.199C1265.5 856.323 1265.98 855.242 1266.13 854.093C1266.27 852.943 1266.07 851.777 1265.55 850.742C1265.03 849.707 1264.22 848.849 1263.21 848.276C1262.2 847.703 1261.05 847.442 1259.89 847.525C1258.74 847.608 1257.63 848.031 1256.72 848.741C1256.11 849.214 1255.6 849.802 1255.22 850.472C1254.84 851.141 1254.59 851.88 1254.5 852.644C1254.4 853.409 1254.46 854.185 1254.66 854.928C1254.87 855.67 1255.22 856.365 1255.69 856.973Z"
                      fill="#231F20" fill-opacity="0.3"/>
                <path d="M1240.38 868.69C1241.09 869.607 1242.06 870.293 1243.16 870.661C1244.26 871.028 1245.44 871.061 1246.56 870.755C1247.68 870.448 1248.68 869.817 1249.44 868.94C1250.2 868.064 1250.68 866.981 1250.83 865.831C1250.97 864.68 1250.77 863.512 1250.25 862.475C1249.73 861.439 1248.91 860.58 1247.91 860.008C1246.9 859.435 1245.74 859.176 1244.58 859.261C1243.43 859.347 1242.32 859.773 1241.41 860.488C1240.19 861.442 1239.39 862.84 1239.2 864.377C1239.01 865.914 1239.43 867.465 1240.38 868.69Z"
                      fill="#231F20" fill-opacity="0.3"/>
                <path d="M1225.12 880.435C1225.83 881.352 1226.79 882.038 1227.89 882.406C1228.99 882.773 1230.18 882.806 1231.3 882.5C1232.41 882.194 1233.42 881.562 1234.18 880.686C1234.94 879.809 1235.42 878.727 1235.56 877.576C1235.71 876.425 1235.51 875.257 1234.99 874.22C1234.46 873.184 1233.65 872.325 1232.64 871.753C1231.63 871.18 1230.47 870.921 1229.32 871.006C1228.16 871.092 1227.06 871.519 1226.14 872.233C1224.92 873.187 1224.13 874.585 1223.94 876.122C1223.74 877.659 1224.17 879.21 1225.12 880.435Z"
                      fill="#231F20" fill-opacity="0.3"/>
                <path d="M1209.82 892.182C1210.53 893.095 1211.5 893.776 1212.6 894.14C1213.7 894.503 1214.88 894.533 1216 894.225C1217.12 893.917 1218.12 893.284 1218.87 892.408C1219.63 891.532 1220.11 890.451 1220.25 889.302C1220.4 888.152 1220.2 886.986 1219.68 885.951C1219.16 884.916 1218.34 884.058 1217.34 883.485C1216.33 882.912 1215.18 882.651 1214.02 882.734C1212.87 882.817 1211.76 883.24 1210.85 883.95C1210.24 884.423 1209.73 885.011 1209.35 885.681C1208.97 886.35 1208.72 887.089 1208.63 887.853C1208.53 888.618 1208.59 889.394 1208.79 890.137C1209 890.879 1209.35 891.574 1209.82 892.182Z"
                      fill="#231F20" fill-opacity="0.3"/>
                <path d="M1194.53 903.902C1195.24 904.819 1196.21 905.505 1197.31 905.872C1198.41 906.24 1199.59 906.273 1200.71 905.967C1201.83 905.66 1202.83 905.029 1203.59 904.152C1204.35 903.276 1204.83 902.193 1204.98 901.042C1205.12 899.891 1204.92 898.724 1204.4 897.687C1203.88 896.65 1203.06 895.792 1202.05 895.22C1201.04 894.647 1199.89 894.387 1198.73 894.473C1197.57 894.558 1196.47 894.985 1195.56 895.7C1194.34 896.654 1193.54 898.052 1193.35 899.589C1193.16 901.126 1193.58 902.677 1194.53 903.902Z"
                      fill="#231F20" fill-opacity="0.3"/>
                <path d="M1179.24 915.647C1179.96 916.563 1180.93 917.246 1182.03 917.61C1183.13 917.974 1184.31 918.003 1185.43 917.693C1186.55 917.383 1187.55 916.748 1188.31 915.869C1189.06 914.989 1189.54 913.905 1189.68 912.753C1189.82 911.602 1189.62 910.434 1189.09 909.4C1188.57 908.365 1187.75 907.509 1186.74 906.94C1185.73 906.372 1184.57 906.116 1183.41 906.206C1182.26 906.296 1181.15 906.727 1180.24 907.445C1179.02 908.403 1178.24 909.804 1178.05 911.341C1177.86 912.878 1178.29 914.426 1179.24 915.647Z"
                      fill="#231F20" fill-opacity="0.3"/>
                <path d="M1163.96 927.365C1164.67 928.28 1165.64 928.963 1166.74 929.328C1167.84 929.692 1169.02 929.721 1170.14 929.411C1171.26 929.101 1172.26 928.466 1173.02 927.586C1173.77 926.707 1174.25 925.623 1174.39 924.471C1174.53 923.319 1174.33 922.152 1173.8 921.117C1173.28 920.082 1172.46 919.226 1171.45 918.658C1170.44 918.089 1169.28 917.834 1168.12 917.924C1166.97 918.014 1165.86 918.445 1164.95 919.163C1163.74 920.121 1162.95 921.522 1162.76 923.059C1162.57 924.596 1163 926.144 1163.96 927.365Z"
                      fill="#231F20" fill-opacity="0.3"/>
                <path d="M1148.66 939.11C1149.37 940.026 1150.34 940.709 1151.44 941.073C1152.54 941.437 1153.73 941.466 1154.85 941.156C1155.96 940.846 1156.96 940.211 1157.72 939.332C1158.48 938.452 1158.96 937.368 1159.1 936.216C1159.24 935.065 1159.03 933.897 1158.51 932.862C1157.98 931.828 1157.16 930.972 1156.15 930.403C1155.14 929.835 1153.98 929.579 1152.83 929.669C1151.67 929.759 1150.57 930.19 1149.65 930.908C1148.44 931.866 1147.65 933.267 1147.46 934.804C1147.28 936.341 1147.71 937.889 1148.66 939.11Z"
                      fill="#231F20" fill-opacity="0.3"/>
                <path d="M1133.34 950.858C1134.05 951.771 1135.02 952.452 1136.12 952.816C1137.22 953.179 1138.4 953.209 1139.52 952.901C1140.63 952.592 1141.63 951.96 1142.39 951.084C1143.15 950.208 1143.63 949.127 1143.77 947.977C1143.91 946.828 1143.71 945.662 1143.19 944.627C1142.67 943.592 1141.86 942.733 1140.85 942.161C1139.85 941.588 1138.69 941.327 1137.54 941.41C1136.38 941.492 1135.28 941.916 1134.36 942.626C1133.75 943.099 1133.24 943.687 1132.86 944.356C1132.48 945.026 1132.24 945.764 1132.14 946.529C1132.05 947.294 1132.1 948.07 1132.31 948.812C1132.51 949.555 1132.86 950.25 1133.34 950.858Z"
                      fill="#231F20" fill-opacity="0.3"/>
                <path d="M1343.69 813.296C1344.4 814.209 1345.37 814.89 1346.47 815.254C1347.57 815.618 1348.75 815.647 1349.87 815.339C1350.98 815.031 1351.98 814.399 1352.74 813.522C1353.5 812.646 1353.98 811.565 1354.12 810.416C1354.26 809.267 1354.06 808.101 1353.54 807.065C1353.03 806.03 1352.21 805.172 1351.2 804.599C1350.2 804.027 1349.04 803.765 1347.89 803.848C1346.73 803.931 1345.63 804.354 1344.71 805.065C1344.11 805.537 1343.6 806.125 1343.22 806.795C1342.83 807.465 1342.59 808.203 1342.49 808.968C1342.4 809.732 1342.46 810.508 1342.66 811.251C1342.87 811.994 1343.22 812.689 1343.69 813.296Z"
                      fill="#231F20" fill-opacity="0.3"/>
                <path d="M1328.4 825.012C1329.11 825.929 1330.07 826.615 1331.17 826.983C1332.27 827.35 1333.46 827.383 1334.58 827.077C1335.7 826.771 1336.7 826.139 1337.46 825.263C1338.22 824.386 1338.7 823.304 1338.84 822.153C1338.99 821.002 1338.79 819.834 1338.27 818.797C1337.75 817.761 1336.93 816.902 1335.92 816.33C1334.91 815.758 1333.76 815.498 1332.6 815.583C1331.44 815.669 1330.34 816.096 1329.42 816.81C1328.2 817.764 1327.41 819.162 1327.22 820.699C1327.02 822.236 1327.45 823.787 1328.4 825.012Z"
                      fill="#231F20" fill-opacity="0.3"/>
                <path d="M1313.11 836.761C1313.82 837.678 1314.79 838.364 1315.89 838.732C1316.99 839.099 1318.17 839.132 1319.29 838.826C1320.41 838.52 1321.41 837.888 1322.17 837.012C1322.93 836.135 1323.41 835.053 1323.56 833.902C1323.7 832.751 1323.5 831.583 1322.98 830.546C1322.46 829.51 1321.64 828.651 1320.64 828.079C1319.63 827.507 1318.47 827.247 1317.31 827.332C1316.16 827.418 1315.05 827.845 1314.14 828.559C1312.92 829.513 1312.12 830.911 1311.93 832.448C1311.74 833.986 1312.16 835.536 1313.11 836.761Z"
                      fill="#231F20" fill-opacity="0.3"/>
                <path d="M1297.81 848.504C1298.53 849.416 1299.5 850.094 1300.6 850.454C1301.7 850.814 1302.88 850.84 1304 850.528C1305.11 850.216 1306.11 849.581 1306.87 848.702C1307.62 847.823 1308.1 846.74 1308.24 845.59C1308.38 844.44 1308.17 843.274 1307.65 842.241C1307.13 841.207 1306.31 840.352 1305.3 839.783C1304.29 839.214 1303.14 838.957 1301.98 839.044C1300.82 839.131 1299.72 839.559 1298.81 840.273C1298.2 840.748 1297.7 841.337 1297.32 842.008C1296.94 842.679 1296.7 843.418 1296.6 844.182C1296.51 844.947 1296.57 845.722 1296.78 846.464C1296.99 847.205 1297.34 847.899 1297.81 848.504Z"
                      fill="#231F20" fill-opacity="0.3"/>
                <path d="M1282.53 860.224C1283.24 861.139 1284.21 861.822 1285.31 862.186C1286.41 862.55 1287.6 862.579 1288.71 862.269C1289.83 861.959 1290.83 861.324 1291.59 860.445C1292.35 859.565 1292.82 858.481 1292.96 857.33C1293.1 856.178 1292.9 855.011 1292.37 853.976C1291.85 852.941 1291.03 852.085 1290.02 851.516C1289.01 850.948 1287.85 850.692 1286.69 850.782C1285.54 850.872 1284.43 851.303 1283.52 852.021C1282.31 852.98 1281.52 854.38 1281.33 855.917C1281.15 857.454 1281.57 859.002 1282.53 860.224Z"
                      fill="#231F20" fill-opacity="0.3"/>
                <path d="M1267.2 871.97C1267.91 872.887 1268.88 873.573 1269.98 873.941C1271.08 874.308 1272.26 874.341 1273.38 874.035C1274.5 873.729 1275.5 873.097 1276.26 872.221C1277.02 871.344 1277.5 870.262 1277.65 869.111C1277.79 867.96 1277.59 866.792 1277.07 865.755C1276.55 864.719 1275.73 863.86 1274.73 863.288C1273.72 862.716 1272.56 862.456 1271.4 862.541C1270.25 862.627 1269.14 863.054 1268.23 863.768C1267.01 864.722 1266.21 866.12 1266.02 867.657C1265.83 869.194 1266.25 870.745 1267.2 871.97Z"
                      fill="#231F20" fill-opacity="0.3"/>
                <path d="M1251.92 883.718C1252.63 884.631 1253.6 885.312 1254.7 885.676C1255.8 886.04 1256.98 886.069 1258.1 885.761C1259.21 885.453 1260.21 884.821 1260.97 883.944C1261.73 883.068 1262.21 881.987 1262.35 880.838C1262.5 879.688 1262.29 878.523 1261.78 877.487C1261.26 876.452 1260.44 875.594 1259.44 875.021C1258.43 874.449 1257.27 874.187 1256.12 874.27C1254.96 874.353 1253.86 874.776 1252.94 875.486C1252.34 875.959 1251.83 876.547 1251.45 877.217C1251.06 877.887 1250.82 878.625 1250.72 879.389C1250.63 880.154 1250.69 880.93 1250.89 881.673C1251.1 882.415 1251.45 883.11 1251.92 883.718Z"
                      fill="#231F20" fill-opacity="0.3"/>
                <path d="M1236.63 895.434C1237.34 896.351 1238.3 897.037 1239.4 897.405C1240.5 897.772 1241.69 897.805 1242.81 897.499C1243.93 897.193 1244.93 896.561 1245.69 895.685C1246.45 894.808 1246.93 893.726 1247.07 892.575C1247.22 891.424 1247.02 890.256 1246.5 889.219C1245.98 888.183 1245.16 887.324 1244.15 886.752C1243.14 886.18 1241.99 885.92 1240.83 886.005C1239.67 886.091 1238.57 886.518 1237.65 887.232C1236.43 888.186 1235.64 889.584 1235.45 891.121C1235.26 892.658 1235.68 894.209 1236.63 895.434Z"
                      fill="#231F20" fill-opacity="0.3"/>
                <path d="M1221.34 907.18C1222.05 908.097 1223.02 908.783 1224.12 909.151C1225.22 909.518 1226.4 909.551 1227.52 909.245C1228.64 908.939 1229.64 908.307 1230.4 907.431C1231.16 906.554 1231.64 905.472 1231.79 904.321C1231.93 903.17 1231.73 902.002 1231.21 900.965C1230.69 899.929 1229.87 899.07 1228.86 898.498C1227.85 897.926 1226.7 897.666 1225.54 897.751C1224.38 897.837 1223.28 898.264 1222.36 898.978C1221.14 899.932 1220.35 901.33 1220.16 902.867C1219.97 904.404 1220.39 905.955 1221.34 907.18Z"
                      fill="#231F20" fill-opacity="0.3"/>
                <path d="M1206.04 918.897C1206.75 919.814 1207.72 920.5 1208.82 920.868C1209.92 921.235 1211.1 921.268 1212.22 920.962C1213.34 920.655 1214.34 920.024 1215.1 919.147C1215.86 918.271 1216.34 917.189 1216.49 916.038C1216.63 914.887 1216.43 913.719 1215.91 912.682C1215.39 911.646 1214.57 910.787 1213.57 910.215C1212.56 909.642 1211.4 909.383 1210.24 909.468C1209.09 909.554 1207.98 909.98 1207.07 910.695C1205.85 911.649 1205.05 913.047 1204.86 914.584C1204.67 916.121 1205.09 917.672 1206.04 918.897Z"
                      fill="#231F20" fill-opacity="0.3"/>
                <path d="M1190.75 930.646C1191.46 931.563 1192.43 932.249 1193.53 932.617C1194.63 932.984 1195.81 933.017 1196.93 932.711C1198.05 932.404 1199.05 931.773 1199.81 930.896C1200.57 930.02 1201.06 928.937 1201.2 927.787C1201.34 926.636 1201.14 925.468 1200.62 924.431C1200.1 923.395 1199.29 922.536 1198.28 921.964C1197.27 921.391 1196.11 921.132 1194.95 921.217C1193.8 921.303 1192.69 921.729 1191.78 922.444C1190.56 923.398 1189.76 924.796 1189.57 926.333C1189.38 927.87 1189.8 929.421 1190.75 930.646Z"
                      fill="#231F20" fill-opacity="0.3"/>
                <path d="M1175.46 942.391C1175.89 943.087 1176.46 943.685 1177.14 944.146C1177.81 944.608 1178.58 944.923 1179.38 945.071C1180.19 945.218 1181.01 945.196 1181.81 945.005C1182.61 944.813 1183.35 944.457 1184 943.96C1184.65 943.462 1185.19 942.834 1185.58 942.115C1185.98 941.397 1186.21 940.604 1186.28 939.789C1186.35 938.973 1186.24 938.152 1185.97 937.379C1185.7 936.606 1185.28 935.899 1184.72 935.302C1184.3 934.578 1183.73 933.952 1183.05 933.465C1182.37 932.979 1181.6 932.643 1180.78 932.481C1179.96 932.319 1179.11 932.333 1178.3 932.524C1177.49 932.715 1176.73 933.077 1176.06 933.587C1175.4 934.097 1174.86 934.743 1174.47 935.481C1174.07 936.218 1173.84 937.031 1173.79 937.865C1173.74 938.699 1173.87 939.534 1174.17 940.314C1174.46 941.095 1174.92 941.803 1175.52 942.391"
                      fill="#231F20" fill-opacity="0.3"/>
                <path d="M1160.16 954.107C1160.57 954.841 1161.14 955.478 1161.82 955.974C1162.5 956.471 1163.27 956.816 1164.1 956.985C1164.92 957.155 1165.77 957.145 1166.59 956.957C1167.41 956.769 1168.18 956.407 1168.84 955.895C1169.51 955.383 1170.06 954.733 1170.45 953.991C1170.85 953.248 1171.08 952.429 1171.13 951.589C1171.18 950.75 1171.04 949.91 1170.74 949.126C1170.43 948.343 1169.97 947.634 1169.36 947.047C1168.95 946.314 1168.39 945.677 1167.71 945.18C1167.03 944.684 1166.25 944.339 1165.43 944.169C1164.61 944 1163.76 944.009 1162.94 944.197C1162.12 944.386 1161.35 944.748 1160.68 945.26C1160.02 945.772 1159.47 946.421 1159.07 947.164C1158.68 947.907 1158.45 948.726 1158.4 949.565C1158.35 950.404 1158.48 951.244 1158.79 952.028C1159.09 952.812 1159.56 953.521 1160.16 954.107Z"
                      fill="#231F20" fill-opacity="0.3"/>
                <path d="M1144.84 965.856C1145.55 966.773 1146.52 967.459 1147.62 967.827C1148.72 968.194 1149.9 968.227 1151.02 967.921C1152.14 967.614 1153.14 966.983 1153.9 966.106C1154.66 965.23 1155.15 964.147 1155.29 962.996C1155.43 961.846 1155.23 960.678 1154.71 959.641C1154.19 958.605 1153.37 957.746 1152.37 957.174C1151.36 956.601 1150.2 956.342 1149.04 956.427C1147.89 956.513 1146.78 956.939 1145.87 957.654C1144.65 958.608 1143.85 960.006 1143.66 961.543C1143.47 963.08 1143.89 964.631 1144.84 965.856Z"
                      fill="#231F20" fill-opacity="0.3"/>
                <path d="M1339.97 840.04C1340.68 840.953 1341.65 841.635 1342.75 841.998C1343.85 842.362 1345.03 842.391 1346.15 842.083C1347.26 841.775 1348.26 841.143 1349.02 840.267C1349.78 839.39 1350.26 838.309 1350.4 837.16C1350.55 836.011 1350.35 834.845 1349.83 833.81C1349.31 832.774 1348.49 831.916 1347.49 831.343C1346.48 830.771 1345.33 830.509 1344.17 830.592C1343.02 830.675 1341.91 831.098 1341 831.809C1340.39 832.281 1339.88 832.869 1339.5 833.539C1339.12 834.209 1338.87 834.947 1338.78 835.712C1338.68 836.476 1338.74 837.252 1338.94 837.995C1339.15 838.738 1339.5 839.433 1339.97 840.04Z"
                      fill="#231F20" fill-opacity="0.3"/>
                <path d="M1324.62 851.756C1325.33 852.674 1326.3 853.359 1327.4 853.727C1328.5 854.095 1329.69 854.127 1330.8 853.821C1331.92 853.515 1332.93 852.883 1333.68 852.007C1334.44 851.13 1334.93 850.048 1335.07 848.897C1335.21 847.746 1335.01 846.578 1334.49 845.542C1333.97 844.505 1333.16 843.646 1332.15 843.074C1331.14 842.502 1329.98 842.242 1328.83 842.327C1327.67 842.413 1326.56 842.84 1325.65 843.554C1324.43 844.508 1323.64 845.906 1323.44 847.444C1323.25 848.981 1323.68 850.531 1324.62 851.756Z"
                      fill="#231F20" fill-opacity="0.3"/>
                <path d="M1309.33 863.505C1310.05 864.42 1311.02 865.103 1312.12 865.467C1313.22 865.831 1314.4 865.86 1315.52 865.55C1316.64 865.24 1317.64 864.605 1318.4 863.726C1319.15 862.847 1319.63 861.762 1319.77 860.611C1319.91 859.459 1319.71 858.292 1319.18 857.257C1318.66 856.222 1317.84 855.366 1316.83 854.798C1315.82 854.229 1314.66 853.974 1313.5 854.064C1312.35 854.153 1311.24 854.585 1310.33 855.303C1309.11 856.261 1308.33 857.661 1308.14 859.198C1307.95 860.735 1308.38 862.284 1309.33 863.505Z"
                      fill="#231F20" fill-opacity="0.3"/>
                <path d="M1294.04 875.252C1294.76 876.164 1295.72 876.842 1296.83 877.202C1297.93 877.562 1299.11 877.588 1300.23 877.276C1301.34 876.964 1302.34 876.329 1303.09 875.45C1303.85 874.571 1304.32 873.488 1304.46 872.338C1304.6 871.188 1304.4 870.022 1303.88 868.989C1303.35 867.955 1302.53 867.1 1301.53 866.531C1300.52 865.962 1299.36 865.705 1298.21 865.792C1297.05 865.879 1295.95 866.307 1295.04 867.021C1294.43 867.496 1293.92 868.085 1293.54 868.756C1293.17 869.427 1292.92 870.166 1292.83 870.93C1292.74 871.695 1292.8 872.47 1293.01 873.212C1293.21 873.953 1293.56 874.647 1294.04 875.252Z"
                      fill="#231F20" fill-opacity="0.3"/>
                <path d="M1278.75 886.969C1279.46 887.884 1280.43 888.567 1281.53 888.931C1282.63 889.295 1283.82 889.324 1284.94 889.014C1286.05 888.704 1287.05 888.069 1287.81 887.19C1288.57 886.311 1289.05 885.226 1289.19 884.075C1289.33 882.923 1289.12 881.756 1288.6 880.721C1288.07 879.686 1287.25 878.83 1286.24 878.261C1285.23 877.693 1284.07 877.437 1282.92 877.527C1281.76 877.617 1280.66 878.049 1279.74 878.767C1278.53 879.725 1277.74 881.125 1277.55 882.662C1277.37 884.199 1277.8 885.747 1278.75 886.969Z"
                      fill="#231F20" fill-opacity="0.3"/>
                <path d="M1263.43 898.716C1264.14 899.629 1265.11 900.31 1266.21 900.674C1267.31 901.038 1268.49 901.067 1269.61 900.759C1270.73 900.451 1271.73 899.819 1272.48 898.942C1273.24 898.066 1273.72 896.985 1273.86 895.836C1274.01 894.686 1273.81 893.521 1273.29 892.485C1272.77 891.45 1271.95 890.592 1270.95 890.019C1269.94 889.447 1268.79 889.185 1267.63 889.268C1266.48 889.351 1265.37 889.774 1264.46 890.484C1263.85 890.957 1263.34 891.545 1262.96 892.215C1262.58 892.885 1262.33 893.623 1262.24 894.387C1262.14 895.152 1262.2 895.928 1262.4 896.671C1262.61 897.413 1262.96 898.108 1263.43 898.716Z"
                      fill="#231F20" fill-opacity="0.3"/>
                <path d="M1248.14 910.432C1248.85 911.349 1249.82 912.035 1250.92 912.403C1252.02 912.77 1253.2 912.803 1254.32 912.497C1255.44 912.191 1256.44 911.559 1257.2 910.683C1257.96 909.806 1258.44 908.724 1258.59 907.573C1258.73 906.422 1258.53 905.254 1258.01 904.217C1257.49 903.181 1256.67 902.322 1255.66 901.75C1254.65 901.178 1253.5 900.918 1252.34 901.003C1251.18 901.089 1250.08 901.516 1249.17 902.23C1247.94 903.184 1247.15 904.582 1246.96 906.119C1246.77 907.656 1247.19 909.207 1248.14 910.432Z"
                      fill="#231F20" fill-opacity="0.3"/>
                <path d="M1232.85 922.178C1233.56 923.095 1234.53 923.781 1235.63 924.149C1236.73 924.516 1237.92 924.549 1239.03 924.243C1240.15 923.937 1241.16 923.305 1241.92 922.429C1242.67 921.552 1243.16 920.47 1243.3 919.319C1243.44 918.168 1243.24 917 1242.72 915.963C1242.2 914.927 1241.39 914.068 1240.38 913.496C1239.37 912.924 1238.21 912.664 1237.06 912.749C1235.9 912.835 1234.79 913.262 1233.88 913.976C1232.66 914.93 1231.87 916.328 1231.67 917.865C1231.48 919.402 1231.91 920.953 1232.85 922.178Z"
                      fill="#231F20" fill-opacity="0.3"/>
                <path d="M1217.56 933.925C1218.27 934.838 1219.24 935.519 1220.34 935.883C1221.44 936.247 1222.62 936.276 1223.73 935.968C1224.85 935.66 1225.85 935.028 1226.61 934.151C1227.37 933.275 1227.85 932.194 1227.99 931.045C1228.13 929.895 1227.93 928.73 1227.41 927.694C1226.89 926.659 1226.08 925.801 1225.07 925.228C1224.07 924.656 1222.91 924.394 1221.76 924.477C1220.6 924.56 1219.5 924.983 1218.58 925.693C1217.97 926.166 1217.46 926.754 1217.08 927.424C1216.7 928.094 1216.46 928.832 1216.36 929.596C1216.27 930.361 1216.32 931.137 1216.53 931.88C1216.73 932.622 1217.08 933.317 1217.56 933.925Z"
                      fill="#231F20" fill-opacity="0.3"/>
                <path d="M1202.3 945.645C1203.01 946.562 1203.98 947.248 1205.08 947.616C1206.18 947.983 1207.36 948.016 1208.48 947.71C1209.6 947.404 1210.6 946.772 1211.36 945.895C1212.12 945.019 1212.6 943.937 1212.75 942.786C1212.89 941.635 1212.69 940.467 1212.17 939.43C1211.65 938.394 1210.83 937.535 1209.82 936.963C1208.81 936.39 1207.66 936.131 1206.5 936.216C1205.34 936.302 1204.24 936.729 1203.33 937.443C1202.1 938.397 1201.31 939.795 1201.12 941.332C1200.93 942.869 1201.35 944.42 1202.3 945.645Z"
                      fill="#231F20" fill-opacity="0.3"/>
                <path d="M1186.98 957.39C1187.69 958.305 1188.66 958.988 1189.76 959.352C1190.86 959.716 1192.05 959.745 1193.17 959.435C1194.28 959.125 1195.28 958.49 1196.04 957.611C1196.8 956.731 1197.28 955.647 1197.42 954.496C1197.56 953.344 1197.35 952.177 1196.83 951.142C1196.3 950.107 1195.48 949.251 1194.47 948.682C1193.46 948.114 1192.3 947.858 1191.15 947.948C1189.99 948.038 1188.89 948.47 1187.97 949.188C1186.76 950.146 1185.97 951.546 1185.78 953.083C1185.6 954.62 1186.03 956.168 1186.98 957.39Z"
                      fill="#231F20" fill-opacity="0.3"/>
                <path d="M1171.68 969.137C1172.4 970.048 1173.37 970.727 1174.47 971.087C1175.57 971.447 1176.75 971.473 1177.87 971.161C1178.98 970.849 1179.98 970.214 1180.73 969.335C1181.49 968.456 1181.97 967.373 1182.1 966.223C1182.24 965.073 1182.04 963.907 1181.52 962.874C1180.99 961.84 1180.18 960.985 1179.17 960.416C1178.16 959.847 1177 959.59 1175.85 959.677C1174.69 959.764 1173.59 960.192 1172.68 960.906C1172.07 961.381 1171.56 961.97 1171.19 962.641C1170.81 963.312 1170.56 964.051 1170.47 964.815C1170.38 965.58 1170.44 966.355 1170.65 967.097C1170.85 967.838 1171.21 968.532 1171.68 969.137Z"
                      fill="#231F20" fill-opacity="0.3"/>
                <path d="M1336.14 866.755C1336.85 867.672 1337.81 868.358 1338.91 868.726C1340.01 869.094 1341.2 869.126 1342.32 868.82C1343.43 868.514 1344.44 867.882 1345.2 867.006C1345.96 866.129 1346.44 865.047 1346.58 863.896C1346.73 862.745 1346.53 861.577 1346 860.541C1345.48 859.504 1344.67 858.645 1343.66 858.073C1342.65 857.501 1341.49 857.241 1340.34 857.326C1339.18 857.412 1338.08 857.839 1337.16 858.553C1335.94 859.507 1335.15 860.905 1334.96 862.443C1334.76 863.98 1335.19 865.53 1336.14 866.755Z"
                      fill="#231F20" fill-opacity="0.3"/>
                <path d="M1320.85 878.504C1321.56 879.419 1322.53 880.102 1323.63 880.466C1324.73 880.83 1325.92 880.859 1327.03 880.549C1328.15 880.239 1329.15 879.604 1329.91 878.725C1330.67 877.846 1331.14 876.761 1331.28 875.61C1331.42 874.458 1331.22 873.291 1330.69 872.256C1330.17 871.221 1329.35 870.365 1328.34 869.797C1327.33 869.228 1326.17 868.973 1325.01 869.063C1323.86 869.152 1322.75 869.584 1321.84 870.302C1320.63 871.26 1319.84 872.66 1319.65 874.197C1319.47 875.734 1319.89 877.283 1320.85 878.504Z"
                      fill="#231F20" fill-opacity="0.3"/>
                <path d="M1305.55 890.249C1306.27 891.16 1307.24 891.838 1308.34 892.198C1309.44 892.559 1310.62 892.584 1311.74 892.272C1312.85 891.961 1313.85 891.325 1314.61 890.446C1315.36 889.567 1315.84 888.484 1315.98 887.334C1316.11 886.184 1315.91 885.019 1315.39 883.985C1314.86 882.951 1314.05 882.096 1313.04 881.527C1312.03 880.958 1310.87 880.701 1309.72 880.788C1308.56 880.875 1307.46 881.303 1306.55 882.017C1305.94 882.492 1305.43 883.082 1305.06 883.752C1304.68 884.423 1304.44 885.162 1304.34 885.926C1304.25 886.691 1304.31 887.466 1304.52 888.208C1304.72 888.949 1305.08 889.643 1305.55 890.249Z"
                      fill="#231F20" fill-opacity="0.3"/>
                <path d="M1290.18 901.967C1290.89 902.884 1291.86 903.57 1292.96 903.938C1294.06 904.305 1295.24 904.338 1296.36 904.032C1297.48 903.726 1298.48 903.094 1299.24 902.218C1300 901.341 1300.49 900.259 1300.63 899.108C1300.77 897.957 1300.57 896.789 1300.05 895.753C1299.53 894.716 1298.71 893.857 1297.71 893.285C1296.7 892.713 1295.54 892.453 1294.38 892.538C1293.23 892.624 1292.12 893.051 1291.21 893.765C1289.99 894.719 1289.19 896.117 1289 897.655C1288.81 899.192 1289.23 900.742 1290.18 901.967Z"
                      fill="#231F20" fill-opacity="0.3"/>
                <path d="M1274.94 913.713C1275.65 914.63 1276.62 915.316 1277.72 915.684C1278.82 916.052 1280 916.084 1281.12 915.778C1282.24 915.472 1283.24 914.84 1284 913.964C1284.76 913.087 1285.24 912.005 1285.39 910.854C1285.53 909.703 1285.33 908.535 1284.81 907.499C1284.29 906.462 1283.47 905.603 1282.46 905.031C1281.45 904.459 1280.3 904.199 1279.14 904.284C1277.99 904.37 1276.88 904.797 1275.97 905.511C1274.75 906.465 1273.95 907.863 1273.76 909.401C1273.57 910.938 1273.99 912.488 1274.94 913.713Z"
                      fill="#231F20" fill-opacity="0.3"/>
                <path d="M1259.65 925.46C1260.36 926.373 1261.33 927.055 1262.43 927.418C1263.53 927.782 1264.71 927.811 1265.83 927.503C1266.94 927.195 1267.94 926.563 1268.7 925.686C1269.46 924.81 1269.94 923.729 1270.08 922.58C1270.23 921.431 1270.03 920.265 1269.51 919.229C1268.99 918.194 1268.17 917.336 1267.17 916.763C1266.16 916.191 1265.01 915.929 1263.85 916.012C1262.69 916.095 1261.59 916.518 1260.68 917.229C1260.07 917.701 1259.56 918.289 1259.18 918.959C1258.8 919.629 1258.55 920.367 1258.46 921.132C1258.36 921.896 1258.42 922.672 1258.62 923.415C1258.83 924.158 1259.18 924.853 1259.65 925.46Z"
                      fill="#231F20" fill-opacity="0.3"/>
                <path d="M1244.36 937.177C1245.07 938.094 1246.04 938.78 1247.14 939.148C1248.24 939.515 1249.42 939.548 1250.54 939.242C1251.66 938.936 1252.66 938.304 1253.42 937.428C1254.18 936.551 1254.66 935.469 1254.81 934.318C1254.95 933.167 1254.75 931.999 1254.23 930.962C1253.71 929.926 1252.89 929.067 1251.89 928.495C1250.88 927.923 1249.72 927.663 1248.56 927.748C1247.41 927.834 1246.3 928.261 1245.39 928.975C1244.17 929.929 1243.37 931.327 1243.18 932.864C1242.99 934.402 1243.41 935.952 1244.36 937.177Z"
                      fill="#231F20" fill-opacity="0.3"/>
                <path d="M1229.07 948.922C1229.78 949.84 1230.74 950.525 1231.84 950.893C1232.94 951.261 1234.13 951.293 1235.25 950.987C1236.36 950.681 1237.37 950.049 1238.13 949.173C1238.89 948.296 1239.37 947.214 1239.51 946.063C1239.66 944.912 1239.45 943.744 1238.93 942.708C1238.41 941.671 1237.6 940.812 1236.59 940.24C1235.58 939.668 1234.42 939.408 1233.27 939.493C1232.11 939.579 1231 940.006 1230.09 940.72C1228.87 941.674 1228.08 943.072 1227.89 944.61C1227.69 946.147 1228.12 947.697 1229.07 948.922Z"
                      fill="#231F20" fill-opacity="0.3"/>
                <path d="M1213.78 960.669C1214.49 961.582 1215.46 962.263 1216.56 962.627C1217.66 962.991 1218.84 963.02 1219.96 962.712C1221.07 962.404 1222.07 961.772 1222.83 960.895C1223.59 960.019 1224.07 958.938 1224.21 957.789C1224.35 956.64 1224.15 955.474 1223.63 954.438C1223.12 953.403 1222.3 952.545 1221.29 951.972C1220.29 951.4 1219.13 951.138 1217.98 951.221C1216.82 951.304 1215.72 951.727 1214.8 952.438C1214.2 952.91 1213.69 953.498 1213.31 954.168C1212.92 954.838 1212.68 955.576 1212.58 956.341C1212.49 957.105 1212.55 957.881 1212.75 958.624C1212.96 959.367 1213.3 960.062 1213.78 960.669Z"
                      fill="#231F20" fill-opacity="0.3"/>
                <path d="M1198.49 972.389C1199.2 973.304 1200.17 973.987 1201.27 974.351C1202.38 974.715 1203.56 974.744 1204.68 974.434C1205.8 974.124 1206.8 973.489 1207.55 972.61C1208.31 971.731 1208.79 970.646 1208.93 969.495C1209.07 968.343 1208.86 967.176 1208.34 966.141C1207.81 965.106 1206.99 964.25 1205.98 963.681C1204.97 963.113 1203.82 962.857 1202.66 962.947C1201.5 963.037 1200.4 963.469 1199.49 964.187C1198.27 965.145 1197.48 966.545 1197.3 968.082C1197.11 969.619 1197.54 971.167 1198.49 972.389Z"
                      fill="#231F20" fill-opacity="0.3"/>
                <path d="M1347.65 881.783C1348.36 882.696 1349.33 883.378 1350.43 883.741C1351.52 884.105 1352.71 884.135 1353.82 883.826C1354.94 883.518 1355.94 882.886 1356.7 882.01C1357.45 881.134 1357.94 880.052 1358.08 878.903C1358.22 877.754 1358.02 876.588 1357.5 875.553C1356.98 874.517 1356.17 873.659 1355.16 873.087C1354.16 872.514 1353 872.253 1351.85 872.335C1350.69 872.418 1349.59 872.841 1348.67 873.552C1348.06 874.024 1347.55 874.612 1347.17 875.282C1346.79 875.952 1346.55 876.69 1346.45 877.455C1346.36 878.219 1346.41 878.995 1346.62 879.738C1346.82 880.481 1347.17 881.176 1347.65 881.783Z"
                      fill="#231F20" fill-opacity="0.3"/>
                <path d="M1332.36 893.499C1333.07 894.414 1334.04 895.097 1335.14 895.461C1336.24 895.825 1337.43 895.854 1338.55 895.544C1339.66 895.234 1340.66 894.6 1341.42 893.72C1342.18 892.841 1342.66 891.757 1342.8 890.605C1342.94 889.453 1342.73 888.286 1342.21 887.251C1341.68 886.216 1340.86 885.36 1339.85 884.792C1338.84 884.223 1337.68 883.968 1336.53 884.058C1335.37 884.148 1334.27 884.579 1333.35 885.297C1332.14 886.255 1331.35 887.656 1331.16 889.193C1330.98 890.729 1331.41 892.278 1332.36 893.499Z"
                      fill="#231F20" fill-opacity="0.3"/>
                <path d="M1317.07 905.248C1317.79 906.163 1318.75 906.846 1319.86 907.21C1320.96 907.574 1322.14 907.603 1323.26 907.293C1324.38 906.983 1325.38 906.349 1326.14 905.469C1326.89 904.59 1327.37 903.506 1327.51 902.354C1327.65 901.202 1327.45 900.035 1326.92 899C1326.4 897.965 1325.58 897.109 1324.57 896.541C1323.55 895.972 1322.4 895.717 1321.24 895.807C1320.08 895.897 1318.98 896.328 1318.07 897.046C1316.85 898.004 1316.07 899.405 1315.88 900.942C1315.69 902.478 1316.12 904.027 1317.07 905.248Z"
                      fill="#231F20" fill-opacity="0.3"/>
                <path d="M1301.89 916.996C1302.6 917.907 1303.57 918.585 1304.67 918.945C1305.77 919.306 1306.96 919.331 1308.07 919.019C1309.19 918.708 1310.19 918.072 1310.94 917.193C1311.7 916.314 1312.17 915.231 1312.31 914.081C1312.45 912.931 1312.25 911.766 1311.72 910.732C1311.2 909.698 1310.38 908.843 1309.37 908.274C1308.36 907.705 1307.21 907.448 1306.05 907.535C1304.9 907.622 1303.8 908.05 1302.88 908.764C1302.28 909.239 1301.77 909.829 1301.39 910.499C1301.01 911.17 1300.77 911.909 1300.68 912.673C1300.59 913.438 1300.65 914.213 1300.85 914.955C1301.06 915.697 1301.41 916.39 1301.89 916.996Z"
                      fill="#231F20" fill-opacity="0.3"/>
                <path d="M1286.45 928.712C1287.16 929.63 1288.12 930.315 1289.22 930.683C1290.32 931.051 1291.51 931.083 1292.63 930.777C1293.75 930.471 1294.75 929.839 1295.51 928.963C1296.27 928.086 1296.75 927.004 1296.89 925.853C1297.04 924.702 1296.84 923.534 1296.32 922.498C1295.8 921.461 1294.98 920.602 1293.97 920.03C1292.96 919.458 1291.81 919.198 1290.65 919.284C1289.49 919.369 1288.39 919.796 1287.47 920.51C1286.25 921.464 1285.46 922.862 1285.27 924.4C1285.08 925.937 1285.5 927.487 1286.45 928.712Z"
                      fill="#231F20" fill-opacity="0.3"/>
                <path d="M1271.16 940.458C1271.87 941.376 1272.84 942.061 1273.94 942.429C1275.04 942.797 1276.22 942.829 1277.34 942.523C1278.46 942.217 1279.46 941.586 1280.22 940.709C1280.98 939.832 1281.47 938.75 1281.61 937.599C1281.75 936.448 1281.55 935.28 1281.03 934.244C1280.51 933.207 1279.7 932.348 1278.69 931.776C1277.68 931.204 1276.52 930.944 1275.36 931.03C1274.21 931.115 1273.1 931.542 1272.19 932.256C1270.97 933.21 1270.17 934.609 1269.98 936.146C1269.79 937.683 1270.22 939.233 1271.16 940.458Z"
                      fill="#231F20" fill-opacity="0.3"/>
                <path d="M1255.87 952.175C1256.58 953.092 1257.55 953.778 1258.65 954.146C1259.75 954.513 1260.94 954.546 1262.05 954.24C1263.17 953.934 1264.18 953.302 1264.93 952.426C1265.69 951.549 1266.18 950.467 1266.32 949.316C1266.46 948.165 1266.26 946.997 1265.74 945.961C1265.22 944.924 1264.41 944.065 1263.4 943.493C1262.39 942.921 1261.23 942.661 1260.08 942.746C1258.92 942.832 1257.81 943.259 1256.9 943.973C1255.68 944.927 1254.89 946.325 1254.69 947.863C1254.5 949.4 1254.93 950.95 1255.87 952.175Z"
                      fill="#231F20" fill-opacity="0.3"/>
                <path d="M1240.57 963.921C1241.28 964.839 1242.25 965.524 1243.35 965.892C1244.45 966.26 1245.63 966.292 1246.75 965.986C1247.87 965.68 1248.87 965.048 1249.63 964.172C1250.39 963.295 1250.88 962.213 1251.02 961.062C1251.16 959.911 1250.96 958.743 1250.44 957.707C1249.92 956.67 1249.11 955.811 1248.1 955.239C1247.09 954.667 1245.93 954.407 1244.77 954.492C1243.62 954.578 1242.51 955.005 1241.6 955.719C1240.38 956.673 1239.59 958.071 1239.39 959.609C1239.2 961.146 1239.63 962.696 1240.57 963.921Z"
                      fill="#231F20" fill-opacity="0.3"/>
                <path d="M1225.29 975.669C1226 976.582 1226.97 977.263 1228.07 977.627C1229.17 977.991 1230.35 978.02 1231.47 977.712C1232.58 977.404 1233.58 976.772 1234.34 975.895C1235.1 975.019 1235.58 973.938 1235.72 972.789C1235.87 971.64 1235.67 970.474 1235.15 969.438C1234.63 968.403 1233.81 967.545 1232.81 966.972C1231.8 966.4 1230.65 966.138 1229.49 966.221C1228.34 966.304 1227.23 966.727 1226.32 967.438C1225.71 967.91 1225.2 968.498 1224.82 969.168C1224.44 969.838 1224.19 970.576 1224.1 971.341C1224 972.105 1224.06 972.881 1224.26 973.624C1224.47 974.367 1224.82 975.062 1225.29 975.669Z"
                      fill="#231F20" fill-opacity="0.3"/>
                <path d="M1343.87 908.528C1344.59 909.441 1345.55 910.123 1346.65 910.487C1347.75 910.85 1348.93 910.88 1350.05 910.572C1351.17 910.263 1352.17 909.631 1352.92 908.755C1353.68 907.879 1354.16 906.798 1354.31 905.648C1354.45 904.499 1354.25 903.333 1353.73 902.298C1353.21 901.262 1352.39 900.404 1351.39 899.832C1350.38 899.259 1349.23 898.998 1348.07 899.08C1346.92 899.163 1345.81 899.587 1344.9 900.297C1344.29 900.77 1343.78 901.358 1343.4 902.027C1343.02 902.697 1342.77 903.435 1342.68 904.2C1342.58 904.965 1342.64 905.74 1342.84 906.483C1343.05 907.226 1343.4 907.921 1343.87 908.528Z"
                      fill="#231F20" fill-opacity="0.3"/>
                <path d="M1328.58 920.247C1329.29 921.162 1330.26 921.845 1331.36 922.209C1332.47 922.574 1333.65 922.602 1334.77 922.292C1335.89 921.982 1336.89 921.348 1337.64 920.468C1338.4 919.589 1338.88 918.505 1339.02 917.353C1339.16 916.201 1338.95 915.034 1338.43 913.999C1337.9 912.964 1337.08 912.108 1336.07 911.54C1335.06 910.971 1333.9 910.716 1332.75 910.806C1331.59 910.896 1330.49 911.327 1329.58 912.045C1328.36 913.003 1327.57 914.404 1327.39 915.941C1327.2 917.477 1327.63 919.026 1328.58 920.247Z"
                      fill="#231F20" fill-opacity="0.3"/>
                <path d="M1313.28 931.993C1314 932.908 1314.97 933.591 1316.07 933.955C1317.17 934.32 1318.35 934.349 1319.47 934.039C1320.59 933.729 1321.59 933.094 1322.35 932.214C1323.1 931.335 1323.58 930.251 1323.72 929.099C1323.86 927.947 1323.66 926.78 1323.13 925.745C1322.61 924.71 1321.79 923.854 1320.78 923.286C1319.77 922.717 1318.61 922.462 1317.45 922.552C1316.29 922.642 1315.19 923.073 1314.28 923.791C1313.06 924.749 1312.28 926.15 1312.09 927.687C1311.9 929.224 1312.33 930.772 1313.28 931.993Z"
                      fill="#231F20" fill-opacity="0.3"/>
                <path d="M1297.99 943.709C1298.4 944.442 1298.97 945.079 1299.64 945.576C1300.32 946.073 1301.1 946.417 1301.92 946.587C1302.75 946.756 1303.6 946.747 1304.42 946.559C1305.24 946.37 1306.01 946.008 1306.67 945.496C1307.34 944.984 1307.89 944.335 1308.28 943.592C1308.68 942.849 1308.91 942.03 1308.95 941.191C1309 940.352 1308.87 939.512 1308.57 938.728C1308.26 937.944 1307.79 937.235 1307.19 936.649C1306.78 935.915 1306.22 935.278 1305.54 934.782C1304.86 934.285 1304.08 933.94 1303.26 933.771C1302.44 933.601 1301.59 933.611 1300.77 933.799C1299.95 933.987 1299.18 934.35 1298.51 934.862C1297.84 935.373 1297.29 936.023 1296.9 936.766C1296.51 937.509 1296.28 938.327 1296.23 939.167C1296.18 940.006 1296.31 940.846 1296.62 941.63C1296.92 942.413 1297.39 943.123 1297.99 943.709Z"
                      fill="#231F20" fill-opacity="0.3"/>
                <path d="M1282.67 955.456C1283.38 956.374 1284.35 957.06 1285.45 957.427C1286.55 957.795 1287.73 957.827 1288.85 957.521C1289.97 957.215 1290.97 956.584 1291.73 955.707C1292.49 954.83 1292.97 953.748 1293.12 952.597C1293.26 951.446 1293.06 950.278 1292.54 949.242C1292.02 948.205 1291.2 947.346 1290.19 946.774C1289.19 946.202 1288.03 945.942 1286.87 946.028C1285.72 946.113 1284.61 946.54 1283.7 947.254C1282.48 948.208 1281.68 949.607 1281.49 951.144C1281.3 952.681 1281.72 954.231 1282.67 955.456Z"
                      fill="#231F20" fill-opacity="0.3"/>
                <path d="M1267.39 967.204C1268.1 968.117 1269.07 968.799 1270.17 969.162C1271.27 969.526 1272.45 969.556 1273.57 969.247C1274.68 968.939 1275.68 968.307 1276.44 967.431C1277.2 966.554 1277.68 965.473 1277.82 964.324C1277.96 963.175 1277.76 962.009 1277.24 960.974C1276.72 959.938 1275.91 959.08 1274.9 958.507C1273.9 957.935 1272.74 957.673 1271.59 957.756C1270.43 957.839 1269.33 958.262 1268.41 958.973C1267.81 959.445 1267.3 960.033 1266.91 960.703C1266.53 961.373 1266.29 962.111 1266.19 962.876C1266.1 963.64 1266.15 964.416 1266.36 965.159C1266.56 965.902 1266.91 966.597 1267.39 967.204Z"
                      fill="#231F20" fill-opacity="0.3"/>
                <path d="M1252.1 978.92C1252.81 979.838 1253.78 980.523 1254.88 980.891C1255.98 981.259 1257.16 981.291 1258.28 980.985C1259.4 980.679 1260.4 980.047 1261.16 979.171C1261.92 978.294 1262.4 977.212 1262.55 976.061C1262.69 974.91 1262.49 973.742 1261.97 972.706C1261.45 971.669 1260.63 970.81 1259.62 970.238C1258.61 969.666 1257.46 969.406 1256.3 969.492C1255.15 969.577 1254.04 970.004 1253.13 970.718C1251.91 971.672 1251.11 973.07 1250.92 974.608C1250.73 976.145 1251.15 977.695 1252.1 978.92Z"
                      fill="#231F20" fill-opacity="0.3"/>
                <path d="M1339.98 935.243C1340.69 936.16 1341.66 936.846 1342.76 937.213C1343.86 937.581 1345.04 937.614 1346.16 937.307C1347.28 937.001 1348.28 936.37 1349.04 935.493C1349.8 934.617 1350.28 933.534 1350.43 932.383C1350.57 931.232 1350.37 930.065 1349.85 929.028C1349.33 927.991 1348.51 927.133 1347.5 926.56C1346.49 925.988 1345.34 925.728 1344.18 925.814C1343.02 925.899 1341.92 926.326 1341 927.04C1339.78 927.994 1338.99 929.393 1338.8 930.93C1338.61 932.467 1339.03 934.018 1339.98 935.243Z"
                      fill="#231F20" fill-opacity="0.3"/>
                <path d="M1324.79 946.992C1325.5 947.907 1326.47 948.59 1327.57 948.955C1328.68 949.319 1329.86 949.348 1330.98 949.038C1332.1 948.728 1333.1 948.093 1333.85 947.213C1334.61 946.334 1335.09 945.25 1335.23 944.098C1335.37 942.946 1335.16 941.779 1334.64 940.744C1334.12 939.709 1333.3 938.853 1332.28 938.285C1331.27 937.716 1330.12 937.461 1328.96 937.551C1327.8 937.641 1326.7 938.072 1325.79 938.79C1324.57 939.748 1323.78 941.149 1323.6 942.686C1323.41 944.223 1323.84 945.771 1324.79 946.992Z"
                      fill="#231F20" fill-opacity="0.3"/>
                <path d="M1309.51 958.739C1310.22 959.65 1311.19 960.328 1312.29 960.689C1313.4 961.049 1314.58 961.075 1315.69 960.763C1316.81 960.451 1317.81 959.815 1318.56 958.936C1319.32 958.057 1319.79 956.974 1319.93 955.824C1320.07 954.674 1319.87 953.509 1319.34 952.475C1318.82 951.442 1318 950.586 1316.99 950.017C1315.99 949.448 1314.83 949.191 1313.68 949.278C1312.52 949.366 1311.42 949.793 1310.5 950.507C1309.9 950.982 1309.39 951.572 1309.01 952.243C1308.64 952.913 1308.39 953.652 1308.3 954.417C1308.21 955.181 1308.27 955.956 1308.47 956.698C1308.68 957.44 1309.03 958.133 1309.51 958.739Z"
                      fill="#231F20" fill-opacity="0.3"/>
                <path d="M1294.18 970.454C1294.89 971.372 1295.86 972.058 1296.96 972.425C1298.06 972.793 1299.24 972.826 1300.36 972.519C1301.48 972.213 1302.48 971.582 1303.24 970.705C1304 969.828 1304.49 968.746 1304.63 967.595C1304.77 966.444 1304.57 965.276 1304.05 964.24C1303.53 963.203 1302.71 962.344 1301.71 961.772C1300.7 961.2 1299.54 960.94 1298.38 961.026C1297.23 961.111 1296.12 961.538 1295.21 962.252C1293.99 963.206 1293.19 964.605 1293 966.142C1292.81 967.679 1293.23 969.229 1294.18 970.454Z"
                      fill="#231F20" fill-opacity="0.3"/>
                <path d="M1336.32 961.873C1337.03 962.788 1338 963.471 1339.1 963.835C1340.2 964.199 1341.39 964.228 1342.51 963.918C1343.62 963.608 1344.62 962.974 1345.38 962.094C1346.14 961.215 1346.62 960.131 1346.76 958.979C1346.9 957.827 1346.69 956.66 1346.17 955.625C1345.64 954.59 1344.82 953.734 1343.81 953.166C1342.8 952.597 1341.64 952.342 1340.49 952.432C1339.33 952.522 1338.23 952.953 1337.31 953.671C1336.1 954.629 1335.31 956.03 1335.12 957.567C1334.94 959.103 1335.37 960.652 1336.32 961.873Z"
                      fill="#231F20" fill-opacity="0.3"/>
                <path d="M1321.02 973.736C1321.73 974.652 1322.7 975.335 1323.8 975.699C1324.9 976.063 1326.09 976.092 1327.21 975.782C1328.32 975.472 1329.32 974.837 1330.08 973.957C1330.84 973.078 1331.32 971.994 1331.46 970.842C1331.6 969.691 1331.39 968.523 1330.87 967.488C1330.34 966.454 1329.52 965.598 1328.51 965.029C1327.5 964.461 1326.34 964.205 1325.19 964.295C1324.03 964.385 1322.93 964.816 1322.01 965.534C1320.8 966.492 1320.01 967.893 1319.82 969.43C1319.64 970.967 1320.07 972.515 1321.02 973.736Z"
                      fill="#231F20" fill-opacity="0.3"/>
                <path d="M1347.82 977.015C1348.54 977.926 1349.51 978.605 1350.61 978.965C1351.71 979.325 1352.89 979.351 1354.01 979.039C1355.12 978.727 1356.12 978.091 1356.87 977.212C1357.63 976.333 1358.11 975.25 1358.25 974.101C1358.38 972.951 1358.18 971.785 1357.66 970.752C1357.13 969.718 1356.32 968.863 1355.31 968.294C1354.3 967.725 1353.14 967.467 1351.99 967.555C1350.83 967.642 1349.73 968.07 1348.82 968.784C1348.21 969.259 1347.7 969.848 1347.33 970.519C1346.95 971.19 1346.71 971.928 1346.61 972.693C1346.52 973.458 1346.58 974.233 1346.79 974.974C1346.99 975.716 1347.35 976.41 1347.82 977.015Z"
                      fill="#231F20" fill-opacity="0.3"/>
            </g>
            <path d="M746.851 963.171C749.784 963.171 751.251 962.054 751.251 959.822V898.416C751.251 893.039 752.5 888.261 754.986 884.095C757.457 879.93 760.961 876.704 765.47 874.417C769.979 872.143 775.167 871 781.048 871H804V895.829H785.149C782.216 895.829 780.749 896.946 780.749 899.178V960.584C780.749 965.961 779.5 970.739 777.028 974.905C774.543 979.057 771.039 982.296 766.53 984.57C762.021 986.857 756.833 988 750.952 988H728V963.171H746.851Z"
                  fill="#CA4D97" fill-opacity="0.3"/>
            <path d="M54.8351 872.45C54.8351 870.943 53.7533 870.198 51.5543 870.198H38.2008V875.393H51.5543C53.7533 875.393 54.8351 874.631 54.8351 873.141V872.45ZM38.2008 856.119V860.977H50.6144C52.7957 860.977 53.8952 860.268 53.8952 858.849V858.247C53.8952 856.828 52.7957 856.119 50.6144 856.119H38.2008ZM65.9542 869.01C66.8538 870.547 67.3139 872.301 67.2842 874.081V874.684C67.3464 876.26 67.0062 877.826 66.2957 879.235C65.5852 880.643 64.5278 881.848 63.2232 882.734C59.8052 884.852 55.8164 885.861 51.8026 885.625H26V845.799H50.6499C54.66 845.552 58.6485 846.549 62.0705 848.653C63.3643 849.552 64.4102 850.762 65.1109 852.173C65.8115 853.583 66.1443 855.148 66.0783 856.722V857.324C66.143 858.908 65.8023 860.482 65.0885 861.897C64.3747 863.312 63.3115 864.521 61.9995 865.41C63.6163 866.21 64.9838 867.436 65.9542 868.957"
                  fill="#231F20"/>
            <path d="M86.3097 883.889C82.778 882.408 79.7442 879.946 77.567 876.796C75.4744 873.576 74.3992 869.801 74.4813 865.962V865.66C74.3959 861.82 75.4713 858.044 77.567 854.826C79.7372 851.644 82.77 849.146 86.3097 847.627C90.452 845.85 94.9264 844.979 99.4327 845.073C103.736 844.999 108.013 845.764 112.024 847.325C115.431 848.599 118.433 850.768 120.713 853.602C122.743 856.186 123.842 859.378 123.834 862.663V863.089H111.421V862.663C111.388 861.662 111.063 860.693 110.486 859.874C109.91 859.055 109.107 858.422 108.175 858.053C105.405 856.758 102.364 856.15 99.3085 856.28C96.024 856.045 92.7472 856.832 89.9274 858.532C88.8948 859.338 88.0764 860.385 87.5445 861.582C87.0125 862.779 86.7834 864.088 86.8772 865.394V865.997C86.7776 867.295 87.0027 868.596 87.5321 869.785C88.0615 870.974 88.8786 872.012 89.9096 872.806C92.7727 874.475 96.0749 875.235 99.3795 874.987C102.421 875.149 105.457 874.596 108.246 873.374C109.161 873.02 109.951 872.404 110.516 871.602C111.081 870.801 111.396 869.85 111.421 868.87V868.444H123.834V868.87C123.855 872.152 122.754 875.342 120.713 877.913C118.421 880.727 115.422 882.881 112.024 884.155C108.013 885.716 103.736 886.481 99.4327 886.407C94.9297 886.502 90.4574 885.644 86.3097 883.889Z"
                  fill="#231F20"/>
            <path d="M211.798 845.8V874.703H224.797V845.8H236.998V874.703H249.997V845.8H262.198V885.626H199.598V845.8H211.798Z"
                  fill="#231F20"/>
            <path d="M141.836 865.695C143.434 865.908 144.886 866.738 145.88 868.007C146.874 869.276 147.332 870.884 147.156 872.487V875.714C147.156 876.896 147.866 877.487 149.284 877.487H155.757V886.477H147.351C145.505 886.505 143.68 886.086 142.031 885.254C140.507 884.492 139.229 883.316 138.345 881.861C137.46 880.405 137.004 878.729 137.03 877.026V871.848C137.04 871.604 136.994 871.36 136.896 871.136C136.797 870.911 136.649 870.712 136.463 870.554C136.013 870.221 135.46 870.058 134.902 870.093H131.355V861.209H134.902C135.46 861.244 136.013 861.081 136.463 860.748C136.65 860.59 136.799 860.392 136.898 860.167C136.996 859.943 137.041 859.698 137.03 859.454V854.435C137.007 852.723 137.468 851.039 138.36 849.577C139.252 848.139 140.522 846.973 142.031 846.208C143.681 845.381 145.506 844.968 147.351 845.002H155.757V853.868H149.231C148.662 853.834 148.098 853.997 147.635 854.329C147.457 854.493 147.317 854.693 147.225 854.917C147.133 855.141 147.091 855.382 147.103 855.623V858.904C147.279 860.506 146.821 862.114 145.827 863.384C144.833 864.653 143.381 865.483 141.783 865.695"
                  fill="#0097D6"/>
            <path d="M192.409 861.208V870.074H188.863C188.302 870.045 187.749 870.214 187.302 870.553C187.114 870.711 186.966 870.91 186.867 871.134C186.769 871.359 186.723 871.603 186.735 871.848V876.884C186.757 878.584 186.3 880.256 185.416 881.708C184.531 883.16 183.255 884.333 181.734 885.093C180.085 885.925 178.26 886.345 176.414 886.317H168.008V877.451H174.534C175.103 877.485 175.667 877.322 176.13 876.99C176.309 876.824 176.45 876.62 176.542 876.393C176.634 876.166 176.675 875.922 176.662 875.678V872.504C176.486 870.901 176.944 869.293 177.938 868.024C178.932 866.755 180.384 865.925 181.982 865.712C180.382 865.495 178.931 864.662 177.937 863.39C176.943 862.118 176.485 860.508 176.662 858.903V855.694C176.662 854.559 175.953 853.921 174.534 853.921H168.008V845.001H176.414C178.26 844.973 180.085 845.393 181.734 846.225C183.258 846.986 184.536 848.162 185.42 849.618C186.305 851.074 186.761 852.749 186.735 854.452V859.435C186.725 859.68 186.771 859.924 186.869 860.148C186.967 860.372 187.116 860.571 187.302 860.73C187.756 861.054 188.305 861.217 188.863 861.191L192.409 861.208Z"
                  fill="#0097D6"/>
            <path d="M31.3604 901.321V911.002L38.8007 901.321H43.601V918.042H38.5607V908.442L31.1204 918.042H26V901.321H31.3604Z"
                  fill="#0094D4"/>
            <path d="M52.5652 901.321V907.401H59.6056V901.321H64.726V918.042H59.6056V911.962H52.2451V918.042H47.125V901.321H52.5652Z"
                  fill="#0094D4"/>
            <path d="M89.9077 903.56C91.0938 904.042 92.1003 904.88 92.7877 905.96C93.4393 907.076 93.7714 908.349 93.7477 909.64C93.7843 910.933 93.4513 912.21 92.7877 913.321C92.1003 914.401 91.0938 915.239 89.9077 915.721C88.5323 916.262 87.0655 916.534 85.5874 916.521H83.5873V918.201H78.4669V916.521H75.5869C74.0738 916.549 72.5728 916.248 71.1867 915.641C69.9917 915.216 68.9761 914.398 68.3065 913.321C67.6429 912.21 67.3099 910.933 67.3465 909.64C67.3228 908.349 67.6549 907.076 68.3065 905.96C68.9938 904.88 70.0007 904.042 71.1867 903.56C72.5796 902.982 74.0798 902.71 75.5869 902.76H77.9071V901H83.5873V902.76H85.9873C87.3342 902.764 88.6669 903.036 89.9077 903.56ZM73.4269 911.561C74.0947 912.053 74.9209 912.281 75.7468 912.201H78.307V906.92H75.5869C74.7719 906.831 73.9513 907.029 73.2667 907.48C73.0123 907.727 72.816 908.028 72.6915 908.36C72.567 908.692 72.5174 909.047 72.5467 909.4C72.4371 909.831 72.4629 910.284 72.6204 910.699C72.7779 911.115 73.0595 911.471 73.4269 911.721V911.561ZM88.5475 909.4C88.5768 909.047 88.5275 908.692 88.403 908.36C88.2785 908.028 88.0819 907.727 87.8275 907.48C87.1734 907.028 86.3773 906.829 85.5874 906.92H83.0272V912.201H85.5874C86.4106 912.253 87.2278 912.028 87.9076 911.561C88.1477 911.306 88.3293 911.003 88.4398 910.671C88.5504 910.339 88.5871 909.988 88.5475 909.64V909.4Z"
                  fill="#0094D4"/>
            <path d="M100.716 917.326C99.208 916.711 97.924 915.65 97.0352 914.286C96.1734 912.953 95.7278 911.393 95.7551 909.806C95.7611 908.198 96.2035 906.621 97.0352 905.245C97.9361 903.911 99.2189 902.879 100.716 902.285C102.434 901.546 104.285 901.164 106.156 901.164C108.027 901.164 109.878 901.546 111.596 902.285C113.082 902.861 114.344 903.898 115.196 905.245C116.073 906.601 116.52 908.191 116.476 909.806C116.52 911.42 116.073 913.01 115.196 914.366C114.317 915.688 113.063 916.718 111.596 917.326C108.102 918.716 104.209 918.716 100.716 917.326ZM109.996 912.686C110.433 912.369 110.781 911.945 111.005 911.455C111.23 910.964 111.323 910.423 111.276 909.885C111.276 907.325 109.596 906.045 106.156 906.045C104.807 905.957 103.464 906.293 102.315 907.005C101.877 907.339 101.531 907.778 101.307 908.282C101.083 908.785 100.99 909.337 101.035 909.885C100.988 910.423 101.082 910.964 101.306 911.455C101.531 911.945 101.878 912.369 102.315 912.686C103.532 913.388 104.911 913.757 106.316 913.757C107.72 913.757 109.1 913.388 110.316 912.686H109.996Z"
                  fill="#0094D4"/>
            <path d="M130.005 901.325C131.755 901.284 133.469 901.818 134.886 902.845C135.488 903.354 135.966 903.993 136.285 904.713C136.604 905.434 136.755 906.218 136.726 907.005C136.761 907.794 136.612 908.579 136.293 909.301C135.974 910.023 135.492 910.661 134.886 911.165C133.503 912.259 131.764 912.8 130.005 912.685H124.245V917.806H119.125V901.085L130.005 901.325ZM131.446 907.245C131.446 906.445 130.966 906.045 129.846 906.045H124.245V908.765H129.846C130.966 908.525 131.606 908.125 131.606 907.245H131.446Z"
                  fill="#0094D4"/>
            <path d="M162.163 918.042H157.122V908.762L153.122 918.042H148.162L144.242 908.842V918.042H139.602V901.321H146.402L151.042 912.362L155.682 901.321H162.563L162.163 918.042Z"
                  fill="#0094D4"/>
            <path d="M183.677 917.322V918.042H178.717L177.597 915.322H170.236L169.197 918.042H164.156V917.322L171.117 901.321H176.797L183.677 917.322ZM175.677 911.082L173.677 906.201L171.756 911.082H175.677Z"
                  fill="#0094D4"/>
            <path d="M182.879 905.961V901.321H199.76V905.961H193.92V918.042H188.799V905.961H182.879Z" fill="#0094D4"/>
            <path d="M207.052 901.321V911.002L214.492 901.321H219.613V918.042H214.572V908.442L207.132 918.042H202.012V901.321H207.052Z"
                  fill="#0094D4"/>
            <path d="M241.214 902.127L234.734 909.408L240.734 917.408V918.128H234.893L230.413 912.048H228.253V918.128H223.133V901.407H228.253V907.488H230.173L235.133 901.407H241.214V902.127Z"
                  fill="#0094D4"/>
            <path d="M261.994 917.322V918.042H257.033L255.914 915.322H248.553L247.513 918.042H242.473V917.322L249.433 901.321H255.113L261.994 917.322ZM253.993 911.082L251.993 906.201L250.073 911.082H253.993Z"
                  fill="#0094D4"/>
            <text opacity="0.75" fill="black" xml:space="preserve" style="white-space: pre" font-family="Helvetica"
                  font-size="27.5676" letter-spacing="0em"><tspan x="285" y="831.288">9 </tspan></text>
            <text fill="#0094D4" xml:space="preserve" style="white-space: pre" font-family="Helvetica" font-size="40"
                  letter-spacing="0em"><tspan x="285" y="880.807">  </tspan></text>
            <text opacity="0.75" fill="black" xml:space="preserve" style="white-space: pre" font-family="Helvetica"
                  font-size="27.5676" letter-spacing="0em"><tspan x="285" y="918.341"> </tspan></text>

        </g>
    </g>
    <defs>
        <clipPath id="clip0_3598_85771">
            <rect width="1350" height="970" fill="white"/>
        </clipPath>
        <clipPath id="clip1_3598_85771">
            <path d="M0 765H1350V954.001C1350 962.837 1342.84 970.001 1334 970.001H16C7.16344 970.001 0 962.837 0 954.001V765Z"
                  fill="white"/>
        </clipPath>
    </defs>
</svg>
