<?xml version="1.0" encoding="UTF-8"?>
<svg version="1.1" viewBox="0 0 1920 1080" xmlns="http://www.w3.org/2000/svg">
  <rect x="10.147" y="10.147" width="1899.7" height="1059.7" fill="#ff4e4e" fill-opacity=".8"/>
  <text x="107.92038" y="911.28809" fill="#000000" font-family="sans-serif" font-size="133.33px" style="font-variant-caps:normal;font-variant-east-asian:normal;font-variant-ligatures:normal;font-variant-numeric:normal;line-height:1.25" xml:space="preserve"><tspan x="107.92038" y="911.28809" font-family="sans-serif" font-size="133.33px" style="font-variant-caps:normal;font-variant-east-asian:normal;font-variant-ligatures:normal;font-variant-numeric:normal">NSUT</tspan></text>
  <text x="98.488327" y="346.57639" fill="#000000" font-family="sans-serif" font-size="266.67px" style="line-height:1.25" xml:space="preserve"><tspan x="98.488327" y="346.57639" font-family="sans-serif" font-size="266.67px" font-weight="bold">58</tspan></text>
  <g transform="matrix(.032814 0 0 -.032814 1203.2 266.63)">
    <path d="m381.7 4016.2c-117.6-53.9-193.5-132.3-245-252.4-31.8-80.8-36.7-438.5-36.7-3094.3s4.9-3013.5 36.7-3094.3c51.5-120.1 127.4-198.5 245-252.4 93.1-44.1 274.4-46.6 4618.3-46.6s4525.2 2.4 4618.3 46.6c117.6 53.9 193.6 132.3 245 252.4 31.8 80.8 36.7 441 36.7 3101.7v3008.6l-53.9 107.8c-31.8 58.8-98 142.1-149.4 181.3l-95.6 76-4559.4 4.9c-4392.9 7.2-4564.4 4.8-4660-39.3zm9121.4-3319.8c2.5-2168.3-2.4-2969.4-22-2993.9-39.2-46.6-8913.1-51.5-8959.6-4.9-22.1 22-29.4 717.8-29.4 2984.1 0 1626.8 7.3 2964.5 17.2 2971.8 7.3 9.8 2033.5 14.7 4500.6 12.2l4486-7.3z"/>
    <path d="m5188.7 1901.8c-41.7-41.6-151.9-377.3-419-1266.6-343-1134.4-362.6-1215.2-330.8-1274 56.3-100.4 149.5-134.8 252.3-90.6 98 41.6 36.7-127.4 529.2 1504.3 271.9 901.6 296.4 994.7 269.5 1060.9-53.8 129.7-205.7 161.6-301.2 66z"/>
    <path d="m3713.7 1884.7c-39.2-24.5-347.9-323.4-686-661.5l-612.5-615 661.5-661.5c597.8-597.8 668.8-661.5 742.3-661.5 100.4 0 200.9 93.1 200.9 188.7 0 53.9-98 164.2-526.7 595.3l-526.7 526.8 514.5 514.5c284.2 284.2 521.8 539 529.2 570.8 24.5 88.2-9.8 174-88.2 213.2-93.1 46.5-120 46.5-208.3-9.8z"/>
    <path d="m6041.2 1901.8c-73.5-44.1-107.8-98-110.3-178.8 0-61.3 75.9-147 526.8-597.8l526.8-529.2-531.6-531.7c-514.5-516.9-529.2-534.1-512-612.5 19.6-100.4 95.5-166.6 196-166.6 68.6 0 151.9 75.9 737.4 661.5l661.5 661.5-624.8 627.2c-343 343-654.2 641.9-690.9 661.5-78.4 41.7-112.7 41.7-178.9 4.9z"/>
    <path d="m3116-3522.5c-68.6-85.8-63.7-164.2 7.3-247.5l58.8-68.6h3677.5l56.3 53.9c75.9 75.9 73.5 218-2.5 279.3-53.9 44.1-134.7 46.6-1901.2 46.6h-1847.2z"/>
  </g>
</svg>
