<svg width="1350" height="970" viewBox="0 0 1350 970" fill="none" xmlns="http://www.w3.org/2000/svg">
<g clip-path="url(#clip0_3751_85755)">
<path d="M0 765H1350V954.001C1350 962.837 1342.84 970.001 1334 970.001H16C7.16344 970.001 0 962.837 0 954.001V765Z" fill="white"/>
<g clip-path="url(#clip1_3751_85755)">
<path d="M0 765H1350V954.001C1350 962.837 1342.84 970.001 1334 970.001H16C7.16344 970.001 0 962.837 0 954.001V765Z" fill="url(#paint0_linear_3751_85755)"/>
<text opacity="0.75" fill="#0A3470" xml:space="preserve" style="white-space: pre" font-family="Helvetica" font-size="27.5676" font-weight="bold" letter-spacing="0em"><tspan x="245" y="823.9">McGill University</tspan></text>
<text fill="#0A3470" xml:space="preserve" style="white-space: pre" font-family="Helvetica" font-size="40" font-weight="bold" letter-spacing="0em"><tspan x="245" y="876.392">FOY</tspan></text>
<text opacity="0.75" fill="#0A3470" xml:space="preserve" style="white-space: pre" font-family="Helvetica" font-size="27.5676" font-weight="bold" letter-spacing="0em"><tspan x="245" y="919.954">(Goldman, Muhammad, Waese-Perlman)</tspan></text>
<path d="M1312.11 630.9C1385.18 638.577 1438.19 704.036 1430.51 777.107C1422.84 850.178 1357.38 903.19 1284.31 895.513C1211.24 887.837 1158.22 822.378 1165.9 749.307C1173.58 676.236 1239.04 623.223 1312.11 630.9Z" fill="url(#paint1_linear_3751_85755)"/>
<circle cx="1138.82" cy="987.825" r="113.04" transform="rotate(-38.4679 1138.82 987.825)" fill="url(#paint2_linear_3751_85755)" fill-opacity="0.8"/>
<path d="M69.109 908.378C68.62 908.286 68.1168 908.303 67.6351 908.427C67.1534 908.552 66.7052 908.781 66.3222 909.099C65.9392 909.417 65.631 909.815 65.4195 910.265C65.2079 910.715 65.0982 911.207 65.0982 911.704C65.0982 912.202 65.2079 912.693 65.4195 913.144C65.631 913.594 65.9392 913.992 66.3222 914.31C66.7052 914.628 67.1534 914.857 67.6351 914.982C68.1168 915.106 68.62 915.123 69.109 915.031C69.5981 915.123 70.1014 915.107 70.5832 914.982C71.0651 914.857 71.5135 914.628 71.8966 914.31C72.2797 913.993 72.588 913.594 72.7996 913.144C73.0113 912.694 73.121 912.202 73.121 911.704C73.121 911.207 73.0113 910.715 72.7996 910.265C72.588 909.814 72.2797 909.416 71.8966 909.098C71.5135 908.781 71.0651 908.551 70.5832 908.427C70.1014 908.302 69.5981 908.285 69.109 908.378ZM69.109 913.751C67.6029 913.751 66.3788 912.832 66.3788 911.704C66.3788 910.577 67.6029 909.656 69.109 909.656C70.6151 909.656 71.8411 910.575 71.8411 911.704C71.8411 912.834 70.6151 913.751 69.109 913.751Z" fill="#4C83C3"/>
<path d="M63.6534 914.212C63.5107 913.416 63.0602 912.709 62.3996 912.243C61.7389 911.777 60.9212 911.59 60.1238 911.723C59.3161 911.754 58.5529 912.101 57.9996 912.69C57.4463 913.279 57.1474 914.063 57.1677 914.871C57.2417 915.253 57.3925 915.617 57.6109 915.94C57.8293 916.262 58.1109 916.537 58.4386 916.748C58.7663 916.959 59.1333 917.102 59.5175 917.167C59.9017 917.232 60.2952 917.219 60.6741 917.128C62.5528 916.938 63.8059 915.71 63.6534 914.212ZM60.5563 915.975C59.5658 916.075 58.4575 915.734 58.3571 914.751C58.4089 914.27 58.6243 913.822 58.9672 913.481C59.3101 913.14 59.7597 912.927 60.2408 912.878C60.7219 912.829 61.2053 912.946 61.61 913.211C62.0147 913.476 62.3162 913.871 62.464 914.332C62.5644 915.318 61.5449 915.875 60.5563 915.975Z" fill="#4C83C3"/>
<path d="M51.9793 914.218C50.2183 914.218 49.1255 915.046 49.1255 916.378C49.1255 917.711 50.2183 918.539 51.9793 918.539C53.7402 918.539 54.8311 917.713 54.8311 916.378C54.8311 915.044 53.7383 914.218 51.9793 914.218ZM51.9773 917.392C51.1876 917.392 50.2434 917.218 50.2434 916.378C50.2434 915.542 51.1876 915.367 51.9773 915.367C52.7709 915.367 53.7151 915.542 53.7151 916.378C53.7151 917.218 52.7709 917.392 51.9773 917.392Z" fill="#4C83C3"/>
<path d="M44.4741 915.371C42.6031 915.371 42.4023 916.562 42.4023 917.078C42.4023 917.594 42.6031 918.785 44.4741 918.785C45.8874 918.785 46.8027 918.115 46.8027 917.078C46.8027 916.041 45.8874 915.371 44.4741 915.371ZM44.4741 917.76C43.4275 917.76 43.4275 917.3 43.4275 917.078C43.4275 916.856 43.4275 916.396 44.4741 916.396C44.6054 916.396 45.7755 916.416 45.7755 917.078C45.7755 917.74 44.6054 917.76 44.4741 917.76Z" fill="#4C83C3"/>
<path d="M93.6765 890.054C93.4819 888.804 92.9962 887.617 92.2587 886.589C91.5212 885.561 90.5524 884.721 89.4306 884.136C89.3939 884.111 89.363 884.087 89.3282 884.062L89.3128 884.051L89.1776 883.964V885.879C89.2394 885.918 89.334 885.984 89.4306 886.053C90.1178 886.496 90.7074 887.074 91.1632 887.753C91.6191 888.432 91.9316 889.196 92.0816 890C92.0759 890.992 91.8321 891.968 91.3708 892.847C90.9095 893.726 90.2441 894.481 89.4306 895.049C89.4074 895.072 89.3862 895.093 89.3611 895.115L89.1776 895.277L89.0502 895.387L89.1776 895.437L89.4306 895.537L89.4325 895.539C89.4615 895.551 92.238 896.723 90.9154 900.83C90.208 902.788 88.8876 904.467 87.1504 905.615C85.4132 906.763 83.3519 907.32 81.2727 907.204H81.2071C77.3078 907.097 73.5066 905.958 70.1916 903.902L70.0198 903.807L69.8827 903.948C68.1502 905.719 65.8399 906.809 63.3719 907.02C63.3275 907.03 60.2941 907.252 58.3208 903.27L58.2204 903.07L58.0099 903.143C57.9848 903.151 55.7064 903.906 54.4939 902.765C54.4123 902.688 54.3374 902.605 54.2699 902.515H53.9339V902.512H52.7658V902.515H52.5037L52.5211 902.579L52.5539 902.664C52.5655 902.695 52.5771 902.724 52.5945 902.765C52.8494 903.375 53.9345 905.317 57.4081 904.879C58.0212 905.933 58.887 906.819 59.9275 907.456C60.968 908.092 62.1505 908.46 63.3686 908.526H63.3705C65.9319 908.482 68.3841 907.482 70.2463 905.723C73.511 907.447 77.0982 908.476 80.781 908.742C81.1874 908.742 81.5935 908.72 81.9974 908.675C84.158 908.621 86.2592 907.956 88.0579 906.758C89.8566 905.56 91.2793 903.876 92.1614 901.903C92.6798 900.834 92.8812 899.639 92.7416 898.458C92.602 897.278 92.1272 896.163 91.3736 895.244C92.0964 894.586 92.6744 893.785 93.071 892.891C93.4675 891.998 93.6734 891.031 93.6765 890.054Z" fill="#4C83C3"/>
<path d="M89.0266 885.929L88.8277 885.819C86.1692 883.392 82.7774 881.921 79.189 881.639C78.671 881.638 78.1541 881.684 77.6443 881.776C76.5602 881.987 75.5287 882.411 74.6091 883.023C73.6895 883.634 72.9 884.422 72.2862 885.34L71.7108 886.313L71.5409 885.195C71.0949 882.284 69.6313 882.091 69.6023 882.087C69.4968 882.065 69.3894 882.055 69.2818 882.056C67.6889 882.056 65.5784 884.172 65.5553 884.195L65.0591 884.697L64.8795 884.018C63.7577 879.847 60.9348 879.76 60.8286 879.758C58.8586 879.756 56.9603 880.497 55.513 881.834C54.9735 882.518 54.712 883.381 54.7807 884.25C54.8494 885.119 55.2433 885.93 55.8837 886.522L56.2834 886.941L55.7505 887.173C50.3904 889.499 50.6974 891.467 50.7032 891.5C50.8886 892.913 54.0069 894.348 55.93 894.917L56.4784 895.083L56.1405 895.545C53.0627 899.737 53.9837 901.81 54.2038 902.181L54.2714 902.362H82.5506C84.2712 902.357 85.9193 901.669 87.1334 900.45C88.3476 899.231 89.0284 897.58 89.0266 895.859V885.929Z" fill="#4C83C3"/>
<path d="M82.5516 865.01H48.4761C46.7579 865.013 45.111 865.697 43.8968 866.913C42.6826 868.129 42.0005 869.776 42 871.495V895.879C42.0005 897.598 42.6827 899.245 43.8968 900.461C45.1109 901.677 46.7578 902.362 48.4761 902.365H52.276L52.2489 902.301C52.0209 901.233 52.013 900.13 52.2258 899.058C52.4386 897.987 52.8676 896.97 53.4866 896.07C50.4783 894.825 48.9163 893.336 48.8429 891.649C48.7309 889.042 52.1833 886.918 53.446 886.231C53.114 885.598 52.9175 884.903 52.8689 884.191C52.8204 883.478 52.9209 882.763 53.1641 882.091C53.8824 880.578 55.1636 879.406 56.7343 878.824C57.8712 878.268 59.1146 877.965 60.3797 877.934C61.1412 877.93 61.8962 878.075 62.6021 878.361C64.0509 878.995 65.23 880.12 65.9328 881.537C66.9231 880.809 68.1025 880.384 69.3292 880.311C69.6934 880.311 70.0556 880.367 70.4027 880.477C71.3218 880.807 72.0797 881.477 72.5209 882.348C74.2821 880.758 76.5777 879.889 78.9506 879.915C82.5945 880.168 86.086 881.476 88.9987 883.68L89.0276 883.701V871.495C89.0266 869.777 88.3442 868.129 87.1302 866.914C85.9161 865.698 84.2695 865.013 82.5516 865.01Z" fill="#4C83C3"/>
<path d="M147.935 853.189L137.218 858.546L137.902 859.916L148.619 854.559L147.935 853.189Z" fill="#FDBA12"/>
<path d="M143.112 845.58L133.494 854.127L134.511 855.272L144.13 846.725L143.112 845.58Z" fill="#FDBA12"/>
<path d="M133.846 839.37L128.768 851.123L130.175 851.731L135.253 839.978L133.846 839.37Z" fill="#FDBA12"/>
<path d="M124.437 836.987H122.904V850.134H124.437V836.987Z" fill="#FDBA12"/>
<path d="M113.497 839.37L112.087 839.978L117.065 851.497L117.169 851.731L118.575 851.123L113.597 839.601L113.497 839.37Z" fill="#FDBA12"/>
<path d="M103.213 846.726L112.831 855.272L113.85 854.127L104.229 845.579L103.213 846.726Z" fill="#FDBA12"/>
<path d="M99.403 853.194L98.7197 854.565L109.442 859.911L110.126 858.54L99.403 853.194Z" fill="#FDBA12"/>
<path d="M140.708 865.012H138.379L138.37 865.263C138.358 867.186 137.965 869.088 137.214 870.859C136.462 872.63 135.368 874.234 133.992 875.579C132.858 876.735 131.478 877.621 129.955 878.172L128.868 885.703H118.27L117.341 878.232C109.368 875.176 109.065 866.8 108.976 865.149L108.969 865.012H106.632C104.912 865.018 103.264 865.706 102.05 866.926C100.836 868.145 100.155 869.796 100.156 871.517V895.971C100.158 897.528 100.719 899.033 101.739 900.21C102.758 901.388 104.167 902.159 105.708 902.383H141.635C143.176 902.159 144.584 901.387 145.603 900.21C146.622 899.033 147.183 897.528 147.184 895.971V871.517C147.186 869.796 146.505 868.145 145.291 866.925C144.077 865.706 142.429 865.018 140.708 865.012ZM118.391 887.481H128.928V889.035H118.391V887.481ZM118.391 890.458H128.928V892.011H118.391V890.458ZM125.655 897.964H121.506V896.409H125.655V897.964ZM128.957 894.988H118.42V893.434H128.957V894.988Z" fill="#FDBA12"/>
<path d="M118.233 872.656L124.273 870.184L119.085 868.601L122.73 865.261L122.974 865.011H110.954V865.261C111.037 866.757 111.277 874.166 118.714 876.95L118.857 877.002L119.736 883.938H122.875V875.743L124.54 874.376L118.233 872.656Z" fill="#FDBA12"/>
<path d="M125.184 865.011L124.971 865.262L122.274 867.841L129.221 869.789L123.01 872.342L127.887 873.709L124.494 876.476V883.939H127.356L128.346 876.955L128.478 876.899C130.795 875.946 132.784 874.337 134.2 872.27C135.616 870.202 136.397 867.767 136.448 865.262V865.011H125.184Z" fill="#FDBA12"/>
<path d="M198.762 865.011H185.799C191.512 869.275 194.74 873.704 195.399 878.18C195.613 880.105 195.428 882.053 194.855 883.903C194.282 885.754 193.333 887.466 192.068 888.932L191.958 889.075C186.988 895.412 176.845 900.201 172.713 901.964C172.246 902.107 171.776 902.246 171.304 902.383H198.762C200.479 902.377 202.123 901.691 203.334 900.475C204.545 899.259 205.225 897.612 205.223 895.895V871.499C205.225 869.782 204.545 868.135 203.334 866.919C202.123 865.703 200.479 865.017 198.762 865.011Z" fill="#B22C1B"/>
<path d="M182.883 865.24L182.583 865.011H164.773C163.057 865.016 161.412 865.703 160.201 866.92C158.99 868.136 158.311 869.783 158.313 871.5V895.892C158.311 897.609 158.99 899.257 160.201 900.474C161.412 901.691 163.056 902.378 164.773 902.384H164.868L165.606 902.139C182.178 896.657 192.807 888.349 193.342 880.455C193.889 872.51 184.01 865.961 182.883 865.24Z" fill="#B22C1B"/>
<path d="M196.922 834.613C197.099 833.591 197.188 832.555 197.19 831.518C197.251 829.188 196.706 826.882 195.608 824.826C194.509 822.77 192.896 821.035 190.925 819.79C188.136 818.015 184.909 817.05 181.604 817.002C178.299 816.954 175.046 817.825 172.207 819.518C170.146 820.866 168.475 822.73 167.359 824.925C166.244 827.12 165.723 829.569 165.849 832.028C165.855 833.236 165.954 834.442 166.146 835.635C167.046 841.461 170.184 846.706 174.891 850.255C172.419 849.585 169.191 849.264 167.793 851.531C167.622 851.747 167.498 851.996 167.428 852.262C167.357 852.529 167.343 852.806 167.385 853.079C167.427 853.351 167.525 853.611 167.673 853.844C167.821 854.076 168.015 854.275 168.243 854.429C170.041 855.719 174.41 855.377 177.05 853.868L175.238 858.086H187.395L184.964 853.223C187.905 854.453 191.315 855.563 193.157 854.439C193.531 854.206 193.838 853.88 194.05 853.494C194.262 853.107 194.37 852.673 194.365 852.232C194.421 851.763 194.35 851.288 194.16 850.855C193.97 850.423 193.669 850.049 193.286 849.772C191.895 849.049 190.283 848.876 188.77 849.286C188.984 849.11 189.189 848.934 189.393 848.755C193.456 845.048 196.115 840.053 196.922 834.613ZM169.139 853.184C168.963 853.059 168.747 852.902 169.098 852.334C170.151 850.62 173.671 851.278 176.532 852.416C175.431 853.076 174.198 853.487 172.921 853.62C171.643 853.752 170.353 853.604 169.139 853.184ZM192.404 851.023C192.575 851.151 192.706 851.325 192.782 851.524C192.859 851.723 192.878 851.94 192.836 852.149C192.847 852.34 192.809 852.531 192.726 852.703C192.642 852.875 192.516 853.022 192.359 853.132C191.664 853.557 189.886 853.64 185.383 851.74C188.129 850.825 191.245 850.207 192.404 851.023ZM183.452 850.803C183.269 850.877 183.13 850.931 183.064 850.958L182.529 851.143L182.273 851.269L182.282 851.284L181.396 851.651L182.769 852.265L184.916 856.555H177.565L179.681 851.618L178.911 851.16C175.953 849.57 173.401 847.321 171.45 844.587C169.5 841.853 168.203 838.708 167.662 835.393C167.483 834.287 167.391 833.169 167.386 832.049C167.264 829.844 167.722 827.647 168.714 825.674C169.706 823.701 171.197 822.023 173.039 820.806C175.626 819.268 178.588 818.478 181.597 818.524C184.606 818.57 187.543 819.451 190.081 821.068C191.837 822.181 193.275 823.732 194.252 825.567C195.23 827.403 195.714 829.46 195.657 831.539C195.654 832.484 195.571 833.427 195.41 834.358C194.942 837.878 193.603 841.225 191.515 844.096C189.427 846.968 186.656 849.273 183.452 850.803Z" fill="#B22C1B"/>
<path d="M185.149 864.71L185.044 864.636C185.042 864.634 185.025 864.627 184.996 864.607C183.845 863.89 182.857 862.939 182.097 861.816C181.337 860.693 180.821 859.422 180.584 858.087H178.933C179.196 860.61 180.404 862.939 182.315 864.607C182.356 864.642 182.4 864.675 182.445 864.71C182.508 864.76 182.57 864.812 182.634 864.86H185.1L185.364 864.858L185.149 864.71Z" fill="#B22C1B"/>
<text transform="translate(87.9004 901.15)" fill="#B22C1B" xml:space="preserve" style="white-space: pre" font-family="Helvetica" font-size="15.3" letter-spacing="0em"><tspan x="13.004" y="14.5697">icpc.foundation</tspan></text>
<text fill="#4C83C3" xml:space="preserve" style="white-space: pre" font-family="Helvetica" font-size="12.75" letter-spacing="0em"><tspan x="55.3028" y="861.117">nac</tspan></text>
</g>
</g>
<defs>
<linearGradient id="paint0_linear_3751_85755" x1="527.5" y1="731.5" x2="1361" y2="985.5" gradientUnits="userSpaceOnUse">
<stop offset="0.103241" stop-color="white"/>
<stop offset="0.522882" stop-color="#FBC02E"/>
<stop offset="1" stop-color="#B53727" stop-opacity="0.8"/>
<stop offset="1" stop-color="#B53727"/>
</linearGradient>
<linearGradient id="paint1_linear_3751_85755" x1="1138.32" y1="697.404" x2="1402.94" y2="725.204" gradientUnits="userSpaceOnUse">
<stop offset="0.0310706" stop-color="#4C83C3"/>
<stop offset="1" stop-color="#D9D9D9" stop-opacity="0"/>
</linearGradient>
<linearGradient id="paint2_linear_3751_85755" x1="1138.82" y1="874.785" x2="1138.82" y2="1100.86" gradientUnits="userSpaceOnUse">
<stop offset="0.0310706" stop-color="#F8F0C9" stop-opacity="0.8"/>
<stop offset="0.300575" stop-color="#E9D671" stop-opacity="0.397776"/>
<stop offset="1" stop-color="#D9D9D9" stop-opacity="0"/>
</linearGradient>
<clipPath id="clip0_3751_85755">
<rect width="1350" height="970" fill="white"/>
</clipPath>
<clipPath id="clip1_3751_85755">
<path d="M0 765H1350V954.001C1350 962.837 1342.84 970.001 1334 970.001H16C7.16344 970.001 0 962.837 0 954.001V765Z" fill="white"/>
</clipPath>
</defs>
</svg>
