<svg width="168" height="32" viewBox="0 0 168 32" fill="none" xmlns="http://www.w3.org/2000/svg">
<path fill-rule="evenodd" clip-rule="evenodd" d="M2.24942 2.24942C0 4.49884 0 8.11923 0 15.36V16.64C0 23.8808 0 27.5012 2.24942 29.7506C4.49884 32 8.11923 32 15.36 32H16.64C23.8808 32 27.5012 32 29.7506 29.7506C32 27.5012 32 23.8808 32 16.64V15.36C32 8.11923 32 4.49884 29.7506 2.24942C27.5012 0 23.8808 0 16.64 0H15.36C8.11923 0 4.49884 0 2.24942 2.24942ZM5.40004 9.7334C5.57337 18.0534 9.73333 23.0534 17.0267 23.0534H17.4401V18.2934C20.1201 18.56 22.1466 20.5201 22.9599 23.0534H26.7467C25.7067 19.2667 22.9732 17.1734 21.2666 16.3734C22.9732 15.3867 25.3733 12.9867 25.9466 9.7334H22.5065C21.7598 12.3734 19.5467 14.7734 17.4401 15V9.7334H14V18.96C11.8666 18.4267 9.17336 15.8401 9.05336 9.7334H5.40004Z" fill="white"/>
<path d="M52.5122 23.9435C53.7079 23.3947 54.4784 22.48 54.4784 21.0687C54.4784 18.9256 52.4856 17.4098 49.616 17.4098H43V31H49.9083C52.8842 31 54.9567 29.4058 54.9567 27.2366C54.9567 25.59 53.8673 24.3617 52.5122 23.9435ZM49.616 19.8926C50.6788 19.8926 51.4228 20.5199 51.4228 21.3823C51.4228 22.2448 50.6788 22.8459 49.616 22.8459H46.0556V19.8926H49.616ZM46.0556 28.5172V25.198H49.9083C51.104 25.198 51.9011 25.8775 51.9011 26.8707C51.9011 27.8638 51.104 28.5172 49.9083 28.5172H46.0556Z" fill="white"/>
<path d="M69.8012 31L63.4509 23.9435L69.2698 17.4098H65.6296L61.0064 22.6891H60.2624V17.4098H57.2068V31H60.2624V25.59H61.0064L65.7891 31H69.8012Z" fill="white"/>
<path d="M77.069 31.2613C81.4 31.2613 84.4556 28.3342 84.4556 24.2049C84.4556 20.0756 81.4 17.1484 77.069 17.1484C72.738 17.1484 69.6824 20.0756 69.6824 24.2049C69.6824 28.3342 72.738 31.2613 77.069 31.2613ZM77.069 28.5172C74.5714 28.5172 72.8709 26.7661 72.8709 24.2049C72.8709 21.6437 74.5714 19.8926 77.069 19.8926C79.5666 19.8926 81.2671 21.6437 81.2671 24.2049C81.2671 26.7661 79.5666 28.5172 77.069 28.5172Z" fill="white"/>
<path d="M95.827 22.7675H89.6362V17.4098H86.5806V31H89.6362V25.5116H95.827V31H98.8826V17.4098H95.827V22.7675Z" fill="white"/>
<path d="M108.309 31V20.154H113.092V17.4098H100.471V20.154H105.253V31H108.309Z" fill="white"/>
<path d="M119.797 17.1484C117.113 17.1484 114.748 18.5075 114.058 20.8596L116.874 21.33C117.299 20.4937 118.256 19.7097 119.637 19.7097C121.311 19.7097 122.294 20.8857 122.427 22.6629H119.451C115.386 22.6629 113.367 24.414 113.367 26.9229C113.367 29.458 115.36 31.2613 118.176 31.2613C120.435 31.2613 121.949 29.9807 122.613 28.8569L123.251 31H125.509V23.3686C125.509 19.4222 123.331 17.1484 119.797 17.1484ZM118.893 28.7262C117.405 28.7262 116.449 27.9683 116.449 26.7923C116.449 25.7469 117.219 25.0151 119.558 25.0151H122.454C122.454 27.2366 121.019 28.7262 118.893 28.7262Z" fill="white"/>
<path d="M140.887 31L134.537 23.9435L140.356 17.4098H136.716L132.092 22.6891H131.348V17.4098H128.293V31H131.348V25.59H132.092L136.875 31H140.887Z" fill="white"/>
<path d="M148.594 31V20.154H153.377V17.4098H140.756V20.154H145.539V31H148.594Z" fill="white"/>
<path d="M168 24.0481C168 20.1278 165.024 17.1484 160.826 17.1484C156.628 17.1484 153.652 20.1017 153.652 24.2049C153.652 28.3081 156.628 31.2613 160.826 31.2613C163.696 31.2613 166.406 29.9285 167.442 27.3411L164.572 26.8707C163.908 27.8377 162.633 28.5172 161.012 28.5172C158.674 28.5172 157.133 27.1059 156.84 25.0151H167.947C167.973 24.7276 168 24.414 168 24.0481ZM160.826 19.7619C162.739 19.7619 164.174 20.9641 164.679 22.6629H157.026C157.531 20.9119 158.966 19.7619 160.826 19.7619Z" fill="white"/>
<path d="M47.2066 9.32212C48.9186 9.32212 50.5186 8.45812 51.1426 6.77812L49.6706 6.53812C49.3026 7.32212 48.4066 7.88212 47.3026 7.88212C45.6866 7.88212 44.5666 6.73012 44.5666 5.03412C44.5666 3.33812 45.6866 2.17012 47.3026 2.17012C48.3586 2.17012 49.2386 2.69812 49.6066 3.45012L51.0786 3.21012C50.4546 1.57812 48.9186 0.730118 47.2066 0.730118C44.6946 0.730118 42.9186 2.52212 42.9186 5.03412C42.9186 7.53012 44.6946 9.32212 47.2066 9.32212Z" fill="white"/>
<path d="M53.868 9.16212V2.66612H54.108L56.284 9.16212H57.756L60.044 2.66612H60.268V9.16212H61.788V0.890118H59.308L57.164 7.03412H56.94L54.876 0.890118H52.348V9.16212H53.868Z" fill="white"/>
<path d="M67.6541 9.32212C70.2141 9.32212 72.0221 7.54612 72.0221 5.03412C72.0221 2.52212 70.2141 0.730118 67.6541 0.730118C65.0941 0.730118 63.2861 2.52212 63.2861 5.03412C63.2861 7.54612 65.0941 9.32212 67.6541 9.32212ZM67.6541 7.88212C66.0381 7.88212 64.9341 6.73012 64.9341 5.03412C64.9341 3.33812 66.0381 2.17012 67.6541 2.17012C69.2861 2.17012 70.3901 3.33812 70.3901 5.03412C70.3901 6.73012 69.2861 7.88212 67.6541 7.88212Z" fill="white"/>
<path d="M76.8631 9.16212V2.33012H79.7271V0.890118H72.4311V2.33012H75.2951V9.16212H76.8631Z" fill="white"/>
<path d="M82.4985 12.4421V7.85012C83.0905 8.57012 84.1145 9.32212 85.6025 9.32212C87.9545 9.32212 89.6345 7.53012 89.6345 5.03412C89.6345 2.52212 87.9545 0.730118 85.6025 0.730118C84.0665 0.730118 83.0265 1.53012 82.4505 2.26612L82.0665 0.890118H80.9305V12.4421H82.4985ZM85.2665 7.91412C83.6345 7.91412 82.4985 6.73012 82.4985 5.03412C82.4985 3.33812 83.6345 2.15412 85.2665 2.15412C86.8825 2.15412 88.0025 3.33812 88.0025 5.03412C88.0025 6.73012 86.8825 7.91412 85.2665 7.91412Z" fill="white"/>
<path d="M93.4811 9.16212L96.8251 2.66612H97.0651V9.16212H98.5851V0.890118H96.2651L92.9211 7.40212H92.6811V0.890118H91.1611V9.16212H93.4811Z" fill="white"/>
<path d="M104.196 9.16212V2.33012H107.06V0.890118H99.7636V2.33012H102.628V9.16212H104.196Z" fill="white"/>
<path d="M115.95 4.97012C115.95 2.53812 114.19 0.730118 111.71 0.730118C109.23 0.730118 107.47 2.52212 107.47 5.03412C107.47 7.53012 109.246 9.32212 111.742 9.32212C113.422 9.32212 114.99 8.52212 115.646 6.98612L114.174 6.74612C113.758 7.40212 112.91 7.88212 111.838 7.88212C110.318 7.88212 109.278 6.92212 109.102 5.46612H115.934C115.95 5.29012 115.95 5.14612 115.95 4.97012ZM111.71 2.12212C113.006 2.12212 113.966 2.97012 114.238 4.18612H109.182C109.486 2.93812 110.43 2.12212 111.71 2.12212Z" fill="white"/>
</svg>
