<svg width="100" height="90" viewBox="0 0 100 90" fill="none" xmlns="http://www.w3.org/2000/svg">
<path d="M90.3594 2.83984H8.85938C3.85938 2.83984 2.85938 3.89984 2.85938 8.96984V44.8898C2.85938 49.9598 3.85938 51.0198 8.85938 51.0198H90.3594C95.3594 51.0198 96.3594 49.9598 96.3594 44.8898V8.99984C96.3794 3.89984 95.3394 2.83984 90.3594 2.83984ZM25.5194 17.2398C25.5194 14.6998 26.0394 14.1698 28.5194 14.1698H36.6594C39.1494 14.1698 39.6594 14.6998 39.6594 17.2398V25.2398C39.6594 27.7698 39.1394 28.3098 36.6594 28.3098H28.5294C26.0394 28.3098 25.5294 27.7698 25.5294 25.2398L25.5194 17.2398ZM8.51938 17.2398C8.51938 14.6998 9.03938 14.1698 11.5194 14.1698H19.6594C22.1494 14.1698 22.6594 14.6998 22.6594 17.2398V25.2398C22.6594 27.7698 22.1394 28.3098 19.6594 28.3098H11.5194C9.02938 28.3098 8.51938 27.7698 8.51938 25.2398V17.2398ZM56.6894 42.2898C56.6894 44.8198 56.1694 45.3498 53.6894 45.3498H11.5094C9.02938 45.3498 8.50938 44.8198 8.50938 42.2898V34.2898C8.50938 31.7498 9.03938 31.2198 11.5094 31.2198H53.6794C56.1694 31.2198 56.6794 31.7498 56.6794 34.2898L56.6894 42.2898ZM56.6894 25.2898C56.6894 27.8198 56.1694 28.3598 53.6894 28.3598H45.5394C43.0494 28.3598 42.5394 27.8198 42.5394 25.2898V17.2898C42.5394 14.7498 43.0594 14.2198 45.5394 14.2198H53.6794C56.1694 14.2198 56.6794 14.7498 56.6794 17.2898L56.6894 25.2898ZM73.6894 42.2898C73.6894 44.8198 73.1694 45.3498 70.6894 45.3498H62.5494C60.0594 45.3498 59.5494 44.8198 59.5494 42.2898V34.2898C59.5494 31.7498 60.0694 31.2198 62.5494 31.2198H70.6894C73.1794 31.2198 73.6894 31.7498 73.6894 34.2898V42.2898ZM90.6894 42.2898C90.6894 44.8198 90.1694 45.3498 87.6894 45.3498H79.5494C77.0594 45.3498 76.5494 44.8198 76.5494 42.2898V34.2898C76.5494 31.7498 77.0694 31.2198 79.5494 31.2198H87.6994C90.1894 31.2198 90.6994 31.7498 90.6994 34.2898L90.6894 42.2898ZM90.6894 25.2898C90.6894 27.8198 90.1694 28.3598 87.6894 28.3598H62.5494C60.0594 28.3598 59.5494 27.8198 59.5494 25.2898V17.2898C59.5494 14.7498 60.0694 14.2198 62.5494 14.2198H87.6994C90.1894 14.2198 90.6994 14.7498 90.6994 17.2898L90.6894 25.2898Z" fill="#00A0DF"/>
<path d="M24.2101 62.1501C24.5318 61.4139 25.0423 60.7756 25.6901 60.3001C26.2566 59.9271 26.9218 59.7321 27.6001 59.7401C28.0914 59.6981 28.586 59.766 29.0479 59.9389C29.5097 60.1119 29.9272 60.3856 30.2701 60.7401C30.888 61.5193 31.2008 62.497 31.1501 63.4901V83.9001C31.1628 84.2875 31.0967 84.6733 30.9557 85.0343C30.8147 85.3953 30.6019 85.7239 30.3301 86.0001C30.0369 86.2729 29.6921 86.4842 29.316 86.6216C28.9398 86.759 28.54 86.8197 28.1401 86.8001C27.7503 86.8278 27.3591 86.772 26.9926 86.6366C26.626 86.5012 26.2926 86.2892 26.0144 86.0148C25.7362 85.7404 25.5197 85.4099 25.3793 85.0453C25.2389 84.6806 25.1778 84.2903 25.2001 83.9001V71.1901L20.8101 80.0001C20.5606 80.5788 20.1599 81.0797 19.6501 81.4501C19.1904 81.7111 18.6685 81.8425 18.1401 81.8301C17.593 81.8385 17.0528 81.7077 16.5701 81.4501C16.0327 81.0939 15.6092 80.5905 15.3501 80.0001L11.0801 71.3001V83.9001C11.0911 84.2873 11.0241 84.6726 10.8833 85.0334C10.7424 85.3941 10.5305 85.7229 10.2601 86.0001C9.96569 86.2741 9.61924 86.4862 9.24131 86.6236C8.86337 86.761 8.46166 86.8211 8.06006 86.8001C7.6693 86.8184 7.27891 86.7569 6.9127 86.6194C6.5465 86.4819 6.21215 86.2712 5.93006 86.0001C5.65779 85.7169 5.44636 85.3809 5.30878 85.0129C5.1712 84.6448 5.11038 84.2526 5.13006 83.8601V63.5201C5.08104 62.5288 5.38979 61.5529 6.00006 60.7701C6.33874 60.4186 6.75121 60.1465 7.20772 59.9736C7.66424 59.8007 8.15344 59.7312 8.64006 59.7701C9.32131 59.7631 9.98939 59.958 10.5601 60.3301C11.2229 60.7973 11.7451 61.4371 12.0701 62.1801L18.1401 74.5001L24.2101 62.1501Z" fill="#00A0DF"/>
<path d="M36.5794 85.6198C36.2957 85.3263 36.0749 84.9781 35.9305 84.5964C35.786 84.2147 35.721 83.8075 35.7394 83.3998V62.7998C35.7213 62.3895 35.7894 61.98 35.9392 61.5976C36.089 61.2153 36.3173 60.8685 36.6094 60.5798C36.9234 60.2934 37.2908 60.0717 37.6907 59.9276C38.0905 59.7834 38.5148 59.7196 38.9394 59.7398C39.3581 59.7171 39.7771 59.7798 40.1708 59.9243C40.5644 60.0687 40.9246 60.2917 41.2294 60.5798C41.513 60.8732 41.7338 61.2214 41.8783 61.6032C42.0227 61.9849 42.0877 62.3921 42.0694 62.7998V81.1898H48.7894V62.7998C48.771 62.3921 48.836 61.9849 48.9805 61.6032C49.1249 61.2214 49.3457 60.8732 49.6294 60.5798C49.9472 60.287 50.3211 60.0616 50.7284 59.9172C51.1357 59.7729 51.5681 59.7125 51.9994 59.7398C52.4147 59.7204 52.8298 59.7848 53.2197 59.9291C53.6097 60.0734 53.9667 60.2947 54.2694 60.5798C54.5596 60.8694 54.786 61.2165 54.9341 61.5988C55.0822 61.9812 55.1487 62.3902 55.1294 62.7998V81.1898H61.8494V62.7998C61.831 62.3921 61.896 61.9849 62.0405 61.6032C62.1849 61.2214 62.4057 60.8732 62.6894 60.5798C62.9981 60.2916 63.3618 60.0687 63.7588 59.9244C64.1557 59.78 64.5776 59.7172 64.9994 59.7398C65.4208 59.7201 65.842 59.7842 66.2385 59.9284C66.635 60.0725 66.999 60.294 67.3094 60.5798C67.5948 60.8724 67.8175 61.2202 67.9636 61.602C68.1098 61.9838 68.1764 62.3913 68.1594 62.7998V83.3998C68.1834 83.8028 68.1228 84.2064 67.9814 84.5845C67.8399 84.9627 67.6208 85.307 67.3382 85.5953C67.0555 85.8836 66.7156 86.1094 66.3404 86.2583C65.9651 86.4072 65.5628 86.4759 65.1594 86.4598H38.7894C38.3833 86.4768 37.978 86.4111 37.5981 86.2667C37.2182 86.1223 36.8716 85.9022 36.5794 85.6198Z" fill="#00A0DF"/>
<path d="M73.6004 85.9998C73.318 85.7076 73.0979 85.361 72.9535 84.9811C72.8091 84.6012 72.7435 84.1959 72.7604 83.7898V63.1798C72.7475 62.7788 72.8152 62.3792 72.9595 62.0047C73.1038 61.6303 73.3217 61.2886 73.6004 60.9998C73.8927 60.7174 74.2393 60.4974 74.6192 60.353C74.9991 60.2086 75.4044 60.1429 75.8104 60.1598H91.0804C91.4865 60.1429 91.8918 60.2086 92.2717 60.353C92.6516 60.4974 92.9982 60.7174 93.2904 60.9998C93.5741 61.2933 93.7949 61.6415 93.9393 62.0232C94.0838 62.405 94.1488 62.8121 94.1304 63.2198V83.7898C94.1459 84.188 94.0789 84.585 93.9336 84.9559C93.7883 85.3269 93.5679 85.6638 93.2861 85.9456C93.0044 86.2273 92.6675 86.4477 92.2965 86.593C91.9256 86.7383 91.5285 86.8053 91.1304 86.7898C90.6852 86.8309 90.2363 86.7821 89.8103 86.6464C89.3843 86.5107 88.9899 86.2908 88.6504 85.9998C88.3644 85.7093 88.1407 85.3634 87.9928 84.9834C87.8449 84.6035 87.7761 84.1973 87.7904 83.7898V65.3898H79.0904V83.7898C79.109 84.1978 79.0421 84.6052 78.894 84.9857C78.7459 85.3663 78.5199 85.7118 78.2304 85.9998C77.9281 86.2854 77.5712 86.507 77.1811 86.6514C76.791 86.7957 76.3759 86.8598 75.9604 86.8398C75.5308 86.8657 75.1003 86.8047 74.6948 86.6604C74.2893 86.516 73.9171 86.2914 73.6004 85.9998Z" fill="#00A0DF"/>
</svg>
