<svg width="648" height="320" viewBox="0 0 648 320" fill="none" xmlns="http://www.w3.org/2000/svg">
<path d="M361.08 257.6L397.83 257.44C416.21 257.44 417.33 245.03 411.69 232.94L301.43 0.329773L404.44 0.00976562L473.92 165.08L546.78 0.00976562L647.69 0.329773L524.21 260.34C503.25 304.51 454.41 319.18 394.29 318.21L361.08 257.6Z" fill="#3E2985"/>
<path d="M407.66 318.21H302.72L152 0.330002L256.46 0L407.66 318.21Z" fill="#C80973"/>
<path d="M152 0.330078L202.62 107.69L101.87 319.18H0L152 0.330078Z" fill="#95195C"/>
<path d="M243.4 253.73C243.4 276.46 225.99 293.38 203.1 293.06C180.69 292.9 163.77 275.33 164.09 252.44C164.41 230.52 181.66 213.75 203.91 213.75C226.16 213.75 243.56 231 243.4 253.73Z" fill="#95195C"/>
</svg>
