<svg width="73" height="90" viewBox="0 0 73 90" fill="none" xmlns="http://www.w3.org/2000/svg">
<path d="M28.704 14.2401C28.734 14.3001 28.754 14.3601 28.784 14.4201C29.244 15.3901 30.074 16.3301 30.074 16.3301C30.074 16.3301 30.074 16.3301 30.094 16.3201C30.094 16.3201 30.214 16.2301 30.464 16.0901C30.544 16.0401 30.644 15.9901 30.754 15.9401C31.024 15.8101 31.364 15.6601 31.794 15.5001C32.804 15.1401 34.144 15.0301 34.144 15.0301C34.144 15.0301 32.894 13.2901 32.654 10.7801C32.524 9.36006 32.574 8.61006 32.594 8.57006C32.514 8.57006 32.424 8.56006 32.344 8.56006C31.394 8.56006 30.524 8.89006 29.834 9.44006C29.814 9.45006 29.804 9.47006 29.784 9.48006C28.904 10.2101 28.334 11.3201 28.334 12.5601C28.334 12.9101 28.384 13.2401 28.464 13.5601C28.524 13.7601 28.614 14.0301 28.714 14.2501L28.704 14.2401Z" fill="#5B6670"/>
<path d="M52.8047 26.4402C53.2147 27.0902 53.1947 27.9002 53.1947 27.9002C53.1947 27.9002 54.0247 28.0402 54.4247 28.4502C54.4247 28.4502 54.4847 28.3902 54.4947 28.3802C55.0447 27.7002 56.0747 26.5802 56.3647 24.9502C56.6047 23.6302 56.4447 21.7702 56.1747 21.1802C56.1647 21.1602 56.1547 21.1302 56.1447 21.1102C56.4047 20.8002 56.8447 20.0902 58.0547 20.0902C58.4947 20.0902 58.8947 20.2102 59.2147 20.3602C59.7447 20.6202 60.0747 20.9502 60.0747 20.9502C60.0747 20.9502 59.0347 22.8102 58.4847 23.7002C58.2047 24.1502 58.0047 24.5102 57.4347 25.7502C56.9647 26.7802 56.8447 27.4702 56.9247 28.2102C56.9947 28.8302 57.3247 30.0202 57.4647 31.2102C57.7347 33.5002 57.2847 34.6202 57.2847 34.6202C57.2847 34.6202 57.2947 34.6202 57.3147 34.6002V34.6302C57.3147 34.6302 60.0247 32.8402 61.7447 28.8302C61.7447 28.8302 61.7347 28.8302 61.7247 28.8302C61.4047 28.7702 61.1547 28.6802 60.9247 28.5702C60.6947 28.4602 60.4947 28.3202 60.2847 28.1502C58.7647 26.9902 59.1047 25.7502 59.6047 25.1702C59.7447 25.0002 59.8947 24.8402 60.0447 24.6802C60.4247 24.2702 60.8347 23.8602 61.2747 23.3602C61.8247 22.7202 62.0247 22.0802 62.0947 21.5202C62.1147 21.3302 62.1447 21.1302 62.1447 20.9302C62.1447 19.2502 61.3247 18.1002 60.2847 17.5302C59.9347 17.3402 59.5647 17.2102 59.1947 17.1402C58.0347 16.9402 56.6047 17.3802 55.5647 18.0902C55.1647 18.3602 54.5147 18.9602 54.3347 19.4102C54.1047 20.5502 54.4447 20.8302 54.7947 22.0102C54.7947 22.0302 54.8147 22.0502 54.8247 22.0802C55.5347 24.6902 55.1747 25.9502 52.8147 26.4502L52.8047 26.4402Z" fill="#5B6670"/>
<path d="M41.1529 24.1101C41.4629 24.7601 42.0229 25.3901 42.0229 25.3901L42.1029 25.4701C42.1029 25.4701 42.4129 25.2001 43.2129 24.8901C43.8829 24.6301 44.7329 24.5401 44.7329 24.5401C44.7329 24.5401 43.8929 23.3801 43.7429 21.6901C43.6529 20.7201 43.6929 20.2101 43.7029 20.2001C43.7029 20.2001 43.6929 20.2001 43.6829 20.2001C43.2529 20.1201 42.8129 20.2001 42.4129 20.4001C42.1329 20.5601 41.8829 20.7301 41.6829 20.9101C41.3229 21.2301 41.0829 21.5901 40.9829 21.9801C40.8329 22.3901 40.7829 22.8501 40.8729 23.3201C40.8729 23.3601 41.0229 23.8501 41.1529 24.1201V24.1101Z" fill="#5B6670"/>
<path d="M44.8635 22.3802C45.2235 23.3902 45.8235 24.2402 46.2935 24.4102C46.3635 24.4402 46.4335 24.4602 46.4935 24.4602C46.9735 24.4002 47.6035 23.4402 47.9135 22.2602C48.2035 21.1502 48.0035 20.2302 47.5235 19.8402C47.4135 19.7602 47.2935 19.6902 47.1635 19.6302C47.1435 19.6302 47.1235 19.6202 47.1035 19.6102C47.3435 19.4002 47.5035 19.0902 47.5035 18.7402C47.5035 18.2002 47.1535 17.7702 46.6635 17.6302V17.1602H47.4635V16.5102H46.6635V15.4902H46.0135V16.5102H45.2135V17.1602H46.0135V17.6302C45.5335 17.7702 45.1835 18.2102 45.1835 18.7402C45.1835 19.0802 45.3335 19.3902 45.5735 19.6002C45.3835 19.6802 45.2035 19.8002 45.0435 19.9402C44.5935 20.3702 44.4835 21.3102 44.8635 22.3902V22.3802Z" fill="#5B6670"/>
<path d="M48.1348 24.4403C48.1348 24.4403 49.5648 24.4503 50.9848 25.0103C51.0148 25.0103 51.0248 25.0303 51.0548 25.0503C51.2448 24.8103 51.5248 24.4203 51.7048 24.0303C51.8348 23.7603 51.9748 23.2703 51.9848 23.2303C52.0748 22.7603 52.0248 22.3103 51.8748 21.8903C51.7848 21.5003 51.5348 21.1403 51.1748 20.8203C50.9648 20.6303 50.7248 20.4603 50.4448 20.3103C50.4448 20.3103 50.4448 20.3103 50.4348 20.3103C50.0248 20.1203 49.5848 20.0303 49.1648 20.1103C49.1648 20.1103 49.2148 20.6203 49.1248 21.6003C48.9648 23.2803 48.1348 24.4503 48.1348 24.4503C48.1348 24.4503 48.1448 24.4503 48.1548 24.4503L48.1348 24.4403Z" fill="#5B6670"/>
<path d="M38.834 15.0403C38.834 15.0403 40.174 15.1503 41.184 15.5103C41.614 15.6603 41.954 15.8103 42.224 15.9503C42.334 16.0103 42.434 16.0603 42.514 16.1003C42.754 16.2403 42.884 16.3303 42.884 16.3303H42.904C42.904 16.3303 43.744 15.3903 44.194 14.4203C44.224 14.3703 44.244 14.3103 44.274 14.2403C44.364 14.0203 44.454 13.7603 44.524 13.5503C44.604 13.2303 44.654 12.9003 44.654 12.5503C44.654 11.3103 44.094 10.2103 43.204 9.47029C43.184 9.46029 43.174 9.44029 43.154 9.43029C42.464 8.88029 41.594 8.55029 40.644 8.55029C40.554 8.55029 40.474 8.55029 40.394 8.56029C40.414 8.60029 40.464 9.35029 40.334 10.7703C40.094 13.2803 38.844 15.0203 38.844 15.0203L38.834 15.0403Z" fill="#5B6670"/>
<path d="M39.723 18.9002C39.723 18.9002 39.883 19.6802 39.973 20.0402H40.073C40.673 19.8002 41.843 19.4502 41.843 19.0602V17.8102C41.843 17.5802 41.613 17.3702 41.213 17.1802C40.383 16.7902 38.843 16.5302 37.083 16.4902H36.063C34.243 16.5102 32.613 16.7802 31.763 17.1802C31.353 17.3702 31.123 17.5802 31.123 17.8102V19.0602C31.123 19.4502 32.303 19.8002 32.903 20.0402H33.003C33.093 19.6902 33.253 18.9002 33.253 18.9002C33.253 18.9002 33.123 18.8502 33.103 18.8002C33.033 18.6402 33.163 18.5502 33.383 18.4302C33.603 18.3102 33.963 18.2402 34.273 18.2302C34.463 18.9202 34.483 20.0002 34.443 20.9202C34.363 22.7802 34.013 25.1102 32.913 26.6902C33.333 27.1002 33.793 27.6202 34.263 28.3002C35.403 26.1102 35.583 23.7202 35.683 21.2602C35.723 20.1702 35.683 18.9002 35.683 18.0402C35.793 18.0402 36.143 18.0002 36.493 18.0002C36.843 18.0002 37.193 18.0402 37.303 18.0402C37.303 18.9102 37.263 20.1802 37.303 21.2602C37.403 23.7702 37.583 26.2002 38.773 28.4202C39.203 27.7902 39.633 27.2802 40.023 26.8702C40.053 26.8302 40.073 26.7902 40.103 26.7502C38.973 25.1602 38.613 22.8002 38.533 20.9102C38.493 19.9902 38.523 18.9102 38.703 18.2202C39.013 18.2302 39.373 18.3002 39.593 18.4202C39.813 18.5402 39.943 18.6302 39.873 18.7902C39.853 18.8402 39.723 18.8902 39.723 18.8902V18.9002Z" fill="#5B6670"/>
<path d="M55.0943 36.4201C55.0943 36.4201 55.0943 36.4201 55.0743 36.4201C55.0543 36.4201 55.0443 36.4201 55.0243 36.4201H54.9943C54.9243 36.4201 54.8643 36.4301 54.8043 36.4401C54.1543 36.4801 53.5143 36.4401 52.9943 36.2301C52.6943 36.1301 52.4443 35.9601 52.1943 35.7901C52.1343 35.7401 51.4743 35.1601 51.3543 35.0401C50.8743 34.5901 49.9643 33.9301 49.0243 33.8401C47.9643 33.7401 47.2943 34.1201 46.5343 34.4201C46.4643 34.4501 46.4043 34.5201 46.4043 34.6001C46.4043 34.6901 46.4543 34.7701 46.5243 34.8001C46.5543 34.8101 46.5743 34.8301 46.6143 34.8301C47.3643 34.8801 48.0843 35.0101 48.7643 35.2101C49.2643 35.3601 49.7643 35.5201 50.1643 35.8101C50.6843 36.1801 51.1343 36.6501 51.4343 36.8401C51.8243 37.0901 52.1643 37.3201 52.6143 37.4101C53.0843 37.4901 53.5643 37.4601 54.0243 37.3401C54.0443 37.3401 54.0643 37.3301 54.0843 37.3201C54.2043 37.2901 54.3243 37.2401 54.4343 37.2001C54.5943 37.1401 54.7443 37.0701 54.8943 36.9801C54.8943 36.9801 54.9043 36.9801 54.9143 36.9701C55.0043 36.9201 55.1043 36.8701 55.1943 36.8101C55.2443 36.7701 55.2843 36.7001 55.2743 36.6301C55.2743 36.5401 55.1943 36.4701 55.1043 36.4501L55.0943 36.4201Z" fill="#5B6670"/>
<path d="M52.1933 29.4298C52.2433 29.5798 52.4033 29.7398 52.5833 29.8398C53.1533 30.1698 53.3533 30.6498 52.5033 30.7498C51.8833 30.8198 51.2433 30.4098 48.9633 31.0398C47.6233 31.4098 46.0533 32.7598 45.5033 33.3798C45.3333 33.5698 45.1633 33.7998 44.9933 34.0298C44.4633 34.7898 44.4733 35.8198 45.0433 36.5498C45.3833 36.9898 45.7633 37.2698 45.8733 37.3398C47.8733 38.6998 49.7533 37.5698 49.9633 37.3698C50.1233 37.2098 50.1333 37.1398 50.1033 37.0998C50.1033 37.0998 50.1033 37.0998 50.0933 37.0998C50.0933 37.0998 49.4533 37.4398 48.5733 37.4398C48.0733 37.4398 47.5533 37.3498 47.1233 37.1598C46.8133 37.0198 46.0833 36.6298 45.6633 35.9498C45.3833 35.5098 45.4433 34.9298 45.7833 34.5298C46.1233 34.1298 46.5233 33.7498 46.9033 33.4698C47.7633 32.8398 48.7533 32.4598 49.8933 32.4398C49.9233 32.4398 49.9433 32.4398 49.9733 32.4398C50.5533 32.4398 51.1033 32.5398 51.6233 32.7098C51.8833 32.7998 52.1333 32.8998 52.3833 33.0298C53.1133 33.4098 53.7533 33.9498 54.2433 34.6098C54.2433 34.6098 54.2433 34.6198 54.2533 34.6298C54.4433 34.3098 54.6533 33.8298 54.8333 33.1698C54.8633 33.0498 54.8933 32.9298 54.9233 32.7998C55.1733 31.6798 55.1033 29.0698 52.6233 29.0698C52.5733 29.0698 52.5333 29.0898 52.4833 29.0998C52.2233 29.1698 52.1533 29.3098 52.2033 29.4598L52.1933 29.4298Z" fill="#5B6670"/>
<path d="M11.4948 23.3599C11.9248 23.8699 12.3448 24.2799 12.7248 24.6799C12.8748 24.8399 13.0248 24.9999 13.1648 25.1699C13.6548 25.7499 14.0048 26.9899 12.4848 28.1499C12.2748 28.3099 12.0748 28.4499 11.8448 28.5699C11.6148 28.6799 11.3648 28.7699 11.0448 28.8299C11.0448 28.8299 11.0348 28.8299 11.0248 28.8299C12.7448 32.8299 15.4548 34.6299 15.4548 34.6299C15.4548 34.6299 15.4548 34.6099 15.4548 34.5999C15.4748 34.6099 15.4848 34.6199 15.4848 34.6199C15.4848 34.6199 15.0348 33.4999 15.3048 31.2099C15.4448 30.0199 15.7748 28.8299 15.8448 28.2099C15.9248 27.4699 15.7948 26.7799 15.3348 25.7499C14.7748 24.5099 14.5648 24.1599 14.2848 23.6999C13.7348 22.8099 12.6948 20.9499 12.6948 20.9499C12.6948 20.9499 13.0248 20.6099 13.5548 20.3599C13.8748 20.2099 14.2748 20.0899 14.7148 20.0899C15.9248 20.0899 16.3648 20.7999 16.6248 21.1099C16.6148 21.1299 16.6048 21.1599 16.5948 21.1799C16.3148 21.7699 16.1648 23.6299 16.4048 24.9499C16.6948 26.5699 17.7248 27.6899 18.2748 28.3799C18.2748 28.3899 18.3448 28.4499 18.3448 28.4499C18.7548 28.0399 19.5748 27.8999 19.5748 27.8999C19.5748 27.8999 19.5548 27.0899 19.9648 26.4399C17.6148 25.9399 17.2448 24.6799 17.9548 22.0699C17.9548 22.0499 17.9748 22.0299 17.9848 21.9999C18.3248 20.8299 18.6648 20.5399 18.4448 19.3999C18.2648 18.9499 17.6048 18.3499 17.2148 18.0799C16.1748 17.3699 14.7448 16.9299 13.5848 17.1299C13.2148 17.1899 12.8448 17.3199 12.4948 17.5199C11.4548 18.0899 10.6348 19.2399 10.6348 20.9199C10.6348 21.1199 10.6648 21.3199 10.6848 21.5099C10.7548 22.0699 10.9548 22.7099 11.5048 23.3499L11.4948 23.3599Z" fill="#5B6670"/>
<path d="M28.0234 24.5301C28.0234 24.5301 28.8734 24.6201 29.5434 24.8801C30.3534 25.1901 30.6534 25.4601 30.6534 25.4601L30.7334 25.3801C30.7334 25.3801 31.2934 24.7501 31.6034 24.1001C31.7334 23.8301 31.8734 23.3401 31.8834 23.3001C31.9734 22.8301 31.9234 22.3801 31.7734 21.9601C31.6834 21.5701 31.4334 21.2101 31.0734 20.8901C30.8634 20.7001 30.6234 20.5301 30.3434 20.3801C29.9334 20.1901 29.4934 20.1001 29.0734 20.1801C29.0734 20.1801 29.0634 20.1801 29.0534 20.1801C29.0534 20.1801 29.1034 20.6901 29.0134 21.6701C28.8534 23.3501 28.0234 24.5201 28.0234 24.5201V24.5301Z" fill="#5B6670"/>
<path d="M26.2635 24.46C26.3235 24.46 26.3935 24.44 26.4635 24.41C26.9235 24.23 27.5235 23.39 27.8935 22.38C28.2835 21.3 28.1635 20.36 27.7135 19.93C27.5535 19.79 27.3735 19.69 27.1735 19.6C27.4135 19.39 27.5835 19.08 27.5835 18.73C27.5835 18.19 27.2335 17.76 26.7435 17.62V17.15H27.5435V16.5H26.7435V15.48H26.0935V16.5H25.2935V17.15H26.0935V17.62C25.6135 17.76 25.2635 18.2 25.2635 18.73C25.2635 19.08 25.4135 19.38 25.6635 19.6C25.6435 19.6 25.6235 19.61 25.6035 19.62C25.4735 19.68 25.3535 19.75 25.2435 19.83C24.7635 20.22 24.5635 21.15 24.8535 22.25C25.1635 23.43 25.7935 24.4 26.2735 24.45L26.2635 24.46Z" fill="#5B6670"/>
<path d="M21.0548 24.02C21.2448 24.41 21.5148 24.8 21.7048 25.04C21.7248 25.03 21.7448 25.01 21.7748 25C23.2048 24.44 24.6248 24.43 24.6248 24.43H24.6448C24.6448 24.43 23.8048 23.27 23.6548 21.58C23.5648 20.61 23.6048 20.1 23.6148 20.09C23.1848 20.02 22.7448 20.1 22.3448 20.29C22.3448 20.29 22.3448 20.29 22.3348 20.29C22.0548 20.45 21.8048 20.62 21.6048 20.8C21.2448 21.12 21.0048 21.48 20.9048 21.87C20.7548 22.28 20.7048 22.74 20.7948 23.21C20.7948 23.25 20.9448 23.74 21.0748 24.01L21.0548 24.02Z" fill="#5B6670"/>
<path d="M26.1441 34.8103C26.1441 34.8103 26.2041 34.8003 26.2341 34.7803C26.3141 34.7503 26.3641 34.6703 26.3541 34.5803C26.3541 34.5003 26.2941 34.4303 26.2241 34.4003C25.4641 34.1003 24.7941 33.7103 23.7341 33.8203C22.7941 33.9103 21.8841 34.5703 21.4041 35.0203C21.2841 35.1303 20.6241 35.7203 20.5641 35.7703C20.3141 35.9503 20.0641 36.1103 19.7641 36.2103C19.2441 36.4103 18.6041 36.4603 17.9541 36.4203C17.8941 36.4203 17.8341 36.4103 17.7641 36.4003H17.7341C17.7341 36.4003 17.6941 36.4003 17.6841 36.4003C17.6841 36.4003 17.6741 36.4003 17.6641 36.4003C17.5741 36.4203 17.5041 36.4903 17.4941 36.5803C17.4941 36.6503 17.5241 36.7203 17.5741 36.7603C17.6641 36.8203 17.7641 36.8703 17.8541 36.9203C17.8541 36.9203 17.8641 36.9203 17.8741 36.9303C18.0141 37.0103 18.1741 37.0903 18.3341 37.1503C18.4541 37.1903 18.5641 37.2403 18.6841 37.2703C18.7041 37.2703 18.7241 37.2803 18.7441 37.2903C19.2041 37.4103 19.6841 37.4403 20.1541 37.3603C20.5941 37.2703 20.9441 37.0303 21.3341 36.7903C21.6341 36.6003 22.0841 36.1303 22.6041 35.7603C23.0041 35.4803 23.4941 35.3203 24.0041 35.1603C24.6841 34.9603 25.3941 34.8303 26.1541 34.7803L26.1441 34.8103Z" fill="#5B6670"/>
<path d="M17.8539 32.76C17.8839 32.89 17.9139 33.01 17.9439 33.13C18.1239 33.8 18.3339 34.28 18.5239 34.59C18.5239 34.59 18.5239 34.58 18.5339 34.57C19.0239 33.91 19.6539 33.37 20.3939 32.99C20.6339 32.87 20.8939 32.76 21.1539 32.67C21.6739 32.5 22.2239 32.4 22.8039 32.4C22.8339 32.4 22.8539 32.4 22.8839 32.4C24.0239 32.42 25.0139 32.8 25.8739 33.43C26.2539 33.71 26.6639 34.09 26.9939 34.49C27.3239 34.89 27.3839 35.46 27.1139 35.91C26.6839 36.59 25.9639 36.98 25.6539 37.12C25.2239 37.31 24.7139 37.4 24.2039 37.4C23.3139 37.4 22.6839 37.06 22.6839 37.06H22.6739C22.6439 37.1 22.6539 37.17 22.8139 37.33C23.0139 37.53 24.8939 38.66 26.9039 37.3C27.0139 37.22 27.3939 36.94 27.7339 36.51C28.3039 35.78 28.3139 34.75 27.7839 33.99C27.6239 33.75 27.4439 33.53 27.2739 33.34C26.7239 32.72 25.1539 31.37 23.8139 31C21.5339 30.37 20.8939 30.78 20.2739 30.71C19.4239 30.61 19.6239 30.13 20.1939 29.8C20.3739 29.7 20.5339 29.54 20.5839 29.39C20.6339 29.24 20.5739 29.1 20.3039 29.03C20.2539 29.02 20.2139 29 20.1639 29C17.6839 29 17.6139 31.6 17.8639 32.73L17.8539 32.76Z" fill="#5B6670"/>
<path d="M47.9844 70.96V70.99C47.9844 70.99 47.9944 70.99 48.0044 70.99C48.0044 70.99 47.9944 70.97 47.9844 70.96Z" fill="#5B6670"/>
<path d="M37.7832 45.71C37.8632 45.87 38.1932 46.14 38.2632 46.64C38.2632 46.69 39.5132 45.32 39.5132 45.32V44L38.1932 44.56L37.7932 45.71H37.7832Z" fill="#5B6670"/>
<path d="M29.693 80.2698C30.293 80.1098 30.843 79.9198 31.423 79.6998C31.713 79.5898 31.993 79.4599 32.283 79.3199C32.573 79.1699 32.853 79.0098 33.133 78.8098C33.403 78.6198 33.663 78.3799 33.873 78.0999C33.983 77.9599 34.073 77.8198 34.153 77.6598C34.193 77.5798 34.233 77.4898 34.263 77.4098L34.313 77.1898C34.353 77.0298 34.253 76.8698 34.103 76.8298C34.043 76.8098 33.983 76.8298 33.933 76.8398C33.883 76.8598 33.833 76.8899 33.793 76.9299C33.613 77.1399 33.413 77.2898 33.203 77.3998C32.993 77.5098 32.773 77.5898 32.533 77.6598C32.053 77.7998 31.513 77.8698 30.973 77.9398C30.433 78.0098 29.853 78.0698 29.323 78.1198C28.783 78.1698 28.243 78.1999 27.693 78.2199L25.983 78.2799C25.383 78.3099 24.773 78.3398 24.053 78.5098C23.783 78.5698 23.493 78.6598 23.193 78.7998C23.093 78.8498 22.993 78.8999 22.893 78.9599C22.503 79.1999 22.113 79.5998 21.923 80.0598C21.723 80.5198 21.703 80.9699 21.773 81.3599C21.863 81.7499 22.023 82.0798 22.303 82.3698C22.413 82.4898 22.583 82.5098 22.723 82.4498C22.773 82.4298 22.893 82.3298 22.893 82.3298C23.383 81.5298 24.443 81.1098 24.653 81.0598C25.503 80.8598 26.723 80.8098 27.903 80.6298C28.503 80.5398 29.103 80.4298 29.703 80.2698H29.693Z" fill="#5B6670"/>
<path d="M24.3248 76.9699C24.3148 77.1299 24.4348 77.2599 24.5948 77.2699C24.6648 77.2699 24.7248 77.2599 24.7748 77.2199L24.8648 77.1599C25.0048 77.0699 25.1348 76.9899 25.2748 76.9299C25.6948 76.7399 26.1248 76.6699 26.5448 76.6599C27.1248 76.6399 27.7048 76.7099 28.3748 76.8299C29.1048 76.9599 29.9148 77.0199 30.7148 76.9599C31.1148 76.9299 31.5248 76.8499 31.9348 76.7399C32.1448 76.6699 32.3548 76.5999 32.5648 76.4899C32.5648 76.4899 32.5648 76.4899 32.5748 76.4899C32.7748 76.3799 33.0448 76.2399 33.1848 75.9299C33.2348 75.8099 33.1848 75.6699 33.0648 75.6199C33.0448 75.6199 33.0248 75.6099 33.0148 75.5999C33.0148 75.5999 32.2048 75.4499 31.8848 75.3499L30.8648 75.0899C30.1648 74.9199 29.4948 74.7699 28.7448 74.6399C27.9448 74.4999 26.9948 74.5099 26.1148 74.8499C26.0048 74.8899 25.8948 74.9399 25.7848 74.9999C25.0348 75.3899 24.3848 76.0899 24.3248 76.9699Z" fill="#5B6670"/>
<path d="M25.4845 74.14C25.4845 74.14 25.9945 73.96 26.2145 73.89C26.2145 73.89 23.4445 72.88 25.0245 71.09V71.02C24.7645 70.99 24.4945 71.01 24.2445 71.11C23.9945 71.21 23.7745 71.37 23.5945 71.6C22.8445 72.54 23.8745 73.55 23.9045 73.57C23.7545 73.56 23.3745 73.5 23.2245 73.49C22.5545 73.03 21.4445 71.9 23.0345 69.51C22.9945 69.51 22.9545 69.51 22.9145 69.51C22.6845 69.5 22.4545 69.54 22.2445 69.64C22.1245 69.68 22.0045 69.73 21.8845 69.79C21.0945 70.17 20.5645 70.92 20.5645 71.78C20.5645 72.13 20.6645 72.46 20.8145 72.76C20.9345 72.98 21.0845 73.17 21.2645 73.34C21.1445 73.33 20.6345 73.3 20.5145 73.26C19.7845 72.42 18.9745 70.84 20.5345 69C20.4945 69 20.4545 69 20.4145 69C20.1845 68.99 19.9545 69.03 19.7445 69.13C19.6045 69.18 19.4745 69.24 19.3545 69.31C18.4945 69.8 18.0645 70.75 18.0645 71.53C18.0645 71.88 18.1945 72.46 18.3145 72.77C19.3345 75.28 24.1745 74.52 25.4845 74.19V74.14Z" fill="#5B6670"/>
<path d="M50.0935 78.9602C49.9935 78.9002 49.8935 78.8402 49.7935 78.8002C49.4935 78.6602 49.2035 78.5802 48.9335 78.5102C48.2235 78.3502 47.6035 78.3202 47.0035 78.2802L45.2935 78.2202C44.7435 78.2002 44.1935 78.1702 43.6635 78.1202C43.1335 78.0702 42.5435 78.0102 42.0135 77.9402C41.4735 77.8702 40.9335 77.8002 40.4535 77.6602C40.2135 77.5902 39.9935 77.5102 39.7835 77.4002C39.5735 77.2902 39.3835 77.1402 39.1935 76.9302C39.1535 76.8902 39.1135 76.8602 39.0535 76.8402C39.0035 76.8202 38.9435 76.8102 38.8835 76.8302C38.7235 76.8702 38.6335 77.0302 38.6735 77.1802L38.7235 77.4002C38.7535 77.4802 38.7935 77.5702 38.8335 77.6502C38.9135 77.8102 39.0035 77.9602 39.1135 78.0902C39.3335 78.3602 39.5835 78.6002 39.8535 78.8002C40.1335 79.0002 40.4135 79.1602 40.7035 79.3102C40.9935 79.4602 41.2735 79.5802 41.5635 79.6902C42.1435 79.9102 42.6935 80.1002 43.2935 80.2602C43.8935 80.4202 44.4935 80.5302 45.0935 80.6202C46.2635 80.7902 47.4835 80.8502 48.3435 81.0502C48.5535 81.1002 49.6035 81.5302 50.1035 82.3202C50.1035 82.3202 50.2235 82.4302 50.2735 82.4402C50.4135 82.5002 50.5835 82.4702 50.6935 82.3602C50.9735 82.0702 51.1335 81.7402 51.2235 81.3502C51.3035 80.9702 51.2735 80.5102 51.0735 80.0502C50.8835 79.5902 50.4935 79.2002 50.1035 78.9502L50.0935 78.9602Z" fill="#5B6670"/>
<path d="M40.3849 76.4802C40.3849 76.4802 40.3849 76.4802 40.3949 76.4802C40.6049 76.5902 40.8149 76.6602 41.0249 76.7302C41.4349 76.8402 41.8449 76.9202 42.2449 76.9502C43.0349 77.0102 43.8549 76.9502 44.5849 76.8202C45.2549 76.7002 45.8449 76.6302 46.4149 76.6502C46.8349 76.6502 47.2549 76.7302 47.6849 76.9202C47.8249 76.9802 47.9549 77.0602 48.0949 77.1502L48.1849 77.2102H48.1949C48.2449 77.2502 48.3049 77.2702 48.3749 77.2702C48.5349 77.2602 48.6549 77.1202 48.6449 76.9702C48.5849 76.0802 47.9349 75.3802 47.1849 75.0002C47.0749 74.9402 46.9649 74.8902 46.8549 74.8502C45.9649 74.5002 45.0149 74.5002 44.2249 74.6402C43.4749 74.7702 42.8049 74.9202 42.1049 75.0902L41.0849 75.3502C40.7549 75.4402 39.9549 75.6002 39.9549 75.6002C39.9349 75.6002 39.9149 75.6002 39.9049 75.6202C39.7849 75.6702 39.7349 75.8102 39.7849 75.9302C39.9249 76.2302 40.1949 76.3702 40.3949 76.4902L40.3849 76.4802Z" fill="#5B6670"/>
<path d="M53.6434 69.2702C53.5234 69.2002 53.3934 69.1402 53.2534 69.0902C53.0434 69.0002 52.8134 68.9502 52.5834 68.9602C52.5434 68.9602 52.5034 68.9602 52.4634 68.9602C54.0234 70.8002 53.2134 72.3802 52.4834 73.2202C52.3634 73.2602 51.8534 73.2902 51.7334 73.3002C51.9134 73.1302 52.0734 72.9402 52.1834 72.7202C52.3434 72.4202 52.4334 72.0902 52.4334 71.7402C52.4334 70.8802 51.8934 70.1302 51.1134 69.7502C51.0034 69.6902 50.8834 69.6402 50.7534 69.6002C50.5434 69.5102 50.3134 69.4602 50.0834 69.4702C50.0434 69.4702 50.0034 69.4702 49.9634 69.4702C51.5634 71.8602 50.4434 73.0002 49.7734 73.4502C49.6234 73.4702 49.2434 73.5202 49.0934 73.5302C49.1234 73.5102 50.1534 72.5002 49.4034 71.5602C49.2234 71.3402 49.0034 71.1702 48.7534 71.0702C48.5034 70.9702 48.2334 70.9402 47.9734 70.9802C47.9734 70.9802 47.9734 70.9902 47.9634 70.9802V71.0502C49.5434 72.8402 46.7734 73.8402 46.7734 73.8502C46.9934 73.9302 47.4634 74.0902 47.5034 74.1002C48.8134 74.4302 53.6534 75.1902 54.6734 72.6802C54.8034 72.3702 54.9234 71.7902 54.9234 71.4402C54.9234 70.6602 54.5034 69.7202 53.6334 69.2202L53.6434 69.2702Z" fill="#5B6670"/>
<path d="M44.6245 53.6603C44.1245 52.7403 43.4245 52.1403 42.5745 52.0103C42.1145 51.9403 41.6545 52.0103 41.1945 52.2103L41.1045 52.2503C40.7645 52.4103 40.4245 52.6303 40.0945 52.9103C38.7645 54.0703 37.6345 56.2203 37.1645 58.7803C36.7145 61.2303 36.9745 63.5003 37.7345 65.0003C38.2445 66.0003 38.9645 66.6603 39.8645 66.8003C40.7445 66.9403 41.6545 66.5403 42.4745 65.7803C43.7445 64.6003 44.8145 62.5103 45.2745 60.0303C45.7345 57.5003 45.4445 55.1603 44.6245 53.6603ZM38.5845 58.0203C39.0945 56.0803 39.8845 55.0303 39.8845 55.0303C40.3345 54.3703 40.8445 53.8803 41.3645 53.6203C41.7845 53.3803 42.3145 53.3603 42.8345 53.5903C43.1045 53.7103 43.3445 53.9003 43.5245 54.1303C43.5545 54.1803 43.5845 54.2203 43.6145 54.2703C43.6545 54.3403 43.6845 54.4003 43.7145 54.4703C43.8945 54.8303 44.0145 55.2103 44.1145 55.6503C44.1245 55.7003 44.1345 55.7603 44.1445 55.8103C44.3345 57.1403 44.3245 57.3403 44.3145 58.7403C44.3145 58.8203 44.2745 59.3503 44.2645 59.4303C44.1945 59.9603 43.9945 61.0503 43.3745 62.5303C43.1945 63.1103 42.7745 63.6303 42.7845 63.6403C42.0645 64.8703 40.9345 65.5903 40.1645 65.5003C39.5845 65.4303 39.2645 65.1103 39.0745 64.8903C38.5345 64.2803 38.4945 63.9503 38.4145 63.6803C38.2345 63.1003 38.2645 62.8103 38.2345 62.5103C38.0945 61.0003 38.2645 59.8903 38.4245 58.8803C38.4445 58.7403 38.5145 58.4003 38.5645 58.1803C38.5645 58.1803 38.5745 58.1103 38.5945 58.0303" fill="#5B6670"/>
<path d="M38.6836 57.9801C38.6936 57.9201 38.7036 57.8701 38.7136 57.8301Z" fill="#5B6670"/>
<path d="M72.7847 46.5101C72.7147 46.2801 72.5647 46.1101 72.3747 46.0101C72.1847 45.9101 71.9547 45.8801 71.7347 45.9401H71.6947C70.7347 46.2401 69.7347 46.5401 68.7447 46.7701C68.2547 46.8901 67.7547 47.0101 67.2647 47.1201C66.7747 47.2201 66.2947 47.3101 65.7647 47.3801C64.7347 47.5201 63.6947 47.6301 62.6547 47.7201C61.9947 47.7801 61.3047 47.8201 60.6447 47.8501C60.7347 47.8301 60.8347 47.8001 60.9347 47.7701C61.2247 47.6901 61.5047 47.6101 61.7847 47.5201C62.3447 47.3401 62.8947 47.1601 63.4347 46.9601C64.5247 46.5601 65.5747 46.1301 66.6247 45.6701C67.6747 45.2201 68.7847 44.7101 69.7547 44.0801C70.7347 43.4301 71.6647 42.7601 72.5247 41.9101C72.7947 41.6501 72.8547 41.2301 72.6647 40.9001C72.5747 40.7501 72.4447 40.6301 72.3047 40.5701C72.0647 40.4501 71.7647 40.4501 71.5147 40.5901L71.4847 40.6101C70.5747 41.1401 69.6147 41.6801 68.6547 42.1401C67.6847 42.6201 66.7647 43.0701 65.7247 43.4201C64.6947 43.7801 63.6447 44.1201 62.6047 44.4101C62.0847 44.5601 61.5547 44.6901 61.0347 44.8101L60.6847 44.8801C60.9447 44.7701 61.2047 44.6501 61.4547 44.5301C62.0247 44.2501 62.5647 43.9601 63.0947 43.6501C64.1547 43.0401 65.1747 42.3801 66.1647 41.7001C67.1847 41.0101 68.1947 40.2701 69.0847 39.4101C69.9647 38.5401 70.7847 37.6501 71.4947 36.6001C71.7047 36.2901 71.6847 35.8601 71.4247 35.5701C71.3447 35.4801 71.2547 35.4201 71.1547 35.3701C70.8547 35.2301 70.4947 35.2701 70.2347 35.5001L70.2047 35.5301C69.3947 36.2701 68.5147 37.0401 67.6147 37.7101C66.7147 38.4001 65.8447 39.0701 64.8647 39.6401C64.6847 39.7501 64.4947 39.8501 64.3047 39.9501C63.4847 40.4101 62.6647 40.8601 61.8347 41.2601C61.6747 41.3401 61.5147 41.4101 61.3547 41.4801C61.0547 41.6201 60.7447 41.7501 60.4447 41.8701C60.5047 41.8301 60.5547 41.8001 60.6147 41.7601C60.9747 41.5101 61.3047 41.2501 61.6347 40.9801C61.8147 40.8301 61.9947 40.6901 62.1747 40.5401C63.1547 39.7101 64.0547 38.8301 64.9347 37.9501C64.9447 37.9401 64.9547 37.9301 64.9647 37.9201C65.8847 36.9801 66.7547 36.0101 67.4847 34.9401C68.2047 33.8601 68.8547 32.7701 69.3647 31.5301C69.5047 31.1801 69.3947 30.7601 69.0747 30.5401C69.0747 30.5401 69.0647 30.5401 69.0547 30.5401C68.6747 30.2801 68.1647 30.3701 67.8947 30.7401L67.8647 30.7701C67.1947 31.7201 66.4647 32.7001 65.6947 33.5901C65.4647 33.8601 65.2347 34.1301 64.9947 34.4001C64.4447 35.0201 63.8847 35.6301 63.2747 36.1701C62.9647 36.4401 62.6547 36.7001 62.3547 36.9601C61.7947 37.4301 61.2247 37.8901 60.6547 38.3201C60.7447 38.2001 60.8347 38.0901 60.9247 37.9701C61.4047 37.3101 61.8447 36.6501 62.2647 35.9801C62.5547 35.5101 62.8447 35.0501 63.1147 34.5701C63.6047 33.7601 64.0447 32.9201 64.4347 32.0601C64.6047 31.6801 64.7747 31.2901 64.9147 30.8901C65.3747 29.6001 65.7447 28.3201 65.9447 26.9301C65.9947 26.5501 65.7747 26.1701 65.4047 26.0301C65.4047 26.0301 65.4047 26.0301 65.3947 26.0301C64.9647 25.8801 64.4847 26.1001 64.3347 26.5301V26.5701C63.9747 27.5601 63.5447 28.5701 63.0947 29.5501C63.0247 29.7101 62.9547 29.8701 62.8847 30.0201C62.3647 31.0801 61.8347 32.1301 61.2047 33.1101C61.1647 33.1701 61.1347 33.2301 61.0947 33.2901C60.6247 33.9801 60.1347 34.6501 59.6247 35.3101C58.0747 37.0401 55.4547 38.7701 54.0447 39.4601C53.3547 39.7901 52.6547 40.2501 51.9447 40.6001C51.9347 40.6001 51.9247 40.6101 51.9147 40.6201C51.4347 40.8501 51.0347 41.2201 50.7847 41.6901C50.7247 41.8101 50.6747 41.9401 50.6347 42.0601C50.5647 42.2901 50.5147 42.5301 50.5147 42.7801C50.5147 43.6901 51.0047 44.5501 51.7447 44.9401C51.9947 45.0701 52.2647 45.1501 52.5547 45.1601C52.6047 45.1601 52.6447 45.1601 52.6847 45.1501C52.9347 45.1201 53.0747 45.0101 53.0747 45.0101C53.0747 45.0101 52.8747 44.4801 53.1847 44.2401C53.2347 44.2101 53.2847 44.1801 53.3447 44.1501C53.4847 44.0901 53.6347 44.0501 53.8047 44.0501C53.9547 44.0501 54.1047 44.0801 54.2347 44.1401C54.6247 44.3101 54.9047 44.7101 54.9047 45.1601C54.9047 45.7301 54.4847 46.1901 53.9347 46.2601C53.6847 46.3601 53.2147 46.3701 52.9047 46.3701C52.2747 46.3701 51.6647 46.3001 51.0647 46.2001C50.2447 46.0501 49.4647 45.7901 48.7347 45.4601C47.8547 45.0501 46.2247 43.8601 46.2547 43.7901C44.5847 42.2401 43.5247 40.1101 43.4347 37.7501C43.4347 37.6401 43.4147 37.5301 43.4147 37.4301C43.4147 37.0901 43.4347 36.7201 43.4747 36.3901C43.5447 35.8101 43.6747 35.2401 43.8547 34.6901C44.1847 33.7001 44.6747 32.7801 45.3047 31.9801C45.3647 31.9001 45.6547 31.5901 46.0247 31.2201C46.0447 31.2001 46.0647 31.1801 46.0947 31.1601C46.0947 31.1601 46.0947 31.1601 46.1047 31.1501C46.5147 30.7501 47.0047 30.3001 47.4247 30.0201C47.3947 30.0001 47.3447 29.9601 47.3047 29.9101C47.2547 29.8601 47.1947 29.8001 47.1647 29.7701C46.3947 29.6901 46.1247 29.3301 45.9947 29.0201C45.9947 29.0201 45.9947 29.0001 45.9847 28.9901C45.9847 28.9701 45.9647 28.9401 45.9547 28.9201C45.9147 28.8001 45.9147 28.4501 45.9347 28.4001C45.9947 28.1201 46.1647 27.8301 46.3047 27.7001C46.3747 27.6201 46.4447 27.5501 46.5247 27.5001C46.7547 27.3201 47.0147 27.2201 47.2947 27.1701C47.3647 27.1601 47.4347 27.1401 47.5047 27.1301C47.5047 27.1301 47.5247 27.1301 47.5347 27.1301C48.2447 27.0501 48.9547 27.3601 49.2347 28.1001L48.7847 28.2101C48.6347 27.9001 48.3947 27.7601 48.1047 27.7901C48.0047 27.7901 47.9047 27.8201 47.8047 27.8601C47.7347 27.8901 47.6847 27.9201 47.6347 27.9601C47.1747 28.3501 47.5747 29.3401 48.2147 29.4101C48.3147 29.4201 48.4147 29.4101 48.5247 29.3701C48.5247 29.3701 48.5247 29.3701 48.5347 29.3701C48.8147 29.2601 50.5847 28.8301 51.6547 28.6701C51.8547 28.6401 52.0447 28.6101 52.1747 28.6001C52.1747 28.6001 52.1747 28.6001 52.1847 28.6001C52.3647 28.3001 52.3747 26.3301 50.8247 25.6901C49.5947 25.1801 48.5347 25.1001 47.5747 25.1001C46.7047 25.1001 45.9047 25.1901 45.0947 25.3701C41.9347 26.0601 40.0147 27.8901 38.2547 31.8501C37.0647 34.1901 36.6347 36.4301 36.4647 37.0501C36.4647 37.0501 36.3947 37.0501 36.2847 37.0501C36.1047 36.3901 35.6847 34.1601 34.5047 31.8501C32.7447 27.8901 30.8147 26.0601 27.6547 25.3701C26.8447 25.1901 26.0347 25.1001 25.1647 25.1001C24.2047 25.1001 23.1347 25.1801 21.9147 25.6901C20.3647 26.3301 20.3747 28.3001 20.5547 28.6001C20.5547 28.6001 20.5547 28.6001 20.5647 28.6001C20.7047 28.6001 20.8847 28.6301 21.0847 28.6701C22.1547 28.8401 23.9247 29.2601 24.2047 29.3701C24.2047 29.3701 24.2047 29.3701 24.2147 29.3701C24.3247 29.4101 24.4247 29.4201 24.5247 29.4101C25.2247 29.3301 25.6447 28.1401 24.9347 27.8601C24.8347 27.8201 24.7347 27.8001 24.6347 27.7901C24.3447 27.7701 24.1047 27.9001 23.9547 28.2101C23.9547 28.2101 23.5147 28.1301 23.4947 28.1001C23.7747 27.3601 24.4847 27.0501 25.1947 27.1301C25.1947 27.1301 25.2147 27.1301 25.2247 27.1301C25.2947 27.1301 25.3647 27.1501 25.4347 27.1701C25.8047 27.2401 26.1547 27.3901 26.4247 27.7101C26.5747 27.8501 26.7447 28.1301 26.7947 28.4101C26.8047 28.4601 26.8147 28.8101 26.7747 28.9301C26.7747 28.9501 26.7547 28.9801 26.7447 29.0001C26.7447 29.0001 26.7447 29.0201 26.7347 29.0301C26.6047 29.3401 26.3347 29.7101 25.5647 29.7801C25.5347 29.8101 25.4847 29.8701 25.4247 29.9201C25.3747 29.9701 25.3347 30.0101 25.3047 30.0301C25.7547 30.3201 26.2847 30.8101 26.7047 31.2301C27.0747 31.6001 27.3647 31.9101 27.4247 31.9901C28.0547 32.7801 28.5547 33.7101 28.8747 34.7001C29.0547 35.2501 29.1847 35.8301 29.2547 36.4101C29.2947 36.7401 29.3147 37.1101 29.3147 37.4501C29.3147 37.5601 29.3047 37.6701 29.2947 37.7801C29.2947 37.9801 29.2747 38.1701 29.2547 38.3701C29.0447 39.3601 28.6047 40.9601 27.7847 42.3201C27.7447 42.3801 27.7047 42.4401 27.6547 42.5001H27.6647C27.3547 42.9901 26.9947 43.4401 26.5647 43.8101C26.5847 43.8801 24.9647 45.0701 24.0847 45.4801C23.3547 45.8101 22.5747 46.0701 21.7547 46.2201C21.1647 46.3301 20.5447 46.3901 19.9147 46.3901C19.6147 46.3901 19.1347 46.3701 18.8847 46.2801C18.3347 46.2101 17.9147 45.7401 17.9147 45.1801C17.9147 44.7201 18.1947 44.3301 18.5847 44.1601C18.7147 44.1001 18.8647 44.0701 19.0147 44.0701C19.1747 44.0701 19.3347 44.1101 19.4747 44.1701C19.5347 44.1901 19.5847 44.2201 19.6347 44.2601C19.9347 44.5001 19.7447 45.0301 19.7447 45.0301C19.7447 45.0301 19.8847 45.1401 20.1347 45.1701C20.1747 45.1701 20.2147 45.1801 20.2647 45.1801C20.5547 45.1801 20.8347 45.0901 21.0747 44.9601C21.8147 44.5701 22.3047 43.7001 22.3047 42.8001C22.3047 42.5501 22.2547 42.3101 22.1847 42.0801C22.1447 41.9501 22.0947 41.8201 22.0347 41.7101C21.7947 41.2401 21.3847 40.8701 20.9047 40.6401C20.8947 40.6401 20.8847 40.6301 20.8747 40.6201C20.1647 40.2701 19.4647 39.8201 18.7747 39.4801C17.3547 38.7901 14.7447 37.0601 13.1947 35.3301C12.6947 34.6801 12.1947 34.0001 11.7247 33.3101C11.6847 33.2501 11.6547 33.1901 11.6147 33.1301C10.9847 32.1501 10.4447 31.1001 9.9347 30.0401C9.8647 29.8901 9.7947 29.7201 9.7247 29.5701C9.2647 28.5901 8.8447 27.5701 8.4947 26.5901V26.5501C8.3247 26.1201 7.8547 25.8901 7.4247 26.0501C7.4247 26.0501 7.4247 26.0501 7.4147 26.0501C7.0347 26.1801 6.8147 26.5601 6.8747 26.9501C7.0747 28.3401 7.4447 29.6201 7.9047 30.9101C8.0447 31.3101 8.2147 31.6901 8.3847 32.0801C8.7647 32.9401 9.2147 33.7701 9.7047 34.5901C9.9847 35.0601 10.2647 35.5301 10.5547 36.0001C10.9747 36.6701 11.4147 37.3401 11.8947 37.9901C11.9847 38.1101 12.0747 38.2201 12.1647 38.3401C11.5847 37.9101 11.0247 37.4501 10.4647 36.9801C10.1547 36.7201 9.8447 36.4601 9.5447 36.1901C8.9347 35.6501 8.3747 35.0501 7.8247 34.4201C7.5947 34.1501 7.3547 33.8801 7.1247 33.6101C6.3547 32.7201 5.6147 31.7401 4.9547 30.7901L4.9247 30.7601C4.6647 30.3801 4.1447 30.3001 3.7647 30.5601C3.7647 30.5601 3.7547 30.5601 3.7447 30.5601C3.4247 30.7901 3.3147 31.2001 3.4547 31.5501C3.9647 32.7901 4.6047 33.8801 5.3347 34.9601C6.0647 36.0301 6.9347 37.0001 7.8547 37.9401C7.8647 37.9501 7.8747 37.9601 7.8847 37.9701C8.7547 38.8601 9.6647 39.7301 10.6447 40.5601C10.8247 40.7101 11.0047 40.8601 11.1847 41.0001C11.5147 41.2701 11.8447 41.5301 12.2047 41.7801C12.2547 41.8201 12.3147 41.8501 12.3747 41.8901C12.0747 41.7701 11.7647 41.6301 11.4647 41.5001C11.3047 41.4301 11.1447 41.3501 10.9847 41.2801C10.1547 40.8801 9.3247 40.4301 8.5147 39.9701C8.3347 39.8701 8.1447 39.7701 7.9547 39.6601C6.9747 39.1001 6.0947 38.4201 5.2047 37.7301C4.3147 37.0501 3.4347 36.2901 2.6147 35.5501L2.5847 35.5201C2.3247 35.2901 1.9647 35.2501 1.6647 35.3901C1.5647 35.4401 1.4647 35.5001 1.3947 35.5901C1.1347 35.8801 1.1147 36.3001 1.3247 36.6201C2.0347 37.6701 2.8547 38.5601 3.7347 39.4301C4.6147 40.2801 5.6347 41.0301 6.6547 41.7201C7.6447 42.4001 8.6647 43.0601 9.7247 43.6701C10.2547 43.9801 10.8047 44.2701 11.3647 44.5501C11.6147 44.6701 11.8747 44.7901 12.1347 44.9001L11.7847 44.8301C11.2647 44.7101 10.7447 44.5801 10.2147 44.4301C9.1747 44.1401 8.1247 43.8001 7.0947 43.4401C6.0547 43.0901 5.1347 42.6301 4.1647 42.1601C3.2047 41.7001 2.2447 41.1601 1.3347 40.6301L1.3047 40.6101C1.0547 40.4601 0.754702 40.4701 0.514702 40.5901C0.364702 40.6601 0.234701 40.7701 0.154701 40.9201C-0.0352986 41.2601 0.0247013 41.6701 0.294701 41.9301C1.1547 42.7701 2.0847 43.4501 3.0647 44.1001C4.0447 44.7301 5.1447 45.2401 6.1947 45.6901C7.2447 46.1501 8.3047 46.5801 9.3847 46.9801C9.9247 47.1801 10.4747 47.3701 11.0347 47.5401C11.3147 47.6301 11.5947 47.7101 11.8847 47.7901C11.9847 47.8201 12.0747 47.8401 12.1747 47.8701C11.5147 47.8401 10.8347 47.7901 10.1647 47.7401C9.1347 47.6501 8.0947 47.5301 7.0547 47.4001C6.5247 47.3301 6.0447 47.2501 5.5547 47.1401C5.0647 47.0301 4.5747 46.9101 4.0747 46.7901C3.0847 46.5601 2.0847 46.2601 1.1247 45.9801H1.0847C0.864701 45.9001 0.634701 45.9301 0.444701 46.0401C0.254701 46.1401 0.0947013 46.3101 0.0347013 46.5401C-0.0752987 46.9101 0.0847014 47.2901 0.394701 47.4901C1.3647 48.0901 2.3547 48.5301 3.3947 48.9301C4.4247 49.3201 5.5647 49.5701 6.6147 49.7901C7.6747 50.0201 8.7347 50.2301 9.8047 50.4101C10.7647 50.5701 11.7047 50.7101 12.7147 50.8101C12.1047 50.8801 11.4847 50.9501 10.8747 51.0101C9.8847 51.1101 8.8947 51.1901 7.9047 51.2501C7.6547 51.2701 7.4147 51.2801 7.1547 51.2901H6.4447L5.0047 51.2701C4.0447 51.2601 3.0447 51.1901 2.0947 51.1401H2.0647C1.8947 51.1301 1.7247 51.1701 1.5947 51.2601C1.3547 51.4001 1.1947 51.6401 1.1747 51.9401C1.1547 52.3201 1.3947 52.6501 1.7347 52.7701C2.7547 53.1201 3.7547 53.3301 4.7947 53.5001C5.3147 53.5801 5.8447 53.6201 6.3747 53.6501C6.6447 53.6601 6.9047 53.6701 7.1747 53.6701H7.9347C8.9547 53.7001 9.9747 53.7101 11.0047 53.6901C11.7147 53.6901 11.8647 53.6901 12.5747 53.6601L12.6647 53.9701C11.4947 54.3401 10.6947 54.5801 9.5147 54.9101C8.5947 55.1701 7.7247 55.3401 6.8247 55.5301C5.9247 55.7301 4.9947 55.8901 4.0947 56.0801H4.0647C4.0047 56.1001 3.9447 56.1201 3.8947 56.1401C3.5347 56.2901 3.3247 56.6801 3.4047 57.0801C3.4847 57.4501 3.7947 57.7101 4.1447 57.7401C5.1447 57.8301 6.1147 57.8001 7.1147 57.7401C8.1047 57.6701 9.0947 57.4501 10.0347 57.2801C10.9847 57.1001 12.3747 56.7701 13.3147 56.5801L13.3847 56.8201C12.9947 57.0401 12.1447 57.4901 11.7547 57.7101C11.3647 57.9301 10.9747 58.1201 10.5847 58.3101C10.1947 58.5001 9.8147 58.6801 9.4247 58.8801C9.4247 58.8801 9.4247 58.8801 9.4147 58.8801C8.6347 59.2801 7.8247 59.6701 7.0447 60.0901H7.0347C6.6247 60.3201 6.4747 60.8201 6.6947 61.2301C6.8747 61.5601 7.2347 61.7201 7.5847 61.6501C8.5047 61.4701 9.3847 61.2101 10.2647 60.9301C11.1447 60.6401 11.9947 60.2301 12.8347 59.8601C13.0547 59.7601 13.9347 59.3901 14.1547 59.2901L14.3047 59.9901C14.1647 60.0901 13.6747 60.4301 13.6747 60.4301L12.7047 61.2701C12.0647 61.8401 11.4747 62.4601 10.9147 63.1201C10.6147 63.4701 10.6547 64.0101 11.0047 64.3101C11.2747 64.5401 11.6447 64.5701 11.9447 64.4101C11.9447 64.4101 11.9447 64.4101 11.9547 64.4101C12.7247 64.0101 13.4647 63.5601 14.1547 63.0601L14.8847 62.6301C14.8847 62.6301 15.2847 65.0601 15.3947 66.0601C15.7247 69.1801 15.6347 72.7601 15.9647 73.1801C16.2447 73.5301 16.8047 73.4501 17.3047 73.4701C17.2747 73.3501 17.2547 73.2401 17.2247 73.1201C17.2247 73.1101 17.2247 73.1001 17.2247 73.0801C16.8647 71.4101 17.3647 70.1801 17.6647 69.6701C17.6647 69.6701 17.6647 69.6501 17.6647 69.6401C17.6647 69.6301 17.7047 69.5301 17.6947 69.5101C17.5847 67.5301 17.3247 64.3301 16.8747 61.8501C16.1647 57.8901 14.9647 51.5501 14.6247 49.7501C14.6047 49.6401 14.6447 49.5501 14.7047 49.4801C14.7747 49.4101 14.8847 49.3801 14.9947 49.4101C16.2047 49.7201 18.2047 49.9001 19.4947 49.9801C20.4547 50.0401 22.7547 50.0401 25.1147 49.3101C24.1147 51.6801 23.5447 54.3901 23.5447 57.2801C23.5447 62.9301 25.7447 67.9401 29.0847 70.9401C28.6847 71.0001 28.3947 71.0601 28.3147 71.0901C27.4547 71.3901 26.7747 71.8301 26.4047 72.0501C26.4047 72.0501 26.3847 72.0601 26.3847 72.0701C26.3647 72.0801 26.3347 72.0901 26.3147 72.1001C26.1847 72.1701 26.1747 72.3201 26.2047 72.4701C26.2947 72.8801 26.5247 73.3901 26.7447 73.6901C26.7947 73.7601 26.8447 73.8201 26.9247 73.8301C30.0547 73.9901 32.3547 74.2201 34.1947 75.3901C34.1947 75.3901 34.2147 75.4001 34.2147 75.4101C34.2647 75.4401 34.3147 75.4801 34.3647 75.5101C35.2347 76.2001 35.5847 77.6101 34.8747 78.6201C34.6347 78.8701 34.3747 79.1101 34.1247 79.3501C33.2647 80.0901 32.3347 80.7201 31.3647 81.1901C30.3847 81.6701 29.3647 81.9601 28.3347 82.1101C27.2947 82.3001 26.2547 82.4401 24.8947 82.7601C24.8947 82.7601 24.8147 82.7901 24.7747 82.8201C24.6647 82.8901 24.6047 83.0301 24.6347 83.1701C24.6447 83.2301 24.6747 83.2801 24.7147 83.3201C25.7147 84.4001 27.1847 84.8201 28.6047 84.7401C29.6847 84.6601 30.7247 84.3501 31.6747 83.8901C31.9947 83.7401 32.3047 83.5701 32.6047 83.3901C33.7847 82.6601 34.8047 81.7001 35.5747 80.5801C35.5947 80.5601 35.6047 80.5301 35.6247 80.5101C35.6247 80.5201 35.6247 80.5301 35.6247 80.5501C35.4547 81.1601 34.8747 82.7501 34.4047 83.2801C33.9347 83.8201 33.5047 84.3301 33.0147 84.7401C32.6447 85.0401 32.2547 85.3001 31.8247 85.5201C31.6847 85.5901 31.5347 85.6601 31.3847 85.7201C30.7647 85.9801 30.0447 86.1501 29.2047 86.3301C29.2047 86.3301 29.1247 86.3601 29.0947 86.3801C28.9847 86.4501 28.9247 86.5801 28.9547 86.7101C28.9747 86.7901 29.0147 86.8601 29.0747 86.9001C29.8247 87.4301 30.7647 87.6801 31.7447 87.6201C32.2447 87.5901 32.7347 87.4701 33.2047 87.2801C33.6647 87.0901 34.1047 86.8301 34.4847 86.5101C34.6147 86.4001 34.7147 86.2901 34.8347 86.1701C35.0547 86.6001 35.2747 87.0301 35.4447 87.4601C35.6647 87.9701 35.8347 88.4801 36.1147 89.0001C36.1747 89.1101 36.3147 89.1701 36.3747 89.1601C36.3747 89.1601 36.5947 89.1201 36.6547 89.0001C36.9347 88.4901 37.1347 87.9801 37.3547 87.4601C37.5247 87.0301 37.7447 86.6001 37.9647 86.1701C38.0747 86.2901 38.1847 86.4001 38.3147 86.5101C38.6947 86.8301 39.1347 87.0901 39.5947 87.2801C40.0647 87.4701 40.5547 87.5901 41.0547 87.6201C42.0347 87.6801 42.9847 87.4301 43.7247 86.9001C43.7847 86.8601 43.8247 86.7901 43.8447 86.7101C43.8747 86.5801 43.8147 86.4501 43.7047 86.3801C43.6747 86.3601 43.6347 86.3401 43.5947 86.3301C42.7547 86.1501 42.0347 85.9801 41.4147 85.7201C41.2647 85.6601 41.1147 85.5901 40.9747 85.5201C40.5447 85.3001 40.1547 85.0501 39.7847 84.7401C39.2947 84.3301 38.8647 83.8201 38.3947 83.2801C37.9347 82.7501 37.3547 81.1501 37.1747 80.5501C37.1747 80.5401 37.1747 80.5301 37.1747 80.5101C37.1947 80.5301 37.2047 80.5601 37.2247 80.5801C37.9947 81.7001 39.0147 82.6601 40.1947 83.3901C40.4947 83.5701 40.8047 83.7401 41.1247 83.8901C42.0747 84.3501 43.1247 84.6601 44.1947 84.7401C45.6147 84.8201 47.0947 84.3901 48.0847 83.3201C48.1247 83.2801 48.1547 83.2301 48.1647 83.1701C48.1947 83.0301 48.1347 82.9001 48.0247 82.8201C47.9947 82.7901 47.9547 82.7801 47.9047 82.7601C46.5447 82.4401 45.5047 82.3001 44.4647 82.1101C43.4347 81.9601 42.4047 81.6601 41.4347 81.1901C40.4547 80.7201 39.5247 80.0901 38.6747 79.3501C38.4247 79.1201 38.1647 78.8801 37.9247 78.6201C37.2147 77.6101 37.5647 76.1901 38.4347 75.5101C38.4847 75.4801 38.5347 75.4401 38.5847 75.4101C38.5847 75.4101 38.6047 75.4001 38.6047 75.3901C40.4447 74.2201 42.7447 73.9801 45.8747 73.8301C45.9547 73.8301 46.0047 73.7601 46.0547 73.6901C46.2747 73.3901 46.5047 72.8801 46.5947 72.4701C46.6247 72.3201 46.6147 72.1801 46.4847 72.1001C46.4647 72.0901 46.4347 72.0801 46.4047 72.0701C46.4047 72.0701 46.3847 72.0501 46.3747 72.0501C45.9947 71.8301 45.3147 71.4001 44.4547 71.0901C44.3747 71.0601 44.0947 71.0101 43.7147 70.9501C47.0647 67.9501 49.2647 62.9501 49.2647 57.2901C49.2647 54.4101 48.6847 51.7001 47.6847 49.3301C50.0447 50.0501 52.3247 50.0501 53.2747 49.9901C54.5647 49.9101 56.5547 49.7301 57.7747 49.4201C57.8847 49.3901 57.9947 49.4201 58.0647 49.4901C58.1347 49.5601 58.1647 49.6501 58.1447 49.7601C57.8047 51.5601 56.6047 57.9001 55.8947 61.8601C55.4447 64.3401 55.1847 67.5401 55.0747 69.5201C55.0747 69.5401 55.1047 69.6401 55.1047 69.6501C55.1047 69.6501 55.1047 69.6701 55.1047 69.6801C55.4147 70.1801 55.9047 71.4201 55.5447 73.0901C55.5447 73.1001 55.5447 73.1101 55.5447 73.1301C55.5147 73.2501 55.5047 73.3601 55.4647 73.4801C55.9647 73.4601 56.5247 73.5401 56.8047 73.1901C57.1447 72.7701 57.0447 69.1801 57.3747 66.0701C57.4847 65.0701 57.8847 62.6601 57.8847 62.6401L58.6147 63.0701C59.3047 63.5701 60.0447 64.0201 60.8147 64.4201C60.8147 64.4201 60.8147 64.4201 60.8247 64.4201C61.1247 64.5701 61.4947 64.5501 61.7647 64.3201C62.1147 64.0201 62.1647 63.4901 61.8547 63.1301C61.2947 62.4701 60.6947 61.8501 60.0647 61.2801L59.0947 60.4401C59.0947 60.4401 58.6047 60.1001 58.4647 60.0001L58.6147 59.3001C58.8347 59.4001 59.7147 59.7701 59.9347 59.8701C60.7747 60.2301 61.6247 60.6401 62.5047 60.9401C63.3847 61.2201 64.2647 61.4801 65.1847 61.6601C65.5347 61.7301 65.9047 61.5701 66.0747 61.2401C66.2947 60.8301 66.1447 60.3301 65.7347 60.1101H65.7247C64.9447 59.6801 64.1347 59.2901 63.3547 58.8901C63.3547 58.8901 63.3547 58.8901 63.3447 58.8901C62.9547 58.6901 62.5647 58.5101 62.1847 58.3201C61.7947 58.1301 61.4047 57.9301 61.0147 57.7201C60.6247 57.5001 59.7747 57.0501 59.3847 56.8301L59.4547 56.5901C60.3947 56.7901 61.7847 57.1201 62.7347 57.2901C63.6747 57.4701 64.6747 57.6901 65.6547 57.7501C66.6447 57.8101 67.6147 57.8401 68.6247 57.7501C68.9847 57.7201 69.2947 57.4601 69.3647 57.0901C69.4447 56.6901 69.2347 56.3101 68.8747 56.1501C68.8247 56.1301 68.7647 56.1101 68.7047 56.0901H68.6747C67.7747 55.9001 66.8447 55.7401 65.9447 55.5401C65.0447 55.3501 64.1747 55.1801 63.2547 54.9201C62.0747 54.5901 61.2747 54.3501 60.1047 53.9801L60.1947 53.6701C60.9047 53.7001 61.0547 53.7001 61.7647 53.7001C62.7847 53.7101 63.8047 53.7001 64.8347 53.6901H65.5947C65.8647 53.6801 66.1247 53.6701 66.3947 53.6601C66.9247 53.6401 67.4547 53.5901 67.9747 53.5101C69.0147 53.3401 70.0247 53.1301 71.0347 52.7801C71.3747 52.6601 71.6147 52.3301 71.5947 51.9501C71.5747 51.6601 71.4147 51.4101 71.1747 51.2701C71.0347 51.1901 70.8747 51.1401 70.7047 51.1501H70.6747C69.7147 51.2001 68.7247 51.2701 67.7647 51.2801L66.3247 51.3101H65.6147C65.3647 51.2901 65.1147 51.2801 64.8647 51.2601C63.8747 51.2001 62.8847 51.1101 61.8947 51.0201C61.2847 50.9601 60.6647 50.8901 60.0547 50.8201C61.0647 50.7201 62.0047 50.5801 62.9647 50.4201C64.0347 50.2401 65.0947 50.0301 66.1547 49.8001C67.2047 49.5801 68.3447 49.3301 69.3747 48.9401C70.4147 48.5401 71.4047 48.1001 72.3747 47.5001C72.6847 47.3101 72.8447 46.9201 72.7347 46.5501L72.7847 46.5101ZM36.4547 72.0101C36.4547 72.0101 36.4247 72.0101 36.4147 72.0101C32.6947 71.9901 29.4047 69.4901 27.4247 65.6901C28.3547 64.1301 30.2647 60.7201 30.2647 60.7201C30.4447 61.4201 31.5147 66.0401 31.5147 66.0401C31.5147 66.0401 30.1647 66.6201 30.8447 67.0401C31.5247 67.4601 32.9747 67.1501 32.9747 67.1501C32.9747 67.1501 33.3447 67.4801 33.7447 67.7601C34.2147 68.1201 34.7547 68.3801 35.3347 68.5301C35.5547 68.6101 35.7047 68.6701 35.7047 68.6701C35.7047 68.6701 35.5647 69.3101 35.7747 69.6401C35.8547 69.7701 35.9347 69.8801 36.1947 69.8801C36.2647 69.8801 36.3447 69.8601 36.4247 69.8301C36.6447 69.7501 36.8647 69.5701 36.9847 69.4401C37.2947 69.1201 37.4047 68.8901 37.6447 68.5801C37.6447 68.5701 37.6447 68.5401 37.6647 68.5201C38.2147 68.3701 38.8047 68.1701 39.3547 67.4801C38.0047 66.9501 36.8547 65.7201 36.4147 63.6801C36.2547 62.9401 36.1647 62.1301 36.1547 61.2701C36.1547 60.3801 36.2147 59.4401 36.3947 58.4801C36.3947 58.4501 36.4047 58.4101 36.4147 58.3801C37.0447 55.0401 39.1247 52.4901 39.7247 52.2701C39.5347 51.8401 39.6147 50.7501 38.1647 50.1501C37.8547 50.0201 36.8747 49.9601 36.7847 49.5201C37.2447 49.2101 37.5947 48.6201 37.6747 47.9201C37.7947 46.9801 37.3947 46.1301 36.7547 45.8301C36.9047 45.4801 37.2847 45.0101 37.2847 45.0101L36.5547 44.2301L36.4047 44.3101L35.6147 44.7301C35.6147 44.7301 35.8547 45.4101 35.8547 45.7801C35.2247 45.9901 34.7647 46.4801 34.6547 47.3601C34.6047 47.7901 34.8347 48.4501 35.3247 48.9401C35.5847 49.2001 35.6447 49.4301 35.4747 49.5901C35.1147 49.9501 34.3747 49.8601 33.9947 50.4101C33.7547 50.7601 33.4647 51.5701 33.4647 51.5701C33.2847 51.9301 32.2347 54.4601 31.7147 55.3501C31.5847 55.5701 31.0647 56.4001 31.0647 56.4001C31.0647 56.4001 30.8347 56.5601 30.5847 56.7601C30.3747 56.9301 30.1547 57.1301 30.0147 57.3001C29.6147 57.8101 29.7747 58.7201 30.0147 59.1101L26.9547 64.7101C26.8347 64.4601 26.7747 64.3101 26.7747 64.3101C25.9147 62.2101 25.4247 59.8001 25.4247 57.2301C25.4247 49.3901 30.0147 42.9601 35.7947 42.5001H37.1347C37.7747 42.5501 38.3947 42.6801 38.9947 42.8701C39.3147 42.9701 39.6247 43.0901 39.9247 43.2201C44.3147 45.1701 47.4847 50.7101 47.4847 57.2301C47.4847 65.3701 42.5347 71.9901 36.4547 71.9901V72.0101ZM35.3147 56.0201C35.3147 56.0201 33.1647 56.8301 32.1447 57.2501L34.2347 53.6201C34.2347 53.6201 34.3347 54.1301 35.1847 54.4901C35.1547 54.6201 35.3147 56.0201 35.3147 56.0201Z" fill="#5B6670"/>
<path d="M33.2933 4.44C33.2933 4.44 33.3733 4.42 33.4033 4.42C33.5533 4.68 33.8233 4.86 34.1433 4.86C34.4633 4.86 34.7333 4.69 34.8833 4.42H36.0433V5.18C35.2933 5.36 34.7433 6.04 34.7433 6.83C34.7433 7.26 34.9133 7.65 35.1733 7.94C34.8933 8.04 34.6433 8.19 34.4233 8.39C33.7533 9.04 33.5833 10.4 34.1633 12.01C34.5633 13.12 35.1533 14.04 35.7133 14.58C35.9733 14.85 36.2233 14.98 36.4533 14.98H36.5133C36.7433 14.98 37.0033 14.86 37.2533 14.58C37.8133 14.04 38.4033 13.12 38.8033 12.01C39.3833 10.4 39.2133 9.04 38.5433 8.39C38.3133 8.19 38.0533 8.03 37.7633 7.93C38.0133 7.63 38.1733 7.24 38.1733 6.83C38.1733 6.03 37.6233 5.35 36.8733 5.18V4.42H38.0433C38.1833 4.68 38.4633 4.86 38.7833 4.86H38.7933C39.1233 4.86 39.4033 4.68 39.5433 4.4C39.5733 4.41 39.6033 4.42 39.6433 4.42C39.8633 4.42 40.0533 4.24 40.0533 4.01C40.0533 3.78 39.8733 3.6 39.6433 3.6C39.6133 3.6 39.5833 3.61 39.5533 3.62C39.4033 3.35 39.1233 3.15 38.7933 3.15H38.7833C38.4633 3.15 38.1833 3.32 38.0433 3.59H36.8733V2.05C37.1433 1.9 37.3133 1.63 37.3133 1.3C37.3133 0.97 37.1233 0.68 36.8433 0.54C36.8633 0.5 36.8633 0.46 36.8633 0.41C36.8633 0.19 36.6833 0 36.4533 0C36.2233 0 36.0433 0.19 36.0433 0.41C36.0433 0.46 36.0533 0.5 36.0733 0.54C35.7833 0.68 35.5933 0.96 35.5933 1.3C35.5933 1.64 35.7633 1.89 36.0333 2.05V3.59H34.8733C34.7233 3.33 34.4533 3.15 34.1333 3.15C33.7933 3.15 33.4933 3.35 33.3633 3.64C33.3333 3.64 33.3033 3.63 33.2733 3.63C33.0533 3.63 32.8633 3.8 32.8633 4.04C32.8633 4.28 33.0533 4.45 33.2733 4.45L33.2933 4.44Z" fill="#5B6670"/>
<path d="M44.1533 58.39C43.9733 58.22 43.7633 58.15 43.5933 58.15C43.6933 57.93 43.7633 57.63 43.6933 57.42C43.6733 57.36 43.6433 57.3 43.5933 57.25C43.3433 56.94 43.1433 56.86 43.0433 56.84C42.9733 56.83 42.6433 56.79 42.4833 57.01L42.4533 56.73C42.3233 56.84 42.1933 57.2 42.1633 57.29C42.0933 57.5 41.9533 58.03 41.9533 58.03C42.3633 57.39 42.5733 57.31 42.9233 57.22C42.6233 57.43 42.3733 57.92 42.2333 58.36L43.0433 57.82L42.8633 57.69C42.9633 57.53 43.0633 57.46 43.2333 57.56C43.2933 57.6 43.3333 57.66 43.3433 57.75C43.3433 57.82 43.3433 58 43.1933 58.21L41.7333 59.47C41.6233 59.56 41.5833 59.66 41.5933 59.95C41.5933 60.05 41.7033 60.16 41.8833 59.99L43.4433 58.6C43.5233 58.54 43.6333 58.6 43.6633 58.64C43.7533 58.77 43.7033 59.05 43.4633 59.39L43.3333 59.09C43.2033 59.27 42.9533 59.71 42.7533 59.94C42.7533 59.94 43.1633 59.97 43.4833 59.73C43.5733 59.66 43.6433 59.6 43.7133 59.53C43.4533 60.2 42.8633 60.66 42.8533 60.67C42.8533 60.67 43.2533 60.63 43.4733 60.52C43.6933 60.4 43.9133 60.26 44.0933 60.06L43.7933 59.96C43.9433 59.76 44.1733 59.51 44.2733 59.09C44.3433 58.77 44.3033 58.52 44.1433 58.37L44.1533 58.39Z" fill="#5B6670"/>
<path d="M40.834 58.4701L41.034 57.4901L40.774 57.7001C40.774 57.7001 40.574 57.4301 40.514 57.3601C40.264 57.0801 40.004 56.9601 39.754 57.0101C39.464 57.0701 39.394 57.2701 39.044 57.1701C39.064 57.4401 38.784 57.5501 38.634 57.7601C38.484 57.9701 38.484 58.2501 38.634 58.6001C38.674 58.6801 38.854 58.9801 38.854 58.9801L38.524 59.0801L39.574 59.3901C39.574 59.2801 39.454 58.5701 39.454 58.5701L39.214 58.7501C39.114 58.6301 39.074 58.5501 39.014 58.4401C38.914 58.2701 38.854 58.1401 38.904 58.0201C38.944 57.9201 39.114 57.9101 39.204 57.9001L40.384 59.7601C40.444 59.8701 40.554 59.8801 40.594 59.8001C40.704 59.5801 40.714 59.3301 40.654 59.2701L39.604 57.6601C39.644 57.5801 39.764 57.4801 39.854 57.4601C40.004 57.4301 40.064 57.4801 40.214 57.6001C40.314 57.6801 40.404 57.8301 40.444 57.8901L40.164 58.0001C40.374 58.1401 40.724 58.3901 40.844 58.4801L40.834 58.4701Z" fill="#5B6670"/>
<path d="M41.0348 55.1301C41.1948 55.3601 41.4748 55.6501 41.5948 55.7701C41.5948 55.7701 41.4148 56.0001 41.3848 56.0401C41.2748 56.2301 41.7548 56.3001 41.7948 56.3101C41.8548 56.3101 42.3048 56.4201 42.2648 56.2001C42.2648 56.1501 42.1248 55.8901 42.1248 55.8901C42.2848 55.8201 42.6748 55.6401 42.9048 55.4701C42.9348 55.4501 43.0048 55.4001 43.0348 55.3601C43.4748 54.8201 43.3248 54.4701 43.3248 54.4701L42.5048 54.9801C42.4348 55.0301 42.3848 54.9801 42.3848 54.9801C42.4548 54.9401 42.5548 54.6901 42.5748 54.6301C42.6048 54.5301 42.5748 54.4601 42.4548 54.4301C42.3448 54.4101 42.2948 54.4501 42.2948 54.4501C42.3248 54.4101 42.3148 54.4101 42.3248 54.3901C42.3248 54.3901 42.3248 54.3701 42.3348 54.3701C42.3348 54.3601 42.3348 54.3401 42.3448 54.3201C42.3448 54.3201 42.3448 54.3101 42.3448 54.3001C42.3448 54.1801 42.2548 54.0901 42.1348 54.0901C42.0448 54.0901 41.9648 54.1501 41.9348 54.2301C41.9348 54.2301 41.9348 54.2301 41.9348 54.2501C41.9348 54.2901 41.9248 54.2701 41.9348 54.3901C41.9348 54.3901 41.8948 54.3401 41.7848 54.3201C41.6648 54.3001 41.6348 54.3501 41.6248 54.4601C41.6248 54.5301 41.6048 54.7301 41.6648 54.8601C41.6648 54.8601 41.6048 54.8901 41.5548 54.8201L40.9648 54.0601C40.9648 54.0601 40.7048 54.3301 40.9348 54.9901C40.9448 55.0301 40.9948 55.1001 41.0148 55.1301H41.0348Z" fill="#5B6670"/>
<path d="M40.1738 61.4699C40.2638 61.3799 40.3238 61.2699 40.3438 61.1499L40.3938 60.9099C40.4238 60.7799 40.2738 60.6999 40.1738 60.7999L38.8038 62.0999L38.7638 62.1299C38.7638 62.1299 38.6938 62.1099 38.6638 62.0999C38.6038 62.0999 38.5438 62.0999 38.4838 62.1199C38.4238 62.1399 38.3638 62.1699 38.3038 62.2199C38.1038 62.4099 38.0638 62.7499 38.2138 62.9799C38.2938 63.0899 38.4038 63.1699 38.5338 63.1799C38.6338 63.1899 38.7338 63.1699 38.8238 63.1099C38.8438 63.0899 38.8738 63.0799 38.8938 63.0599C39.0138 62.9499 39.1238 62.7299 39.0638 62.5399L40.1838 61.4599L40.1738 61.4699ZM38.5838 62.8899C38.4638 62.8899 38.3638 62.7899 38.3638 62.6699C38.3638 62.5499 38.4638 62.4499 38.5838 62.4499C38.7038 62.4499 38.8038 62.5499 38.8038 62.6699C38.8038 62.7899 38.7038 62.8899 38.5838 62.8899Z" fill="#5B6670"/>
<path d="M42.744 62.5899C42.694 62.5899 42.644 62.5899 42.594 62.5999L41.584 61.0099C41.514 60.8999 41.384 60.9199 41.364 61.0499L41.324 61.1899C41.294 61.3499 41.264 61.3599 41.434 61.6799L42.254 62.9199C42.174 63.1099 42.184 63.3299 42.304 63.4999C42.384 63.6199 42.494 63.6899 42.634 63.7099C42.764 63.7299 42.894 63.6799 42.994 63.5899C43.204 63.3899 43.234 63.0499 43.084 62.8099C43.004 62.6899 42.894 62.6199 42.754 62.5999L42.744 62.5899ZM42.674 63.3499C42.554 63.3499 42.454 63.2499 42.454 63.1299C42.454 63.0099 42.554 62.9099 42.674 62.9099C42.794 62.9099 42.894 63.0099 42.894 63.1299C42.894 63.2499 42.794 63.3499 42.674 63.3499Z" fill="#5B6670"/>
<path d="M40.5142 64.2702C40.8142 62.6602 41.5942 58.4802 41.6042 58.4302C41.6642 58.0902 41.8442 57.1802 41.8942 56.6702C41.9242 56.4802 41.6142 56.3602 41.5442 56.6302C41.4542 57.0002 41.2242 57.9602 41.1542 58.3402C41.1542 58.3402 40.3042 62.5602 39.9842 64.1802C39.9642 64.2802 39.9142 64.3602 39.8642 64.4402C39.8242 64.4902 39.7942 64.5602 39.7842 64.6302C39.7442 64.8602 39.8842 65.0802 40.0942 65.1102C40.3042 65.1402 40.5042 64.9802 40.5442 64.7502C40.5442 64.7002 40.5442 64.6402 40.5442 64.5902C40.5242 64.4802 40.5042 64.3702 40.5342 64.2602L40.5142 64.2702Z" fill="#5B6670"/>
<path d="M42.6999 61.9381L41.5716 62.7837C41.5407 62.8069 41.5344 62.8508 41.5576 62.8817L41.6716 63.0337C41.6947 63.0647 41.7386 63.071 41.7695 63.0478L42.8978 62.2022C42.9288 62.179 42.9351 62.1351 42.9119 62.1042L42.7979 61.9521C42.7747 61.9212 42.7309 61.9149 42.6999 61.9381Z" fill="#5B6670"/>
</svg>
